G04*
G04 #@! TF.GenerationSoftware,Altium Limited,Altium Designer,25.8.1 (18)*
G04*
G04 Layer_Physical_Order=3*
G04 Layer_Color=16440176*
%FSLAX44Y44*%
%MOMM*%
G71*
G04*
G04 #@! TF.SameCoordinates,346E8232-17C7-4013-95A1-2B3E51FE4BFF*
G04*
G04*
G04 #@! TF.FilePolarity,Positive*
G04*
G01*
G75*
%ADD13C,0.3000*%
%ADD63R,1.3208X1.3208*%
%ADD64C,1.3208*%
%ADD65R,1.3208X1.3208*%
%ADD66C,1.3716*%
%ADD67R,1.3716X1.3716*%
%ADD69C,0.5000*%
%ADD71O,4.2000X1.7000*%
%ADD72O,1.7000X3.8000*%
%ADD73O,3.8000X1.7000*%
G04:AMPARAMS|DCode=74|XSize=1.6mm|YSize=1.6mm|CornerRadius=0.4mm|HoleSize=0mm|Usage=FLASHONLY|Rotation=90.000|XOffset=0mm|YOffset=0mm|HoleType=Round|Shape=RoundedRectangle|*
%AMROUNDEDRECTD74*
21,1,1.6000,0.8000,0,0,90.0*
21,1,0.8000,1.6000,0,0,90.0*
1,1,0.8000,0.4000,0.4000*
1,1,0.8000,0.4000,-0.4000*
1,1,0.8000,-0.4000,-0.4000*
1,1,0.8000,-0.4000,0.4000*
%
%ADD74ROUNDEDRECTD74*%
%ADD75C,1.6000*%
G04:AMPARAMS|DCode=76|XSize=1.3mm|YSize=1.3mm|CornerRadius=0.325mm|HoleSize=0mm|Usage=FLASHONLY|Rotation=270.000|XOffset=0mm|YOffset=0mm|HoleType=Round|Shape=RoundedRectangle|*
%AMROUNDEDRECTD76*
21,1,1.3000,0.6500,0,0,270.0*
21,1,0.6500,1.3000,0,0,270.0*
1,1,0.6500,-0.3250,-0.3250*
1,1,0.6500,-0.3250,0.3250*
1,1,0.6500,0.3250,0.3250*
1,1,0.6500,0.3250,-0.3250*
%
%ADD76ROUNDEDRECTD76*%
%ADD77C,1.3000*%
%ADD78C,1.2170*%
%ADD79C,1.5200*%
G04:AMPARAMS|DCode=80|XSize=1.52mm|YSize=1.52mm|CornerRadius=0.38mm|HoleSize=0mm|Usage=FLASHONLY|Rotation=90.000|XOffset=0mm|YOffset=0mm|HoleType=Round|Shape=RoundedRectangle|*
%AMROUNDEDRECTD80*
21,1,1.5200,0.7600,0,0,90.0*
21,1,0.7600,1.5200,0,0,90.0*
1,1,0.7600,0.3800,0.3800*
1,1,0.7600,0.3800,-0.3800*
1,1,0.7600,-0.3800,-0.3800*
1,1,0.7600,-0.3800,0.3800*
%
%ADD80ROUNDEDRECTD80*%
%ADD81C,1.7250*%
%ADD82C,0.8000*%
%ADD84C,0.4000*%
G36*
X337917Y994616D02*
X339737Y993862D01*
X341375Y992767D01*
X342767Y991375D01*
X343862Y989737D01*
X344616Y987917D01*
X345000Y985985D01*
Y985000D01*
Y15000D01*
Y14015D01*
X344616Y12083D01*
X343862Y10263D01*
X342767Y8625D01*
X341375Y7232D01*
X339737Y6138D01*
X337917Y5384D01*
X335985Y5000D01*
X14015D01*
X12083Y5384D01*
X10263Y6138D01*
X8625Y7232D01*
X7232Y8625D01*
X6138Y10263D01*
X5384Y12083D01*
X5000Y14015D01*
Y15000D01*
Y427187D01*
X5536Y427430D01*
X6016Y427499D01*
X7601Y425913D01*
X9807Y425000D01*
X12193D01*
X14399Y425913D01*
X16087Y427601D01*
X17000Y429807D01*
Y432193D01*
X16087Y434399D01*
X14399Y436087D01*
X12193Y437000D01*
X9807D01*
X7601Y436087D01*
X6016Y434501D01*
X5536Y434570D01*
X5000Y434813D01*
Y793187D01*
X5939Y793576D01*
X6601Y792914D01*
X8806Y792000D01*
X11193D01*
X13399Y792914D01*
X15087Y794601D01*
X16000Y796806D01*
Y799193D01*
X15087Y801399D01*
X13399Y803087D01*
X11193Y804000D01*
X8806D01*
X6601Y803087D01*
X5939Y802424D01*
X5000Y802813D01*
Y980000D01*
Y981477D01*
X5576Y984375D01*
X6707Y987105D01*
X8349Y989562D01*
X10438Y991651D01*
X12895Y993293D01*
X15625Y994424D01*
X18523Y995000D01*
X335985D01*
X337917Y994616D01*
D02*
G37*
G36*
X707907Y602604D02*
X707486Y601588D01*
X705900D01*
X592744Y714744D01*
X591256Y715739D01*
X589500Y716088D01*
X399897D01*
X399399Y716587D01*
X397676Y717300D01*
Y718400D01*
X399399Y719113D01*
X401087Y720801D01*
X402000Y723007D01*
Y723711D01*
X410700Y732412D01*
X511146D01*
X511348Y731396D01*
X510601Y731087D01*
X508913Y729399D01*
X508000Y727194D01*
Y724807D01*
X508913Y722601D01*
X510601Y720913D01*
X512807Y720000D01*
X515193D01*
X517399Y720913D01*
X519086Y722601D01*
X520000Y724807D01*
Y727194D01*
X519086Y729399D01*
X517399Y731087D01*
X516652Y731396D01*
X516854Y732412D01*
X536777D01*
X536979Y731396D01*
X535388Y730737D01*
X533700Y729049D01*
X532786Y726843D01*
Y724456D01*
X533700Y722251D01*
X535388Y720564D01*
X537593Y719650D01*
X539980D01*
X542185Y720564D01*
X543873Y722251D01*
X544786Y724456D01*
Y726843D01*
X543873Y729049D01*
X542185Y730737D01*
X540594Y731396D01*
X540796Y732412D01*
X578100D01*
X707907Y602604D01*
D02*
G37*
G36*
X980084Y989462D02*
X982632Y988407D01*
X984924Y986874D01*
X986874Y984924D01*
X988407Y982632D01*
X989462Y980084D01*
X990000Y977379D01*
Y976000D01*
Y694196D01*
X988984Y694063D01*
X988946Y694205D01*
X987682Y696395D01*
X985894Y698182D01*
X983705Y699446D01*
X981264Y700100D01*
X978736D01*
X976294Y699446D01*
X974106Y698182D01*
X972318Y696395D01*
X971054Y694205D01*
X970400Y691764D01*
Y689236D01*
X971054Y686795D01*
X972318Y684605D01*
X974106Y682818D01*
X976294Y681554D01*
X978736Y680900D01*
X981264D01*
X983705Y681554D01*
X985894Y682818D01*
X987682Y684605D01*
X988946Y686795D01*
X988984Y686937D01*
X990000Y686804D01*
Y668796D01*
X988984Y668663D01*
X988946Y668805D01*
X987682Y670994D01*
X985894Y672782D01*
X983705Y674046D01*
X981264Y674700D01*
X978736D01*
X976294Y674046D01*
X974106Y672782D01*
X972318Y670994D01*
X971054Y668805D01*
X970400Y666364D01*
Y663836D01*
X971054Y661395D01*
X972318Y659205D01*
X974106Y657418D01*
X976294Y656154D01*
X978736Y655500D01*
X981264D01*
X983705Y656154D01*
X985894Y657418D01*
X987682Y659205D01*
X988946Y661395D01*
X988984Y661537D01*
X990000Y661404D01*
Y643397D01*
X988984Y643263D01*
X988946Y643405D01*
X987682Y645594D01*
X985894Y647382D01*
X983705Y648646D01*
X981264Y649300D01*
X978736D01*
X976294Y648646D01*
X974106Y647382D01*
X972318Y645594D01*
X971054Y643405D01*
X970400Y640964D01*
Y638436D01*
X971054Y635994D01*
X972318Y633806D01*
X974106Y632018D01*
X976294Y630754D01*
X978736Y630100D01*
X981264D01*
X983705Y630754D01*
X985894Y632018D01*
X987682Y633806D01*
X988946Y635994D01*
X988984Y636137D01*
X990000Y636003D01*
Y617996D01*
X988984Y617863D01*
X988946Y618005D01*
X987682Y620195D01*
X985894Y621982D01*
X983705Y623246D01*
X981264Y623900D01*
X978736D01*
X976294Y623246D01*
X974106Y621982D01*
X972318Y620195D01*
X971054Y618005D01*
X970400Y615564D01*
Y613036D01*
X970943Y611011D01*
X933011Y573078D01*
X875627D01*
X874968Y574094D01*
X875635Y575707D01*
Y578093D01*
X874722Y580299D01*
X873034Y581987D01*
X871311Y582700D01*
Y583800D01*
X873034Y584514D01*
X874722Y586201D01*
X875635Y588407D01*
Y590793D01*
X874722Y592999D01*
X873034Y594687D01*
X871311Y595400D01*
Y596500D01*
X873034Y597214D01*
X874722Y598901D01*
X875635Y601107D01*
Y603493D01*
X874722Y605699D01*
X873034Y607387D01*
X871311Y608100D01*
Y609200D01*
X873034Y609913D01*
X874722Y611601D01*
X875635Y613807D01*
Y616194D01*
X874722Y618399D01*
X873034Y620087D01*
X871311Y620800D01*
Y621900D01*
X873034Y622613D01*
X874722Y624301D01*
X875635Y626507D01*
Y628894D01*
X874722Y631099D01*
X873034Y632787D01*
X871311Y633500D01*
Y634600D01*
X873034Y635313D01*
X874722Y637001D01*
X875635Y639207D01*
Y641593D01*
X874722Y643799D01*
X873034Y645487D01*
X871311Y646200D01*
Y647300D01*
X873034Y648014D01*
X874722Y649701D01*
X875635Y651907D01*
Y654294D01*
X874722Y656499D01*
X873034Y658187D01*
X871311Y658900D01*
Y660000D01*
X873034Y660714D01*
X874722Y662401D01*
X875635Y664607D01*
Y666993D01*
X874722Y669199D01*
X873034Y670887D01*
X871311Y671600D01*
Y672700D01*
X873034Y673413D01*
X874722Y675101D01*
X875635Y677307D01*
Y679694D01*
X874722Y681899D01*
X873034Y683587D01*
X871311Y684300D01*
Y685400D01*
X873034Y686114D01*
X874722Y687801D01*
X875635Y690007D01*
Y692393D01*
X874722Y694599D01*
X873034Y696287D01*
X871311Y697000D01*
Y698100D01*
X873034Y698813D01*
X874722Y700501D01*
X875635Y702707D01*
Y705094D01*
X874722Y707299D01*
X873034Y708987D01*
X870829Y709900D01*
X868442D01*
X866237Y708987D01*
X864549Y707299D01*
X863635Y705094D01*
Y702707D01*
X864549Y700501D01*
X866237Y698813D01*
X867960Y698100D01*
Y697000D01*
X866237Y696287D01*
X864549Y694599D01*
X863635Y692393D01*
Y690007D01*
X864549Y687801D01*
X866237Y686114D01*
X867960Y685400D01*
Y684300D01*
X866237Y683587D01*
X864549Y681899D01*
X863635Y679694D01*
Y677307D01*
X864549Y675101D01*
X866237Y673413D01*
X867960Y672700D01*
Y671600D01*
X866237Y670887D01*
X864549Y669199D01*
X863635Y666993D01*
Y664607D01*
X864549Y662401D01*
X866237Y660714D01*
X867960Y660000D01*
Y658900D01*
X866237Y658187D01*
X864549Y656499D01*
X863635Y654294D01*
Y651907D01*
X864549Y649701D01*
X866237Y648014D01*
X867960Y647300D01*
Y646200D01*
X866237Y645487D01*
X864549Y643799D01*
X863635Y641593D01*
Y639207D01*
X864549Y637001D01*
X866237Y635313D01*
X867960Y634600D01*
Y633500D01*
X866237Y632787D01*
X864549Y631099D01*
X863635Y628894D01*
Y626507D01*
X864549Y624301D01*
X866237Y622613D01*
X867960Y621900D01*
Y620800D01*
X866237Y620087D01*
X864549Y618399D01*
X863635Y616194D01*
Y615489D01*
X857735Y609588D01*
X846401D01*
X846012Y610527D01*
X846087Y610601D01*
X847000Y612807D01*
Y615193D01*
X846087Y617399D01*
X844399Y619086D01*
X842194Y620000D01*
X839807D01*
X837601Y619086D01*
X835913Y617399D01*
X835000Y615193D01*
Y612807D01*
X835913Y610601D01*
X835988Y610527D01*
X835599Y609588D01*
X780401D01*
X780012Y610527D01*
X780087Y610601D01*
X781000Y612807D01*
Y615193D01*
X780087Y617399D01*
X778399Y619086D01*
X776193Y620000D01*
X773807D01*
X771601Y619086D01*
X769913Y617399D01*
X769000Y615193D01*
Y612807D01*
X769913Y610601D01*
X769988Y610527D01*
X769599Y609588D01*
X713901D01*
X583244Y740244D01*
X581756Y741239D01*
X580000Y741588D01*
X408800D01*
X407044Y741239D01*
X405556Y740244D01*
X395511Y730200D01*
X394807D01*
X392601Y729287D01*
X390914Y727599D01*
X390000Y725394D01*
Y723007D01*
X390914Y720801D01*
X392601Y719113D01*
X394324Y718400D01*
Y717300D01*
X392601Y716587D01*
X390914Y714899D01*
X390000Y712693D01*
Y710306D01*
X390914Y708101D01*
X392601Y706413D01*
X394324Y705700D01*
Y704600D01*
X392601Y703887D01*
X390914Y702199D01*
X390000Y699994D01*
Y697607D01*
X390914Y695401D01*
X392601Y693713D01*
X394324Y693000D01*
Y691900D01*
X392601Y691187D01*
X390914Y689499D01*
X390000Y687293D01*
Y684906D01*
X390914Y682701D01*
X392601Y681013D01*
X394807Y680100D01*
X397193D01*
X399399Y681013D01*
X399897Y681512D01*
X577000D01*
X684856Y573656D01*
X686344Y572661D01*
X688100Y572312D01*
X804963D01*
X805528Y571467D01*
X805000Y570193D01*
Y567807D01*
X805913Y565601D01*
X807601Y563913D01*
X809807Y563000D01*
X812194D01*
X812344Y563062D01*
X813062Y562344D01*
X813000Y562193D01*
Y559807D01*
X813913Y557601D01*
X815601Y555913D01*
X817806Y555000D01*
X820193D01*
X820344Y555062D01*
X821062Y554344D01*
X821000Y554193D01*
Y551806D01*
X821913Y549601D01*
X823601Y547914D01*
X825807Y547000D01*
X828000D01*
Y544807D01*
X828913Y542601D01*
X830601Y540913D01*
X832806Y540000D01*
X834234D01*
X835000Y539193D01*
Y536806D01*
X835913Y534601D01*
X837601Y532913D01*
X839807Y532000D01*
X842194D01*
X844399Y532913D01*
X845407Y533922D01*
X953011D01*
X970943Y515989D01*
X970400Y513964D01*
Y511436D01*
X971054Y508994D01*
X972318Y506805D01*
X974106Y505018D01*
X976294Y503754D01*
X978736Y503100D01*
X981264D01*
X983705Y503754D01*
X985894Y505018D01*
X987682Y506805D01*
X988946Y508994D01*
X988984Y509137D01*
X990000Y509003D01*
Y490997D01*
X988984Y490863D01*
X988946Y491005D01*
X987682Y493195D01*
X985894Y494982D01*
X983705Y496246D01*
X981264Y496900D01*
X978736D01*
X976294Y496246D01*
X974106Y494982D01*
X972318Y493195D01*
X971054Y491005D01*
X970400Y488564D01*
Y486036D01*
X971054Y483595D01*
X972318Y481405D01*
X974106Y479618D01*
X976294Y478354D01*
X978736Y477700D01*
X981264D01*
X983705Y478354D01*
X985894Y479618D01*
X987682Y481405D01*
X988946Y483595D01*
X988984Y483737D01*
X990000Y483604D01*
Y465597D01*
X988984Y465463D01*
X988946Y465605D01*
X987682Y467794D01*
X985894Y469582D01*
X983705Y470846D01*
X981264Y471500D01*
X978736D01*
X976294Y470846D01*
X974106Y469582D01*
X972318Y467794D01*
X971054Y465605D01*
X970400Y463164D01*
Y460636D01*
X971054Y458195D01*
X972318Y456006D01*
X974106Y454218D01*
X976294Y452954D01*
X978736Y452300D01*
X981264D01*
X983705Y452954D01*
X985894Y454218D01*
X987682Y456006D01*
X988946Y458195D01*
X988984Y458337D01*
X990000Y458204D01*
Y440196D01*
X988984Y440063D01*
X988946Y440205D01*
X987682Y442394D01*
X985894Y444182D01*
X983705Y445446D01*
X981264Y446100D01*
X978736D01*
X976294Y445446D01*
X974106Y444182D01*
X972318Y442394D01*
X971054Y440205D01*
X970400Y437764D01*
Y435236D01*
X971054Y432794D01*
X972318Y430606D01*
X974106Y428818D01*
X976294Y427554D01*
X978736Y426900D01*
X981264D01*
X983705Y427554D01*
X985894Y428818D01*
X987682Y430606D01*
X988946Y432794D01*
X988984Y432937D01*
X990000Y432803D01*
Y414796D01*
X988984Y414663D01*
X988946Y414805D01*
X987682Y416995D01*
X985894Y418782D01*
X983705Y420046D01*
X981264Y420700D01*
X978736D01*
X976294Y420046D01*
X974106Y418782D01*
X972318Y416995D01*
X971054Y414805D01*
X970400Y412364D01*
Y409836D01*
X971054Y407394D01*
X972318Y405205D01*
X974106Y403418D01*
X976294Y402154D01*
X978736Y401500D01*
X981264D01*
X983705Y402154D01*
X985894Y403418D01*
X987682Y405205D01*
X988946Y407394D01*
X988984Y407537D01*
X990000Y407403D01*
Y389397D01*
X988984Y389263D01*
X988946Y389405D01*
X987682Y391595D01*
X985894Y393382D01*
X983705Y394646D01*
X981264Y395300D01*
X978736D01*
X976294Y394646D01*
X974106Y393382D01*
X972318Y391595D01*
X971054Y389405D01*
X970400Y386964D01*
Y384436D01*
X971054Y381995D01*
X972318Y379805D01*
X974106Y378018D01*
X976294Y376754D01*
X978736Y376100D01*
X981264D01*
X983705Y376754D01*
X985894Y378018D01*
X987682Y379805D01*
X988946Y381995D01*
X988984Y382137D01*
X990000Y382004D01*
Y363997D01*
X988984Y363863D01*
X988946Y364005D01*
X987682Y366194D01*
X985894Y367982D01*
X983705Y369246D01*
X981264Y369900D01*
X978736D01*
X976294Y369246D01*
X974106Y367982D01*
X972318Y366194D01*
X971054Y364005D01*
X970400Y361564D01*
Y359036D01*
X971054Y356595D01*
X972318Y354406D01*
X974106Y352618D01*
X976294Y351354D01*
X978736Y350700D01*
X981264D01*
X983705Y351354D01*
X985894Y352618D01*
X987682Y354406D01*
X988946Y356595D01*
X988984Y356737D01*
X990000Y356604D01*
Y338596D01*
X988984Y338463D01*
X988946Y338605D01*
X987682Y340794D01*
X985894Y342582D01*
X983705Y343846D01*
X981264Y344500D01*
X978736D01*
X976294Y343846D01*
X974106Y342582D01*
X972318Y340794D01*
X971054Y338605D01*
X970400Y336164D01*
Y333636D01*
X971054Y331194D01*
X972318Y329006D01*
X974106Y327218D01*
X976294Y325954D01*
X978736Y325300D01*
X981264D01*
X983705Y325954D01*
X985894Y327218D01*
X987682Y329006D01*
X988946Y331194D01*
X988984Y331337D01*
X990000Y331203D01*
Y316290D01*
X988984Y315981D01*
X987982Y317482D01*
X986063Y318764D01*
X983800Y319214D01*
X976200D01*
X973937Y318764D01*
X972018Y317482D01*
X970736Y315563D01*
X970286Y313300D01*
Y305700D01*
X970736Y303437D01*
X972018Y301518D01*
X973937Y300236D01*
X976200Y299786D01*
X983800D01*
X986063Y300236D01*
X987982Y301518D01*
X988984Y303019D01*
X990000Y302710D01*
Y15000D01*
Y14015D01*
X989616Y12083D01*
X988862Y10263D01*
X987767Y8625D01*
X986375Y7232D01*
X984737Y6138D01*
X982917Y5384D01*
X980985Y5000D01*
X373114D01*
X371375Y5346D01*
X369737Y6024D01*
X368263Y7009D01*
X367009Y8263D01*
X366024Y9737D01*
X365346Y11375D01*
X365000Y13114D01*
Y56822D01*
X366016Y56955D01*
X366299Y55899D01*
X367698Y53476D01*
X369676Y51498D01*
X372099Y50099D01*
X374801Y49375D01*
X377599D01*
X380301Y50099D01*
X382724Y51498D01*
X384702Y53476D01*
X386101Y55899D01*
X386825Y58601D01*
Y61399D01*
X386101Y64101D01*
X384702Y66524D01*
X382724Y68502D01*
X380301Y69901D01*
X377599Y70625D01*
X374801D01*
X372099Y69901D01*
X369676Y68502D01*
X367698Y66524D01*
X366299Y64101D01*
X366016Y63045D01*
X365000Y63178D01*
Y975000D01*
Y976477D01*
X365576Y979375D01*
X366707Y982105D01*
X368349Y984562D01*
X370438Y986651D01*
X372895Y988293D01*
X375625Y989424D01*
X378523Y990000D01*
X977379D01*
X980084Y989462D01*
D02*
G37*
G36*
X990000Y610603D02*
Y592597D01*
X988984Y592463D01*
X988946Y592605D01*
X987682Y594795D01*
X985894Y596582D01*
X983705Y597846D01*
X981264Y598500D01*
X978736D01*
X976294Y597846D01*
X974106Y596582D01*
X972318Y594795D01*
X971054Y592605D01*
X970400Y590164D01*
Y587636D01*
X970943Y585611D01*
X950411Y565078D01*
X937859D01*
X937551Y566094D01*
X937584Y566116D01*
X976711Y605243D01*
X978736Y604700D01*
X981264D01*
X983705Y605354D01*
X985894Y606618D01*
X987682Y608405D01*
X988946Y610594D01*
X988984Y610737D01*
X990000Y610603D01*
D02*
G37*
G36*
X699385Y595127D02*
X698996Y594188D01*
X695300D01*
X587444Y702044D01*
X585956Y703039D01*
X584200Y703388D01*
X399897D01*
X399399Y703887D01*
X397676Y704600D01*
Y705700D01*
X399399Y706413D01*
X399897Y706912D01*
X587599D01*
X699385Y595127D01*
D02*
G37*
G36*
X690156Y586356D02*
X691644Y585361D01*
X693400Y585012D01*
X865738D01*
X866237Y584514D01*
X867960Y583800D01*
Y582700D01*
X866237Y581987D01*
X865738Y581488D01*
X690000D01*
X582144Y689344D01*
X580656Y690339D01*
X578900Y690688D01*
X399897D01*
X399399Y691187D01*
X397676Y691900D01*
Y693000D01*
X399399Y693713D01*
X399897Y694212D01*
X582299D01*
X690156Y586356D01*
D02*
G37*
G36*
X990000Y585204D02*
Y567197D01*
X988984Y567063D01*
X988946Y567205D01*
X987682Y569394D01*
X985894Y571182D01*
X983705Y572446D01*
X981264Y573100D01*
X978736D01*
X976294Y572446D01*
X974106Y571182D01*
X972318Y569394D01*
X971054Y567205D01*
X970400Y564764D01*
Y562236D01*
X970415Y562182D01*
X965581Y557348D01*
X955583D01*
X955232Y558364D01*
X976711Y579843D01*
X978736Y579300D01*
X981264D01*
X983705Y579954D01*
X985894Y581218D01*
X987682Y583005D01*
X988946Y585195D01*
X988984Y585337D01*
X990000Y585204D01*
D02*
G37*
G36*
X970869Y541113D02*
X970400Y539364D01*
Y536836D01*
X971054Y534394D01*
X972318Y532206D01*
X974106Y530418D01*
X976294Y529154D01*
X978736Y528500D01*
X981264D01*
X983705Y529154D01*
X985894Y530418D01*
X987682Y532206D01*
X988946Y534394D01*
X988984Y534537D01*
X990000Y534403D01*
Y516396D01*
X988984Y516263D01*
X988946Y516405D01*
X987682Y518595D01*
X985894Y520382D01*
X983705Y521646D01*
X981264Y522300D01*
X978736D01*
X976711Y521757D01*
X957584Y540884D01*
X957551Y540906D01*
X957859Y541922D01*
X970185D01*
X970869Y541113D01*
D02*
G37*
%LPC*%
G36*
X166194Y980000D02*
X163806D01*
X161601Y979087D01*
X159913Y977399D01*
X159000Y975193D01*
Y972806D01*
X159913Y970601D01*
X161601Y968913D01*
X163806Y968000D01*
X166194D01*
X168399Y968913D01*
X170087Y970601D01*
X171000Y972806D01*
Y975193D01*
X170087Y977399D01*
X168399Y979087D01*
X166194Y980000D01*
D02*
G37*
G36*
X146194D02*
X143806D01*
X141601Y979087D01*
X139913Y977399D01*
X139000Y975193D01*
Y972806D01*
X139913Y970601D01*
X141601Y968913D01*
X143806Y968000D01*
X146194D01*
X148399Y968913D01*
X150086Y970601D01*
X151000Y972806D01*
Y975193D01*
X150086Y977399D01*
X148399Y979087D01*
X146194Y980000D01*
D02*
G37*
G36*
X288694Y963350D02*
X286306D01*
X284101Y962437D01*
X282414Y960749D01*
X281500Y958543D01*
Y956156D01*
X282414Y953951D01*
X284101Y952263D01*
X285824Y951550D01*
Y950450D01*
X284101Y949737D01*
X282414Y948049D01*
X281500Y945844D01*
Y943456D01*
X282414Y941251D01*
X284101Y939563D01*
X286306Y938650D01*
X288694D01*
X290899Y939563D01*
X292587Y941251D01*
X293500Y943456D01*
Y945844D01*
X292587Y948049D01*
X290899Y949737D01*
X289176Y950450D01*
Y951550D01*
X290899Y952263D01*
X292587Y953951D01*
X293500Y956156D01*
Y958543D01*
X292587Y960749D01*
X290899Y962437D01*
X288694Y963350D01*
D02*
G37*
G36*
X52364Y974000D02*
X47636D01*
X43000Y973078D01*
X38632Y971268D01*
X34701Y968642D01*
X31358Y965299D01*
X28732Y961368D01*
X26922Y957001D01*
X26000Y952364D01*
Y947636D01*
X26922Y942999D01*
X28732Y938632D01*
X31358Y934701D01*
X34701Y931358D01*
X38632Y928732D01*
X43000Y926922D01*
X47636Y926000D01*
X52364D01*
X57000Y926922D01*
X61368Y928732D01*
X65299Y931358D01*
X68642Y934701D01*
X71269Y938632D01*
X73078Y942999D01*
X74000Y947636D01*
Y952364D01*
X73078Y957001D01*
X71269Y961368D01*
X68642Y965299D01*
X65299Y968642D01*
X61368Y971268D01*
X57000Y973078D01*
X52364Y974000D01*
D02*
G37*
G36*
X213543Y928300D02*
X211157D01*
X208951Y927387D01*
X207263Y925699D01*
X206550Y923976D01*
X205450D01*
X204736Y925699D01*
X203049Y927387D01*
X200844Y928300D01*
X198456D01*
X196251Y927387D01*
X194563Y925699D01*
X193650Y923493D01*
Y921106D01*
X194563Y918901D01*
X196251Y917214D01*
X198456Y916300D01*
X200844D01*
X203049Y917214D01*
X204736Y918901D01*
X205450Y920624D01*
X206550D01*
X207263Y918901D01*
X208951Y917214D01*
X211157Y916300D01*
X213543D01*
X215749Y917214D01*
X217437Y918901D01*
X218350Y921106D01*
Y923493D01*
X217437Y925699D01*
X215749Y927387D01*
X213543Y928300D01*
D02*
G37*
G36*
X165194Y925000D02*
X162806D01*
X160601Y924087D01*
X158913Y922399D01*
X158000Y920193D01*
Y917806D01*
X158913Y915601D01*
X160601Y913913D01*
X162806Y913000D01*
X165194D01*
X167399Y913913D01*
X169087Y915601D01*
X170000Y917806D01*
Y920193D01*
X169087Y922399D01*
X167399Y924087D01*
X165194Y925000D01*
D02*
G37*
G36*
X48800Y881014D02*
X41200D01*
X38937Y880564D01*
X37018Y879282D01*
X35736Y877363D01*
X35286Y875100D01*
Y867500D01*
X35736Y865237D01*
X37018Y863318D01*
X38937Y862037D01*
X41200Y861586D01*
X48800D01*
X51063Y862037D01*
X52982Y863318D01*
X54264Y865237D01*
X54714Y867500D01*
Y875100D01*
X54264Y877363D01*
X52982Y879282D01*
X51063Y880564D01*
X48800Y881014D01*
D02*
G37*
G36*
X201900Y879914D02*
X194300D01*
X192037Y879464D01*
X190118Y878182D01*
X188836Y876263D01*
X188386Y874000D01*
Y866400D01*
X188836Y864137D01*
X190118Y862218D01*
X192037Y860937D01*
X194300Y860486D01*
X201900D01*
X204163Y860937D01*
X206082Y862218D01*
X207363Y864137D01*
X207814Y866400D01*
Y874000D01*
X207363Y876263D01*
X206082Y878182D01*
X204163Y879464D01*
X201900Y879914D01*
D02*
G37*
G36*
X28194Y854000D02*
X25807D01*
X23601Y853087D01*
X21913Y851399D01*
X21000Y849193D01*
Y846806D01*
X21913Y844601D01*
X23601Y842914D01*
X25807Y842000D01*
X28194D01*
X30399Y842914D01*
X32087Y844601D01*
X33000Y846806D01*
Y849193D01*
X32087Y851399D01*
X30399Y853087D01*
X28194Y854000D01*
D02*
G37*
G36*
X46264Y855500D02*
X43736D01*
X41295Y854846D01*
X39106Y853582D01*
X37318Y851795D01*
X36054Y849605D01*
X35400Y847164D01*
Y844636D01*
X36054Y842195D01*
X37318Y840005D01*
X39106Y838218D01*
X41295Y836954D01*
X43736Y836300D01*
X46264D01*
X48706Y836954D01*
X50894Y838218D01*
X52682Y840005D01*
X53946Y842195D01*
X54600Y844636D01*
Y847164D01*
X53946Y849605D01*
X52682Y851795D01*
X50894Y853582D01*
X48706Y854846D01*
X46264Y855500D01*
D02*
G37*
G36*
X20194Y826000D02*
X17807D01*
X15601Y825087D01*
X13913Y823399D01*
X13000Y821193D01*
Y818807D01*
X13913Y816601D01*
X15601Y814913D01*
X17807Y814000D01*
X20194D01*
X22399Y814913D01*
X24086Y816601D01*
X25000Y818807D01*
Y821193D01*
X24086Y823399D01*
X22399Y825087D01*
X20194Y826000D01*
D02*
G37*
G36*
X46264Y830100D02*
X43736D01*
X41295Y829446D01*
X39106Y828182D01*
X37318Y826395D01*
X36054Y824205D01*
X35400Y821764D01*
Y819236D01*
X36054Y816795D01*
X37318Y814605D01*
X39106Y812818D01*
X41295Y811554D01*
X43736Y810900D01*
X46264D01*
X48706Y811554D01*
X50894Y812818D01*
X52682Y814605D01*
X53946Y816795D01*
X54600Y819236D01*
Y821764D01*
X53946Y824205D01*
X52682Y826395D01*
X50894Y828182D01*
X48706Y829446D01*
X46264Y830100D01*
D02*
G37*
G36*
X199364Y829000D02*
X196836D01*
X194395Y828346D01*
X192206Y827082D01*
X190418Y825295D01*
X189154Y823105D01*
X188500Y820664D01*
Y818136D01*
X189154Y815695D01*
X190418Y813505D01*
X192206Y811718D01*
X194395Y810454D01*
X196836Y809800D01*
X199364D01*
X201805Y810454D01*
X203995Y811718D01*
X205782Y813505D01*
X207046Y815695D01*
X207700Y818136D01*
Y820664D01*
X207046Y823105D01*
X205782Y825295D01*
X203995Y827082D01*
X201805Y828346D01*
X199364Y829000D01*
D02*
G37*
G36*
X299193Y843900D02*
X296807D01*
X294601Y842987D01*
X292913Y841299D01*
X292000Y839093D01*
Y836706D01*
X292913Y834501D01*
X294601Y832813D01*
X295459Y832458D01*
Y831442D01*
X294601Y831087D01*
X292913Y829399D01*
X292000Y827194D01*
Y824807D01*
X292913Y822601D01*
X294601Y820913D01*
X296807Y820000D01*
X297768D01*
X297806Y819000D01*
X295601Y818087D01*
X293913Y816399D01*
X293000Y814193D01*
Y811806D01*
X293913Y809601D01*
X295601Y807913D01*
X297806Y807000D01*
X300194D01*
X302399Y807913D01*
X304086Y809601D01*
X305000Y811806D01*
Y814193D01*
X304086Y816399D01*
X302399Y818087D01*
X300194Y819000D01*
X299232D01*
X299193Y820000D01*
X301399Y820913D01*
X303086Y822601D01*
X304000Y824807D01*
Y827194D01*
X303086Y829399D01*
X301399Y831087D01*
X300541Y831442D01*
Y832458D01*
X301399Y832813D01*
X303087Y834501D01*
X304000Y836706D01*
Y839093D01*
X303087Y841299D01*
X301399Y842987D01*
X299193Y843900D01*
D02*
G37*
G36*
X46264Y804700D02*
X43736D01*
X41295Y804046D01*
X39106Y802782D01*
X37318Y800994D01*
X36054Y798805D01*
X35400Y796364D01*
Y793836D01*
X36054Y791395D01*
X37318Y789205D01*
X39106Y787418D01*
X41295Y786154D01*
X43736Y785500D01*
X46264D01*
X48706Y786154D01*
X50894Y787418D01*
X52682Y789205D01*
X53946Y791395D01*
X54600Y793836D01*
Y796364D01*
X53946Y798805D01*
X52682Y800994D01*
X50894Y802782D01*
X48706Y804046D01*
X46264Y804700D01*
D02*
G37*
G36*
X199364Y803600D02*
X196836D01*
X194395Y802946D01*
X192206Y801682D01*
X190418Y799895D01*
X189154Y797706D01*
X188500Y795264D01*
Y792736D01*
X189154Y790295D01*
X190418Y788105D01*
X192206Y786318D01*
X194395Y785054D01*
X196836Y784400D01*
X199364D01*
X201805Y785054D01*
X203995Y786318D01*
X205782Y788105D01*
X207046Y790295D01*
X207700Y792736D01*
Y795264D01*
X207046Y797706D01*
X205782Y799895D01*
X203995Y801682D01*
X201805Y802946D01*
X199364Y803600D01*
D02*
G37*
G36*
X46264Y779300D02*
X43736D01*
X41295Y778646D01*
X39106Y777382D01*
X37318Y775594D01*
X36054Y773406D01*
X35400Y770964D01*
Y768436D01*
X36054Y765995D01*
X37318Y763805D01*
X39106Y762018D01*
X41295Y760754D01*
X43736Y760100D01*
X46264D01*
X48706Y760754D01*
X50894Y762018D01*
X52682Y763805D01*
X53946Y765995D01*
X54600Y768436D01*
Y770964D01*
X53946Y773406D01*
X52682Y775594D01*
X50894Y777382D01*
X48706Y778646D01*
X46264Y779300D01*
D02*
G37*
G36*
X199364Y778200D02*
X196836D01*
X194395Y777546D01*
X192206Y776282D01*
X190418Y774495D01*
X189154Y772306D01*
X188500Y769864D01*
Y767336D01*
X189154Y764895D01*
X190418Y762706D01*
X192206Y760918D01*
X194395Y759654D01*
X196836Y759000D01*
X199364D01*
X201805Y759654D01*
X203995Y760918D01*
X205782Y762706D01*
X207046Y764895D01*
X207700Y767336D01*
Y769864D01*
X207046Y772306D01*
X205782Y774495D01*
X203995Y776282D01*
X201805Y777546D01*
X199364Y778200D01*
D02*
G37*
G36*
X46264Y753900D02*
X43736D01*
X41295Y753246D01*
X39106Y751982D01*
X37318Y750194D01*
X36054Y748006D01*
X35400Y745564D01*
Y743036D01*
X36054Y740595D01*
X37318Y738406D01*
X39106Y736618D01*
X41295Y735354D01*
X43736Y734700D01*
X46264D01*
X48706Y735354D01*
X50894Y736618D01*
X52682Y738406D01*
X53946Y740595D01*
X54600Y743036D01*
Y745564D01*
X53946Y748006D01*
X52682Y750194D01*
X50894Y751982D01*
X48706Y753246D01*
X46264Y753900D01*
D02*
G37*
G36*
X199364Y752800D02*
X196836D01*
X194395Y752146D01*
X192206Y750882D01*
X190418Y749095D01*
X189154Y746906D01*
X188500Y744464D01*
Y741936D01*
X189154Y739495D01*
X190418Y737306D01*
X192206Y735518D01*
X194395Y734254D01*
X196836Y733600D01*
X199364D01*
X201805Y734254D01*
X203995Y735518D01*
X205782Y737306D01*
X207046Y739495D01*
X207700Y741936D01*
Y744464D01*
X207046Y746906D01*
X205782Y749095D01*
X203995Y750882D01*
X201805Y752146D01*
X199364Y752800D01*
D02*
G37*
G36*
X91194Y730000D02*
X88806D01*
X86601Y729087D01*
X84913Y727399D01*
X84000Y725193D01*
Y722806D01*
X84913Y720601D01*
X86601Y718913D01*
X88806Y718000D01*
X91194D01*
X93399Y718913D01*
X95087Y720601D01*
X96000Y722806D01*
Y725193D01*
X95087Y727399D01*
X93399Y729087D01*
X91194Y730000D01*
D02*
G37*
G36*
X199364Y727400D02*
X196836D01*
X194395Y726746D01*
X192206Y725482D01*
X190418Y723695D01*
X189154Y721506D01*
X188500Y719064D01*
Y716536D01*
X189154Y714095D01*
X190418Y711906D01*
X192206Y710118D01*
X194395Y708854D01*
X196836Y708200D01*
X199364D01*
X201805Y708854D01*
X203995Y710118D01*
X205782Y711906D01*
X207046Y714095D01*
X207700Y716536D01*
Y719064D01*
X207046Y721506D01*
X205782Y723695D01*
X203995Y725482D01*
X201805Y726746D01*
X199364Y727400D01*
D02*
G37*
G36*
X46264Y728500D02*
X43736D01*
X41295Y727846D01*
X39106Y726582D01*
X37318Y724794D01*
X36054Y722606D01*
X35400Y720164D01*
Y717636D01*
X36054Y715195D01*
X37318Y713006D01*
X39106Y711218D01*
X41295Y709954D01*
X43736Y709300D01*
X46264D01*
X48706Y709954D01*
X50894Y711218D01*
X51984Y712308D01*
X53000Y711887D01*
Y711806D01*
X53913Y709601D01*
X55601Y707913D01*
X57807Y707000D01*
X60194D01*
X62399Y707913D01*
X64087Y709601D01*
X65000Y711806D01*
Y714193D01*
X64087Y716399D01*
X62399Y718086D01*
X60194Y719000D01*
X57807D01*
X55601Y718086D01*
X54600Y718522D01*
Y720164D01*
X53946Y722606D01*
X52682Y724794D01*
X50894Y726582D01*
X48706Y727846D01*
X46264Y728500D01*
D02*
G37*
G36*
X68193Y703000D02*
X65806D01*
X63601Y702087D01*
X61913Y700399D01*
X61000Y698194D01*
Y695807D01*
X61913Y693601D01*
X63601Y691913D01*
X65806Y691000D01*
X68193D01*
X70399Y691913D01*
X72087Y693601D01*
X73000Y695807D01*
Y698194D01*
X72087Y700399D01*
X70399Y702087D01*
X68193Y703000D01*
D02*
G37*
G36*
X46264Y703100D02*
X43736D01*
X41295Y702446D01*
X39106Y701182D01*
X37318Y699395D01*
X36054Y697206D01*
X35400Y694764D01*
Y692236D01*
X36054Y689795D01*
X37318Y687606D01*
X39106Y685818D01*
X41295Y684554D01*
X43736Y683900D01*
X46264D01*
X48706Y684554D01*
X50894Y685818D01*
X52682Y687606D01*
X53946Y689795D01*
X54600Y692236D01*
Y694764D01*
X53946Y697206D01*
X52682Y699395D01*
X50894Y701182D01*
X48706Y702446D01*
X46264Y703100D01*
D02*
G37*
G36*
X199364Y702000D02*
X196836D01*
X194395Y701346D01*
X192206Y700082D01*
X190418Y698295D01*
X189154Y696105D01*
X188500Y693664D01*
Y691136D01*
X189154Y688695D01*
X190418Y686506D01*
X192206Y684718D01*
X194395Y683454D01*
X196836Y682800D01*
X199364D01*
X201805Y683454D01*
X203995Y684718D01*
X205782Y686506D01*
X207046Y688695D01*
X207700Y691136D01*
Y693664D01*
X207046Y696105D01*
X205782Y698295D01*
X203995Y700082D01*
X201805Y701346D01*
X199364Y702000D01*
D02*
G37*
G36*
X76193Y690000D02*
X73807D01*
X71601Y689087D01*
X69913Y687399D01*
X69000Y685193D01*
Y682806D01*
X69913Y680601D01*
X71601Y678913D01*
X73807Y678000D01*
X76193D01*
X76743Y678228D01*
X77520Y677450D01*
X77000Y676193D01*
Y673807D01*
X77913Y671601D01*
X79601Y669913D01*
X81806Y669000D01*
X84193D01*
X86399Y669913D01*
X88087Y671601D01*
X89000Y673807D01*
Y676193D01*
X88087Y678399D01*
X86399Y680087D01*
X84193Y681000D01*
X81806D01*
X81257Y680772D01*
X80479Y681550D01*
X81000Y682806D01*
Y685193D01*
X80087Y687399D01*
X78399Y689087D01*
X76193Y690000D01*
D02*
G37*
G36*
X300194Y730200D02*
X297806D01*
X295601Y729287D01*
X293913Y727599D01*
X293000Y725394D01*
Y723007D01*
X293913Y720801D01*
X295601Y719113D01*
X297324Y718400D01*
Y717300D01*
X295601Y716587D01*
X293913Y714899D01*
X293000Y712693D01*
Y710306D01*
X293913Y708101D01*
X295601Y706413D01*
X297324Y705700D01*
Y704600D01*
X295601Y703887D01*
X293913Y702199D01*
X293000Y699994D01*
Y697607D01*
X293913Y695401D01*
X295601Y693713D01*
X297324Y693000D01*
Y691900D01*
X295601Y691187D01*
X293913Y689499D01*
X293000Y687293D01*
Y684906D01*
X293913Y682701D01*
X295601Y681013D01*
X297324Y680300D01*
Y679200D01*
X295601Y678487D01*
X293913Y676799D01*
X293000Y674594D01*
Y672206D01*
X293913Y670001D01*
X295601Y668313D01*
X297806Y667400D01*
X300194D01*
X302399Y668313D01*
X304087Y670001D01*
X305000Y672206D01*
Y674594D01*
X304087Y676799D01*
X302399Y678487D01*
X300676Y679200D01*
Y680300D01*
X302399Y681013D01*
X304087Y682701D01*
X305000Y684906D01*
Y687293D01*
X304087Y689499D01*
X302399Y691187D01*
X300676Y691900D01*
Y693000D01*
X302399Y693713D01*
X304087Y695401D01*
X305000Y697607D01*
Y699994D01*
X304087Y702199D01*
X302399Y703887D01*
X300676Y704600D01*
Y705700D01*
X302399Y706413D01*
X304087Y708101D01*
X305000Y710306D01*
Y712693D01*
X304087Y714899D01*
X302399Y716587D01*
X300676Y717300D01*
Y718400D01*
X302399Y719113D01*
X304087Y720801D01*
X305000Y723007D01*
Y725394D01*
X304087Y727599D01*
X302399Y729287D01*
X300194Y730200D01*
D02*
G37*
G36*
X46264Y677700D02*
X43736D01*
X41295Y677046D01*
X39106Y675782D01*
X37318Y673995D01*
X36054Y671805D01*
X35400Y669364D01*
Y666836D01*
X36054Y664395D01*
X37318Y662206D01*
X39106Y660418D01*
X41295Y659154D01*
X43736Y658500D01*
X46264D01*
X48706Y659154D01*
X50894Y660418D01*
X52682Y662206D01*
X53946Y664395D01*
X54600Y666836D01*
Y669364D01*
X53946Y671805D01*
X52682Y673995D01*
X50894Y675782D01*
X48706Y677046D01*
X46264Y677700D01*
D02*
G37*
G36*
X199364Y676600D02*
X196836D01*
X194395Y675946D01*
X192206Y674682D01*
X190418Y672895D01*
X189154Y670705D01*
X188500Y668264D01*
Y665736D01*
X189154Y663295D01*
X190418Y661105D01*
X192206Y659318D01*
X194395Y658054D01*
X196836Y657400D01*
X199364D01*
X201805Y658054D01*
X203995Y659318D01*
X205782Y661105D01*
X207046Y663295D01*
X207700Y665736D01*
Y668264D01*
X207046Y670705D01*
X205782Y672895D01*
X203995Y674682D01*
X201805Y675946D01*
X199364Y676600D01*
D02*
G37*
G36*
X46264Y652300D02*
X43736D01*
X41295Y651646D01*
X39106Y650382D01*
X37318Y648595D01*
X36054Y646405D01*
X35400Y643964D01*
Y641436D01*
X36054Y638995D01*
X37318Y636805D01*
X39106Y635018D01*
X41295Y633754D01*
X43736Y633100D01*
X46264D01*
X48706Y633754D01*
X50894Y635018D01*
X52682Y636805D01*
X53946Y638995D01*
X54600Y641436D01*
Y643964D01*
X53946Y646405D01*
X52682Y648595D01*
X50894Y650382D01*
X48706Y651646D01*
X46264Y652300D01*
D02*
G37*
G36*
X199364Y651200D02*
X196836D01*
X194395Y650546D01*
X192206Y649282D01*
X190418Y647495D01*
X189154Y645305D01*
X188500Y642864D01*
Y640336D01*
X189154Y637895D01*
X190418Y635705D01*
X192206Y633918D01*
X194395Y632654D01*
X196836Y632000D01*
X199364D01*
X201805Y632654D01*
X203995Y633918D01*
X205782Y635705D01*
X207046Y637895D01*
X207700Y640336D01*
Y642864D01*
X207046Y645305D01*
X205782Y647495D01*
X203995Y649282D01*
X201805Y650546D01*
X199364Y651200D01*
D02*
G37*
G36*
X251194Y623000D02*
X248806D01*
X246601Y622087D01*
X244914Y620399D01*
X244000Y618194D01*
Y615807D01*
X244914Y613601D01*
X246601Y611913D01*
X248806Y611000D01*
X251194D01*
X253399Y611913D01*
X255087Y613601D01*
X256000Y615807D01*
Y618194D01*
X255087Y620399D01*
X253399Y622087D01*
X251194Y623000D01*
D02*
G37*
G36*
X46264Y626900D02*
X43736D01*
X41295Y626246D01*
X39106Y624982D01*
X37318Y623195D01*
X36054Y621006D01*
X35400Y618564D01*
Y616036D01*
X36054Y613595D01*
X37318Y611405D01*
X39106Y609618D01*
X41295Y608354D01*
X43736Y607700D01*
X46264D01*
X48706Y608354D01*
X50894Y609618D01*
X52682Y611405D01*
X53946Y613595D01*
X54600Y616036D01*
Y618564D01*
X53946Y621006D01*
X52682Y623195D01*
X50894Y624982D01*
X48706Y626246D01*
X46264Y626900D01*
D02*
G37*
G36*
X199364Y625800D02*
X196836D01*
X194395Y625146D01*
X192206Y623882D01*
X190418Y622095D01*
X189154Y619906D01*
X188500Y617464D01*
Y614936D01*
X189154Y612495D01*
X190418Y610305D01*
X192206Y608518D01*
X194395Y607254D01*
X196836Y606600D01*
X199364D01*
X201805Y607254D01*
X203995Y608518D01*
X205782Y610305D01*
X207046Y612495D01*
X207700Y614936D01*
Y617464D01*
X207046Y619906D01*
X205782Y622095D01*
X203995Y623882D01*
X201805Y625146D01*
X199364Y625800D01*
D02*
G37*
G36*
X46264Y601500D02*
X43736D01*
X41295Y600846D01*
X39106Y599582D01*
X37318Y597794D01*
X36054Y595606D01*
X35400Y593164D01*
Y590636D01*
X36054Y588195D01*
X37318Y586006D01*
X39106Y584218D01*
X41295Y582954D01*
X43736Y582300D01*
X46264D01*
X48706Y582954D01*
X50894Y584218D01*
X52682Y586006D01*
X53946Y588195D01*
X54600Y590636D01*
Y593164D01*
X53946Y595606D01*
X52682Y597794D01*
X50894Y599582D01*
X48706Y600846D01*
X46264Y601500D01*
D02*
G37*
G36*
X199364Y600400D02*
X196836D01*
X194395Y599746D01*
X192206Y598482D01*
X190418Y596695D01*
X189154Y594506D01*
X188500Y592064D01*
Y589536D01*
X189154Y587095D01*
X190418Y584906D01*
X192206Y583118D01*
X194395Y581854D01*
X196836Y581200D01*
X199364D01*
X201805Y581854D01*
X203995Y583118D01*
X205782Y584906D01*
X207046Y587095D01*
X207700Y589536D01*
Y592064D01*
X207046Y594506D01*
X205782Y596695D01*
X203995Y598482D01*
X201805Y599746D01*
X199364Y600400D01*
D02*
G37*
G36*
X127193Y577000D02*
X124806D01*
X122601Y576087D01*
X120913Y574399D01*
X120000Y572193D01*
Y569807D01*
X120913Y567601D01*
X122601Y565913D01*
X124806Y565000D01*
X127193D01*
X129399Y565913D01*
X131087Y567601D01*
X132000Y569807D01*
Y572193D01*
X131087Y574399D01*
X129399Y576087D01*
X127193Y577000D01*
D02*
G37*
G36*
X118194Y567000D02*
X115807D01*
X113601Y566087D01*
X111913Y564399D01*
X111000Y562193D01*
Y559807D01*
X111728Y558050D01*
X110950Y557272D01*
X109193Y558000D01*
X106806D01*
X104601Y557086D01*
X102914Y555399D01*
X102000Y553194D01*
Y550807D01*
X102914Y548601D01*
X104601Y546913D01*
X106806Y546000D01*
X109193D01*
X111399Y546913D01*
X113087Y548601D01*
X114000Y550807D01*
Y553194D01*
X113272Y554950D01*
X114050Y555728D01*
X115807Y555000D01*
X118194D01*
X120399Y555913D01*
X122086Y557601D01*
X123000Y559807D01*
Y562193D01*
X122086Y564399D01*
X120399Y566087D01*
X118194Y567000D01*
D02*
G37*
G36*
X46264Y576100D02*
X43736D01*
X41295Y575446D01*
X39106Y574182D01*
X37318Y572394D01*
X36054Y570205D01*
X35400Y567764D01*
Y565236D01*
X36054Y562795D01*
X37318Y560606D01*
X39106Y558818D01*
X41295Y557554D01*
X43736Y556900D01*
X46264D01*
X48706Y557554D01*
X50894Y558818D01*
X52682Y560606D01*
X53946Y562795D01*
X54600Y565236D01*
Y567764D01*
X53946Y570205D01*
X52682Y572394D01*
X50894Y574182D01*
X48706Y575446D01*
X46264Y576100D01*
D02*
G37*
G36*
X199364Y575000D02*
X196836D01*
X194395Y574346D01*
X192206Y573082D01*
X190418Y571295D01*
X189154Y569105D01*
X188500Y566664D01*
Y564136D01*
X189154Y561695D01*
X190418Y559506D01*
X192206Y557718D01*
X194395Y556454D01*
X196836Y555800D01*
X199364D01*
X201805Y556454D01*
X203995Y557718D01*
X205782Y559506D01*
X207046Y561695D01*
X207700Y564136D01*
Y566664D01*
X207046Y569105D01*
X205782Y571295D01*
X203995Y573082D01*
X201805Y574346D01*
X199364Y575000D01*
D02*
G37*
G36*
X134964Y548000D02*
X132577D01*
X130371Y547087D01*
X128683Y545399D01*
X127770Y543194D01*
Y540807D01*
X128683Y538601D01*
X130371Y536913D01*
X132577Y536000D01*
X134964D01*
X137169Y536913D01*
X138856Y538601D01*
X139770Y540807D01*
Y543194D01*
X138856Y545399D01*
X137169Y547087D01*
X134964Y548000D01*
D02*
G37*
G36*
X46264Y550700D02*
X43736D01*
X41295Y550046D01*
X39106Y548782D01*
X37318Y546995D01*
X36054Y544805D01*
X35400Y542364D01*
Y539836D01*
X36054Y537395D01*
X37318Y535205D01*
X39106Y533418D01*
X41295Y532154D01*
X43736Y531500D01*
X46264D01*
X48706Y532154D01*
X50894Y533418D01*
X52682Y535205D01*
X53946Y537395D01*
X54600Y539836D01*
Y542364D01*
X53946Y544805D01*
X52682Y546995D01*
X50894Y548782D01*
X48706Y550046D01*
X46264Y550700D01*
D02*
G37*
G36*
X199364Y549600D02*
X196836D01*
X194395Y548946D01*
X192206Y547682D01*
X190418Y545895D01*
X189154Y543705D01*
X188500Y541264D01*
Y538736D01*
X189154Y536295D01*
X190418Y534105D01*
X192206Y532318D01*
X194395Y531054D01*
X196836Y530400D01*
X199364D01*
X201805Y531054D01*
X203995Y532318D01*
X205782Y534105D01*
X207046Y536295D01*
X207700Y538736D01*
Y541264D01*
X207046Y543705D01*
X205782Y545895D01*
X203995Y547682D01*
X201805Y548946D01*
X199364Y549600D01*
D02*
G37*
G36*
X300693Y578050D02*
X298307D01*
X296101Y577137D01*
X294413Y575449D01*
X293500Y573243D01*
Y570857D01*
X294413Y568651D01*
X296101Y566964D01*
X297824Y566250D01*
Y565150D01*
X296101Y564437D01*
X294413Y562749D01*
X293500Y560544D01*
Y558157D01*
X294413Y555951D01*
X296101Y554263D01*
X297824Y553550D01*
Y552450D01*
X296101Y551737D01*
X294413Y550049D01*
X293500Y547844D01*
Y545457D01*
X294413Y543251D01*
X296101Y541563D01*
X297824Y540850D01*
Y539750D01*
X296101Y539037D01*
X294413Y537349D01*
X293500Y535144D01*
Y532757D01*
X294413Y530551D01*
X296101Y528863D01*
X298307Y527950D01*
X300693D01*
X302899Y528863D01*
X304587Y530551D01*
X305500Y532757D01*
Y535144D01*
X304587Y537349D01*
X302899Y539037D01*
X301176Y539750D01*
Y540850D01*
X302899Y541563D01*
X304587Y543251D01*
X305500Y545457D01*
Y547844D01*
X304587Y550049D01*
X302899Y551737D01*
X301176Y552450D01*
Y553550D01*
X302899Y554263D01*
X304587Y555951D01*
X305500Y558157D01*
Y560544D01*
X304587Y562749D01*
X302899Y564437D01*
X301176Y565150D01*
Y566250D01*
X302899Y566964D01*
X304587Y568651D01*
X305500Y570857D01*
Y573243D01*
X304587Y575449D01*
X302899Y577137D01*
X300693Y578050D01*
D02*
G37*
G36*
X101194Y539000D02*
X98806D01*
X96601Y538087D01*
X94913Y536399D01*
X94000Y534193D01*
Y531806D01*
X94913Y529601D01*
X96601Y527913D01*
X98806Y527000D01*
X101194D01*
X103399Y527913D01*
X105087Y529601D01*
X106000Y531806D01*
Y534193D01*
X105087Y536399D01*
X103399Y538087D01*
X101194Y539000D01*
D02*
G37*
G36*
X46264Y525300D02*
X43736D01*
X41295Y524646D01*
X39106Y523382D01*
X37318Y521595D01*
X36054Y519406D01*
X35400Y516964D01*
Y514436D01*
X36054Y511995D01*
X37318Y509805D01*
X39106Y508018D01*
X41295Y506754D01*
X43736Y506100D01*
X46264D01*
X48706Y506754D01*
X50894Y508018D01*
X52682Y509805D01*
X53946Y511995D01*
X54600Y514436D01*
Y516964D01*
X53946Y519406D01*
X52682Y521595D01*
X50894Y523382D01*
X48706Y524646D01*
X46264Y525300D01*
D02*
G37*
G36*
X199364Y524200D02*
X196836D01*
X194395Y523546D01*
X192206Y522282D01*
X190418Y520495D01*
X189154Y518306D01*
X188500Y515864D01*
Y513336D01*
X189154Y510895D01*
X190418Y508705D01*
X192206Y506918D01*
X194395Y505654D01*
X196836Y505000D01*
X199364D01*
X201805Y505654D01*
X203995Y506918D01*
X205782Y508705D01*
X207046Y510895D01*
X207700Y513336D01*
Y515864D01*
X207046Y518306D01*
X205782Y520495D01*
X203995Y522282D01*
X201805Y523546D01*
X199364Y524200D01*
D02*
G37*
G36*
X46264Y499900D02*
X43736D01*
X41295Y499246D01*
X39106Y497982D01*
X37318Y496194D01*
X36054Y494006D01*
X35400Y491564D01*
Y489036D01*
X36054Y486595D01*
X37318Y484406D01*
X39106Y482618D01*
X41295Y481354D01*
X43736Y480700D01*
X46264D01*
X48706Y481354D01*
X50894Y482618D01*
X52682Y484406D01*
X53946Y486595D01*
X54600Y489036D01*
Y491564D01*
X53946Y494006D01*
X52682Y496194D01*
X50894Y497982D01*
X48706Y499246D01*
X46264Y499900D01*
D02*
G37*
G36*
X199364Y498800D02*
X196836D01*
X194395Y498146D01*
X192206Y496882D01*
X190418Y495095D01*
X189154Y492906D01*
X188500Y490464D01*
Y487936D01*
X189154Y485495D01*
X190418Y483306D01*
X192206Y481518D01*
X194395Y480254D01*
X196836Y479600D01*
X199364D01*
X201805Y480254D01*
X203995Y481518D01*
X205782Y483306D01*
X207046Y485495D01*
X207700Y487936D01*
Y490464D01*
X207046Y492906D01*
X205782Y495095D01*
X203995Y496882D01*
X201805Y498146D01*
X199364Y498800D01*
D02*
G37*
G36*
X242194Y484000D02*
X239806D01*
X237601Y483087D01*
X235913Y481399D01*
X235000Y479193D01*
Y476806D01*
X235913Y474601D01*
X237601Y472914D01*
X239806Y472000D01*
X242194D01*
X244399Y472914D01*
X246087Y474601D01*
X247000Y476806D01*
Y479193D01*
X246087Y481399D01*
X244399Y483087D01*
X242194Y484000D01*
D02*
G37*
G36*
X170194Y476000D02*
X167806D01*
X165601Y475087D01*
X163913Y473399D01*
X163000Y471194D01*
Y468806D01*
X163913Y466601D01*
X165601Y464913D01*
X167806Y464000D01*
X170194D01*
X172399Y464913D01*
X174086Y466601D01*
X175000Y468806D01*
Y471194D01*
X174086Y473399D01*
X172399Y475087D01*
X170194Y476000D01*
D02*
G37*
G36*
X255194Y470000D02*
X252806D01*
X250601Y469087D01*
X248913Y467399D01*
X248000Y465193D01*
Y462807D01*
X248913Y460601D01*
X250601Y458913D01*
X252806Y458000D01*
X255194D01*
X257399Y458913D01*
X259087Y460601D01*
X260000Y462807D01*
Y465193D01*
X259087Y467399D01*
X257399Y469087D01*
X255194Y470000D01*
D02*
G37*
G36*
X46264Y474500D02*
X43736D01*
X41295Y473846D01*
X39106Y472582D01*
X37318Y470794D01*
X36054Y468605D01*
X35400Y466164D01*
Y463636D01*
X36054Y461195D01*
X37318Y459006D01*
X39106Y457218D01*
X41295Y455954D01*
X43736Y455300D01*
X46264D01*
X48706Y455954D01*
X50894Y457218D01*
X52682Y459006D01*
X53946Y461195D01*
X54600Y463636D01*
Y466164D01*
X53946Y468605D01*
X52682Y470794D01*
X50894Y472582D01*
X48706Y473846D01*
X46264Y474500D01*
D02*
G37*
G36*
X199364Y473400D02*
X196836D01*
X194395Y472746D01*
X192206Y471482D01*
X190418Y469695D01*
X189154Y467505D01*
X188500Y465064D01*
Y462536D01*
X189154Y460095D01*
X190418Y457906D01*
X192206Y456118D01*
X194395Y454854D01*
X196836Y454200D01*
X199364D01*
X201805Y454854D01*
X203995Y456118D01*
X205782Y457906D01*
X207046Y460095D01*
X207700Y462536D01*
Y465064D01*
X207046Y467505D01*
X205782Y469695D01*
X203995Y471482D01*
X201805Y472746D01*
X199364Y473400D01*
D02*
G37*
G36*
X161194Y458000D02*
X158806D01*
X156601Y457087D01*
X154914Y455399D01*
X154000Y453194D01*
Y450807D01*
X154914Y448601D01*
X156601Y446913D01*
X158806Y446000D01*
X161194D01*
X163399Y446913D01*
X165087Y448601D01*
X166000Y450807D01*
Y453194D01*
X165087Y455399D01*
X163399Y457087D01*
X161194Y458000D01*
D02*
G37*
G36*
X152193Y447000D02*
X149806D01*
X147601Y446087D01*
X145913Y444399D01*
X145000Y442193D01*
Y439807D01*
X145913Y437601D01*
X147601Y435914D01*
X149806Y435000D01*
X152193D01*
X154399Y435914D01*
X156087Y437601D01*
X157000Y439807D01*
Y442193D01*
X156087Y444399D01*
X154399Y446087D01*
X152193Y447000D01*
D02*
G37*
G36*
X46264Y449100D02*
X43736D01*
X41295Y448446D01*
X39106Y447182D01*
X37318Y445395D01*
X36054Y443205D01*
X35400Y440764D01*
Y438236D01*
X36054Y435795D01*
X37318Y433605D01*
X39106Y431818D01*
X41295Y430554D01*
X43736Y429900D01*
X46264D01*
X48706Y430554D01*
X50894Y431818D01*
X52682Y433605D01*
X53946Y435795D01*
X54600Y438236D01*
Y440764D01*
X53946Y443205D01*
X52682Y445395D01*
X50894Y447182D01*
X48706Y448446D01*
X46264Y449100D01*
D02*
G37*
G36*
X199364Y448000D02*
X196836D01*
X194395Y447346D01*
X192206Y446082D01*
X190418Y444295D01*
X189154Y442105D01*
X188500Y439664D01*
Y437136D01*
X189154Y434695D01*
X190418Y432505D01*
X192206Y430718D01*
X194395Y429454D01*
X196836Y428800D01*
X199364D01*
X201805Y429454D01*
X203995Y430718D01*
X205782Y432505D01*
X207046Y434695D01*
X207700Y437136D01*
Y439664D01*
X207046Y442105D01*
X205782Y444295D01*
X203995Y446082D01*
X201805Y447346D01*
X199364Y448000D01*
D02*
G37*
G36*
X147193Y429000D02*
X144806D01*
X142601Y428087D01*
X140913Y426399D01*
X140000Y424193D01*
Y421806D01*
X140913Y419601D01*
X142601Y417913D01*
X144806Y417000D01*
X147193D01*
X149399Y417913D01*
X151087Y419601D01*
X152000Y421806D01*
Y424193D01*
X151087Y426399D01*
X149399Y428087D01*
X147193Y429000D01*
D02*
G37*
G36*
X199364Y422600D02*
X196836D01*
X194395Y421946D01*
X192206Y420682D01*
X190418Y418895D01*
X189154Y416706D01*
X188500Y414264D01*
Y411736D01*
X189154Y409295D01*
X190418Y407105D01*
X192206Y405318D01*
X194395Y404054D01*
X196836Y403400D01*
X199364D01*
X201805Y404054D01*
X203995Y405318D01*
X205782Y407105D01*
X207046Y409295D01*
X207700Y411736D01*
Y414264D01*
X207046Y416706D01*
X205782Y418895D01*
X203995Y420682D01*
X201805Y421946D01*
X199364Y422600D01*
D02*
G37*
G36*
X300194Y453500D02*
X297806D01*
X295601Y452587D01*
X293913Y450899D01*
X293000Y448694D01*
Y446306D01*
X293913Y444101D01*
X295601Y442413D01*
X297324Y441700D01*
Y440600D01*
X295601Y439887D01*
X293913Y438199D01*
X293000Y435993D01*
Y433606D01*
X293913Y431401D01*
X295601Y429713D01*
X297324Y429000D01*
Y427900D01*
X295601Y427187D01*
X293913Y425499D01*
X293000Y423293D01*
Y420906D01*
X293913Y418701D01*
X295601Y417013D01*
X297324Y416300D01*
Y415200D01*
X295601Y414487D01*
X293913Y412799D01*
X293000Y410593D01*
Y408206D01*
X293913Y406001D01*
X295601Y404313D01*
X297324Y403600D01*
Y402500D01*
X295601Y401786D01*
X293913Y400099D01*
X293000Y397893D01*
Y395507D01*
X293913Y393301D01*
X295601Y391613D01*
X297806Y390700D01*
X300194D01*
X302399Y391613D01*
X304086Y393301D01*
X305000Y395507D01*
Y397893D01*
X304086Y400099D01*
X302399Y401786D01*
X300676Y402500D01*
Y403600D01*
X302399Y404313D01*
X304086Y406001D01*
X305000Y408206D01*
Y410593D01*
X304086Y412799D01*
X302399Y414487D01*
X300676Y415200D01*
Y416300D01*
X302399Y417013D01*
X304086Y418701D01*
X305000Y420906D01*
Y423293D01*
X304086Y425499D01*
X302399Y427187D01*
X300676Y427900D01*
Y429000D01*
X302399Y429713D01*
X304086Y431401D01*
X305000Y433606D01*
Y435993D01*
X304086Y438199D01*
X302399Y439887D01*
X300676Y440600D01*
Y441700D01*
X302399Y442413D01*
X304086Y444101D01*
X305000Y446306D01*
Y448694D01*
X304086Y450899D01*
X302399Y452587D01*
X300194Y453500D01*
D02*
G37*
G36*
X46264Y398300D02*
X43736D01*
X41295Y397646D01*
X39106Y396382D01*
X37318Y394594D01*
X36054Y392406D01*
X35400Y389964D01*
Y387436D01*
X36054Y384995D01*
X37318Y382805D01*
X39106Y381018D01*
X41295Y379754D01*
X43736Y379100D01*
X46264D01*
X48706Y379754D01*
X50894Y381018D01*
X52682Y382805D01*
X53946Y384995D01*
X54600Y387436D01*
Y389964D01*
X53946Y392406D01*
X52682Y394594D01*
X50894Y396382D01*
X48706Y397646D01*
X46264Y398300D01*
D02*
G37*
G36*
X199364Y397200D02*
X196836D01*
X194395Y396546D01*
X192206Y395282D01*
X190418Y393495D01*
X189154Y391306D01*
X188500Y388864D01*
Y386336D01*
X189154Y383895D01*
X190418Y381706D01*
X192206Y379918D01*
X194395Y378654D01*
X196836Y378000D01*
X199364D01*
X201805Y378654D01*
X203995Y379918D01*
X205782Y381706D01*
X207046Y383895D01*
X207700Y386336D01*
Y388864D01*
X207046Y391306D01*
X205782Y393495D01*
X203995Y395282D01*
X201805Y396546D01*
X199364Y397200D01*
D02*
G37*
G36*
X73193Y347000D02*
X70806D01*
X68601Y346087D01*
X66913Y344399D01*
X66000Y342193D01*
Y339807D01*
X66913Y337601D01*
X68601Y335914D01*
X70806Y335000D01*
X73193D01*
X75399Y335914D01*
X77087Y337601D01*
X78000Y339807D01*
Y342193D01*
X77087Y344399D01*
X75399Y346087D01*
X73193Y347000D01*
D02*
G37*
G36*
X52193Y347000D02*
X49806D01*
X47601Y346087D01*
X45913Y344399D01*
X45000Y342193D01*
Y339807D01*
X45913Y337601D01*
X47601Y335913D01*
X49806Y335000D01*
X52193D01*
X54399Y335913D01*
X56087Y337601D01*
X57000Y339807D01*
Y342193D01*
X56087Y344399D01*
X54399Y346087D01*
X52193Y347000D01*
D02*
G37*
G36*
X85194Y283250D02*
X82807D01*
X80601Y282337D01*
X78913Y280649D01*
X78000Y278444D01*
Y276056D01*
X78913Y273851D01*
X80601Y272163D01*
X82807Y271250D01*
X85194D01*
X87399Y272163D01*
X89087Y273851D01*
X90000Y276056D01*
Y278444D01*
X89087Y280649D01*
X87399Y282337D01*
X85194Y283250D01*
D02*
G37*
G36*
X120194Y232000D02*
X117807D01*
X115601Y231087D01*
X113913Y229399D01*
X113000Y227193D01*
Y224806D01*
X113913Y222601D01*
X115601Y220913D01*
X117807Y220000D01*
X120194D01*
X122399Y220913D01*
X124087Y222601D01*
X125000Y224806D01*
Y227193D01*
X124087Y229399D01*
X122399Y231087D01*
X120194Y232000D01*
D02*
G37*
G36*
X170194Y213000D02*
X167806D01*
X165601Y212087D01*
X163913Y210399D01*
X163000Y208193D01*
Y205807D01*
X163913Y203601D01*
X165601Y201914D01*
X167806Y201000D01*
X170194D01*
X172399Y201914D01*
X174087Y203601D01*
X175000Y205807D01*
Y208193D01*
X174087Y210399D01*
X172399Y212087D01*
X170194Y213000D01*
D02*
G37*
G36*
X222250Y215603D02*
X215750D01*
X213702Y215195D01*
X211965Y214035D01*
X210805Y212299D01*
X210397Y210250D01*
Y203750D01*
X210805Y201702D01*
X211965Y199965D01*
X213702Y198805D01*
X215750Y198397D01*
X222250D01*
X224298Y198805D01*
X226035Y199965D01*
X227195Y201702D01*
X227603Y203750D01*
Y210250D01*
X227195Y212299D01*
X226035Y214035D01*
X224298Y215195D01*
X222250Y215603D01*
D02*
G37*
G36*
X120194Y184000D02*
X117807D01*
X115601Y183086D01*
X113913Y181399D01*
X113000Y179193D01*
Y176807D01*
X113913Y174601D01*
X115601Y172913D01*
X117807Y172000D01*
X120194D01*
X122399Y172913D01*
X124087Y174601D01*
X125000Y176807D01*
Y179193D01*
X124087Y181399D01*
X122399Y183086D01*
X120194Y184000D01*
D02*
G37*
G36*
X323858Y158858D02*
X306142D01*
Y141142D01*
X323858D01*
Y158858D01*
D02*
G37*
G36*
X37194Y148000D02*
X34806D01*
X32601Y147086D01*
X30914Y145399D01*
X30000Y143194D01*
Y140807D01*
X30914Y138601D01*
X32601Y136913D01*
X34806Y136000D01*
X37194D01*
X39399Y136913D01*
X41087Y138601D01*
X42000Y140807D01*
Y143194D01*
X41087Y145399D01*
X39399Y147086D01*
X37194Y148000D01*
D02*
G37*
G36*
X142064Y133085D02*
X139936D01*
X137879Y132534D01*
X136036Y131470D01*
X134530Y129964D01*
X133466Y128121D01*
X132915Y126064D01*
Y123936D01*
X133466Y121879D01*
X134530Y120036D01*
X136036Y118530D01*
X137879Y117466D01*
X139936Y116915D01*
X142064D01*
X144121Y117466D01*
X145964Y118530D01*
X147470Y120036D01*
X148534Y121879D01*
X149085Y123936D01*
Y126064D01*
X148534Y128121D01*
X147470Y129964D01*
X145964Y131470D01*
X144121Y132534D01*
X142064Y133085D01*
D02*
G37*
G36*
X91064D02*
X88936D01*
X86879Y132534D01*
X85036Y131470D01*
X83530Y129964D01*
X82466Y128121D01*
X81915Y126064D01*
Y123936D01*
X82466Y121879D01*
X83530Y120036D01*
X85036Y118530D01*
X86879Y117466D01*
X88936Y116915D01*
X91064D01*
X93121Y117466D01*
X94964Y118530D01*
X96470Y120036D01*
X97534Y121879D01*
X98085Y123936D01*
Y126064D01*
X97534Y128121D01*
X96470Y129964D01*
X94964Y131470D01*
X93121Y132534D01*
X91064Y133085D01*
D02*
G37*
G36*
X37194Y114000D02*
X34806D01*
X32601Y113087D01*
X30914Y111399D01*
X30000Y109193D01*
Y106806D01*
X30914Y104601D01*
X32601Y102914D01*
X34806Y102000D01*
X37194D01*
X39399Y102914D01*
X41087Y104601D01*
X42000Y106806D01*
Y109193D01*
X41087Y111399D01*
X39399Y113087D01*
X37194Y114000D01*
D02*
G37*
G36*
X152500Y93091D02*
X127500D01*
X124759Y92730D01*
X122205Y91672D01*
X120011Y89989D01*
X118328Y87795D01*
X117270Y85241D01*
X116909Y82500D01*
X117270Y79759D01*
X118328Y77205D01*
X120011Y75011D01*
X122205Y73328D01*
X124759Y72270D01*
X127500Y71909D01*
X152500D01*
X155241Y72270D01*
X157795Y73328D01*
X159989Y75011D01*
X161672Y77205D01*
X162730Y79759D01*
X163091Y82500D01*
X162730Y85241D01*
X161672Y87795D01*
X159989Y89989D01*
X157795Y91672D01*
X155241Y92730D01*
X152500Y93091D01*
D02*
G37*
G36*
X301399Y70625D02*
X298601D01*
X295899Y69901D01*
X293476Y68502D01*
X291498Y66524D01*
X290099Y64101D01*
X289375Y61399D01*
Y58601D01*
X290099Y55899D01*
X291498Y53476D01*
X293476Y51498D01*
X295899Y50099D01*
X298601Y49375D01*
X301399D01*
X304101Y50099D01*
X306524Y51498D01*
X308502Y53476D01*
X309901Y55899D01*
X310625Y58601D01*
Y61399D01*
X309901Y64101D01*
X308502Y66524D01*
X306524Y68502D01*
X304101Y69901D01*
X301399Y70625D01*
D02*
G37*
G36*
X52364Y74000D02*
X47636D01*
X43000Y73078D01*
X38632Y71269D01*
X34701Y68642D01*
X31358Y65299D01*
X28732Y61368D01*
X26922Y57000D01*
X26000Y52364D01*
Y47636D01*
X26922Y43000D01*
X28732Y38632D01*
X31358Y34701D01*
X34701Y31358D01*
X38632Y28732D01*
X43000Y26922D01*
X47636Y26000D01*
X52364D01*
X57000Y26922D01*
X61368Y28732D01*
X65299Y31358D01*
X68642Y34701D01*
X71269Y38632D01*
X73078Y43000D01*
X74000Y47636D01*
Y52364D01*
X73078Y57000D01*
X71269Y61368D01*
X68642Y65299D01*
X65299Y68642D01*
X61368Y71269D01*
X57000Y73078D01*
X52364Y74000D01*
D02*
G37*
G36*
X460193Y730000D02*
X457807D01*
X455601Y729087D01*
X453913Y727399D01*
X453000Y725193D01*
Y722806D01*
X453913Y720601D01*
X455601Y718913D01*
X457807Y718000D01*
X460193D01*
X462399Y718913D01*
X464086Y720601D01*
X465000Y722806D01*
Y725193D01*
X464086Y727399D01*
X462399Y729087D01*
X460193Y730000D01*
D02*
G37*
G36*
X775558Y940100D02*
X773171D01*
X770966Y939187D01*
X769278Y937499D01*
X768364Y935294D01*
Y932907D01*
X769278Y930701D01*
X770966Y929014D01*
X773171Y928100D01*
X775558D01*
X777763Y929014D01*
X779451Y930701D01*
X780365Y932907D01*
Y935294D01*
X779451Y937499D01*
X777763Y939187D01*
X775558Y940100D01*
D02*
G37*
G36*
X952364Y974000D02*
X947636D01*
X942999Y973078D01*
X938632Y971268D01*
X934701Y968642D01*
X931358Y965299D01*
X928732Y961368D01*
X926922Y957001D01*
X926000Y952364D01*
Y947636D01*
X926922Y942999D01*
X928732Y938632D01*
X931358Y934701D01*
X934701Y931358D01*
X938632Y928732D01*
X942999Y926922D01*
X947636Y926000D01*
X952364D01*
X957001Y926922D01*
X961368Y928732D01*
X965299Y931358D01*
X968642Y934701D01*
X971268Y938632D01*
X973078Y942999D01*
X974000Y947636D01*
Y952364D01*
X973078Y957001D01*
X971268Y961368D01*
X968642Y965299D01*
X965299Y968642D01*
X961368Y971268D01*
X957001Y973078D01*
X952364Y974000D01*
D02*
G37*
G36*
X854193Y927000D02*
X851806D01*
X849601Y926087D01*
X847913Y924399D01*
X847000Y922194D01*
Y919807D01*
X847913Y917601D01*
X849601Y915913D01*
X851806Y915000D01*
X854193D01*
X856399Y915913D01*
X858086Y917601D01*
X859000Y919807D01*
Y922194D01*
X858086Y924399D01*
X856399Y926087D01*
X854193Y927000D01*
D02*
G37*
G36*
X901193Y903000D02*
X898807D01*
X896601Y902087D01*
X894913Y900399D01*
X894000Y898194D01*
Y895807D01*
X894913Y893601D01*
X896601Y891914D01*
X898807Y891000D01*
X901193D01*
X903399Y891914D01*
X905087Y893601D01*
X906000Y895807D01*
Y898194D01*
X905087Y900399D01*
X903399Y902087D01*
X901193Y903000D01*
D02*
G37*
G36*
X908194Y890000D02*
X905807D01*
X903601Y889087D01*
X901913Y887399D01*
X901000Y885193D01*
Y882806D01*
X901913Y880601D01*
X903601Y878913D01*
X905807Y878000D01*
X908194D01*
X910399Y878913D01*
X912086Y880601D01*
X913000Y882806D01*
Y885193D01*
X912086Y887399D01*
X910399Y889087D01*
X908194Y890000D01*
D02*
G37*
G36*
X915193Y877000D02*
X912806D01*
X910601Y876087D01*
X908913Y874399D01*
X908000Y872194D01*
Y869807D01*
X908913Y867601D01*
X910601Y865913D01*
X912806Y865000D01*
X915193D01*
X917399Y865913D01*
X919087Y867601D01*
X920000Y869807D01*
Y872194D01*
X919087Y874399D01*
X917399Y876087D01*
X915193Y877000D01*
D02*
G37*
G36*
X921193Y865000D02*
X918807D01*
X916601Y864087D01*
X914913Y862399D01*
X914000Y860193D01*
Y857806D01*
X914913Y855601D01*
X916601Y853913D01*
X918807Y853000D01*
X921193D01*
X923399Y853913D01*
X925087Y855601D01*
X926000Y857806D01*
Y860193D01*
X925087Y862399D01*
X923399Y864087D01*
X921193Y865000D01*
D02*
G37*
G36*
X928194Y851000D02*
X925807D01*
X923601Y850087D01*
X921913Y848399D01*
X921000Y846193D01*
Y843807D01*
X921913Y841601D01*
X923601Y839913D01*
X925807Y839000D01*
X928194D01*
X930399Y839913D01*
X932087Y841601D01*
X933000Y843807D01*
Y846193D01*
X932087Y848399D01*
X930399Y850087D01*
X928194Y851000D01*
D02*
G37*
G36*
X935193Y838000D02*
X932806D01*
X930601Y837087D01*
X928913Y835399D01*
X928000Y833194D01*
Y830807D01*
X928913Y828601D01*
X930601Y826914D01*
X932806Y826000D01*
X935193D01*
X937399Y826914D01*
X939087Y828601D01*
X940000Y830807D01*
Y833194D01*
X939087Y835399D01*
X937399Y837087D01*
X935193Y838000D01*
D02*
G37*
G36*
X943194Y826000D02*
X940807D01*
X938601Y825087D01*
X936913Y823399D01*
X936000Y821193D01*
Y818807D01*
X936913Y816601D01*
X938601Y814913D01*
X940807Y814000D01*
X943194D01*
X945399Y814913D01*
X947086Y816601D01*
X948000Y818807D01*
Y821193D01*
X947086Y823399D01*
X945399Y825087D01*
X943194Y826000D01*
D02*
G37*
G36*
X793000Y906588D02*
X433700D01*
X431944Y906239D01*
X430456Y905244D01*
X394511Y869300D01*
X393807D01*
X391601Y868387D01*
X389913Y866699D01*
X389000Y864493D01*
Y862106D01*
X389913Y859901D01*
X391601Y858213D01*
X393324Y857500D01*
Y856400D01*
X391601Y855687D01*
X389913Y853999D01*
X389000Y851794D01*
Y849407D01*
X389913Y847201D01*
X391601Y845513D01*
X393324Y844800D01*
Y843700D01*
X391601Y842987D01*
X389913Y841299D01*
X389000Y839093D01*
Y836706D01*
X389913Y834501D01*
X391601Y832813D01*
X393324Y832100D01*
Y831000D01*
X391601Y830287D01*
X389913Y828599D01*
X389000Y826394D01*
Y824007D01*
X389913Y821801D01*
X391601Y820113D01*
X393324Y819400D01*
Y818300D01*
X391601Y817587D01*
X389913Y815899D01*
X389000Y813693D01*
Y811307D01*
X389913Y809101D01*
X391601Y807413D01*
X393807Y806500D01*
X396194D01*
X398399Y807413D01*
X400087Y809101D01*
X401000Y811307D01*
Y811384D01*
X401939Y811773D01*
X434956Y778756D01*
X436444Y777761D01*
X438200Y777412D01*
X678396D01*
Y760796D01*
X695604D01*
Y777412D01*
X853735D01*
X862635Y768511D01*
Y767807D01*
X863549Y765601D01*
X865237Y763913D01*
X867442Y763000D01*
X869829D01*
X872034Y763913D01*
X873722Y765601D01*
X874635Y767807D01*
Y770194D01*
X873722Y772399D01*
X872034Y774087D01*
X870311Y774800D01*
Y775900D01*
X872034Y776613D01*
X873722Y778301D01*
X874635Y780507D01*
Y782894D01*
X873722Y785099D01*
X872034Y786787D01*
X870311Y787500D01*
Y788600D01*
X872034Y789314D01*
X873722Y791001D01*
X874635Y793207D01*
Y795594D01*
X873722Y797799D01*
X872034Y799487D01*
X870311Y800200D01*
Y801300D01*
X872034Y802013D01*
X873722Y803701D01*
X874635Y805907D01*
Y808294D01*
X873722Y810499D01*
X872034Y812187D01*
X870311Y812900D01*
Y814000D01*
X872034Y814714D01*
X873722Y816401D01*
X874635Y818607D01*
Y820994D01*
X873722Y823199D01*
X872034Y824887D01*
X870311Y825600D01*
Y826700D01*
X872034Y827413D01*
X873722Y829101D01*
X874635Y831307D01*
Y833694D01*
X873722Y835899D01*
X872034Y837587D01*
X870311Y838300D01*
Y839400D01*
X872034Y840114D01*
X873722Y841801D01*
X874635Y844007D01*
Y846394D01*
X873722Y848599D01*
X872034Y850287D01*
X870311Y851000D01*
Y852100D01*
X872034Y852813D01*
X873722Y854501D01*
X874635Y856707D01*
Y859094D01*
X873722Y861299D01*
X872034Y862987D01*
X870311Y863700D01*
Y864800D01*
X872034Y865514D01*
X873722Y867201D01*
X874635Y869407D01*
Y871794D01*
X873722Y873999D01*
X872034Y875687D01*
X870311Y876400D01*
Y877500D01*
X872034Y878214D01*
X873722Y879901D01*
X874635Y882107D01*
Y884494D01*
X873722Y886699D01*
X872034Y888387D01*
X870311Y889100D01*
Y890200D01*
X872034Y890913D01*
X873722Y892601D01*
X874635Y894807D01*
Y897194D01*
X873722Y899399D01*
X872034Y901087D01*
X869829Y902000D01*
X867442D01*
X865237Y901087D01*
X863549Y899399D01*
X862635Y897194D01*
Y894807D01*
X863549Y892601D01*
X865237Y890913D01*
X866960Y890200D01*
Y889100D01*
X865237Y888387D01*
X863549Y886699D01*
X862635Y884494D01*
Y882107D01*
X863549Y879901D01*
X865237Y878214D01*
X866960Y877500D01*
Y876400D01*
X865237Y875687D01*
X863549Y873999D01*
X862635Y871794D01*
Y869407D01*
X863549Y867201D01*
X865237Y865514D01*
X866960Y864800D01*
Y863700D01*
X865237Y862987D01*
X863549Y861299D01*
X862635Y859094D01*
Y856707D01*
X863549Y854501D01*
X865237Y852813D01*
X866960Y852100D01*
Y851000D01*
X865237Y850287D01*
X863549Y848599D01*
X862635Y846394D01*
Y844007D01*
X863549Y841801D01*
X865237Y840114D01*
X866960Y839400D01*
Y838300D01*
X865237Y837587D01*
X863549Y835899D01*
X862635Y833694D01*
Y831307D01*
X863549Y829101D01*
X865237Y827413D01*
X866960Y826700D01*
Y825600D01*
X865237Y824887D01*
X863549Y823199D01*
X862635Y820994D01*
Y820916D01*
X861697Y820527D01*
X857588Y824636D01*
Y842000D01*
X857239Y843756D01*
X856244Y845244D01*
X796244Y905244D01*
X794756Y906239D01*
X793000Y906588D01*
D02*
G37*
G36*
X539980Y757050D02*
X537593D01*
X535388Y756137D01*
X533700Y754449D01*
X532786Y752243D01*
Y749856D01*
X533700Y747651D01*
X535388Y745964D01*
X537593Y745050D01*
X539980D01*
X542185Y745964D01*
X543873Y747651D01*
X544786Y749856D01*
Y752243D01*
X543873Y754449D01*
X542185Y756137D01*
X539980Y757050D01*
D02*
G37*
G36*
X776558Y748000D02*
X774171D01*
X771966Y747087D01*
X770278Y745399D01*
X769364Y743194D01*
Y740807D01*
X770278Y738601D01*
X771966Y736914D01*
X774171Y736000D01*
X776558D01*
X778763Y736914D01*
X780451Y738601D01*
X781365Y740807D01*
Y743194D01*
X780451Y745399D01*
X778763Y747087D01*
X776558Y748000D01*
D02*
G37*
G36*
X688133Y752604D02*
X685867D01*
X683679Y752018D01*
X681717Y750885D01*
X680115Y749283D01*
X678982Y747321D01*
X678396Y745133D01*
Y742867D01*
X678982Y740679D01*
X680115Y738717D01*
X681717Y737115D01*
X683679Y735982D01*
X685867Y735396D01*
X688133D01*
X690321Y735982D01*
X692283Y737115D01*
X693885Y738717D01*
X695018Y740679D01*
X695604Y742867D01*
Y745133D01*
X695018Y747321D01*
X693885Y749283D01*
X692283Y750885D01*
X690321Y752018D01*
X688133Y752604D01*
D02*
G37*
G36*
X640316Y754700D02*
X637683D01*
X635140Y754018D01*
X632860Y752702D01*
X630998Y750840D01*
X629682Y748560D01*
X629000Y746016D01*
Y743383D01*
X629682Y740840D01*
X630998Y738560D01*
X632860Y736698D01*
X635140Y735381D01*
X637683Y734700D01*
X640316D01*
X642860Y735381D01*
X645140Y736698D01*
X647002Y738560D01*
X648318Y740840D01*
X649000Y743383D01*
Y746016D01*
X648318Y748560D01*
X647002Y750840D01*
X645140Y752702D01*
X642860Y754018D01*
X640316Y754700D01*
D02*
G37*
G36*
X854193Y737000D02*
X851806D01*
X849601Y736087D01*
X847913Y734399D01*
X847000Y732194D01*
Y729807D01*
X847913Y727601D01*
X849601Y725913D01*
X851806Y725000D01*
X854193D01*
X856399Y725913D01*
X858086Y727601D01*
X859000Y729807D01*
Y732194D01*
X858086Y734399D01*
X856399Y736087D01*
X854193Y737000D01*
D02*
G37*
G36*
X870193Y751000D02*
X867806D01*
X865601Y750087D01*
X865103Y749588D01*
X825000D01*
X823244Y749239D01*
X821756Y748244D01*
X798100Y724588D01*
X759901D01*
X739000Y745489D01*
Y746193D01*
X738087Y748399D01*
X736399Y750087D01*
X734193Y751000D01*
X731806D01*
X729601Y750087D01*
X727914Y748399D01*
X727000Y746193D01*
Y743807D01*
X727914Y741601D01*
X729601Y739913D01*
X731806Y739000D01*
X732511D01*
X754756Y716756D01*
X756244Y715761D01*
X758000Y715412D01*
X800000D01*
X801756Y715761D01*
X803244Y716756D01*
X826900Y740412D01*
X865103D01*
X865601Y739913D01*
X867806Y739000D01*
X870193D01*
X872399Y739913D01*
X874087Y741601D01*
X875000Y743807D01*
Y746193D01*
X874087Y748399D01*
X872399Y750087D01*
X870193Y751000D01*
D02*
G37*
G36*
X688133Y727204D02*
X685867D01*
X683679Y726618D01*
X681717Y725485D01*
X680115Y723883D01*
X678982Y721921D01*
X678396Y719733D01*
Y717467D01*
X678982Y715279D01*
X680115Y713317D01*
X681717Y711715D01*
X683679Y710582D01*
X685867Y709996D01*
X688133D01*
X690321Y710582D01*
X692283Y711715D01*
X693885Y713317D01*
X695018Y715279D01*
X695604Y717467D01*
Y719733D01*
X695018Y721921D01*
X693885Y723883D01*
X692283Y725485D01*
X690321Y726618D01*
X688133Y727204D01*
D02*
G37*
G36*
X643000Y729417D02*
X635000D01*
X632659Y728952D01*
X630674Y727626D01*
X629348Y725641D01*
X628882Y723300D01*
Y715300D01*
X629348Y712959D01*
X630674Y710974D01*
X632659Y709648D01*
X635000Y709183D01*
X643000D01*
X645341Y709648D01*
X647326Y710974D01*
X648652Y712959D01*
X649118Y715300D01*
Y723300D01*
X648652Y725641D01*
X647326Y727626D01*
X645341Y728952D01*
X643000Y729417D01*
D02*
G37*
G36*
X900558Y709000D02*
X898171D01*
X895966Y708086D01*
X894278Y706399D01*
X893364Y704193D01*
Y701806D01*
X894278Y699601D01*
X895966Y697913D01*
X898171Y697000D01*
X900558D01*
X902763Y697913D01*
X904451Y699601D01*
X905365Y701806D01*
Y704193D01*
X904451Y706399D01*
X902763Y708086D01*
X900558Y709000D01*
D02*
G37*
G36*
X869829Y940100D02*
X867442D01*
X865237Y939187D01*
X863549Y937499D01*
X862635Y935294D01*
Y932907D01*
X863549Y930701D01*
X865237Y929014D01*
X867442Y928100D01*
X868147D01*
X877412Y918835D01*
Y742900D01*
X844100Y709588D01*
X754000D01*
X752244Y709239D01*
X750756Y708244D01*
X727100Y684588D01*
X680897D01*
X680399Y685087D01*
X678194Y686000D01*
X675807D01*
X673601Y685087D01*
X671913Y683399D01*
X671000Y681193D01*
Y678807D01*
X671913Y676601D01*
X673601Y674913D01*
X675807Y674000D01*
X678194D01*
X680399Y674913D01*
X680897Y675412D01*
X729000D01*
X730756Y675761D01*
X732244Y676756D01*
X750061Y694573D01*
X751000Y694184D01*
Y693807D01*
X751914Y691601D01*
X753601Y689913D01*
X755807Y689000D01*
X758194D01*
X760399Y689913D01*
X762087Y691601D01*
X763000Y693807D01*
Y696193D01*
X762087Y698399D01*
X761089Y699396D01*
X761510Y700412D01*
X846000D01*
X847756Y700761D01*
X849244Y701756D01*
X885244Y737756D01*
X886239Y739244D01*
X886588Y741000D01*
Y920736D01*
X886239Y922491D01*
X885244Y923980D01*
X874635Y934589D01*
Y935294D01*
X873722Y937499D01*
X872034Y939187D01*
X869829Y940100D01*
D02*
G37*
G36*
X799193Y698000D02*
X796806D01*
X794601Y697086D01*
X792914Y695399D01*
X792000Y693194D01*
Y690807D01*
X792914Y688601D01*
X794601Y686913D01*
X796806Y686000D01*
X799193D01*
X801399Y686913D01*
X803087Y688601D01*
X804000Y690807D01*
Y693194D01*
X803087Y695399D01*
X801399Y697086D01*
X799193Y698000D01*
D02*
G37*
G36*
X907194Y696000D02*
X904807D01*
X902601Y695087D01*
X900913Y693399D01*
X900000Y691193D01*
Y688807D01*
X900913Y686601D01*
X902601Y684913D01*
X904807Y684000D01*
X907194D01*
X909399Y684913D01*
X911087Y686601D01*
X912000Y688807D01*
Y691193D01*
X911087Y693399D01*
X909399Y695087D01*
X907194Y696000D01*
D02*
G37*
G36*
X806193Y685000D02*
X803807D01*
X801601Y684087D01*
X799913Y682399D01*
X799000Y680193D01*
Y677806D01*
X799913Y675601D01*
X801601Y673913D01*
X803807Y673000D01*
X806193D01*
X808399Y673913D01*
X810087Y675601D01*
X811000Y677806D01*
Y680193D01*
X810087Y682399D01*
X808399Y684087D01*
X806193Y685000D01*
D02*
G37*
G36*
X775193Y697000D02*
X772806D01*
X770601Y696087D01*
X768913Y694399D01*
X768000Y692194D01*
Y689807D01*
X768913Y687601D01*
X770601Y685913D01*
X771979Y685343D01*
Y684243D01*
X771601Y684087D01*
X769913Y682399D01*
X769000Y680193D01*
Y677806D01*
X769913Y675601D01*
X771601Y673913D01*
X773807Y673000D01*
X776193D01*
X778399Y673913D01*
X780087Y675601D01*
X781000Y677806D01*
Y680193D01*
X780087Y682399D01*
X778399Y684087D01*
X777021Y684657D01*
Y685757D01*
X777399Y685913D01*
X779087Y687601D01*
X780000Y689807D01*
Y692194D01*
X779087Y694399D01*
X777399Y696087D01*
X775193Y697000D01*
D02*
G37*
G36*
X914423Y683000D02*
X912037D01*
X909831Y682086D01*
X908143Y680399D01*
X907230Y678193D01*
Y675806D01*
X908143Y673601D01*
X909831Y671913D01*
X912037Y671000D01*
X914423D01*
X916629Y671913D01*
X918316Y673601D01*
X919230Y675806D01*
Y678193D01*
X918316Y680399D01*
X916629Y682086D01*
X914423Y683000D01*
D02*
G37*
G36*
X921193Y671000D02*
X918807D01*
X916601Y670087D01*
X914913Y668399D01*
X914000Y666193D01*
Y663807D01*
X914913Y661601D01*
X916601Y659913D01*
X918807Y659000D01*
X921193D01*
X923399Y659913D01*
X925087Y661601D01*
X926000Y663807D01*
Y666193D01*
X925087Y668399D01*
X923399Y670087D01*
X921193Y671000D01*
D02*
G37*
G36*
X813194Y671000D02*
X810807D01*
X808601Y670087D01*
X806913Y668399D01*
X806000Y666193D01*
Y663807D01*
X806913Y661601D01*
X808601Y659913D01*
X810807Y659000D01*
X813194D01*
X815399Y659913D01*
X817087Y661601D01*
X818000Y663807D01*
Y666193D01*
X817087Y668399D01*
X815399Y670087D01*
X813194Y671000D01*
D02*
G37*
G36*
X540193Y669000D02*
X537807D01*
X535601Y668086D01*
X533913Y666399D01*
X533000Y664193D01*
Y661806D01*
X533913Y659601D01*
X535601Y657913D01*
X537807Y657000D01*
X540193D01*
X542399Y657913D01*
X544086Y659601D01*
X545000Y661806D01*
Y664193D01*
X544086Y666399D01*
X542399Y668086D01*
X540193Y669000D01*
D02*
G37*
G36*
X820193Y659000D02*
X817806D01*
X815601Y658086D01*
X813913Y656399D01*
X813000Y654193D01*
Y651806D01*
X813913Y649601D01*
X815601Y647913D01*
X817806Y647000D01*
X820193D01*
X822399Y647913D01*
X824087Y649601D01*
X825000Y651806D01*
Y654193D01*
X824087Y656399D01*
X822399Y658086D01*
X820193Y659000D01*
D02*
G37*
G36*
X928194Y656000D02*
X925807D01*
X923601Y655087D01*
X921913Y653399D01*
X921000Y651193D01*
Y648807D01*
X921913Y646601D01*
X923601Y644913D01*
X925807Y644000D01*
X928194D01*
X930399Y644913D01*
X932087Y646601D01*
X933000Y648807D01*
Y651193D01*
X932087Y653399D01*
X930399Y655087D01*
X928194Y656000D01*
D02*
G37*
G36*
X828194Y646000D02*
X825807D01*
X823601Y645087D01*
X821913Y643399D01*
X821000Y641193D01*
Y638806D01*
X821913Y636601D01*
X823601Y634913D01*
X825807Y634000D01*
X828194D01*
X830399Y634913D01*
X832087Y636601D01*
X833000Y638806D01*
Y641193D01*
X832087Y643399D01*
X830399Y645087D01*
X828194Y646000D01*
D02*
G37*
G36*
X936193Y644000D02*
X933807D01*
X931601Y643086D01*
X929913Y641399D01*
X929000Y639193D01*
Y636806D01*
X929913Y634601D01*
X931601Y632913D01*
X933807Y632000D01*
X936193D01*
X938399Y632913D01*
X940087Y634601D01*
X941000Y636806D01*
Y639193D01*
X940087Y641399D01*
X938399Y643086D01*
X936193Y644000D01*
D02*
G37*
G36*
X775193Y671000D02*
X772806D01*
X770601Y670087D01*
X768913Y668399D01*
X768000Y666193D01*
Y663807D01*
X768913Y661601D01*
X770601Y659913D01*
X771580Y659508D01*
Y658492D01*
X770601Y658086D01*
X768913Y656399D01*
X768000Y654193D01*
Y651806D01*
X768913Y649601D01*
X770601Y647913D01*
X771979Y647343D01*
Y646243D01*
X771601Y646087D01*
X769913Y644399D01*
X769000Y642194D01*
Y639807D01*
X769913Y637601D01*
X771601Y635913D01*
X772479Y635550D01*
Y634450D01*
X771601Y634086D01*
X769913Y632399D01*
X769000Y630193D01*
Y627807D01*
X769913Y625601D01*
X771601Y623913D01*
X773807Y623000D01*
X776193D01*
X778399Y623913D01*
X780087Y625601D01*
X781000Y627807D01*
Y630193D01*
X780087Y632399D01*
X778399Y634086D01*
X777521Y634450D01*
Y635550D01*
X778399Y635913D01*
X780087Y637601D01*
X781000Y639807D01*
Y642194D01*
X780087Y644399D01*
X778399Y646087D01*
X777021Y646657D01*
Y647757D01*
X777399Y647913D01*
X779087Y649601D01*
X780000Y651806D01*
Y654193D01*
X779087Y656399D01*
X777399Y658086D01*
X776420Y658492D01*
Y659508D01*
X777399Y659913D01*
X779087Y661601D01*
X780000Y663807D01*
Y666193D01*
X779087Y668399D01*
X777399Y670087D01*
X775193Y671000D01*
D02*
G37*
G36*
X834964Y634000D02*
X832577D01*
X830371Y633087D01*
X828683Y631399D01*
X827770Y629193D01*
Y626806D01*
X828683Y624601D01*
X830371Y622913D01*
X832577Y622000D01*
X834964D01*
X837169Y622913D01*
X838857Y624601D01*
X839770Y626806D01*
Y629193D01*
X838857Y631399D01*
X837169Y633087D01*
X834964Y634000D01*
D02*
G37*
G36*
X942963Y632000D02*
X940577D01*
X938371Y631087D01*
X936684Y629399D01*
X935770Y627193D01*
Y624806D01*
X936684Y622601D01*
X938371Y620913D01*
X940577Y620000D01*
X942963D01*
X945169Y620913D01*
X946857Y622601D01*
X947770Y624806D01*
Y627193D01*
X946857Y629399D01*
X945169Y631087D01*
X942963Y632000D01*
D02*
G37*
G36*
X776193Y558000D02*
X773807D01*
X771601Y557086D01*
X769913Y555399D01*
X769000Y553194D01*
Y550807D01*
X769913Y548601D01*
X771601Y546913D01*
X773807Y546000D01*
X776193D01*
X778399Y546913D01*
X780087Y548601D01*
X781000Y550807D01*
Y553194D01*
X780087Y555399D01*
X778399Y557086D01*
X776193Y558000D01*
D02*
G37*
G36*
X853194Y529000D02*
X850807D01*
X848601Y528087D01*
X846913Y526399D01*
X846000Y524193D01*
Y521806D01*
X846913Y519601D01*
X848601Y517913D01*
X850807Y517000D01*
X853194D01*
X855399Y517913D01*
X857087Y519601D01*
X858000Y521806D01*
Y524193D01*
X857087Y526399D01*
X855399Y528087D01*
X853194Y529000D01*
D02*
G37*
G36*
X900558Y517000D02*
X898171D01*
X895966Y516087D01*
X894278Y514399D01*
X893365Y512193D01*
Y509806D01*
X894278Y507601D01*
X895966Y505913D01*
X898171Y505000D01*
X900558D01*
X902763Y505913D01*
X904451Y507601D01*
X905365Y509806D01*
Y512193D01*
X904451Y514399D01*
X902763Y516087D01*
X900558Y517000D01*
D02*
G37*
G36*
X799193Y506000D02*
X796806D01*
X794601Y505087D01*
X792914Y503399D01*
X792000Y501194D01*
Y498806D01*
X792914Y496601D01*
X794601Y494913D01*
X796806Y494000D01*
X799193D01*
X801399Y494913D01*
X803087Y496601D01*
X804000Y498806D01*
Y501194D01*
X803087Y503399D01*
X801399Y505087D01*
X799193Y506000D01*
D02*
G37*
G36*
X907194Y504000D02*
X904807D01*
X902601Y503087D01*
X900913Y501399D01*
X900000Y499193D01*
Y496806D01*
X900913Y494601D01*
X902601Y492913D01*
X904807Y492000D01*
X907194D01*
X909399Y492913D01*
X911087Y494601D01*
X912000Y496806D01*
Y499193D01*
X911087Y501399D01*
X909399Y503087D01*
X907194Y504000D01*
D02*
G37*
G36*
X806193Y493000D02*
X803807D01*
X801601Y492086D01*
X799913Y490399D01*
X799000Y488194D01*
Y485807D01*
X799913Y483601D01*
X801601Y481913D01*
X803807Y481000D01*
X806193D01*
X808399Y481913D01*
X810087Y483601D01*
X811000Y485807D01*
Y488194D01*
X810087Y490399D01*
X808399Y492086D01*
X806193Y493000D01*
D02*
G37*
G36*
X775193Y505000D02*
X772806D01*
X770601Y504086D01*
X768913Y502399D01*
X768000Y500193D01*
Y497807D01*
X768913Y495601D01*
X770601Y493913D01*
X771979Y493343D01*
Y492243D01*
X771601Y492086D01*
X769913Y490399D01*
X769000Y488194D01*
Y485807D01*
X769913Y483601D01*
X771601Y481913D01*
X773807Y481000D01*
X776193D01*
X778399Y481913D01*
X780087Y483601D01*
X781000Y485807D01*
Y488194D01*
X780087Y490399D01*
X778399Y492086D01*
X777021Y492657D01*
Y493757D01*
X777399Y493913D01*
X779087Y495601D01*
X780000Y497807D01*
Y500193D01*
X779087Y502399D01*
X777399Y504086D01*
X775193Y505000D01*
D02*
G37*
G36*
X914424Y491000D02*
X912037D01*
X909831Y490087D01*
X908143Y488399D01*
X907230Y486193D01*
Y483806D01*
X908143Y481601D01*
X909831Y479913D01*
X912037Y479000D01*
X914424D01*
X916629Y479913D01*
X918317Y481601D01*
X919230Y483806D01*
Y486193D01*
X918317Y488399D01*
X916629Y490087D01*
X914424Y491000D01*
D02*
G37*
G36*
X921423Y479000D02*
X919036D01*
X916831Y478087D01*
X915143Y476399D01*
X914230Y474193D01*
Y471806D01*
X915143Y469601D01*
X916831Y467913D01*
X919036Y467000D01*
X921423D01*
X923629Y467913D01*
X925316Y469601D01*
X926230Y471806D01*
Y474193D01*
X925316Y476399D01*
X923629Y478087D01*
X921423Y479000D01*
D02*
G37*
G36*
X813194Y479000D02*
X810807D01*
X808601Y478087D01*
X806913Y476399D01*
X806000Y474193D01*
Y471806D01*
X806913Y469601D01*
X808601Y467913D01*
X810807Y467000D01*
X813194D01*
X815399Y467913D01*
X817087Y469601D01*
X818000Y471806D01*
Y474193D01*
X817087Y476399D01*
X815399Y478087D01*
X813194Y479000D01*
D02*
G37*
G36*
X820193Y467000D02*
X817806D01*
X815601Y466087D01*
X813913Y464399D01*
X813000Y462193D01*
Y459807D01*
X813913Y457601D01*
X815601Y455913D01*
X817806Y455000D01*
X820193D01*
X822399Y455913D01*
X824087Y457601D01*
X825000Y459807D01*
Y462193D01*
X824087Y464399D01*
X822399Y466087D01*
X820193Y467000D01*
D02*
G37*
G36*
X929193Y464000D02*
X926806D01*
X924601Y463087D01*
X922913Y461399D01*
X922000Y459193D01*
Y456806D01*
X922913Y454601D01*
X924601Y452913D01*
X926806Y452000D01*
X929193D01*
X931399Y452913D01*
X933087Y454601D01*
X934000Y456806D01*
Y459193D01*
X933087Y461399D01*
X931399Y463087D01*
X929193Y464000D01*
D02*
G37*
G36*
X827194Y454000D02*
X824807D01*
X822601Y453087D01*
X820913Y451399D01*
X820000Y449193D01*
Y446806D01*
X820913Y444601D01*
X822601Y442913D01*
X824807Y442000D01*
X827194D01*
X829399Y442913D01*
X831087Y444601D01*
X832000Y446806D01*
Y449193D01*
X831087Y451399D01*
X829399Y453087D01*
X827194Y454000D01*
D02*
G37*
G36*
X936193Y452000D02*
X933807D01*
X931601Y451087D01*
X929913Y449399D01*
X929000Y447193D01*
Y444807D01*
X929913Y442601D01*
X931601Y440913D01*
X933807Y440000D01*
X936193D01*
X938399Y440913D01*
X940087Y442601D01*
X941000Y444807D01*
Y447193D01*
X940087Y449399D01*
X938399Y451087D01*
X936193Y452000D01*
D02*
G37*
G36*
X775193Y479000D02*
X772806D01*
X770601Y478087D01*
X768913Y476399D01*
X768000Y474193D01*
Y471806D01*
X768913Y469601D01*
X770601Y467913D01*
X771580Y467508D01*
Y466492D01*
X770601Y466087D01*
X768913Y464399D01*
X768000Y462193D01*
Y459807D01*
X768913Y457601D01*
X770601Y455913D01*
X771979Y455343D01*
Y454243D01*
X771601Y454086D01*
X769913Y452399D01*
X769000Y450193D01*
Y447807D01*
X769913Y445601D01*
X771601Y443913D01*
X772479Y443550D01*
Y442450D01*
X771601Y442086D01*
X769913Y440399D01*
X769000Y438194D01*
Y435807D01*
X769913Y433601D01*
X771601Y431913D01*
X773807Y431000D01*
X776193D01*
X778399Y431913D01*
X780087Y433601D01*
X781000Y435807D01*
Y438194D01*
X780087Y440399D01*
X778399Y442086D01*
X777521Y442450D01*
Y443550D01*
X778399Y443913D01*
X780087Y445601D01*
X781000Y447807D01*
Y450193D01*
X780087Y452399D01*
X778399Y454086D01*
X777021Y454657D01*
Y455757D01*
X777399Y455913D01*
X779087Y457601D01*
X780000Y459807D01*
Y462193D01*
X779087Y464399D01*
X777399Y466087D01*
X776420Y466492D01*
Y467508D01*
X777399Y467913D01*
X779087Y469601D01*
X780000Y471806D01*
Y474193D01*
X779087Y476399D01*
X777399Y478087D01*
X775193Y479000D01*
D02*
G37*
G36*
X835193Y442000D02*
X832806D01*
X830601Y441087D01*
X828913Y439399D01*
X828000Y437193D01*
Y434807D01*
X828913Y432601D01*
X830601Y430913D01*
X832806Y430000D01*
X835193D01*
X837399Y430913D01*
X839087Y432601D01*
X840000Y434807D01*
Y437193D01*
X839087Y439399D01*
X837399Y441087D01*
X835193Y442000D01*
D02*
G37*
G36*
X942963Y440000D02*
X940577D01*
X938371Y439086D01*
X936684Y437399D01*
X935770Y435193D01*
Y432806D01*
X936684Y430601D01*
X938371Y428913D01*
X940577Y428000D01*
X942963D01*
X945169Y428913D01*
X946857Y430601D01*
X947770Y432806D01*
Y435193D01*
X946857Y437399D01*
X945169Y439086D01*
X942963Y440000D01*
D02*
G37*
G36*
X914193Y417000D02*
X911806D01*
X909601Y416087D01*
X907913Y414399D01*
X907000Y412193D01*
Y409807D01*
X907913Y407601D01*
X909601Y405913D01*
X911806Y405000D01*
X914193D01*
X916399Y405913D01*
X918087Y407601D01*
X919000Y409807D01*
Y412193D01*
X918087Y414399D01*
X916399Y416087D01*
X914193Y417000D01*
D02*
G37*
G36*
X922194Y391000D02*
X919807D01*
X917601Y390087D01*
X915913Y388399D01*
X915000Y386194D01*
Y383806D01*
X915913Y381601D01*
X917601Y379913D01*
X919807Y379000D01*
X922194D01*
X924399Y379913D01*
X926087Y381601D01*
X927000Y383806D01*
Y386194D01*
X926087Y388399D01*
X924399Y390087D01*
X922194Y391000D01*
D02*
G37*
G36*
X397693Y590750D02*
X395307D01*
X393101Y589837D01*
X391413Y588149D01*
X390500Y585943D01*
Y583557D01*
X391413Y581351D01*
X393101Y579664D01*
X394824Y578950D01*
Y577850D01*
X393101Y577137D01*
X391413Y575449D01*
X390500Y573243D01*
Y570857D01*
X391413Y568651D01*
X393101Y566964D01*
X394824Y566250D01*
Y565150D01*
X393101Y564437D01*
X391413Y562749D01*
X390500Y560544D01*
Y558157D01*
X391413Y555951D01*
X393101Y554263D01*
X394824Y553550D01*
Y552450D01*
X393101Y551737D01*
X391413Y550049D01*
X390500Y547844D01*
Y545457D01*
X391413Y543251D01*
X393101Y541563D01*
X395307Y540650D01*
X397693D01*
X399899Y541563D01*
X400397Y542062D01*
X585449D01*
X745856Y381656D01*
X747344Y380661D01*
X749100Y380312D01*
X865738D01*
X866237Y379813D01*
X868442Y378900D01*
X870829D01*
X873034Y379813D01*
X874722Y381501D01*
X875636Y383707D01*
Y386093D01*
X874722Y388299D01*
X873034Y389987D01*
X871311Y390700D01*
Y391800D01*
X873034Y392514D01*
X874722Y394201D01*
X875636Y396407D01*
Y398793D01*
X874722Y400999D01*
X873034Y402687D01*
X871311Y403400D01*
Y404500D01*
X873034Y405214D01*
X874722Y406901D01*
X875636Y409107D01*
Y411493D01*
X874722Y413699D01*
X873034Y415387D01*
X871311Y416100D01*
Y417200D01*
X873034Y417914D01*
X874722Y419601D01*
X875636Y421807D01*
Y424193D01*
X874722Y426399D01*
X873034Y428087D01*
X871311Y428800D01*
Y429900D01*
X873034Y430614D01*
X874722Y432301D01*
X875636Y434507D01*
Y436894D01*
X874722Y439099D01*
X873034Y440787D01*
X871311Y441500D01*
Y442600D01*
X873034Y443313D01*
X874722Y445001D01*
X875636Y447207D01*
Y449594D01*
X874722Y451799D01*
X873034Y453487D01*
X871311Y454200D01*
Y455300D01*
X873034Y456013D01*
X874722Y457701D01*
X875636Y459907D01*
Y462294D01*
X874722Y464499D01*
X873034Y466187D01*
X871311Y466900D01*
Y468000D01*
X873034Y468713D01*
X874722Y470401D01*
X875636Y472607D01*
Y474994D01*
X874722Y477199D01*
X873034Y478887D01*
X871311Y479600D01*
Y480700D01*
X873034Y481413D01*
X874722Y483101D01*
X875636Y485307D01*
Y487693D01*
X874722Y489899D01*
X873034Y491587D01*
X871311Y492300D01*
Y493400D01*
X873034Y494114D01*
X874722Y495801D01*
X875636Y498007D01*
Y500393D01*
X874722Y502599D01*
X873034Y504287D01*
X871311Y505000D01*
Y506100D01*
X873034Y506814D01*
X874722Y508501D01*
X875636Y510707D01*
Y513093D01*
X874722Y515299D01*
X873034Y516987D01*
X871311Y517700D01*
Y518800D01*
X873034Y519514D01*
X874722Y521201D01*
X875636Y523407D01*
Y525793D01*
X874722Y527999D01*
X873034Y529687D01*
X870829Y530600D01*
X868442D01*
X866237Y529687D01*
X864549Y527999D01*
X863635Y525793D01*
Y523407D01*
X864549Y521201D01*
X866237Y519514D01*
X867960Y518800D01*
Y517700D01*
X866237Y516987D01*
X864549Y515299D01*
X863635Y513093D01*
Y510707D01*
X864549Y508501D01*
X866237Y506814D01*
X867960Y506100D01*
Y505000D01*
X866237Y504287D01*
X864549Y502599D01*
X863635Y500393D01*
Y498007D01*
X864549Y495801D01*
X866237Y494114D01*
X867960Y493400D01*
Y492300D01*
X866237Y491587D01*
X864549Y489899D01*
X863635Y487693D01*
Y485307D01*
X864549Y483101D01*
X866237Y481413D01*
X867960Y480700D01*
Y479600D01*
X866237Y478887D01*
X864549Y477199D01*
X863635Y474994D01*
Y472607D01*
X864549Y470401D01*
X866237Y468713D01*
X867960Y468000D01*
Y466900D01*
X866237Y466187D01*
X864549Y464499D01*
X863635Y462294D01*
Y459907D01*
X864549Y457701D01*
X866237Y456013D01*
X867960Y455300D01*
Y454200D01*
X866237Y453487D01*
X864549Y451799D01*
X863635Y449594D01*
Y447207D01*
X864549Y445001D01*
X866237Y443313D01*
X867960Y442600D01*
Y441500D01*
X866237Y440787D01*
X864549Y439099D01*
X863635Y436894D01*
Y434507D01*
X864549Y432301D01*
X866237Y430614D01*
X867960Y429900D01*
Y428800D01*
X866237Y428087D01*
X864549Y426399D01*
X863635Y424193D01*
Y423489D01*
X856735Y416588D01*
X845510D01*
X845089Y417604D01*
X846087Y418601D01*
X847000Y420807D01*
Y423193D01*
X846087Y425399D01*
X844399Y427086D01*
X842194Y428000D01*
X839807D01*
X837601Y427086D01*
X835913Y425399D01*
X835000Y423193D01*
Y420807D01*
X835913Y418601D01*
X836910Y417604D01*
X836490Y416588D01*
X779510D01*
X779090Y417604D01*
X780087Y418601D01*
X781000Y420807D01*
Y423193D01*
X780087Y425399D01*
X778399Y427086D01*
X776193Y428000D01*
X773807D01*
X771601Y427086D01*
X769913Y425399D01*
X769000Y423193D01*
Y420807D01*
X769913Y418601D01*
X770910Y417604D01*
X770490Y416588D01*
X765900D01*
X594244Y588244D01*
X592756Y589239D01*
X591000Y589588D01*
X400147D01*
X399899Y589837D01*
X397693Y590750D01*
D02*
G37*
G36*
X872194Y374000D02*
X869807D01*
X867601Y373087D01*
X865913Y371399D01*
X865000Y369193D01*
Y366806D01*
X865913Y364601D01*
X867601Y362913D01*
X869807Y362000D01*
X872194D01*
X874399Y362913D01*
X876087Y364601D01*
X877000Y366806D01*
Y369193D01*
X876087Y371399D01*
X874399Y373087D01*
X872194Y374000D01*
D02*
G37*
G36*
X929193Y367000D02*
X926806D01*
X924601Y366087D01*
X922913Y364399D01*
X922000Y362193D01*
Y359807D01*
X922913Y357601D01*
X924601Y355913D01*
X926806Y355000D01*
X929193D01*
X931399Y355913D01*
X933087Y357601D01*
X934000Y359807D01*
Y362193D01*
X933087Y364399D01*
X931399Y366087D01*
X929193Y367000D01*
D02*
G37*
G36*
X776058Y361550D02*
X773671D01*
X771466Y360637D01*
X769778Y358949D01*
X768865Y356744D01*
Y354357D01*
X769778Y352151D01*
X771466Y350463D01*
X773671Y349550D01*
X776058D01*
X778263Y350463D01*
X779951Y352151D01*
X780864Y354357D01*
Y356744D01*
X779951Y358949D01*
X778263Y360637D01*
X776058Y361550D01*
D02*
G37*
G36*
X853194Y349000D02*
X850807D01*
X848601Y348087D01*
X846913Y346399D01*
X846000Y344193D01*
Y341806D01*
X846913Y339601D01*
X848601Y337913D01*
X850807Y337000D01*
X853194D01*
X855399Y337913D01*
X857087Y339601D01*
X858000Y341806D01*
Y344193D01*
X857087Y346399D01*
X855399Y348087D01*
X853194Y349000D01*
D02*
G37*
G36*
X936193Y345000D02*
X933807D01*
X931601Y344087D01*
X929913Y342399D01*
X929000Y340193D01*
Y337807D01*
X929913Y335601D01*
X931601Y333913D01*
X933807Y333000D01*
X936193D01*
X938399Y333913D01*
X940087Y335601D01*
X941000Y337807D01*
Y340193D01*
X940087Y342399D01*
X938399Y344087D01*
X936193Y345000D01*
D02*
G37*
G36*
X549193Y321000D02*
X546806D01*
X544601Y320087D01*
X542913Y318399D01*
X542000Y316194D01*
Y313806D01*
X542913Y311601D01*
X544601Y309914D01*
X546806Y309000D01*
X549193D01*
X551399Y309914D01*
X553087Y311601D01*
X554000Y313806D01*
Y316194D01*
X553087Y318399D01*
X551399Y320087D01*
X549193Y321000D01*
D02*
G37*
G36*
X631194Y276100D02*
X628806D01*
X626601Y275187D01*
X624913Y273499D01*
X624000Y271294D01*
Y268907D01*
X624913Y266701D01*
X626601Y265014D01*
X628806Y264100D01*
X631194D01*
X633399Y265014D01*
X635087Y266701D01*
X636000Y268907D01*
Y271294D01*
X635087Y273499D01*
X633399Y275187D01*
X631194Y276100D01*
D02*
G37*
G36*
X651943Y275350D02*
X649557D01*
X647351Y274437D01*
X645663Y272749D01*
X644750Y270544D01*
Y268157D01*
X645663Y265951D01*
X647351Y264264D01*
X649557Y263350D01*
X651943D01*
X654149Y264264D01*
X655836Y265951D01*
X656750Y268157D01*
Y270544D01*
X655836Y272749D01*
X654149Y274437D01*
X651943Y275350D01*
D02*
G37*
G36*
X548194Y245100D02*
X545807D01*
X543601Y244187D01*
X541913Y242499D01*
X541000Y240294D01*
Y237907D01*
X541913Y235701D01*
X543601Y234014D01*
X545807Y233100D01*
X548194D01*
X550399Y234014D01*
X552087Y235701D01*
X553000Y237907D01*
Y240294D01*
X552087Y242499D01*
X550399Y244187D01*
X548194Y245100D01*
D02*
G37*
G36*
X570193Y211100D02*
X567807D01*
X565601Y210187D01*
X563913Y208499D01*
X563000Y206294D01*
Y203907D01*
X563913Y201701D01*
X565601Y200014D01*
X567807Y199100D01*
X570193D01*
X572399Y200014D01*
X574087Y201701D01*
X575000Y203907D01*
Y206294D01*
X574087Y208499D01*
X572399Y210187D01*
X570193Y211100D01*
D02*
G37*
G36*
X397193Y453500D02*
X394807D01*
X392601Y452587D01*
X390913Y450899D01*
X390000Y448694D01*
Y446306D01*
X390913Y444101D01*
X392601Y442413D01*
X394324Y441700D01*
Y440600D01*
X392601Y439887D01*
X390913Y438199D01*
X390000Y435993D01*
Y433606D01*
X390913Y431401D01*
X392601Y429713D01*
X394324Y429000D01*
Y427900D01*
X392601Y427187D01*
X390913Y425499D01*
X390000Y423293D01*
Y420906D01*
X390913Y418701D01*
X392601Y417013D01*
X394324Y416300D01*
Y415200D01*
X392601Y414487D01*
X390913Y412799D01*
X390000Y410593D01*
Y408206D01*
X390913Y406001D01*
X392601Y404313D01*
X394807Y403400D01*
X397193D01*
X399399Y404313D01*
X399897Y404812D01*
X648285D01*
X863136Y189961D01*
Y189257D01*
X864049Y187051D01*
X865737Y185364D01*
X867942Y184450D01*
X870329D01*
X872534Y185364D01*
X874222Y187051D01*
X875135Y189257D01*
Y191644D01*
X874222Y193849D01*
X872534Y195537D01*
X870811Y196250D01*
Y197350D01*
X872534Y198064D01*
X874222Y199751D01*
X875135Y201957D01*
Y204343D01*
X874222Y206549D01*
X872534Y208237D01*
X870811Y208950D01*
Y210050D01*
X872534Y210763D01*
X874222Y212451D01*
X875135Y214657D01*
Y217043D01*
X874222Y219249D01*
X872534Y220937D01*
X870411Y221816D01*
X870308Y221887D01*
X870241Y222004D01*
X870235Y222124D01*
X870716Y223217D01*
X872399Y223913D01*
X874087Y225601D01*
X875000Y227806D01*
Y230194D01*
X874087Y232399D01*
X872399Y234087D01*
X870193Y235000D01*
X869489D01*
X653744Y450744D01*
X652256Y451739D01*
X650500Y452088D01*
X399897D01*
X399399Y452587D01*
X397193Y453500D01*
D02*
G37*
G36*
X776058Y196450D02*
X773671D01*
X771466Y195537D01*
X769778Y193849D01*
X768865Y191644D01*
Y189257D01*
X769778Y187051D01*
X771466Y185364D01*
X773671Y184450D01*
X776058D01*
X778263Y185364D01*
X779951Y187051D01*
X780864Y189257D01*
Y191644D01*
X779951Y193849D01*
X778263Y195537D01*
X776058Y196450D01*
D02*
G37*
G36*
X440443Y195000D02*
X438056D01*
X435851Y194087D01*
X434163Y192399D01*
X433250Y190194D01*
Y187806D01*
X434163Y185601D01*
X435851Y183913D01*
X438056Y183000D01*
X440443D01*
X442649Y183913D01*
X444337Y185601D01*
X445250Y187806D01*
Y190194D01*
X444337Y192399D01*
X442649Y194087D01*
X440443Y195000D01*
D02*
G37*
G36*
X693194Y159000D02*
X690807D01*
X688601Y158087D01*
X686913Y156399D01*
X686000Y154193D01*
Y151806D01*
X686913Y149601D01*
X688601Y147913D01*
X690807Y147000D01*
X693194D01*
X695399Y147913D01*
X697086Y149601D01*
X698000Y151806D01*
Y154193D01*
X697086Y156399D01*
X695399Y158087D01*
X693194Y159000D01*
D02*
G37*
G36*
X752194Y158000D02*
X749807D01*
X747601Y157087D01*
X745913Y155399D01*
X745000Y153194D01*
Y150807D01*
X745913Y148601D01*
X747601Y146913D01*
X749807Y146000D01*
X752194D01*
X754399Y146913D01*
X756087Y148601D01*
X757000Y150807D01*
Y153194D01*
X756087Y155399D01*
X754399Y157087D01*
X752194Y158000D01*
D02*
G37*
G36*
X711193D02*
X708807D01*
X706601Y157087D01*
X704913Y155399D01*
X704000Y153194D01*
Y150807D01*
X704913Y148601D01*
X706601Y146913D01*
X708807Y146000D01*
X711193D01*
X713399Y146913D01*
X715087Y148601D01*
X716000Y150807D01*
Y153194D01*
X715087Y155399D01*
X713399Y157087D01*
X711193Y158000D01*
D02*
G37*
G36*
X392366Y158858D02*
X390034D01*
X387781Y158254D01*
X385761Y157088D01*
X384112Y155439D01*
X382946Y153419D01*
X382342Y151166D01*
Y148834D01*
X382946Y146581D01*
X384112Y144561D01*
X385761Y142912D01*
X387781Y141746D01*
X390034Y141142D01*
X392366D01*
X394619Y141746D01*
X396639Y142912D01*
X398288Y144561D01*
X399454Y146581D01*
X400058Y148834D01*
Y151166D01*
X399454Y153419D01*
X398288Y155439D01*
X396639Y157088D01*
X394619Y158254D01*
X392366Y158858D01*
D02*
G37*
G36*
X534193Y140500D02*
X531806D01*
X529601Y139587D01*
X527913Y137899D01*
X527000Y135694D01*
Y133307D01*
X527913Y131101D01*
X529601Y129413D01*
X531806Y128500D01*
X534193D01*
X536399Y129413D01*
X538087Y131101D01*
X539000Y133307D01*
Y135694D01*
X538087Y137899D01*
X536399Y139587D01*
X534193Y140500D01*
D02*
G37*
G36*
X788451Y130050D02*
X786064D01*
X783859Y129136D01*
X782171Y127449D01*
X781257Y125244D01*
Y122857D01*
X782171Y120651D01*
X783859Y118963D01*
X786064Y118050D01*
X788451D01*
X790656Y118963D01*
X792344Y120651D01*
X793258Y122857D01*
Y125244D01*
X792344Y127449D01*
X790656Y129136D01*
X788451Y130050D01*
D02*
G37*
G36*
X512119Y132500D02*
X509881D01*
X507719Y131921D01*
X505781Y130802D01*
X504198Y129219D01*
X503079Y127281D01*
X502500Y125119D01*
Y122881D01*
X503079Y120719D01*
X504198Y118781D01*
X505781Y117198D01*
X507719Y116079D01*
X509881Y115500D01*
X512119D01*
X514281Y116079D01*
X516219Y117198D01*
X517802Y118781D01*
X518921Y120719D01*
X519500Y122881D01*
Y125119D01*
X518921Y127281D01*
X517802Y129219D01*
X516219Y130802D01*
X514281Y131921D01*
X512119Y132500D01*
D02*
G37*
G36*
X604193Y125000D02*
X601806D01*
X599601Y124087D01*
X597914Y122399D01*
X597000Y120194D01*
Y117807D01*
X597914Y115601D01*
X599601Y113913D01*
X601806Y113000D01*
X604193D01*
X606399Y113913D01*
X608087Y115601D01*
X609000Y117807D01*
Y120194D01*
X608087Y122399D01*
X606399Y124087D01*
X604193Y125000D01*
D02*
G37*
G36*
X584193Y123000D02*
X581806D01*
X579601Y122086D01*
X577913Y120399D01*
X577000Y118194D01*
Y115807D01*
X577913Y113601D01*
X579601Y111913D01*
X581806Y111000D01*
X584193D01*
X586399Y111913D01*
X588087Y113601D01*
X589000Y115807D01*
Y118194D01*
X588087Y120399D01*
X586399Y122086D01*
X584193Y123000D01*
D02*
G37*
G36*
X853194Y109000D02*
X850807D01*
X848601Y108087D01*
X846914Y106399D01*
X846000Y104193D01*
Y101807D01*
X846914Y99601D01*
X848601Y97914D01*
X850807Y97000D01*
X853194D01*
X855399Y97914D01*
X857087Y99601D01*
X858000Y101807D01*
Y104193D01*
X857087Y106399D01*
X855399Y108087D01*
X853194Y109000D01*
D02*
G37*
G36*
X584193Y102000D02*
X581806D01*
X579601Y101087D01*
X577913Y99399D01*
X577000Y97193D01*
Y94806D01*
X577913Y92601D01*
X579601Y90913D01*
X581806Y90000D01*
X584193D01*
X586399Y90913D01*
X588087Y92601D01*
X589000Y94806D01*
Y97193D01*
X588087Y99399D01*
X586399Y101087D01*
X584193Y102000D01*
D02*
G37*
G36*
X710193Y99000D02*
X707806D01*
X705601Y98087D01*
X703913Y96399D01*
X703000Y94193D01*
Y91806D01*
X703913Y89601D01*
X705601Y87913D01*
X707806Y87000D01*
X710193D01*
X712399Y87913D01*
X714087Y89601D01*
X715000Y91806D01*
Y94193D01*
X714087Y96399D01*
X712399Y98087D01*
X710193Y99000D01*
D02*
G37*
G36*
X628936Y93950D02*
X626549D01*
X624344Y93036D01*
X622656Y91349D01*
X621743Y89143D01*
Y86756D01*
X622656Y84551D01*
X624344Y82863D01*
X626549Y81950D01*
X628936D01*
X631141Y82863D01*
X632829Y84551D01*
X633742Y86756D01*
Y89143D01*
X632829Y91349D01*
X631141Y93036D01*
X628936Y93950D01*
D02*
G37*
G36*
X749193Y92000D02*
X746806D01*
X744601Y91087D01*
X742913Y89399D01*
X742000Y87193D01*
Y84807D01*
X742913Y82601D01*
X744601Y80913D01*
X746806Y80000D01*
X749193D01*
X751399Y80913D01*
X753087Y82601D01*
X754000Y84807D01*
Y87193D01*
X753087Y89399D01*
X751399Y91087D01*
X749193Y92000D01*
D02*
G37*
G36*
X594944Y65250D02*
X592556D01*
X590351Y64337D01*
X588663Y62649D01*
X587750Y60444D01*
Y58057D01*
X588663Y55851D01*
X590351Y54163D01*
X592556Y53250D01*
X594944D01*
X597149Y54163D01*
X598837Y55851D01*
X599750Y58057D01*
Y60444D01*
X598837Y62649D01*
X597149Y64337D01*
X594944Y65250D01*
D02*
G37*
G36*
X428399Y70625D02*
X425601D01*
X422899Y69901D01*
X420476Y68502D01*
X418498Y66524D01*
X417099Y64101D01*
X416375Y61399D01*
Y58601D01*
X417099Y55899D01*
X418498Y53476D01*
X420476Y51498D01*
X422899Y50099D01*
X425601Y49375D01*
X428399D01*
X431101Y50099D01*
X433524Y51498D01*
X435502Y53476D01*
X436901Y55899D01*
X437625Y58601D01*
Y61399D01*
X436901Y64101D01*
X435502Y66524D01*
X433524Y68502D01*
X431101Y69901D01*
X428399Y70625D01*
D02*
G37*
G36*
X788404Y52604D02*
X771196D01*
Y35396D01*
X788404D01*
Y52604D01*
D02*
G37*
G36*
X755533D02*
X753267D01*
X751079Y52018D01*
X749117Y50885D01*
X747515Y49283D01*
X746382Y47321D01*
X745796Y45133D01*
Y42867D01*
X746382Y40679D01*
X747515Y38717D01*
X749117Y37115D01*
X751079Y35982D01*
X753267Y35396D01*
X755533D01*
X757721Y35982D01*
X759683Y37115D01*
X761285Y38717D01*
X762418Y40679D01*
X763004Y42867D01*
Y45133D01*
X762418Y47321D01*
X761285Y49283D01*
X759683Y50885D01*
X757721Y52018D01*
X755533Y52604D01*
D02*
G37*
G36*
X730133D02*
X727867D01*
X725679Y52018D01*
X723717Y50885D01*
X722115Y49283D01*
X720982Y47321D01*
X720396Y45133D01*
Y42867D01*
X720982Y40679D01*
X722115Y38717D01*
X723717Y37115D01*
X725679Y35982D01*
X727867Y35396D01*
X730133D01*
X732321Y35982D01*
X734283Y37115D01*
X735885Y38717D01*
X737018Y40679D01*
X737604Y42867D01*
Y45133D01*
X737018Y47321D01*
X735885Y49283D01*
X734283Y50885D01*
X732321Y52018D01*
X730133Y52604D01*
D02*
G37*
G36*
X952364Y74000D02*
X947636D01*
X942999Y73078D01*
X938632Y71269D01*
X934701Y68642D01*
X931358Y65299D01*
X928732Y61368D01*
X926922Y57000D01*
X926000Y52364D01*
Y47636D01*
X926922Y43000D01*
X928732Y38632D01*
X931358Y34701D01*
X934701Y31358D01*
X938632Y28732D01*
X942999Y26922D01*
X947636Y26000D01*
X952364D01*
X957001Y26922D01*
X961368Y28732D01*
X965299Y31358D01*
X968642Y34701D01*
X971268Y38632D01*
X973078Y43000D01*
X974000Y47636D01*
Y52364D01*
X973078Y57000D01*
X971268Y61368D01*
X968642Y65299D01*
X965299Y68642D01*
X961368Y71269D01*
X957001Y73078D01*
X952364Y74000D01*
D02*
G37*
G36*
X515250Y37603D02*
X508750D01*
X506702Y37195D01*
X504965Y36035D01*
X503805Y34298D01*
X503397Y32250D01*
Y25750D01*
X503805Y23702D01*
X504965Y21965D01*
X506702Y20805D01*
X508750Y20397D01*
X515250D01*
X517298Y20805D01*
X519035Y21965D01*
X520195Y23702D01*
X520603Y25750D01*
Y32250D01*
X520195Y34298D01*
X519035Y36035D01*
X517298Y37195D01*
X515250Y37603D01*
D02*
G37*
G36*
X536194Y21500D02*
X533806D01*
X531601Y20587D01*
X529913Y18899D01*
X529000Y16694D01*
Y14306D01*
X529913Y12101D01*
X531601Y10413D01*
X533806Y9500D01*
X536194D01*
X538399Y10413D01*
X540087Y12101D01*
X541000Y14306D01*
Y16694D01*
X540087Y18899D01*
X538399Y20587D01*
X536194Y21500D01*
D02*
G37*
%LPD*%
G36*
X797573Y890939D02*
X797184Y890000D01*
X796806D01*
X794601Y889087D01*
X792914Y887399D01*
X792000Y885193D01*
Y882806D01*
X792914Y880601D01*
X794601Y878913D01*
X796806Y878000D01*
X799193D01*
X801399Y878913D01*
X803087Y880601D01*
X804000Y882806D01*
Y883184D01*
X804939Y883573D01*
X848412Y840099D01*
Y822736D01*
X848761Y820980D01*
X849756Y819491D01*
X862635Y806611D01*
Y805907D01*
X863549Y803701D01*
X864646Y802604D01*
X864225Y801588D01*
X846401D01*
X846012Y802527D01*
X846087Y802601D01*
X847000Y804807D01*
Y807194D01*
X846087Y809399D01*
X844399Y811087D01*
X842194Y812000D01*
X839807D01*
X837601Y811087D01*
X835913Y809399D01*
X835000Y807194D01*
Y804807D01*
X835913Y802601D01*
X835988Y802527D01*
X835599Y801588D01*
X780401D01*
X780012Y802527D01*
X780087Y802601D01*
X781000Y804807D01*
Y807194D01*
X780087Y809399D01*
X778399Y811087D01*
X776193Y812000D01*
X773807D01*
X771601Y811087D01*
X769913Y809399D01*
X769000Y807194D01*
Y804807D01*
X769913Y802601D01*
X769988Y802527D01*
X769599Y801588D01*
X542717D01*
X542515Y802604D01*
X543141Y802863D01*
X544829Y804551D01*
X545742Y806757D01*
Y809144D01*
X544829Y811349D01*
X543141Y813037D01*
X540936Y813950D01*
X538549D01*
X536344Y813037D01*
X534656Y811349D01*
X533742Y809144D01*
Y806757D01*
X534656Y804551D01*
X536344Y802863D01*
X536970Y802604D01*
X536768Y801588D01*
X450500D01*
X401000Y851089D01*
Y851794D01*
X400087Y853999D01*
X398399Y855687D01*
X396676Y856400D01*
Y857500D01*
X398399Y858213D01*
X400087Y859901D01*
X401000Y862106D01*
Y862811D01*
X435601Y897412D01*
X791099D01*
X797573Y890939D01*
D02*
G37*
%LPC*%
G36*
X806193Y877000D02*
X803807D01*
X801601Y876087D01*
X799913Y874399D01*
X799000Y872194D01*
Y869807D01*
X799913Y867601D01*
X801601Y865913D01*
X803807Y865000D01*
X806193D01*
X808399Y865913D01*
X810087Y867601D01*
X811000Y869807D01*
Y872194D01*
X810087Y874399D01*
X808399Y876087D01*
X806193Y877000D01*
D02*
G37*
G36*
X775193Y889000D02*
X772806D01*
X770601Y888087D01*
X768913Y886399D01*
X768000Y884193D01*
Y881806D01*
X768913Y879601D01*
X770601Y877914D01*
X771979Y877343D01*
Y876243D01*
X771601Y876087D01*
X769913Y874399D01*
X769000Y872194D01*
Y869807D01*
X769913Y867601D01*
X771601Y865913D01*
X773807Y865000D01*
X776193D01*
X778399Y865913D01*
X780087Y867601D01*
X781000Y869807D01*
Y872194D01*
X780087Y874399D01*
X778399Y876087D01*
X777021Y876657D01*
Y877757D01*
X777399Y877914D01*
X779087Y879601D01*
X780000Y881806D01*
Y884193D01*
X779087Y886399D01*
X777399Y888087D01*
X775193Y889000D01*
D02*
G37*
G36*
X813194Y863000D02*
X810807D01*
X808601Y862086D01*
X806913Y860399D01*
X806000Y858194D01*
Y855807D01*
X806913Y853601D01*
X808601Y851913D01*
X810807Y851000D01*
X813194D01*
X815399Y851913D01*
X817087Y853601D01*
X818000Y855807D01*
Y858194D01*
X817087Y860399D01*
X815399Y862086D01*
X813194Y863000D01*
D02*
G37*
G36*
X597451Y852050D02*
X595064D01*
X592859Y851137D01*
X591171Y849449D01*
X590257Y847243D01*
Y844856D01*
X591171Y842651D01*
X592859Y840963D01*
X595064Y840050D01*
X597451D01*
X599656Y840963D01*
X601344Y842651D01*
X602257Y844856D01*
Y847243D01*
X601344Y849449D01*
X599656Y851137D01*
X597451Y852050D01*
D02*
G37*
G36*
X820193Y851000D02*
X817806D01*
X815601Y850087D01*
X813913Y848399D01*
X813000Y846193D01*
Y843807D01*
X813913Y841601D01*
X815601Y839913D01*
X817806Y839000D01*
X820193D01*
X822399Y839913D01*
X824087Y841601D01*
X825000Y843807D01*
Y846193D01*
X824087Y848399D01*
X822399Y850087D01*
X820193Y851000D01*
D02*
G37*
G36*
X827194Y838000D02*
X824807D01*
X822601Y837087D01*
X820913Y835399D01*
X820000Y833194D01*
Y830807D01*
X820913Y828601D01*
X822601Y826914D01*
X824807Y826000D01*
X827194D01*
X829399Y826914D01*
X831087Y828601D01*
X832000Y830807D01*
Y833194D01*
X831087Y835399D01*
X829399Y837087D01*
X827194Y838000D01*
D02*
G37*
G36*
X685193Y838000D02*
X682806D01*
X680601Y837086D01*
X678913Y835399D01*
X678000Y833194D01*
Y830807D01*
X678913Y828601D01*
X680601Y826913D01*
X682806Y826000D01*
X685193D01*
X687399Y826913D01*
X689087Y828601D01*
X690000Y830807D01*
Y833194D01*
X689087Y835399D01*
X687399Y837086D01*
X685193Y838000D01*
D02*
G37*
G36*
X636279D02*
X633893D01*
X631687Y837086D01*
X629999Y835399D01*
X629086Y833194D01*
Y830807D01*
X629999Y828601D01*
X631687Y826913D01*
X633893Y826000D01*
X636279D01*
X638485Y826913D01*
X640173Y828601D01*
X641086Y830807D01*
Y833194D01*
X640173Y835399D01*
X638485Y837086D01*
X636279Y838000D01*
D02*
G37*
G36*
X775193Y863000D02*
X772806D01*
X770601Y862086D01*
X768913Y860399D01*
X768000Y858194D01*
Y855807D01*
X768913Y853601D01*
X770601Y851913D01*
X771580Y851508D01*
Y850492D01*
X770601Y850087D01*
X768913Y848399D01*
X768000Y846193D01*
Y843807D01*
X768913Y841601D01*
X770601Y839913D01*
X771979Y839343D01*
Y838243D01*
X771601Y838087D01*
X769913Y836399D01*
X769000Y834193D01*
Y831806D01*
X769913Y829601D01*
X771601Y827914D01*
X772479Y827550D01*
Y826450D01*
X771601Y826087D01*
X769913Y824399D01*
X769000Y822194D01*
Y819807D01*
X769913Y817601D01*
X771601Y815913D01*
X773807Y815000D01*
X776193D01*
X778399Y815913D01*
X780087Y817601D01*
X781000Y819807D01*
Y822194D01*
X780087Y824399D01*
X778399Y826087D01*
X777521Y826450D01*
Y827550D01*
X778399Y827914D01*
X780087Y829601D01*
X781000Y831806D01*
Y834193D01*
X780087Y836399D01*
X778399Y838087D01*
X777021Y838657D01*
Y839757D01*
X777399Y839913D01*
X779087Y841601D01*
X780000Y843807D01*
Y846193D01*
X779087Y848399D01*
X777399Y850087D01*
X776420Y850492D01*
Y851508D01*
X777399Y851913D01*
X779087Y853601D01*
X780000Y855807D01*
Y858194D01*
X779087Y860399D01*
X777399Y862086D01*
X775193Y863000D01*
D02*
G37*
G36*
X511544Y826650D02*
X509156D01*
X506951Y825737D01*
X505263Y824049D01*
X504350Y821843D01*
Y819456D01*
X505263Y817251D01*
X506951Y815563D01*
X509156Y814650D01*
X511544D01*
X513749Y815563D01*
X515437Y817251D01*
X516350Y819456D01*
Y821843D01*
X515437Y824049D01*
X513749Y825737D01*
X511544Y826650D01*
D02*
G37*
G36*
X835193Y826000D02*
X832806D01*
X830601Y825087D01*
X828913Y823399D01*
X828000Y821193D01*
Y818807D01*
X828913Y816601D01*
X830601Y814913D01*
X832806Y814000D01*
X835193D01*
X837399Y814913D01*
X839087Y816601D01*
X840000Y818807D01*
Y821193D01*
X839087Y823399D01*
X837399Y825087D01*
X835193Y826000D01*
D02*
G37*
%LPD*%
G36*
X592644Y576867D02*
X591996Y576078D01*
X591756Y576239D01*
X590000Y576588D01*
X400447D01*
X399899Y577137D01*
X398176Y577850D01*
Y578950D01*
X399899Y579664D01*
X400647Y580412D01*
X589100D01*
X592644Y576867D01*
D02*
G37*
G36*
X591294Y564217D02*
X590646Y563428D01*
X590406Y563589D01*
X588650Y563938D01*
X400397D01*
X399899Y564437D01*
X398176Y565150D01*
Y566250D01*
X399899Y566964D01*
X400347Y567412D01*
X588100D01*
X591294Y564217D01*
D02*
G37*
G36*
X589994Y551517D02*
X589346Y550728D01*
X589106Y550889D01*
X587350Y551238D01*
X400397D01*
X399899Y551737D01*
X398176Y552450D01*
Y553550D01*
X399899Y554263D01*
X400397Y554762D01*
X586749D01*
X589994Y551517D01*
D02*
G37*
G36*
X748644Y393361D02*
X750400Y393012D01*
X865738D01*
X866237Y392514D01*
X867960Y391800D01*
Y390700D01*
X866237Y389987D01*
X865738Y389488D01*
X751000D01*
X747756Y392733D01*
X748404Y393522D01*
X748644Y393361D01*
D02*
G37*
G36*
X651311Y440200D02*
X650811Y439264D01*
X650185Y439388D01*
X399897D01*
X399399Y439887D01*
X397676Y440600D01*
Y441700D01*
X399399Y442413D01*
X399897Y442912D01*
X648599D01*
X651311Y440200D01*
D02*
G37*
G36*
X650919Y427578D02*
X650418Y426642D01*
X650185Y426688D01*
X399897D01*
X399399Y427187D01*
X397676Y427900D01*
Y429000D01*
X399399Y429713D01*
X399897Y430212D01*
X648285D01*
X650919Y427578D01*
D02*
G37*
G36*
Y414878D02*
X650418Y413942D01*
X650185Y413988D01*
X399897D01*
X399399Y414487D01*
X397676Y415200D01*
Y416300D01*
X399399Y417013D01*
X399897Y417512D01*
X648285D01*
X650919Y414878D01*
D02*
G37*
D13*
X396000Y447500D02*
X396500Y447000D01*
D63*
X779800Y44000D02*
D03*
D64*
X754400D02*
D03*
X729000D02*
D03*
X687000Y744000D02*
D03*
Y718600D02*
D03*
D65*
Y769400D02*
D03*
D66*
X365800Y150000D02*
D03*
X391200D02*
D03*
X340400D02*
D03*
D67*
X315000D02*
D03*
D69*
X688100Y576900D02*
X869635D01*
X578900Y686100D02*
X688100Y576900D01*
X868635Y934100D02*
X882000Y920736D01*
Y741000D02*
Y920736D01*
X846000Y705000D02*
X882000Y741000D01*
X754000Y705000D02*
X846000D01*
X825000Y745000D02*
X869000D01*
X800000Y720000D02*
X825000Y745000D01*
X793000Y902000D02*
X853000Y842000D01*
Y822736D02*
X868635Y807100D01*
X853000Y822736D02*
Y842000D01*
X433700Y902000D02*
X793000D01*
X729000Y680000D02*
X754000Y705000D01*
X677000Y680000D02*
X729000D01*
X733000Y745000D02*
X758000Y720000D01*
X800000D01*
X865224Y797000D02*
X867824Y794400D01*
X395000Y850600D02*
X448600Y797000D01*
X867824Y794400D02*
X868635D01*
X448600Y797000D02*
X865224D01*
X395000Y825200D02*
X438200Y782000D01*
X855636D02*
X868635Y769000D01*
X438200Y782000D02*
X855636D01*
X395000Y837900D02*
X443900Y789000D01*
X861336D02*
X868635Y781700D01*
X443900Y789000D02*
X861336D01*
X580000Y737000D02*
X712000Y605000D01*
X396000Y724200D02*
X408800Y737000D01*
X580000D01*
X395000Y863300D02*
X433700Y902000D01*
X712000Y605000D02*
X859635D01*
X584200Y698800D02*
X693400Y589600D01*
X869635D01*
X863524Y597000D02*
X868824Y602300D01*
X589500Y711500D02*
X704000Y597000D01*
X863524D01*
X859635Y605000D02*
X869635Y615000D01*
X396000Y711500D02*
X589500D01*
X396000Y698800D02*
X584200D01*
X396000Y686100D02*
X578900D01*
X868824Y602300D02*
X869635D01*
X764000Y412000D02*
X858635D01*
X396750Y585000D02*
X591000D01*
X764000Y412000D01*
X758000Y404000D02*
X862524D01*
X396550Y572000D02*
X590000D01*
X758000Y404000D01*
X750400Y397600D02*
X869635D01*
X588650Y559350D02*
X750400Y397600D01*
X396500Y559350D02*
X588650D01*
X396500Y546650D02*
X587350D01*
X749100Y384900D02*
X869635D01*
X587350Y546650D02*
X749100Y384900D01*
X396500Y572050D02*
X396550Y572000D01*
X868824Y410300D02*
X869635D01*
X862524Y404000D02*
X868824Y410300D01*
X858635Y412000D02*
X869635Y423000D01*
X396500Y584750D02*
X396750Y585000D01*
X650185Y409400D02*
X869136Y190450D01*
X396000Y409400D02*
X650185D01*
X396000Y422100D02*
X650185D01*
X869136Y203150D01*
X650185Y434800D02*
X869136Y215850D01*
X396000Y434800D02*
X650185D01*
X650500Y447500D02*
X869000Y229000D01*
X396000Y447500D02*
X650500D01*
D71*
X140000Y82500D02*
D03*
D72*
X188000Y53000D02*
D03*
D73*
X140000Y24500D02*
D03*
D74*
X639000Y719300D02*
D03*
D75*
Y744700D02*
D03*
D76*
X512000Y29000D02*
D03*
X511000Y104000D02*
D03*
X219000Y207000D02*
D03*
D77*
X512000Y49000D02*
D03*
X511000Y124000D02*
D03*
X219000Y187000D02*
D03*
D78*
X141000Y125000D02*
D03*
X90000D02*
D03*
D79*
X980000Y588900D02*
D03*
Y538100D02*
D03*
Y461900D02*
D03*
Y360300D02*
D03*
Y334900D02*
D03*
Y385700D02*
D03*
Y411100D02*
D03*
Y436500D02*
D03*
Y487300D02*
D03*
Y512700D02*
D03*
Y563500D02*
D03*
Y614300D02*
D03*
Y639700D02*
D03*
Y665100D02*
D03*
Y690500D02*
D03*
X198100Y844800D02*
D03*
X45000Y414100D02*
D03*
X198100Y438400D02*
D03*
Y387600D02*
D03*
Y489200D02*
D03*
Y590800D02*
D03*
Y667000D02*
D03*
Y565400D02*
D03*
X45000Y693500D02*
D03*
Y668100D02*
D03*
Y515700D02*
D03*
Y464900D02*
D03*
X198100Y768600D02*
D03*
Y540000D02*
D03*
X45000Y439500D02*
D03*
Y566500D02*
D03*
Y718900D02*
D03*
Y820500D02*
D03*
Y642700D02*
D03*
X198100Y616200D02*
D03*
Y743200D02*
D03*
Y692400D02*
D03*
X45000Y744300D02*
D03*
Y591900D02*
D03*
X198100Y463800D02*
D03*
Y641600D02*
D03*
Y514600D02*
D03*
X45000Y845900D02*
D03*
X198100Y794000D02*
D03*
X45000Y388700D02*
D03*
X198100Y819400D02*
D03*
X45000Y541100D02*
D03*
Y490300D02*
D03*
X198100Y717800D02*
D03*
X45000Y617300D02*
D03*
Y769700D02*
D03*
Y795100D02*
D03*
X198100Y413000D02*
D03*
D80*
X980000Y309500D02*
D03*
X45000Y871300D02*
D03*
X198100Y870200D02*
D03*
D81*
X427000Y60000D02*
D03*
X401600D02*
D03*
X376200D02*
D03*
X300000D02*
D03*
X325400D02*
D03*
D82*
X562000Y722000D02*
D03*
X849999Y626000D02*
D03*
X482000Y498000D02*
D03*
X418000Y210000D02*
D03*
X929999Y242000D02*
D03*
X490000Y482000D02*
D03*
X530000Y498000D02*
D03*
X522000Y162000D02*
D03*
X658000Y242000D02*
D03*
X706000Y977999D02*
D03*
X578000Y370000D02*
D03*
X809999Y897999D02*
D03*
X474000Y66000D02*
D03*
X946000Y849999D02*
D03*
X809999Y226000D02*
D03*
X882000Y82000D02*
D03*
Y946000D02*
D03*
X530000Y178000D02*
D03*
X610000Y210000D02*
D03*
X522000Y962000D02*
D03*
Y929999D02*
D03*
X897999Y18000D02*
D03*
X442000Y386000D02*
D03*
X450000Y626000D02*
D03*
X826000Y929999D02*
D03*
X538000Y962000D02*
D03*
X474000Y610000D02*
D03*
X722000Y690000D02*
D03*
X746000Y450000D02*
D03*
X897999Y242000D02*
D03*
X602000Y226000D02*
D03*
X842000Y834000D02*
D03*
X490000Y674000D02*
D03*
X514000Y882000D02*
D03*
X986000Y226000D02*
D03*
X977999Y178000D02*
D03*
X826000Y162000D02*
D03*
X370000Y977999D02*
D03*
X466000Y146000D02*
D03*
X642000Y178000D02*
D03*
X442000Y834000D02*
D03*
X849999Y274000D02*
D03*
X706000Y626000D02*
D03*
X506000Y929999D02*
D03*
X626000Y210000D02*
D03*
X977999Y146000D02*
D03*
X937999Y194000D02*
D03*
X674000Y562000D02*
D03*
X498000Y977999D02*
D03*
X530000Y466000D02*
D03*
X506000Y514000D02*
D03*
X953999Y610000D02*
D03*
X738000Y913999D02*
D03*
X866000Y946000D02*
D03*
X754000Y818000D02*
D03*
X634000Y770000D02*
D03*
X913999Y913999D02*
D03*
X969999Y226000D02*
D03*
X962000Y722000D02*
D03*
X977999Y114000D02*
D03*
X986000Y706000D02*
D03*
X458000Y642000D02*
D03*
X849999Y18000D02*
D03*
X658000Y882000D02*
D03*
X458000Y66000D02*
D03*
X722000Y18000D02*
D03*
X962000Y466000D02*
D03*
X626000Y594000D02*
D03*
X953999Y866000D02*
D03*
X386000Y18000D02*
D03*
X794000Y929999D02*
D03*
X834000Y977999D02*
D03*
X674000Y530000D02*
D03*
X658000Y946000D02*
D03*
X889999Y66000D02*
D03*
X857999Y162000D02*
D03*
X802000Y18000D02*
D03*
X738000Y754000D02*
D03*
X562000D02*
D03*
X969999Y802000D02*
D03*
X466000Y178000D02*
D03*
X986000Y194000D02*
D03*
X562000Y594000D02*
D03*
X953999Y897999D02*
D03*
X458000Y162000D02*
D03*
X474000D02*
D03*
X906000Y226000D02*
D03*
X474000Y98000D02*
D03*
X450000Y594000D02*
D03*
X690000Y690000D02*
D03*
X642000Y913999D02*
D03*
X602000Y386000D02*
D03*
Y642000D02*
D03*
X969999Y866000D02*
D03*
X474000Y258000D02*
D03*
X882000Y18000D02*
D03*
X426000Y258000D02*
D03*
X842000Y866000D02*
D03*
X586000Y929999D02*
D03*
X746000Y866000D02*
D03*
X946000Y178000D02*
D03*
X466000Y50000D02*
D03*
X522000Y194000D02*
D03*
X466000Y82000D02*
D03*
X786000Y18000D02*
D03*
X626000Y946000D02*
D03*
X986000Y866000D02*
D03*
X626000Y50000D02*
D03*
X482000Y754000D02*
D03*
X610000Y498000D02*
D03*
X690000Y306000D02*
D03*
X738000Y849999D02*
D03*
X809999Y34000D02*
D03*
X434000Y658000D02*
D03*
X482000Y818000D02*
D03*
X666000Y706000D02*
D03*
X610000Y242000D02*
D03*
X370000Y946000D02*
D03*
X458000Y226000D02*
D03*
X634000Y258000D02*
D03*
X546000Y498000D02*
D03*
X506000Y258000D02*
D03*
X378000Y962000D02*
D03*
X626000Y818000D02*
D03*
X722000Y722000D02*
D03*
X698000Y162000D02*
D03*
X434000Y178000D02*
D03*
X538000Y482000D02*
D03*
X466000Y466000D02*
D03*
X802000Y50000D02*
D03*
X937999Y897999D02*
D03*
X434000Y242000D02*
D03*
X746000Y674000D02*
D03*
X634000Y482000D02*
D03*
X626000Y242000D02*
D03*
X674000Y178000D02*
D03*
X857999Y66000D02*
D03*
X953999Y770000D02*
D03*
X546000Y370000D02*
D03*
X458000Y929999D02*
D03*
X450000Y82000D02*
D03*
X498000D02*
D03*
X690000Y946000D02*
D03*
X466000Y977999D02*
D03*
X474000Y482000D02*
D03*
X650000Y354000D02*
D03*
X873999Y66000D02*
D03*
X953999Y450000D02*
D03*
X506000Y642000D02*
D03*
X897999Y146000D02*
D03*
X977999Y882000D02*
D03*
X530000Y338000D02*
D03*
X746000Y834000D02*
D03*
X418000Y306000D02*
D03*
X442000Y226000D02*
D03*
X466000Y338000D02*
D03*
X562000Y977999D02*
D03*
X786000D02*
D03*
X754000Y658000D02*
D03*
X937999Y226000D02*
D03*
X578000Y626000D02*
D03*
X666000Y354000D02*
D03*
X386000Y82000D02*
D03*
X618000Y354000D02*
D03*
X562000Y498000D02*
D03*
X522000Y226000D02*
D03*
X634000Y610000D02*
D03*
X482000Y146000D02*
D03*
X913999Y178000D02*
D03*
X866000Y977999D02*
D03*
X690000Y50000D02*
D03*
X554000Y386000D02*
D03*
X977999Y818000D02*
D03*
X650000Y226000D02*
D03*
X498000Y146000D02*
D03*
X650000Y770000D02*
D03*
X786000Y946000D02*
D03*
X594000Y594000D02*
D03*
X962000Y402000D02*
D03*
X434000Y946000D02*
D03*
X690000Y530000D02*
D03*
X906000Y98000D02*
D03*
X946000Y242000D02*
D03*
X634000Y34000D02*
D03*
X794000D02*
D03*
X650000Y866000D02*
D03*
X562000Y338000D02*
D03*
X922000Y194000D02*
D03*
X402000Y626000D02*
D03*
X458000Y482000D02*
D03*
X466000Y818000D02*
D03*
X610000Y18000D02*
D03*
X690000Y882000D02*
D03*
X746000Y514000D02*
D03*
X690000Y338000D02*
D03*
X906000Y162000D02*
D03*
X554000Y258000D02*
D03*
X922000Y98000D02*
D03*
X842000Y962000D02*
D03*
X490000Y66000D02*
D03*
X730000Y706000D02*
D03*
X450000Y242000D02*
D03*
X913999Y114000D02*
D03*
X986000Y897999D02*
D03*
X410000Y770000D02*
D03*
X738000Y18000D02*
D03*
X642000Y50000D02*
D03*
X506000Y834000D02*
D03*
X642000Y594000D02*
D03*
X410000Y354000D02*
D03*
X498000Y754000D02*
D03*
X889999Y962000D02*
D03*
X682000Y546000D02*
D03*
X698000Y706000D02*
D03*
X738000Y498000D02*
D03*
X522000Y482000D02*
D03*
X482000Y913999D02*
D03*
X450000Y178000D02*
D03*
X434000Y82000D02*
D03*
X466000Y18000D02*
D03*
X498000Y913999D02*
D03*
X698000Y546000D02*
D03*
X929999Y178000D02*
D03*
X802000Y946000D02*
D03*
X626000Y370000D02*
D03*
X594000Y658000D02*
D03*
X554000Y770000D02*
D03*
X570000Y482000D02*
D03*
X442000Y929999D02*
D03*
X570000Y66000D02*
D03*
X698000Y866000D02*
D03*
X586000Y194000D02*
D03*
X818000Y178000D02*
D03*
X578000Y818000D02*
D03*
X842000Y897999D02*
D03*
X922000Y226000D02*
D03*
X394000D02*
D03*
X658000Y370000D02*
D03*
X570000Y674000D02*
D03*
X834000Y50000D02*
D03*
X953999Y738000D02*
D03*
X674000Y977999D02*
D03*
X474000Y962000D02*
D03*
X514000Y626000D02*
D03*
X386000Y498000D02*
D03*
X410000Y482000D02*
D03*
X578000Y913999D02*
D03*
X802000Y146000D02*
D03*
X410000Y130000D02*
D03*
X450000Y498000D02*
D03*
X562000Y626000D02*
D03*
X442000Y66000D02*
D03*
X578000Y754000D02*
D03*
X562000Y466000D02*
D03*
X714000Y34000D02*
D03*
X378000Y194000D02*
D03*
X394000Y610000D02*
D03*
X418000Y18000D02*
D03*
X426000Y130000D02*
D03*
X642000Y946000D02*
D03*
X506000Y162000D02*
D03*
X634000Y226000D02*
D03*
X674000Y913999D02*
D03*
X506000Y962000D02*
D03*
X578000Y178000D02*
D03*
X706000Y946000D02*
D03*
X722000Y178000D02*
D03*
X969999Y322000D02*
D03*
Y194000D02*
D03*
X418000Y242000D02*
D03*
X554000Y642000D02*
D03*
X546000Y338000D02*
D03*
X770000Y178000D02*
D03*
X682000Y929999D02*
D03*
X666000Y34000D02*
D03*
X929999Y882000D02*
D03*
X386000Y178000D02*
D03*
X754000Y882000D02*
D03*
X426000Y386000D02*
D03*
X913999Y82000D02*
D03*
X818000D02*
D03*
X946000Y882000D02*
D03*
X986000Y98000D02*
D03*
X466000Y594000D02*
D03*
X834000Y882000D02*
D03*
X418000Y146000D02*
D03*
X402000Y178000D02*
D03*
X922000Y258000D02*
D03*
X818000Y977999D02*
D03*
X754000Y178000D02*
D03*
X498000Y882000D02*
D03*
X474000Y929999D02*
D03*
X682000Y706000D02*
D03*
X410000Y610000D02*
D03*
X738000Y882000D02*
D03*
X946000Y114000D02*
D03*
X578000Y466000D02*
D03*
X650000Y386000D02*
D03*
X906000Y962000D02*
D03*
X953999Y130000D02*
D03*
X482000Y338000D02*
D03*
X849999Y466000D02*
D03*
X506000Y674000D02*
D03*
X946000Y210000D02*
D03*
X969999Y770000D02*
D03*
X666000Y450000D02*
D03*
X474000Y514000D02*
D03*
X594000Y178000D02*
D03*
X690000Y977999D02*
D03*
X962000Y754000D02*
D03*
X602000Y194000D02*
D03*
X866000Y178000D02*
D03*
X922000Y130000D02*
D03*
X450000Y114000D02*
D03*
X490000Y162000D02*
D03*
X498000Y946000D02*
D03*
X650000Y194000D02*
D03*
X986000Y802000D02*
D03*
X818000Y50000D02*
D03*
X969999Y258000D02*
D03*
X530000Y306000D02*
D03*
X962000Y626000D02*
D03*
X706000Y722000D02*
D03*
X962000Y242000D02*
D03*
X937999Y290000D02*
D03*
X418000Y658000D02*
D03*
X618000Y386000D02*
D03*
X730000Y482000D02*
D03*
X754000Y466000D02*
D03*
X498000D02*
D03*
X706000Y818000D02*
D03*
X977999Y210000D02*
D03*
X714000Y642000D02*
D03*
X626000Y338000D02*
D03*
X642000Y370000D02*
D03*
X658000Y594000D02*
D03*
X834000Y913999D02*
D03*
X730000Y514000D02*
D03*
X538000Y258000D02*
D03*
X418000Y722000D02*
D03*
X474000Y386000D02*
D03*
X706000Y658000D02*
D03*
X418000Y977999D02*
D03*
X450000Y466000D02*
D03*
X626000Y626000D02*
D03*
X650000Y546000D02*
D03*
X466000Y242000D02*
D03*
X866000Y50000D02*
D03*
X514000Y82000D02*
D03*
X522000Y866000D02*
D03*
X706000Y849999D02*
D03*
X586000Y482000D02*
D03*
X906000Y258000D02*
D03*
X482000Y50000D02*
D03*
X834000Y178000D02*
D03*
X618000Y322000D02*
D03*
X450000Y946000D02*
D03*
X554000Y482000D02*
D03*
X642000Y466000D02*
D03*
X386000Y754000D02*
D03*
X562000Y913999D02*
D03*
X722000Y562000D02*
D03*
X842000Y66000D02*
D03*
X498000Y594000D02*
D03*
X482000Y370000D02*
D03*
X402000Y18000D02*
D03*
X658000D02*
D03*
X594000Y370000D02*
D03*
X658000Y977999D02*
D03*
X626000D02*
D03*
X738000Y562000D02*
D03*
X482000Y242000D02*
D03*
X746000Y482000D02*
D03*
X514000Y658000D02*
D03*
X698000Y514000D02*
D03*
X482000Y977999D02*
D03*
X682000Y34000D02*
D03*
X458000Y98000D02*
D03*
X873999Y34000D02*
D03*
X594000Y210000D02*
D03*
X826000Y130000D02*
D03*
X370000Y82000D02*
D03*
X610000Y594000D02*
D03*
X849999Y178000D02*
D03*
X458000Y610000D02*
D03*
X913999Y242000D02*
D03*
X594000Y977999D02*
D03*
X370000Y18000D02*
D03*
X738000Y530000D02*
D03*
X897999Y210000D02*
D03*
X602000Y354000D02*
D03*
X522000Y386000D02*
D03*
X642000Y977999D02*
D03*
X450000D02*
D03*
X634000Y322000D02*
D03*
X530000Y946000D02*
D03*
X706000Y690000D02*
D03*
X426000Y962000D02*
D03*
X514000Y466000D02*
D03*
X802000Y178000D02*
D03*
X826000Y98000D02*
D03*
X906000Y130000D02*
D03*
X666000Y866000D02*
D03*
X522000Y514000D02*
D03*
X578000Y658000D02*
D03*
X913999Y18000D02*
D03*
X674000Y370000D02*
D03*
X730000Y834000D02*
D03*
X882000Y114000D02*
D03*
X962000D02*
D03*
X490000Y834000D02*
D03*
X866000Y82000D02*
D03*
X969999Y834000D02*
D03*
X770000Y977999D02*
D03*
X554000Y610000D02*
D03*
X650000Y929999D02*
D03*
X482000Y210000D02*
D03*
X666000Y194000D02*
D03*
X682000Y866000D02*
D03*
X929999Y274000D02*
D03*
X906000Y194000D02*
D03*
X986000Y162000D02*
D03*
X754000Y626000D02*
D03*
X690000Y178000D02*
D03*
X642000Y338000D02*
D03*
Y882000D02*
D03*
X658000Y562000D02*
D03*
X698000Y418000D02*
D03*
X586000Y770000D02*
D03*
X490000Y258000D02*
D03*
X722000Y946000D02*
D03*
X922000Y897999D02*
D03*
X937999Y162000D02*
D03*
X714000Y738000D02*
D03*
X450000Y882000D02*
D03*
X834000Y114000D02*
D03*
X538000Y514000D02*
D03*
X434000Y498000D02*
D03*
X618000Y610000D02*
D03*
X658000Y178000D02*
D03*
X666000Y546000D02*
D03*
X962000Y274000D02*
D03*
X953999Y322000D02*
D03*
X842000Y162000D02*
D03*
X977999Y754000D02*
D03*
X442000Y514000D02*
D03*
X498000Y114000D02*
D03*
X618000Y226000D02*
D03*
X849999Y658000D02*
D03*
X969999Y98000D02*
D03*
X977999Y786000D02*
D03*
X962000Y434000D02*
D03*
X410000Y226000D02*
D03*
X610000Y466000D02*
D03*
X418000Y498000D02*
D03*
X562000Y882000D02*
D03*
X642000Y818000D02*
D03*
X434000Y306000D02*
D03*
X482000Y18000D02*
D03*
X610000Y370000D02*
D03*
X849999Y977999D02*
D03*
X946000Y146000D02*
D03*
X594000Y626000D02*
D03*
X642000Y562000D02*
D03*
X953999Y194000D02*
D03*
X586000Y610000D02*
D03*
X802000Y210000D02*
D03*
X554000Y866000D02*
D03*
X706000Y913999D02*
D03*
X873999Y98000D02*
D03*
X969999Y290000D02*
D03*
X610000Y626000D02*
D03*
X602000Y929999D02*
D03*
X834000Y210000D02*
D03*
X650000Y706000D02*
D03*
X506000Y386000D02*
D03*
X953999Y290000D02*
D03*
X578000Y946000D02*
D03*
X953999Y162000D02*
D03*
X722000Y818000D02*
D03*
X986000Y738000D02*
D03*
X714000Y834000D02*
D03*
X962000Y786000D02*
D03*
X897999Y82000D02*
D03*
X977999Y913999D02*
D03*
X738000Y818000D02*
D03*
X682000Y514000D02*
D03*
X809999Y98000D02*
D03*
X418000Y114000D02*
D03*
X674000Y946000D02*
D03*
X937999Y130000D02*
D03*
X418000Y913999D02*
D03*
X442000Y482000D02*
D03*
X897999Y50000D02*
D03*
X490000Y386000D02*
D03*
X873999Y162000D02*
D03*
X554000Y514000D02*
D03*
X674000Y849999D02*
D03*
X498000Y658000D02*
D03*
X674000Y338000D02*
D03*
X754000Y849999D02*
D03*
X738000Y626000D02*
D03*
X586000Y642000D02*
D03*
X578000Y530000D02*
D03*
X674000Y18000D02*
D03*
X402000Y754000D02*
D03*
X906000Y34000D02*
D03*
X490000Y962000D02*
D03*
X802000Y977999D02*
D03*
X458000Y866000D02*
D03*
X610000Y913999D02*
D03*
X514000Y498000D02*
D03*
X714000Y706000D02*
D03*
X610000Y882000D02*
D03*
X578000Y306000D02*
D03*
X738000Y977999D02*
D03*
X594000Y18000D02*
D03*
X650000Y130000D02*
D03*
X394000Y770000D02*
D03*
X490000D02*
D03*
X554000Y66000D02*
D03*
X706000Y882000D02*
D03*
X482000Y849999D02*
D03*
X466000Y370000D02*
D03*
X458000Y834000D02*
D03*
X490000Y514000D02*
D03*
X929999Y114000D02*
D03*
X466000D02*
D03*
X426000Y226000D02*
D03*
X474000D02*
D03*
X506000Y482000D02*
D03*
X458000Y354000D02*
D03*
X722000Y530000D02*
D03*
X514000Y977999D02*
D03*
X618000Y770000D02*
D03*
X538000Y194000D02*
D03*
X706000Y530000D02*
D03*
X929999Y210000D02*
D03*
X722000Y882000D02*
D03*
X498000Y498000D02*
D03*
X402000Y338000D02*
D03*
X754000Y530000D02*
D03*
X482000Y178000D02*
D03*
X698000Y226000D02*
D03*
X722000Y849999D02*
D03*
X714000Y482000D02*
D03*
X434000Y370000D02*
D03*
X402000Y913999D02*
D03*
X849999Y946000D02*
D03*
X882000Y977999D02*
D03*
X546000D02*
D03*
X434000D02*
D03*
X578000Y594000D02*
D03*
X530000Y242000D02*
D03*
X570000Y929999D02*
D03*
X674000Y50000D02*
D03*
X578000Y977999D02*
D03*
X738000Y722000D02*
D03*
X809999Y929999D02*
D03*
X953999Y98000D02*
D03*
X570000Y610000D02*
D03*
X889999Y929999D02*
D03*
X538000Y386000D02*
D03*
X626000Y306000D02*
D03*
Y913999D02*
D03*
X913999Y146000D02*
D03*
X953999Y802000D02*
D03*
X842000Y34000D02*
D03*
X466000Y626000D02*
D03*
X674000Y658000D02*
D03*
X889999Y34000D02*
D03*
X690000Y562000D02*
D03*
X482000Y114000D02*
D03*
X554000Y929999D02*
D03*
X986000Y258000D02*
D03*
X386000Y338000D02*
D03*
X514000Y146000D02*
D03*
X730000Y546000D02*
D03*
X849999Y306000D02*
D03*
X578000Y498000D02*
D03*
X594000Y946000D02*
D03*
X897999Y977999D02*
D03*
X618000Y34000D02*
D03*
X962000Y818000D02*
D03*
X394000Y354000D02*
D03*
X809999Y162000D02*
D03*
X857999Y962000D02*
D03*
X498000Y370000D02*
D03*
X962000Y882000D02*
D03*
X746000Y642000D02*
D03*
X929999Y146000D02*
D03*
X490000Y610000D02*
D03*
X937999Y866000D02*
D03*
X514000Y370000D02*
D03*
X730000Y866000D02*
D03*
X626000Y18000D02*
D03*
X578000Y882000D02*
D03*
X722000Y498000D02*
D03*
X953999Y226000D02*
D03*
X506000Y66000D02*
D03*
X842000Y130000D02*
D03*
X889999Y98000D02*
D03*
X969999Y162000D02*
D03*
X698000Y642000D02*
D03*
X714000Y770000D02*
D03*
X442000Y962000D02*
D03*
X570000Y770000D02*
D03*
X698000Y834000D02*
D03*
X530000Y370000D02*
D03*
X466000Y913999D02*
D03*
X722000D02*
D03*
X826000Y34000D02*
D03*
X418000Y370000D02*
D03*
X578000Y722000D02*
D03*
X610000Y946000D02*
D03*
X642000Y242000D02*
D03*
X418000Y786000D02*
D03*
X977999Y274000D02*
D03*
X450000Y50000D02*
D03*
X690000Y913999D02*
D03*
X953999Y642000D02*
D03*
X754000Y498000D02*
D03*
X969999Y130000D02*
D03*
X498000Y18000D02*
D03*
X522000Y674000D02*
D03*
X809999Y194000D02*
D03*
X514000Y946000D02*
D03*
X849999Y146000D02*
D03*
X474000Y770000D02*
D03*
X626000Y178000D02*
D03*
X690000Y18000D02*
D03*
X818000D02*
D03*
X674000Y882000D02*
D03*
X866000Y18000D02*
D03*
X922000Y162000D02*
D03*
X986000Y290000D02*
D03*
X434000Y18000D02*
D03*
X906000Y66000D02*
D03*
X538000Y34000D02*
D03*
X962000Y146000D02*
D03*
X666000Y770000D02*
D03*
X642000Y210000D02*
D03*
X913999Y977999D02*
D03*
X458000Y962000D02*
D03*
X977999Y242000D02*
D03*
X698000Y929999D02*
D03*
X857999Y34000D02*
D03*
X897999Y114000D02*
D03*
X834000Y146000D02*
D03*
X570000Y34000D02*
D03*
X754000Y977999D02*
D03*
Y913999D02*
D03*
X418000Y82000D02*
D03*
X450000Y849999D02*
D03*
X706000Y562000D02*
D03*
X466000Y498000D02*
D03*
X482000Y946000D02*
D03*
X962000Y849999D02*
D03*
X498000Y338000D02*
D03*
X897999Y913999D02*
D03*
X450000Y306000D02*
D03*
X610000Y178000D02*
D03*
X802000Y114000D02*
D03*
X937999Y98000D02*
D03*
X562000Y946000D02*
D03*
X650000Y34000D02*
D03*
X698000D02*
D03*
X514000Y306000D02*
D03*
X706000Y338000D02*
D03*
X986000Y130000D02*
D03*
X594000Y913999D02*
D03*
X602000Y514000D02*
D03*
X522000Y258000D02*
D03*
X442000Y866000D02*
D03*
X458000Y258000D02*
D03*
X594000Y882000D02*
D03*
X969999Y897999D02*
D03*
X442000Y98000D02*
D03*
X962000Y178000D02*
D03*
X490000Y226000D02*
D03*
X634000Y354000D02*
D03*
X450000Y370000D02*
D03*
X570000Y642000D02*
D03*
X498000Y242000D02*
D03*
X906000Y929999D02*
D03*
X986000Y834000D02*
D03*
X706000Y498000D02*
D03*
X466000Y946000D02*
D03*
X602000Y610000D02*
D03*
X730000Y642000D02*
D03*
X849999Y82000D02*
D03*
X626000Y882000D02*
D03*
X458000Y514000D02*
D03*
X442000Y642000D02*
D03*
X522000D02*
D03*
X490000Y98000D02*
D03*
X842000Y194000D02*
D03*
X714000Y866000D02*
D03*
X466000Y849999D02*
D03*
X690000D02*
D03*
X818000Y114000D02*
D03*
X450000Y818000D02*
D03*
X402000Y210000D02*
D03*
X809999Y130000D02*
D03*
X818000Y146000D02*
D03*
X418000Y849999D02*
D03*
X498000Y50000D02*
D03*
X442000Y258000D02*
D03*
X714000Y514000D02*
D03*
X849999Y882000D02*
D03*
X802000Y913999D02*
D03*
X434000Y849999D02*
D03*
X658000Y82000D02*
D03*
X722000Y658000D02*
D03*
X474000Y834000D02*
D03*
X849999Y434000D02*
D03*
X586000Y386000D02*
D03*
X514000Y913999D02*
D03*
X658000D02*
D03*
X730000Y929999D02*
D03*
X618000D02*
D03*
X802000Y82000D02*
D03*
X482000D02*
D03*
X849999Y498000D02*
D03*
X969999Y738000D02*
D03*
X450000Y18000D02*
D03*
X634000Y386000D02*
D03*
X706000Y50000D02*
D03*
X826000Y897999D02*
D03*
X578000Y242000D02*
D03*
X834000Y18000D02*
D03*
X962000Y370000D02*
D03*
X426000Y834000D02*
D03*
X897999Y946000D02*
D03*
X738000Y658000D02*
D03*
X578000Y50000D02*
D03*
X642000Y18000D02*
D03*
X674000Y690000D02*
D03*
X666000Y226000D02*
D03*
X562000Y370000D02*
D03*
X442000Y610000D02*
D03*
X714000Y546000D02*
D03*
X882000Y50000D02*
D03*
X458000Y386000D02*
D03*
X986000Y770000D02*
D03*
X530000Y977999D02*
D03*
X682000Y354000D02*
D03*
X530000Y210000D02*
D03*
X514000Y242000D02*
D03*
X554000Y34000D02*
D03*
X634000Y194000D02*
D03*
X506000Y770000D02*
D03*
X658000Y210000D02*
D03*
Y50000D02*
D03*
X738000Y466000D02*
D03*
X897999Y178000D02*
D03*
X402000Y498000D02*
D03*
X482000Y466000D02*
D03*
X442000Y354000D02*
D03*
X450000Y338000D02*
D03*
X722000Y626000D02*
D03*
X937999Y258000D02*
D03*
X538000Y162000D02*
D03*
X506000Y866000D02*
D03*
Y226000D02*
D03*
X962000Y210000D02*
D03*
X474000Y674000D02*
D03*
X394000Y482000D02*
D03*
X666000Y929999D02*
D03*
X913999Y210000D02*
D03*
X690000Y658000D02*
D03*
X610000Y977999D02*
D03*
X514000Y338000D02*
D03*
X426000Y642000D02*
D03*
X498000Y306000D02*
D03*
X418000Y178000D02*
D03*
X562000Y50000D02*
D03*
X946000Y274000D02*
D03*
X682000Y194000D02*
D03*
X474000Y866000D02*
D03*
X546000Y466000D02*
D03*
X977999Y722000D02*
D03*
X826000Y194000D02*
D03*
X953999Y834000D02*
D03*
X866000Y146000D02*
D03*
X706000Y18000D02*
D03*
X658000Y690000D02*
D03*
X682000Y162000D02*
D03*
X857999Y130000D02*
D03*
X873999Y962000D02*
D03*
X562000Y658000D02*
D03*
X722000Y977999D02*
D03*
X386000Y626000D02*
D03*
X482000Y658000D02*
D03*
Y594000D02*
D03*
X426000Y514000D02*
D03*
X490000Y929999D02*
D03*
X530000Y114000D02*
D03*
X714000Y929999D02*
D03*
X738000Y946000D02*
D03*
X818000Y210000D02*
D03*
X849999Y50000D02*
D03*
X634000Y929999D02*
D03*
X410000Y897999D02*
D03*
X618000Y194000D02*
D03*
X658000Y338000D02*
D03*
X977999Y849999D02*
D03*
X953999Y258000D02*
D03*
X818000Y913999D02*
D03*
X594000Y466000D02*
D03*
X570000Y386000D02*
D03*
X322000Y977999D02*
D03*
X330000Y962000D02*
D03*
X322000Y946000D02*
D03*
X330000Y929999D02*
D03*
Y897999D02*
D03*
X322000Y882000D02*
D03*
X330000Y866000D02*
D03*
Y834000D02*
D03*
Y802000D02*
D03*
Y770000D02*
D03*
Y738000D02*
D03*
Y706000D02*
D03*
Y674000D02*
D03*
Y642000D02*
D03*
Y610000D02*
D03*
Y578000D02*
D03*
Y546000D02*
D03*
Y514000D02*
D03*
Y482000D02*
D03*
Y450000D02*
D03*
Y418000D02*
D03*
Y386000D02*
D03*
Y354000D02*
D03*
Y322000D02*
D03*
Y290000D02*
D03*
Y258000D02*
D03*
X322000Y242000D02*
D03*
X330000Y226000D02*
D03*
X322000Y210000D02*
D03*
X330000Y194000D02*
D03*
X322000Y178000D02*
D03*
X330000Y162000D02*
D03*
X322000Y82000D02*
D03*
Y18000D02*
D03*
X306000Y977999D02*
D03*
X314000Y962000D02*
D03*
X306000Y946000D02*
D03*
X314000Y929999D02*
D03*
X306000Y754000D02*
D03*
Y626000D02*
D03*
Y498000D02*
D03*
Y338000D02*
D03*
X314000Y226000D02*
D03*
X306000Y210000D02*
D03*
X314000Y194000D02*
D03*
X306000Y178000D02*
D03*
Y82000D02*
D03*
Y18000D02*
D03*
X298000Y770000D02*
D03*
X290000Y754000D02*
D03*
Y626000D02*
D03*
X298000Y610000D02*
D03*
X290000Y498000D02*
D03*
X298000Y482000D02*
D03*
X290000Y338000D02*
D03*
X298000Y226000D02*
D03*
X290000Y210000D02*
D03*
X298000Y194000D02*
D03*
X290000Y146000D02*
D03*
X298000Y130000D02*
D03*
X290000Y114000D02*
D03*
X298000Y98000D02*
D03*
X290000Y82000D02*
D03*
Y18000D02*
D03*
X274000Y977999D02*
D03*
Y913999D02*
D03*
Y786000D02*
D03*
X282000Y770000D02*
D03*
X274000Y658000D02*
D03*
X282000Y642000D02*
D03*
Y514000D02*
D03*
X274000Y498000D02*
D03*
X282000Y450000D02*
D03*
X274000Y242000D02*
D03*
X282000Y226000D02*
D03*
X274000Y210000D02*
D03*
Y178000D02*
D03*
X282000Y162000D02*
D03*
X274000Y146000D02*
D03*
X282000Y130000D02*
D03*
X274000Y114000D02*
D03*
X282000Y98000D02*
D03*
X274000Y82000D02*
D03*
Y50000D02*
D03*
X282000Y34000D02*
D03*
X274000Y18000D02*
D03*
X258000Y977999D02*
D03*
Y913999D02*
D03*
X266000Y802000D02*
D03*
Y770000D02*
D03*
Y642000D02*
D03*
Y514000D02*
D03*
Y386000D02*
D03*
X258000Y338000D02*
D03*
Y242000D02*
D03*
X266000Y226000D02*
D03*
X258000Y178000D02*
D03*
X266000Y162000D02*
D03*
X258000Y146000D02*
D03*
X266000Y130000D02*
D03*
X258000Y114000D02*
D03*
X266000Y98000D02*
D03*
Y34000D02*
D03*
X258000Y18000D02*
D03*
X242000Y977999D02*
D03*
X250000Y897999D02*
D03*
X242000Y882000D02*
D03*
X250000Y450000D02*
D03*
Y386000D02*
D03*
Y290000D02*
D03*
X242000Y242000D02*
D03*
Y210000D02*
D03*
X250000Y194000D02*
D03*
Y162000D02*
D03*
Y98000D02*
D03*
X242000Y18000D02*
D03*
X234000Y929999D02*
D03*
X226000Y882000D02*
D03*
X234000Y866000D02*
D03*
X226000Y786000D02*
D03*
X234000Y98000D02*
D03*
X226000Y18000D02*
D03*
X218000Y866000D02*
D03*
X210000Y786000D02*
D03*
X218000Y770000D02*
D03*
Y642000D02*
D03*
Y322000D02*
D03*
X210000Y274000D02*
D03*
X218000Y226000D02*
D03*
X210000Y178000D02*
D03*
X218000Y162000D02*
D03*
X210000Y146000D02*
D03*
Y114000D02*
D03*
Y82000D02*
D03*
Y50000D02*
D03*
Y18000D02*
D03*
X202000Y290000D02*
D03*
X194000Y274000D02*
D03*
X202000Y226000D02*
D03*
Y194000D02*
D03*
X194000Y178000D02*
D03*
X202000Y162000D02*
D03*
X194000Y146000D02*
D03*
X202000Y130000D02*
D03*
X194000Y114000D02*
D03*
X202000Y98000D02*
D03*
X194000Y82000D02*
D03*
X202000Y66000D02*
D03*
Y34000D02*
D03*
X194000Y18000D02*
D03*
X178000Y882000D02*
D03*
Y818000D02*
D03*
Y626000D02*
D03*
Y594000D02*
D03*
Y562000D02*
D03*
Y306000D02*
D03*
X186000Y290000D02*
D03*
Y226000D02*
D03*
Y194000D02*
D03*
Y162000D02*
D03*
X178000Y146000D02*
D03*
X186000Y130000D02*
D03*
X178000Y114000D02*
D03*
X186000Y98000D02*
D03*
X178000Y82000D02*
D03*
Y18000D02*
D03*
X170000Y897999D02*
D03*
X162000Y882000D02*
D03*
X170000Y866000D02*
D03*
X162000Y818000D02*
D03*
Y786000D02*
D03*
X170000Y386000D02*
D03*
X162000Y370000D02*
D03*
Y338000D02*
D03*
X170000Y322000D02*
D03*
X162000Y306000D02*
D03*
X170000Y290000D02*
D03*
Y258000D02*
D03*
X162000Y146000D02*
D03*
X170000Y130000D02*
D03*
X162000Y114000D02*
D03*
X170000Y98000D02*
D03*
Y66000D02*
D03*
X162000Y50000D02*
D03*
X170000Y34000D02*
D03*
X154000Y897999D02*
D03*
X146000Y882000D02*
D03*
X154000Y866000D02*
D03*
X146000Y818000D02*
D03*
Y786000D02*
D03*
X154000Y770000D02*
D03*
X146000Y402000D02*
D03*
X154000Y386000D02*
D03*
X146000Y370000D02*
D03*
Y338000D02*
D03*
X154000Y322000D02*
D03*
X146000Y274000D02*
D03*
X154000Y258000D02*
D03*
Y226000D02*
D03*
Y194000D02*
D03*
X146000Y178000D02*
D03*
X154000Y162000D02*
D03*
X146000Y146000D02*
D03*
X154000Y130000D02*
D03*
Y98000D02*
D03*
Y66000D02*
D03*
X146000Y50000D02*
D03*
X130000Y498000D02*
D03*
Y434000D02*
D03*
Y402000D02*
D03*
X138000Y386000D02*
D03*
X130000Y370000D02*
D03*
Y338000D02*
D03*
X138000Y322000D02*
D03*
Y290000D02*
D03*
X130000Y274000D02*
D03*
Y242000D02*
D03*
Y210000D02*
D03*
X138000Y162000D02*
D03*
X130000Y146000D02*
D03*
X138000Y66000D02*
D03*
X130000Y50000D02*
D03*
X114000Y977999D02*
D03*
X122000Y962000D02*
D03*
X114000Y946000D02*
D03*
X122000Y929999D02*
D03*
X114000Y913999D02*
D03*
X122000Y897999D02*
D03*
X114000Y882000D02*
D03*
X122000Y866000D02*
D03*
X114000Y818000D02*
D03*
X122000Y514000D02*
D03*
X114000Y498000D02*
D03*
X122000Y482000D02*
D03*
Y450000D02*
D03*
X114000Y434000D02*
D03*
X122000Y418000D02*
D03*
X114000Y402000D02*
D03*
X122000Y386000D02*
D03*
X114000Y370000D02*
D03*
Y338000D02*
D03*
X122000Y322000D02*
D03*
Y290000D02*
D03*
X114000Y274000D02*
D03*
Y210000D02*
D03*
X122000Y194000D02*
D03*
Y162000D02*
D03*
X114000Y146000D02*
D03*
X122000Y130000D02*
D03*
X114000Y114000D02*
D03*
X122000Y98000D02*
D03*
Y66000D02*
D03*
X114000Y50000D02*
D03*
Y18000D02*
D03*
X98000Y977999D02*
D03*
X106000Y962000D02*
D03*
X98000Y946000D02*
D03*
X106000Y929999D02*
D03*
X98000Y913999D02*
D03*
X106000Y897999D02*
D03*
X98000Y882000D02*
D03*
X106000Y866000D02*
D03*
Y514000D02*
D03*
X98000Y498000D02*
D03*
X106000Y482000D02*
D03*
Y450000D02*
D03*
Y418000D02*
D03*
X98000Y402000D02*
D03*
X106000Y386000D02*
D03*
Y322000D02*
D03*
Y290000D02*
D03*
X98000Y274000D02*
D03*
X106000Y258000D02*
D03*
X98000Y210000D02*
D03*
X106000Y194000D02*
D03*
X98000Y146000D02*
D03*
X106000Y130000D02*
D03*
X98000Y114000D02*
D03*
X106000Y98000D02*
D03*
X98000Y82000D02*
D03*
X106000Y66000D02*
D03*
X98000Y50000D02*
D03*
X106000Y34000D02*
D03*
X98000Y18000D02*
D03*
X90000Y929999D02*
D03*
X82000Y913999D02*
D03*
X90000Y897999D02*
D03*
X82000Y882000D02*
D03*
X90000Y866000D02*
D03*
X82000Y562000D02*
D03*
X90000Y514000D02*
D03*
X82000Y498000D02*
D03*
X90000Y482000D02*
D03*
X82000Y402000D02*
D03*
Y306000D02*
D03*
Y242000D02*
D03*
Y146000D02*
D03*
X90000Y98000D02*
D03*
X82000Y82000D02*
D03*
Y18000D02*
D03*
X74000Y897999D02*
D03*
X66000Y882000D02*
D03*
X74000Y866000D02*
D03*
X66000Y754000D02*
D03*
X74000Y738000D02*
D03*
X66000Y722000D02*
D03*
X74000Y546000D02*
D03*
X66000Y530000D02*
D03*
Y498000D02*
D03*
X74000Y482000D02*
D03*
X66000Y402000D02*
D03*
Y242000D02*
D03*
X74000Y130000D02*
D03*
Y98000D02*
D03*
X58000Y897999D02*
D03*
Y738000D02*
D03*
Y482000D02*
D03*
X50000Y402000D02*
D03*
Y370000D02*
D03*
Y306000D02*
D03*
Y274000D02*
D03*
Y242000D02*
D03*
X58000Y130000D02*
D03*
Y98000D02*
D03*
X42000Y897999D02*
D03*
X34000Y882000D02*
D03*
Y658000D02*
D03*
Y530000D02*
D03*
Y402000D02*
D03*
X42000Y322000D02*
D03*
X34000Y306000D02*
D03*
Y242000D02*
D03*
X18000Y913999D02*
D03*
X26000Y897999D02*
D03*
X18000Y882000D02*
D03*
X26000Y866000D02*
D03*
X18000Y722000D02*
D03*
X26000Y706000D02*
D03*
X18000Y690000D02*
D03*
X26000Y674000D02*
D03*
X18000Y658000D02*
D03*
X26000Y642000D02*
D03*
Y610000D02*
D03*
Y578000D02*
D03*
Y546000D02*
D03*
Y514000D02*
D03*
Y482000D02*
D03*
Y450000D02*
D03*
Y354000D02*
D03*
Y322000D02*
D03*
Y290000D02*
D03*
X18000Y242000D02*
D03*
X26000Y98000D02*
D03*
X18000Y82000D02*
D03*
Y18000D02*
D03*
X757000Y695000D02*
D03*
X852000Y523000D02*
D03*
X841000Y538000D02*
D03*
X834000Y546000D02*
D03*
X827000Y553000D02*
D03*
X819000Y561000D02*
D03*
X811000Y569000D02*
D03*
X920230Y473000D02*
D03*
X869635Y524600D02*
D03*
X913000Y411000D02*
D03*
X921000Y385000D02*
D03*
X928000Y361000D02*
D03*
X935000Y339000D02*
D03*
X869635Y435700D02*
D03*
X869635Y627700D02*
D03*
X928000Y458000D02*
D03*
X899364Y511000D02*
D03*
X941770Y434000D02*
D03*
X935000Y446000D02*
D03*
X913230Y485000D02*
D03*
X906000Y498000D02*
D03*
X906000Y690000D02*
D03*
X920000Y665000D02*
D03*
X913230Y677000D02*
D03*
X927000Y650000D02*
D03*
X935000Y638000D02*
D03*
X941770Y626000D02*
D03*
X899364Y703000D02*
D03*
X942000Y820000D02*
D03*
X934000Y832000D02*
D03*
X927000Y845000D02*
D03*
X920000Y859000D02*
D03*
X914000Y871000D02*
D03*
X907000Y884000D02*
D03*
X900000Y897000D02*
D03*
X869000Y745000D02*
D03*
X869635Y511900D02*
D03*
Y499200D02*
D03*
Y486500D02*
D03*
Y473800D02*
D03*
Y461100D02*
D03*
Y448400D02*
D03*
X869635Y703900D02*
D03*
Y691200D02*
D03*
Y678500D02*
D03*
Y665800D02*
D03*
Y653100D02*
D03*
Y640400D02*
D03*
X868635Y819800D02*
D03*
Y832500D02*
D03*
X798000Y884000D02*
D03*
X805000Y871000D02*
D03*
X812000Y857000D02*
D03*
X868635Y845200D02*
D03*
Y857900D02*
D03*
Y870600D02*
D03*
Y883300D02*
D03*
Y896000D02*
D03*
X51000Y341000D02*
D03*
X72000Y341000D02*
D03*
X635086Y832000D02*
D03*
X684000D02*
D03*
X871000Y368000D02*
D03*
X514000Y726000D02*
D03*
X733000Y745000D02*
D03*
X677000Y680000D02*
D03*
X868635Y934100D02*
D03*
X510350Y820650D02*
D03*
X459000Y724000D02*
D03*
X596258Y846050D02*
D03*
X539743Y807950D02*
D03*
X539000Y663000D02*
D03*
X841000Y806000D02*
D03*
X775000D02*
D03*
Y821000D02*
D03*
X538787Y751050D02*
D03*
Y725650D02*
D03*
X775000Y614000D02*
D03*
X841000D02*
D03*
X395000Y825200D02*
D03*
Y812500D02*
D03*
Y837900D02*
D03*
Y850600D02*
D03*
Y863300D02*
D03*
X396000Y686100D02*
D03*
Y698800D02*
D03*
Y711500D02*
D03*
Y724200D02*
D03*
X868635Y769000D02*
D03*
Y781700D02*
D03*
Y794400D02*
D03*
Y807100D02*
D03*
X869635Y615000D02*
D03*
Y602300D02*
D03*
Y589600D02*
D03*
Y576900D02*
D03*
X396500Y546650D02*
D03*
Y559350D02*
D03*
Y572050D02*
D03*
Y584750D02*
D03*
X869635Y384900D02*
D03*
Y397600D02*
D03*
Y410300D02*
D03*
Y423000D02*
D03*
X396000Y409400D02*
D03*
Y422100D02*
D03*
Y434800D02*
D03*
Y447500D02*
D03*
X774364Y934100D02*
D03*
X774865Y355550D02*
D03*
X775365Y742000D02*
D03*
X774000Y857000D02*
D03*
Y845000D02*
D03*
X775000Y833000D02*
D03*
Y552000D02*
D03*
Y871000D02*
D03*
X774000Y883000D02*
D03*
X787258Y124050D02*
D03*
X852000Y343000D02*
D03*
X774000Y499000D02*
D03*
X775000Y487000D02*
D03*
X774000Y473000D02*
D03*
Y461000D02*
D03*
X775000Y437000D02*
D03*
Y422000D02*
D03*
X819000Y461000D02*
D03*
X812000Y473000D02*
D03*
X805000Y487000D02*
D03*
X798000Y500000D02*
D03*
X775000Y449000D02*
D03*
X826000Y448000D02*
D03*
X834000Y436000D02*
D03*
X841000Y422000D02*
D03*
X827000Y640000D02*
D03*
X833770Y628000D02*
D03*
X774000Y691000D02*
D03*
X775000Y679000D02*
D03*
X774000Y665000D02*
D03*
Y653000D02*
D03*
X775000Y629000D02*
D03*
X819000Y653000D02*
D03*
X812000Y665000D02*
D03*
X805000Y679000D02*
D03*
X798000Y692000D02*
D03*
X775000Y641000D02*
D03*
X834000Y820000D02*
D03*
X826000Y832000D02*
D03*
X819000Y845000D02*
D03*
X853000Y731000D02*
D03*
Y921000D02*
D03*
X852000Y103000D02*
D03*
X748000Y86000D02*
D03*
X533000Y134500D02*
D03*
X627743Y87950D02*
D03*
X548000Y315000D02*
D03*
X547000Y239100D02*
D03*
X569000Y205100D02*
D03*
X630000Y270100D02*
D03*
X650750Y269350D02*
D03*
X439250Y189000D02*
D03*
X774865Y190450D02*
D03*
X869136D02*
D03*
Y203150D02*
D03*
Y215850D02*
D03*
X869000Y229000D02*
D03*
X692000Y153000D02*
D03*
X535000Y15500D02*
D03*
X593750Y59250D02*
D03*
X583000Y96000D02*
D03*
X583000Y117000D02*
D03*
X603000Y119000D02*
D03*
X709000Y93000D02*
D03*
X751000Y152000D02*
D03*
X710000D02*
D03*
X126000Y571000D02*
D03*
X100000Y533000D02*
D03*
X299500Y533950D02*
D03*
X298000Y837900D02*
D03*
X27000Y848000D02*
D03*
X59000Y713000D02*
D03*
X299000Y711500D02*
D03*
X169000Y470000D02*
D03*
X299000Y434800D02*
D03*
X90000Y724000D02*
D03*
X299000Y724200D02*
D03*
X83000Y675000D02*
D03*
X299000Y673400D02*
D03*
X146000Y423000D02*
D03*
X299000Y396700D02*
D03*
X117000Y561000D02*
D03*
X299500Y559350D02*
D03*
X254000Y464000D02*
D03*
X67000Y697000D02*
D03*
X299000Y698800D02*
D03*
X298000Y826000D02*
D03*
X19000Y820000D02*
D03*
X160000Y452000D02*
D03*
X299000Y422100D02*
D03*
X250000Y617000D02*
D03*
X11000Y431000D02*
D03*
X299000Y447500D02*
D03*
X108000Y552000D02*
D03*
X299500Y546650D02*
D03*
X299000Y813000D02*
D03*
X10000Y798000D02*
D03*
X75000Y684000D02*
D03*
X299000Y686100D02*
D03*
X84000Y277250D02*
D03*
X119000Y226000D02*
D03*
X165000Y974000D02*
D03*
X133770Y542000D02*
D03*
X151000Y441000D02*
D03*
X299000Y409400D02*
D03*
X241000Y478000D02*
D03*
X299500Y572050D02*
D03*
X199650Y922300D02*
D03*
X212350D02*
D03*
X287500Y944650D02*
D03*
Y957350D02*
D03*
X164000Y919000D02*
D03*
X145000Y974000D02*
D03*
X36000Y108000D02*
D03*
Y142000D02*
D03*
X169000Y207000D02*
D03*
X119000Y178000D02*
D03*
D84*
X811000Y569000D02*
X934700D01*
X980000Y614300D01*
X952100Y561000D02*
X980000Y588900D01*
X819000Y561000D02*
X952100D01*
X977500Y563500D02*
X980000D01*
X967270Y553270D02*
X977500Y563500D01*
X827000Y553000D02*
X827270Y553270D01*
X967270D01*
X979957Y538100D02*
X980000D01*
X972057Y546000D02*
X979957Y538100D01*
X834000Y546000D02*
X972057D01*
X841000Y538000D02*
X954700D01*
X980000Y512700D01*
M02*
