%TF.GenerationSoftware,Altium Limited,Altium Designer,25.8.1 (18)*%
G04 Layer_Color=0*
%FSLAX45Y45*%
%MOMM*%
%TF.SameCoordinates,A2F0C2A1-DF56-410A-A7AA-CA8700650C71*%
%TF.FilePolarity,Positive*%
%TF.FileFunction,Plated,1,4,PTH,Drill*%
%TF.Part,Single*%
G01*
G75*
%TA.AperFunction,ComponentDrill*%
%ADD94O,3.20000X0.70000*%
%ADD95O,0.70000X2.80000*%
%ADD96O,2.80000X0.70000*%
%ADD97C,1.10000*%
%ADD98C,0.80000*%
%ADD99C,0.71000*%
%ADD100C,1.02000*%
%ADD101C,1.15000*%
%ADD102C,0.81280*%
%ADD103C,0.81280*%
%ADD104C,0.86360*%
%TA.AperFunction,ViaDrill,NotFilled*%
%ADD105C,0.40000*%
D94*
X1400000Y825000D02*
D03*
D95*
X1880000Y530000D02*
D03*
D96*
X1400000Y245000D02*
D03*
D97*
X6390000Y7193000D02*
D03*
Y7447000D02*
D03*
D98*
X5120000Y290000D02*
D03*
Y490000D02*
D03*
X5110000Y1040000D02*
D03*
Y1240000D02*
D03*
X2190000Y2070000D02*
D03*
Y1870000D02*
D03*
D99*
X1410000Y1250000D02*
D03*
X900000D02*
D03*
D100*
X9800000Y5889000D02*
D03*
Y5381000D02*
D03*
Y4619000D02*
D03*
Y3603000D02*
D03*
Y3095000D02*
D03*
Y3349000D02*
D03*
Y3857000D02*
D03*
Y4111000D02*
D03*
Y4365000D02*
D03*
Y4873000D02*
D03*
Y5127000D02*
D03*
Y5635000D02*
D03*
Y6143000D02*
D03*
Y6397000D02*
D03*
Y6651000D02*
D03*
Y6905000D02*
D03*
X1981000Y8448000D02*
D03*
X450000Y4141000D02*
D03*
X1981000Y4384000D02*
D03*
Y3876000D02*
D03*
Y4892000D02*
D03*
Y5908000D02*
D03*
Y6670000D02*
D03*
Y5654000D02*
D03*
X450000Y6935000D02*
D03*
Y6681000D02*
D03*
Y5157000D02*
D03*
Y8713000D02*
D03*
Y4649000D02*
D03*
X1981000Y7686000D02*
D03*
Y5400000D02*
D03*
X450000Y4395000D02*
D03*
X1981000Y8702000D02*
D03*
X450000Y5665000D02*
D03*
Y7189000D02*
D03*
Y8205000D02*
D03*
Y6427000D02*
D03*
X1981000Y6162000D02*
D03*
Y7432000D02*
D03*
Y6924000D02*
D03*
X450000Y7443000D02*
D03*
Y5919000D02*
D03*
X1981000Y4638000D02*
D03*
Y6416000D02*
D03*
Y5146000D02*
D03*
X450000Y8459000D02*
D03*
X1981000Y7940000D02*
D03*
X450000Y3887000D02*
D03*
X1981000Y8194000D02*
D03*
X450000Y5411000D02*
D03*
Y4903000D02*
D03*
X1981000Y7178000D02*
D03*
X450000Y6173000D02*
D03*
Y7697000D02*
D03*
Y7951000D02*
D03*
X1981000Y4130000D02*
D03*
D101*
X4270000Y600000D02*
D03*
X4016000D02*
D03*
X3762000D02*
D03*
X3000000D02*
D03*
X3254000D02*
D03*
D102*
X7798000Y440000D02*
D03*
X7544000D02*
D03*
X7290000D02*
D03*
D103*
X6870000Y7694000D02*
D03*
Y7440000D02*
D03*
Y7186000D02*
D03*
D104*
X3658000Y1500000D02*
D03*
X3912000D02*
D03*
X3404000D02*
D03*
X3150000D02*
D03*
D105*
X5619997Y7219996D02*
D03*
X8499995Y6259996D02*
D03*
X4819997Y4979997D02*
D03*
X4179997Y2099998D02*
D03*
X9299995Y2419998D02*
D03*
X4899997Y4819997D02*
D03*
X5299997Y4979997D02*
D03*
X5219997Y1619998D02*
D03*
X6579996Y2419998D02*
D03*
X7059996Y9779995D02*
D03*
X5779997Y3699997D02*
D03*
X8099995Y8979995D02*
D03*
X4739997Y659999D02*
D03*
X9459995Y8499995D02*
D03*
X8099995Y2259998D02*
D03*
X8819995Y819999D02*
D03*
Y9459995D02*
D03*
X5299997Y1779998D02*
D03*
X6099996Y2099998D02*
D03*
X5219997Y9619995D02*
D03*
Y9299995D02*
D03*
X8979995Y179999D02*
D03*
X4419997Y3859997D02*
D03*
X4499997Y6259996D02*
D03*
X8259995Y9299995D02*
D03*
X5379997Y9619995D02*
D03*
X4739997Y6099996D02*
D03*
X7219996Y6899996D02*
D03*
X7459996Y4499997D02*
D03*
X8979995Y2419998D02*
D03*
X6019996Y2259998D02*
D03*
X8419995Y8339996D02*
D03*
X4899997Y6739996D02*
D03*
X5139997Y8819995D02*
D03*
X9859995Y2259998D02*
D03*
X9779995Y1779998D02*
D03*
X8259995Y1619998D02*
D03*
X3699997Y9779995D02*
D03*
X4659997Y1459998D02*
D03*
X6419996Y1779998D02*
D03*
X4419997Y8339996D02*
D03*
X8499995Y2739998D02*
D03*
X7059996Y6259996D02*
D03*
X5059997Y9299995D02*
D03*
X6259996Y2099998D02*
D03*
X9779995Y1459998D02*
D03*
X9379995Y1939998D02*
D03*
X6739996Y5619997D02*
D03*
X4979997Y9779995D02*
D03*
X5299997Y4659997D02*
D03*
X5059997Y5139997D02*
D03*
X9539995Y6099996D02*
D03*
X7379996Y9139995D02*
D03*
X8659995Y9459995D02*
D03*
X7539996Y8179996D02*
D03*
X6339996Y7699996D02*
D03*
X9139995Y9139995D02*
D03*
X9699995Y2259998D02*
D03*
X9619995Y7219996D02*
D03*
X9779995Y1139998D02*
D03*
X9859995Y7059996D02*
D03*
X4579997Y6419996D02*
D03*
X8499995Y179999D02*
D03*
X6579996Y8819995D02*
D03*
X4579997Y659999D02*
D03*
X7219996Y179999D02*
D03*
X9619995Y4659997D02*
D03*
X6259996Y5939997D02*
D03*
X9539995Y8659995D02*
D03*
X3859997Y179999D02*
D03*
X7939996Y9299995D02*
D03*
X8339996Y9779995D02*
D03*
X6739996Y5299997D02*
D03*
X6579996Y9459995D02*
D03*
X8899995Y659999D02*
D03*
X8579995Y1619998D02*
D03*
X8019996Y179999D02*
D03*
X7379996Y7539996D02*
D03*
X5619997D02*
D03*
X9699995Y8019996D02*
D03*
X4659997Y1779998D02*
D03*
X9859995Y1939998D02*
D03*
X5619997Y5939997D02*
D03*
X9539995Y8979995D02*
D03*
X4579997Y1619998D02*
D03*
X4739997D02*
D03*
X9059995Y2259998D02*
D03*
X4739997Y979999D02*
D03*
X4499997Y5939997D02*
D03*
X6899996Y6899996D02*
D03*
X6419996Y9139995D02*
D03*
X6019996Y3859997D02*
D03*
Y6419996D02*
D03*
X9699995Y8659995D02*
D03*
X4739997Y2579998D02*
D03*
X8819995Y179999D02*
D03*
X4259997Y2579998D02*
D03*
X8419995Y8659995D02*
D03*
X5859996Y9299995D02*
D03*
X7459996Y8659995D02*
D03*
X9459995Y1779998D02*
D03*
X4659997Y499999D02*
D03*
X5219997Y1939998D02*
D03*
X4659997Y819999D02*
D03*
X7859996Y179999D02*
D03*
X6259996Y9459995D02*
D03*
X9859995Y8659995D02*
D03*
X6259996Y499999D02*
D03*
X4819997Y7539996D02*
D03*
X6099996Y4979997D02*
D03*
X6899996Y3059998D02*
D03*
X7379996Y8499995D02*
D03*
X8099995Y339999D02*
D03*
X4339997Y6579996D02*
D03*
X4819997Y8179996D02*
D03*
X6659996Y7059996D02*
D03*
X6099996Y2419998D02*
D03*
X3699997Y9459995D02*
D03*
X4579997Y2259998D02*
D03*
X6339996Y2579998D02*
D03*
X5459997Y4979997D02*
D03*
X5059997Y2579998D02*
D03*
X3779997Y9619995D02*
D03*
X6259996Y8179996D02*
D03*
X7219996Y7219996D02*
D03*
X6979996Y1619998D02*
D03*
X4339997Y1779998D02*
D03*
X5379997Y4819997D02*
D03*
X4659997Y4659997D02*
D03*
X8019996Y499999D02*
D03*
X9379995Y8979995D02*
D03*
X4339997Y2419998D02*
D03*
X7459996Y6739996D02*
D03*
X6339996Y4819997D02*
D03*
X6259996Y2419998D02*
D03*
X6739996Y1779998D02*
D03*
X8579995Y659999D02*
D03*
X9539995Y7699996D02*
D03*
X5459997Y3699997D02*
D03*
X4579997Y9299995D02*
D03*
X4499997Y819999D02*
D03*
X4979997D02*
D03*
X6899996Y9459995D02*
D03*
X4659997Y9779995D02*
D03*
X4739997Y4819997D02*
D03*
X6499996Y3539997D02*
D03*
X8739995Y659999D02*
D03*
X9539995Y4499997D02*
D03*
X5059997Y6419996D02*
D03*
X8979995Y1459998D02*
D03*
X9779995Y8819995D02*
D03*
X5299997Y3379998D02*
D03*
X7459996Y8339996D02*
D03*
X4179997Y3059998D02*
D03*
X4419997Y2259998D02*
D03*
X4659997Y3379998D02*
D03*
X5619997Y9779995D02*
D03*
X7859996D02*
D03*
X7539996Y6579996D02*
D03*
X9379995Y2259998D02*
D03*
X5779997Y6259996D02*
D03*
X6659996Y3539997D02*
D03*
X3859997Y819999D02*
D03*
X6179996Y3539997D02*
D03*
X5619997Y4979997D02*
D03*
X5219997Y2259998D02*
D03*
X6339996Y6099996D02*
D03*
X4819997Y1459998D02*
D03*
X9139995Y1779998D02*
D03*
X8659995Y9779995D02*
D03*
X6899996Y499999D02*
D03*
X5539997Y3859997D02*
D03*
X9779995Y8179996D02*
D03*
X6499996Y2259998D02*
D03*
X4979997Y1459998D02*
D03*
X6499996Y7699996D02*
D03*
X7859996Y9459995D02*
D03*
X5939997Y5939997D02*
D03*
X9619995Y4019997D02*
D03*
X4339997Y9459995D02*
D03*
X6899996Y5299997D02*
D03*
X9059995Y979999D02*
D03*
X9459995Y2419998D02*
D03*
X6339996Y339999D02*
D03*
X7939996D02*
D03*
X6499996Y8659995D02*
D03*
X5619997Y3379998D02*
D03*
X9219995Y1939998D02*
D03*
X4019997Y6259996D02*
D03*
X4579997Y4819997D02*
D03*
X4659997Y8179996D02*
D03*
X6099996Y179999D02*
D03*
X6899996Y8819995D02*
D03*
X7459996Y5139997D02*
D03*
X6899996Y3379998D02*
D03*
X9059995Y1619998D02*
D03*
X5539997Y2579998D02*
D03*
X9219995Y979999D02*
D03*
X8419995Y9619995D02*
D03*
X4899997Y659999D02*
D03*
X7299996Y7059996D02*
D03*
X4499997Y2419998D02*
D03*
X9139995Y1139998D02*
D03*
X9859995Y8979995D02*
D03*
X4099997Y7699996D02*
D03*
X7379996Y179999D02*
D03*
X6419996Y499999D02*
D03*
X5059997Y8339996D02*
D03*
X6419996Y5939997D02*
D03*
X4099997Y3539997D02*
D03*
X4979997Y7539996D02*
D03*
X8899995Y9619995D02*
D03*
X6819996Y5459997D02*
D03*
X6979996Y7059996D02*
D03*
X7379996Y4979997D02*
D03*
X5219997Y4819997D02*
D03*
X4819997Y9139995D02*
D03*
X4499997Y1779998D02*
D03*
X4339997Y819999D02*
D03*
X4659997Y179999D02*
D03*
X4979997Y9139995D02*
D03*
X6979996Y5459997D02*
D03*
X9299995Y1779998D02*
D03*
X8019996Y9459995D02*
D03*
X6259996Y3699997D02*
D03*
X5939997Y6579996D02*
D03*
X5539997Y7699996D02*
D03*
X5699996Y4819997D02*
D03*
X4419997Y9299995D02*
D03*
X5699996Y659999D02*
D03*
X6979996Y8659995D02*
D03*
X5859996Y1939998D02*
D03*
X8179996Y1779998D02*
D03*
X5779997Y8179996D02*
D03*
X8419995Y8979995D02*
D03*
X9219995Y2259998D02*
D03*
X3939997D02*
D03*
X6579996Y3699997D02*
D03*
X5699996Y6739996D02*
D03*
X8339996Y499999D02*
D03*
X9539995Y7379996D02*
D03*
X6739996Y9779995D02*
D03*
X4739997Y9619995D02*
D03*
X5139997Y6259996D02*
D03*
X3859997Y4979997D02*
D03*
X4099997Y4819997D02*
D03*
X5779997Y9139995D02*
D03*
X8019996Y1459998D02*
D03*
X4099997Y1299998D02*
D03*
X4499997Y4979997D02*
D03*
X5619997Y6259996D02*
D03*
X4419997Y659999D02*
D03*
X5779997Y7539996D02*
D03*
X5619997Y4659997D02*
D03*
X7139996Y339999D02*
D03*
X3779997Y1939998D02*
D03*
X3939997Y6099996D02*
D03*
X4179997Y179999D02*
D03*
X4259997Y1299998D02*
D03*
X6419996Y9459995D02*
D03*
X5059997Y1619998D02*
D03*
X6339996Y2259998D02*
D03*
X6739996Y9139995D02*
D03*
X5059997Y9619995D02*
D03*
X5779997Y1779998D02*
D03*
X7059996Y9459995D02*
D03*
X7219996Y1779998D02*
D03*
X9699995Y3219998D02*
D03*
Y1939998D02*
D03*
X4179997Y2419998D02*
D03*
X5539997Y6419996D02*
D03*
X5459997Y3379998D02*
D03*
X7699996Y1779998D02*
D03*
X6819996Y9299995D02*
D03*
X6659996Y339999D02*
D03*
X9299995Y8819995D02*
D03*
X3859997Y1779998D02*
D03*
X7539996Y8819995D02*
D03*
X4259997Y3859997D02*
D03*
X9139995Y819999D02*
D03*
X8179996D02*
D03*
X9459995Y8819995D02*
D03*
X9859995Y979999D02*
D03*
X4659997Y5939997D02*
D03*
X8339996Y8819995D02*
D03*
X4179997Y1459998D02*
D03*
X4019997Y1779998D02*
D03*
X9219995Y2579998D02*
D03*
X8179996Y9779995D02*
D03*
X7539996Y1779998D02*
D03*
X4979997Y8819995D02*
D03*
X4739997Y9299995D02*
D03*
X6819996Y7059996D02*
D03*
X4099997Y6099996D02*
D03*
X7379996Y8819995D02*
D03*
X9459995Y1139998D02*
D03*
X5779997Y4659997D02*
D03*
X6499996Y3859997D02*
D03*
X9059995Y9619995D02*
D03*
X9539995Y1299998D02*
D03*
X4819997Y3379998D02*
D03*
X8499995Y4659997D02*
D03*
X5059997Y6739996D02*
D03*
X9459995Y2099998D02*
D03*
X9699995Y7699996D02*
D03*
X6659996Y4499997D02*
D03*
X4739997Y5139997D02*
D03*
X5939997Y1779998D02*
D03*
X6899996Y9779995D02*
D03*
X9619995Y7539996D02*
D03*
X6019996Y1939998D02*
D03*
X8659995Y1779998D02*
D03*
X9219995Y1299998D02*
D03*
X4499997Y1139998D02*
D03*
X4899997Y1619998D02*
D03*
X4979997Y9459995D02*
D03*
X6499996Y1939998D02*
D03*
X9859995Y8019996D02*
D03*
X8179996Y499999D02*
D03*
X9699995Y2579998D02*
D03*
X5299997Y3059998D02*
D03*
X9619995Y6259996D02*
D03*
X7059996Y7219996D02*
D03*
X9619995Y2419998D02*
D03*
X9379995Y2899998D02*
D03*
X4179997Y6579996D02*
D03*
X6179996Y3859997D02*
D03*
X7299996Y4819997D02*
D03*
X7539996Y4659997D02*
D03*
X4979997D02*
D03*
X7059996Y8179996D02*
D03*
X9779995Y2099998D02*
D03*
X7139996Y6419996D02*
D03*
X6259996Y3379998D02*
D03*
X6419996Y3699997D02*
D03*
X6579996Y5939997D02*
D03*
X8339996Y9139995D02*
D03*
X7299996Y5139997D02*
D03*
X5379997Y2579998D02*
D03*
X4179997Y7219996D02*
D03*
X4739997Y3859997D02*
D03*
X7059996Y6579996D02*
D03*
X4179997Y9779995D02*
D03*
X4499997Y4659997D02*
D03*
X6259996Y6259996D02*
D03*
X6499996Y5459997D02*
D03*
X4659997Y2419998D02*
D03*
X8659995Y499999D02*
D03*
X5139997Y819999D02*
D03*
X5219997Y8659995D02*
D03*
X7059996Y8499995D02*
D03*
X5859996Y4819997D02*
D03*
X9059995Y2579998D02*
D03*
X4819997Y499999D02*
D03*
X8339996Y1779998D02*
D03*
X6179996Y3219998D02*
D03*
X4499997Y9459995D02*
D03*
X5539997Y4819997D02*
D03*
X6419996Y4659997D02*
D03*
X3859997Y7539996D02*
D03*
X5619997Y9139995D02*
D03*
X7219996Y5619997D02*
D03*
X8419995Y659999D02*
D03*
X4979997Y5939997D02*
D03*
X4819997Y3699997D02*
D03*
X4019997Y179999D02*
D03*
X6579996D02*
D03*
X5939997Y3699997D02*
D03*
X6579996Y9779995D02*
D03*
X6259996D02*
D03*
X7379996Y5619997D02*
D03*
X4819997Y2419998D02*
D03*
X7459996Y4819997D02*
D03*
X5139997Y6579996D02*
D03*
X6979996Y5139997D02*
D03*
X4819997Y9779995D02*
D03*
X6819996Y339999D02*
D03*
X4579997Y979999D02*
D03*
X8739995Y339999D02*
D03*
X5939997Y2099998D02*
D03*
X8259995Y1299998D02*
D03*
X3699997Y819999D02*
D03*
X6099996Y5939997D02*
D03*
X8499995Y1779998D02*
D03*
X4579997Y6099996D02*
D03*
X9139995Y2419998D02*
D03*
X5939997Y9779995D02*
D03*
X3699997Y179999D02*
D03*
X7379996Y5299997D02*
D03*
X8979995Y2099998D02*
D03*
X6019996Y3539997D02*
D03*
X5219997Y3859997D02*
D03*
X6419996Y9779995D02*
D03*
X4499997D02*
D03*
X6339996Y3219998D02*
D03*
X5299997Y9459995D02*
D03*
X7059996Y6899996D02*
D03*
X4259997Y9619995D02*
D03*
X5139997Y4659997D02*
D03*
X8019996Y1779998D02*
D03*
X8259995Y979999D02*
D03*
X9059995Y1299998D02*
D03*
X6659996Y8659995D02*
D03*
X5219997Y5139997D02*
D03*
X5779997Y6579996D02*
D03*
X9139995Y179999D02*
D03*
X6739996Y3699997D02*
D03*
X7299996Y8339996D02*
D03*
X8819995Y1139998D02*
D03*
X9619995D02*
D03*
X4899997Y8339996D02*
D03*
X8659995Y819999D02*
D03*
X9699995Y8339996D02*
D03*
X7699996Y9779995D02*
D03*
X5539997Y6099996D02*
D03*
X6499996Y9299995D02*
D03*
X4819997Y2099998D02*
D03*
X6659996Y1939998D02*
D03*
X6819996Y8659995D02*
D03*
X9299995Y2739998D02*
D03*
X9059995Y1939998D02*
D03*
X9859995Y1619998D02*
D03*
X7539996Y6259996D02*
D03*
X6899996Y1779998D02*
D03*
X6419996Y3379998D02*
D03*
Y8819995D02*
D03*
X6579996Y5619997D02*
D03*
X6979996Y4179997D02*
D03*
X5859996Y7699996D02*
D03*
X4899997Y2579998D02*
D03*
X7219996Y9459995D02*
D03*
X9219995Y8979995D02*
D03*
X9379995Y1619998D02*
D03*
X7139996Y7379996D02*
D03*
X4499997Y8819995D02*
D03*
X8339996Y1139998D02*
D03*
X5379997Y5139997D02*
D03*
X4339997Y4979997D02*
D03*
X6179996Y6099996D02*
D03*
X6579996Y1779998D02*
D03*
X6659996Y5459997D02*
D03*
X9619995Y2739998D02*
D03*
X9539995Y3219998D02*
D03*
X8419995Y1619998D02*
D03*
X9779995Y7539996D02*
D03*
X4419997Y5139997D02*
D03*
X4979997Y1139998D02*
D03*
X6179996Y2259998D02*
D03*
X8499995Y6579996D02*
D03*
X9699995Y979999D02*
D03*
X9779995Y7859996D02*
D03*
X9619995Y4339997D02*
D03*
X4099997Y2259998D02*
D03*
X6099996Y4659997D02*
D03*
X4179997Y4979997D02*
D03*
X5619997Y8819995D02*
D03*
X6419996Y8179996D02*
D03*
X4339997Y3059998D02*
D03*
X4819997Y179999D02*
D03*
X6099996Y3699997D02*
D03*
X8499995Y9779995D02*
D03*
X9459995Y1459998D02*
D03*
X5939997Y6259996D02*
D03*
X6419996Y5619997D02*
D03*
X9539995Y1939998D02*
D03*
X5859996Y6099996D02*
D03*
X8019996Y2099998D02*
D03*
X5539997Y8659995D02*
D03*
X7059996Y9139995D02*
D03*
X8739995Y979999D02*
D03*
X9699995Y2899998D02*
D03*
X6099996Y6259996D02*
D03*
X6019996Y9299995D02*
D03*
X8339996Y2099998D02*
D03*
X6499996Y7059996D02*
D03*
X5059997Y3859997D02*
D03*
X9539995Y2899998D02*
D03*
X5779997Y9459995D02*
D03*
X9539995Y1619998D02*
D03*
X7219996Y8179996D02*
D03*
X9859995Y7379996D02*
D03*
X7139996Y8339996D02*
D03*
X9619995Y7859996D02*
D03*
X8979995Y819999D02*
D03*
X9779995Y9139995D02*
D03*
X7379996Y8179996D02*
D03*
X6819996Y5139997D02*
D03*
X8099995Y979999D02*
D03*
X4179997Y1139998D02*
D03*
X6739996Y9459995D02*
D03*
X9379995Y1299998D02*
D03*
X4179997Y9139995D02*
D03*
X4419997Y4819997D02*
D03*
X8979995Y499999D02*
D03*
X4899997Y3859997D02*
D03*
X8739995Y1619998D02*
D03*
X5539997Y5139997D02*
D03*
X6739996Y8499995D02*
D03*
X4979997Y6579996D02*
D03*
X6739996Y3379998D02*
D03*
X7539996Y8499995D02*
D03*
X7379996Y6259996D02*
D03*
X5859996Y6419996D02*
D03*
X5779997Y5299997D02*
D03*
X6739996Y179999D02*
D03*
X4019997Y7539996D02*
D03*
X9059995Y339999D02*
D03*
X4899997Y9619995D02*
D03*
X8019996Y9779995D02*
D03*
X4579997Y8659995D02*
D03*
X6099996Y9139995D02*
D03*
X5139997Y4979997D02*
D03*
X7139996Y7059996D02*
D03*
X6099996Y8819995D02*
D03*
X5779997Y3059998D02*
D03*
X7379996Y9779995D02*
D03*
X5939997Y179999D02*
D03*
X6499996Y1299998D02*
D03*
X3939997Y7699996D02*
D03*
X4899997D02*
D03*
X5539997Y659999D02*
D03*
X7059996Y8819995D02*
D03*
X4819997Y8499995D02*
D03*
X4659997Y3699997D02*
D03*
X4579997Y8339996D02*
D03*
X4899997Y5139997D02*
D03*
X9299995Y1139998D02*
D03*
X4659997D02*
D03*
X4259997Y2259998D02*
D03*
X4739997D02*
D03*
X5059997Y4819997D02*
D03*
X4579997Y3539997D02*
D03*
X7219996Y5299997D02*
D03*
X5139997Y9779995D02*
D03*
X6179996Y7699996D02*
D03*
X5379997Y1939998D02*
D03*
X7059996Y5299997D02*
D03*
X9299995Y2099998D02*
D03*
X7219996Y8819995D02*
D03*
X4979997Y4979997D02*
D03*
X4019997Y3379998D02*
D03*
X7539996Y5299997D02*
D03*
X4819997Y1779998D02*
D03*
X6979996Y2259998D02*
D03*
X7219996Y8499995D02*
D03*
X7139996Y4819997D02*
D03*
X4339997Y3699997D02*
D03*
X4019997Y9139995D02*
D03*
X8499995Y9459995D02*
D03*
X8819995Y9779995D02*
D03*
X5459997D02*
D03*
X4339997D02*
D03*
X5779997Y5939997D02*
D03*
X5299997Y2419998D02*
D03*
X5699996Y9299995D02*
D03*
X6739996Y499999D02*
D03*
X5779997Y9779995D02*
D03*
X7379996Y7219996D02*
D03*
X8099995Y9299995D02*
D03*
X9539995Y979999D02*
D03*
X5699996Y6099996D02*
D03*
X8899995Y9299995D02*
D03*
X5379997Y3859997D02*
D03*
X6259996Y3059998D02*
D03*
Y9139995D02*
D03*
X9139995Y1459998D02*
D03*
X9539995Y8019996D02*
D03*
X8419995Y339999D02*
D03*
X4659997Y6259996D02*
D03*
X6739996Y6579996D02*
D03*
X8899995Y339999D02*
D03*
X6899996Y5619997D02*
D03*
X4819997Y1139998D02*
D03*
X5539997Y9299995D02*
D03*
X9859995Y2579998D02*
D03*
X3859997Y3379998D02*
D03*
X5139997Y1459998D02*
D03*
X7299996Y5459997D02*
D03*
X8499995Y3059998D02*
D03*
X5779997Y4979997D02*
D03*
X5939997Y9459995D02*
D03*
X8979995Y9779995D02*
D03*
X6179996Y339999D02*
D03*
X9619995Y8179996D02*
D03*
X3939997Y3539997D02*
D03*
X8099995Y1619998D02*
D03*
X8579995Y9619995D02*
D03*
X4979997Y3699997D02*
D03*
X9619995Y8819995D02*
D03*
X7459996Y6419996D02*
D03*
X9299995Y1459998D02*
D03*
X4899997Y6099996D02*
D03*
X9379995Y8659995D02*
D03*
X5139997Y3699997D02*
D03*
X7299996Y8659995D02*
D03*
X6259996Y179999D02*
D03*
X5779997Y8819995D02*
D03*
X7219996Y4979997D02*
D03*
X9539995Y2259998D02*
D03*
X5059997Y659999D02*
D03*
X8419995Y1299998D02*
D03*
X8899995Y979999D02*
D03*
X9699995Y1619998D02*
D03*
X6979996Y6419996D02*
D03*
X7139996Y7699996D02*
D03*
X4419997Y9619995D02*
D03*
X5699996Y7699996D02*
D03*
X6979996Y8339996D02*
D03*
X5299997Y3699997D02*
D03*
X4659997Y9139995D02*
D03*
X7219996D02*
D03*
X8259995Y339999D02*
D03*
X4179997Y3699997D02*
D03*
X5779997Y7219996D02*
D03*
X6099996Y9459995D02*
D03*
X6419996Y2419998D02*
D03*
X4179997Y7859996D02*
D03*
X9779995Y2739998D02*
D03*
X4499997Y499999D02*
D03*
X6899996Y9139995D02*
D03*
X9539995Y6419996D02*
D03*
X7539996Y4979997D02*
D03*
X9699995Y1299998D02*
D03*
X4979997Y179999D02*
D03*
X5219997Y6739996D02*
D03*
X8099995Y1939998D02*
D03*
X5139997Y9459995D02*
D03*
X8499995Y1459998D02*
D03*
X4739997Y7699996D02*
D03*
X6259996Y1779998D02*
D03*
X6899996Y179999D02*
D03*
X8179996D02*
D03*
X6739996Y8819995D02*
D03*
X8659995Y179999D02*
D03*
X9219995Y1619998D02*
D03*
X9859995Y2899998D02*
D03*
X4339997Y179999D02*
D03*
X9059995Y659999D02*
D03*
X5379997Y339999D02*
D03*
X9619995Y1459998D02*
D03*
X6659996Y7699996D02*
D03*
X6419996Y2099998D02*
D03*
X9139995Y9779995D02*
D03*
X4579997Y9619995D02*
D03*
X9779995Y2419998D02*
D03*
X6979996Y9299995D02*
D03*
X8579995Y339999D02*
D03*
X8979995Y1139998D02*
D03*
X8339996Y1459998D02*
D03*
X5699996Y339999D02*
D03*
X7539996Y9779995D02*
D03*
Y9139995D02*
D03*
X4179997Y819999D02*
D03*
X4499997Y8499995D02*
D03*
X7059996Y5619997D02*
D03*
X4659997Y4979997D02*
D03*
X4819997Y9459995D02*
D03*
X9619995Y8499995D02*
D03*
X4979997Y3379998D02*
D03*
X8979995Y9139995D02*
D03*
X4499997Y3059998D02*
D03*
X6099996Y1779998D02*
D03*
X8019996Y1139998D02*
D03*
X9379995Y979999D02*
D03*
X5619997Y9459995D02*
D03*
X6499996Y339999D02*
D03*
X6979996D02*
D03*
X5139997Y3059998D02*
D03*
X7059996Y3379998D02*
D03*
X9859995Y1299998D02*
D03*
X5939997Y9139995D02*
D03*
X6019996Y5139997D02*
D03*
X5219997Y2579998D02*
D03*
X4419997Y8659995D02*
D03*
X4579997Y2579998D02*
D03*
X5939997Y8819995D02*
D03*
X9699995Y8979995D02*
D03*
X4419997Y979999D02*
D03*
X9619995Y1779998D02*
D03*
X4899997Y2259998D02*
D03*
X6339996Y3539997D02*
D03*
X4499997Y3699997D02*
D03*
X5699996Y6419996D02*
D03*
X4979997Y2419998D02*
D03*
X9059995Y9299995D02*
D03*
X9859995Y8339996D02*
D03*
X7059996Y4979997D02*
D03*
X4659997Y9459995D02*
D03*
X6019996Y6099996D02*
D03*
X7299996Y6419996D02*
D03*
X8499995Y819999D02*
D03*
X6259996Y8819995D02*
D03*
X4579997Y5139997D02*
D03*
X4419997Y6419996D02*
D03*
X5219997D02*
D03*
X4899997Y979999D02*
D03*
X8419995Y1939998D02*
D03*
X7139996Y8659995D02*
D03*
X4659997Y8499995D02*
D03*
X6899996D02*
D03*
X8179996Y1139998D02*
D03*
X4499997Y8179996D02*
D03*
X4019997Y2099998D02*
D03*
X8099995Y1299998D02*
D03*
X8179996Y1459998D02*
D03*
X4179997Y8499995D02*
D03*
X4979997Y499999D02*
D03*
X4419997Y2579998D02*
D03*
X7139996Y5139997D02*
D03*
X8499995Y8819995D02*
D03*
X8019996Y9139995D02*
D03*
X4339997Y8499995D02*
D03*
X6579996Y819999D02*
D03*
X7219996Y6579996D02*
D03*
X4739997Y8339996D02*
D03*
X8499995Y4339997D02*
D03*
X5859996Y3859997D02*
D03*
X5139997Y9139995D02*
D03*
X6579996D02*
D03*
X7299996Y9299995D02*
D03*
X6179996D02*
D03*
X8019996Y819999D02*
D03*
X4819997D02*
D03*
X8499995Y4979997D02*
D03*
X9699995Y7379996D02*
D03*
X4499997Y179999D02*
D03*
X6339996Y3859997D02*
D03*
X7059996Y499999D02*
D03*
X8259995Y8979995D02*
D03*
X5779997Y2419998D02*
D03*
X8339996Y179999D02*
D03*
X9619995Y3699997D02*
D03*
X4259997Y8339996D02*
D03*
X8979995Y9459995D02*
D03*
X7379996Y6579996D02*
D03*
X5779997Y499999D02*
D03*
X6419996Y179999D02*
D03*
X6739996Y6899996D02*
D03*
X6659996Y2259998D02*
D03*
X5619997Y3699997D02*
D03*
X4419997Y6099996D02*
D03*
X7139996Y5459997D02*
D03*
X8819995Y499999D02*
D03*
X4579997Y3859997D02*
D03*
X9859995Y7699996D02*
D03*
X5299997Y9779995D02*
D03*
X6819996Y3539997D02*
D03*
X5299997Y2099998D02*
D03*
X5139997Y2419998D02*
D03*
X5539997Y339999D02*
D03*
X6339996Y1939998D02*
D03*
X5059997Y7699996D02*
D03*
X6579996Y2099998D02*
D03*
Y499999D02*
D03*
X7379996Y4659997D02*
D03*
X8979995Y1779998D02*
D03*
X4019997Y4979997D02*
D03*
X4819997Y4659997D02*
D03*
X4419997Y3539997D02*
D03*
X4499997Y3379998D02*
D03*
X7219996Y6259996D02*
D03*
X9379995Y2579998D02*
D03*
X5379997Y1619998D02*
D03*
X5059997Y8659995D02*
D03*
Y2259998D02*
D03*
X9619995Y2099998D02*
D03*
X4739997Y6739996D02*
D03*
X3939997Y4819997D02*
D03*
X6659996Y9299995D02*
D03*
X9139995Y2099998D02*
D03*
X6899996Y6579996D02*
D03*
X6099996Y9779995D02*
D03*
X5139997Y3379998D02*
D03*
X4259997Y6419996D02*
D03*
X4979997Y3059998D02*
D03*
X4179997Y1779998D02*
D03*
X5619997Y499999D02*
D03*
X9459995Y2739998D02*
D03*
X6819996Y1939998D02*
D03*
X4739997Y8659995D02*
D03*
X5459997Y4659997D02*
D03*
X9779995Y7219996D02*
D03*
X8259995Y1939998D02*
D03*
X9539995Y8339996D02*
D03*
X8659995Y1459998D02*
D03*
X7059996Y179999D02*
D03*
X6579996Y6899996D02*
D03*
X6819996Y1619998D02*
D03*
X8579995Y1299998D02*
D03*
X8739995Y9619995D02*
D03*
X5619997Y6579996D02*
D03*
X7219996Y9779995D02*
D03*
X3859997Y6259996D02*
D03*
X4819997Y6579996D02*
D03*
Y5939997D02*
D03*
X4259997Y5139997D02*
D03*
X4899997Y9299995D02*
D03*
X5299997Y1139998D02*
D03*
X7139996Y9299995D02*
D03*
X7379996Y9459995D02*
D03*
X8179996Y2099998D02*
D03*
X8499995Y499999D02*
D03*
X6339996Y9299995D02*
D03*
X4099997Y8979995D02*
D03*
X6179996Y1939998D02*
D03*
X6579996Y3379998D02*
D03*
X9779995Y8499995D02*
D03*
X9539995Y2579998D02*
D03*
X8179996Y9139995D02*
D03*
X5939997Y4659997D02*
D03*
X5699996Y3859997D02*
D03*
X3219998Y9779995D02*
D03*
X3299997Y9619995D02*
D03*
X3219998Y9459995D02*
D03*
X3299997Y9299995D02*
D03*
Y8979995D02*
D03*
X3219998Y8819995D02*
D03*
X3299997Y8659995D02*
D03*
Y8339996D02*
D03*
Y8019996D02*
D03*
Y7699996D02*
D03*
Y7379996D02*
D03*
Y7059996D02*
D03*
Y6739996D02*
D03*
Y6419996D02*
D03*
Y6099996D02*
D03*
Y5779997D02*
D03*
Y5459997D02*
D03*
Y5139997D02*
D03*
Y4819997D02*
D03*
Y4499997D02*
D03*
Y4179997D02*
D03*
Y3859997D02*
D03*
Y3539997D02*
D03*
Y3219998D02*
D03*
Y2899998D02*
D03*
Y2579998D02*
D03*
X3219998Y2419998D02*
D03*
X3299997Y2259998D02*
D03*
X3219998Y2099998D02*
D03*
X3299997Y1939998D02*
D03*
X3219998Y1779998D02*
D03*
X3299997Y1619998D02*
D03*
X3219998Y819999D02*
D03*
Y179999D02*
D03*
X3059998Y9779995D02*
D03*
X3139998Y9619995D02*
D03*
X3059998Y9459995D02*
D03*
X3139998Y9299995D02*
D03*
X3059998Y7539996D02*
D03*
Y6259996D02*
D03*
Y4979997D02*
D03*
Y3379998D02*
D03*
X3139998Y2259998D02*
D03*
X3059998Y2099998D02*
D03*
X3139998Y1939998D02*
D03*
X3059998Y1779998D02*
D03*
Y819999D02*
D03*
Y179999D02*
D03*
X2979998Y7699996D02*
D03*
X2899998Y7539996D02*
D03*
Y6259996D02*
D03*
X2979998Y6099996D02*
D03*
X2899998Y4979997D02*
D03*
X2979998Y4819997D02*
D03*
X2899998Y3379998D02*
D03*
X2979998Y2259998D02*
D03*
X2899998Y2099998D02*
D03*
X2979998Y1939998D02*
D03*
X2899998Y1459998D02*
D03*
X2979998Y1299998D02*
D03*
X2899998Y1139998D02*
D03*
X2979998Y979999D02*
D03*
X2899998Y819999D02*
D03*
Y179999D02*
D03*
X2739998Y9779995D02*
D03*
Y9139995D02*
D03*
Y7859996D02*
D03*
X2819998Y7699996D02*
D03*
X2739998Y6579996D02*
D03*
X2819998Y6419996D02*
D03*
Y5139997D02*
D03*
X2739998Y4979997D02*
D03*
X2819998Y4499997D02*
D03*
X2739998Y2419998D02*
D03*
X2819998Y2259998D02*
D03*
X2739998Y2099998D02*
D03*
Y1779998D02*
D03*
X2819998Y1619998D02*
D03*
X2739998Y1459998D02*
D03*
X2819998Y1299998D02*
D03*
X2739998Y1139998D02*
D03*
X2819998Y979999D02*
D03*
X2739998Y819999D02*
D03*
Y499999D02*
D03*
X2819998Y339999D02*
D03*
X2739998Y179999D02*
D03*
X2579998Y9779995D02*
D03*
Y9139995D02*
D03*
X2659998Y8019996D02*
D03*
Y7699996D02*
D03*
Y6419996D02*
D03*
Y5139997D02*
D03*
Y3859997D02*
D03*
X2579998Y3379998D02*
D03*
Y2419998D02*
D03*
X2659998Y2259998D02*
D03*
X2579998Y1779998D02*
D03*
X2659998Y1619998D02*
D03*
X2579998Y1459998D02*
D03*
X2659998Y1299998D02*
D03*
X2579998Y1139998D02*
D03*
X2659998Y979999D02*
D03*
Y339999D02*
D03*
X2579998Y179999D02*
D03*
X2419998Y9779995D02*
D03*
X2499998Y8979995D02*
D03*
X2419998Y8819995D02*
D03*
X2499998Y4499997D02*
D03*
Y3859997D02*
D03*
Y2899998D02*
D03*
X2419998Y2419998D02*
D03*
Y2099998D02*
D03*
X2499998Y1939998D02*
D03*
Y1619998D02*
D03*
Y979999D02*
D03*
X2419998Y179999D02*
D03*
X2339998Y9299995D02*
D03*
X2259998Y8819995D02*
D03*
X2339998Y8659995D02*
D03*
X2259998Y7859996D02*
D03*
X2339998Y979999D02*
D03*
X2259998Y179999D02*
D03*
X2179998Y8659995D02*
D03*
X2099998Y7859996D02*
D03*
X2179998Y7699996D02*
D03*
Y6419996D02*
D03*
Y3219998D02*
D03*
X2099998Y2739998D02*
D03*
X2179998Y2259998D02*
D03*
X2099998Y1779998D02*
D03*
X2179998Y1619998D02*
D03*
X2099998Y1459998D02*
D03*
Y1139998D02*
D03*
Y819999D02*
D03*
Y499999D02*
D03*
Y179999D02*
D03*
X2019998Y2899998D02*
D03*
X1939998Y2739998D02*
D03*
X2019998Y2259998D02*
D03*
Y1939998D02*
D03*
X1939998Y1779998D02*
D03*
X2019998Y1619998D02*
D03*
X1939998Y1459998D02*
D03*
X2019998Y1299998D02*
D03*
X1939998Y1139998D02*
D03*
X2019998Y979999D02*
D03*
X1939998Y819999D02*
D03*
X2019998Y659999D02*
D03*
Y339999D02*
D03*
X1939998Y179999D02*
D03*
X1779998Y8819995D02*
D03*
Y8179996D02*
D03*
Y6259996D02*
D03*
Y5939997D02*
D03*
Y5619997D02*
D03*
Y3059998D02*
D03*
X1859998Y2899998D02*
D03*
Y2259998D02*
D03*
Y1939998D02*
D03*
Y1619998D02*
D03*
X1779998Y1459998D02*
D03*
X1859998Y1299998D02*
D03*
X1779998Y1139998D02*
D03*
X1859998Y979999D02*
D03*
X1779998Y819999D02*
D03*
Y179999D02*
D03*
X1699998Y8979995D02*
D03*
X1619998Y8819995D02*
D03*
X1699998Y8659995D02*
D03*
X1619998Y8179996D02*
D03*
Y7859996D02*
D03*
X1699998Y3859997D02*
D03*
X1619998Y3699997D02*
D03*
Y3379998D02*
D03*
X1699998Y3219998D02*
D03*
X1619998Y3059998D02*
D03*
X1699998Y2899998D02*
D03*
Y2579998D02*
D03*
X1619998Y1459998D02*
D03*
X1699998Y1299998D02*
D03*
X1619998Y1139998D02*
D03*
X1699998Y979999D02*
D03*
Y659999D02*
D03*
X1619998Y499999D02*
D03*
X1699998Y339999D02*
D03*
X1539998Y8979995D02*
D03*
X1459998Y8819995D02*
D03*
X1539998Y8659995D02*
D03*
X1459998Y8179996D02*
D03*
Y7859996D02*
D03*
X1539998Y7699996D02*
D03*
X1459998Y4019997D02*
D03*
X1539998Y3859997D02*
D03*
X1459998Y3699997D02*
D03*
Y3379998D02*
D03*
X1539998Y3219998D02*
D03*
X1459998Y2739998D02*
D03*
X1539998Y2579998D02*
D03*
Y2259998D02*
D03*
Y1939998D02*
D03*
X1459998Y1779998D02*
D03*
X1539998Y1619998D02*
D03*
X1459998Y1459998D02*
D03*
X1539998Y1299998D02*
D03*
Y979999D02*
D03*
Y659999D02*
D03*
X1459998Y499999D02*
D03*
X1299998Y4979997D02*
D03*
Y4339997D02*
D03*
Y4019997D02*
D03*
X1379998Y3859997D02*
D03*
X1299998Y3699997D02*
D03*
Y3379998D02*
D03*
X1379998Y3219998D02*
D03*
Y2899998D02*
D03*
X1299998Y2739998D02*
D03*
Y2419998D02*
D03*
Y2099998D02*
D03*
X1379998Y1619998D02*
D03*
X1299998Y1459998D02*
D03*
X1379998Y659999D02*
D03*
X1299998Y499999D02*
D03*
X1139998Y9779995D02*
D03*
X1219998Y9619995D02*
D03*
X1139998Y9459995D02*
D03*
X1219998Y9299995D02*
D03*
X1139998Y9139995D02*
D03*
X1219998Y8979995D02*
D03*
X1139998Y8819995D02*
D03*
X1219998Y8659995D02*
D03*
X1139998Y8179996D02*
D03*
X1219998Y5139997D02*
D03*
X1139998Y4979997D02*
D03*
X1219998Y4819997D02*
D03*
Y4499997D02*
D03*
X1139998Y4339997D02*
D03*
X1219998Y4179997D02*
D03*
X1139998Y4019997D02*
D03*
X1219998Y3859997D02*
D03*
X1139998Y3699997D02*
D03*
Y3379998D02*
D03*
X1219998Y3219998D02*
D03*
Y2899998D02*
D03*
X1139998Y2739998D02*
D03*
Y2099998D02*
D03*
X1219998Y1939998D02*
D03*
Y1619998D02*
D03*
X1139998Y1459998D02*
D03*
X1219998Y1299998D02*
D03*
X1139998Y1139998D02*
D03*
X1219998Y979999D02*
D03*
Y659999D02*
D03*
X1139998Y499999D02*
D03*
Y179999D02*
D03*
X979999Y9779995D02*
D03*
X1059998Y9619995D02*
D03*
X979999Y9459995D02*
D03*
X1059998Y9299995D02*
D03*
X979999Y9139995D02*
D03*
X1059998Y8979995D02*
D03*
X979999Y8819995D02*
D03*
X1059998Y8659995D02*
D03*
Y5139997D02*
D03*
X979999Y4979997D02*
D03*
X1059998Y4819997D02*
D03*
Y4499997D02*
D03*
Y4179997D02*
D03*
X979999Y4019997D02*
D03*
X1059998Y3859997D02*
D03*
Y3219998D02*
D03*
Y2899998D02*
D03*
X979999Y2739998D02*
D03*
X1059998Y2579998D02*
D03*
X979999Y2099998D02*
D03*
X1059998Y1939998D02*
D03*
X979999Y1459998D02*
D03*
X1059998Y1299998D02*
D03*
X979999Y1139998D02*
D03*
X1059998Y979999D02*
D03*
X979999Y819999D02*
D03*
X1059998Y659999D02*
D03*
X979999Y499999D02*
D03*
X1059998Y339999D02*
D03*
X979999Y179999D02*
D03*
X899998Y9299995D02*
D03*
X819999Y9139995D02*
D03*
X899998Y8979995D02*
D03*
X819999Y8819995D02*
D03*
X899998Y8659995D02*
D03*
X819999Y5619997D02*
D03*
X899998Y5139997D02*
D03*
X819999Y4979997D02*
D03*
X899998Y4819997D02*
D03*
X819999Y4019997D02*
D03*
Y3059998D02*
D03*
Y2419998D02*
D03*
Y1459998D02*
D03*
X899998Y979999D02*
D03*
X819999Y819999D02*
D03*
Y179999D02*
D03*
X739999Y8979995D02*
D03*
X659999Y8819995D02*
D03*
X739999Y8659995D02*
D03*
X659999Y7539996D02*
D03*
X739999Y7379996D02*
D03*
X659999Y7219996D02*
D03*
X739999Y5459997D02*
D03*
X659999Y5299997D02*
D03*
Y4979997D02*
D03*
X739999Y4819997D02*
D03*
X659999Y4019997D02*
D03*
Y2419998D02*
D03*
X739999Y1299998D02*
D03*
Y979999D02*
D03*
X579999Y8979995D02*
D03*
Y7379996D02*
D03*
Y4819997D02*
D03*
X499999Y4019997D02*
D03*
Y3699997D02*
D03*
Y3059998D02*
D03*
Y2739998D02*
D03*
Y2419998D02*
D03*
X579999Y1299998D02*
D03*
Y979999D02*
D03*
X419999Y8979995D02*
D03*
X339999Y8819995D02*
D03*
Y6579996D02*
D03*
Y5299997D02*
D03*
Y4019997D02*
D03*
X419999Y3219998D02*
D03*
X339999Y3059998D02*
D03*
Y2419998D02*
D03*
X179999Y9139995D02*
D03*
X259999Y8979995D02*
D03*
X179999Y8819995D02*
D03*
X259999Y8659995D02*
D03*
X179999Y7219996D02*
D03*
X259999Y7059996D02*
D03*
X179999Y6899996D02*
D03*
X259999Y6739996D02*
D03*
X179999Y6579996D02*
D03*
X259999Y6419996D02*
D03*
Y6099996D02*
D03*
Y5779997D02*
D03*
Y5459997D02*
D03*
Y5139997D02*
D03*
Y4819997D02*
D03*
Y4499997D02*
D03*
Y3539997D02*
D03*
Y3219998D02*
D03*
Y2899998D02*
D03*
X179999Y2419998D02*
D03*
X259999Y979999D02*
D03*
X179999Y819999D02*
D03*
Y179999D02*
D03*
X7570000Y6950000D02*
D03*
X8520000Y5230000D02*
D03*
X8410000Y5380000D02*
D03*
X8340000Y5460000D02*
D03*
X8270000Y5530000D02*
D03*
X8190000Y5610000D02*
D03*
X8110000Y5690000D02*
D03*
X9202300Y4730000D02*
D03*
X8696355Y5246000D02*
D03*
X9130000Y4110000D02*
D03*
X9210000Y3850000D02*
D03*
X9280000Y3610000D02*
D03*
X9350000Y3390000D02*
D03*
X8696355Y4357000D02*
D03*
X8696354Y6277000D02*
D03*
X9280000Y4580000D02*
D03*
X8993645Y5109999D02*
D03*
X9417700Y4339999D02*
D03*
X9350000Y4460000D02*
D03*
X9132300Y4849999D02*
D03*
X9060000Y4980000D02*
D03*
X9060000Y6900000D02*
D03*
X9200000Y6650000D02*
D03*
X9132300Y6769999D02*
D03*
X9270000Y6500000D02*
D03*
X9350000Y6380000D02*
D03*
X9417700Y6259999D02*
D03*
X8993645Y7029999D02*
D03*
X9420000Y8200000D02*
D03*
X9340000Y8320000D02*
D03*
X9270000Y8450000D02*
D03*
X9200000Y8590000D02*
D03*
X9140000Y8710000D02*
D03*
X9070000Y8840000D02*
D03*
X9000000Y8970000D02*
D03*
X8690000Y7450000D02*
D03*
X8696355Y5119000D02*
D03*
Y4992000D02*
D03*
Y4865000D02*
D03*
Y4738000D02*
D03*
Y4611000D02*
D03*
Y4484000D02*
D03*
X8696354Y7039000D02*
D03*
Y6912000D02*
D03*
Y6785000D02*
D03*
Y6658000D02*
D03*
Y6531000D02*
D03*
Y6404000D02*
D03*
X8686355Y8198001D02*
D03*
Y8325001D02*
D03*
X7980000Y8840000D02*
D03*
X8050000Y8710000D02*
D03*
X8120000Y8570000D02*
D03*
X8686355Y8452001D02*
D03*
Y8579001D02*
D03*
Y8706001D02*
D03*
Y8833001D02*
D03*
Y8960001D02*
D03*
X510000Y3410000D02*
D03*
X720000Y3410000D02*
D03*
X6350860Y8320000D02*
D03*
X6840000D02*
D03*
X8710000Y3680000D02*
D03*
X5140000Y7260000D02*
D03*
X7330000Y7450000D02*
D03*
X6770000Y6800000D02*
D03*
X8686355Y9341001D02*
D03*
X5103500Y8206500D02*
D03*
X4590000Y7240000D02*
D03*
X5962575Y8460500D02*
D03*
X5397425Y8079500D02*
D03*
X5390000Y6630000D02*
D03*
X8410000Y8060000D02*
D03*
X7750000D02*
D03*
Y8210000D02*
D03*
X5387865Y7510500D02*
D03*
Y7256500D02*
D03*
X7750000Y6140000D02*
D03*
X8410000D02*
D03*
X3950000Y8252000D02*
D03*
Y8125000D02*
D03*
Y8379000D02*
D03*
Y8506000D02*
D03*
Y8633000D02*
D03*
X3960000Y6861000D02*
D03*
Y6988000D02*
D03*
Y7115000D02*
D03*
Y7242000D02*
D03*
X8686355Y7690001D02*
D03*
Y7817001D02*
D03*
Y7944001D02*
D03*
Y8071001D02*
D03*
X8696354Y6150000D02*
D03*
Y6023000D02*
D03*
Y5896000D02*
D03*
Y5769000D02*
D03*
X3965000Y5466500D02*
D03*
Y5593500D02*
D03*
Y5720500D02*
D03*
Y5847500D02*
D03*
X8696355Y3849000D02*
D03*
Y3976000D02*
D03*
Y4103000D02*
D03*
Y4230000D02*
D03*
X3960000Y4094000D02*
D03*
Y4221000D02*
D03*
Y4348000D02*
D03*
Y4475000D02*
D03*
X7743645Y9341001D02*
D03*
X7748645Y3555501D02*
D03*
X7753645Y7420000D02*
D03*
X7740000Y8570000D02*
D03*
Y8450000D02*
D03*
X7750000Y8330000D02*
D03*
Y5520000D02*
D03*
Y8710000D02*
D03*
X7740000Y8830000D02*
D03*
X7872575Y1240500D02*
D03*
X8520000Y3430000D02*
D03*
X7740000Y4990000D02*
D03*
X7750000Y4870000D02*
D03*
X7740000Y4730000D02*
D03*
Y4610000D02*
D03*
X7750000Y4370000D02*
D03*
Y4220000D02*
D03*
X8190000Y4610000D02*
D03*
X8120000Y4730000D02*
D03*
X8050000Y4870000D02*
D03*
X7980000Y5000000D02*
D03*
X7750000Y4490000D02*
D03*
X8260000Y4480000D02*
D03*
X8340000Y4360000D02*
D03*
X8410000Y4220000D02*
D03*
X8270000Y6400000D02*
D03*
X8337700Y6280000D02*
D03*
X7740000Y6910000D02*
D03*
X7750000Y6790000D02*
D03*
X7740000Y6650000D02*
D03*
Y6530000D02*
D03*
X7750000Y6290000D02*
D03*
X8190000Y6530000D02*
D03*
X8120000Y6650000D02*
D03*
X8050000Y6790000D02*
D03*
X7980000Y6920000D02*
D03*
X7750000Y6410000D02*
D03*
X8340000Y8200000D02*
D03*
X8260000Y8320000D02*
D03*
X8190000Y8450000D02*
D03*
X8530000Y7310000D02*
D03*
Y9210000D02*
D03*
X8520000Y1030000D02*
D03*
X7480000Y860000D02*
D03*
X5330000Y1345000D02*
D03*
X6277425Y879500D02*
D03*
X5480000Y3150000D02*
D03*
X5470000Y2391000D02*
D03*
X5690000Y2051000D02*
D03*
X6300000Y2701000D02*
D03*
X6507499Y2693501D02*
D03*
X4392500Y1890000D02*
D03*
X7748645Y1904501D02*
D03*
X8691355D02*
D03*
Y2031501D02*
D03*
Y2158501D02*
D03*
X8690000Y2290000D02*
D03*
X6920000Y1530000D02*
D03*
X5350000Y155000D02*
D03*
X5937500Y592500D02*
D03*
X5830000Y960000D02*
D03*
X5830000Y1170000D02*
D03*
X6030000Y1190000D02*
D03*
X7090000Y930000D02*
D03*
X7510000Y1520000D02*
D03*
X7100000D02*
D03*
X1260000Y5710000D02*
D03*
X1000000Y5330000D02*
D03*
X2995000Y5339500D02*
D03*
X2980000Y8379000D02*
D03*
X270000Y8480000D02*
D03*
X590000Y7130000D02*
D03*
X2990000Y7115000D02*
D03*
X1690000Y4700000D02*
D03*
X2990000Y4348000D02*
D03*
X900000Y7240000D02*
D03*
X2990000Y7242000D02*
D03*
X830000Y6750000D02*
D03*
X2990000Y6734000D02*
D03*
X1460000Y4230000D02*
D03*
X2990000Y3967000D02*
D03*
X1170000Y5610000D02*
D03*
X2995000Y5593500D02*
D03*
X2540000Y4640000D02*
D03*
X670000Y6970000D02*
D03*
X2990000Y6988000D02*
D03*
X2980000Y8260000D02*
D03*
X190000Y8200000D02*
D03*
X1600000Y4520000D02*
D03*
X2990000Y4221000D02*
D03*
X2500000Y6170000D02*
D03*
X110000Y4310000D02*
D03*
X2990000Y4475000D02*
D03*
X1080000Y5520000D02*
D03*
X2995000Y5466500D02*
D03*
X2990000Y8130000D02*
D03*
X100000Y7980000D02*
D03*
X750000Y6840000D02*
D03*
X2990000Y6861000D02*
D03*
X840000Y2772500D02*
D03*
X1190000Y2260000D02*
D03*
X1650000Y9740000D02*
D03*
X1337700Y5420000D02*
D03*
X1510000Y4410000D02*
D03*
X2990000Y4094000D02*
D03*
X2410000Y4780000D02*
D03*
X2995000Y5720500D02*
D03*
X1996500Y9223000D02*
D03*
X2123500D02*
D03*
X2875000Y9446500D02*
D03*
Y9573500D02*
D03*
X1640000Y9190000D02*
D03*
X1450000Y9740000D02*
D03*
X360000Y1080000D02*
D03*
Y1420000D02*
D03*
X1690000Y2070000D02*
D03*
X1190000Y1780000D02*
D03*
%TF.MD5,8f61d69e0cc7fe492dc64f0f924f6a0a*%
M02*
