G04*
G04 #@! TF.GenerationSoftware,Altium Limited,Altium Designer,25.8.1 (18)*
G04*
G04 Layer_Physical_Order=1*
G04 Layer_Color=255*
%FSLAX44Y44*%
%MOMM*%
G71*
G04*
G04 #@! TF.SameCoordinates,346E8232-17C7-4013-95A1-2B3E51FE4BFF*
G04*
G04*
G04 #@! TF.FilePolarity,Positive*
G04*
G01*
G75*
%ADD13C,0.3000*%
%ADD18R,1.5500X2.3500*%
%ADD19R,1.0000X2.0500*%
%ADD20R,3.2500X2.0500*%
%ADD21R,1.1000X1.5200*%
%ADD22R,1.6549X0.5580*%
%ADD23R,1.6637X0.5588*%
%ADD24R,1.5588X0.6080*%
%ADD25R,2.1000X0.6500*%
%ADD26R,1.8000X0.6000*%
G04:AMPARAMS|DCode=27|XSize=1.97mm|YSize=0.6mm|CornerRadius=0.075mm|HoleSize=0mm|Usage=FLASHONLY|Rotation=90.000|XOffset=0mm|YOffset=0mm|HoleType=Round|Shape=RoundedRectangle|*
%AMROUNDEDRECTD27*
21,1,1.9700,0.4500,0,0,90.0*
21,1,1.8200,0.6000,0,0,90.0*
1,1,0.1500,0.2250,0.9100*
1,1,0.1500,0.2250,-0.9100*
1,1,0.1500,-0.2250,-0.9100*
1,1,0.1500,-0.2250,0.9100*
%
%ADD27ROUNDEDRECTD27*%
%ADD28R,1.5200X1.1000*%
%ADD29R,3.0000X1.6000*%
%ADD30R,6.7000X6.7000*%
%ADD31R,1.2000X0.6000*%
%ADD32R,1.7780X0.3556*%
%ADD33R,0.8890X1.0922*%
%ADD34R,2.0000X1.4000*%
%ADD35R,1.9341X0.5334*%
%ADD36R,2.0500X1.0000*%
%ADD37R,2.0500X3.2500*%
%ADD63R,1.3208X1.3208*%
%ADD64C,1.3208*%
%ADD65R,1.3208X1.3208*%
%ADD66C,1.3716*%
%ADD67R,1.3716X1.3716*%
%ADD68R,0.8000X4.3000*%
%ADD69C,0.5000*%
%ADD70C,1.0000*%
%ADD71O,4.2000X1.7000*%
%ADD72O,1.7000X3.8000*%
%ADD73O,3.8000X1.7000*%
G04:AMPARAMS|DCode=74|XSize=1.6mm|YSize=1.6mm|CornerRadius=0.4mm|HoleSize=0mm|Usage=FLASHONLY|Rotation=90.000|XOffset=0mm|YOffset=0mm|HoleType=Round|Shape=RoundedRectangle|*
%AMROUNDEDRECTD74*
21,1,1.6000,0.8000,0,0,90.0*
21,1,0.8000,1.6000,0,0,90.0*
1,1,0.8000,0.4000,0.4000*
1,1,0.8000,0.4000,-0.4000*
1,1,0.8000,-0.4000,-0.4000*
1,1,0.8000,-0.4000,0.4000*
%
%ADD74ROUNDEDRECTD74*%
%ADD75C,1.6000*%
G04:AMPARAMS|DCode=76|XSize=1.3mm|YSize=1.3mm|CornerRadius=0.325mm|HoleSize=0mm|Usage=FLASHONLY|Rotation=270.000|XOffset=0mm|YOffset=0mm|HoleType=Round|Shape=RoundedRectangle|*
%AMROUNDEDRECTD76*
21,1,1.3000,0.6500,0,0,270.0*
21,1,0.6500,1.3000,0,0,270.0*
1,1,0.6500,-0.3250,-0.3250*
1,1,0.6500,-0.3250,0.3250*
1,1,0.6500,0.3250,0.3250*
1,1,0.6500,0.3250,-0.3250*
%
%ADD76ROUNDEDRECTD76*%
%ADD77C,1.3000*%
%ADD78C,1.2170*%
%ADD79C,1.5200*%
G04:AMPARAMS|DCode=80|XSize=1.52mm|YSize=1.52mm|CornerRadius=0.38mm|HoleSize=0mm|Usage=FLASHONLY|Rotation=90.000|XOffset=0mm|YOffset=0mm|HoleType=Round|Shape=RoundedRectangle|*
%AMROUNDEDRECTD80*
21,1,1.5200,0.7600,0,0,90.0*
21,1,0.7600,1.5200,0,0,90.0*
1,1,0.7600,0.3800,0.3800*
1,1,0.7600,0.3800,-0.3800*
1,1,0.7600,-0.3800,-0.3800*
1,1,0.7600,-0.3800,0.3800*
%
%ADD80ROUNDEDRECTD80*%
%ADD81C,1.7250*%
%ADD82C,0.8000*%
G36*
X337917Y994616D02*
X339737Y993862D01*
X341375Y992767D01*
X342767Y991375D01*
X343862Y989737D01*
X344616Y987917D01*
X345000Y985985D01*
Y985000D01*
Y15000D01*
Y14015D01*
X344616Y12083D01*
X343862Y10263D01*
X342767Y8625D01*
X341375Y7232D01*
X339737Y6138D01*
X337917Y5384D01*
X335985Y5000D01*
X14015D01*
X12083Y5384D01*
X10263Y6138D01*
X8625Y7232D01*
X7232Y8625D01*
X6138Y10263D01*
X5384Y12083D01*
X5000Y14015D01*
Y15000D01*
Y427187D01*
X5536Y427430D01*
X6016Y427499D01*
X7601Y425913D01*
X9807Y425000D01*
X12193D01*
X14399Y425913D01*
X16087Y427601D01*
X17000Y429807D01*
Y432193D01*
X16087Y434399D01*
X15588Y434897D01*
Y606800D01*
X42279Y633490D01*
X43736Y633100D01*
X46264D01*
X48706Y633754D01*
X50894Y635018D01*
X52682Y636805D01*
X53396Y638042D01*
X54412Y637770D01*
Y633200D01*
X47721Y626510D01*
X46264Y626900D01*
X43736D01*
X41295Y626246D01*
X39106Y624982D01*
X37318Y623195D01*
X36054Y621006D01*
X35400Y618564D01*
Y616036D01*
X36054Y613595D01*
X37318Y611405D01*
X39106Y609618D01*
X41295Y608354D01*
X43736Y607700D01*
X46264D01*
X48706Y608354D01*
X50894Y609618D01*
X52682Y611405D01*
X53946Y613595D01*
X54600Y616036D01*
Y618564D01*
X54210Y620021D01*
X61396Y627207D01*
X62412Y626786D01*
Y615801D01*
X47721Y601110D01*
X46264Y601500D01*
X43736D01*
X41295Y600846D01*
X39106Y599582D01*
X37318Y597794D01*
X36054Y595606D01*
X35400Y593164D01*
Y590636D01*
X36054Y588195D01*
X37318Y586006D01*
X39106Y584218D01*
X41295Y582954D01*
X43736Y582300D01*
X46264D01*
X48706Y582954D01*
X50894Y584218D01*
X52682Y586006D01*
X53946Y588195D01*
X54600Y590636D01*
Y593164D01*
X54210Y594621D01*
X69396Y609807D01*
X70412Y609386D01*
Y598400D01*
X47721Y575710D01*
X46264Y576100D01*
X43736D01*
X41295Y575446D01*
X39106Y574182D01*
X37318Y572394D01*
X36054Y570205D01*
X35400Y567764D01*
Y565236D01*
X36054Y562795D01*
X37318Y560606D01*
X39106Y558818D01*
X41295Y557554D01*
X43736Y556900D01*
X46264D01*
X48706Y557554D01*
X50894Y558818D01*
X52682Y560606D01*
X53946Y562795D01*
X54600Y565236D01*
Y567764D01*
X54210Y569221D01*
X77396Y592407D01*
X78412Y591986D01*
Y581001D01*
X47721Y550310D01*
X46264Y550700D01*
X43736D01*
X41295Y550046D01*
X39106Y548782D01*
X37318Y546995D01*
X36054Y544805D01*
X35400Y542364D01*
Y539836D01*
X36054Y537395D01*
X37318Y535205D01*
X39106Y533418D01*
X41295Y532154D01*
X43736Y531500D01*
X46264D01*
X48706Y532154D01*
X50894Y533418D01*
X52682Y535205D01*
X53946Y537395D01*
X54600Y539836D01*
Y542364D01*
X54210Y543821D01*
X86244Y575856D01*
X86396Y576082D01*
X87412Y575774D01*
Y539201D01*
X47721Y499510D01*
X46264Y499900D01*
X43736D01*
X41295Y499246D01*
X39106Y497982D01*
X37318Y496194D01*
X36054Y494006D01*
X35400Y491564D01*
Y489036D01*
X36054Y486595D01*
X37318Y484406D01*
X39106Y482618D01*
X41295Y481354D01*
X43736Y480700D01*
X46264D01*
X48706Y481354D01*
X50894Y482618D01*
X52682Y484406D01*
X53946Y486595D01*
X54600Y489036D01*
Y491564D01*
X54210Y493021D01*
X93061Y531873D01*
X94127Y531501D01*
X94913Y529601D01*
X96601Y527913D01*
X98806Y527000D01*
X101194D01*
X103399Y527913D01*
X105087Y529601D01*
X106000Y531806D01*
Y534193D01*
X105087Y536399D01*
X104588Y536897D01*
Y545819D01*
X105604Y546498D01*
X106806Y546000D01*
X109193D01*
X111399Y546913D01*
X113087Y548601D01*
X114000Y550807D01*
Y553194D01*
X113272Y554950D01*
X114050Y555728D01*
X115807Y555000D01*
X118194D01*
X120399Y555913D01*
X122086Y557601D01*
X123000Y559807D01*
Y562193D01*
X122086Y564399D01*
X121825Y564660D01*
X121894Y565191D01*
X122051Y565352D01*
X122934Y565776D01*
X124806Y565000D01*
X127193D01*
X128337Y565474D01*
X129182Y564909D01*
Y545897D01*
X128683Y545399D01*
X127770Y543194D01*
Y540807D01*
X128683Y538601D01*
X130371Y536913D01*
X132577Y536000D01*
X134964D01*
X137169Y536913D01*
X137553Y537298D01*
X138492Y536909D01*
Y426732D01*
X138841Y424976D01*
X139836Y423488D01*
X140000Y423323D01*
Y421806D01*
X140913Y419601D01*
X142601Y417913D01*
X144806Y417000D01*
X147193D01*
X149399Y417913D01*
X151087Y419601D01*
X152000Y421806D01*
Y424193D01*
X151087Y426399D01*
X149399Y428087D01*
X147668Y428803D01*
Y434971D01*
X148513Y435536D01*
X149806Y435000D01*
X152193D01*
X154399Y435914D01*
X156087Y437601D01*
X157000Y439807D01*
Y442193D01*
X156087Y444399D01*
X155588Y444897D01*
Y446599D01*
X156527Y446988D01*
X156601Y446913D01*
X158806Y446000D01*
X161194D01*
X163399Y446913D01*
X165087Y448601D01*
X166000Y450807D01*
Y453194D01*
X165087Y455399D01*
X164588Y455897D01*
Y464599D01*
X165527Y464988D01*
X165601Y464913D01*
X167806Y464000D01*
X170194D01*
X172399Y464913D01*
X173396Y465911D01*
X174412Y465490D01*
Y326000D01*
X174761Y324244D01*
X175756Y322756D01*
X237806Y260706D01*
X239294Y259711D01*
X241050Y259362D01*
X287000D01*
Y258700D01*
X309884D01*
X310273Y257761D01*
X309100Y256588D01*
X300250D01*
X299807Y256500D01*
X287000D01*
Y255838D01*
X195651D01*
X146244Y305244D01*
X144756Y306239D01*
X143000Y306588D01*
X107650D01*
X79250Y334989D01*
Y353000D01*
X72588D01*
Y355400D01*
X75500D01*
Y374600D01*
X72588D01*
Y377400D01*
X75500D01*
Y396600D01*
X60500D01*
Y393288D01*
X53436D01*
X52682Y394594D01*
X50894Y396382D01*
X48706Y397646D01*
X46264Y398300D01*
X43736D01*
X41295Y397646D01*
X39106Y396382D01*
X37318Y394594D01*
X36054Y392406D01*
X35400Y389964D01*
Y387436D01*
X36054Y384995D01*
X37318Y382805D01*
X39106Y381018D01*
X41295Y379754D01*
X43736Y379100D01*
X46264D01*
X48706Y379754D01*
X50894Y381018D01*
X52682Y382805D01*
X53436Y384112D01*
X60500D01*
Y377400D01*
X63412D01*
Y374600D01*
X60500D01*
Y355400D01*
X63412D01*
Y353000D01*
X42750D01*
Y328500D01*
X56412D01*
Y289500D01*
X54000D01*
Y265000D01*
X68000D01*
Y289500D01*
X65588D01*
Y328500D01*
X72761D01*
X102506Y298756D01*
X103994Y297761D01*
X105750Y297412D01*
X141100D01*
X190506Y248006D01*
X191994Y247011D01*
X193750Y246662D01*
X287000D01*
Y246000D01*
X312000D01*
Y247611D01*
X312756Y247761D01*
X314244Y248756D01*
X323244Y257756D01*
X324239Y259244D01*
X324588Y261000D01*
Y315000D01*
Y446450D01*
Y584200D01*
Y723150D01*
Y861250D01*
X324239Y863006D01*
X323244Y864494D01*
X310500Y877239D01*
Y881250D01*
X291450D01*
X289750Y881588D01*
X279600D01*
Y884500D01*
X260400D01*
Y869500D01*
X279600D01*
Y872412D01*
X285500D01*
Y870750D01*
X304011D01*
X305273Y869489D01*
X304884Y868550D01*
X285500D01*
Y867888D01*
X257300D01*
X255544Y867539D01*
X254056Y866544D01*
X237756Y850244D01*
X236761Y848756D01*
X236412Y847000D01*
Y481897D01*
X235913Y481399D01*
X235000Y479193D01*
Y476806D01*
X235913Y474601D01*
X237601Y472914D01*
X239806Y472000D01*
X242194D01*
X244399Y472914D01*
X246087Y474601D01*
X247000Y476806D01*
Y479193D01*
X246087Y481399D01*
X245588Y481897D01*
Y611599D01*
X246527Y611988D01*
X246601Y611913D01*
X248806Y611000D01*
X251194D01*
X253399Y611913D01*
X255087Y613601D01*
X256000Y615807D01*
Y618194D01*
X255087Y620399D01*
X254588Y620897D01*
Y841099D01*
X259501Y846012D01*
X285500D01*
Y845350D01*
X310500D01*
Y855850D01*
X285500D01*
Y855188D01*
X257600D01*
X256993Y855067D01*
X256492Y856004D01*
X259200Y858712D01*
X285500D01*
Y858050D01*
X310500D01*
Y862934D01*
X311439Y863323D01*
X315412Y859350D01*
Y735554D01*
X314473Y735165D01*
X311500Y738139D01*
Y742150D01*
X286500D01*
Y741538D01*
X279600D01*
Y744500D01*
X260400D01*
Y729500D01*
X279600D01*
Y732362D01*
X286500D01*
Y731650D01*
X305011D01*
X306273Y730389D01*
X305884Y729450D01*
X302004D01*
X300194Y730200D01*
X297806D01*
X295996Y729450D01*
X286500D01*
Y718950D01*
X295996D01*
X297324Y718400D01*
Y717300D01*
X295996Y716750D01*
X286500D01*
Y706250D01*
X295996D01*
X297324Y705700D01*
Y704600D01*
X295996Y704050D01*
X286500D01*
Y693550D01*
X295996D01*
X297324Y693000D01*
Y691900D01*
X295996Y691350D01*
X286500D01*
Y680850D01*
X295996D01*
X297324Y680300D01*
Y679200D01*
X295996Y678650D01*
X286500D01*
Y668150D01*
X295996D01*
X297806Y667400D01*
X300194D01*
X302004Y668150D01*
X311500D01*
Y678650D01*
X302004D01*
X300676Y679200D01*
Y680300D01*
X302004Y680850D01*
X311500D01*
Y691350D01*
X302004D01*
X300676Y691900D01*
Y693000D01*
X302004Y693550D01*
X311500D01*
Y704050D01*
X302004D01*
X300676Y704600D01*
Y705700D01*
X302004Y706250D01*
X311500D01*
Y716750D01*
X302004D01*
X300676Y717300D01*
Y718400D01*
X302004Y718950D01*
X311500D01*
Y723834D01*
X312439Y724223D01*
X315412Y721249D01*
Y596604D01*
X314473Y596216D01*
X312000Y598689D01*
Y602700D01*
X287000D01*
Y601813D01*
X279600D01*
Y604500D01*
X260400D01*
Y589500D01*
X265930D01*
X266239Y588484D01*
X265506Y587994D01*
X250756Y573244D01*
X249761Y571756D01*
X249412Y570000D01*
Y467897D01*
X248913Y467399D01*
X248000Y465193D01*
Y462807D01*
X248913Y460601D01*
X250601Y458913D01*
X252806Y458000D01*
X255194D01*
X257399Y458913D01*
X259087Y460601D01*
X259384Y461319D01*
X260400Y461117D01*
Y453500D01*
X266557D01*
X267000Y453412D01*
X267443Y453500D01*
X279600D01*
Y456412D01*
X284899D01*
X285150Y456362D01*
X286500D01*
Y454950D01*
X305011D01*
X306273Y453689D01*
X305884Y452750D01*
X302004D01*
X300194Y453500D01*
X297806D01*
X295996Y452750D01*
X286500D01*
Y442250D01*
X295996D01*
X297324Y441700D01*
Y440600D01*
X295996Y440050D01*
X286500D01*
Y429550D01*
X295996D01*
X297324Y429000D01*
Y427900D01*
X295996Y427350D01*
X286500D01*
Y416850D01*
X295996D01*
X297324Y416300D01*
Y415200D01*
X295996Y414650D01*
X286500D01*
Y404150D01*
X295996D01*
X297324Y403600D01*
Y402500D01*
X295996Y401950D01*
X286500D01*
Y391450D01*
X295996D01*
X297806Y390700D01*
X300194D01*
X302004Y391450D01*
X311500D01*
Y401950D01*
X302004D01*
X300676Y402500D01*
Y403600D01*
X302004Y404150D01*
X311500D01*
Y414650D01*
X302004D01*
X300676Y415200D01*
Y416300D01*
X302004Y416850D01*
X311500D01*
Y427350D01*
X302004D01*
X300676Y427900D01*
Y429000D01*
X302004Y429550D01*
X311500D01*
Y440050D01*
X302004D01*
X300676Y440600D01*
Y441700D01*
X302004Y442250D01*
X311500D01*
Y447134D01*
X312439Y447523D01*
X315412Y444549D01*
Y327404D01*
X314473Y327015D01*
X312000Y329489D01*
Y332700D01*
X287000D01*
Y331813D01*
X281600D01*
Y334500D01*
X262400D01*
Y321416D01*
X261461Y321027D01*
X233588Y348900D01*
Y661500D01*
X233239Y663256D01*
X232244Y664744D01*
X207310Y689679D01*
X207700Y691136D01*
Y693664D01*
X207046Y696105D01*
X205782Y698295D01*
X203995Y700082D01*
X201805Y701346D01*
X199364Y702000D01*
X196836D01*
X194395Y701346D01*
X192206Y700082D01*
X190418Y698295D01*
X189154Y696105D01*
X188500Y693664D01*
Y691136D01*
X189154Y688695D01*
X190418Y686506D01*
X192206Y684718D01*
X194395Y683454D01*
X196836Y682800D01*
X199364D01*
X200821Y683191D01*
X224412Y659600D01*
Y347000D01*
X224761Y345244D01*
X225756Y343756D01*
X270706Y298806D01*
X272194Y297811D01*
X273950Y297462D01*
X287000D01*
Y296800D01*
X312000D01*
Y307300D01*
X287000D01*
Y306638D01*
X275851D01*
X263927Y318561D01*
X264316Y319500D01*
X281600D01*
Y322637D01*
X287000D01*
Y322200D01*
X299807D01*
X300250Y322112D01*
X306400D01*
X315412Y313100D01*
Y262901D01*
X312939Y260427D01*
X312000Y260816D01*
Y269200D01*
X287000D01*
Y268538D01*
X242950D01*
X183588Y327901D01*
Y331596D01*
X184527Y331984D01*
X243106Y273406D01*
X244594Y272411D01*
X246350Y272062D01*
X287000D01*
Y271400D01*
X312000D01*
Y281900D01*
X287000D01*
Y281238D01*
X248251D01*
X190588Y338900D01*
Y380208D01*
X191527Y380597D01*
X192206Y379918D01*
X194395Y378654D01*
X196836Y378000D01*
X199364D01*
X201805Y378654D01*
X203995Y379918D01*
X205782Y381706D01*
X207046Y383895D01*
X207700Y386336D01*
Y388864D01*
X207046Y391306D01*
X205782Y393495D01*
X203995Y395282D01*
X201805Y396546D01*
X199364Y397200D01*
X196836D01*
X194395Y396546D01*
X192206Y395282D01*
X191527Y394603D01*
X190588Y394992D01*
Y399000D01*
X195379Y403791D01*
X196836Y403400D01*
X199364D01*
X201805Y404054D01*
X203995Y405318D01*
X205782Y407105D01*
X207046Y409295D01*
X207700Y411736D01*
Y414264D01*
X207046Y416706D01*
X205782Y418895D01*
X203995Y420682D01*
X201805Y421946D01*
X199364Y422600D01*
X196836D01*
X194395Y421946D01*
X192206Y420682D01*
X190418Y418895D01*
X189154Y416706D01*
X188500Y414264D01*
Y411736D01*
X188890Y410279D01*
X184527Y405915D01*
X183588Y406304D01*
Y493600D01*
X195379Y505391D01*
X196836Y505000D01*
X199364D01*
X201805Y505654D01*
X203995Y506918D01*
X205782Y508705D01*
X207046Y510895D01*
X207700Y513336D01*
Y515864D01*
X207046Y518306D01*
X205782Y520495D01*
X203995Y522282D01*
X201805Y523546D01*
X199364Y524200D01*
X196836D01*
X194395Y523546D01*
X192206Y522282D01*
X190418Y520495D01*
X189154Y518306D01*
X188500Y515864D01*
Y513336D01*
X188890Y511879D01*
X175756Y498744D01*
X174761Y497256D01*
X174604Y496467D01*
X173588Y496567D01*
Y686799D01*
X195379Y708590D01*
X196836Y708200D01*
X199364D01*
X201805Y708854D01*
X203995Y710118D01*
X205782Y711906D01*
X207046Y714095D01*
X207700Y716536D01*
Y719064D01*
X207046Y721506D01*
X205782Y723695D01*
X203995Y725482D01*
X201805Y726746D01*
X199364Y727400D01*
X196836D01*
X194395Y726746D01*
X192206Y725482D01*
X190418Y723695D01*
X189154Y721506D01*
X188500Y719064D01*
Y716536D01*
X188890Y715079D01*
X165756Y691944D01*
X165604Y691718D01*
X164588Y692026D01*
Y703200D01*
X195379Y733990D01*
X196836Y733600D01*
X199364D01*
X201805Y734254D01*
X203995Y735518D01*
X205782Y737306D01*
X207046Y739495D01*
X207700Y741936D01*
Y744464D01*
X207046Y746906D01*
X205782Y749095D01*
X203995Y750882D01*
X201805Y752146D01*
X199364Y752800D01*
X196836D01*
X194395Y752146D01*
X192206Y750882D01*
X190418Y749095D01*
X189154Y746906D01*
X188500Y744464D01*
Y741936D01*
X188890Y740479D01*
X156756Y708344D01*
X156604Y708118D01*
X155588Y708426D01*
Y719600D01*
X195379Y759390D01*
X196836Y759000D01*
X199364D01*
X201805Y759654D01*
X203995Y760918D01*
X205782Y762706D01*
X207046Y764895D01*
X207700Y767336D01*
Y769864D01*
X207046Y772306D01*
X205782Y774495D01*
X203995Y776282D01*
X201805Y777546D01*
X199364Y778200D01*
X196836D01*
X194395Y777546D01*
X192206Y776282D01*
X190418Y774495D01*
X189154Y772306D01*
X188500Y769864D01*
Y767336D01*
X188890Y765879D01*
X148684Y725673D01*
X147668Y726094D01*
Y737079D01*
X195379Y784790D01*
X196836Y784400D01*
X199364D01*
X201805Y785054D01*
X203995Y786318D01*
X205782Y788105D01*
X207046Y790295D01*
X207700Y792736D01*
Y795264D01*
X207046Y797706D01*
X205782Y799895D01*
X203995Y801682D01*
X201805Y802946D01*
X199364Y803600D01*
X196836D01*
X194395Y802946D01*
X192206Y801682D01*
X190418Y799895D01*
X189154Y797706D01*
X188500Y795264D01*
Y792736D01*
X188890Y791279D01*
X139836Y742224D01*
X139374Y741534D01*
X138358Y741842D01*
X138358Y964400D01*
X140412D01*
Y956000D01*
X140761Y954244D01*
X141756Y952756D01*
X154756Y939756D01*
X156244Y938761D01*
X158000Y938412D01*
X183900D01*
X187169Y935143D01*
X186780Y934204D01*
X184700D01*
X183627Y933990D01*
X182717Y933383D01*
X182110Y932473D01*
X181896Y931400D01*
Y913200D01*
X182110Y912127D01*
X182717Y911217D01*
X183627Y910610D01*
X184700Y910396D01*
X189200D01*
X190273Y910610D01*
X191183Y911217D01*
X191790Y912127D01*
X192004Y913200D01*
Y928980D01*
X192943Y929369D01*
X194596Y927715D01*
Y925731D01*
X194563Y925699D01*
X193650Y923493D01*
Y921106D01*
X194563Y918901D01*
X194596Y918869D01*
Y913200D01*
X194810Y912127D01*
X195417Y911217D01*
X196327Y910610D01*
X197400Y910396D01*
X199480D01*
X199869Y909457D01*
X196999Y906588D01*
X180800D01*
X171500Y915889D01*
Y928600D01*
X156500D01*
Y909400D01*
X165011D01*
X175656Y898756D01*
X177144Y897761D01*
X178900Y897412D01*
X198900D01*
X200656Y897761D01*
X202144Y898756D01*
X213785Y910396D01*
X214600D01*
X215673Y910610D01*
X216583Y911217D01*
X217190Y912127D01*
X217404Y913200D01*
Y918869D01*
X217437Y918901D01*
X218350Y921106D01*
Y923493D01*
X217437Y925699D01*
X217404Y925731D01*
Y931400D01*
X217190Y932473D01*
X216583Y933383D01*
X215673Y933990D01*
X214600Y934204D01*
X210100D01*
X209027Y933990D01*
X208117Y933383D01*
X207510Y932473D01*
X207296Y931400D01*
Y925731D01*
X207263Y925699D01*
X206550Y923976D01*
X205450D01*
X204736Y925699D01*
X204704Y925731D01*
Y931400D01*
X204490Y932473D01*
X203883Y933383D01*
X202973Y933990D01*
X201900Y934204D01*
X201085D01*
X189044Y946244D01*
X187556Y947239D01*
X185800Y947588D01*
X159901D01*
X149588Y957900D01*
Y964400D01*
X152500D01*
Y983600D01*
X141416D01*
X141027Y984539D01*
X144901Y988412D01*
X169496D01*
X169884Y987473D01*
X166011Y983600D01*
X157500D01*
Y964400D01*
X172500D01*
Y977111D01*
X183801Y988412D01*
X196000D01*
X199869Y984543D01*
X199480Y983604D01*
X197400D01*
X196327Y983390D01*
X195417Y982783D01*
X194810Y981873D01*
X194596Y980800D01*
Y962600D01*
X194810Y961527D01*
X195417Y960617D01*
X196327Y960010D01*
X196683Y959939D01*
X196906Y959606D01*
X207756Y948756D01*
X209244Y947761D01*
X211000Y947412D01*
X237899D01*
X253361Y931950D01*
X201325Y879914D01*
X194300D01*
X192037Y879464D01*
X190118Y878182D01*
X188836Y876263D01*
X188386Y874000D01*
Y866400D01*
X188836Y864137D01*
X190118Y862218D01*
X192037Y860937D01*
X194300Y860486D01*
X201900D01*
X204163Y860937D01*
X206082Y862218D01*
X207363Y864137D01*
X207814Y866400D01*
Y873425D01*
X261751Y927362D01*
X276500D01*
Y926950D01*
X290693D01*
X290756Y926856D01*
X305500Y912111D01*
Y899400D01*
X320500D01*
Y918600D01*
X311989D01*
X298500Y932089D01*
Y936950D01*
X276500D01*
Y936538D01*
X261750D01*
X243044Y955244D01*
X241556Y956239D01*
X239800Y956588D01*
X212901D01*
X210709Y958780D01*
X211129Y959796D01*
X214600D01*
X215673Y960010D01*
X216583Y960617D01*
X217190Y961527D01*
X217404Y962600D01*
Y980800D01*
X217190Y981873D01*
X216583Y982783D01*
X215673Y983390D01*
X214600Y983604D01*
X213785D01*
X203327Y994061D01*
X203716Y995000D01*
X335985D01*
X337917Y994616D01*
D02*
G37*
G36*
X137573Y994061D02*
X130526Y987014D01*
X129531Y985526D01*
X129182Y983770D01*
Y794934D01*
X128243Y794546D01*
X54714Y868075D01*
Y875100D01*
X54264Y877363D01*
X52982Y879282D01*
X51063Y880564D01*
X48800Y881014D01*
X41200D01*
X38937Y880564D01*
X37018Y879282D01*
X35736Y877363D01*
X35286Y875100D01*
Y867500D01*
X35736Y865237D01*
X37018Y863318D01*
X38937Y862037D01*
X41200Y861586D01*
X48225D01*
X121412Y788400D01*
Y777226D01*
X120396Y776918D01*
X120244Y777144D01*
X54210Y843179D01*
X54600Y844636D01*
Y847164D01*
X53946Y849605D01*
X52682Y851795D01*
X50894Y853582D01*
X48706Y854846D01*
X46264Y855500D01*
X43736D01*
X41295Y854846D01*
X39106Y853582D01*
X37318Y851795D01*
X36054Y849605D01*
X35400Y847164D01*
Y844636D01*
X36054Y842195D01*
X37318Y840005D01*
X39106Y838218D01*
X41295Y836954D01*
X43736Y836300D01*
X46264D01*
X47721Y836691D01*
X112412Y772000D01*
Y760826D01*
X111396Y760518D01*
X111244Y760744D01*
X54210Y817779D01*
X54600Y819236D01*
Y821764D01*
X53946Y824205D01*
X52682Y826395D01*
X50894Y828182D01*
X48706Y829446D01*
X46264Y830100D01*
X43736D01*
X41295Y829446D01*
X39106Y828182D01*
X37318Y826395D01*
X36054Y824205D01*
X35400Y821764D01*
Y819236D01*
X36054Y816795D01*
X37318Y814605D01*
X39106Y812818D01*
X41295Y811554D01*
X43736Y810900D01*
X46264D01*
X47721Y811291D01*
X103412Y755600D01*
Y744614D01*
X102396Y744193D01*
X54210Y792379D01*
X54600Y793836D01*
Y796364D01*
X53946Y798805D01*
X52682Y800994D01*
X50894Y802782D01*
X48706Y804046D01*
X46264Y804700D01*
X43736D01*
X41295Y804046D01*
X39106Y802782D01*
X37318Y800994D01*
X36054Y798805D01*
X35400Y796364D01*
Y793836D01*
X36054Y791395D01*
X37318Y789205D01*
X39106Y787418D01*
X41295Y786154D01*
X43736Y785500D01*
X46264D01*
X47721Y785891D01*
X95412Y738199D01*
Y728510D01*
X94396Y728089D01*
X93399Y729087D01*
X91194Y730000D01*
X88806D01*
X86601Y729087D01*
X84913Y727399D01*
X84000Y725193D01*
Y722806D01*
X84913Y720601D01*
X86601Y718913D01*
X87412Y718578D01*
Y680401D01*
X86473Y680012D01*
X86399Y680087D01*
X84193Y681000D01*
X81806D01*
X81257Y680772D01*
X80479Y681550D01*
X81000Y682806D01*
Y685193D01*
X80087Y687399D01*
X78399Y689087D01*
X76193Y690000D01*
X73807D01*
X72604Y689502D01*
X71588Y690181D01*
Y693103D01*
X72087Y693601D01*
X73000Y695807D01*
Y698194D01*
X72087Y700399D01*
X70399Y702087D01*
X68193Y703000D01*
X65806D01*
X64604Y702502D01*
X63588Y703181D01*
Y709103D01*
X64087Y709601D01*
X65000Y711806D01*
Y714193D01*
X64087Y716399D01*
X62399Y718086D01*
X60194Y719000D01*
X57807D01*
X55601Y718086D01*
X54600Y718522D01*
Y720164D01*
X53946Y722606D01*
X52682Y724794D01*
X50894Y726582D01*
X48706Y727846D01*
X46264Y728500D01*
X43736D01*
X42279Y728110D01*
X14588Y755800D01*
Y766974D01*
X15604Y767282D01*
X15756Y767056D01*
X35791Y747021D01*
X35400Y745564D01*
Y743036D01*
X36054Y740595D01*
X37318Y738406D01*
X39106Y736618D01*
X41295Y735354D01*
X43736Y734700D01*
X46264D01*
X48706Y735354D01*
X50894Y736618D01*
X52682Y738406D01*
X53946Y740595D01*
X54600Y743036D01*
Y745564D01*
X53946Y748006D01*
X52682Y750194D01*
X50894Y751982D01*
X48706Y753246D01*
X46264Y753900D01*
X43736D01*
X42279Y753510D01*
X23588Y772200D01*
Y783186D01*
X24604Y783607D01*
X35791Y772421D01*
X35400Y770964D01*
Y768436D01*
X36054Y765995D01*
X37318Y763805D01*
X39106Y762018D01*
X41295Y760754D01*
X43736Y760100D01*
X46264D01*
X48706Y760754D01*
X50894Y762018D01*
X52682Y763805D01*
X53946Y765995D01*
X54600Y768436D01*
Y770964D01*
X53946Y773406D01*
X52682Y775594D01*
X50894Y777382D01*
X48706Y778646D01*
X46264Y779300D01*
X43736D01*
X42279Y778910D01*
X31588Y789601D01*
Y844103D01*
X32087Y844601D01*
X33000Y846806D01*
Y849193D01*
X32087Y851399D01*
X30399Y853087D01*
X28194Y854000D01*
X25807D01*
X23601Y853087D01*
X21913Y851399D01*
X21000Y849193D01*
Y846806D01*
X21913Y844601D01*
X22412Y844103D01*
Y826181D01*
X21396Y825502D01*
X20194Y826000D01*
X17807D01*
X15601Y825087D01*
X13913Y823399D01*
X13000Y821193D01*
Y818807D01*
X13913Y816601D01*
X14412Y816103D01*
Y803401D01*
X13473Y803012D01*
X13399Y803087D01*
X11193Y804000D01*
X8806D01*
X6601Y803087D01*
X5939Y802424D01*
X5000Y802813D01*
Y980000D01*
Y981477D01*
X5576Y984375D01*
X6707Y987105D01*
X8349Y989562D01*
X10438Y991651D01*
X12895Y993293D01*
X15625Y994424D01*
X18523Y995000D01*
X137184D01*
X137573Y994061D01*
D02*
G37*
G36*
X896114Y892132D02*
Y708349D01*
X895548Y707930D01*
X894569Y708376D01*
Y892115D01*
X895563Y892561D01*
X896114Y892132D01*
D02*
G37*
G36*
X6756Y750656D02*
X35791Y721621D01*
X35400Y720164D01*
Y717636D01*
X36054Y715195D01*
X37318Y713006D01*
X39106Y711218D01*
X41295Y709954D01*
X43736Y709300D01*
X46264D01*
X48706Y709954D01*
X50894Y711218D01*
X51984Y712308D01*
X53000Y711887D01*
Y711806D01*
X53913Y709601D01*
X54412Y709103D01*
Y698430D01*
X53396Y698158D01*
X52682Y699395D01*
X50894Y701182D01*
X48706Y702446D01*
X46264Y703100D01*
X43736D01*
X41295Y702446D01*
X39106Y701182D01*
X37318Y699395D01*
X36054Y697206D01*
X35400Y694764D01*
Y692236D01*
X36054Y689795D01*
X37318Y687606D01*
X39106Y685818D01*
X41295Y684554D01*
X43736Y683900D01*
X46264D01*
X48706Y684554D01*
X50894Y685818D01*
X52682Y687606D01*
X53396Y688842D01*
X54412Y688570D01*
Y673030D01*
X53396Y672758D01*
X52682Y673995D01*
X50894Y675782D01*
X48706Y677046D01*
X46264Y677700D01*
X43736D01*
X41295Y677046D01*
X39106Y675782D01*
X37318Y673995D01*
X36054Y671805D01*
X35400Y669364D01*
Y666836D01*
X36054Y664395D01*
X37318Y662206D01*
X39106Y660418D01*
X41295Y659154D01*
X43736Y658500D01*
X46264D01*
X48706Y659154D01*
X50894Y660418D01*
X52682Y662206D01*
X53396Y663442D01*
X54412Y663170D01*
Y647630D01*
X53396Y647358D01*
X52682Y648595D01*
X50894Y650382D01*
X48706Y651646D01*
X46264Y652300D01*
X43736D01*
X41295Y651646D01*
X39106Y650382D01*
X37318Y648595D01*
X36054Y646405D01*
X35400Y643964D01*
Y641436D01*
X35791Y639979D01*
X7756Y611944D01*
X6761Y610456D01*
X6412Y608700D01*
Y435358D01*
X6016Y435002D01*
X5000Y435454D01*
Y751454D01*
X6016Y751763D01*
X6756Y750656D01*
D02*
G37*
G36*
X980084Y989462D02*
X982632Y988407D01*
X984924Y986874D01*
X986874Y984924D01*
X988407Y982632D01*
X989462Y980084D01*
X990000Y977379D01*
Y976000D01*
Y694196D01*
X988984Y694063D01*
X988946Y694205D01*
X987682Y696395D01*
X985894Y698182D01*
X983705Y699446D01*
X981264Y700100D01*
X978736D01*
X976294Y699446D01*
X974106Y698182D01*
X972318Y696395D01*
X971054Y694205D01*
X970400Y691764D01*
Y689236D01*
X971054Y686795D01*
X972318Y684605D01*
X974106Y682818D01*
X976294Y681554D01*
X978736Y680900D01*
X981264D01*
X983705Y681554D01*
X985894Y682818D01*
X987682Y684605D01*
X988946Y686795D01*
X988984Y686937D01*
X990000Y686804D01*
Y668796D01*
X988984Y668663D01*
X988946Y668805D01*
X987682Y670994D01*
X985894Y672782D01*
X983705Y674046D01*
X981264Y674700D01*
X978736D01*
X976294Y674046D01*
X974106Y672782D01*
X972318Y670994D01*
X971054Y668805D01*
X970400Y666364D01*
Y663836D01*
X971054Y661395D01*
X972318Y659205D01*
X974106Y657418D01*
X976294Y656154D01*
X978736Y655500D01*
X981264D01*
X983705Y656154D01*
X985894Y657418D01*
X987682Y659205D01*
X988946Y661395D01*
X988984Y661537D01*
X990000Y661404D01*
Y643397D01*
X988984Y643263D01*
X988946Y643405D01*
X987682Y645594D01*
X985894Y647382D01*
X983705Y648646D01*
X981264Y649300D01*
X978736D01*
X976294Y648646D01*
X974106Y647382D01*
X972318Y645594D01*
X971054Y643405D01*
X970400Y640964D01*
Y638436D01*
X971054Y635994D01*
X972318Y633806D01*
X974106Y632018D01*
X976294Y630754D01*
X978736Y630100D01*
X981264D01*
X983705Y630754D01*
X985894Y632018D01*
X987682Y633806D01*
X988946Y635994D01*
X988984Y636137D01*
X990000Y636003D01*
Y617996D01*
X988984Y617863D01*
X988946Y618005D01*
X987682Y620195D01*
X985894Y621982D01*
X983705Y623246D01*
X981264Y623900D01*
X978736D01*
X976294Y623246D01*
X974106Y621982D01*
X972318Y620195D01*
X971054Y618005D01*
X970400Y615564D01*
Y613036D01*
X971054Y610594D01*
X972318Y608405D01*
X974106Y606618D01*
X976294Y605354D01*
X978736Y604700D01*
X981264D01*
X983705Y605354D01*
X985894Y606618D01*
X987682Y608405D01*
X988946Y610594D01*
X988984Y610737D01*
X990000Y610603D01*
Y592597D01*
X988984Y592463D01*
X988946Y592605D01*
X987682Y594795D01*
X985894Y596582D01*
X983705Y597846D01*
X981264Y598500D01*
X978736D01*
X976294Y597846D01*
X974106Y596582D01*
X972318Y594795D01*
X971054Y592605D01*
X970400Y590164D01*
Y587636D01*
X971054Y585195D01*
X972318Y583005D01*
X974106Y581218D01*
X976294Y579954D01*
X978736Y579300D01*
X981264D01*
X983705Y579954D01*
X985894Y581218D01*
X987682Y583005D01*
X988946Y585195D01*
X988984Y585337D01*
X990000Y585204D01*
Y567197D01*
X988984Y567063D01*
X988946Y567205D01*
X987682Y569394D01*
X985894Y571182D01*
X983705Y572446D01*
X981264Y573100D01*
X978736D01*
X976294Y572446D01*
X974106Y571182D01*
X972318Y569394D01*
X971054Y567205D01*
X970400Y564764D01*
Y562236D01*
X971054Y559795D01*
X972318Y557606D01*
X974106Y555818D01*
X976294Y554554D01*
X978736Y553900D01*
X981264D01*
X983705Y554554D01*
X985894Y555818D01*
X987682Y557606D01*
X988946Y559795D01*
X988984Y559937D01*
X990000Y559804D01*
Y541796D01*
X988984Y541663D01*
X988946Y541805D01*
X987682Y543994D01*
X985894Y545782D01*
X983705Y547046D01*
X981264Y547700D01*
X978736D01*
X976294Y547046D01*
X974106Y545782D01*
X972318Y543994D01*
X971054Y541805D01*
X970400Y539364D01*
Y536836D01*
X971054Y534394D01*
X972318Y532206D01*
X974106Y530418D01*
X976294Y529154D01*
X978736Y528500D01*
X981264D01*
X983705Y529154D01*
X985894Y530418D01*
X987682Y532206D01*
X988946Y534394D01*
X988984Y534537D01*
X990000Y534403D01*
Y516396D01*
X988984Y516263D01*
X988946Y516405D01*
X987682Y518595D01*
X985894Y520382D01*
X983705Y521646D01*
X981264Y522300D01*
X978736D01*
X976294Y521646D01*
X974106Y520382D01*
X972318Y518595D01*
X971054Y516405D01*
X970400Y513964D01*
Y511436D01*
X971054Y508994D01*
X972318Y506805D01*
X974106Y505018D01*
X976294Y503754D01*
X978736Y503100D01*
X981264D01*
X983705Y503754D01*
X985894Y505018D01*
X987682Y506805D01*
X988946Y508994D01*
X988984Y509137D01*
X990000Y509003D01*
Y490997D01*
X988984Y490863D01*
X988946Y491005D01*
X987682Y493195D01*
X985894Y494982D01*
X983705Y496246D01*
X981264Y496900D01*
X978736D01*
X976294Y496246D01*
X974106Y494982D01*
X972318Y493195D01*
X971054Y491005D01*
X970400Y488564D01*
Y486036D01*
X971054Y483595D01*
X972318Y481405D01*
X974106Y479618D01*
X976294Y478354D01*
X978736Y477700D01*
X981264D01*
X983705Y478354D01*
X985894Y479618D01*
X987682Y481405D01*
X988946Y483595D01*
X988984Y483737D01*
X990000Y483604D01*
Y465597D01*
X988984Y465463D01*
X988946Y465605D01*
X987682Y467794D01*
X985894Y469582D01*
X983705Y470846D01*
X981264Y471500D01*
X978736D01*
X976294Y470846D01*
X974106Y469582D01*
X972318Y467794D01*
X971054Y465605D01*
X970400Y463164D01*
Y460636D01*
X971054Y458195D01*
X972318Y456006D01*
X974106Y454218D01*
X976294Y452954D01*
X978736Y452300D01*
X981264D01*
X983705Y452954D01*
X985894Y454218D01*
X987682Y456006D01*
X988946Y458195D01*
X988984Y458337D01*
X990000Y458204D01*
Y440196D01*
X988984Y440063D01*
X988946Y440205D01*
X987682Y442394D01*
X985894Y444182D01*
X983705Y445446D01*
X981264Y446100D01*
X978736D01*
X976294Y445446D01*
X974106Y444182D01*
X972318Y442394D01*
X971054Y440205D01*
X970400Y437764D01*
Y435236D01*
X971054Y432794D01*
X972318Y430606D01*
X974106Y428818D01*
X976294Y427554D01*
X978736Y426900D01*
X981264D01*
X983705Y427554D01*
X985894Y428818D01*
X987682Y430606D01*
X988946Y432794D01*
X988984Y432937D01*
X990000Y432803D01*
Y414796D01*
X988984Y414663D01*
X988946Y414805D01*
X987682Y416995D01*
X985894Y418782D01*
X983705Y420046D01*
X981264Y420700D01*
X978736D01*
X976294Y420046D01*
X974106Y418782D01*
X972318Y416995D01*
X971054Y414805D01*
X970400Y412364D01*
Y409836D01*
X971054Y407394D01*
X972318Y405205D01*
X974106Y403418D01*
X976294Y402154D01*
X978736Y401500D01*
X981264D01*
X983705Y402154D01*
X985894Y403418D01*
X987682Y405205D01*
X988946Y407394D01*
X988984Y407537D01*
X990000Y407403D01*
Y389397D01*
X988984Y389263D01*
X988946Y389405D01*
X987682Y391595D01*
X985894Y393382D01*
X983705Y394646D01*
X981264Y395300D01*
X978736D01*
X976294Y394646D01*
X974106Y393382D01*
X972318Y391595D01*
X971054Y389405D01*
X970400Y386964D01*
Y384436D01*
X971054Y381995D01*
X972318Y379805D01*
X974106Y378018D01*
X976294Y376754D01*
X978736Y376100D01*
X981264D01*
X983705Y376754D01*
X985894Y378018D01*
X987682Y379805D01*
X988946Y381995D01*
X988984Y382137D01*
X990000Y382004D01*
Y363997D01*
X988984Y363863D01*
X988946Y364005D01*
X987682Y366194D01*
X985894Y367982D01*
X983705Y369246D01*
X981264Y369900D01*
X978736D01*
X976294Y369246D01*
X974106Y367982D01*
X972318Y366194D01*
X971054Y364005D01*
X970400Y361564D01*
Y359036D01*
X971054Y356595D01*
X972318Y354406D01*
X974106Y352618D01*
X976294Y351354D01*
X978736Y350700D01*
X981264D01*
X983705Y351354D01*
X985894Y352618D01*
X987682Y354406D01*
X988946Y356595D01*
X988984Y356737D01*
X990000Y356604D01*
Y338596D01*
X988984Y338463D01*
X988946Y338605D01*
X987682Y340794D01*
X985894Y342582D01*
X983705Y343846D01*
X981264Y344500D01*
X978736D01*
X976294Y343846D01*
X974106Y342582D01*
X972318Y340794D01*
X971054Y338605D01*
X970400Y336164D01*
Y333636D01*
X971054Y331194D01*
X972318Y329006D01*
X974106Y327218D01*
X976294Y325954D01*
X978736Y325300D01*
X981264D01*
X983705Y325954D01*
X985894Y327218D01*
X987682Y329006D01*
X988946Y331194D01*
X988984Y331337D01*
X990000Y331203D01*
Y316290D01*
X988984Y315981D01*
X987982Y317482D01*
X986063Y318764D01*
X983800Y319214D01*
X976200D01*
X973937Y318764D01*
X972018Y317482D01*
X970736Y315563D01*
X970286Y313300D01*
Y310680D01*
X945569D01*
Y429313D01*
X946857Y430601D01*
X947770Y432806D01*
Y435193D01*
X946857Y437399D01*
X945569Y438687D01*
Y621313D01*
X946857Y622601D01*
X947770Y624806D01*
Y627193D01*
X946857Y629399D01*
X945454Y630802D01*
Y814968D01*
X947086Y816601D01*
X948000Y818807D01*
Y821193D01*
X947086Y823399D01*
X945399Y825087D01*
X943194Y826000D01*
X940807D01*
X939085Y825287D01*
X938069Y825881D01*
Y827583D01*
X939087Y828601D01*
X940000Y830807D01*
Y833194D01*
X939087Y835399D01*
X937399Y837087D01*
X935193Y838000D01*
X932806D01*
X931585Y837494D01*
X930569Y838173D01*
Y840083D01*
X932087Y841601D01*
X933000Y843807D01*
Y846193D01*
X932087Y848399D01*
X930399Y850087D01*
X928194Y851000D01*
X925807D01*
X924585Y850494D01*
X923569Y851173D01*
Y854083D01*
X925087Y855601D01*
X926000Y857806D01*
Y860193D01*
X925087Y862399D01*
X923399Y864087D01*
X921193Y865000D01*
X918807D01*
X918300Y864790D01*
X917349Y865496D01*
X917390Y865910D01*
X917399Y865913D01*
X919087Y867601D01*
X920000Y869807D01*
Y872194D01*
X919087Y874399D01*
X917399Y876087D01*
X915193Y877000D01*
X912806D01*
X911085Y876287D01*
X910069Y876881D01*
Y878777D01*
X910399Y878913D01*
X912086Y880601D01*
X913000Y882806D01*
Y885193D01*
X912086Y887399D01*
X910399Y889087D01*
X908194Y890000D01*
X905807D01*
X904267Y889362D01*
X903251Y890041D01*
Y891852D01*
X903399Y891914D01*
X905087Y893601D01*
X906000Y895807D01*
Y898194D01*
X905087Y900399D01*
X903399Y902087D01*
X901193Y903000D01*
X898807D01*
X896601Y902087D01*
X894913Y900399D01*
X894000Y898194D01*
Y897484D01*
X892984Y897063D01*
X880306Y909741D01*
Y913367D01*
X856965D01*
Y904033D01*
X869458D01*
X869802Y903964D01*
X875989D01*
X878347Y901606D01*
X877959Y900667D01*
X872454D01*
X872034Y901087D01*
X869829Y902000D01*
X867442D01*
X865237Y901087D01*
X864817Y900667D01*
X856965D01*
Y891333D01*
X864817D01*
X865237Y890913D01*
X866960Y890200D01*
Y889100D01*
X865237Y888387D01*
X864817Y887967D01*
X856965D01*
Y878633D01*
X864817D01*
X865237Y878214D01*
X866960Y877500D01*
Y876400D01*
X865237Y875687D01*
X864817Y875267D01*
X856965D01*
Y865933D01*
X864817D01*
X865237Y865514D01*
X866960Y864800D01*
Y863700D01*
X865237Y862987D01*
X864817Y862567D01*
X856965D01*
Y853233D01*
X864817D01*
X865237Y852813D01*
X866960Y852100D01*
Y851000D01*
X865237Y850287D01*
X864817Y849867D01*
X856965D01*
Y840533D01*
X864817D01*
X865237Y840114D01*
X866960Y839400D01*
Y838300D01*
X865237Y837587D01*
X864817Y837167D01*
X856965D01*
Y827833D01*
X864817D01*
X865237Y827413D01*
X866960Y826700D01*
Y825600D01*
X865237Y824887D01*
X864817Y824467D01*
X856965D01*
Y815133D01*
X864817D01*
X865237Y814714D01*
X866960Y814000D01*
Y812900D01*
X865237Y812187D01*
X864817Y811767D01*
X856965D01*
Y802433D01*
X864817D01*
X865237Y802013D01*
X866960Y801300D01*
Y800200D01*
X865237Y799487D01*
X864817Y799067D01*
X856965D01*
Y789733D01*
X864817D01*
X865237Y789314D01*
X866960Y788600D01*
Y787500D01*
X865237Y786787D01*
X864817Y786367D01*
X856965D01*
Y777033D01*
X864817D01*
X865237Y776613D01*
X866960Y775900D01*
Y774800D01*
X865237Y774087D01*
X864817Y773667D01*
X856965D01*
Y764333D01*
X864817D01*
X865237Y763913D01*
X867442Y763000D01*
X869829D01*
X872034Y763913D01*
X872454Y764333D01*
X880306D01*
Y773667D01*
X872454D01*
X872034Y774087D01*
X870311Y774800D01*
Y775900D01*
X872034Y776613D01*
X872454Y777033D01*
X880306D01*
Y786367D01*
X872454D01*
X872034Y786787D01*
X870311Y787500D01*
Y788600D01*
X872034Y789314D01*
X872454Y789733D01*
X880306D01*
Y799067D01*
X872454D01*
X872034Y799487D01*
X870311Y800200D01*
Y801300D01*
X872034Y802013D01*
X872454Y802433D01*
X880306D01*
Y811767D01*
X872454D01*
X872034Y812187D01*
X870311Y812900D01*
Y814000D01*
X872034Y814714D01*
X872454Y815133D01*
X880306D01*
Y824467D01*
X872454D01*
X872034Y824887D01*
X870311Y825600D01*
Y826700D01*
X872034Y827413D01*
X872454Y827833D01*
X880306D01*
Y837167D01*
X872454D01*
X872034Y837587D01*
X870311Y838300D01*
Y839400D01*
X872034Y840114D01*
X872454Y840533D01*
X880306D01*
Y849867D01*
X872454D01*
X872034Y850287D01*
X870311Y851000D01*
Y852100D01*
X872034Y852813D01*
X872454Y853233D01*
X880306D01*
Y862567D01*
X872454D01*
X872034Y862987D01*
X870311Y863700D01*
Y864800D01*
X872034Y865514D01*
X872454Y865933D01*
X880306D01*
Y875267D01*
X872454D01*
X872034Y875687D01*
X870311Y876400D01*
Y877500D01*
X872034Y878214D01*
X872454Y878633D01*
X880306D01*
Y887967D01*
X872454D01*
X872034Y888387D01*
X870311Y889100D01*
Y890200D01*
X872034Y890913D01*
X872454Y891333D01*
X880306D01*
Y898320D01*
X881245Y898709D01*
X887431Y892522D01*
Y712182D01*
X886493Y711793D01*
X881306Y716980D01*
Y721267D01*
X857965D01*
Y711933D01*
X876259D01*
X878687Y709506D01*
X878298Y708567D01*
X873454D01*
X873034Y708987D01*
X870829Y709900D01*
X868442D01*
X866237Y708987D01*
X865817Y708567D01*
X857965D01*
Y699233D01*
X865817D01*
X866237Y698813D01*
X867960Y698100D01*
Y697000D01*
X866237Y696287D01*
X865817Y695867D01*
X857965D01*
Y686533D01*
X865817D01*
X866237Y686114D01*
X867960Y685400D01*
Y684300D01*
X866237Y683587D01*
X865817Y683167D01*
X857965D01*
Y673833D01*
X865817D01*
X866237Y673413D01*
X867960Y672700D01*
Y671600D01*
X866237Y670887D01*
X865817Y670467D01*
X857965D01*
Y661133D01*
X865817D01*
X866237Y660714D01*
X867960Y660000D01*
Y658900D01*
X866237Y658187D01*
X865817Y657767D01*
X857965D01*
Y648433D01*
X865817D01*
X866237Y648014D01*
X867960Y647300D01*
Y646200D01*
X866237Y645487D01*
X865817Y645067D01*
X857965D01*
Y635733D01*
X865817D01*
X866237Y635313D01*
X867960Y634600D01*
Y633500D01*
X866237Y632787D01*
X865817Y632367D01*
X857965D01*
Y623033D01*
X865817D01*
X866237Y622613D01*
X867960Y621900D01*
Y620800D01*
X866237Y620087D01*
X865817Y619667D01*
X857965D01*
Y610333D01*
X865817D01*
X866237Y609913D01*
X867960Y609200D01*
Y608100D01*
X866237Y607387D01*
X865817Y606967D01*
X857965D01*
Y597633D01*
X865817D01*
X866237Y597214D01*
X867960Y596500D01*
Y595400D01*
X866237Y594687D01*
X865817Y594267D01*
X857965D01*
Y584933D01*
X865817D01*
X866237Y584514D01*
X867960Y583800D01*
Y582700D01*
X866237Y581987D01*
X865817Y581567D01*
X857965D01*
Y572233D01*
X865817D01*
X866237Y571814D01*
X868442Y570900D01*
X870829D01*
X873034Y571814D01*
X873454Y572233D01*
X881306D01*
Y581567D01*
X873454D01*
X873034Y581987D01*
X871311Y582700D01*
Y583800D01*
X873034Y584514D01*
X873454Y584933D01*
X881306D01*
Y594267D01*
X873454D01*
X873034Y594687D01*
X871311Y595400D01*
Y596500D01*
X873034Y597214D01*
X873454Y597633D01*
X881306D01*
Y606967D01*
X873454D01*
X873034Y607387D01*
X871311Y608100D01*
Y609200D01*
X873034Y609913D01*
X873454Y610333D01*
X881306D01*
Y619667D01*
X873454D01*
X873034Y620087D01*
X871311Y620800D01*
Y621900D01*
X873034Y622613D01*
X873454Y623033D01*
X881306D01*
Y632367D01*
X873454D01*
X873034Y632787D01*
X871311Y633500D01*
Y634600D01*
X873034Y635313D01*
X873454Y635733D01*
X881306D01*
Y645067D01*
X873454D01*
X873034Y645487D01*
X871311Y646200D01*
Y647300D01*
X873034Y648014D01*
X873454Y648433D01*
X881306D01*
Y657767D01*
X873454D01*
X873034Y658187D01*
X871311Y658900D01*
Y660000D01*
X873034Y660714D01*
X873454Y661133D01*
X881306D01*
Y670467D01*
X873454D01*
X873034Y670887D01*
X871311Y671600D01*
Y672700D01*
X873034Y673413D01*
X873454Y673833D01*
X881306D01*
Y683167D01*
X873454D01*
X873034Y683587D01*
X871311Y684300D01*
Y685400D01*
X873034Y686114D01*
X873454Y686533D01*
X881306D01*
Y695867D01*
X873454D01*
X873034Y696287D01*
X871311Y697000D01*
Y698100D01*
X873034Y698813D01*
X873454Y699233D01*
X881306D01*
Y705559D01*
X882245Y705948D01*
X887431Y700761D01*
Y520182D01*
X886493Y519793D01*
X881306Y524980D01*
Y529267D01*
X873454D01*
X873034Y529687D01*
X870829Y530600D01*
X868442D01*
X866237Y529687D01*
X865817Y529267D01*
X862415D01*
X862026Y530206D01*
X864454Y532633D01*
X881306D01*
Y541967D01*
X857965D01*
Y539122D01*
X849330Y530486D01*
X848335Y528998D01*
X848043Y527528D01*
X846913Y526399D01*
X846000Y524193D01*
Y521806D01*
X846913Y519601D01*
X848601Y517913D01*
X850807Y517000D01*
X853194D01*
X855399Y517913D01*
X857086Y519601D01*
X857965Y519933D01*
X857965Y519933D01*
Y519933D01*
X857965Y519933D01*
X865817D01*
X866237Y519514D01*
X867960Y518800D01*
Y517700D01*
X866237Y516987D01*
X865817Y516567D01*
X857965D01*
Y507233D01*
X865817D01*
X866237Y506814D01*
X867960Y506100D01*
Y505000D01*
X866237Y504287D01*
X865817Y503867D01*
X857965D01*
Y494533D01*
X865817D01*
X866237Y494114D01*
X867960Y493400D01*
Y492300D01*
X866237Y491587D01*
X865817Y491167D01*
X857965D01*
Y481833D01*
X865817D01*
X866237Y481413D01*
X867960Y480700D01*
Y479600D01*
X866237Y478887D01*
X865817Y478467D01*
X857965D01*
Y469133D01*
X865817D01*
X866237Y468713D01*
X867960Y468000D01*
Y466900D01*
X866237Y466187D01*
X865817Y465767D01*
X857965D01*
Y456433D01*
X865817D01*
X866237Y456013D01*
X867960Y455300D01*
Y454200D01*
X866237Y453487D01*
X865817Y453067D01*
X857965D01*
Y443733D01*
X865817D01*
X866237Y443313D01*
X867960Y442600D01*
Y441500D01*
X866237Y440787D01*
X865817Y440367D01*
X857965D01*
Y431033D01*
X865817D01*
X866237Y430614D01*
X867960Y429900D01*
Y428800D01*
X866237Y428087D01*
X865817Y427667D01*
X857965D01*
Y418333D01*
X865817D01*
X866237Y417914D01*
X867960Y417200D01*
Y416100D01*
X866237Y415387D01*
X865817Y414967D01*
X857965D01*
Y405633D01*
X865817D01*
X866237Y405214D01*
X867960Y404500D01*
Y403400D01*
X866237Y402687D01*
X865817Y402267D01*
X857965D01*
Y392933D01*
X865817D01*
X866237Y392514D01*
X867960Y391800D01*
Y390700D01*
X866237Y389987D01*
X865817Y389567D01*
X857965D01*
Y380233D01*
X865817D01*
X866237Y379813D01*
X868442Y378900D01*
X870829D01*
X873034Y379813D01*
X873454Y380233D01*
X881306D01*
Y389567D01*
X873454D01*
X873034Y389987D01*
X871311Y390700D01*
Y391800D01*
X873034Y392514D01*
X873454Y392933D01*
X881306D01*
Y402267D01*
X873454D01*
X873034Y402687D01*
X871311Y403400D01*
Y404500D01*
X873034Y405214D01*
X873454Y405633D01*
X881306D01*
Y414967D01*
X873454D01*
X873034Y415387D01*
X871311Y416100D01*
Y417200D01*
X873034Y417914D01*
X873454Y418333D01*
X881306D01*
Y427667D01*
X873454D01*
X873034Y428087D01*
X871311Y428800D01*
Y429900D01*
X873034Y430614D01*
X873454Y431033D01*
X881306D01*
Y440367D01*
X873454D01*
X873034Y440787D01*
X871311Y441500D01*
Y442600D01*
X873034Y443313D01*
X873454Y443733D01*
X881306D01*
Y453067D01*
X873454D01*
X873034Y453487D01*
X871311Y454200D01*
Y455300D01*
X873034Y456013D01*
X873454Y456433D01*
X881306D01*
Y465767D01*
X873454D01*
X873034Y466187D01*
X871311Y466900D01*
Y468000D01*
X873034Y468713D01*
X873454Y469133D01*
X881306D01*
Y478467D01*
X873454D01*
X873034Y478887D01*
X871311Y479600D01*
Y480700D01*
X873034Y481413D01*
X873454Y481833D01*
X881306D01*
Y491167D01*
X873454D01*
X873034Y491587D01*
X871311Y492300D01*
Y493400D01*
X873034Y494114D01*
X873454Y494533D01*
X881306D01*
Y503867D01*
X873454D01*
X873034Y504287D01*
X871311Y505000D01*
Y506100D01*
X873034Y506814D01*
X873454Y507233D01*
X881306D01*
Y513559D01*
X882245Y513948D01*
X887431Y508761D01*
Y346489D01*
X881745Y340802D01*
X880806Y341191D01*
Y347517D01*
X857465D01*
Y347513D01*
X855972D01*
X855399Y348087D01*
X853194Y349000D01*
X850807D01*
X848601Y348087D01*
X846913Y346399D01*
X846000Y344193D01*
Y341806D01*
X846913Y339601D01*
X848601Y337913D01*
X850807Y337000D01*
X853194D01*
X855399Y337913D01*
X855822Y338337D01*
X857465D01*
Y338183D01*
X877798D01*
X878187Y337244D01*
X875759Y334817D01*
X857465D01*
Y325483D01*
X877798D01*
X878187Y324544D01*
X875759Y322117D01*
X857465D01*
Y312783D01*
X877798D01*
X878187Y311844D01*
X875759Y309417D01*
X857465D01*
Y300083D01*
X877798D01*
X878187Y299144D01*
X875759Y296717D01*
X857465D01*
Y287383D01*
X877798D01*
X878187Y286444D01*
X875759Y284017D01*
X857465D01*
Y274683D01*
X877798D01*
X878187Y273744D01*
X875759Y271317D01*
X857465D01*
Y261983D01*
X877798D01*
X878187Y261044D01*
X875759Y258617D01*
X857465D01*
Y249283D01*
X877798D01*
X878187Y248344D01*
X875759Y245917D01*
X857465D01*
Y236583D01*
X880806D01*
Y240870D01*
X943478Y303542D01*
X970715D01*
X970736Y303437D01*
X972018Y301518D01*
X973937Y300236D01*
X976200Y299786D01*
X983800D01*
X986063Y300236D01*
X987982Y301518D01*
X988984Y303019D01*
X990000Y302710D01*
Y15000D01*
Y14015D01*
X989616Y12083D01*
X988862Y10263D01*
X987767Y8625D01*
X986375Y7232D01*
X984737Y6138D01*
X982917Y5384D01*
X980985Y5000D01*
X373114D01*
X371375Y5346D01*
X369737Y6024D01*
X368263Y7009D01*
X367009Y8263D01*
X366024Y9737D01*
X365346Y11375D01*
X365000Y13114D01*
Y56822D01*
X366016Y56955D01*
X366299Y55899D01*
X367698Y53476D01*
X369676Y51498D01*
X372099Y50099D01*
X374801Y49375D01*
X377599D01*
X380301Y50099D01*
X382724Y51498D01*
X384702Y53476D01*
X386101Y55899D01*
X386825Y58601D01*
Y61399D01*
X386101Y64101D01*
X384702Y66524D01*
X382724Y68502D01*
X380301Y69901D01*
X377599Y70625D01*
X374801D01*
X372099Y69901D01*
X369676Y68502D01*
X367698Y66524D01*
X366299Y64101D01*
X366016Y63045D01*
X365000Y63178D01*
Y168327D01*
X366016Y168695D01*
X382596Y152115D01*
X382342Y151166D01*
Y148834D01*
X382946Y146581D01*
X384112Y144561D01*
X385761Y142912D01*
X387781Y141746D01*
X390034Y141142D01*
X392366D01*
X394619Y141746D01*
X396639Y142912D01*
X398288Y144561D01*
X399454Y146581D01*
X400058Y148834D01*
Y151166D01*
X399804Y152115D01*
X409100Y161412D01*
X427000D01*
Y159000D01*
X435412D01*
Y152500D01*
X430400D01*
Y137500D01*
X449600D01*
Y152500D01*
X444588D01*
Y159000D01*
X451500D01*
Y173000D01*
X427000D01*
Y170588D01*
X407200D01*
X405444Y170239D01*
X403956Y169244D01*
X393315Y158604D01*
X392366Y158858D01*
X390034D01*
X389085Y158604D01*
X373588Y174100D01*
Y209486D01*
X374604Y209907D01*
X398756Y185756D01*
X400244Y184761D01*
X402000Y184412D01*
X427000D01*
Y182000D01*
X451500D01*
Y184412D01*
X490500D01*
Y170750D01*
X515000D01*
Y207250D01*
X490500D01*
Y193588D01*
X451500D01*
Y196000D01*
X427000D01*
Y193588D01*
X403900D01*
X381588Y215900D01*
Y237099D01*
X390489Y246000D01*
X409000D01*
Y256500D01*
X384000D01*
Y252489D01*
X382527Y251015D01*
X381588Y251404D01*
Y313300D01*
X390489Y322200D01*
X409000D01*
Y322637D01*
X417400D01*
Y319500D01*
X436600D01*
Y322412D01*
X461100D01*
X466000Y317511D01*
Y306000D01*
X490000D01*
Y310412D01*
X536000D01*
Y306000D01*
X560000D01*
Y324000D01*
X536000D01*
Y319588D01*
X490000D01*
Y324000D01*
X472489D01*
X466244Y330244D01*
X464756Y331239D01*
X463000Y331588D01*
X436600D01*
Y334500D01*
X417400D01*
Y331813D01*
X409000D01*
Y332700D01*
X384000D01*
Y328689D01*
X382527Y327215D01*
X381588Y327604D01*
Y446549D01*
X382561Y447523D01*
X383500Y447134D01*
Y442250D01*
X392996D01*
X394324Y441700D01*
Y440600D01*
X392996Y440050D01*
X383500D01*
Y429550D01*
X392996D01*
X394324Y429000D01*
Y427900D01*
X392996Y427350D01*
X383500D01*
Y416850D01*
X392996D01*
X394324Y416300D01*
Y415200D01*
X392996Y414650D01*
X383500D01*
Y404150D01*
X392996D01*
X394807Y403400D01*
X397193D01*
X399004Y404150D01*
X408500D01*
Y414650D01*
X399004D01*
X397676Y415200D01*
Y416300D01*
X399004Y416850D01*
X408500D01*
Y427350D01*
X399004D01*
X397676Y427900D01*
Y429000D01*
X399004Y429550D01*
X408500D01*
Y440050D01*
X399004D01*
X397676Y440600D01*
Y441700D01*
X399004Y442250D01*
X408500D01*
Y452750D01*
X399004D01*
X397193Y453500D01*
X394807D01*
X392996Y452750D01*
X389116D01*
X388727Y453689D01*
X389989Y454950D01*
X408500D01*
Y456012D01*
X418400D01*
Y453500D01*
X437600D01*
Y468500D01*
X418400D01*
Y465188D01*
X408500D01*
Y465450D01*
X383500D01*
Y461439D01*
X382527Y460466D01*
X381588Y460854D01*
Y583299D01*
X383061Y584773D01*
X384000Y584384D01*
Y579500D01*
X393496D01*
X394824Y578950D01*
Y577850D01*
X393496Y577300D01*
X384000D01*
Y566800D01*
X393496D01*
X394824Y566250D01*
Y565150D01*
X393496Y564600D01*
X384000D01*
Y554100D01*
X393496D01*
X394824Y553550D01*
Y552450D01*
X393496Y551900D01*
X384000D01*
Y541400D01*
X393496D01*
X395307Y540650D01*
X397693D01*
X399504Y541400D01*
X409000D01*
Y551900D01*
X399504D01*
X398176Y552450D01*
Y553550D01*
X399504Y554100D01*
X409000D01*
Y564600D01*
X399504D01*
X398176Y565150D01*
Y566250D01*
X399504Y566800D01*
X409000D01*
Y577300D01*
X399504D01*
X398176Y577850D01*
Y578950D01*
X399504Y579500D01*
X409000D01*
Y590000D01*
X399504D01*
X397693Y590750D01*
X395307D01*
X393496Y590000D01*
X389616D01*
X389227Y590939D01*
X390489Y592200D01*
X409000D01*
Y593137D01*
X418400D01*
Y590500D01*
X437600D01*
Y605500D01*
X418400D01*
Y602313D01*
X409000D01*
Y602700D01*
X384000D01*
Y598689D01*
X382527Y597215D01*
X381588Y597604D01*
Y723250D01*
X382561Y724223D01*
X383500Y723834D01*
Y718950D01*
X392996D01*
X394324Y718400D01*
Y717300D01*
X392996Y716750D01*
X383500D01*
Y706250D01*
X392996D01*
X394324Y705700D01*
Y704600D01*
X392996Y704050D01*
X383500D01*
Y693550D01*
X392996D01*
X394324Y693000D01*
Y691900D01*
X392996Y691350D01*
X383500D01*
Y680850D01*
X392996D01*
X394807Y680100D01*
X397193D01*
X399004Y680850D01*
X408500D01*
Y691350D01*
X399004D01*
X397676Y691900D01*
Y693000D01*
X399004Y693550D01*
X408500D01*
Y704050D01*
X399004D01*
X397676Y704600D01*
Y705700D01*
X399004Y706250D01*
X408500D01*
Y716750D01*
X399004D01*
X397676Y717300D01*
Y718400D01*
X399004Y718950D01*
X408500D01*
Y729450D01*
X399004D01*
X397193Y730200D01*
X394807D01*
X392996Y729450D01*
X389116D01*
X388727Y730389D01*
X389989Y731650D01*
X408500D01*
Y733412D01*
X417400D01*
Y730500D01*
X430111D01*
X465856Y694756D01*
X467344Y693761D01*
X469100Y693412D01*
X504400D01*
Y690500D01*
X523600D01*
Y705500D01*
X504400D01*
Y702588D01*
X471001D01*
X467996Y705593D01*
X468625Y706400D01*
X483500D01*
Y725384D01*
X483500Y725600D01*
Y726400D01*
X483500Y726616D01*
Y745600D01*
X473443D01*
X473000Y745688D01*
X472800D01*
X443244Y775244D01*
X441756Y776239D01*
X440000Y776588D01*
X421000D01*
X419244Y776239D01*
X417756Y775244D01*
X416761Y773756D01*
X416412Y772000D01*
X416761Y770244D01*
X417756Y768756D01*
X419244Y767761D01*
X421000Y767412D01*
X438100D01*
X467656Y737856D01*
X468500Y737291D01*
Y726704D01*
X468500Y726400D01*
X467779Y725688D01*
X464795D01*
X464086Y727399D01*
X462399Y729087D01*
X460193Y730000D01*
X457807D01*
X455601Y729087D01*
X453913Y727399D01*
X453000Y725193D01*
Y722806D01*
X453552Y721473D01*
X452691Y720898D01*
X436600Y736989D01*
Y745500D01*
X417400D01*
Y742588D01*
X404350D01*
X402594Y742239D01*
X402461Y742150D01*
X383500D01*
Y738139D01*
X382527Y737166D01*
X381588Y737554D01*
Y794299D01*
X382500Y794550D01*
X382604Y794550D01*
X407500D01*
Y805050D01*
X382604D01*
X382500Y805050D01*
X381588Y805301D01*
Y806999D01*
X382500Y807250D01*
X382604Y807250D01*
X391996D01*
X393807Y806500D01*
X396194D01*
X398004Y807250D01*
X407500D01*
Y807912D01*
X411600D01*
X433756Y785756D01*
X435244Y784761D01*
X437000Y784412D01*
X719100D01*
X737756Y765756D01*
X739244Y764761D01*
X741000Y764412D01*
X762694D01*
Y764333D01*
X786035D01*
Y773667D01*
X762694D01*
Y773588D01*
X742900D01*
X724244Y792244D01*
X722756Y793239D01*
X721000Y793588D01*
X438900D01*
X416744Y815744D01*
X415256Y816739D01*
X413500Y817088D01*
X407500D01*
Y817750D01*
X398004D01*
X396676Y818300D01*
Y819400D01*
X398004Y819950D01*
X407500D01*
Y830450D01*
X398004D01*
X396676Y831000D01*
Y832100D01*
X398004Y832650D01*
X407500D01*
Y843150D01*
X398004D01*
X396676Y843700D01*
Y844800D01*
X398004Y845350D01*
X407500D01*
Y855850D01*
X398004D01*
X396676Y856400D01*
Y857500D01*
X398004Y858050D01*
X407500D01*
Y868550D01*
X398004D01*
X396194Y869300D01*
X393807D01*
X391996Y868550D01*
X388116D01*
X387727Y869489D01*
X388989Y870750D01*
X407500D01*
Y871912D01*
X417400D01*
Y869500D01*
X436600D01*
Y884500D01*
X417400D01*
Y881088D01*
X407500D01*
Y881250D01*
X382500D01*
Y877239D01*
X374604Y869343D01*
X373588Y869764D01*
Y888000D01*
Y899400D01*
X378500D01*
Y912111D01*
X393244Y926856D01*
X393307Y926950D01*
X407500D01*
Y936950D01*
X385500D01*
Y932089D01*
X372011Y918600D01*
X365000D01*
Y975000D01*
Y976477D01*
X365576Y979375D01*
X366707Y982105D01*
X368349Y984562D01*
X370438Y986651D01*
X372895Y988293D01*
X375625Y989424D01*
X378523Y990000D01*
X977379D01*
X980084Y989462D01*
D02*
G37*
G36*
X315412Y582299D02*
Y458854D01*
X314473Y458465D01*
X311500Y461439D01*
Y465450D01*
X298693D01*
X298250Y465538D01*
X285351D01*
X285100Y465588D01*
X279600D01*
Y468500D01*
X260400D01*
Y466883D01*
X259384Y466681D01*
X259087Y467399D01*
X258588Y467897D01*
Y568100D01*
X270651Y580162D01*
X287000D01*
Y579500D01*
X312000D01*
Y584384D01*
X312939Y584773D01*
X315412Y582299D01*
D02*
G37*
G36*
X895661Y697336D02*
Y516664D01*
X895585Y516612D01*
X894569Y517155D01*
Y696844D01*
X895585Y697387D01*
X895661Y697336D01*
D02*
G37*
G36*
Y505336D02*
Y342019D01*
X881745Y328102D01*
X880806Y328491D01*
Y329770D01*
X893523Y342488D01*
X894297Y343645D01*
X894569Y345011D01*
Y504844D01*
X895585Y505387D01*
X895661Y505336D01*
D02*
G37*
%LPC*%
G36*
X227300Y983604D02*
X222800D01*
X221727Y983390D01*
X220817Y982783D01*
X220210Y981873D01*
X219996Y980800D01*
Y962600D01*
X220210Y961527D01*
X220817Y960617D01*
X221727Y960010D01*
X222800Y959796D01*
X227300D01*
X228373Y960010D01*
X229283Y960617D01*
X229890Y961527D01*
X230104Y962600D01*
Y980800D01*
X229890Y981873D01*
X229283Y982783D01*
X228373Y983390D01*
X227300Y983604D01*
D02*
G37*
G36*
X189200D02*
X184700D01*
X183627Y983390D01*
X182717Y982783D01*
X182110Y981873D01*
X181896Y980800D01*
Y962600D01*
X182110Y961527D01*
X182717Y960617D01*
X183627Y960010D01*
X184700Y959796D01*
X189200D01*
X190273Y960010D01*
X191183Y960617D01*
X191790Y961527D01*
X192004Y962600D01*
Y980800D01*
X191790Y981873D01*
X191183Y982783D01*
X190273Y983390D01*
X189200Y983604D01*
D02*
G37*
G36*
X288694Y963350D02*
X286306D01*
X284101Y962437D01*
X284015Y962350D01*
X276500D01*
Y952350D01*
X284015D01*
X284101Y952263D01*
X285824Y951550D01*
Y950450D01*
X284101Y949737D01*
X284015Y949650D01*
X276500D01*
Y939650D01*
X284015D01*
X284101Y939563D01*
X286306Y938650D01*
X288694D01*
X290899Y939563D01*
X290985Y939650D01*
X298500D01*
Y949650D01*
X290985D01*
X290899Y949737D01*
X289176Y950450D01*
Y951550D01*
X290899Y952263D01*
X290985Y952350D01*
X298500D01*
Y962350D01*
X290985D01*
X290899Y962437D01*
X288694Y963350D01*
D02*
G37*
G36*
X199364Y829000D02*
X196836D01*
X194395Y828346D01*
X192206Y827082D01*
X190418Y825295D01*
X189154Y823105D01*
X188500Y820664D01*
Y818136D01*
X189154Y815695D01*
X190418Y813505D01*
X192206Y811718D01*
X194395Y810454D01*
X196836Y809800D01*
X199364D01*
X201805Y810454D01*
X203995Y811718D01*
X205782Y813505D01*
X207046Y815695D01*
X207700Y818136D01*
Y820664D01*
X207046Y823105D01*
X205782Y825295D01*
X203995Y827082D01*
X201805Y828346D01*
X199364Y829000D01*
D02*
G37*
G36*
X299193Y843900D02*
X296807D01*
X294996Y843150D01*
X285500D01*
Y832650D01*
X294996D01*
X295459Y832458D01*
Y831442D01*
X294601Y831087D01*
X293965Y830450D01*
X285500D01*
Y819950D01*
X297647D01*
X297806Y819000D01*
X295601Y818087D01*
X295265Y817750D01*
X285500D01*
Y807250D01*
X297203D01*
X297806Y807000D01*
X300194D01*
X300797Y807250D01*
X310500D01*
Y817750D01*
X302735D01*
X302399Y818087D01*
X300194Y819000D01*
X300353Y819950D01*
X310500D01*
Y830450D01*
X302035D01*
X301399Y831087D01*
X301290Y831132D01*
X301094Y832313D01*
X301477Y832650D01*
X310500D01*
Y843150D01*
X301004D01*
X299193Y843900D01*
D02*
G37*
G36*
X310500Y805050D02*
X285500D01*
Y794550D01*
X310500D01*
Y805050D01*
D02*
G37*
G36*
X199364Y676600D02*
X196836D01*
X194395Y675946D01*
X192206Y674682D01*
X190418Y672895D01*
X189154Y670705D01*
X188500Y668264D01*
Y665736D01*
X189154Y663295D01*
X190418Y661105D01*
X192206Y659318D01*
X194395Y658054D01*
X196836Y657400D01*
X199364D01*
X201805Y658054D01*
X203995Y659318D01*
X205782Y661105D01*
X207046Y663295D01*
X207700Y665736D01*
Y668264D01*
X207046Y670705D01*
X205782Y672895D01*
X203995Y674682D01*
X201805Y675946D01*
X199364Y676600D01*
D02*
G37*
G36*
X311500Y665950D02*
X286500D01*
Y655450D01*
X311500D01*
Y665950D01*
D02*
G37*
G36*
X199364Y625800D02*
X196836D01*
X194395Y625146D01*
X192206Y623882D01*
X190418Y622095D01*
X189154Y619906D01*
X188500Y617464D01*
Y614936D01*
X189154Y612495D01*
X190418Y610305D01*
X192206Y608518D01*
X194395Y607254D01*
X196836Y606600D01*
X199364D01*
X201805Y607254D01*
X203995Y608518D01*
X205782Y610305D01*
X207046Y612495D01*
X207700Y614936D01*
Y617464D01*
X207046Y619906D01*
X205782Y622095D01*
X203995Y623882D01*
X201805Y625146D01*
X199364Y625800D01*
D02*
G37*
G36*
Y600400D02*
X196836D01*
X194395Y599746D01*
X192206Y598482D01*
X190418Y596695D01*
X189154Y594506D01*
X188500Y592064D01*
Y589536D01*
X189154Y587095D01*
X190418Y584906D01*
X192206Y583118D01*
X194395Y581854D01*
X196836Y581200D01*
X199364D01*
X201805Y581854D01*
X203995Y583118D01*
X205782Y584906D01*
X207046Y587095D01*
X207700Y589536D01*
Y592064D01*
X207046Y594506D01*
X205782Y596695D01*
X203995Y598482D01*
X201805Y599746D01*
X199364Y600400D01*
D02*
G37*
G36*
Y575000D02*
X196836D01*
X194395Y574346D01*
X192206Y573082D01*
X190418Y571295D01*
X189154Y569105D01*
X188500Y566664D01*
Y564136D01*
X189154Y561695D01*
X190418Y559506D01*
X192206Y557718D01*
X194395Y556454D01*
X196836Y555800D01*
X199364D01*
X201805Y556454D01*
X203995Y557718D01*
X205782Y559506D01*
X207046Y561695D01*
X207700Y564136D01*
Y566664D01*
X207046Y569105D01*
X205782Y571295D01*
X203995Y573082D01*
X201805Y574346D01*
X199364Y575000D01*
D02*
G37*
G36*
Y549600D02*
X196836D01*
X194395Y548946D01*
X192206Y547682D01*
X190418Y545895D01*
X189154Y543705D01*
X188500Y541264D01*
Y538736D01*
X189154Y536295D01*
X190418Y534105D01*
X192206Y532318D01*
X194395Y531054D01*
X196836Y530400D01*
X199364D01*
X201805Y531054D01*
X203995Y532318D01*
X205782Y534105D01*
X207046Y536295D01*
X207700Y538736D01*
Y541264D01*
X207046Y543705D01*
X205782Y545895D01*
X203995Y547682D01*
X201805Y548946D01*
X199364Y549600D01*
D02*
G37*
G36*
X46264Y525300D02*
X43736D01*
X41295Y524646D01*
X39106Y523382D01*
X37318Y521595D01*
X36054Y519406D01*
X35400Y516964D01*
Y514436D01*
X36054Y511995D01*
X37318Y509805D01*
X39106Y508018D01*
X41295Y506754D01*
X43736Y506100D01*
X46264D01*
X48706Y506754D01*
X50894Y508018D01*
X52682Y509805D01*
X53946Y511995D01*
X54600Y514436D01*
Y516964D01*
X53946Y519406D01*
X52682Y521595D01*
X50894Y523382D01*
X48706Y524646D01*
X46264Y525300D01*
D02*
G37*
G36*
X199364Y498800D02*
X196836D01*
X194395Y498146D01*
X192206Y496882D01*
X190418Y495095D01*
X189154Y492906D01*
X188500Y490464D01*
Y487936D01*
X189154Y485495D01*
X190418Y483306D01*
X192206Y481518D01*
X194395Y480254D01*
X196836Y479600D01*
X199364D01*
X201805Y480254D01*
X203995Y481518D01*
X205782Y483306D01*
X207046Y485495D01*
X207700Y487936D01*
Y490464D01*
X207046Y492906D01*
X205782Y495095D01*
X203995Y496882D01*
X201805Y498146D01*
X199364Y498800D01*
D02*
G37*
G36*
X46264Y474500D02*
X43736D01*
X41295Y473846D01*
X39106Y472582D01*
X37318Y470794D01*
X36054Y468605D01*
X35400Y466164D01*
Y463636D01*
X36054Y461195D01*
X37318Y459006D01*
X39106Y457218D01*
X41295Y455954D01*
X43736Y455300D01*
X46264D01*
X48706Y455954D01*
X50894Y457218D01*
X52682Y459006D01*
X53946Y461195D01*
X54600Y463636D01*
Y466164D01*
X53946Y468605D01*
X52682Y470794D01*
X50894Y472582D01*
X48706Y473846D01*
X46264Y474500D01*
D02*
G37*
G36*
X199364Y473400D02*
X196836D01*
X194395Y472746D01*
X192206Y471482D01*
X190418Y469695D01*
X189154Y467505D01*
X188500Y465064D01*
Y462536D01*
X189154Y460095D01*
X190418Y457906D01*
X192206Y456118D01*
X194395Y454854D01*
X196836Y454200D01*
X199364D01*
X201805Y454854D01*
X203995Y456118D01*
X205782Y457906D01*
X207046Y460095D01*
X207700Y462536D01*
Y465064D01*
X207046Y467505D01*
X205782Y469695D01*
X203995Y471482D01*
X201805Y472746D01*
X199364Y473400D01*
D02*
G37*
G36*
X75500Y449600D02*
X60500D01*
Y444088D01*
X53436D01*
X52682Y445395D01*
X50894Y447182D01*
X48706Y448446D01*
X46264Y449100D01*
X43736D01*
X41295Y448446D01*
X39106Y447182D01*
X37318Y445395D01*
X36054Y443205D01*
X35400Y440764D01*
Y438236D01*
X35791Y436779D01*
X7756Y408744D01*
X6761Y407256D01*
X6412Y405500D01*
Y270000D01*
X6761Y268244D01*
X7756Y266756D01*
X23756Y250756D01*
X25244Y249761D01*
X27000Y249412D01*
X81849D01*
X102750Y228511D01*
Y215000D01*
X136750D01*
Y225912D01*
X137500D01*
X139256Y226261D01*
X140744Y227256D01*
X148900Y235412D01*
X223099D01*
X306142Y152369D01*
Y141142D01*
X323858D01*
Y158858D01*
X312631D01*
X228244Y243244D01*
X226756Y244239D01*
X225000Y244588D01*
X147000D01*
X145244Y244239D01*
X143756Y243244D01*
X135600Y235088D01*
X123588D01*
Y249400D01*
X126500D01*
Y268600D01*
X111500D01*
Y249400D01*
X114412D01*
Y235000D01*
X109239D01*
X86994Y257244D01*
X85506Y258239D01*
X83750Y258588D01*
X28900D01*
X15588Y271901D01*
Y403600D01*
X42279Y430290D01*
X43736Y429900D01*
X46264D01*
X48706Y430554D01*
X50894Y431818D01*
X52682Y433605D01*
X53436Y434912D01*
X60500D01*
Y430400D01*
X63662D01*
Y427649D01*
X61000D01*
Y408450D01*
X76000D01*
Y427649D01*
X72838D01*
Y430400D01*
X75500D01*
Y449600D01*
D02*
G37*
G36*
X199364Y448000D02*
X196836D01*
X194395Y447346D01*
X192206Y446082D01*
X190418Y444295D01*
X189154Y442105D01*
X188500Y439664D01*
Y437136D01*
X189154Y434695D01*
X190418Y432505D01*
X192206Y430718D01*
X194395Y429454D01*
X196836Y428800D01*
X199364D01*
X201805Y429454D01*
X203995Y430718D01*
X205782Y432505D01*
X207046Y434695D01*
X207700Y437136D01*
Y439664D01*
X207046Y442105D01*
X205782Y444295D01*
X203995Y446082D01*
X201805Y447346D01*
X199364Y448000D01*
D02*
G37*
G36*
X311500Y389250D02*
X286500D01*
Y378750D01*
X311500D01*
Y389250D01*
D02*
G37*
G36*
X199364Y651200D02*
X196836D01*
X194395Y650546D01*
X192206Y649282D01*
X190418Y647495D01*
X189154Y645305D01*
X188500Y642864D01*
Y640336D01*
X189154Y637895D01*
X190418Y635705D01*
X192206Y633918D01*
X194395Y632654D01*
X196836Y632000D01*
X199364D01*
X200821Y632391D01*
X213412Y619800D01*
Y341000D01*
X213761Y339244D01*
X214756Y337756D01*
X266406Y286106D01*
X267894Y285111D01*
X269650Y284762D01*
X287000D01*
Y284100D01*
X312000D01*
Y294600D01*
X287000D01*
Y293938D01*
X271551D01*
X222588Y342901D01*
Y621700D01*
X222239Y623456D01*
X221244Y624944D01*
X207310Y638879D01*
X207700Y640336D01*
Y642864D01*
X207046Y645305D01*
X205782Y647495D01*
X203995Y649282D01*
X201805Y650546D01*
X199364Y651200D01*
D02*
G37*
G36*
X91000Y289500D02*
X77000D01*
Y265000D01*
X91000D01*
Y289500D01*
D02*
G37*
G36*
X43500Y154600D02*
X28500D01*
Y135400D01*
X43500D01*
Y154600D01*
D02*
G37*
G36*
X91064Y133085D02*
X88936D01*
X86879Y132534D01*
X85036Y131470D01*
X83530Y129964D01*
X82466Y128121D01*
X81915Y126064D01*
Y125344D01*
X78159Y121588D01*
X66000D01*
Y122000D01*
X50000D01*
Y112000D01*
X66000D01*
Y112412D01*
X80060D01*
X81816Y112761D01*
X83304Y113756D01*
X86986Y117437D01*
X88936Y116915D01*
X91064D01*
X93121Y117466D01*
X94964Y118530D01*
X96470Y120036D01*
X97534Y121879D01*
X98085Y123936D01*
Y126064D01*
X97534Y128121D01*
X96470Y129964D01*
X94964Y131470D01*
X93121Y132534D01*
X91064Y133085D01*
D02*
G37*
G36*
X44000Y131500D02*
X28000D01*
Y121500D01*
X44000D01*
Y131500D01*
D02*
G37*
G36*
X142064Y133085D02*
X139936D01*
X137879Y132534D01*
X136036Y131470D01*
X134530Y129964D01*
X133466Y128121D01*
X132915Y126064D01*
Y123936D01*
X133466Y121879D01*
X133940Y121059D01*
Y93091D01*
X127500D01*
X124759Y92730D01*
X122205Y91672D01*
X120011Y89989D01*
X118328Y87795D01*
X117270Y85241D01*
X116909Y82500D01*
X117270Y79759D01*
X118328Y77205D01*
X120011Y75011D01*
X122205Y73328D01*
X124759Y72270D01*
X127500Y71909D01*
X152500D01*
X155241Y72270D01*
X157795Y73328D01*
X159989Y75011D01*
X161672Y77205D01*
X162730Y79759D01*
X163091Y82500D01*
X162730Y85241D01*
X161672Y87795D01*
X159989Y89989D01*
X157795Y91672D01*
X155241Y92730D01*
X152500Y93091D01*
X148060D01*
Y121059D01*
X148534Y121879D01*
X149085Y123936D01*
Y126064D01*
X148534Y128121D01*
X147470Y129964D01*
X145964Y131470D01*
X144121Y132534D01*
X142064Y133085D01*
D02*
G37*
G36*
X260500Y83539D02*
X244500D01*
X243720Y83384D01*
X243058Y82942D01*
X242616Y82280D01*
X242461Y81500D01*
Y71778D01*
X242522Y71469D01*
X242553Y71174D01*
X242574Y71137D01*
X242581Y71089D01*
X242606Y71046D01*
X242616Y70997D01*
X242794Y70732D01*
X242933Y70475D01*
X242965Y70449D01*
X242990Y70407D01*
X243030Y70377D01*
X243058Y70336D01*
X243326Y70157D01*
X243552Y69974D01*
X244510Y69470D01*
X246225Y68231D01*
X247642Y66727D01*
X248752Y64983D01*
X249515Y63062D01*
X249903Y61032D01*
X249903Y58965D01*
X249514Y56935D01*
X248751Y55014D01*
X247641Y53271D01*
X246222Y51767D01*
X244508Y50529D01*
X243549Y50025D01*
X243303Y49826D01*
X243254Y49792D01*
X243058Y49661D01*
X243055Y49657D01*
X243042Y49648D01*
X242995Y49577D01*
X242930Y49524D01*
X242779Y49246D01*
X242705Y49133D01*
X242616Y49000D01*
X242615Y48996D01*
X242606Y48982D01*
X242590Y48899D01*
X242550Y48825D01*
X242517Y48510D01*
X242484Y48337D01*
X242461Y48220D01*
Y48213D01*
X242458Y48200D01*
X242461Y48188D01*
Y38500D01*
X242616Y37720D01*
X243058Y37058D01*
X243720Y36616D01*
X244500Y36461D01*
X260500D01*
X260697Y36500D01*
X262500D01*
Y38303D01*
X262539Y38500D01*
Y55412D01*
X290380D01*
X291498Y53476D01*
X293476Y51498D01*
X295899Y50099D01*
X298601Y49375D01*
X301399D01*
X304101Y50099D01*
X306524Y51498D01*
X308502Y53476D01*
X309901Y55899D01*
X310625Y58601D01*
Y61399D01*
X309901Y64101D01*
X308502Y66524D01*
X306524Y68502D01*
X304101Y69901D01*
X301399Y70625D01*
X298601D01*
X295899Y69901D01*
X293476Y68502D01*
X291498Y66524D01*
X290380Y64588D01*
X262539D01*
Y81500D01*
X262500Y81697D01*
Y83500D01*
X260697D01*
X260500Y83539D01*
D02*
G37*
G36*
X178750Y230250D02*
X159250D01*
Y211838D01*
X155000D01*
X153244Y211489D01*
X151756Y210494D01*
X130261Y189000D01*
X102750D01*
Y175489D01*
X92850Y165588D01*
X24000D01*
X22244Y165239D01*
X20756Y164244D01*
X9756Y153244D01*
X8761Y151756D01*
X8412Y150000D01*
Y115000D01*
X8761Y113244D01*
X9756Y111756D01*
X17256Y104256D01*
X18744Y103261D01*
X20500Y102912D01*
X28000D01*
Y102500D01*
X33600D01*
X34806Y102000D01*
X37194D01*
X38400Y102500D01*
X44000D01*
Y112500D01*
X39985D01*
X39399Y113087D01*
X37194Y114000D01*
X34806D01*
X32601Y113087D01*
X32015Y112500D01*
X28000D01*
Y112088D01*
X22401D01*
X17588Y116901D01*
Y148099D01*
X25900Y156412D01*
X94750D01*
X96506Y156761D01*
X97994Y157756D01*
X109239Y169000D01*
X136750D01*
Y182511D01*
X156900Y202662D01*
X163750D01*
X164193Y202750D01*
X164765D01*
X165601Y201914D01*
X167806Y201000D01*
X170194D01*
X172399Y201914D01*
X173163Y202678D01*
X174500Y202412D01*
X210663D01*
X210805Y201702D01*
X211965Y199965D01*
X213702Y198805D01*
X215750Y198397D01*
X221114D01*
X235412Y184100D01*
Y155900D01*
X220756Y141244D01*
X219761Y139756D01*
X219412Y138000D01*
Y128600D01*
X214500D01*
Y109400D01*
X217162D01*
Y83500D01*
X215500D01*
Y81697D01*
X215461Y81500D01*
Y38500D01*
X215500Y38303D01*
Y36500D01*
X217303D01*
X217500Y36461D01*
X233500D01*
X234280Y36616D01*
X234942Y37058D01*
X235384Y37720D01*
X235539Y38500D01*
Y48222D01*
X235478Y48531D01*
X235447Y48826D01*
X235427Y48863D01*
X235419Y48911D01*
X235394Y48954D01*
X235384Y49003D01*
X235206Y49269D01*
X235067Y49525D01*
X235035Y49551D01*
X235009Y49593D01*
X234970Y49623D01*
X234942Y49664D01*
X234674Y49844D01*
X234449Y50026D01*
X233490Y50530D01*
X231775Y51769D01*
X230358Y53273D01*
X229248Y55017D01*
X228485Y56938D01*
X228097Y58968D01*
X228097Y61035D01*
X228486Y63065D01*
X229249Y64986D01*
X230359Y66729D01*
X231778Y68233D01*
X233492Y69471D01*
X234451Y69975D01*
X234690Y70168D01*
X234945Y70339D01*
X234997Y70417D01*
X235070Y70476D01*
X235216Y70745D01*
X235387Y71000D01*
X235405Y71092D01*
X235450Y71175D01*
X235482Y71480D01*
X235542Y71781D01*
X235539Y71794D01*
Y81500D01*
X235384Y82280D01*
X234942Y82942D01*
X234280Y83384D01*
X233500Y83539D01*
X226338D01*
Y109400D01*
X229500D01*
Y128600D01*
X228588D01*
Y136100D01*
X243244Y150756D01*
X244239Y152244D01*
X244588Y154000D01*
Y186000D01*
X244239Y187756D01*
X243244Y189244D01*
X227603Y204886D01*
Y210250D01*
X227195Y212299D01*
X226035Y214035D01*
X224298Y215195D01*
X222250Y215603D01*
X215750D01*
X213702Y215195D01*
X211965Y214035D01*
X210805Y212299D01*
X210663Y211588D01*
X178750D01*
Y230250D01*
D02*
G37*
G36*
X52364Y74000D02*
X47636D01*
X43000Y73078D01*
X38632Y71269D01*
X34701Y68642D01*
X31358Y65299D01*
X28732Y61368D01*
X26922Y57000D01*
X26000Y52364D01*
Y47636D01*
X26922Y43000D01*
X28732Y38632D01*
X31358Y34701D01*
X34701Y31358D01*
X38632Y28732D01*
X43000Y26922D01*
X47636Y26000D01*
X52364D01*
X57000Y26922D01*
X61368Y28732D01*
X65299Y31358D01*
X68642Y34701D01*
X71269Y38632D01*
X73078Y43000D01*
X74000Y47636D01*
Y52364D01*
X73078Y57000D01*
X71269Y61368D01*
X68642Y65299D01*
X65299Y68642D01*
X61368Y71269D01*
X57000Y73078D01*
X52364Y74000D01*
D02*
G37*
%LPD*%
G36*
X260500Y38500D02*
X244500D01*
Y48220D01*
X244497Y48219D01*
X245584Y48791D01*
X247573Y50228D01*
X249257Y52012D01*
X250575Y54082D01*
X251481Y56362D01*
X251942Y58772D01*
X251942Y61225D01*
X251481Y63635D01*
X250576Y65915D01*
X249259Y67985D01*
X247576Y69770D01*
X245588Y71207D01*
X244501Y71779D01*
X244500Y71778D01*
Y81500D01*
X260500D01*
Y38500D01*
D02*
G37*
G36*
X233500Y71781D02*
X233503D01*
X232416Y71209D01*
X230427Y69772D01*
X228743Y67988D01*
X227425Y65918D01*
X226520Y63638D01*
X226058Y61228D01*
X226058Y58775D01*
X226518Y56365D01*
X227424Y54085D01*
X228741Y52015D01*
X230424Y50230D01*
X232412Y48793D01*
X233499Y48221D01*
X233499Y48221D01*
X233500Y48222D01*
Y38500D01*
X217500D01*
Y81500D01*
X233500D01*
Y71781D01*
D02*
G37*
%LPC*%
G36*
X52364Y974000D02*
X47636D01*
X43000Y973078D01*
X38632Y971268D01*
X34701Y968642D01*
X31358Y965299D01*
X28732Y961368D01*
X26922Y957001D01*
X26000Y952364D01*
Y947636D01*
X26922Y942999D01*
X28732Y938632D01*
X31358Y934701D01*
X34701Y931358D01*
X38632Y928732D01*
X43000Y926922D01*
X47636Y926000D01*
X52364D01*
X57000Y926922D01*
X61368Y928732D01*
X65299Y931358D01*
X68642Y934701D01*
X71269Y938632D01*
X73078Y942999D01*
X74000Y947636D01*
Y952364D01*
X73078Y957001D01*
X71269Y961368D01*
X68642Y965299D01*
X65299Y968642D01*
X61368Y971268D01*
X57000Y973078D01*
X52364Y974000D01*
D02*
G37*
G36*
X407500Y975050D02*
X385500D01*
Y965050D01*
X407500D01*
Y975050D01*
D02*
G37*
G36*
Y962350D02*
X385500D01*
Y952350D01*
X407500D01*
Y962350D01*
D02*
G37*
G36*
X869829Y940100D02*
X867442D01*
X865237Y939187D01*
X864817Y938767D01*
X856965D01*
Y929433D01*
X864817D01*
X865237Y929014D01*
X867442Y928100D01*
X869829D01*
X872034Y929014D01*
X872454Y929433D01*
X880306D01*
Y938767D01*
X872454D01*
X872034Y939187D01*
X869829Y940100D01*
D02*
G37*
G36*
X775558D02*
X773171D01*
X770966Y939187D01*
X770546Y938767D01*
X762694D01*
Y929433D01*
X770546D01*
X770966Y929014D01*
X773171Y928100D01*
X775558D01*
X777763Y929014D01*
X778183Y929433D01*
X786035D01*
Y938767D01*
X778183D01*
X777763Y939187D01*
X775558Y940100D01*
D02*
G37*
G36*
X952364Y974000D02*
X947636D01*
X942999Y973078D01*
X938632Y971268D01*
X934701Y968642D01*
X931358Y965299D01*
X928732Y961368D01*
X926922Y957001D01*
X926000Y952364D01*
Y947636D01*
X926922Y942999D01*
X928732Y938632D01*
X931358Y934701D01*
X934701Y931358D01*
X938632Y928732D01*
X942999Y926922D01*
X947636Y926000D01*
X952364D01*
X957001Y926922D01*
X961368Y928732D01*
X965299Y931358D01*
X968642Y934701D01*
X971268Y938632D01*
X973078Y942999D01*
X974000Y947636D01*
Y952364D01*
X973078Y957001D01*
X971268Y961368D01*
X968642Y965299D01*
X965299Y968642D01*
X961368Y971268D01*
X957001Y973078D01*
X952364Y974000D01*
D02*
G37*
G36*
X786035Y926067D02*
X762694D01*
Y916733D01*
X786035D01*
Y926067D01*
D02*
G37*
G36*
X854193Y927000D02*
X851806D01*
X849601Y926087D01*
X847913Y924399D01*
X847000Y922194D01*
Y919807D01*
X847913Y917601D01*
X849601Y915913D01*
X851806Y915000D01*
X854193D01*
X856399Y915913D01*
X857218Y916733D01*
X880306D01*
Y926067D01*
X856965D01*
X856965Y926067D01*
X856022Y926243D01*
X854193Y927000D01*
D02*
G37*
G36*
X786035Y913367D02*
X762694D01*
Y904033D01*
X786035D01*
Y913367D01*
D02*
G37*
G36*
Y900667D02*
X762694D01*
Y891333D01*
X780620D01*
X783047Y888906D01*
X782659Y887967D01*
X777518D01*
X777399Y888087D01*
X775193Y889000D01*
X772806D01*
X770601Y888087D01*
X770482Y887967D01*
X762694D01*
Y878633D01*
X769882D01*
X770601Y877914D01*
X771979Y877343D01*
Y876243D01*
X771601Y876087D01*
X770782Y875267D01*
X762694D01*
Y865933D01*
X771582D01*
X771601Y865913D01*
X773807Y865000D01*
X776193D01*
X778399Y865913D01*
X778418Y865933D01*
X786035D01*
Y875267D01*
X779218D01*
X778399Y876087D01*
X777021Y876657D01*
Y877757D01*
X777399Y877914D01*
X778118Y878633D01*
X786035D01*
Y883895D01*
X787051Y884399D01*
X787431Y884110D01*
Y747519D01*
X787035Y746667D01*
X786415Y746667D01*
X779183D01*
X778763Y747087D01*
X776558Y748000D01*
X774171D01*
X771966Y747087D01*
X771546Y746667D01*
X763694D01*
Y737333D01*
X771546D01*
X771966Y736914D01*
X774171Y736000D01*
X776558D01*
X778763Y736914D01*
X779183Y737333D01*
X787035Y737333D01*
X787431Y736481D01*
Y734819D01*
X787035Y733967D01*
X786415Y733967D01*
X763694D01*
Y724633D01*
X786415D01*
X787035Y724633D01*
X787431Y723781D01*
Y722119D01*
X787035Y721267D01*
X786415Y721267D01*
X763694D01*
Y711933D01*
X786415D01*
X787035Y711933D01*
X787431Y711081D01*
Y709419D01*
X787035Y708567D01*
X763694D01*
Y706095D01*
X763367Y706030D01*
X762210Y705256D01*
X757953Y701000D01*
X755807D01*
X753601Y700087D01*
X751914Y698399D01*
X751000Y696193D01*
Y693807D01*
X751914Y691601D01*
X753601Y689913D01*
X755807Y689000D01*
X758194D01*
X760399Y689913D01*
X762087Y691601D01*
X762678Y693029D01*
X763694Y692827D01*
Y686533D01*
X769982D01*
X770601Y685913D01*
X771979Y685343D01*
Y684243D01*
X771601Y684087D01*
X770682Y683167D01*
X763694D01*
Y673833D01*
X771795D01*
X773807Y673000D01*
X776193D01*
X778205Y673833D01*
X787035Y673833D01*
X787431Y672981D01*
Y671319D01*
X787035Y670467D01*
X786415Y670467D01*
X776480D01*
X775193Y671000D01*
X772806D01*
X771520Y670467D01*
X763694D01*
Y661133D01*
X769382D01*
X770601Y659913D01*
X771580Y659508D01*
Y658492D01*
X770601Y658086D01*
X770282Y657767D01*
X763694D01*
Y648433D01*
X770082D01*
X770601Y647913D01*
X771979Y647343D01*
Y646243D01*
X771601Y646087D01*
X770582Y645067D01*
X763694D01*
Y635733D01*
X772037D01*
X772479Y635550D01*
Y634450D01*
X771601Y634086D01*
X769913Y632399D01*
X769900Y632367D01*
X763694D01*
Y623033D01*
X773727D01*
X773807Y623000D01*
X776193D01*
X776273Y623033D01*
X787035Y623033D01*
X787431Y622181D01*
Y620519D01*
X787035Y619667D01*
X786415Y619667D01*
X776997D01*
X776193Y620000D01*
X773807D01*
X773003Y619667D01*
X763694D01*
Y610333D01*
X770182D01*
X771601Y608913D01*
X773807Y608000D01*
X776193D01*
X778399Y608913D01*
X779818Y610333D01*
X787035Y610333D01*
X787431Y609481D01*
Y595119D01*
X787035Y594267D01*
X786415Y594267D01*
X763694D01*
Y584933D01*
X786415D01*
X787035Y584933D01*
X787431Y584081D01*
Y582419D01*
X787035Y581567D01*
X786415Y581567D01*
X763694D01*
Y581488D01*
X545000D01*
X449844Y676644D01*
X448356Y677639D01*
X446600Y677988D01*
X408500D01*
Y678650D01*
X383500D01*
Y668150D01*
X408500D01*
Y668812D01*
X444700D01*
X539856Y573656D01*
X541344Y572661D01*
X543100Y572312D01*
X763694D01*
Y572233D01*
X786415D01*
X787035Y572233D01*
X787431Y571381D01*
Y555519D01*
X787035Y554667D01*
X786415Y554667D01*
X780390D01*
X780087Y555399D01*
X778399Y557086D01*
X776193Y558000D01*
X773807D01*
X771601Y557086D01*
X769913Y555399D01*
X769610Y554667D01*
X763694D01*
Y545333D01*
X786415D01*
X787035Y545333D01*
X787431Y544481D01*
Y542819D01*
X787035Y541967D01*
X786415Y541967D01*
X763694D01*
Y532633D01*
X786415D01*
X787035Y532633D01*
X787431Y531781D01*
Y530119D01*
X787035Y529267D01*
X786415Y529267D01*
X763694D01*
Y519933D01*
X786415D01*
X787035Y519933D01*
X787431Y519081D01*
Y517419D01*
X787035Y516567D01*
X763694D01*
Y507233D01*
X787035D01*
X787431Y506381D01*
Y504719D01*
X787035Y503867D01*
X786415Y503867D01*
X777618D01*
X777399Y504086D01*
X775193Y505000D01*
X772806D01*
X770601Y504086D01*
X770382Y503867D01*
X763694D01*
Y494533D01*
X769982D01*
X770601Y493913D01*
X771979Y493343D01*
Y492243D01*
X771601Y492086D01*
X770682Y491167D01*
X763694D01*
Y481833D01*
X771795D01*
X773807Y481000D01*
X776193D01*
X778205Y481833D01*
X787035Y481833D01*
X787431Y480981D01*
Y479319D01*
X787035Y478467D01*
X786415Y478467D01*
X776480D01*
X775193Y479000D01*
X772806D01*
X771520Y478467D01*
X763694D01*
Y469133D01*
X769382D01*
X770601Y467913D01*
X771580Y467508D01*
Y466492D01*
X770601Y466087D01*
X770282Y465767D01*
X763694D01*
Y456433D01*
X770082D01*
X770601Y455913D01*
X771979Y455343D01*
Y454243D01*
X771601Y454086D01*
X770582Y453067D01*
X763694D01*
Y443733D01*
X772037D01*
X772479Y443550D01*
Y442450D01*
X771601Y442086D01*
X769913Y440399D01*
X769900Y440367D01*
X763694D01*
Y431033D01*
X773727D01*
X773807Y431000D01*
X776193D01*
X776273Y431033D01*
X787035Y431033D01*
X787431Y430181D01*
Y428519D01*
X787035Y427667D01*
X786415Y427667D01*
X776997D01*
X776193Y428000D01*
X773807D01*
X773003Y427667D01*
X763694D01*
Y418333D01*
X770182D01*
X771601Y416913D01*
X773807Y416000D01*
X776193D01*
X778399Y416913D01*
X779818Y418333D01*
X787035Y418333D01*
X787431Y417481D01*
Y403119D01*
X787035Y402267D01*
X786415Y402267D01*
X763694D01*
Y392933D01*
X786415D01*
X787035Y392933D01*
X787431Y392081D01*
Y390419D01*
X787035Y389567D01*
X786415Y389567D01*
X763694D01*
Y389488D01*
X707001D01*
X559294Y537194D01*
X557806Y538189D01*
X556050Y538538D01*
X409000D01*
Y539200D01*
X384000D01*
Y528700D01*
X409000D01*
Y529362D01*
X554150D01*
X701856Y381656D01*
X703344Y380661D01*
X705100Y380312D01*
X763694D01*
Y380233D01*
X786415D01*
X787035Y380233D01*
X787431Y379381D01*
Y360506D01*
X786535Y360217D01*
X786415Y360217D01*
X778683D01*
X778263Y360637D01*
X776058Y361550D01*
X773671D01*
X771466Y360637D01*
X771046Y360217D01*
X763194D01*
Y350883D01*
X771046D01*
X771466Y350463D01*
X773671Y349550D01*
X776058D01*
X778263Y350463D01*
X778683Y350883D01*
X786415D01*
X786535Y350883D01*
X787431Y350594D01*
Y347806D01*
X786535Y347517D01*
X786415Y347517D01*
X763194D01*
Y338183D01*
X786415D01*
X786535Y338183D01*
X787431Y337894D01*
Y335106D01*
X786535Y334817D01*
Y334817D01*
X763194D01*
Y325483D01*
X784109D01*
X784498Y324544D01*
X782139Y322186D01*
X776031D01*
X775687Y322117D01*
X763194D01*
Y312783D01*
X783527D01*
X783916Y311844D01*
X781488Y309417D01*
X763194D01*
Y300083D01*
X783527D01*
X783916Y299144D01*
X781488Y296717D01*
X763194D01*
Y287383D01*
X783527D01*
X783916Y286444D01*
X781488Y284017D01*
X763194D01*
Y274683D01*
X783527D01*
X783916Y273744D01*
X781488Y271317D01*
X763194D01*
Y261983D01*
X783527D01*
X783916Y261044D01*
X781488Y258617D01*
X763194D01*
Y249283D01*
X783527D01*
X783916Y248344D01*
X781488Y245917D01*
X763194D01*
Y236583D01*
X783527D01*
X783916Y235644D01*
X781488Y233217D01*
X763194D01*
Y223883D01*
X786535D01*
Y228170D01*
X843523Y285159D01*
X844297Y286316D01*
X844569Y287682D01*
Y417083D01*
X846087Y418601D01*
X847000Y420807D01*
Y423193D01*
X846087Y425399D01*
X844569Y426917D01*
Y533083D01*
X846087Y534601D01*
X847000Y536806D01*
Y539193D01*
X846087Y541399D01*
X844569Y542917D01*
Y609083D01*
X846087Y610601D01*
X847000Y612807D01*
Y615193D01*
X846087Y617399D01*
X844569Y618917D01*
Y801083D01*
X846087Y802601D01*
X847000Y804807D01*
Y807194D01*
X846087Y809399D01*
X844399Y811087D01*
X842194Y812000D01*
X839807D01*
X838470Y811446D01*
X837454Y812125D01*
Y814968D01*
X839087Y816601D01*
X840000Y818807D01*
Y821193D01*
X839087Y823399D01*
X837399Y825087D01*
X835193Y826000D01*
X832806D01*
X831085Y825287D01*
X830069Y825881D01*
Y827583D01*
X831087Y828601D01*
X832000Y830807D01*
Y833194D01*
X831087Y835399D01*
X829399Y837087D01*
X827194Y838000D01*
X824807D01*
X823585Y837494D01*
X822569Y838173D01*
Y840083D01*
X824087Y841601D01*
X825000Y843807D01*
Y846193D01*
X824087Y848399D01*
X822399Y850087D01*
X820193Y851000D01*
X817806D01*
X816585Y850494D01*
X815666Y851108D01*
X815607Y852122D01*
X817087Y853601D01*
X818000Y855807D01*
Y858194D01*
X817087Y860399D01*
X815399Y862086D01*
X813194Y863000D01*
X810807D01*
X809585Y862494D01*
X808569Y863173D01*
Y866083D01*
X810087Y867601D01*
X811000Y869807D01*
Y872194D01*
X810087Y874399D01*
X808399Y876087D01*
X806193Y877000D01*
X803807D01*
X802585Y876494D01*
X801569Y877173D01*
Y879083D01*
X803087Y880601D01*
X804000Y882806D01*
Y885193D01*
X803087Y887399D01*
X801399Y889087D01*
X799193Y890000D01*
X796806D01*
X794601Y889087D01*
X793992Y888477D01*
X793523Y888523D01*
X786035Y896012D01*
Y900667D01*
D02*
G37*
G36*
X407500Y949650D02*
X385500D01*
Y939650D01*
X407500D01*
Y939901D01*
X408516Y939995D01*
X518406Y830106D01*
X519894Y829111D01*
X521650Y828762D01*
X529424D01*
Y828556D01*
X550061D01*
Y828762D01*
X553350D01*
X555106Y829111D01*
X556594Y830106D01*
X580900Y854412D01*
X601100D01*
X603729Y851783D01*
X603340Y850844D01*
X599949D01*
X599656Y851137D01*
X597451Y852050D01*
X595064D01*
X592859Y851137D01*
X592566Y850844D01*
X585939D01*
Y841256D01*
X592566D01*
X592859Y840963D01*
X595064Y840050D01*
X597451D01*
X599656Y840963D01*
X599949Y841256D01*
X606576D01*
Y847608D01*
X607515Y847997D01*
X625292Y830219D01*
Y826960D01*
X631641D01*
X631687Y826913D01*
X633893Y826000D01*
X636279D01*
X638485Y826913D01*
X638531Y826960D01*
X644880D01*
Y836619D01*
X645710Y837490D01*
X645974Y837438D01*
X647120D01*
Y836485D01*
X652326D01*
Y827515D01*
X647120D01*
Y817435D01*
X666708D01*
Y827515D01*
X661502D01*
Y836485D01*
X666708D01*
Y846565D01*
X656659D01*
X656413Y846614D01*
X647875D01*
X623244Y871244D01*
X621756Y872239D01*
X620000Y872588D01*
X575000D01*
X573244Y872239D01*
X571756Y871244D01*
X551149Y850638D01*
X550061D01*
Y850844D01*
X529424D01*
Y841256D01*
X550061D01*
Y841462D01*
X553050D01*
X553657Y841583D01*
X554158Y840646D01*
X551450Y837938D01*
X550061D01*
Y838144D01*
X529424D01*
Y837938D01*
X523550D01*
X413594Y947894D01*
X412106Y948889D01*
X410350Y949238D01*
X407500D01*
Y949650D01*
D02*
G37*
G36*
X693600Y839500D02*
X674400D01*
Y824500D01*
X693600D01*
Y839500D01*
D02*
G37*
G36*
X606576Y838144D02*
X585939D01*
Y828556D01*
X591669D01*
Y825444D01*
X585939D01*
Y815856D01*
X606576D01*
Y825444D01*
X600846D01*
Y828556D01*
X606576D01*
Y838144D01*
D02*
G37*
G36*
X511544Y826650D02*
X509156D01*
X506951Y825737D01*
X505263Y824049D01*
X504350Y821843D01*
Y819456D01*
X505263Y817251D01*
X506951Y815563D01*
X509156Y814650D01*
X511544D01*
X513749Y815563D01*
X514247Y816062D01*
X529424D01*
Y815856D01*
X550061D01*
Y825444D01*
X529424D01*
Y825238D01*
X514247D01*
X513749Y825737D01*
X511544Y826650D01*
D02*
G37*
G36*
X775193Y863000D02*
X772806D01*
X771761Y862567D01*
X762694D01*
Y853233D01*
X769282D01*
X770601Y851913D01*
X771580Y851508D01*
Y850492D01*
X770601Y850087D01*
X770382Y849867D01*
X762694D01*
Y840533D01*
X769982D01*
X770601Y839913D01*
X771979Y839343D01*
Y838243D01*
X771601Y838087D01*
X770682Y837167D01*
X762694D01*
Y827833D01*
X771795D01*
X772479Y827550D01*
Y826450D01*
X771601Y826087D01*
X769982Y824467D01*
X762694D01*
Y815133D01*
X773485D01*
X773807Y815000D01*
X776193D01*
X776515Y815133D01*
X786035D01*
Y824467D01*
X780018D01*
X778399Y826087D01*
X777983Y826259D01*
X777875Y827389D01*
X778420Y827833D01*
X786035D01*
Y837167D01*
X779318D01*
X778399Y838087D01*
X777021Y838657D01*
Y839757D01*
X777399Y839913D01*
X778018Y840533D01*
X786035D01*
Y849867D01*
X777618D01*
X777399Y850087D01*
X776420Y850492D01*
Y851508D01*
X777399Y851913D01*
X778718Y853233D01*
X786035D01*
Y862567D01*
X776239D01*
X775193Y863000D01*
D02*
G37*
G36*
X540936Y813950D02*
X538549D01*
X536344Y813037D01*
X536051Y812744D01*
X529424D01*
Y803156D01*
X536051D01*
X536344Y802863D01*
X538549Y801950D01*
X540936D01*
X543141Y802863D01*
X543434Y803156D01*
X550061D01*
Y812744D01*
X543434D01*
X543141Y813037D01*
X540936Y813950D01*
D02*
G37*
G36*
X776193Y812000D02*
X773807D01*
X773244Y811767D01*
X762694D01*
Y802433D01*
X770082D01*
X771601Y800913D01*
X773807Y800000D01*
X776193D01*
X778399Y800913D01*
X779918Y802433D01*
X786035D01*
Y811767D01*
X776756D01*
X776193Y812000D01*
D02*
G37*
G36*
X786035Y786367D02*
X762694D01*
Y777033D01*
X786035D01*
Y786367D01*
D02*
G37*
G36*
X695604Y778004D02*
X678396D01*
Y760804D01*
X624962D01*
X623206Y760455D01*
X621718Y759460D01*
X617896Y755638D01*
X605488D01*
Y755840D01*
X584939D01*
Y746260D01*
X605488D01*
Y746462D01*
X619796D01*
X621552Y746811D01*
X623040Y747806D01*
X626862Y751628D01*
X630483D01*
X630866Y750612D01*
X629682Y748560D01*
X629000Y746016D01*
Y744165D01*
X627773Y742938D01*
X605488D01*
Y743140D01*
X584939D01*
Y733560D01*
X605488D01*
Y733762D01*
X629673D01*
X631429Y734111D01*
X632918Y735106D01*
X633906Y736094D01*
X635140Y735381D01*
X637683Y734700D01*
X640316D01*
X642860Y735381D01*
X645140Y736698D01*
X647002Y738560D01*
X647696Y739762D01*
X679512D01*
X680115Y738717D01*
X681717Y737115D01*
X683679Y735982D01*
X685867Y735396D01*
X688133D01*
X690321Y735982D01*
X692283Y737115D01*
X693885Y738717D01*
X695018Y740679D01*
X695604Y742867D01*
Y745133D01*
X695018Y747321D01*
X693885Y749283D01*
X692556Y750612D01*
X692942Y751628D01*
X719883D01*
X727000Y744511D01*
Y743807D01*
X727914Y741601D01*
X729601Y739913D01*
X731806Y739000D01*
X734193D01*
X736399Y739913D01*
X738087Y741601D01*
X739000Y743807D01*
Y746193D01*
X738087Y748399D01*
X736399Y750087D01*
X734193Y751000D01*
X733489D01*
X725028Y759460D01*
X723540Y760455D01*
X721784Y760804D01*
X695604D01*
Y778004D01*
D02*
G37*
G36*
X530500Y782600D02*
X515500D01*
Y763400D01*
X525557D01*
X526000Y763312D01*
X526199D01*
X528424Y761087D01*
Y751340D01*
X528512Y750897D01*
Y746260D01*
X535091D01*
X535388Y745964D01*
X537593Y745050D01*
X539980D01*
X542185Y745964D01*
X542482Y746260D01*
X549061D01*
Y755840D01*
X542482D01*
X542185Y756137D01*
X539980Y757050D01*
X537600D01*
Y762988D01*
X537251Y764744D01*
X536256Y766232D01*
X531344Y771144D01*
X530500Y771709D01*
Y782600D01*
D02*
G37*
G36*
X870193Y751000D02*
X867806D01*
X865601Y750087D01*
X863913Y748399D01*
X863196Y746667D01*
X857965D01*
Y737333D01*
X881306D01*
Y746667D01*
X874804D01*
X874087Y748399D01*
X872399Y750087D01*
X870193Y751000D01*
D02*
G37*
G36*
X854193Y737000D02*
X851806D01*
X849601Y736087D01*
X847913Y734399D01*
X847000Y732194D01*
Y729807D01*
X847913Y727601D01*
X849601Y725913D01*
X849977Y725758D01*
X851244Y724911D01*
X853000Y724562D01*
X869485D01*
X869843Y724633D01*
X881306D01*
Y733967D01*
X858265D01*
X858086Y734399D01*
X856399Y736087D01*
X854193Y737000D01*
D02*
G37*
G36*
X539980Y731650D02*
X537593D01*
X535388Y730737D01*
X535091Y730440D01*
X528512D01*
Y720860D01*
X535091D01*
X535388Y720564D01*
X537593Y719650D01*
X539980D01*
X542185Y720564D01*
X542482Y720860D01*
X549061D01*
Y730440D01*
X542482D01*
X542185Y730737D01*
X539980Y731650D01*
D02*
G37*
G36*
X605488Y730440D02*
X584939D01*
Y720860D01*
X605488D01*
Y721062D01*
X628882D01*
Y715300D01*
X629179Y713810D01*
X628242Y713309D01*
X625357Y716194D01*
X623869Y717189D01*
X622113Y717538D01*
X605488D01*
Y717740D01*
X584939D01*
Y708160D01*
X605488D01*
Y708362D01*
X620213D01*
X651819Y676756D01*
X653307Y675761D01*
X655063Y675412D01*
X673103D01*
X673601Y674913D01*
X675807Y674000D01*
X678194D01*
X680399Y674913D01*
X682086Y676601D01*
X683000Y678807D01*
Y681193D01*
X682086Y683399D01*
X680399Y685087D01*
X678194Y686000D01*
X675807D01*
X673601Y685087D01*
X673103Y684588D01*
X656964D01*
X633009Y708542D01*
X633510Y709479D01*
X635000Y709183D01*
X643000D01*
X645341Y709648D01*
X647326Y710974D01*
X648652Y712959D01*
X648931Y714362D01*
X679512D01*
X680115Y713317D01*
X681717Y711715D01*
X683679Y710582D01*
X685867Y709996D01*
X688133D01*
X690321Y710582D01*
X692283Y711715D01*
X693885Y713317D01*
X695018Y715279D01*
X695604Y717467D01*
Y719733D01*
X695018Y721921D01*
X693885Y723883D01*
X692283Y725485D01*
X690321Y726618D01*
X688133Y727204D01*
X685867D01*
X683679Y726618D01*
X681717Y725485D01*
X680115Y723883D01*
X679916Y723538D01*
X649070D01*
X648652Y725641D01*
X647326Y727626D01*
X645341Y728952D01*
X643000Y729417D01*
X635000D01*
X634460Y729310D01*
X633594Y729889D01*
X631838Y730238D01*
X605488D01*
Y730440D01*
D02*
G37*
G36*
X503500Y745600D02*
X488500D01*
Y726400D01*
X488500D01*
Y725600D01*
X488500D01*
Y706400D01*
X503500D01*
Y710220D01*
X504400Y710500D01*
Y710500D01*
X523600D01*
Y725500D01*
X523600D01*
Y726500D01*
X523600D01*
Y741500D01*
X504400D01*
Y741500D01*
X503500Y741780D01*
Y745600D01*
D02*
G37*
G36*
X549061Y717740D02*
X528512D01*
Y708160D01*
X534412D01*
Y699600D01*
X531500D01*
Y680400D01*
X534412D01*
Y666897D01*
X533913Y666399D01*
X533000Y664193D01*
Y661806D01*
X533913Y659601D01*
X535601Y657913D01*
X537807Y657000D01*
X540193D01*
X542399Y657913D01*
X544086Y659601D01*
X545000Y661806D01*
Y664193D01*
X544086Y666399D01*
X543588Y666897D01*
Y680400D01*
X546500D01*
Y699600D01*
X543588D01*
Y708160D01*
X549061D01*
Y717740D01*
D02*
G37*
G36*
X408500Y665950D02*
X383500D01*
Y655450D01*
X408500D01*
Y665950D01*
D02*
G37*
G36*
X409000Y526500D02*
X384000D01*
Y516000D01*
X409000D01*
Y526500D01*
D02*
G37*
G36*
X408500Y389250D02*
X383500D01*
Y378750D01*
X408500D01*
Y389250D01*
D02*
G37*
G36*
X560000Y364000D02*
X536000D01*
Y358569D01*
X490000D01*
Y364000D01*
X466000D01*
Y346000D01*
X490000D01*
Y351431D01*
X536000D01*
Y346000D01*
X560000D01*
Y351431D01*
X579722D01*
X597500Y333653D01*
Y319500D01*
X602730D01*
Y312128D01*
X595409D01*
Y304572D01*
X617188D01*
Y312128D01*
X609867D01*
Y319500D01*
X612500D01*
Y338700D01*
X602547D01*
X583723Y357523D01*
X582566Y358297D01*
X581200Y358569D01*
X560000D01*
Y364000D01*
D02*
G37*
G36*
X872194Y374000D02*
X869807D01*
X867601Y373087D01*
X865913Y371399D01*
X865000Y369193D01*
Y366806D01*
X865913Y364601D01*
X866412Y364103D01*
Y360217D01*
X857465D01*
Y350883D01*
X880806D01*
Y360217D01*
X875588D01*
Y364103D01*
X876087Y364601D01*
X877000Y366806D01*
Y369193D01*
X876087Y371399D01*
X874399Y373087D01*
X872194Y374000D01*
D02*
G37*
G36*
X436600Y354500D02*
X417400D01*
Y339500D01*
X436600D01*
Y354500D01*
D02*
G37*
G36*
X408500Y401950D02*
X383500D01*
Y391450D01*
X408500D01*
Y392112D01*
X666400D01*
X749412Y309100D01*
Y286093D01*
X748600Y285600D01*
X748396Y285600D01*
X734447D01*
X729569Y290478D01*
Y304100D01*
X729297Y305466D01*
X728523Y306623D01*
X705623Y329523D01*
X704466Y330297D01*
X703100Y330569D01*
X661000D01*
X659634Y330297D01*
X658477Y329523D01*
X641477Y312523D01*
X640703Y311366D01*
X640431Y310000D01*
Y282100D01*
Y276100D01*
X640703Y274734D01*
X641477Y273577D01*
X644750Y270303D01*
Y268157D01*
X645663Y265951D01*
X647351Y264264D01*
X649557Y263350D01*
X651943D01*
X651968Y263360D01*
X652812Y262796D01*
Y252572D01*
Y246072D01*
X669546D01*
X675431Y240186D01*
Y208100D01*
X675703Y206734D01*
X676477Y205577D01*
X694477Y187577D01*
X695634Y186803D01*
X697000Y186531D01*
X703500D01*
Y180500D01*
X718500D01*
Y199700D01*
X703500D01*
Y193669D01*
X698478D01*
X682569Y209578D01*
Y221157D01*
X683507Y221546D01*
X696477Y208577D01*
X697634Y207803D01*
X699000Y207532D01*
X702500D01*
Y201500D01*
X717500D01*
Y220700D01*
X702500D01*
Y214669D01*
X700478D01*
X688569Y226578D01*
Y244000D01*
X688297Y245366D01*
X687523Y246523D01*
X678959Y255088D01*
X678616Y255601D01*
X675952Y258265D01*
X676372Y259282D01*
X679872D01*
X702500Y236653D01*
Y222500D01*
X717500D01*
Y241700D01*
X707547D01*
X706685Y242561D01*
X707074Y243500D01*
X717500D01*
Y262700D01*
X707547D01*
X700046Y270200D01*
X700435Y271139D01*
X711945D01*
Y271139D01*
X712055D01*
Y271139D01*
X724945D01*
Y274531D01*
X729400D01*
Y270600D01*
X748396D01*
X748600Y270600D01*
X749412Y270107D01*
Y204311D01*
X749761Y202555D01*
X750756Y201067D01*
X763194Y188628D01*
Y185783D01*
X771046D01*
X771466Y185364D01*
X773671Y184450D01*
X776058D01*
X778263Y185364D01*
X778683Y185783D01*
X786535D01*
Y195117D01*
X778683D01*
X778263Y195537D01*
X776058Y196450D01*
X773671D01*
X771466Y195537D01*
X771046Y195117D01*
X769683D01*
X767255Y197544D01*
X767644Y198483D01*
X786535D01*
Y207817D01*
X763194D01*
Y202933D01*
X762255Y202544D01*
X758588Y206211D01*
Y311000D01*
X758239Y312756D01*
X757244Y314244D01*
X671544Y399944D01*
X670056Y400939D01*
X668300Y401288D01*
X408500D01*
Y401950D01*
D02*
G37*
G36*
X409000Y307300D02*
X384000D01*
Y296800D01*
X403953D01*
X405215Y295539D01*
X404826Y294600D01*
X384000D01*
Y284100D01*
X404826D01*
X405215Y283161D01*
X403953Y281900D01*
X384000D01*
Y271400D01*
X404826D01*
X405215Y270461D01*
X403953Y269200D01*
X384000D01*
Y258700D01*
X409000D01*
Y264153D01*
X417128Y272281D01*
X595409D01*
Y272072D01*
X617188D01*
Y278572D01*
Y285072D01*
Y291572D01*
Y299128D01*
X595409D01*
Y298919D01*
X411928D01*
X409000Y301847D01*
Y307300D01*
D02*
G37*
G36*
X631194Y276100D02*
X628806D01*
X626601Y275187D01*
X624913Y273499D01*
X624000Y271294D01*
Y268907D01*
X624913Y266701D01*
X626601Y265014D01*
X628806Y264100D01*
X631194D01*
X633399Y265014D01*
X635087Y266701D01*
X636000Y268907D01*
Y271294D01*
X635087Y273499D01*
X633399Y275187D01*
X631194Y276100D01*
D02*
G37*
G36*
X870193Y235000D02*
X867806D01*
X865601Y234087D01*
X864732Y233217D01*
X857465D01*
Y223883D01*
X865675D01*
X867806Y223000D01*
X870193D01*
X872325Y223883D01*
X880806D01*
Y233217D01*
X873268D01*
X872399Y234087D01*
X870193Y235000D01*
D02*
G37*
G36*
X617188Y260128D02*
X595409D01*
Y259919D01*
X566350D01*
X564984Y259647D01*
X563827Y258874D01*
X551553Y246600D01*
X537400D01*
Y231600D01*
X556600D01*
Y241553D01*
X567828Y252782D01*
X595409D01*
Y251119D01*
X584477Y240187D01*
X583703Y239029D01*
X583431Y237664D01*
Y223478D01*
X573553Y213600D01*
X559400D01*
Y198600D01*
X578600D01*
Y208553D01*
X589523Y219477D01*
X590297Y220634D01*
X590569Y222000D01*
Y236185D01*
X600455Y246072D01*
X617188D01*
Y252572D01*
Y260128D01*
D02*
G37*
G36*
X870329Y221850D02*
X867942D01*
X865737Y220937D01*
X865317Y220517D01*
X857465D01*
Y211183D01*
X865317D01*
X865737Y210763D01*
X867459Y210050D01*
Y208950D01*
X865737Y208237D01*
X865317Y207817D01*
X857465D01*
Y198483D01*
X865317D01*
X865737Y198064D01*
X867459Y197350D01*
Y196250D01*
X865737Y195537D01*
X865317Y195117D01*
X857465D01*
Y185783D01*
X865317D01*
X865737Y185364D01*
X867942Y184450D01*
X870329D01*
X872534Y185364D01*
X872954Y185783D01*
X880806D01*
Y195117D01*
X872954D01*
X872534Y195537D01*
X870811Y196250D01*
Y197350D01*
X872534Y198064D01*
X872954Y198483D01*
X880806D01*
Y207817D01*
X872954D01*
X872534Y208237D01*
X870811Y208950D01*
Y210050D01*
X872534Y210763D01*
X872954Y211183D01*
X880806D01*
Y220517D01*
X872954D01*
X872534Y220937D01*
X870329Y221850D01*
D02*
G37*
G36*
X645500Y162600D02*
X630500D01*
Y157588D01*
X622500D01*
Y162600D01*
X607500D01*
Y146094D01*
X606484Y145786D01*
X606244Y146144D01*
X602500Y149889D01*
Y162600D01*
X587500D01*
Y143400D01*
X596011D01*
X598412Y140999D01*
Y128600D01*
X595500D01*
Y109400D01*
X604362D01*
X604794Y109111D01*
X606550Y108762D01*
X617424D01*
Y108556D01*
X638061D01*
Y118144D01*
X617424D01*
Y117938D01*
X610500D01*
Y128600D01*
X607588D01*
Y142384D01*
X607588Y142900D01*
X608525Y143400D01*
X622500D01*
Y148412D01*
X630500D01*
Y143400D01*
X633412D01*
Y131173D01*
X633171Y130932D01*
X628036D01*
X627593Y130844D01*
X617424D01*
Y121256D01*
X638061D01*
Y122930D01*
X638315Y123100D01*
X641244Y126029D01*
X642239Y127517D01*
X642588Y129273D01*
Y143400D01*
X645500D01*
Y162600D01*
D02*
G37*
G36*
X665500D02*
X650500D01*
Y143400D01*
X665500D01*
Y148412D01*
X688103D01*
X688601Y147913D01*
X690807Y147000D01*
X693194D01*
X695399Y147913D01*
X697086Y149601D01*
X698000Y151806D01*
Y154193D01*
X697086Y156399D01*
X695399Y158087D01*
X693194Y159000D01*
X690807D01*
X688601Y158087D01*
X688103Y157588D01*
X665500D01*
Y162600D01*
D02*
G37*
G36*
X778500Y161600D02*
X763500D01*
Y142400D01*
X778500D01*
Y161600D01*
D02*
G37*
G36*
X758500D02*
X743500D01*
Y142400D01*
X758500D01*
Y161600D01*
D02*
G37*
G36*
X737500D02*
X722500D01*
Y142400D01*
X737500D01*
Y161600D01*
D02*
G37*
G36*
X534193Y140500D02*
X531806D01*
X529601Y139587D01*
X527913Y137899D01*
X527000Y135694D01*
Y133307D01*
X527913Y131101D01*
X529601Y129413D01*
X531806Y128500D01*
X534193D01*
X536399Y129413D01*
X538087Y131101D01*
X539000Y133307D01*
Y135694D01*
X538087Y137899D01*
X536399Y139587D01*
X534193Y140500D01*
D02*
G37*
G36*
X694576Y130844D02*
X673939D01*
Y121256D01*
X694576D01*
Y130844D01*
D02*
G37*
G36*
X741061Y128844D02*
X720424D01*
Y119256D01*
X741061D01*
Y128844D01*
D02*
G37*
G36*
X788451Y130050D02*
X786064D01*
X783859Y129136D01*
X783566Y128844D01*
X776939D01*
Y119256D01*
X783566D01*
X783859Y118963D01*
X786064Y118050D01*
X788451D01*
X790656Y118963D01*
X790949Y119256D01*
X797576D01*
Y128844D01*
X790949D01*
X790656Y129136D01*
X788451Y130050D01*
D02*
G37*
G36*
X512119Y132500D02*
X509881D01*
X507719Y131921D01*
X505781Y130802D01*
X504198Y129219D01*
X503079Y127281D01*
X502500Y125119D01*
Y122881D01*
X503079Y120719D01*
X504198Y118781D01*
X505781Y117198D01*
X507719Y116079D01*
X509881Y115500D01*
X512119D01*
X514281Y116079D01*
X516219Y117198D01*
X517802Y118781D01*
X518921Y120719D01*
X519500Y122881D01*
Y125119D01*
X518921Y127281D01*
X517802Y129219D01*
X516219Y130802D01*
X514281Y131921D01*
X512119Y132500D01*
D02*
G37*
G36*
X590500Y128600D02*
X575500D01*
Y109400D01*
X590500D01*
Y128600D01*
D02*
G37*
G36*
X694576Y118144D02*
X673939D01*
Y108556D01*
X694576D01*
Y118144D01*
D02*
G37*
G36*
X797576Y116144D02*
X776939D01*
Y106556D01*
X797576D01*
Y116144D01*
D02*
G37*
G36*
X741061D02*
X720424D01*
Y106556D01*
X741061D01*
Y116144D01*
D02*
G37*
G36*
X694576Y105444D02*
X673939D01*
Y95856D01*
X694576D01*
Y105444D01*
D02*
G37*
G36*
X610500Y105600D02*
X595500D01*
Y86400D01*
X598412D01*
Y82401D01*
X593356Y77344D01*
X592361Y75856D01*
X592012Y74100D01*
Y68600D01*
X586500D01*
Y49400D01*
X601500D01*
Y68600D01*
X601188D01*
Y72200D01*
X606244Y77256D01*
X607239Y78744D01*
X607588Y80500D01*
Y86400D01*
X610500D01*
Y96062D01*
X617424D01*
Y95856D01*
X638061D01*
Y105444D01*
X617424D01*
Y105238D01*
X610500D01*
Y105600D01*
D02*
G37*
G36*
X797576Y103444D02*
X776939D01*
Y93856D01*
X797576D01*
Y103444D01*
D02*
G37*
G36*
X741061D02*
X720424D01*
Y93856D01*
X741061D01*
Y103444D01*
D02*
G37*
G36*
X717500Y161600D02*
X702500D01*
Y142400D01*
X704912D01*
Y97397D01*
X703913Y96399D01*
X703000Y94193D01*
Y91806D01*
X703913Y89601D01*
X705601Y87913D01*
X707806Y87000D01*
X710193D01*
X712399Y87913D01*
X714087Y89601D01*
X715000Y91806D01*
Y94193D01*
X714088Y96395D01*
Y142400D01*
X717500D01*
Y161600D01*
D02*
G37*
G36*
X590500Y105600D02*
X575500D01*
Y86400D01*
X590500D01*
Y105600D01*
D02*
G37*
G36*
X853194Y109000D02*
X850807D01*
X848601Y108087D01*
X846914Y106399D01*
X846000Y104193D01*
Y103489D01*
X816099Y73588D01*
X766900D01*
X754000Y86489D01*
Y87193D01*
X753087Y89399D01*
X751399Y91087D01*
X749193Y92000D01*
X746806D01*
X744601Y91087D01*
X744078Y90563D01*
X741061D01*
Y90744D01*
X720424D01*
Y81156D01*
X735340D01*
X735729Y80217D01*
X731099Y75588D01*
X652117D01*
X638061Y89645D01*
Y92744D01*
X631434D01*
X631141Y93036D01*
X628936Y93950D01*
X626549D01*
X624344Y93036D01*
X624051Y92744D01*
X617424D01*
Y83156D01*
X624051D01*
X624344Y82863D01*
X626549Y81950D01*
X628936D01*
X631141Y82863D01*
X631434Y83156D01*
X631572D01*
X646973Y67756D01*
X648461Y66761D01*
X650217Y66412D01*
X733000D01*
X734756Y66761D01*
X736244Y67756D01*
X748000Y79511D01*
X761756Y65756D01*
X763244Y64761D01*
X765000Y64412D01*
X818000D01*
X819756Y64761D01*
X821244Y65756D01*
X852489Y97000D01*
X853194D01*
X855399Y97914D01*
X857087Y99601D01*
X858000Y101807D01*
Y104193D01*
X857087Y106399D01*
X855399Y108087D01*
X853194Y109000D01*
D02*
G37*
G36*
X428399Y70625D02*
X425601D01*
X422899Y69901D01*
X420476Y68502D01*
X418498Y66524D01*
X417099Y64101D01*
X416375Y61399D01*
Y58601D01*
X417099Y55899D01*
X418498Y53476D01*
X420476Y51498D01*
X422899Y50099D01*
X425601Y49375D01*
X428399D01*
X431101Y50099D01*
X433524Y51498D01*
X435502Y53476D01*
X436901Y55899D01*
X437625Y58601D01*
Y61399D01*
X436901Y64101D01*
X435502Y66524D01*
X433524Y68502D01*
X431101Y69901D01*
X428399Y70625D01*
D02*
G37*
G36*
X788404Y52604D02*
X771196D01*
Y35396D01*
X788404D01*
Y52604D01*
D02*
G37*
G36*
X755533D02*
X753267D01*
X751079Y52018D01*
X749117Y50885D01*
X747515Y49283D01*
X746382Y47321D01*
X745796Y45133D01*
Y42867D01*
X746382Y40679D01*
X747515Y38717D01*
X749117Y37115D01*
X751079Y35982D01*
X753267Y35396D01*
X755533D01*
X757721Y35982D01*
X759683Y37115D01*
X761285Y38717D01*
X762418Y40679D01*
X763004Y42867D01*
Y45133D01*
X762418Y47321D01*
X761285Y49283D01*
X759683Y50885D01*
X757721Y52018D01*
X755533Y52604D01*
D02*
G37*
G36*
X730133D02*
X727867D01*
X725679Y52018D01*
X723717Y50885D01*
X722115Y49283D01*
X720982Y47321D01*
X720396Y45133D01*
Y42867D01*
X720982Y40679D01*
X722115Y38717D01*
X723717Y37115D01*
X725679Y35982D01*
X727867Y35396D01*
X730133D01*
X732321Y35982D01*
X734283Y37115D01*
X735885Y38717D01*
X737018Y40679D01*
X737604Y42867D01*
Y45133D01*
X737018Y47321D01*
X735885Y49283D01*
X734283Y50885D01*
X732321Y52018D01*
X730133Y52604D01*
D02*
G37*
G36*
X952364Y74000D02*
X947636D01*
X942999Y73078D01*
X938632Y71269D01*
X934701Y68642D01*
X931358Y65299D01*
X928732Y61368D01*
X926922Y57000D01*
X926000Y52364D01*
Y47636D01*
X926922Y43000D01*
X928732Y38632D01*
X931358Y34701D01*
X934701Y31358D01*
X938632Y28732D01*
X942999Y26922D01*
X947636Y26000D01*
X952364D01*
X957001Y26922D01*
X961368Y28732D01*
X965299Y31358D01*
X968642Y34701D01*
X971268Y38632D01*
X973078Y43000D01*
X974000Y47636D01*
Y52364D01*
X973078Y57000D01*
X971268Y61368D01*
X968642Y65299D01*
X965299Y68642D01*
X961368Y71269D01*
X957001Y73078D01*
X952364Y74000D01*
D02*
G37*
G36*
X515250Y37603D02*
X508750D01*
X506702Y37195D01*
X504965Y36035D01*
X503805Y34298D01*
X503397Y32250D01*
Y25750D01*
X503805Y23702D01*
X504965Y21965D01*
X506702Y20805D01*
X508750Y20397D01*
X515250D01*
X517298Y20805D01*
X519035Y21965D01*
X520195Y23702D01*
X520603Y25750D01*
Y32250D01*
X520195Y34298D01*
X519035Y36035D01*
X517298Y37195D01*
X515250Y37603D01*
D02*
G37*
G36*
X536194Y21500D02*
X533806D01*
X531601Y20587D01*
X529913Y18899D01*
X529000Y16694D01*
Y14306D01*
X529913Y12101D01*
X531601Y10413D01*
X533806Y9500D01*
X536194D01*
X538399Y10413D01*
X540087Y12101D01*
X541000Y14306D01*
Y16694D01*
X540087Y18899D01*
X538399Y20587D01*
X536194Y21500D01*
D02*
G37*
%LPD*%
G36*
X642730Y838782D02*
X643816Y838056D01*
X643508Y837040D01*
X638531D01*
X638485Y837086D01*
X636279Y838000D01*
X633893D01*
X631788Y837128D01*
X631361D01*
X606244Y862244D01*
X606018Y862396D01*
X606326Y863412D01*
X618100D01*
X642730Y838782D01*
D02*
G37*
G36*
X722431Y302622D02*
Y289000D01*
X722703Y287635D01*
X723075Y287077D01*
X722532Y286061D01*
X712055D01*
Y286061D01*
X711945D01*
Y286061D01*
X699055D01*
Y272519D01*
X698116Y272130D01*
X685373Y284873D01*
X684216Y285647D01*
X682850Y285919D01*
X674593D01*
Y286128D01*
X652812D01*
Y279419D01*
X651728D01*
X647569Y283578D01*
Y308522D01*
X662478Y323431D01*
X701622D01*
X722431Y302622D01*
D02*
G37*
G36*
X702500Y257653D02*
Y248074D01*
X701561Y247685D01*
X683873Y265373D01*
X682716Y266147D01*
X681350Y266419D01*
X674593D01*
Y278782D01*
X681372D01*
X702500Y257653D01*
D02*
G37*
%LPC*%
G36*
X711945Y303061D02*
X699055D01*
Y298919D01*
X674593D01*
Y299128D01*
X652812D01*
Y291572D01*
X674593D01*
Y291782D01*
X699055D01*
Y288139D01*
X711945D01*
Y303061D01*
D02*
G37*
G36*
X300693Y578050D02*
X298307D01*
X296496Y577300D01*
X287000D01*
Y566800D01*
X296496D01*
X297824Y566250D01*
Y565150D01*
X296496Y564600D01*
X287000D01*
Y554100D01*
X296496D01*
X297824Y553550D01*
Y552450D01*
X296496Y551900D01*
X287000D01*
Y541400D01*
X296496D01*
X297824Y540850D01*
Y539750D01*
X296496Y539200D01*
X287000D01*
Y528700D01*
X296496D01*
X298307Y527950D01*
X300693D01*
X302504Y528700D01*
X312000D01*
Y539200D01*
X302504D01*
X301176Y539750D01*
Y540850D01*
X302504Y541400D01*
X312000D01*
Y551900D01*
X302504D01*
X301176Y552450D01*
Y553550D01*
X302504Y554100D01*
X312000D01*
Y564600D01*
X302504D01*
X301176Y565150D01*
Y566250D01*
X302504Y566800D01*
X312000D01*
Y577300D01*
X302504D01*
X300693Y578050D01*
D02*
G37*
G36*
X312000Y526500D02*
X287000D01*
Y516000D01*
X312000D01*
Y526500D01*
D02*
G37*
%LPD*%
D13*
X498000Y718000D02*
G03*
X496000Y716000I0J-2000D01*
G01*
Y736000D02*
G03*
X498000Y734000I2000J0D01*
G01*
X663980Y256072D02*
X673098D01*
X676093Y253078D01*
X685000Y225100D02*
Y244000D01*
X663702Y262850D02*
X681350D01*
X676093Y252908D02*
X685000Y244000D01*
X676093Y252908D02*
Y253078D01*
X710000Y232343D02*
Y234200D01*
X681350Y262850D02*
X710000Y234200D01*
X774197Y702733D02*
X775365Y703900D01*
X757000Y695000D02*
X764733Y702733D01*
X774197D01*
X775365Y703900D02*
X788100D01*
X805000Y679000D02*
Y871000D01*
Y616515D02*
Y679000D01*
X819000Y653000D02*
Y845000D01*
Y561000D02*
Y653000D01*
Y461000D02*
Y561000D01*
Y303782D02*
Y461000D01*
X834000Y436000D02*
Y546000D01*
Y427000D02*
Y436000D01*
X841000Y614000D02*
Y806000D01*
Y538000D02*
Y614000D01*
Y422000D02*
Y538000D01*
Y287682D02*
Y422000D01*
X833885Y546115D02*
Y627885D01*
Y546115D02*
X834000Y546000D01*
X826500Y448500D02*
Y552500D01*
Y448500D02*
X827000Y448000D01*
X833770Y628000D02*
X833885Y627885D01*
X826500Y552500D02*
X827000Y553000D01*
Y640000D01*
X811000Y569000D02*
X811770Y568230D01*
Y473230D02*
X812000Y473000D01*
Y309482D02*
Y473000D01*
X811770Y473230D02*
Y568230D01*
X804230Y552912D02*
X805000Y552142D01*
X804230Y552912D02*
Y615745D01*
X811500Y664500D02*
X812000Y665000D01*
X811500Y569500D02*
Y664500D01*
X812000Y665000D02*
Y857000D01*
X811000Y569000D02*
X811500Y569500D01*
X805000Y315182D02*
Y552142D01*
X804230Y615745D02*
X805000Y616515D01*
X927000Y462257D02*
X927043Y462214D01*
X920043Y473187D02*
Y477214D01*
X921000Y385000D02*
Y473000D01*
X920043Y473187D02*
X920230Y473000D01*
X927043Y458957D02*
Y462214D01*
X927000Y462257D02*
Y650000D01*
X927043Y458957D02*
X928000Y458000D01*
X920615Y473385D02*
X921000Y473000D01*
X920000Y477257D02*
X920043Y477214D01*
X920000Y477257D02*
Y665000D01*
X827000Y299082D02*
Y448000D01*
X833000Y292382D02*
Y426000D01*
X834000Y427000D01*
X899230Y340541D02*
Y702230D01*
X906135Y498325D02*
X906460Y498000D01*
X906230Y497770D02*
X906460Y498000D01*
X928000Y361000D02*
Y458000D01*
Y318511D02*
Y361000D01*
X935000Y339000D02*
Y638000D01*
Y312811D02*
Y339000D01*
X942000Y307111D02*
Y625770D01*
Y307111D02*
X977611D01*
X980000Y309500D01*
X913043Y485000D02*
X913115Y484928D01*
X913000Y411000D02*
X913043Y410957D01*
X913115Y411115D02*
Y484928D01*
X913043Y328954D02*
Y410957D01*
X913000Y411000D02*
X913115Y411115D01*
X921000Y324211D02*
Y385000D01*
X906135Y498325D02*
Y689865D01*
X906000Y690000D02*
X906135Y689865D01*
X876139Y304750D02*
X906230Y334841D01*
X913043Y485000D02*
Y676813D01*
X906230Y334841D02*
Y497770D01*
X941885Y626115D02*
X942000Y626000D01*
X927000Y650000D02*
Y845000D01*
X920000Y665000D02*
Y859000D01*
X913043Y677000D02*
X913230Y677187D01*
X899682Y703318D02*
X900000Y703000D01*
X899230Y702230D02*
X900000Y703000D01*
X891000Y510239D02*
Y702239D01*
Y345011D02*
Y510239D01*
X876639Y524600D02*
X891000Y510239D01*
X869635Y524600D02*
X876639D01*
X891000Y702239D02*
Y894000D01*
X869635Y716600D02*
X876639D01*
X891000Y702239D01*
X876139Y279350D02*
X921000Y324211D01*
X899682Y896682D02*
X900000Y897000D01*
X876139Y317450D02*
X899230Y340541D01*
X906500Y883500D02*
X907000Y884000D01*
X906000Y690000D02*
X906500Y690500D01*
Y883500D01*
X899682Y703318D02*
Y896682D01*
X913230Y870230D02*
X914000Y871000D01*
X913043Y676813D02*
X913230Y677000D01*
Y677187D02*
Y870230D01*
X876139Y292050D02*
X913043Y328954D01*
X934000Y832000D02*
X934500Y831500D01*
Y638500D02*
Y831500D01*
X941885Y626115D02*
Y819885D01*
X941770Y626000D02*
X942000Y625770D01*
X941885Y819885D02*
X942000Y820000D01*
X934500Y638500D02*
X935000Y638000D01*
X876139Y253950D02*
X935000Y312811D01*
X876139Y241250D02*
X942000Y307111D01*
X876139Y266650D02*
X928000Y318511D01*
X877467Y907533D02*
X891000Y894000D01*
X876139Y330150D02*
X891000Y345011D01*
X869802Y907533D02*
X877467D01*
X868635Y908700D02*
X869802Y907533D01*
X869136Y241250D02*
X876139D01*
X869136Y253950D02*
X876139D01*
X869136Y266650D02*
X876139D01*
X869136Y279350D02*
X876139D01*
X869136Y292050D02*
X876139D01*
X869136Y304750D02*
X876139D01*
X869136Y317450D02*
X876139D01*
X798000Y692000D02*
Y884000D01*
X782535Y894465D02*
X791000Y886000D01*
Y701000D02*
Y886000D01*
X798000Y500000D02*
Y692000D01*
X869136Y330150D02*
X876139D01*
X498000Y734000D02*
X514000D01*
X498000Y718000D02*
X514000D01*
Y734000D01*
X788100Y511900D02*
X791000Y509000D01*
X775365Y511900D02*
X788100D01*
X791000Y509000D02*
Y701000D01*
X788100Y703900D02*
X791000Y701000D01*
Y326000D02*
Y509000D01*
X781868Y266650D02*
X819000Y303782D01*
X826500Y640500D02*
X827000Y640000D01*
X826000Y832000D02*
X826500Y831500D01*
X833885Y819885D02*
X834000Y820000D01*
X826500Y640500D02*
Y831500D01*
X781868Y253950D02*
X827000Y299082D01*
X833885Y628885D02*
Y819885D01*
X781868Y241250D02*
X833000Y292382D01*
X781868Y228550D02*
X841000Y287682D01*
X774865Y253950D02*
X781868D01*
X783617Y318617D02*
X791000Y326000D01*
X781868Y304750D02*
X798000Y320882D01*
Y500000D01*
X781868Y292050D02*
X805000Y315182D01*
X781868Y279350D02*
X812000Y309482D01*
X774364Y896000D02*
X781368D01*
X782535Y894833D01*
Y894465D02*
Y894833D01*
X774865Y228550D02*
X781868D01*
X774865Y241250D02*
X781868D01*
X774865Y266650D02*
X781868D01*
X774865Y279350D02*
X781868D01*
X774865Y292050D02*
X781868D01*
X774865Y304750D02*
X781868D01*
X776031Y318617D02*
X783617D01*
X774865Y317450D02*
X776031Y318617D01*
X861682Y229000D02*
X869000D01*
X706000Y278100D02*
X736900D01*
X661000Y327000D02*
X703100D01*
X644000Y310000D02*
X661000Y327000D01*
X644000Y282100D02*
Y310000D01*
X703100Y327000D02*
X726000Y304100D01*
X478000Y355000D02*
X548000D01*
X581200D01*
X605000Y331200D01*
Y329100D02*
Y331200D01*
X587000Y237664D02*
X599187Y249850D01*
X606298D01*
X606049Y289100D02*
X606298Y288850D01*
X605000Y329100D02*
X606298Y327802D01*
Y308350D02*
Y327802D01*
X644000Y276100D02*
Y282100D01*
X650250Y275850D01*
X644000Y276100D02*
X650750Y269350D01*
X670815Y249850D02*
X679000Y241665D01*
X650750Y269350D02*
X663702D01*
X650250Y275850D02*
X663702D01*
Y249850D02*
X670815D01*
X663702Y256350D02*
X663980Y256072D01*
X663702Y295350D02*
X705250D01*
X663702Y282350D02*
X682850D01*
X710000Y255200D01*
Y253100D02*
Y255200D01*
X726000Y289000D02*
X736900Y278100D01*
X726000Y289000D02*
Y304100D01*
X736900Y278100D02*
X739000D01*
X705500Y278600D02*
X706000Y278100D01*
X705250Y295350D02*
X705500Y295600D01*
X566350Y256350D02*
X606298D01*
X697000Y190100D02*
X711000D01*
X699000Y211100D02*
X710000D01*
X549100Y239100D02*
X566350Y256350D01*
X587000Y222000D02*
Y237664D01*
X571100Y206100D02*
X587000Y222000D01*
X679000Y208100D02*
Y241665D01*
Y208100D02*
X697000Y190100D01*
X685000Y225100D02*
X699000Y211100D01*
X396250Y301300D02*
X404500D01*
X410450Y295350D01*
X606298D01*
X396500Y289350D02*
X396750Y289100D01*
X606049D01*
X396500Y276650D02*
X403750D01*
X409450Y282350D01*
X606298D01*
X396500Y263950D02*
X403750D01*
X415650Y275850D01*
X606298D01*
D18*
X169000Y216500D02*
D03*
Y173500D02*
D03*
D19*
X38000Y277250D02*
D03*
X84000D02*
D03*
X61000D02*
D03*
D20*
Y340750D02*
D03*
D21*
X88000Y365000D02*
D03*
X68000D02*
D03*
X88000Y387000D02*
D03*
X68000D02*
D03*
X88500Y418050D02*
D03*
X68500D02*
D03*
X88000Y440000D02*
D03*
X68000D02*
D03*
X523000Y773000D02*
D03*
X543000D02*
D03*
X658000Y153000D02*
D03*
X638000D02*
D03*
X222000Y119000D02*
D03*
X242000D02*
D03*
X293000Y909000D02*
D03*
X313000D02*
D03*
X559000Y690000D02*
D03*
X539000D02*
D03*
X371000Y909000D02*
D03*
X391000D02*
D03*
X615000Y153000D02*
D03*
X595000D02*
D03*
X36000Y145000D02*
D03*
X56000D02*
D03*
X496000Y716000D02*
D03*
X476000D02*
D03*
X751000Y152000D02*
D03*
X771000D02*
D03*
X710000D02*
D03*
X730000D02*
D03*
X145000Y974000D02*
D03*
X165000D02*
D03*
X496000Y736000D02*
D03*
X476000D02*
D03*
X603000Y119000D02*
D03*
X583000D02*
D03*
X603000Y96000D02*
D03*
X583000D02*
D03*
X594000Y59000D02*
D03*
X614000D02*
D03*
X164000Y919000D02*
D03*
X144000D02*
D03*
X730000Y232100D02*
D03*
X710000D02*
D03*
X585000Y329100D02*
D03*
X605000D02*
D03*
X730000Y253100D02*
D03*
X710000D02*
D03*
X730000Y211100D02*
D03*
X710000D02*
D03*
X731000Y190100D02*
D03*
X711000D02*
D03*
X139000Y259000D02*
D03*
X119000D02*
D03*
D22*
X595214Y725650D02*
D03*
Y738350D02*
D03*
Y751050D02*
D03*
X538787D02*
D03*
Y725650D02*
D03*
Y712950D02*
D03*
X595214D02*
D03*
X538787Y738350D02*
D03*
D23*
X539743Y846050D02*
D03*
Y833350D02*
D03*
Y820650D02*
D03*
Y807950D02*
D03*
X596258Y820650D02*
D03*
Y833350D02*
D03*
Y846050D02*
D03*
Y807950D02*
D03*
X730742Y124050D02*
D03*
Y111350D02*
D03*
Y98650D02*
D03*
Y85950D02*
D03*
X787258D02*
D03*
Y98650D02*
D03*
Y111350D02*
D03*
Y124050D02*
D03*
X627743Y126050D02*
D03*
Y113350D02*
D03*
Y100650D02*
D03*
Y87950D02*
D03*
X684258D02*
D03*
Y100650D02*
D03*
Y113350D02*
D03*
Y126050D02*
D03*
D24*
X656914Y822475D02*
D03*
Y841525D02*
D03*
X635086Y832000D02*
D03*
D25*
X395000Y876000D02*
D03*
Y863300D02*
D03*
Y850600D02*
D03*
Y837900D02*
D03*
Y825200D02*
D03*
Y812500D02*
D03*
Y799800D02*
D03*
Y787100D02*
D03*
X298000Y799800D02*
D03*
Y787100D02*
D03*
Y863300D02*
D03*
Y812500D02*
D03*
Y850600D02*
D03*
Y825200D02*
D03*
Y876000D02*
D03*
Y837900D02*
D03*
X396500Y314750D02*
D03*
Y238550D02*
D03*
Y263950D02*
D03*
Y276650D02*
D03*
Y289350D02*
D03*
Y302050D02*
D03*
Y251250D02*
D03*
Y327450D02*
D03*
X299500Y238550D02*
D03*
Y314750D02*
D03*
Y302050D02*
D03*
Y289350D02*
D03*
Y263950D02*
D03*
Y251250D02*
D03*
Y327450D02*
D03*
Y276650D02*
D03*
X299000Y660700D02*
D03*
X396000Y648000D02*
D03*
Y660700D02*
D03*
Y673400D02*
D03*
Y686100D02*
D03*
Y698800D02*
D03*
Y711500D02*
D03*
Y724200D02*
D03*
Y736900D02*
D03*
X299000Y648000D02*
D03*
Y686100D02*
D03*
Y698800D02*
D03*
Y736900D02*
D03*
Y673400D02*
D03*
Y724200D02*
D03*
Y711500D02*
D03*
X299000Y460200D02*
D03*
Y384000D02*
D03*
X396000Y371300D02*
D03*
Y384000D02*
D03*
Y396700D02*
D03*
Y409400D02*
D03*
Y422100D02*
D03*
Y434800D02*
D03*
Y447500D02*
D03*
Y460200D02*
D03*
X299000Y371300D02*
D03*
Y409400D02*
D03*
Y447500D02*
D03*
Y422100D02*
D03*
Y396700D02*
D03*
Y434800D02*
D03*
X396500Y597450D02*
D03*
Y521250D02*
D03*
Y508550D02*
D03*
X299500Y521250D02*
D03*
X396500Y533950D02*
D03*
Y572050D02*
D03*
Y546650D02*
D03*
Y584750D02*
D03*
Y559350D02*
D03*
X299500Y508550D02*
D03*
Y572050D02*
D03*
Y546650D02*
D03*
Y584750D02*
D03*
Y559350D02*
D03*
Y597450D02*
D03*
Y533950D02*
D03*
D26*
X287500Y944650D02*
D03*
Y957350D02*
D03*
X396500Y970050D02*
D03*
Y957350D02*
D03*
Y944650D02*
D03*
Y931950D02*
D03*
X287500Y970050D02*
D03*
Y931950D02*
D03*
D27*
X186950Y971700D02*
D03*
X225050D02*
D03*
X212350Y922300D02*
D03*
X199650D02*
D03*
X186950D02*
D03*
X225050D02*
D03*
X212350Y971700D02*
D03*
X199650D02*
D03*
D28*
X427000Y758000D02*
D03*
Y738000D02*
D03*
Y897000D02*
D03*
Y877000D02*
D03*
X427000Y347000D02*
D03*
Y327000D02*
D03*
X270000Y897000D02*
D03*
Y877000D02*
D03*
Y617000D02*
D03*
Y597000D02*
D03*
Y757000D02*
D03*
Y737000D02*
D03*
X684000Y832000D02*
D03*
Y812000D02*
D03*
X428000Y618000D02*
D03*
Y598000D02*
D03*
X440000Y125000D02*
D03*
Y145000D02*
D03*
X514000Y718000D02*
D03*
Y698000D02*
D03*
Y734000D02*
D03*
Y754000D02*
D03*
X569000Y206100D02*
D03*
Y226100D02*
D03*
X547000Y239100D02*
D03*
Y219100D02*
D03*
X428000Y461000D02*
D03*
Y481000D02*
D03*
X739000Y278100D02*
D03*
Y298100D02*
D03*
X272000Y347000D02*
D03*
Y327000D02*
D03*
X270000Y461000D02*
D03*
Y481000D02*
D03*
D29*
X119750Y179000D02*
D03*
Y225000D02*
D03*
D30*
X53250Y202000D02*
D03*
D31*
X36000Y126500D02*
D03*
Y107500D02*
D03*
X58000Y117000D02*
D03*
D32*
X606298Y249850D02*
D03*
Y256350D02*
D03*
X663702Y269350D02*
D03*
Y275850D02*
D03*
X606298Y269350D02*
D03*
Y262850D02*
D03*
Y301850D02*
D03*
X663702Y301850D02*
D03*
Y288850D02*
D03*
Y308350D02*
D03*
X606298Y275850D02*
D03*
Y282350D02*
D03*
Y288850D02*
D03*
Y295350D02*
D03*
Y308350D02*
D03*
X663702Y295350D02*
D03*
Y282350D02*
D03*
Y262850D02*
D03*
Y256350D02*
D03*
Y249850D02*
D03*
D33*
X705500Y278600D02*
D03*
X718500D02*
D03*
Y295600D02*
D03*
X705500D02*
D03*
D34*
X548000Y315000D02*
D03*
X478000D02*
D03*
X548000Y355000D02*
D03*
X478000D02*
D03*
D35*
X869635Y550000D02*
D03*
X775365Y410300D02*
D03*
Y486500D02*
D03*
X869635D02*
D03*
X775365Y461100D02*
D03*
X869635Y435700D02*
D03*
X775365D02*
D03*
Y423000D02*
D03*
X869635Y461100D02*
D03*
X775365Y448400D02*
D03*
Y499200D02*
D03*
Y473800D02*
D03*
X869635Y499200D02*
D03*
Y473800D02*
D03*
Y524600D02*
D03*
X775365Y511900D02*
D03*
X869635Y448400D02*
D03*
Y511900D02*
D03*
Y537300D02*
D03*
Y423000D02*
D03*
Y410300D02*
D03*
Y397600D02*
D03*
Y384900D02*
D03*
X775365D02*
D03*
Y397600D02*
D03*
Y524600D02*
D03*
Y537300D02*
D03*
Y550000D02*
D03*
X775365Y742000D02*
D03*
Y729300D02*
D03*
Y716600D02*
D03*
Y602300D02*
D03*
Y589600D02*
D03*
X869635Y729300D02*
D03*
Y742000D02*
D03*
Y640400D02*
D03*
X775365Y653100D02*
D03*
Y691200D02*
D03*
X869635Y678500D02*
D03*
Y716600D02*
D03*
Y627700D02*
D03*
Y665800D02*
D03*
X775365Y640400D02*
D03*
Y678500D02*
D03*
X869635Y703900D02*
D03*
X775365Y627700D02*
D03*
X869635Y691200D02*
D03*
X775365Y665800D02*
D03*
X869635Y653100D02*
D03*
X775365Y703900D02*
D03*
Y615000D02*
D03*
X869635Y589600D02*
D03*
X775365Y576900D02*
D03*
X869635Y602300D02*
D03*
Y615000D02*
D03*
Y576900D02*
D03*
X774865Y355550D02*
D03*
Y342850D02*
D03*
Y330150D02*
D03*
Y203150D02*
D03*
Y190450D02*
D03*
X869136D02*
D03*
Y203150D02*
D03*
Y215850D02*
D03*
Y228550D02*
D03*
Y342850D02*
D03*
X774865Y215850D02*
D03*
X869136Y355550D02*
D03*
Y253950D02*
D03*
X774865Y266650D02*
D03*
Y304750D02*
D03*
X869136Y292050D02*
D03*
Y330150D02*
D03*
Y241250D02*
D03*
Y279350D02*
D03*
X774865Y253950D02*
D03*
Y292050D02*
D03*
X869136Y317450D02*
D03*
X774865Y241250D02*
D03*
X869136Y304750D02*
D03*
X774865Y279350D02*
D03*
X869136Y266650D02*
D03*
X774865Y317450D02*
D03*
Y228550D02*
D03*
X774364Y934100D02*
D03*
Y921400D02*
D03*
Y908700D02*
D03*
Y781700D02*
D03*
X868635Y921400D02*
D03*
Y934100D02*
D03*
X774364Y769000D02*
D03*
X868635D02*
D03*
Y781700D02*
D03*
Y807100D02*
D03*
Y794400D02*
D03*
X774364D02*
D03*
X868635Y832500D02*
D03*
X774364Y845200D02*
D03*
Y883300D02*
D03*
X868635Y870600D02*
D03*
Y908700D02*
D03*
Y819800D02*
D03*
Y857900D02*
D03*
X774364Y832500D02*
D03*
Y870600D02*
D03*
X868635Y896000D02*
D03*
X774364Y819800D02*
D03*
X868635Y883300D02*
D03*
X774364Y857900D02*
D03*
X868635Y845200D02*
D03*
X774364Y896000D02*
D03*
Y807100D02*
D03*
D36*
X439250Y212000D02*
D03*
Y166000D02*
D03*
Y189000D02*
D03*
D37*
X502750D02*
D03*
D63*
X779800Y44000D02*
D03*
D64*
X754400D02*
D03*
X729000D02*
D03*
X687000Y744000D02*
D03*
Y718600D02*
D03*
D65*
Y769400D02*
D03*
D66*
X365800Y150000D02*
D03*
X391200D02*
D03*
X340400D02*
D03*
D67*
X315000D02*
D03*
D68*
X221500Y60000D02*
D03*
X256500D02*
D03*
D69*
X389250Y251250D02*
X396500D01*
X377000Y239000D02*
Y315200D01*
Y239000D02*
X389250Y251250D01*
X377000Y214000D02*
Y239000D01*
Y315200D02*
Y448450D01*
Y315200D02*
X389250Y327450D01*
X396500D01*
X852574Y523574D02*
Y527242D01*
X852000Y523000D02*
X852574Y523574D01*
Y527242D02*
X862632Y537300D01*
X869635D01*
X853000Y729150D02*
X869485D01*
X61000Y277250D02*
Y340750D01*
X105750Y302000D02*
X143000D01*
X193750Y251250D02*
X299500D01*
X143000Y302000D02*
X193750Y251250D01*
X61000Y340750D02*
X67000D01*
X105750Y302000D01*
X267000Y458000D02*
X270000Y461000D01*
Y597000D02*
X270225Y597225D01*
X270000Y737000D02*
X270050Y736950D01*
X270000Y461000D02*
X285100D01*
X270225Y597225D02*
X299275D01*
X285150Y460950D02*
X298250D01*
X285100Y461000D02*
X285150Y460950D01*
X270000Y877000D02*
X289750D01*
X270050Y736950D02*
X298950D01*
X299500Y251250D02*
X300250Y252000D01*
X311000D01*
X300250Y326700D02*
X308300D01*
X320000Y315000D02*
Y446450D01*
X299500Y327450D02*
X300250Y326700D01*
X311000Y252000D02*
X320000Y261000D01*
X308300Y326700D02*
X320000Y315000D01*
Y261000D02*
Y315000D01*
X299000Y460200D02*
X306250D01*
X298250Y460950D02*
X299000Y460200D01*
X299275Y597225D02*
X299500Y597450D01*
X299000Y736900D02*
X306250D01*
X289750Y877000D02*
X290750Y876000D01*
X298950Y736950D02*
X299000Y736900D01*
X290750Y876000D02*
X298000D01*
X305250D01*
X299500Y597450D02*
X306750D01*
X306250Y460200D02*
X320000Y446450D01*
X306750Y597450D02*
X320000Y584200D01*
Y446450D02*
Y584200D01*
X305250Y876000D02*
X320000Y861250D01*
Y584200D02*
Y723150D01*
X306250Y736900D02*
X320000Y723150D01*
Y861250D01*
X45000Y388700D02*
X66300D01*
X68000Y387000D01*
Y365000D02*
Y387000D01*
Y345000D02*
Y365000D01*
Y345000D02*
X72000Y341000D01*
X272000Y327000D02*
X272225Y327225D01*
X299275D01*
X299500Y327450D01*
X634546Y832540D02*
X635086Y832000D01*
X629460Y832540D02*
X634546D01*
X579000Y859000D02*
X603000D01*
X410350Y944650D02*
X521650Y833350D01*
X539743D01*
X396500Y944650D02*
X410350D01*
X553350Y833350D02*
X579000Y859000D01*
X603000D02*
X629460Y832540D01*
X539743Y833350D02*
X553350D01*
X869136Y355550D02*
X870833D01*
X871000Y355717D01*
Y368000D01*
X446600Y673400D02*
X543100Y576900D01*
X396000Y673400D02*
X446600D01*
X543100Y576900D02*
X775365D01*
X413500Y812500D02*
X437000Y789000D01*
X721000D01*
X395000Y812500D02*
X413500D01*
X721000Y789000D02*
X741000Y769000D01*
X774364D01*
X721784Y756216D02*
X733000Y745000D01*
X624962Y756216D02*
X721784D01*
X595214Y751050D02*
X619796D01*
X624962Y756216D01*
X677000Y680000D02*
X677000Y680000D01*
X655063Y680000D02*
X677000D01*
X622113Y712950D02*
X655063Y680000D01*
X595214Y712950D02*
X622113D01*
X510350Y820650D02*
X539743D01*
X473000Y721100D02*
X476000Y718100D01*
X461900Y721100D02*
X473000D01*
X476000Y716000D02*
Y718100D01*
X459000Y724000D02*
X461900Y721100D01*
X470900Y741100D02*
X473000D01*
X440000Y772000D02*
X470900Y741100D01*
X476000Y736000D02*
Y738100D01*
X473000Y741100D02*
X476000Y738100D01*
X421000Y772000D02*
X440000D01*
X656413Y842026D02*
X656914Y841525D01*
X575000Y868000D02*
X620000D01*
X645974Y842026D01*
X656413D01*
X553050Y846050D02*
X575000Y868000D01*
X539743Y846050D02*
X553050D01*
X656914Y822475D02*
Y841525D01*
X596258Y820650D02*
Y833350D01*
X429100Y738000D02*
X469100Y698000D01*
X427000Y738000D02*
X429100D01*
X469100Y698000D02*
X514000D01*
X686650Y718950D02*
X687000Y718600D01*
X639350Y718950D02*
X686650D01*
X639000Y719300D02*
X639350Y718950D01*
Y744350D02*
X686650D01*
X687000Y744000D01*
X639000Y744700D02*
X639350Y744350D01*
X631838Y725650D02*
X638188Y719300D01*
X595214Y725650D02*
X631838D01*
X638188Y719300D02*
X639000D01*
X636023Y744700D02*
X639000D01*
X595214Y738350D02*
X629673D01*
X636023Y744700D01*
X523000Y770900D02*
Y773000D01*
Y770900D02*
X526000Y767900D01*
X533012Y751340D02*
Y762988D01*
X526000Y767900D02*
X528100D01*
X533012Y762988D01*
Y751340D02*
X533302Y751050D01*
X538787D01*
X539000Y690000D02*
Y712737D01*
X538787Y712950D02*
X539000Y712737D01*
Y663000D02*
Y690000D01*
Y663000D02*
X539000Y663000D01*
X853000Y921400D02*
X868635D01*
X396500Y533950D02*
X556050D01*
X705100Y384900D02*
X775365D01*
X556050Y533950D02*
X705100Y384900D01*
X869060Y342925D02*
X869061Y342925D01*
X852075Y342925D02*
X869060D01*
X852000Y343000D02*
X852075Y342925D01*
X869485Y729150D02*
X869635Y729300D01*
X818000Y69000D02*
X852000Y103000D01*
X747975Y85975D02*
X748000Y86000D01*
X765000Y69000D01*
X818000D01*
X730768Y85975D02*
X747975D01*
X733000Y71000D02*
X748000Y86000D01*
X627743Y87950D02*
X633267D01*
X650217Y71000D01*
X730742Y85950D02*
X730768Y85975D01*
X650217Y71000D02*
X733000D01*
X754000Y204311D02*
Y311000D01*
X668300Y396700D02*
X754000Y311000D01*
X396000Y396700D02*
X668300D01*
X754000Y204311D02*
X767861Y190450D01*
X478000Y315000D02*
X548000D01*
X475000D02*
X478000D01*
X463000Y327000D02*
X475000Y315000D01*
X427000Y327000D02*
X463000D01*
X426775Y327225D02*
X427000Y327000D01*
X396725Y327225D02*
X426775D01*
X396500Y327450D02*
X396725Y327225D01*
X439250Y189000D02*
X502750D01*
X426500Y876500D02*
X427000Y877000D01*
X404350Y738000D02*
X427000D01*
X395500Y876500D02*
X426500D01*
X403250Y736900D02*
X404350Y738000D01*
X427725Y597725D02*
X428000Y598000D01*
X396775Y597725D02*
X427725D01*
X395000Y876000D02*
X395500Y876500D01*
X387750Y876000D02*
X395000D01*
X377000Y865250D02*
X387750Y876000D01*
X377000Y725150D02*
Y865250D01*
Y725150D02*
X388750Y736900D01*
X396000D02*
X403250D01*
X389250Y597450D02*
X396500D01*
X396775Y597725D01*
X388750Y736900D02*
X396000D01*
X377000Y585200D02*
Y725150D01*
X427600Y460600D02*
X428000Y461000D01*
X396400Y460600D02*
X427600D01*
X402000Y189000D02*
X439250D01*
X377000Y214000D02*
X402000Y189000D01*
X396000Y460200D02*
X396400Y460600D01*
X388750Y460200D02*
X396000D01*
X377000Y585200D02*
X389250Y597450D01*
X377000Y448450D02*
Y585200D01*
Y448450D02*
X388750Y460200D01*
X767861Y190450D02*
X774865D01*
X709500Y151500D02*
X710000Y152000D01*
X709500Y93500D02*
Y151500D01*
X709000Y93000D02*
X709500Y93500D01*
X635071Y126344D02*
X638000Y129273D01*
X627743Y126050D02*
X628036Y126344D01*
X635071D01*
X638000Y129273D02*
Y153000D01*
X615000D02*
X638000D01*
X595000Y150900D02*
Y153000D01*
Y150900D02*
X603000Y142900D01*
Y119000D02*
Y142900D01*
Y116900D02*
X606550Y113350D01*
X627743D01*
X603000Y96000D02*
Y97650D01*
X606000Y100650D01*
X627743D01*
X603000Y80500D02*
Y96000D01*
X596600Y74100D02*
X603000Y80500D01*
X596600Y62100D02*
Y74100D01*
X593750Y59250D02*
X596600Y62100D01*
X658000Y153000D02*
X692000D01*
X218000Y341000D02*
X269650Y289350D01*
X299500D01*
X218000Y341000D02*
Y621700D01*
X273950Y302050D02*
X299500D01*
X229000Y347000D02*
Y661500D01*
Y347000D02*
X273950Y302050D01*
X133770Y542000D02*
X133770Y983770D01*
X143000Y993000D01*
X45000Y845900D02*
X117000Y773900D01*
X126000Y571263D02*
Y790300D01*
X45000Y871300D02*
X126000Y790300D01*
X117000Y561000D02*
Y773900D01*
X68250Y418299D02*
X68500Y418050D01*
X68250Y418299D02*
Y439750D01*
X68000Y440000D02*
X68250Y439750D01*
X67500Y439500D02*
X68000Y440000D01*
X45000Y439500D02*
X67500D01*
X186000Y400900D02*
X198100Y413000D01*
X186000Y337000D02*
X246350Y276650D01*
X186000Y337000D02*
Y400900D01*
X246350Y276650D02*
X299500D01*
X45000Y795100D02*
X100000Y740100D01*
Y533000D02*
Y740100D01*
X27000Y787700D02*
Y848000D01*
Y787700D02*
X45000Y769700D01*
X59000Y631300D02*
Y713000D01*
X45000Y617300D02*
X59000Y631300D01*
X169000Y470000D02*
Y688700D01*
X198100Y717800D01*
X90000Y723188D02*
X92000Y721188D01*
X90000Y723188D02*
Y724000D01*
X92000Y537300D02*
Y721188D01*
X45000Y490300D02*
X92000Y537300D01*
X83000Y579100D02*
Y675000D01*
X45000Y541100D02*
X83000Y579100D01*
X143080Y426732D02*
Y738980D01*
X198100Y794000D01*
X143080Y426732D02*
X146000Y423812D01*
Y423000D02*
Y423812D01*
X179000Y326000D02*
Y495500D01*
Y326000D02*
X241050Y263950D01*
X179000Y495500D02*
X198100Y514600D01*
X241050Y263950D02*
X299500D01*
X198100Y641600D02*
X218000Y621700D01*
X254000Y464000D02*
Y570000D01*
X268750Y584750D01*
X299500D01*
X45000Y591900D02*
X67000Y613900D01*
Y697000D01*
X19000Y770300D02*
Y820000D01*
Y770300D02*
X45000Y744300D01*
X198100Y692400D02*
X229000Y661500D01*
X160000Y452000D02*
Y705100D01*
X198100Y743200D01*
X250000Y617000D02*
Y843000D01*
X257600Y850600D02*
X298000D01*
X250000Y843000D02*
X257600Y850600D01*
X11000Y608700D02*
X45000Y642700D01*
X11000Y431000D02*
Y608700D01*
X108000Y552000D02*
Y757500D01*
X45000Y820500D02*
X108000Y757500D01*
X10000Y753900D02*
X45000Y718900D01*
X10000Y753900D02*
Y798000D01*
X45000Y566500D02*
X75000Y596500D01*
Y684000D01*
X239800Y952000D02*
X259850Y931950D01*
X211000Y952000D02*
X239800D01*
X198100Y870200D02*
X259850Y931950D01*
X200150Y962850D02*
X211000Y952000D01*
X200150Y962850D02*
Y971200D01*
X199650Y971700D02*
X200150Y971200D01*
X293500Y931950D02*
X294000Y931450D01*
Y930100D02*
Y931450D01*
X287500Y931950D02*
X293500D01*
X313000Y909000D02*
Y911100D01*
X294000Y930100D02*
X313000Y911100D01*
X259850Y931950D02*
X287500D01*
X225000Y240000D02*
X315000Y150000D01*
X11000Y270000D02*
Y405500D01*
X45000Y439500D01*
X27000Y254000D02*
X83750D01*
X11000Y270000D02*
X27000Y254000D01*
X147000Y240000D02*
X225000D01*
X137500Y230500D02*
X147000Y240000D01*
X123500Y230500D02*
X137500D01*
X119000Y226000D02*
X123500Y230500D01*
X119000Y225750D02*
Y259000D01*
X111750Y226000D02*
X119000D01*
X83750Y254000D02*
X111750Y226000D01*
X197900Y993000D02*
X212350Y978550D01*
X165000Y976100D02*
X181900Y993000D01*
X197900D01*
X212350Y971700D02*
Y978550D01*
X165000Y974000D02*
Y976100D01*
X143000Y993000D02*
X181900D01*
X151000Y441000D02*
Y721500D01*
X198100Y768600D01*
X241000Y478000D02*
Y847000D01*
X257300Y863300D01*
X298000D01*
X145000Y956000D02*
Y974000D01*
Y956000D02*
X158000Y943000D01*
X185800D01*
X199650Y929150D01*
Y922300D02*
Y929150D01*
X164000Y916900D02*
Y919000D01*
Y916900D02*
X178900Y902000D01*
X198900D01*
X212350Y915450D01*
Y922300D01*
X390500Y931950D02*
X396500D01*
X390000Y931450D02*
X390500Y931950D01*
X390000Y930100D02*
Y931450D01*
X371000Y911100D02*
X390000Y930100D01*
X371000Y909000D02*
Y911100D01*
X369000Y907000D02*
X371000Y909000D01*
X369000Y888000D02*
Y907000D01*
X369000Y172200D02*
X391200Y150000D01*
X369000Y888000D02*
X369000Y172200D01*
X1746500Y747450D02*
X1746950Y747000D01*
X1730500Y466550D02*
X1730950Y466100D01*
X407200Y166000D02*
X439250D01*
X391200Y150000D02*
X407200Y166000D01*
X439250D02*
X440000Y165250D01*
Y145000D02*
Y165250D01*
X256500Y60000D02*
X300000D01*
X221750Y118750D02*
X222000Y119000D01*
X221750Y60250D02*
Y118750D01*
X221500Y60000D02*
X221750Y60250D01*
X222000Y119000D02*
X224000Y121000D01*
Y138000D01*
X240000Y154000D01*
Y186000D01*
X219000Y207000D02*
X240000Y186000D01*
X169000Y212500D02*
X174500Y207000D01*
X219000D01*
X169000Y212500D02*
Y216500D01*
X163750Y207250D02*
X169000Y212500D01*
X155000Y207250D02*
X163750D01*
X126750Y179000D02*
X155000Y207250D01*
X119750Y179000D02*
X126750D01*
X58000Y117000D02*
X80060D01*
X140000Y82500D02*
X141000Y83500D01*
X88060Y125000D02*
X90000D01*
X80060Y117000D02*
X88060Y125000D01*
X20500Y107500D02*
X36000D01*
X13000Y115000D02*
X20500Y107500D01*
X13000Y115000D02*
Y150000D01*
X24000Y161000D01*
X94750D01*
X112750Y179000D01*
X119750D01*
D70*
X141000Y83500D02*
Y125000D01*
D71*
X140000Y82500D02*
D03*
D72*
X188000Y53000D02*
D03*
D73*
X140000Y24500D02*
D03*
D74*
X639000Y719300D02*
D03*
D75*
Y744700D02*
D03*
D76*
X512000Y29000D02*
D03*
X511000Y104000D02*
D03*
X219000Y207000D02*
D03*
D77*
X512000Y49000D02*
D03*
X511000Y124000D02*
D03*
X219000Y187000D02*
D03*
D78*
X141000Y125000D02*
D03*
X90000D02*
D03*
D79*
X980000Y588900D02*
D03*
Y538100D02*
D03*
Y461900D02*
D03*
Y360300D02*
D03*
Y334900D02*
D03*
Y385700D02*
D03*
Y411100D02*
D03*
Y436500D02*
D03*
Y487300D02*
D03*
Y512700D02*
D03*
Y563500D02*
D03*
Y614300D02*
D03*
Y639700D02*
D03*
Y665100D02*
D03*
Y690500D02*
D03*
X198100Y844800D02*
D03*
X45000Y414100D02*
D03*
X198100Y438400D02*
D03*
Y387600D02*
D03*
Y489200D02*
D03*
Y590800D02*
D03*
Y667000D02*
D03*
Y565400D02*
D03*
X45000Y693500D02*
D03*
Y668100D02*
D03*
Y515700D02*
D03*
Y464900D02*
D03*
X198100Y768600D02*
D03*
Y540000D02*
D03*
X45000Y439500D02*
D03*
Y566500D02*
D03*
Y718900D02*
D03*
Y820500D02*
D03*
Y642700D02*
D03*
X198100Y616200D02*
D03*
Y743200D02*
D03*
Y692400D02*
D03*
X45000Y744300D02*
D03*
Y591900D02*
D03*
X198100Y463800D02*
D03*
Y641600D02*
D03*
Y514600D02*
D03*
X45000Y845900D02*
D03*
X198100Y794000D02*
D03*
X45000Y388700D02*
D03*
X198100Y819400D02*
D03*
X45000Y541100D02*
D03*
Y490300D02*
D03*
X198100Y717800D02*
D03*
X45000Y617300D02*
D03*
Y769700D02*
D03*
Y795100D02*
D03*
X198100Y413000D02*
D03*
D80*
X980000Y309500D02*
D03*
X45000Y871300D02*
D03*
X198100Y870200D02*
D03*
D81*
X427000Y60000D02*
D03*
X401600D02*
D03*
X376200D02*
D03*
X300000D02*
D03*
X325400D02*
D03*
D82*
X562000Y722000D02*
D03*
X849999Y626000D02*
D03*
X482000Y498000D02*
D03*
X418000Y210000D02*
D03*
X929999Y242000D02*
D03*
X490000Y482000D02*
D03*
X530000Y498000D02*
D03*
X522000Y162000D02*
D03*
X658000Y242000D02*
D03*
X706000Y977999D02*
D03*
X578000Y370000D02*
D03*
X809999Y897999D02*
D03*
X474000Y66000D02*
D03*
X946000Y849999D02*
D03*
X809999Y226000D02*
D03*
X882000Y82000D02*
D03*
Y946000D02*
D03*
X530000Y178000D02*
D03*
X610000Y210000D02*
D03*
X522000Y962000D02*
D03*
Y929999D02*
D03*
X897999Y18000D02*
D03*
X442000Y386000D02*
D03*
X450000Y626000D02*
D03*
X826000Y929999D02*
D03*
X538000Y962000D02*
D03*
X474000Y610000D02*
D03*
X722000Y690000D02*
D03*
X746000Y450000D02*
D03*
X897999Y242000D02*
D03*
X602000Y226000D02*
D03*
X842000Y834000D02*
D03*
X490000Y674000D02*
D03*
X514000Y882000D02*
D03*
X986000Y226000D02*
D03*
X977999Y178000D02*
D03*
X826000Y162000D02*
D03*
X370000Y977999D02*
D03*
X466000Y146000D02*
D03*
X642000Y178000D02*
D03*
X442000Y834000D02*
D03*
X849999Y274000D02*
D03*
X706000Y626000D02*
D03*
X506000Y929999D02*
D03*
X626000Y210000D02*
D03*
X977999Y146000D02*
D03*
X937999Y194000D02*
D03*
X674000Y562000D02*
D03*
X498000Y977999D02*
D03*
X530000Y466000D02*
D03*
X506000Y514000D02*
D03*
X953999Y610000D02*
D03*
X738000Y913999D02*
D03*
X866000Y946000D02*
D03*
X754000Y818000D02*
D03*
X634000Y770000D02*
D03*
X913999Y913999D02*
D03*
X969999Y226000D02*
D03*
X962000Y722000D02*
D03*
X977999Y114000D02*
D03*
X986000Y706000D02*
D03*
X458000Y642000D02*
D03*
X849999Y18000D02*
D03*
X658000Y882000D02*
D03*
X458000Y66000D02*
D03*
X722000Y18000D02*
D03*
X962000Y466000D02*
D03*
X626000Y594000D02*
D03*
X953999Y866000D02*
D03*
X386000Y18000D02*
D03*
X794000Y929999D02*
D03*
X834000Y977999D02*
D03*
X674000Y530000D02*
D03*
X658000Y946000D02*
D03*
X889999Y66000D02*
D03*
X857999Y162000D02*
D03*
X802000Y18000D02*
D03*
X738000Y754000D02*
D03*
X562000D02*
D03*
X969999Y802000D02*
D03*
X466000Y178000D02*
D03*
X986000Y194000D02*
D03*
X562000Y594000D02*
D03*
X953999Y897999D02*
D03*
X458000Y162000D02*
D03*
X474000D02*
D03*
X906000Y226000D02*
D03*
X474000Y98000D02*
D03*
X450000Y594000D02*
D03*
X690000Y690000D02*
D03*
X642000Y913999D02*
D03*
X602000Y386000D02*
D03*
Y642000D02*
D03*
X969999Y866000D02*
D03*
X474000Y258000D02*
D03*
X882000Y18000D02*
D03*
X426000Y258000D02*
D03*
X842000Y866000D02*
D03*
X586000Y929999D02*
D03*
X746000Y866000D02*
D03*
X946000Y178000D02*
D03*
X466000Y50000D02*
D03*
X522000Y194000D02*
D03*
X466000Y82000D02*
D03*
X786000Y18000D02*
D03*
X626000Y946000D02*
D03*
X986000Y866000D02*
D03*
X626000Y50000D02*
D03*
X482000Y754000D02*
D03*
X610000Y498000D02*
D03*
X690000Y306000D02*
D03*
X738000Y849999D02*
D03*
X809999Y34000D02*
D03*
X434000Y658000D02*
D03*
X482000Y818000D02*
D03*
X666000Y706000D02*
D03*
X610000Y242000D02*
D03*
X370000Y946000D02*
D03*
X458000Y226000D02*
D03*
X634000Y258000D02*
D03*
X546000Y498000D02*
D03*
X506000Y258000D02*
D03*
X378000Y962000D02*
D03*
X626000Y818000D02*
D03*
X722000Y722000D02*
D03*
X698000Y162000D02*
D03*
X434000Y178000D02*
D03*
X538000Y482000D02*
D03*
X466000Y466000D02*
D03*
X802000Y50000D02*
D03*
X937999Y897999D02*
D03*
X434000Y242000D02*
D03*
X746000Y674000D02*
D03*
X634000Y482000D02*
D03*
X626000Y242000D02*
D03*
X674000Y178000D02*
D03*
X857999Y66000D02*
D03*
X953999Y770000D02*
D03*
X546000Y370000D02*
D03*
X458000Y929999D02*
D03*
X450000Y82000D02*
D03*
X498000D02*
D03*
X690000Y946000D02*
D03*
X466000Y977999D02*
D03*
X474000Y482000D02*
D03*
X650000Y354000D02*
D03*
X873999Y66000D02*
D03*
X953999Y450000D02*
D03*
X506000Y642000D02*
D03*
X897999Y146000D02*
D03*
X977999Y882000D02*
D03*
X530000Y338000D02*
D03*
X746000Y834000D02*
D03*
X418000Y306000D02*
D03*
X442000Y226000D02*
D03*
X466000Y338000D02*
D03*
X562000Y977999D02*
D03*
X786000D02*
D03*
X754000Y658000D02*
D03*
X937999Y226000D02*
D03*
X578000Y626000D02*
D03*
X666000Y354000D02*
D03*
X386000Y82000D02*
D03*
X618000Y354000D02*
D03*
X562000Y498000D02*
D03*
X522000Y226000D02*
D03*
X634000Y610000D02*
D03*
X482000Y146000D02*
D03*
X913999Y178000D02*
D03*
X866000Y977999D02*
D03*
X690000Y50000D02*
D03*
X554000Y386000D02*
D03*
X977999Y818000D02*
D03*
X650000Y226000D02*
D03*
X498000Y146000D02*
D03*
X650000Y770000D02*
D03*
X786000Y946000D02*
D03*
X594000Y594000D02*
D03*
X962000Y402000D02*
D03*
X434000Y946000D02*
D03*
X690000Y530000D02*
D03*
X906000Y98000D02*
D03*
X946000Y242000D02*
D03*
X634000Y34000D02*
D03*
X794000D02*
D03*
X650000Y866000D02*
D03*
X562000Y338000D02*
D03*
X922000Y194000D02*
D03*
X402000Y626000D02*
D03*
X458000Y482000D02*
D03*
X466000Y818000D02*
D03*
X610000Y18000D02*
D03*
X690000Y882000D02*
D03*
X746000Y514000D02*
D03*
X690000Y338000D02*
D03*
X906000Y162000D02*
D03*
X554000Y258000D02*
D03*
X922000Y98000D02*
D03*
X842000Y962000D02*
D03*
X490000Y66000D02*
D03*
X730000Y706000D02*
D03*
X450000Y242000D02*
D03*
X913999Y114000D02*
D03*
X986000Y897999D02*
D03*
X410000Y770000D02*
D03*
X738000Y18000D02*
D03*
X642000Y50000D02*
D03*
X506000Y834000D02*
D03*
X642000Y594000D02*
D03*
X410000Y354000D02*
D03*
X498000Y754000D02*
D03*
X889999Y962000D02*
D03*
X682000Y546000D02*
D03*
X698000Y706000D02*
D03*
X738000Y498000D02*
D03*
X522000Y482000D02*
D03*
X482000Y913999D02*
D03*
X450000Y178000D02*
D03*
X434000Y82000D02*
D03*
X466000Y18000D02*
D03*
X498000Y913999D02*
D03*
X698000Y546000D02*
D03*
X929999Y178000D02*
D03*
X802000Y946000D02*
D03*
X626000Y370000D02*
D03*
X594000Y658000D02*
D03*
X554000Y770000D02*
D03*
X570000Y482000D02*
D03*
X442000Y929999D02*
D03*
X570000Y66000D02*
D03*
X698000Y866000D02*
D03*
X586000Y194000D02*
D03*
X818000Y178000D02*
D03*
X578000Y818000D02*
D03*
X842000Y897999D02*
D03*
X922000Y226000D02*
D03*
X394000D02*
D03*
X658000Y370000D02*
D03*
X570000Y674000D02*
D03*
X834000Y50000D02*
D03*
X953999Y738000D02*
D03*
X674000Y977999D02*
D03*
X474000Y962000D02*
D03*
X514000Y626000D02*
D03*
X386000Y498000D02*
D03*
X410000Y482000D02*
D03*
X578000Y913999D02*
D03*
X802000Y146000D02*
D03*
X410000Y130000D02*
D03*
X450000Y498000D02*
D03*
X562000Y626000D02*
D03*
X442000Y66000D02*
D03*
X578000Y754000D02*
D03*
X562000Y466000D02*
D03*
X714000Y34000D02*
D03*
X378000Y194000D02*
D03*
X394000Y610000D02*
D03*
X418000Y18000D02*
D03*
X426000Y130000D02*
D03*
X642000Y946000D02*
D03*
X506000Y162000D02*
D03*
X634000Y226000D02*
D03*
X674000Y913999D02*
D03*
X506000Y962000D02*
D03*
X578000Y178000D02*
D03*
X706000Y946000D02*
D03*
X722000Y178000D02*
D03*
X969999Y322000D02*
D03*
Y194000D02*
D03*
X418000Y242000D02*
D03*
X554000Y642000D02*
D03*
X546000Y338000D02*
D03*
X770000Y178000D02*
D03*
X682000Y929999D02*
D03*
X666000Y34000D02*
D03*
X929999Y882000D02*
D03*
X386000Y178000D02*
D03*
X754000Y882000D02*
D03*
X426000Y386000D02*
D03*
X913999Y82000D02*
D03*
X818000D02*
D03*
X946000Y882000D02*
D03*
X986000Y98000D02*
D03*
X466000Y594000D02*
D03*
X834000Y882000D02*
D03*
X418000Y146000D02*
D03*
X402000Y178000D02*
D03*
X922000Y258000D02*
D03*
X818000Y977999D02*
D03*
X754000Y178000D02*
D03*
X498000Y882000D02*
D03*
X474000Y929999D02*
D03*
X682000Y706000D02*
D03*
X410000Y610000D02*
D03*
X738000Y882000D02*
D03*
X946000Y114000D02*
D03*
X578000Y466000D02*
D03*
X650000Y386000D02*
D03*
X906000Y962000D02*
D03*
X953999Y130000D02*
D03*
X482000Y338000D02*
D03*
X849999Y466000D02*
D03*
X506000Y674000D02*
D03*
X946000Y210000D02*
D03*
X969999Y770000D02*
D03*
X666000Y450000D02*
D03*
X474000Y514000D02*
D03*
X594000Y178000D02*
D03*
X690000Y977999D02*
D03*
X962000Y754000D02*
D03*
X602000Y194000D02*
D03*
X866000Y178000D02*
D03*
X922000Y130000D02*
D03*
X450000Y114000D02*
D03*
X490000Y162000D02*
D03*
X498000Y946000D02*
D03*
X650000Y194000D02*
D03*
X986000Y802000D02*
D03*
X818000Y50000D02*
D03*
X969999Y258000D02*
D03*
X530000Y306000D02*
D03*
X962000Y626000D02*
D03*
X706000Y722000D02*
D03*
X962000Y242000D02*
D03*
X937999Y290000D02*
D03*
X418000Y658000D02*
D03*
X618000Y386000D02*
D03*
X730000Y482000D02*
D03*
X754000Y466000D02*
D03*
X498000D02*
D03*
X706000Y818000D02*
D03*
X977999Y210000D02*
D03*
X714000Y642000D02*
D03*
X626000Y338000D02*
D03*
X642000Y370000D02*
D03*
X658000Y594000D02*
D03*
X834000Y913999D02*
D03*
X730000Y514000D02*
D03*
X538000Y258000D02*
D03*
X418000Y722000D02*
D03*
X474000Y386000D02*
D03*
X706000Y658000D02*
D03*
X418000Y977999D02*
D03*
X450000Y466000D02*
D03*
X626000Y626000D02*
D03*
X650000Y546000D02*
D03*
X466000Y242000D02*
D03*
X866000Y50000D02*
D03*
X514000Y82000D02*
D03*
X522000Y866000D02*
D03*
X706000Y849999D02*
D03*
X586000Y482000D02*
D03*
X906000Y258000D02*
D03*
X482000Y50000D02*
D03*
X834000Y178000D02*
D03*
X618000Y322000D02*
D03*
X450000Y946000D02*
D03*
X554000Y482000D02*
D03*
X642000Y466000D02*
D03*
X386000Y754000D02*
D03*
X562000Y913999D02*
D03*
X722000Y562000D02*
D03*
X842000Y66000D02*
D03*
X498000Y594000D02*
D03*
X482000Y370000D02*
D03*
X402000Y18000D02*
D03*
X658000D02*
D03*
X594000Y370000D02*
D03*
X658000Y977999D02*
D03*
X626000D02*
D03*
X738000Y562000D02*
D03*
X482000Y242000D02*
D03*
X746000Y482000D02*
D03*
X514000Y658000D02*
D03*
X698000Y514000D02*
D03*
X482000Y977999D02*
D03*
X682000Y34000D02*
D03*
X458000Y98000D02*
D03*
X873999Y34000D02*
D03*
X594000Y210000D02*
D03*
X826000Y130000D02*
D03*
X370000Y82000D02*
D03*
X610000Y594000D02*
D03*
X849999Y178000D02*
D03*
X458000Y610000D02*
D03*
X913999Y242000D02*
D03*
X594000Y977999D02*
D03*
X370000Y18000D02*
D03*
X738000Y530000D02*
D03*
X897999Y210000D02*
D03*
X602000Y354000D02*
D03*
X522000Y386000D02*
D03*
X642000Y977999D02*
D03*
X450000D02*
D03*
X634000Y322000D02*
D03*
X530000Y946000D02*
D03*
X706000Y690000D02*
D03*
X426000Y962000D02*
D03*
X514000Y466000D02*
D03*
X802000Y178000D02*
D03*
X826000Y98000D02*
D03*
X906000Y130000D02*
D03*
X666000Y866000D02*
D03*
X522000Y514000D02*
D03*
X578000Y658000D02*
D03*
X913999Y18000D02*
D03*
X674000Y370000D02*
D03*
X730000Y834000D02*
D03*
X882000Y114000D02*
D03*
X962000D02*
D03*
X490000Y834000D02*
D03*
X866000Y82000D02*
D03*
X969999Y834000D02*
D03*
X770000Y977999D02*
D03*
X554000Y610000D02*
D03*
X650000Y929999D02*
D03*
X482000Y210000D02*
D03*
X666000Y194000D02*
D03*
X682000Y866000D02*
D03*
X929999Y274000D02*
D03*
X906000Y194000D02*
D03*
X986000Y162000D02*
D03*
X754000Y626000D02*
D03*
X690000Y178000D02*
D03*
X642000Y338000D02*
D03*
Y882000D02*
D03*
X658000Y562000D02*
D03*
X698000Y418000D02*
D03*
X586000Y770000D02*
D03*
X490000Y258000D02*
D03*
X722000Y946000D02*
D03*
X922000Y897999D02*
D03*
X937999Y162000D02*
D03*
X714000Y738000D02*
D03*
X450000Y882000D02*
D03*
X834000Y114000D02*
D03*
X538000Y514000D02*
D03*
X434000Y498000D02*
D03*
X618000Y610000D02*
D03*
X658000Y178000D02*
D03*
X666000Y546000D02*
D03*
X962000Y274000D02*
D03*
X953999Y322000D02*
D03*
X842000Y162000D02*
D03*
X977999Y754000D02*
D03*
X442000Y514000D02*
D03*
X498000Y114000D02*
D03*
X618000Y226000D02*
D03*
X849999Y658000D02*
D03*
X969999Y98000D02*
D03*
X977999Y786000D02*
D03*
X962000Y434000D02*
D03*
X410000Y226000D02*
D03*
X610000Y466000D02*
D03*
X418000Y498000D02*
D03*
X562000Y882000D02*
D03*
X642000Y818000D02*
D03*
X434000Y306000D02*
D03*
X482000Y18000D02*
D03*
X610000Y370000D02*
D03*
X849999Y977999D02*
D03*
X946000Y146000D02*
D03*
X594000Y626000D02*
D03*
X642000Y562000D02*
D03*
X953999Y194000D02*
D03*
X586000Y610000D02*
D03*
X802000Y210000D02*
D03*
X554000Y866000D02*
D03*
X706000Y913999D02*
D03*
X873999Y98000D02*
D03*
X969999Y290000D02*
D03*
X610000Y626000D02*
D03*
X602000Y929999D02*
D03*
X834000Y210000D02*
D03*
X650000Y706000D02*
D03*
X506000Y386000D02*
D03*
X953999Y290000D02*
D03*
X578000Y946000D02*
D03*
X953999Y162000D02*
D03*
X722000Y818000D02*
D03*
X986000Y738000D02*
D03*
X714000Y834000D02*
D03*
X962000Y786000D02*
D03*
X897999Y82000D02*
D03*
X977999Y913999D02*
D03*
X738000Y818000D02*
D03*
X682000Y514000D02*
D03*
X809999Y98000D02*
D03*
X418000Y114000D02*
D03*
X674000Y946000D02*
D03*
X937999Y130000D02*
D03*
X418000Y913999D02*
D03*
X442000Y482000D02*
D03*
X897999Y50000D02*
D03*
X490000Y386000D02*
D03*
X873999Y162000D02*
D03*
X554000Y514000D02*
D03*
X674000Y849999D02*
D03*
X498000Y658000D02*
D03*
X674000Y338000D02*
D03*
X754000Y849999D02*
D03*
X738000Y626000D02*
D03*
X586000Y642000D02*
D03*
X578000Y530000D02*
D03*
X674000Y18000D02*
D03*
X402000Y754000D02*
D03*
X906000Y34000D02*
D03*
X490000Y962000D02*
D03*
X802000Y977999D02*
D03*
X458000Y866000D02*
D03*
X610000Y913999D02*
D03*
X514000Y498000D02*
D03*
X714000Y706000D02*
D03*
X610000Y882000D02*
D03*
X578000Y306000D02*
D03*
X738000Y977999D02*
D03*
X594000Y18000D02*
D03*
X650000Y130000D02*
D03*
X394000Y770000D02*
D03*
X490000D02*
D03*
X554000Y66000D02*
D03*
X706000Y882000D02*
D03*
X482000Y849999D02*
D03*
X466000Y370000D02*
D03*
X458000Y834000D02*
D03*
X490000Y514000D02*
D03*
X929999Y114000D02*
D03*
X466000D02*
D03*
X426000Y226000D02*
D03*
X474000D02*
D03*
X506000Y482000D02*
D03*
X458000Y354000D02*
D03*
X722000Y530000D02*
D03*
X514000Y977999D02*
D03*
X618000Y770000D02*
D03*
X538000Y194000D02*
D03*
X706000Y530000D02*
D03*
X929999Y210000D02*
D03*
X722000Y882000D02*
D03*
X498000Y498000D02*
D03*
X402000Y338000D02*
D03*
X754000Y530000D02*
D03*
X482000Y178000D02*
D03*
X698000Y226000D02*
D03*
X722000Y849999D02*
D03*
X714000Y482000D02*
D03*
X434000Y370000D02*
D03*
X402000Y913999D02*
D03*
X849999Y946000D02*
D03*
X882000Y977999D02*
D03*
X546000D02*
D03*
X434000D02*
D03*
X578000Y594000D02*
D03*
X530000Y242000D02*
D03*
X570000Y929999D02*
D03*
X674000Y50000D02*
D03*
X578000Y977999D02*
D03*
X738000Y722000D02*
D03*
X809999Y929999D02*
D03*
X953999Y98000D02*
D03*
X570000Y610000D02*
D03*
X889999Y929999D02*
D03*
X538000Y386000D02*
D03*
X626000Y306000D02*
D03*
Y913999D02*
D03*
X913999Y146000D02*
D03*
X953999Y802000D02*
D03*
X842000Y34000D02*
D03*
X466000Y626000D02*
D03*
X674000Y658000D02*
D03*
X889999Y34000D02*
D03*
X690000Y562000D02*
D03*
X482000Y114000D02*
D03*
X554000Y929999D02*
D03*
X986000Y258000D02*
D03*
X386000Y338000D02*
D03*
X514000Y146000D02*
D03*
X730000Y546000D02*
D03*
X849999Y306000D02*
D03*
X578000Y498000D02*
D03*
X594000Y946000D02*
D03*
X897999Y977999D02*
D03*
X618000Y34000D02*
D03*
X962000Y818000D02*
D03*
X394000Y354000D02*
D03*
X809999Y162000D02*
D03*
X857999Y962000D02*
D03*
X498000Y370000D02*
D03*
X962000Y882000D02*
D03*
X746000Y642000D02*
D03*
X929999Y146000D02*
D03*
X490000Y610000D02*
D03*
X937999Y866000D02*
D03*
X514000Y370000D02*
D03*
X730000Y866000D02*
D03*
X626000Y18000D02*
D03*
X578000Y882000D02*
D03*
X722000Y498000D02*
D03*
X953999Y226000D02*
D03*
X506000Y66000D02*
D03*
X842000Y130000D02*
D03*
X889999Y98000D02*
D03*
X969999Y162000D02*
D03*
X698000Y642000D02*
D03*
X714000Y770000D02*
D03*
X442000Y962000D02*
D03*
X570000Y770000D02*
D03*
X698000Y834000D02*
D03*
X530000Y370000D02*
D03*
X466000Y913999D02*
D03*
X722000D02*
D03*
X826000Y34000D02*
D03*
X418000Y370000D02*
D03*
X578000Y722000D02*
D03*
X610000Y946000D02*
D03*
X642000Y242000D02*
D03*
X418000Y786000D02*
D03*
X977999Y274000D02*
D03*
X450000Y50000D02*
D03*
X690000Y913999D02*
D03*
X953999Y642000D02*
D03*
X754000Y498000D02*
D03*
X969999Y130000D02*
D03*
X498000Y18000D02*
D03*
X522000Y674000D02*
D03*
X809999Y194000D02*
D03*
X514000Y946000D02*
D03*
X849999Y146000D02*
D03*
X474000Y770000D02*
D03*
X626000Y178000D02*
D03*
X690000Y18000D02*
D03*
X818000D02*
D03*
X674000Y882000D02*
D03*
X866000Y18000D02*
D03*
X922000Y162000D02*
D03*
X986000Y290000D02*
D03*
X434000Y18000D02*
D03*
X906000Y66000D02*
D03*
X538000Y34000D02*
D03*
X962000Y146000D02*
D03*
X666000Y770000D02*
D03*
X642000Y210000D02*
D03*
X913999Y977999D02*
D03*
X458000Y962000D02*
D03*
X977999Y242000D02*
D03*
X698000Y929999D02*
D03*
X857999Y34000D02*
D03*
X897999Y114000D02*
D03*
X834000Y146000D02*
D03*
X570000Y34000D02*
D03*
X754000Y977999D02*
D03*
Y913999D02*
D03*
X418000Y82000D02*
D03*
X450000Y849999D02*
D03*
X706000Y562000D02*
D03*
X466000Y498000D02*
D03*
X482000Y946000D02*
D03*
X962000Y849999D02*
D03*
X498000Y338000D02*
D03*
X897999Y913999D02*
D03*
X450000Y306000D02*
D03*
X610000Y178000D02*
D03*
X802000Y114000D02*
D03*
X937999Y98000D02*
D03*
X562000Y946000D02*
D03*
X650000Y34000D02*
D03*
X698000D02*
D03*
X514000Y306000D02*
D03*
X706000Y338000D02*
D03*
X986000Y130000D02*
D03*
X594000Y913999D02*
D03*
X602000Y514000D02*
D03*
X522000Y258000D02*
D03*
X442000Y866000D02*
D03*
X458000Y258000D02*
D03*
X594000Y882000D02*
D03*
X969999Y897999D02*
D03*
X442000Y98000D02*
D03*
X962000Y178000D02*
D03*
X490000Y226000D02*
D03*
X634000Y354000D02*
D03*
X450000Y370000D02*
D03*
X570000Y642000D02*
D03*
X498000Y242000D02*
D03*
X906000Y929999D02*
D03*
X986000Y834000D02*
D03*
X706000Y498000D02*
D03*
X466000Y946000D02*
D03*
X602000Y610000D02*
D03*
X730000Y642000D02*
D03*
X849999Y82000D02*
D03*
X626000Y882000D02*
D03*
X458000Y514000D02*
D03*
X442000Y642000D02*
D03*
X522000D02*
D03*
X490000Y98000D02*
D03*
X842000Y194000D02*
D03*
X714000Y866000D02*
D03*
X466000Y849999D02*
D03*
X690000D02*
D03*
X818000Y114000D02*
D03*
X450000Y818000D02*
D03*
X402000Y210000D02*
D03*
X809999Y130000D02*
D03*
X818000Y146000D02*
D03*
X418000Y849999D02*
D03*
X498000Y50000D02*
D03*
X442000Y258000D02*
D03*
X714000Y514000D02*
D03*
X849999Y882000D02*
D03*
X802000Y913999D02*
D03*
X434000Y849999D02*
D03*
X658000Y82000D02*
D03*
X722000Y658000D02*
D03*
X474000Y834000D02*
D03*
X849999Y434000D02*
D03*
X586000Y386000D02*
D03*
X514000Y913999D02*
D03*
X658000D02*
D03*
X730000Y929999D02*
D03*
X618000D02*
D03*
X802000Y82000D02*
D03*
X482000D02*
D03*
X849999Y498000D02*
D03*
X969999Y738000D02*
D03*
X450000Y18000D02*
D03*
X634000Y386000D02*
D03*
X706000Y50000D02*
D03*
X826000Y897999D02*
D03*
X578000Y242000D02*
D03*
X834000Y18000D02*
D03*
X962000Y370000D02*
D03*
X426000Y834000D02*
D03*
X897999Y946000D02*
D03*
X738000Y658000D02*
D03*
X578000Y50000D02*
D03*
X642000Y18000D02*
D03*
X674000Y690000D02*
D03*
X666000Y226000D02*
D03*
X562000Y370000D02*
D03*
X442000Y610000D02*
D03*
X714000Y546000D02*
D03*
X882000Y50000D02*
D03*
X458000Y386000D02*
D03*
X986000Y770000D02*
D03*
X530000Y977999D02*
D03*
X682000Y354000D02*
D03*
X530000Y210000D02*
D03*
X514000Y242000D02*
D03*
X554000Y34000D02*
D03*
X634000Y194000D02*
D03*
X506000Y770000D02*
D03*
X658000Y210000D02*
D03*
Y50000D02*
D03*
X738000Y466000D02*
D03*
X897999Y178000D02*
D03*
X402000Y498000D02*
D03*
X482000Y466000D02*
D03*
X442000Y354000D02*
D03*
X450000Y338000D02*
D03*
X722000Y626000D02*
D03*
X937999Y258000D02*
D03*
X538000Y162000D02*
D03*
X506000Y866000D02*
D03*
Y226000D02*
D03*
X962000Y210000D02*
D03*
X474000Y674000D02*
D03*
X394000Y482000D02*
D03*
X666000Y929999D02*
D03*
X913999Y210000D02*
D03*
X690000Y658000D02*
D03*
X610000Y977999D02*
D03*
X514000Y338000D02*
D03*
X426000Y642000D02*
D03*
X498000Y306000D02*
D03*
X418000Y178000D02*
D03*
X562000Y50000D02*
D03*
X946000Y274000D02*
D03*
X682000Y194000D02*
D03*
X474000Y866000D02*
D03*
X546000Y466000D02*
D03*
X977999Y722000D02*
D03*
X826000Y194000D02*
D03*
X953999Y834000D02*
D03*
X866000Y146000D02*
D03*
X706000Y18000D02*
D03*
X658000Y690000D02*
D03*
X682000Y162000D02*
D03*
X857999Y130000D02*
D03*
X873999Y962000D02*
D03*
X562000Y658000D02*
D03*
X722000Y977999D02*
D03*
X386000Y626000D02*
D03*
X482000Y658000D02*
D03*
Y594000D02*
D03*
X426000Y514000D02*
D03*
X490000Y929999D02*
D03*
X530000Y114000D02*
D03*
X714000Y929999D02*
D03*
X738000Y946000D02*
D03*
X818000Y210000D02*
D03*
X849999Y50000D02*
D03*
X634000Y929999D02*
D03*
X410000Y897999D02*
D03*
X618000Y194000D02*
D03*
X658000Y338000D02*
D03*
X977999Y849999D02*
D03*
X953999Y258000D02*
D03*
X818000Y913999D02*
D03*
X594000Y466000D02*
D03*
X570000Y386000D02*
D03*
X322000Y977999D02*
D03*
X330000Y962000D02*
D03*
X322000Y946000D02*
D03*
X330000Y929999D02*
D03*
Y897999D02*
D03*
X322000Y882000D02*
D03*
X330000Y866000D02*
D03*
Y834000D02*
D03*
Y802000D02*
D03*
Y770000D02*
D03*
Y738000D02*
D03*
Y706000D02*
D03*
Y674000D02*
D03*
Y642000D02*
D03*
Y610000D02*
D03*
Y578000D02*
D03*
Y546000D02*
D03*
Y514000D02*
D03*
Y482000D02*
D03*
Y450000D02*
D03*
Y418000D02*
D03*
Y386000D02*
D03*
Y354000D02*
D03*
Y322000D02*
D03*
Y290000D02*
D03*
Y258000D02*
D03*
X322000Y242000D02*
D03*
X330000Y226000D02*
D03*
X322000Y210000D02*
D03*
X330000Y194000D02*
D03*
X322000Y178000D02*
D03*
X330000Y162000D02*
D03*
X322000Y82000D02*
D03*
Y18000D02*
D03*
X306000Y977999D02*
D03*
X314000Y962000D02*
D03*
X306000Y946000D02*
D03*
X314000Y929999D02*
D03*
X306000Y754000D02*
D03*
Y626000D02*
D03*
Y498000D02*
D03*
Y338000D02*
D03*
X314000Y226000D02*
D03*
X306000Y210000D02*
D03*
X314000Y194000D02*
D03*
X306000Y178000D02*
D03*
Y82000D02*
D03*
Y18000D02*
D03*
X298000Y770000D02*
D03*
X290000Y754000D02*
D03*
Y626000D02*
D03*
X298000Y610000D02*
D03*
X290000Y498000D02*
D03*
X298000Y482000D02*
D03*
X290000Y338000D02*
D03*
X298000Y226000D02*
D03*
X290000Y210000D02*
D03*
X298000Y194000D02*
D03*
X290000Y146000D02*
D03*
X298000Y130000D02*
D03*
X290000Y114000D02*
D03*
X298000Y98000D02*
D03*
X290000Y82000D02*
D03*
Y18000D02*
D03*
X274000Y977999D02*
D03*
Y913999D02*
D03*
Y786000D02*
D03*
X282000Y770000D02*
D03*
X274000Y658000D02*
D03*
X282000Y642000D02*
D03*
Y514000D02*
D03*
X274000Y498000D02*
D03*
X282000Y450000D02*
D03*
X274000Y242000D02*
D03*
X282000Y226000D02*
D03*
X274000Y210000D02*
D03*
Y178000D02*
D03*
X282000Y162000D02*
D03*
X274000Y146000D02*
D03*
X282000Y130000D02*
D03*
X274000Y114000D02*
D03*
X282000Y98000D02*
D03*
X274000Y82000D02*
D03*
Y50000D02*
D03*
X282000Y34000D02*
D03*
X274000Y18000D02*
D03*
X258000Y977999D02*
D03*
Y913999D02*
D03*
X266000Y802000D02*
D03*
Y770000D02*
D03*
Y642000D02*
D03*
Y514000D02*
D03*
Y386000D02*
D03*
X258000Y338000D02*
D03*
Y242000D02*
D03*
X266000Y226000D02*
D03*
X258000Y178000D02*
D03*
X266000Y162000D02*
D03*
X258000Y146000D02*
D03*
X266000Y130000D02*
D03*
X258000Y114000D02*
D03*
X266000Y98000D02*
D03*
Y34000D02*
D03*
X258000Y18000D02*
D03*
X242000Y977999D02*
D03*
X250000Y897999D02*
D03*
X242000Y882000D02*
D03*
X250000Y450000D02*
D03*
Y386000D02*
D03*
Y290000D02*
D03*
X242000Y242000D02*
D03*
Y210000D02*
D03*
X250000Y194000D02*
D03*
Y162000D02*
D03*
Y98000D02*
D03*
X242000Y18000D02*
D03*
X234000Y929999D02*
D03*
X226000Y882000D02*
D03*
X234000Y866000D02*
D03*
X226000Y786000D02*
D03*
X234000Y98000D02*
D03*
X226000Y18000D02*
D03*
X218000Y866000D02*
D03*
X210000Y786000D02*
D03*
X218000Y770000D02*
D03*
Y642000D02*
D03*
Y322000D02*
D03*
X210000Y274000D02*
D03*
X218000Y226000D02*
D03*
X210000Y178000D02*
D03*
X218000Y162000D02*
D03*
X210000Y146000D02*
D03*
Y114000D02*
D03*
Y82000D02*
D03*
Y50000D02*
D03*
Y18000D02*
D03*
X202000Y290000D02*
D03*
X194000Y274000D02*
D03*
X202000Y226000D02*
D03*
Y194000D02*
D03*
X194000Y178000D02*
D03*
X202000Y162000D02*
D03*
X194000Y146000D02*
D03*
X202000Y130000D02*
D03*
X194000Y114000D02*
D03*
X202000Y98000D02*
D03*
X194000Y82000D02*
D03*
X202000Y66000D02*
D03*
Y34000D02*
D03*
X194000Y18000D02*
D03*
X178000Y882000D02*
D03*
Y818000D02*
D03*
Y626000D02*
D03*
Y594000D02*
D03*
Y562000D02*
D03*
Y306000D02*
D03*
X186000Y290000D02*
D03*
Y226000D02*
D03*
Y194000D02*
D03*
Y162000D02*
D03*
X178000Y146000D02*
D03*
X186000Y130000D02*
D03*
X178000Y114000D02*
D03*
X186000Y98000D02*
D03*
X178000Y82000D02*
D03*
Y18000D02*
D03*
X170000Y897999D02*
D03*
X162000Y882000D02*
D03*
X170000Y866000D02*
D03*
X162000Y818000D02*
D03*
Y786000D02*
D03*
X170000Y386000D02*
D03*
X162000Y370000D02*
D03*
Y338000D02*
D03*
X170000Y322000D02*
D03*
X162000Y306000D02*
D03*
X170000Y290000D02*
D03*
Y258000D02*
D03*
X162000Y146000D02*
D03*
X170000Y130000D02*
D03*
X162000Y114000D02*
D03*
X170000Y98000D02*
D03*
Y66000D02*
D03*
X162000Y50000D02*
D03*
X170000Y34000D02*
D03*
X154000Y897999D02*
D03*
X146000Y882000D02*
D03*
X154000Y866000D02*
D03*
X146000Y818000D02*
D03*
Y786000D02*
D03*
X154000Y770000D02*
D03*
X146000Y402000D02*
D03*
X154000Y386000D02*
D03*
X146000Y370000D02*
D03*
Y338000D02*
D03*
X154000Y322000D02*
D03*
X146000Y274000D02*
D03*
X154000Y258000D02*
D03*
Y226000D02*
D03*
Y194000D02*
D03*
X146000Y178000D02*
D03*
X154000Y162000D02*
D03*
X146000Y146000D02*
D03*
X154000Y130000D02*
D03*
Y98000D02*
D03*
Y66000D02*
D03*
X146000Y50000D02*
D03*
X130000Y498000D02*
D03*
Y434000D02*
D03*
Y402000D02*
D03*
X138000Y386000D02*
D03*
X130000Y370000D02*
D03*
Y338000D02*
D03*
X138000Y322000D02*
D03*
Y290000D02*
D03*
X130000Y274000D02*
D03*
Y242000D02*
D03*
Y210000D02*
D03*
X138000Y162000D02*
D03*
X130000Y146000D02*
D03*
X138000Y66000D02*
D03*
X130000Y50000D02*
D03*
X114000Y977999D02*
D03*
X122000Y962000D02*
D03*
X114000Y946000D02*
D03*
X122000Y929999D02*
D03*
X114000Y913999D02*
D03*
X122000Y897999D02*
D03*
X114000Y882000D02*
D03*
X122000Y866000D02*
D03*
X114000Y818000D02*
D03*
X122000Y514000D02*
D03*
X114000Y498000D02*
D03*
X122000Y482000D02*
D03*
Y450000D02*
D03*
X114000Y434000D02*
D03*
X122000Y418000D02*
D03*
X114000Y402000D02*
D03*
X122000Y386000D02*
D03*
X114000Y370000D02*
D03*
Y338000D02*
D03*
X122000Y322000D02*
D03*
Y290000D02*
D03*
X114000Y274000D02*
D03*
Y210000D02*
D03*
X122000Y194000D02*
D03*
Y162000D02*
D03*
X114000Y146000D02*
D03*
X122000Y130000D02*
D03*
X114000Y114000D02*
D03*
X122000Y98000D02*
D03*
Y66000D02*
D03*
X114000Y50000D02*
D03*
Y18000D02*
D03*
X98000Y977999D02*
D03*
X106000Y962000D02*
D03*
X98000Y946000D02*
D03*
X106000Y929999D02*
D03*
X98000Y913999D02*
D03*
X106000Y897999D02*
D03*
X98000Y882000D02*
D03*
X106000Y866000D02*
D03*
Y514000D02*
D03*
X98000Y498000D02*
D03*
X106000Y482000D02*
D03*
Y450000D02*
D03*
Y418000D02*
D03*
X98000Y402000D02*
D03*
X106000Y386000D02*
D03*
Y322000D02*
D03*
Y290000D02*
D03*
X98000Y274000D02*
D03*
X106000Y258000D02*
D03*
X98000Y210000D02*
D03*
X106000Y194000D02*
D03*
X98000Y146000D02*
D03*
X106000Y130000D02*
D03*
X98000Y114000D02*
D03*
X106000Y98000D02*
D03*
X98000Y82000D02*
D03*
X106000Y66000D02*
D03*
X98000Y50000D02*
D03*
X106000Y34000D02*
D03*
X98000Y18000D02*
D03*
X90000Y929999D02*
D03*
X82000Y913999D02*
D03*
X90000Y897999D02*
D03*
X82000Y882000D02*
D03*
X90000Y866000D02*
D03*
X82000Y562000D02*
D03*
X90000Y514000D02*
D03*
X82000Y498000D02*
D03*
X90000Y482000D02*
D03*
X82000Y402000D02*
D03*
Y306000D02*
D03*
Y242000D02*
D03*
Y146000D02*
D03*
X90000Y98000D02*
D03*
X82000Y82000D02*
D03*
Y18000D02*
D03*
X74000Y897999D02*
D03*
X66000Y882000D02*
D03*
X74000Y866000D02*
D03*
X66000Y754000D02*
D03*
X74000Y738000D02*
D03*
X66000Y722000D02*
D03*
X74000Y546000D02*
D03*
X66000Y530000D02*
D03*
Y498000D02*
D03*
X74000Y482000D02*
D03*
X66000Y402000D02*
D03*
Y242000D02*
D03*
X74000Y130000D02*
D03*
Y98000D02*
D03*
X58000Y897999D02*
D03*
Y738000D02*
D03*
Y482000D02*
D03*
X50000Y402000D02*
D03*
Y370000D02*
D03*
Y306000D02*
D03*
Y274000D02*
D03*
Y242000D02*
D03*
X58000Y130000D02*
D03*
Y98000D02*
D03*
X42000Y897999D02*
D03*
X34000Y882000D02*
D03*
Y658000D02*
D03*
Y530000D02*
D03*
Y402000D02*
D03*
X42000Y322000D02*
D03*
X34000Y306000D02*
D03*
Y242000D02*
D03*
X18000Y913999D02*
D03*
X26000Y897999D02*
D03*
X18000Y882000D02*
D03*
X26000Y866000D02*
D03*
X18000Y722000D02*
D03*
X26000Y706000D02*
D03*
X18000Y690000D02*
D03*
X26000Y674000D02*
D03*
X18000Y658000D02*
D03*
X26000Y642000D02*
D03*
Y610000D02*
D03*
Y578000D02*
D03*
Y546000D02*
D03*
Y514000D02*
D03*
Y482000D02*
D03*
Y450000D02*
D03*
Y354000D02*
D03*
Y322000D02*
D03*
Y290000D02*
D03*
X18000Y242000D02*
D03*
X26000Y98000D02*
D03*
X18000Y82000D02*
D03*
Y18000D02*
D03*
X757000Y695000D02*
D03*
X852000Y523000D02*
D03*
X841000Y538000D02*
D03*
X834000Y546000D02*
D03*
X827000Y553000D02*
D03*
X819000Y561000D02*
D03*
X811000Y569000D02*
D03*
X920230Y473000D02*
D03*
X869635Y524600D02*
D03*
X913000Y411000D02*
D03*
X921000Y385000D02*
D03*
X928000Y361000D02*
D03*
X935000Y339000D02*
D03*
X869635Y435700D02*
D03*
X869635Y627700D02*
D03*
X928000Y458000D02*
D03*
X899364Y511000D02*
D03*
X941770Y434000D02*
D03*
X935000Y446000D02*
D03*
X913230Y485000D02*
D03*
X906000Y498000D02*
D03*
X906000Y690000D02*
D03*
X920000Y665000D02*
D03*
X913230Y677000D02*
D03*
X927000Y650000D02*
D03*
X935000Y638000D02*
D03*
X941770Y626000D02*
D03*
X899364Y703000D02*
D03*
X942000Y820000D02*
D03*
X934000Y832000D02*
D03*
X927000Y845000D02*
D03*
X920000Y859000D02*
D03*
X914000Y871000D02*
D03*
X907000Y884000D02*
D03*
X900000Y897000D02*
D03*
X869000Y745000D02*
D03*
X869635Y511900D02*
D03*
Y499200D02*
D03*
Y486500D02*
D03*
Y473800D02*
D03*
Y461100D02*
D03*
Y448400D02*
D03*
X869635Y703900D02*
D03*
Y691200D02*
D03*
Y678500D02*
D03*
Y665800D02*
D03*
Y653100D02*
D03*
Y640400D02*
D03*
X868635Y819800D02*
D03*
Y832500D02*
D03*
X798000Y884000D02*
D03*
X805000Y871000D02*
D03*
X812000Y857000D02*
D03*
X868635Y845200D02*
D03*
Y857900D02*
D03*
Y870600D02*
D03*
Y883300D02*
D03*
Y896000D02*
D03*
X51000Y341000D02*
D03*
X72000Y341000D02*
D03*
X635086Y832000D02*
D03*
X684000D02*
D03*
X871000Y368000D02*
D03*
X514000Y726000D02*
D03*
X733000Y745000D02*
D03*
X677000Y680000D02*
D03*
X868635Y934100D02*
D03*
X510350Y820650D02*
D03*
X459000Y724000D02*
D03*
X596258Y846050D02*
D03*
X539743Y807950D02*
D03*
X539000Y663000D02*
D03*
X841000Y806000D02*
D03*
X775000D02*
D03*
Y821000D02*
D03*
X538787Y751050D02*
D03*
Y725650D02*
D03*
X775000Y614000D02*
D03*
X841000D02*
D03*
X395000Y825200D02*
D03*
Y812500D02*
D03*
Y837900D02*
D03*
Y850600D02*
D03*
Y863300D02*
D03*
X396000Y686100D02*
D03*
Y698800D02*
D03*
Y711500D02*
D03*
Y724200D02*
D03*
X868635Y769000D02*
D03*
Y781700D02*
D03*
Y794400D02*
D03*
Y807100D02*
D03*
X869635Y615000D02*
D03*
Y602300D02*
D03*
Y589600D02*
D03*
Y576900D02*
D03*
X396500Y546650D02*
D03*
Y559350D02*
D03*
Y572050D02*
D03*
Y584750D02*
D03*
X869635Y384900D02*
D03*
Y397600D02*
D03*
Y410300D02*
D03*
Y423000D02*
D03*
X396000Y409400D02*
D03*
Y422100D02*
D03*
Y434800D02*
D03*
Y447500D02*
D03*
X774364Y934100D02*
D03*
X774865Y355550D02*
D03*
X775365Y742000D02*
D03*
X774000Y857000D02*
D03*
Y845000D02*
D03*
X775000Y833000D02*
D03*
Y552000D02*
D03*
Y871000D02*
D03*
X774000Y883000D02*
D03*
X787258Y124050D02*
D03*
X852000Y343000D02*
D03*
X774000Y499000D02*
D03*
X775000Y487000D02*
D03*
X774000Y473000D02*
D03*
Y461000D02*
D03*
X775000Y437000D02*
D03*
Y422000D02*
D03*
X819000Y461000D02*
D03*
X812000Y473000D02*
D03*
X805000Y487000D02*
D03*
X798000Y500000D02*
D03*
X775000Y449000D02*
D03*
X826000Y448000D02*
D03*
X834000Y436000D02*
D03*
X841000Y422000D02*
D03*
X827000Y640000D02*
D03*
X833770Y628000D02*
D03*
X774000Y691000D02*
D03*
X775000Y679000D02*
D03*
X774000Y665000D02*
D03*
Y653000D02*
D03*
X775000Y629000D02*
D03*
X819000Y653000D02*
D03*
X812000Y665000D02*
D03*
X805000Y679000D02*
D03*
X798000Y692000D02*
D03*
X775000Y641000D02*
D03*
X834000Y820000D02*
D03*
X826000Y832000D02*
D03*
X819000Y845000D02*
D03*
X853000Y731000D02*
D03*
Y921000D02*
D03*
X852000Y103000D02*
D03*
X748000Y86000D02*
D03*
X533000Y134500D02*
D03*
X627743Y87950D02*
D03*
X548000Y315000D02*
D03*
X547000Y239100D02*
D03*
X569000Y205100D02*
D03*
X630000Y270100D02*
D03*
X650750Y269350D02*
D03*
X439250Y189000D02*
D03*
X774865Y190450D02*
D03*
X869136D02*
D03*
Y203150D02*
D03*
Y215850D02*
D03*
X869000Y229000D02*
D03*
X692000Y153000D02*
D03*
X535000Y15500D02*
D03*
X593750Y59250D02*
D03*
X583000Y96000D02*
D03*
X583000Y117000D02*
D03*
X603000Y119000D02*
D03*
X709000Y93000D02*
D03*
X751000Y152000D02*
D03*
X710000D02*
D03*
X126000Y571000D02*
D03*
X100000Y533000D02*
D03*
X299500Y533950D02*
D03*
X298000Y837900D02*
D03*
X27000Y848000D02*
D03*
X59000Y713000D02*
D03*
X299000Y711500D02*
D03*
X169000Y470000D02*
D03*
X299000Y434800D02*
D03*
X90000Y724000D02*
D03*
X299000Y724200D02*
D03*
X83000Y675000D02*
D03*
X299000Y673400D02*
D03*
X146000Y423000D02*
D03*
X299000Y396700D02*
D03*
X117000Y561000D02*
D03*
X299500Y559350D02*
D03*
X254000Y464000D02*
D03*
X67000Y697000D02*
D03*
X299000Y698800D02*
D03*
X298000Y826000D02*
D03*
X19000Y820000D02*
D03*
X160000Y452000D02*
D03*
X299000Y422100D02*
D03*
X250000Y617000D02*
D03*
X11000Y431000D02*
D03*
X299000Y447500D02*
D03*
X108000Y552000D02*
D03*
X299500Y546650D02*
D03*
X299000Y813000D02*
D03*
X10000Y798000D02*
D03*
X75000Y684000D02*
D03*
X299000Y686100D02*
D03*
X84000Y277250D02*
D03*
X119000Y226000D02*
D03*
X165000Y974000D02*
D03*
X133770Y542000D02*
D03*
X151000Y441000D02*
D03*
X299000Y409400D02*
D03*
X241000Y478000D02*
D03*
X299500Y572050D02*
D03*
X199650Y922300D02*
D03*
X212350D02*
D03*
X287500Y944650D02*
D03*
Y957350D02*
D03*
X164000Y919000D02*
D03*
X145000Y974000D02*
D03*
X36000Y108000D02*
D03*
Y142000D02*
D03*
X169000Y207000D02*
D03*
X119000Y178000D02*
D03*
M02*
