%TF.GenerationSoftware,Altium Limited,Altium Designer,25.8.1 (18)*%
G04 Layer_Color=32896*
%FSLAX45Y45*%
%MOMM*%
%TF.SameCoordinates,A2F0C2A1-DF56-410A-A7AA-CA8700650C71*%
%TF.FilePolarity,Positive*%
%TF.FileFunction,Legend,Bot*%
%TF.Part,Single*%
G01*
G75*
%TA.AperFunction,NonConductor*%
%ADD58C,0.20000*%
G36*
X4715000Y2020000D02*
X4565000Y2020000D01*
X4565000Y2042500D01*
X4715000Y2042501D01*
X4715000Y2020000D01*
D02*
G37*
G36*
X4465000Y2010000D02*
X4315000Y2010000D01*
X4315000Y2032500D01*
X4465000Y2032501D01*
X4465000Y2010000D01*
D02*
G37*
G36*
X1765000Y1980000D02*
X1615000D01*
Y2002500D01*
X1765000D01*
Y1980000D01*
D02*
G37*
G36*
X4715000Y1977500D02*
X4565000D01*
Y2000000D01*
X4715000D01*
Y1977500D01*
D02*
G37*
G36*
X4465000Y1967500D02*
X4315000D01*
Y1990000D01*
X4465000D01*
Y1967500D01*
D02*
G37*
G36*
X1765000Y1937500D02*
X1615000Y1937500D01*
X1615000Y1960000D01*
X1765000Y1960000D01*
X1765000Y1937500D01*
D02*
G37*
G36*
X1122500Y1705000D02*
X1100000D01*
Y1855000D01*
X1122500D01*
Y1705000D01*
D02*
G37*
G36*
X1080000Y1855000D02*
X1080000Y1705000D01*
X1057500Y1705000D01*
X1057500Y1855000D01*
X1080000Y1855000D01*
D02*
G37*
G36*
X6082500Y1455000D02*
X6060000D01*
Y1605000D01*
X6082500D01*
Y1455000D01*
D02*
G37*
G36*
X6040000Y1605000D02*
X6040000Y1455000D01*
X6017500Y1455000D01*
X6017500Y1605000D01*
X6040000Y1605000D01*
D02*
G37*
G36*
X7600000Y1445000D02*
X7577500D01*
Y1595000D01*
X7600000D01*
Y1445000D01*
D02*
G37*
G36*
X7642500Y1595000D02*
X7642501Y1445000D01*
X7620000Y1445000D01*
X7620000Y1595000D01*
X7642500Y1595000D01*
D02*
G37*
G36*
X5905000Y1280000D02*
X5755000Y1280000D01*
X5755000Y1302500D01*
X5905000Y1302501D01*
X5905000Y1280000D01*
D02*
G37*
G36*
Y1237500D02*
X5755000D01*
Y1260000D01*
X5905000D01*
Y1237500D01*
D02*
G37*
G36*
X3240000Y1215000D02*
X3217500D01*
Y1365000D01*
X3240000D01*
Y1215000D01*
D02*
G37*
G36*
X3282500Y1365000D02*
X3282500Y1215000D01*
X3260000Y1215000D01*
X3260000Y1365000D01*
X3282500Y1365000D01*
D02*
G37*
G36*
X7222500Y1205000D02*
X7157500D01*
Y1245000D01*
X7222500D01*
Y1205000D01*
D02*
G37*
G36*
X3852500Y1195000D02*
X3830000D01*
Y1345000D01*
X3852500D01*
Y1195000D01*
D02*
G37*
G36*
X3810000Y1345000D02*
X3810000Y1195000D01*
X3787500Y1195000D01*
X3787499Y1345000D01*
X3810000Y1345000D01*
D02*
G37*
G36*
X6762500Y1185000D02*
X6740000D01*
Y1335000D01*
X6762500D01*
Y1185000D01*
D02*
G37*
G36*
X6720000Y1335000D02*
X6720000Y1185000D01*
X6697500Y1185000D01*
X6697499Y1335000D01*
X6720000Y1335000D01*
D02*
G37*
G36*
X7802500Y1165000D02*
X7780000D01*
Y1315000D01*
X7802500D01*
Y1165000D01*
D02*
G37*
G36*
X7760000Y1315000D02*
X7760000Y1165000D01*
X7737500Y1165000D01*
X7737499Y1315000D01*
X7760000Y1315000D01*
D02*
G37*
G36*
X7222500Y1095000D02*
X7157500D01*
Y1135000D01*
X7222500D01*
Y1095000D01*
D02*
G37*
G36*
X3240000Y995000D02*
X3217500D01*
Y1145000D01*
X3240000D01*
Y995000D01*
D02*
G37*
G36*
X3282500Y1145000D02*
X3282500Y995000D01*
X3260000Y995000D01*
X3260000Y1145000D01*
X3282500Y1145000D01*
D02*
G37*
G36*
X3852500Y985000D02*
X3830000D01*
Y1135000D01*
X3852500D01*
Y985000D01*
D02*
G37*
G36*
X3810000Y1135000D02*
X3810000Y985000D01*
X3787500Y985000D01*
X3787499Y1135000D01*
X3810000Y1135000D01*
D02*
G37*
G36*
X7222500Y965000D02*
X7157500D01*
Y1005000D01*
X7222500D01*
Y965000D01*
D02*
G37*
G36*
X5762500Y885000D02*
X5740000D01*
Y1035000D01*
X5762500D01*
Y885000D01*
D02*
G37*
G36*
X5720000Y1035000D02*
X5720000Y885000D01*
X5697500Y885000D01*
X5697499Y1035000D01*
X5720000Y1035000D01*
D02*
G37*
G36*
X7222500Y855000D02*
X7157500D01*
Y895000D01*
X7222500D01*
Y855000D01*
D02*
G37*
G36*
X6360000Y795000D02*
X6337500D01*
Y945000D01*
X6360000D01*
Y795000D01*
D02*
G37*
G36*
X6402500Y945000D02*
X6402501Y794999D01*
X6380000Y795000D01*
X6380000Y945000D01*
X6402500Y945000D01*
D02*
G37*
G36*
X7570000Y785000D02*
X7547500D01*
Y935000D01*
X7570000D01*
Y785000D01*
D02*
G37*
G36*
X7612500Y935000D02*
X7612501Y785000D01*
X7590000Y785000D01*
X7590000Y935000D01*
X7612500Y935000D01*
D02*
G37*
G36*
X7682500Y665000D02*
X7617500D01*
Y705000D01*
X7682500D01*
Y665000D01*
D02*
G37*
G36*
Y555000D02*
X7617500D01*
Y595000D01*
X7682500D01*
Y555000D01*
D02*
G37*
G36*
X6030000Y515000D02*
X6007500D01*
Y665000D01*
X6030000D01*
Y515000D01*
D02*
G37*
G36*
X6072500Y665000D02*
X6072501Y514999D01*
X6050000Y515000D01*
X6050000Y665000D01*
X6072500Y665000D01*
D02*
G37*
G36*
X4252500Y295000D02*
X4230000D01*
Y445000D01*
X4252500D01*
Y295000D01*
D02*
G37*
G36*
X4210000Y445000D02*
X4210000Y295000D01*
X4187500Y295000D01*
X4187499Y445000D01*
X4210000Y445000D01*
D02*
G37*
G36*
X3852500Y295000D02*
X3830000D01*
Y445000D01*
X3852500D01*
Y295000D01*
D02*
G37*
G36*
X3810000Y445000D02*
X3810000Y295000D01*
X3787500Y295000D01*
X3787499Y445000D01*
X3810000Y445000D01*
D02*
G37*
G36*
X3130000Y285000D02*
X3107500D01*
Y435000D01*
X3130000D01*
Y285000D01*
D02*
G37*
G36*
X3172500Y435000D02*
X3172501Y285000D01*
X3150000Y285000D01*
X3150000Y435000D01*
X3172500Y435000D01*
D02*
G37*
G36*
X7640000Y175000D02*
X7617500D01*
Y325000D01*
X7640000D01*
Y175000D01*
D02*
G37*
G36*
X7682501Y325000D02*
X7682501Y174999D01*
X7660000Y175000D01*
X7660000Y325000D01*
X7682501Y325000D01*
D02*
G37*
G36*
X810000Y3335000D02*
X787500D01*
Y3485000D01*
X810000D01*
Y3335000D01*
D02*
G37*
G36*
X442500D02*
X420000D01*
Y3485000D01*
X442500D01*
Y3335000D01*
D02*
G37*
G36*
X400000Y3485000D02*
X400000Y3335000D01*
X377500Y3335000D01*
X377499Y3485000D01*
X400000Y3485000D01*
D02*
G37*
G36*
X852500Y3485000D02*
X852500Y3335000D01*
X830000Y3335000D01*
X830000Y3485000D01*
X852500Y3485000D01*
D02*
G37*
G36*
X915000Y2660000D02*
X765000D01*
Y2682500D01*
X915000D01*
Y2660000D01*
D02*
G37*
G36*
X915000Y2617500D02*
X764999Y2617499D01*
X765000Y2640000D01*
X915000Y2640000D01*
X915000Y2617500D01*
D02*
G37*
G36*
X5280000Y7185000D02*
X5257500D01*
Y7335000D01*
X5280000D01*
Y7185000D01*
D02*
G37*
G36*
X5322500Y7335000D02*
X5322500Y7185000D01*
X5300000Y7185000D01*
X5300000Y7335000D01*
X5322500Y7335000D01*
D02*
G37*
G36*
X5940000Y3216000D02*
X5917500D01*
Y3366000D01*
X5940000D01*
Y3216000D01*
D02*
G37*
G36*
X5982500Y3366000D02*
X5982501Y3216000D01*
X5960000Y3216000D01*
X5960000Y3366000D01*
X5982500Y3366000D01*
D02*
G37*
G36*
X1122500Y2185000D02*
X1100000D01*
Y2335000D01*
X1122500D01*
Y2185000D01*
D02*
G37*
G36*
X1080000Y2335000D02*
X1080000Y2185000D01*
X1057500Y2185000D01*
X1057500Y2335000D01*
X1080000Y2335000D01*
D02*
G37*
G36*
X1582500Y9665000D02*
X1560000D01*
Y9815000D01*
X1582500D01*
Y9665000D01*
D02*
G37*
G36*
X1540000Y9815000D02*
X1540000Y9665000D01*
X1517500Y9665000D01*
X1517499Y9815000D01*
X1540000Y9815000D01*
D02*
G37*
G36*
X2812500Y9645000D02*
X2747500D01*
Y9685000D01*
X2812500D01*
Y9645000D01*
D02*
G37*
G36*
Y9535000D02*
X2747500D01*
Y9575000D01*
X2812500D01*
Y9535000D01*
D02*
G37*
G36*
Y9445000D02*
X2747500D01*
Y9485000D01*
X2812500D01*
Y9445000D01*
D02*
G37*
G36*
Y9335000D02*
X2747500D01*
Y9375000D01*
X2812500D01*
Y9335000D01*
D02*
G37*
G36*
X1530000Y9115000D02*
X1507500D01*
Y9265000D01*
X1530000D01*
Y9115000D01*
D02*
G37*
G36*
X1572500Y9265000D02*
X1572501Y9115000D01*
X1550000Y9115000D01*
X1550000Y9265000D01*
X1572500Y9265000D01*
D02*
G37*
G36*
X5892500Y8385000D02*
X5870000D01*
Y8535000D01*
X5892500D01*
Y8385000D01*
D02*
G37*
G36*
X5850000Y8535000D02*
X5850000Y8385000D01*
X5827500Y8385000D01*
X5827499Y8535000D01*
X5850000Y8535000D01*
D02*
G37*
G36*
X5490000Y7985000D02*
X5467500D01*
Y8135000D01*
X5490000D01*
Y7985000D01*
D02*
G37*
G36*
X5532500Y8135000D02*
X5532500Y7985000D01*
X5510000Y7985000D01*
X5510000Y8135000D01*
X5532500Y8135000D01*
D02*
G37*
G36*
X7692500Y5425000D02*
X7670000D01*
Y5575000D01*
X7692500D01*
Y5425000D01*
D02*
G37*
G36*
X7650000Y5575000D02*
X7650000Y5425000D01*
X7627500Y5425000D01*
X7627499Y5575000D01*
X7650000Y5575000D01*
D02*
G37*
G36*
X8620000Y5315000D02*
X8597500D01*
Y5465000D01*
X8620000D01*
Y5315000D01*
D02*
G37*
G36*
X8662500Y5465000D02*
X8662501Y5315000D01*
X8640000Y5315000D01*
X8640000Y5465000D01*
X8662500Y5465000D01*
D02*
G37*
G36*
X7702500Y3475000D02*
X7680000D01*
Y3625000D01*
X7702500D01*
Y3475000D01*
D02*
G37*
G36*
X7660000Y3625000D02*
X7660000Y3475000D01*
X7637500Y3475000D01*
X7637499Y3625000D01*
X7660000Y3625000D01*
D02*
G37*
G36*
X8610000Y3355000D02*
X8587500D01*
Y3505000D01*
X8610000D01*
Y3355000D01*
D02*
G37*
G36*
X8652500Y3505000D02*
X8652501Y3355000D01*
X8630000Y3355000D01*
X8630000Y3505000D01*
X8652500Y3505000D01*
D02*
G37*
G36*
X6575000Y2811000D02*
X6425000Y2811000D01*
X6425000Y2833501D01*
X6575000Y2833501D01*
X6575000Y2811000D01*
D02*
G37*
G36*
X6375000D02*
X6225000Y2811000D01*
X6225000Y2833501D01*
X6375000Y2833501D01*
X6375000Y2811000D01*
D02*
G37*
G36*
X6575000Y2768500D02*
X6425000D01*
Y2791000D01*
X6575000D01*
Y2768500D01*
D02*
G37*
G36*
X6375000D02*
X6225000D01*
Y2791000D01*
X6375000D01*
Y2768500D01*
D02*
G37*
G36*
X6555000Y7287500D02*
X6595000D01*
Y7352500D01*
X6555000D01*
Y7287500D01*
D02*
G37*
G36*
X6705000Y7352500D02*
X6665000D01*
Y7287500D01*
X6705000D01*
Y7352500D01*
D02*
G37*
G36*
X7617500Y7345000D02*
X7640000Y7345000D01*
X7640000Y7495000D01*
X7617499Y7495000D01*
X7617500Y7345000D01*
D02*
G37*
G36*
X7682500Y7495000D02*
X7660000D01*
Y7345000D01*
X7682500D01*
Y7495000D01*
D02*
G37*
G36*
X8597500Y7235000D02*
X8620000D01*
Y7385000D01*
X8597500D01*
Y7235000D01*
D02*
G37*
G36*
X8662500Y7385000D02*
X8640000Y7385000D01*
X8640000Y7235000D01*
X8662501Y7235000D01*
X8662500Y7385000D01*
D02*
G37*
G36*
X6765000Y8187500D02*
X6805000D01*
Y8252500D01*
X6765000D01*
Y8187500D01*
D02*
G37*
G36*
X6915000Y8252500D02*
X6875000D01*
Y8187500D01*
X6915000D01*
Y8252500D01*
D02*
G37*
G36*
X7587500Y9265000D02*
X7610000Y9265000D01*
X7610000Y9415000D01*
X7587499Y9415000D01*
X7587500Y9265000D01*
D02*
G37*
G36*
X7652500Y9415000D02*
X7630000D01*
Y9265000D01*
X7652500D01*
Y9415000D01*
D02*
G37*
G36*
X8597500Y9135000D02*
X8620000D01*
Y9285000D01*
X8597500D01*
Y9135000D01*
D02*
G37*
G36*
X8662500Y9285000D02*
X8640000Y9285000D01*
X8640000Y9135000D01*
X8662501Y9135000D01*
X8662500Y9285000D01*
D02*
G37*
D58*
X5220200Y290000D02*
X5480000D01*
X5479800Y77500D02*
Y612000D01*
X5220200Y108000D02*
Y612000D01*
X5200200Y1070000D02*
X5460000D01*
X5459800Y857500D02*
Y1392000D01*
X5200200Y888000D02*
Y1392000D01*
X440000Y1020000D02*
Y1385000D01*
X280000Y1115000D02*
Y1385000D01*
%TF.MD5,c65ea402df4f8d98466dfbef7d80911c*%
M02*
