G04*
G04 #@! TF.GenerationSoftware,Altium Limited,Altium Designer,25.8.1 (18)*
G04*
G04 Layer_Color=8421504*
%FSLAX44Y44*%
%MOMM*%
G71*
G04*
G04 #@! TF.SameCoordinates,346E8232-17C7-4013-95A1-2B3E51FE4BFF*
G04*
G04*
G04 #@! TF.FilePolarity,Positive*
G04*
G01*
G75*
%ADD18R,1.5500X2.3500*%
%ADD19R,1.0000X2.0500*%
%ADD20R,3.2500X2.0500*%
%ADD21R,1.1000X1.5200*%
%ADD22R,1.6549X0.5580*%
%ADD23R,1.6637X0.5588*%
%ADD24R,1.5588X0.6080*%
%ADD25R,2.1000X0.6500*%
%ADD26R,1.8000X0.6000*%
G04:AMPARAMS|DCode=27|XSize=1.97mm|YSize=0.6mm|CornerRadius=0.075mm|HoleSize=0mm|Usage=FLASHONLY|Rotation=90.000|XOffset=0mm|YOffset=0mm|HoleType=Round|Shape=RoundedRectangle|*
%AMROUNDEDRECTD27*
21,1,1.9700,0.4500,0,0,90.0*
21,1,1.8200,0.6000,0,0,90.0*
1,1,0.1500,0.2250,0.9100*
1,1,0.1500,0.2250,-0.9100*
1,1,0.1500,-0.2250,-0.9100*
1,1,0.1500,-0.2250,0.9100*
%
%ADD27ROUNDEDRECTD27*%
%ADD28R,1.5200X1.1000*%
%ADD29R,3.0000X1.6000*%
%ADD30R,6.7000X6.7000*%
%ADD31R,1.2000X0.6000*%
%ADD32R,1.7780X0.3556*%
%ADD33R,0.8890X1.0922*%
%ADD34R,2.0000X1.4000*%
%ADD35R,1.9341X0.5334*%
%ADD36R,2.0500X1.0000*%
%ADD37R,2.0500X3.2500*%
G36*
X233500Y71781D02*
X233503D01*
X232416Y71209D01*
X230427Y69772D01*
X228743Y67988D01*
X227425Y65918D01*
X226520Y63638D01*
X226058Y61228D01*
X226058Y58775D01*
X226518Y56365D01*
X227424Y54085D01*
X228741Y52015D01*
X230424Y50230D01*
X232412Y48793D01*
X233499Y48221D01*
X233499Y48221D01*
X233500Y48222D01*
Y38500D01*
X217500D01*
Y81500D01*
X233500D01*
Y71781D01*
D02*
G37*
G36*
X260500Y38500D02*
X244500D01*
Y48220D01*
X244497Y48219D01*
X245584Y48791D01*
X247573Y50228D01*
X249257Y52012D01*
X250575Y54082D01*
X251481Y56362D01*
X251942Y58772D01*
X251942Y61225D01*
X251481Y63635D01*
X250576Y65915D01*
X249259Y67985D01*
X247576Y69770D01*
X245588Y71207D01*
X244501Y71779D01*
X244500Y71778D01*
Y81500D01*
X260500D01*
Y38500D01*
D02*
G37*
D18*
X169000Y216500D02*
D03*
Y173500D02*
D03*
D19*
X38000Y277250D02*
D03*
X84000D02*
D03*
X61000D02*
D03*
D20*
Y340750D02*
D03*
D21*
X88000Y365000D02*
D03*
X68000D02*
D03*
X88000Y387000D02*
D03*
X68000D02*
D03*
X88500Y418050D02*
D03*
X68500D02*
D03*
X88000Y440000D02*
D03*
X68000D02*
D03*
X523000Y773000D02*
D03*
X543000D02*
D03*
X658000Y153000D02*
D03*
X638000D02*
D03*
X222000Y119000D02*
D03*
X242000D02*
D03*
X293000Y909000D02*
D03*
X313000D02*
D03*
X559000Y690000D02*
D03*
X539000D02*
D03*
X371000Y909000D02*
D03*
X391000D02*
D03*
X615000Y153000D02*
D03*
X595000D02*
D03*
X36000Y145000D02*
D03*
X56000D02*
D03*
X496000Y716000D02*
D03*
X476000D02*
D03*
X751000Y152000D02*
D03*
X771000D02*
D03*
X710000D02*
D03*
X730000D02*
D03*
X145000Y974000D02*
D03*
X165000D02*
D03*
X496000Y736000D02*
D03*
X476000D02*
D03*
X603000Y119000D02*
D03*
X583000D02*
D03*
X603000Y96000D02*
D03*
X583000D02*
D03*
X594000Y59000D02*
D03*
X614000D02*
D03*
X164000Y919000D02*
D03*
X144000D02*
D03*
X730000Y232100D02*
D03*
X710000D02*
D03*
X585000Y329100D02*
D03*
X605000D02*
D03*
X730000Y253100D02*
D03*
X710000D02*
D03*
X730000Y211100D02*
D03*
X710000D02*
D03*
X731000Y190100D02*
D03*
X711000D02*
D03*
X139000Y259000D02*
D03*
X119000D02*
D03*
D22*
X595214Y725650D02*
D03*
Y738350D02*
D03*
Y751050D02*
D03*
X538787D02*
D03*
Y725650D02*
D03*
Y712950D02*
D03*
X595214D02*
D03*
X538787Y738350D02*
D03*
D23*
X539743Y846050D02*
D03*
Y833350D02*
D03*
Y820650D02*
D03*
Y807950D02*
D03*
X596258Y820650D02*
D03*
Y833350D02*
D03*
Y846050D02*
D03*
Y807950D02*
D03*
X730742Y124050D02*
D03*
Y111350D02*
D03*
Y98650D02*
D03*
Y85950D02*
D03*
X787258D02*
D03*
Y98650D02*
D03*
Y111350D02*
D03*
Y124050D02*
D03*
X627743Y126050D02*
D03*
Y113350D02*
D03*
Y100650D02*
D03*
Y87950D02*
D03*
X684258D02*
D03*
Y100650D02*
D03*
Y113350D02*
D03*
Y126050D02*
D03*
D24*
X656914Y822475D02*
D03*
Y841525D02*
D03*
X635086Y832000D02*
D03*
D25*
X395000Y876000D02*
D03*
Y863300D02*
D03*
Y850600D02*
D03*
Y837900D02*
D03*
Y825200D02*
D03*
Y812500D02*
D03*
Y799800D02*
D03*
Y787100D02*
D03*
X298000Y799800D02*
D03*
Y787100D02*
D03*
Y863300D02*
D03*
Y812500D02*
D03*
Y850600D02*
D03*
Y825200D02*
D03*
Y876000D02*
D03*
Y837900D02*
D03*
X396500Y314750D02*
D03*
Y238550D02*
D03*
Y263950D02*
D03*
Y276650D02*
D03*
Y289350D02*
D03*
Y302050D02*
D03*
Y251250D02*
D03*
Y327450D02*
D03*
X299500Y238550D02*
D03*
Y314750D02*
D03*
Y302050D02*
D03*
Y289350D02*
D03*
Y263950D02*
D03*
Y251250D02*
D03*
Y327450D02*
D03*
Y276650D02*
D03*
X299000Y660700D02*
D03*
X396000Y648000D02*
D03*
Y660700D02*
D03*
Y673400D02*
D03*
Y686100D02*
D03*
Y698800D02*
D03*
Y711500D02*
D03*
Y724200D02*
D03*
Y736900D02*
D03*
X299000Y648000D02*
D03*
Y686100D02*
D03*
Y698800D02*
D03*
Y736900D02*
D03*
Y673400D02*
D03*
Y724200D02*
D03*
Y711500D02*
D03*
X299000Y460200D02*
D03*
Y384000D02*
D03*
X396000Y371300D02*
D03*
Y384000D02*
D03*
Y396700D02*
D03*
Y409400D02*
D03*
Y422100D02*
D03*
Y434800D02*
D03*
Y447500D02*
D03*
Y460200D02*
D03*
X299000Y371300D02*
D03*
Y409400D02*
D03*
Y447500D02*
D03*
Y422100D02*
D03*
Y396700D02*
D03*
Y434800D02*
D03*
X396500Y597450D02*
D03*
Y521250D02*
D03*
Y508550D02*
D03*
X299500Y521250D02*
D03*
X396500Y533950D02*
D03*
Y572050D02*
D03*
Y546650D02*
D03*
Y584750D02*
D03*
Y559350D02*
D03*
X299500Y508550D02*
D03*
Y572050D02*
D03*
Y546650D02*
D03*
Y584750D02*
D03*
Y559350D02*
D03*
Y597450D02*
D03*
Y533950D02*
D03*
D26*
X287500Y944650D02*
D03*
Y957350D02*
D03*
X396500Y970050D02*
D03*
Y957350D02*
D03*
Y944650D02*
D03*
Y931950D02*
D03*
X287500Y970050D02*
D03*
Y931950D02*
D03*
D27*
X186950Y971700D02*
D03*
X225050D02*
D03*
X212350Y922300D02*
D03*
X199650D02*
D03*
X186950D02*
D03*
X225050D02*
D03*
X212350Y971700D02*
D03*
X199650D02*
D03*
D28*
X427000Y758000D02*
D03*
Y738000D02*
D03*
Y897000D02*
D03*
Y877000D02*
D03*
X427000Y347000D02*
D03*
Y327000D02*
D03*
X270000Y897000D02*
D03*
Y877000D02*
D03*
Y617000D02*
D03*
Y597000D02*
D03*
Y757000D02*
D03*
Y737000D02*
D03*
X684000Y832000D02*
D03*
Y812000D02*
D03*
X428000Y618000D02*
D03*
Y598000D02*
D03*
X440000Y125000D02*
D03*
Y145000D02*
D03*
X514000Y718000D02*
D03*
Y698000D02*
D03*
Y734000D02*
D03*
Y754000D02*
D03*
X569000Y206100D02*
D03*
Y226100D02*
D03*
X547000Y239100D02*
D03*
Y219100D02*
D03*
X428000Y461000D02*
D03*
Y481000D02*
D03*
X739000Y278100D02*
D03*
Y298100D02*
D03*
X272000Y347000D02*
D03*
Y327000D02*
D03*
X270000Y461000D02*
D03*
Y481000D02*
D03*
D29*
X119750Y179000D02*
D03*
Y225000D02*
D03*
D30*
X53250Y202000D02*
D03*
D31*
X36000Y126500D02*
D03*
Y107500D02*
D03*
X58000Y117000D02*
D03*
D32*
X606298Y249850D02*
D03*
Y256350D02*
D03*
X663702Y269350D02*
D03*
Y275850D02*
D03*
X606298Y269350D02*
D03*
Y262850D02*
D03*
Y301850D02*
D03*
X663702Y301850D02*
D03*
Y288850D02*
D03*
Y308350D02*
D03*
X606298Y275850D02*
D03*
Y282350D02*
D03*
Y288850D02*
D03*
Y295350D02*
D03*
Y308350D02*
D03*
X663702Y295350D02*
D03*
Y282350D02*
D03*
Y262850D02*
D03*
Y256350D02*
D03*
Y249850D02*
D03*
D33*
X705500Y278600D02*
D03*
X718500D02*
D03*
Y295600D02*
D03*
X705500D02*
D03*
D34*
X548000Y315000D02*
D03*
X478000D02*
D03*
X548000Y355000D02*
D03*
X478000D02*
D03*
D35*
X869635Y550000D02*
D03*
X775365Y410300D02*
D03*
Y486500D02*
D03*
X869635D02*
D03*
X775365Y461100D02*
D03*
X869635Y435700D02*
D03*
X775365D02*
D03*
Y423000D02*
D03*
X869635Y461100D02*
D03*
X775365Y448400D02*
D03*
Y499200D02*
D03*
Y473800D02*
D03*
X869635Y499200D02*
D03*
Y473800D02*
D03*
Y524600D02*
D03*
X775365Y511900D02*
D03*
X869635Y448400D02*
D03*
Y511900D02*
D03*
Y537300D02*
D03*
Y423000D02*
D03*
Y410300D02*
D03*
Y397600D02*
D03*
Y384900D02*
D03*
X775365D02*
D03*
Y397600D02*
D03*
Y524600D02*
D03*
Y537300D02*
D03*
Y550000D02*
D03*
X775365Y742000D02*
D03*
Y729300D02*
D03*
Y716600D02*
D03*
Y602300D02*
D03*
Y589600D02*
D03*
X869635Y729300D02*
D03*
Y742000D02*
D03*
Y640400D02*
D03*
X775365Y653100D02*
D03*
Y691200D02*
D03*
X869635Y678500D02*
D03*
Y716600D02*
D03*
Y627700D02*
D03*
Y665800D02*
D03*
X775365Y640400D02*
D03*
Y678500D02*
D03*
X869635Y703900D02*
D03*
X775365Y627700D02*
D03*
X869635Y691200D02*
D03*
X775365Y665800D02*
D03*
X869635Y653100D02*
D03*
X775365Y703900D02*
D03*
Y615000D02*
D03*
X869635Y589600D02*
D03*
X775365Y576900D02*
D03*
X869635Y602300D02*
D03*
Y615000D02*
D03*
Y576900D02*
D03*
X774865Y355550D02*
D03*
Y342850D02*
D03*
Y330150D02*
D03*
Y203150D02*
D03*
Y190450D02*
D03*
X869136D02*
D03*
Y203150D02*
D03*
Y215850D02*
D03*
Y228550D02*
D03*
Y342850D02*
D03*
X774865Y215850D02*
D03*
X869136Y355550D02*
D03*
Y253950D02*
D03*
X774865Y266650D02*
D03*
Y304750D02*
D03*
X869136Y292050D02*
D03*
Y330150D02*
D03*
Y241250D02*
D03*
Y279350D02*
D03*
X774865Y253950D02*
D03*
Y292050D02*
D03*
X869136Y317450D02*
D03*
X774865Y241250D02*
D03*
X869136Y304750D02*
D03*
X774865Y279350D02*
D03*
X869136Y266650D02*
D03*
X774865Y317450D02*
D03*
Y228550D02*
D03*
X774364Y934100D02*
D03*
Y921400D02*
D03*
Y908700D02*
D03*
Y781700D02*
D03*
X868635Y921400D02*
D03*
Y934100D02*
D03*
X774364Y769000D02*
D03*
X868635D02*
D03*
Y781700D02*
D03*
Y807100D02*
D03*
Y794400D02*
D03*
X774364D02*
D03*
X868635Y832500D02*
D03*
X774364Y845200D02*
D03*
Y883300D02*
D03*
X868635Y870600D02*
D03*
Y908700D02*
D03*
Y819800D02*
D03*
Y857900D02*
D03*
X774364Y832500D02*
D03*
Y870600D02*
D03*
X868635Y896000D02*
D03*
X774364Y819800D02*
D03*
X868635Y883300D02*
D03*
X774364Y857900D02*
D03*
X868635Y845200D02*
D03*
X774364Y896000D02*
D03*
Y807100D02*
D03*
D36*
X439250Y212000D02*
D03*
Y166000D02*
D03*
Y189000D02*
D03*
D37*
X502750D02*
D03*
M02*
