%TF.GenerationSoftware,Altium Limited,Altium Designer,25.8.1 (18)*%
G04 Layer_Physical_Order=4*
G04 Layer_Color=16711680*
%FSLAX45Y45*%
%MOMM*%
%TF.SameCoordinates,A2F0C2A1-DF56-410A-A7AA-CA8700650C71*%
%TF.FilePolarity,Positive*%
%TF.FileFunction,Copper,L4,Bot,Signal*%
%TF.Part,Single*%
G01*
G75*
%TA.AperFunction,Conductor*%
%ADD10C,0.30000*%
%TA.AperFunction,SMDPad,CuDef*%
%ADD14R,1.10000X1.52000*%
%ADD21R,1.52000X1.10000*%
%TA.AperFunction,Conductor*%
%ADD32C,0.50000*%
%TA.AperFunction,ComponentPad*%
%ADD34O,4.20000X1.70000*%
%ADD35O,1.70000X3.80000*%
%ADD36O,3.80000X1.70000*%
G04:AMPARAMS|DCode=37|XSize=1.6mm|YSize=1.6mm|CornerRadius=0.4mm|HoleSize=0mm|Usage=FLASHONLY|Rotation=90.000|XOffset=0mm|YOffset=0mm|HoleType=Round|Shape=RoundedRectangle|*
%AMROUNDEDRECTD37*
21,1,1.60000,0.80000,0,0,90.0*
21,1,0.80000,1.60000,0,0,90.0*
1,1,0.80000,0.40000,0.40000*
1,1,0.80000,0.40000,-0.40000*
1,1,0.80000,-0.40000,-0.40000*
1,1,0.80000,-0.40000,0.40000*
%
%ADD37ROUNDEDRECTD37*%
%ADD38C,1.60000*%
G04:AMPARAMS|DCode=39|XSize=1.3mm|YSize=1.3mm|CornerRadius=0.325mm|HoleSize=0mm|Usage=FLASHONLY|Rotation=270.000|XOffset=0mm|YOffset=0mm|HoleType=Round|Shape=RoundedRectangle|*
%AMROUNDEDRECTD39*
21,1,1.30000,0.65000,0,0,270.0*
21,1,0.65000,1.30000,0,0,270.0*
1,1,0.65000,-0.32500,-0.32500*
1,1,0.65000,-0.32500,0.32500*
1,1,0.65000,0.32500,0.32500*
1,1,0.65000,0.32500,-0.32500*
%
%ADD39ROUNDEDRECTD39*%
%ADD40C,1.30000*%
%ADD41C,1.21700*%
%ADD42C,1.52000*%
G04:AMPARAMS|DCode=43|XSize=1.52mm|YSize=1.52mm|CornerRadius=0.38mm|HoleSize=0mm|Usage=FLASHONLY|Rotation=90.000|XOffset=0mm|YOffset=0mm|HoleType=Round|Shape=RoundedRectangle|*
%AMROUNDEDRECTD43*
21,1,1.52000,0.76000,0,0,90.0*
21,1,0.76000,1.52000,0,0,90.0*
1,1,0.76000,0.38000,0.38000*
1,1,0.76000,0.38000,-0.38000*
1,1,0.76000,-0.38000,-0.38000*
1,1,0.76000,-0.38000,0.38000*
%
%ADD43ROUNDEDRECTD43*%
%ADD44C,1.72500*%
%ADD45R,1.32080X1.32080*%
%ADD46C,1.32080*%
%ADD47R,1.32080X1.32080*%
%ADD48C,1.37160*%
%ADD49R,1.37160X1.37160*%
%TA.AperFunction,ViaPad*%
%ADD50C,0.80000*%
%TA.AperFunction,Conductor*%
%ADD51C,0.80000*%
%TA.AperFunction,SMDPad,CuDef*%
%ADD53R,1.55000X2.20000*%
%ADD54R,0.80000X1.20000*%
%TA.AperFunction,ComponentPad*%
%ADD55C,7.40000*%
G36*
X9800836Y9894620D02*
X9826315Y9884066D01*
X9849245Y9868745D01*
X9868745Y9849245D01*
X9884066Y9826315D01*
X9894620Y9800836D01*
X9900000Y9773789D01*
Y9532504D01*
X9889840Y9531704D01*
X9880397Y9591325D01*
X9861427Y9649708D01*
X9833558Y9704405D01*
X9797475Y9754068D01*
X9754068Y9797475D01*
X9704405Y9833558D01*
X9649708Y9861427D01*
X9591325Y9880397D01*
X9531704Y9889840D01*
X9532504Y9900000D01*
X9773789D01*
X9800836Y9894620D01*
D02*
G37*
G36*
X2352816Y8352297D02*
X2367701Y8342351D01*
X2385260Y8338859D01*
X2935289D01*
X2946013Y8328134D01*
X2954594Y8324580D01*
Y8314420D01*
X2946013Y8310866D01*
X2941029Y8305882D01*
X2169005D01*
X2116443Y8358443D01*
X2101558Y8368389D01*
X2084000Y8371882D01*
X510734D01*
X508104Y8381695D01*
X508945Y8382181D01*
X526819Y8400055D01*
X539458Y8421946D01*
X546000Y8446362D01*
Y8471639D01*
X539458Y8496055D01*
X529029Y8514119D01*
X533985Y8524279D01*
X2180835D01*
X2352816Y8352297D01*
D02*
G37*
G36*
X2117557Y8227557D02*
X2132442Y8217611D01*
X2150000Y8214118D01*
X2941029D01*
X2946013Y8209134D01*
X2968065Y8200000D01*
X2977679D01*
X2978065Y8190000D01*
X2956013Y8180866D01*
X2951029Y8175882D01*
X2170000D01*
X2152442Y8172389D01*
X2137557Y8162443D01*
X2100995Y8125882D01*
X2061619D01*
X2060544Y8128477D01*
X2058389Y8136042D01*
X2070458Y8156946D01*
X2077000Y8181362D01*
Y8206639D01*
X2070458Y8231055D01*
X2057819Y8252946D01*
X2040806Y8269959D01*
X2041689Y8277327D01*
X2042437Y8280119D01*
X2064995D01*
X2117557Y8227557D01*
D02*
G37*
G36*
X1920311Y8277327D02*
X1921194Y8269959D01*
X1904181Y8252946D01*
X1891543Y8231055D01*
X1885000Y8206639D01*
Y8181362D01*
X1891543Y8156946D01*
X1903611Y8136042D01*
X1901456Y8128477D01*
X1900381Y8125882D01*
X521014D01*
X516806Y8136042D01*
X526819Y8146055D01*
X539458Y8167946D01*
X546000Y8192362D01*
Y8217639D01*
X539458Y8242055D01*
X526819Y8263945D01*
X520033Y8270732D01*
X523921Y8280119D01*
X1919563D01*
X1920311Y8277327D01*
D02*
G37*
G36*
X3379169Y9946157D02*
X3397368Y9938619D01*
X3413746Y9927675D01*
X3427675Y9913746D01*
X3438619Y9897368D01*
X3446157Y9879169D01*
X3450000Y9859849D01*
Y9850000D01*
Y150000D01*
Y140151D01*
X3446157Y120831D01*
X3438619Y102632D01*
X3427675Y86254D01*
X3413746Y72325D01*
X3397368Y61381D01*
X3379169Y53843D01*
X3359849Y50000D01*
X140151D01*
X120831Y53843D01*
X102632Y61381D01*
X86254Y72325D01*
X72325Y86254D01*
X61381Y102632D01*
X53843Y120831D01*
X50000Y140151D01*
Y150000D01*
Y4265458D01*
X60160Y4269984D01*
X64118Y4266423D01*
Y3930000D01*
X67611Y3912442D01*
X77557Y3897557D01*
X427557Y3547557D01*
X442442Y3537611D01*
X460000Y3534118D01*
X2960000D01*
X2977558Y3537611D01*
X2992443Y3547557D01*
X3172443Y3727557D01*
X3182389Y3742442D01*
X3185882Y3760000D01*
Y4325000D01*
X3182389Y4342558D01*
X3172443Y4357443D01*
X3050000Y4479886D01*
Y4486935D01*
X3040865Y4508987D01*
X3023987Y4525865D01*
X3001935Y4535000D01*
X2978065D01*
X2956013Y4525865D01*
X2939134Y4508987D01*
X2930000Y4486935D01*
Y4463065D01*
X2939134Y4441013D01*
X2956013Y4424134D01*
X2973240Y4416999D01*
Y4406001D01*
X2956013Y4398865D01*
X2951029Y4393881D01*
X2371005D01*
X2222443Y4542443D01*
X2207558Y4552389D01*
X2190000Y4555882D01*
X2049014D01*
X2044806Y4566042D01*
X2057819Y4579055D01*
X2065361Y4592119D01*
X2503029D01*
X2506013Y4589135D01*
X2528065Y4580000D01*
X2551935D01*
X2573987Y4589135D01*
X2590866Y4606013D01*
X2600000Y4628065D01*
Y4651935D01*
X2590866Y4673987D01*
X2573987Y4690866D01*
X2551935Y4700000D01*
X2528065D01*
X2506013Y4690866D01*
X2499029Y4683882D01*
X2065361D01*
X2057819Y4696946D01*
X2039945Y4714819D01*
X2024116Y4723959D01*
X2026838Y4734119D01*
X2371029D01*
X2376013Y4729135D01*
X2398065Y4720000D01*
X2421935D01*
X2443987Y4729135D01*
X2460866Y4746013D01*
X2470000Y4768065D01*
Y4791935D01*
X2460866Y4813987D01*
X2443987Y4830866D01*
X2421935Y4840000D01*
X2398065D01*
X2376013Y4830866D01*
X2371029Y4825882D01*
X2063890D01*
X2059544Y4836042D01*
X2070458Y4854946D01*
X2077000Y4879362D01*
Y4904639D01*
X2070458Y4929055D01*
X2057819Y4950946D01*
X2039945Y4968819D01*
X2018055Y4981458D01*
X1993639Y4988000D01*
X1968362D01*
X1943946Y4981458D01*
X1922055Y4968819D01*
X1904181Y4950946D01*
X1891543Y4929055D01*
X1885000Y4904639D01*
Y4879362D01*
X1891543Y4854946D01*
X1902457Y4836042D01*
X1898111Y4825882D01*
X1510000D01*
X1492442Y4822389D01*
X1477557Y4812443D01*
X1359995Y4694882D01*
X534361D01*
X526819Y4707945D01*
X508945Y4725819D01*
X487055Y4738458D01*
X462639Y4745000D01*
X437362D01*
X412946Y4738458D01*
X391055Y4725819D01*
X373181Y4707945D01*
X360543Y4686055D01*
X354000Y4661639D01*
Y4636362D01*
X360543Y4611946D01*
X373181Y4590055D01*
X391055Y4572181D01*
X412946Y4559543D01*
X437362Y4553000D01*
X462639D01*
X487055Y4559543D01*
X508945Y4572181D01*
X526819Y4590055D01*
X534361Y4603119D01*
X1379000D01*
X1396558Y4606611D01*
X1411443Y4616557D01*
X1529005Y4734119D01*
X1628192D01*
X1634980Y4723958D01*
X1630000Y4711935D01*
Y4688065D01*
X1639134Y4666013D01*
X1656013Y4649134D01*
X1678065Y4640000D01*
X1685113D01*
X1847557Y4477557D01*
X1862442Y4467611D01*
X1880000Y4464119D01*
X1910986D01*
X1915194Y4453959D01*
X1904181Y4442946D01*
X1891543Y4421055D01*
X1885000Y4396639D01*
Y4371362D01*
X1891543Y4346946D01*
X1904181Y4325055D01*
X1922055Y4307181D01*
X1924629Y4305695D01*
X1921999Y4295881D01*
X1889005D01*
X1660000Y4524887D01*
Y4531935D01*
X1650866Y4553987D01*
X1633987Y4570866D01*
X1611935Y4580000D01*
X1588065D01*
X1566013Y4570866D01*
X1549135Y4553987D01*
X1540000Y4531935D01*
Y4508065D01*
X1549135Y4486013D01*
X1566013Y4469135D01*
X1588065Y4460000D01*
X1595114D01*
X1837557Y4217557D01*
X1852442Y4207611D01*
X1870000Y4204118D01*
X1906079D01*
X1909967Y4194732D01*
X1904181Y4188946D01*
X1891543Y4167055D01*
X1885000Y4142639D01*
Y4117362D01*
X1886317Y4112448D01*
X1877518Y4107368D01*
X1570000Y4414887D01*
Y4421935D01*
X1560866Y4443987D01*
X1543987Y4460866D01*
X1521935Y4470000D01*
X1498065D01*
X1476013Y4460866D01*
X1459134Y4443987D01*
X1450000Y4421935D01*
Y4398065D01*
X1459134Y4376013D01*
X1476013Y4359135D01*
X1498065Y4350000D01*
X1505114D01*
X1887557Y3967557D01*
X1902442Y3957611D01*
X1910813Y3955946D01*
X1914157Y3944921D01*
X1904181Y3934946D01*
X1891543Y3913055D01*
X1885000Y3888639D01*
Y3883161D01*
X1875613Y3879273D01*
X1520000Y4234886D01*
Y4241935D01*
X1510865Y4263987D01*
X1493987Y4280865D01*
X1471935Y4290000D01*
X1448065D01*
X1426013Y4280865D01*
X1409134Y4263987D01*
X1400000Y4241935D01*
Y4218065D01*
X1409134Y4196013D01*
X1426013Y4179134D01*
X1448065Y4170000D01*
X1455113D01*
X1947557Y3677557D01*
X1962442Y3667611D01*
X1980000Y3664118D01*
X2733000D01*
X2750558Y3667611D01*
X2765443Y3677557D01*
X2994886Y3907000D01*
X3001935D01*
X3023987Y3916134D01*
X3040865Y3933013D01*
X3050000Y3955065D01*
Y3978935D01*
X3040865Y4000987D01*
X3023987Y4017865D01*
X3006759Y4025001D01*
Y4035999D01*
X3023987Y4043134D01*
X3040865Y4060013D01*
X3050000Y4082065D01*
Y4105935D01*
X3040865Y4127987D01*
X3023987Y4144865D01*
X3006759Y4152001D01*
Y4162999D01*
X3023987Y4170134D01*
X3040865Y4187013D01*
X3050000Y4209065D01*
Y4232935D01*
X3040865Y4254987D01*
X3023987Y4271865D01*
X3006759Y4279001D01*
Y4289999D01*
X3023987Y4297134D01*
X3040865Y4314013D01*
X3050000Y4336065D01*
Y4336839D01*
X3059387Y4340727D01*
X3094119Y4305995D01*
Y3779005D01*
X2940995Y3625881D01*
X479005D01*
X155882Y3949005D01*
Y4271029D01*
X160866Y4276013D01*
X170000Y4298065D01*
Y4321935D01*
X160866Y4343987D01*
X143987Y4360866D01*
X121935Y4370000D01*
X98065D01*
X76013Y4360866D01*
X60160Y4345013D01*
X55361Y4345698D01*
X50000Y4348127D01*
Y7931873D01*
X59387Y7935761D01*
X66013Y7929135D01*
X88065Y7920000D01*
X111935D01*
X133987Y7929135D01*
X150866Y7946013D01*
X160000Y7968065D01*
Y7975114D01*
X219005Y8034119D01*
X382986D01*
X387194Y8023959D01*
X373181Y8009945D01*
X360543Y7988055D01*
X354000Y7963639D01*
Y7938362D01*
X360543Y7913946D01*
X373181Y7892055D01*
X391055Y7874181D01*
X412946Y7861543D01*
X437362Y7855000D01*
X462639D01*
X487055Y7861543D01*
X508945Y7874181D01*
X526819Y7892055D01*
X539458Y7913946D01*
X546000Y7938362D01*
Y7963639D01*
X539458Y7988055D01*
X526819Y8009945D01*
X512806Y8023959D01*
X517014Y8034119D01*
X1908073D01*
X1913322Y8030611D01*
X1922471Y8028791D01*
X1924239Y8018081D01*
X1922055Y8016819D01*
X1904181Y7998946D01*
X1891543Y7977055D01*
X1885000Y7952639D01*
Y7927362D01*
X1891543Y7902946D01*
X1904181Y7881055D01*
X1922055Y7863181D01*
X1943946Y7850543D01*
X1968362Y7844001D01*
X1993639D01*
X2018055Y7850543D01*
X2039945Y7863181D01*
X2057819Y7881055D01*
X2070458Y7902946D01*
X2077000Y7927362D01*
Y7952639D01*
X2070458Y7977055D01*
X2057819Y7998946D01*
X2039945Y8016819D01*
X2037761Y8018081D01*
X2039529Y8028791D01*
X2048678Y8030611D01*
X2053927Y8034119D01*
X2120000D01*
X2137558Y8037611D01*
X2152443Y8047557D01*
X2189005Y8084118D01*
X2951029D01*
X2956013Y8079134D01*
X2978065Y8070000D01*
X3001935D01*
X3023987Y8079134D01*
X3040865Y8096013D01*
X3050000Y8118065D01*
Y8141935D01*
X3040865Y8163987D01*
X3023987Y8180866D01*
X3001935Y8190000D01*
X2992320D01*
X2991935Y8200000D01*
X3013987Y8209134D01*
X3030865Y8226013D01*
X3040000Y8248065D01*
Y8271935D01*
X3030865Y8293987D01*
X3013987Y8310866D01*
X3005406Y8314420D01*
Y8324580D01*
X3013987Y8328134D01*
X3030866Y8345013D01*
X3040000Y8367065D01*
Y8390935D01*
X3030866Y8412987D01*
X3013987Y8429866D01*
X2991935Y8439000D01*
X2968065D01*
X2947838Y8430622D01*
X2404264D01*
X2232283Y8602603D01*
X2217398Y8612549D01*
X2199840Y8616042D01*
X2068518D01*
X2063500Y8626202D01*
X2073635Y8641370D01*
X2078136Y8664000D01*
Y8740000D01*
X2073635Y8762631D01*
X2060816Y8781816D01*
X2041630Y8794635D01*
X2019000Y8799137D01*
X1943000D01*
X1920370Y8794635D01*
X1901184Y8781816D01*
X1888365Y8762631D01*
X1883864Y8740000D01*
Y8664000D01*
X1888365Y8641370D01*
X1898500Y8626202D01*
X1893482Y8616042D01*
X522448D01*
X519365Y8626202D01*
X529816Y8633184D01*
X542635Y8652370D01*
X547136Y8675000D01*
Y8751000D01*
X542635Y8773630D01*
X529816Y8792816D01*
X510630Y8805635D01*
X488000Y8810136D01*
X412000D01*
X389370Y8805635D01*
X370184Y8792816D01*
X357365Y8773630D01*
X352864Y8751000D01*
Y8675000D01*
X357365Y8652370D01*
X370184Y8633184D01*
X380635Y8626202D01*
X377553Y8616042D01*
X360160D01*
X342602Y8612549D01*
X327717Y8602603D01*
X265114Y8540000D01*
X258065D01*
X236013Y8530866D01*
X219134Y8513987D01*
X210000Y8491935D01*
Y8468065D01*
X219134Y8446013D01*
X236013Y8429135D01*
X258065Y8420000D01*
X281935D01*
X303987Y8429135D01*
X320865Y8446013D01*
X330000Y8468065D01*
Y8475114D01*
X349688Y8494802D01*
X358798Y8489543D01*
X354000Y8471639D01*
Y8446362D01*
X360543Y8421946D01*
X373181Y8400055D01*
X391055Y8382181D01*
X391896Y8381695D01*
X389266Y8371882D01*
X316000D01*
X298442Y8368389D01*
X283557Y8358443D01*
X185113Y8260000D01*
X178065D01*
X156013Y8250866D01*
X139134Y8233987D01*
X130000Y8211935D01*
Y8188065D01*
X139134Y8166013D01*
X156013Y8149135D01*
X178065Y8140000D01*
X201935D01*
X223987Y8149135D01*
X240865Y8166013D01*
X250000Y8188065D01*
Y8195114D01*
X335005Y8280119D01*
X376080D01*
X379967Y8270732D01*
X373181Y8263945D01*
X360543Y8242055D01*
X354000Y8217639D01*
Y8192362D01*
X360543Y8167946D01*
X373181Y8146055D01*
X383194Y8136042D01*
X378986Y8125882D01*
X200000D01*
X182442Y8122389D01*
X167557Y8112443D01*
X95114Y8040000D01*
X88065D01*
X66013Y8030866D01*
X59387Y8024239D01*
X50000Y8028127D01*
Y9800000D01*
Y9814774D01*
X55764Y9843753D01*
X67071Y9871051D01*
X83487Y9895619D01*
X104380Y9916512D01*
X128948Y9932928D01*
X156246Y9944235D01*
X185226Y9950000D01*
X3359849D01*
X3379169Y9946157D01*
D02*
G37*
G36*
X9468296Y9889840D02*
X9408675Y9880397D01*
X9350292Y9861427D01*
X9295596Y9833558D01*
X9245932Y9797475D01*
X9202525Y9754068D01*
X9166442Y9704405D01*
X9138573Y9649708D01*
X9119603Y9591325D01*
X9110000Y9530694D01*
Y9469306D01*
X9119603Y9408675D01*
X9138573Y9350292D01*
X9166442Y9295596D01*
X9202525Y9245932D01*
X9245932Y9202525D01*
X9295596Y9166442D01*
X9350292Y9138573D01*
X9408675Y9119603D01*
X9469306Y9110000D01*
X9530694D01*
X9591325Y9119603D01*
X9649708Y9138573D01*
X9704405Y9166442D01*
X9754068Y9202525D01*
X9797475Y9245932D01*
X9833558Y9295596D01*
X9861427Y9350292D01*
X9880397Y9408675D01*
X9889840Y9468296D01*
X9900000Y9467496D01*
Y6941965D01*
X9889840Y6940627D01*
X9889457Y6942054D01*
X9876819Y6963945D01*
X9858945Y6981819D01*
X9837054Y6994457D01*
X9812638Y7001000D01*
X9787361D01*
X9762945Y6994457D01*
X9761718Y6993749D01*
X9200234Y7555234D01*
X9188656Y7562969D01*
X9175000Y7565686D01*
X8150000D01*
X8136344Y7562969D01*
X8124766Y7555234D01*
X7579533Y7010000D01*
X7558065D01*
X7536013Y7000866D01*
X7519135Y6983987D01*
X7510000Y6961935D01*
Y6938065D01*
X7519135Y6916013D01*
X7536013Y6899135D01*
X7558065Y6890000D01*
X7581935D01*
X7603987Y6899135D01*
X7620866Y6916013D01*
X7630000Y6938065D01*
Y6959533D01*
X8164781Y7494314D01*
X8636186D01*
X8640074Y7484927D01*
X8639134Y7483987D01*
X8630000Y7461935D01*
Y7438065D01*
X8639134Y7416013D01*
X8656013Y7399135D01*
X8678065Y7390000D01*
X8701935D01*
X8723987Y7399135D01*
X8740865Y7416013D01*
X8750000Y7438065D01*
Y7461935D01*
X8740865Y7483987D01*
X8739925Y7484927D01*
X8743813Y7494314D01*
X9160218D01*
X9711251Y6943282D01*
X9710542Y6942054D01*
X9704000Y6917638D01*
Y6892361D01*
X9710542Y6867945D01*
X9723181Y6846055D01*
X9741055Y6828181D01*
X9762945Y6815542D01*
X9787361Y6809000D01*
X9812638D01*
X9837054Y6815542D01*
X9858945Y6828181D01*
X9876819Y6846055D01*
X9889457Y6867945D01*
X9889840Y6869373D01*
X9900000Y6868035D01*
Y6687965D01*
X9889840Y6686627D01*
X9889457Y6688054D01*
X9876819Y6709945D01*
X9858945Y6727819D01*
X9837054Y6740457D01*
X9812638Y6747000D01*
X9787361D01*
X9762945Y6740457D01*
X9761718Y6739749D01*
X9276233Y7225234D01*
X9264656Y7232969D01*
X9251000Y7235686D01*
X8605000D01*
Y7406000D01*
X8455000D01*
Y7235686D01*
X8260000D01*
X8246344Y7232969D01*
X8234767Y7225234D01*
X7989533Y6980000D01*
X7968065D01*
X7946013Y6970865D01*
X7929135Y6953987D01*
X7927767Y6950686D01*
X7784167D01*
X7773987Y6960865D01*
X7751935Y6970000D01*
X7728065D01*
X7706013Y6960865D01*
X7689134Y6943987D01*
X7680000Y6921935D01*
Y6898065D01*
X7689134Y6876013D01*
X7706013Y6859134D01*
X7719791Y6853427D01*
Y6842430D01*
X7716013Y6840865D01*
X7699134Y6823987D01*
X7690000Y6801935D01*
Y6778065D01*
X7699134Y6756013D01*
X7716013Y6739134D01*
X7738065Y6730000D01*
X7761935D01*
X7783987Y6739134D01*
X7799167Y6754314D01*
X8000833D01*
X8016013Y6739134D01*
X8038065Y6730000D01*
X8061935D01*
X8083987Y6739134D01*
X8099167Y6754314D01*
X8346765D01*
X8360421Y6757031D01*
X8371999Y6764766D01*
X8627976Y7020744D01*
X8639961Y7018360D01*
X8645489Y7005013D01*
X8662367Y6988135D01*
X8679595Y6980999D01*
Y6970002D01*
X8662367Y6962866D01*
X8645489Y6945988D01*
X8636355Y6923935D01*
Y6900066D01*
X8645489Y6878013D01*
X8662367Y6861135D01*
X8679595Y6853999D01*
Y6843002D01*
X8662367Y6835866D01*
X8645489Y6818988D01*
X8636355Y6796935D01*
Y6773066D01*
X8645489Y6751013D01*
X8662367Y6734135D01*
X8679595Y6726999D01*
Y6716002D01*
X8662367Y6708866D01*
X8645489Y6691988D01*
X8636355Y6669935D01*
Y6646066D01*
X8645489Y6624013D01*
X8662367Y6607135D01*
X8679595Y6599999D01*
Y6589002D01*
X8662367Y6581866D01*
X8645489Y6564988D01*
X8636355Y6542935D01*
Y6519066D01*
X8645489Y6497013D01*
X8662367Y6480135D01*
X8679595Y6472999D01*
Y6462002D01*
X8662367Y6454866D01*
X8645489Y6437988D01*
X8636355Y6415935D01*
Y6392066D01*
X8645489Y6370013D01*
X8662367Y6353135D01*
X8679595Y6345999D01*
Y6335002D01*
X8662367Y6327866D01*
X8645489Y6310988D01*
X8636355Y6288935D01*
Y6265066D01*
X8645489Y6243013D01*
X8662367Y6226135D01*
X8679595Y6218999D01*
Y6208002D01*
X8662367Y6200866D01*
X8645489Y6183988D01*
X8636355Y6161935D01*
Y6138066D01*
X8645489Y6116013D01*
X8662367Y6099135D01*
X8679595Y6091999D01*
Y6081002D01*
X8662367Y6073866D01*
X8645489Y6056988D01*
X8636355Y6034935D01*
Y6011066D01*
X8645489Y5989013D01*
X8662367Y5972135D01*
X8679595Y5964999D01*
Y5954002D01*
X8662367Y5946866D01*
X8645489Y5929988D01*
X8636355Y5907935D01*
Y5884066D01*
X8645489Y5862013D01*
X8662367Y5845135D01*
X8679595Y5837999D01*
Y5827002D01*
X8662367Y5819866D01*
X8645489Y5802988D01*
X8636355Y5780935D01*
Y5757066D01*
X8645489Y5735013D01*
X8662367Y5718135D01*
X8684420Y5709001D01*
X8708289D01*
X8730342Y5718135D01*
X8747220Y5735013D01*
X8756354Y5757066D01*
Y5780935D01*
X8747220Y5802988D01*
X8730342Y5819866D01*
X8713114Y5827002D01*
Y5837999D01*
X8730342Y5845135D01*
X8747220Y5862013D01*
X8756354Y5884066D01*
Y5907935D01*
X8747220Y5929988D01*
X8730342Y5946866D01*
X8713114Y5954002D01*
Y5964999D01*
X8730342Y5972135D01*
X8747220Y5989013D01*
X8756354Y6011066D01*
Y6034935D01*
X8747220Y6056988D01*
X8730342Y6073866D01*
X8713114Y6081002D01*
Y6091999D01*
X8730342Y6099135D01*
X8747220Y6116013D01*
X8756354Y6138066D01*
Y6161935D01*
X8747220Y6183988D01*
X8730342Y6200866D01*
X8713114Y6208002D01*
Y6218999D01*
X8730342Y6226135D01*
X8745521Y6241315D01*
X9360496D01*
X9366835Y6226012D01*
X9383713Y6209134D01*
X9405766Y6199999D01*
X9429635D01*
X9451687Y6209134D01*
X9468566Y6226012D01*
X9477700Y6248064D01*
Y6271934D01*
X9468566Y6293986D01*
X9451687Y6310865D01*
X9429635Y6319999D01*
X9405766D01*
X9387805Y6312560D01*
X9387169Y6312686D01*
X9370827D01*
X9368806Y6322846D01*
X9383987Y6329134D01*
X9400866Y6346013D01*
X9410000Y6368065D01*
Y6391935D01*
X9400866Y6413987D01*
X9383987Y6430865D01*
X9361935Y6440000D01*
X9338065D01*
X9327895Y6435787D01*
X9326126Y6436970D01*
X9312470Y6439686D01*
X9307727D01*
X9305031Y6446498D01*
X9304699Y6449846D01*
X9320866Y6466013D01*
X9330000Y6488065D01*
Y6511935D01*
X9320866Y6533987D01*
X9303987Y6550865D01*
X9281935Y6560000D01*
X9258065D01*
X9236013Y6550865D01*
X9220833Y6535686D01*
X8756354D01*
Y6542935D01*
X8747220Y6564988D01*
X8730342Y6581866D01*
X8713114Y6589002D01*
Y6599999D01*
X8730342Y6607135D01*
X8741521Y6618314D01*
X9148181D01*
X9149134Y6616013D01*
X9166013Y6599134D01*
X9188065Y6590000D01*
X9211935D01*
X9233987Y6599134D01*
X9250865Y6616013D01*
X9260000Y6638065D01*
Y6661935D01*
X9250865Y6683987D01*
X9233987Y6700865D01*
X9211935Y6710000D01*
X9188065D01*
X9166013Y6700865D01*
X9154833Y6689686D01*
X8748174D01*
X8747220Y6691988D01*
X8730342Y6708866D01*
X8713114Y6716002D01*
Y6726999D01*
X8730342Y6734135D01*
X8738021Y6741814D01*
X9079031D01*
X9081434Y6736012D01*
X9098313Y6719134D01*
X9120365Y6709999D01*
X9144234D01*
X9166287Y6719134D01*
X9183165Y6736012D01*
X9192300Y6758064D01*
Y6781934D01*
X9183165Y6803986D01*
X9166287Y6820865D01*
X9144234Y6829999D01*
X9120365D01*
X9098313Y6820865D01*
X9090633Y6813186D01*
X8749623D01*
X8747220Y6818988D01*
X8730342Y6835866D01*
X8713114Y6843002D01*
Y6853999D01*
X8730342Y6861135D01*
X8739521Y6870314D01*
X9007353D01*
X9009134Y6866013D01*
X9026013Y6849134D01*
X9048065Y6840000D01*
X9071935D01*
X9093987Y6849134D01*
X9110865Y6866013D01*
X9120000Y6888065D01*
Y6911935D01*
X9110865Y6933987D01*
X9093987Y6950865D01*
X9071935Y6960000D01*
X9048065D01*
X9026013Y6950865D01*
X9016833Y6941686D01*
X8749002D01*
X8747220Y6945988D01*
X8730342Y6962866D01*
X8713114Y6970002D01*
Y6980999D01*
X8730342Y6988135D01*
X8741021Y6998814D01*
X8941619D01*
X8942780Y6996012D01*
X8959658Y6979134D01*
X8981711Y6969999D01*
X9005580D01*
X9027632Y6979134D01*
X9044511Y6996012D01*
X9053645Y7018064D01*
Y7041934D01*
X9044511Y7063986D01*
X9027632Y7080865D01*
X9005580Y7089999D01*
X8981711D01*
X8959658Y7080865D01*
X8948979Y7070186D01*
X8748381D01*
X8747220Y7072988D01*
X8730342Y7089866D01*
X8716995Y7095394D01*
X8714611Y7107379D01*
X8721547Y7114314D01*
X9032218D01*
X9711251Y6435282D01*
X9710542Y6434054D01*
X9704000Y6409638D01*
Y6384361D01*
X9710542Y6359945D01*
X9723181Y6338055D01*
X9741055Y6320181D01*
X9762945Y6307542D01*
X9787361Y6301000D01*
X9812638D01*
X9837054Y6307542D01*
X9858945Y6320181D01*
X9876819Y6338055D01*
X9889457Y6359945D01*
X9889840Y6361373D01*
X9900000Y6360035D01*
Y6179965D01*
X9889840Y6178627D01*
X9889457Y6180054D01*
X9876819Y6201945D01*
X9858945Y6219819D01*
X9837054Y6232457D01*
X9812638Y6239000D01*
X9787361D01*
X9762945Y6232457D01*
X9741055Y6219819D01*
X9723181Y6201945D01*
X9710542Y6180054D01*
X9704000Y6155638D01*
Y6130361D01*
X9710542Y6105945D01*
X9723181Y6084055D01*
X9741055Y6066181D01*
X9762945Y6053542D01*
X9787361Y6047000D01*
X9812638D01*
X9837054Y6053542D01*
X9858945Y6066181D01*
X9876819Y6084055D01*
X9889457Y6105945D01*
X9889840Y6107373D01*
X9900000Y6106035D01*
Y5925965D01*
X9889840Y5924627D01*
X9889457Y5926054D01*
X9876819Y5947945D01*
X9858945Y5965819D01*
X9837054Y5978457D01*
X9812638Y5985000D01*
X9787361D01*
X9762945Y5978457D01*
X9741055Y5965819D01*
X9723181Y5947945D01*
X9710542Y5926054D01*
X9704000Y5901638D01*
Y5876361D01*
X9710542Y5851945D01*
X9723181Y5830055D01*
X9741055Y5812181D01*
X9762945Y5799542D01*
X9787361Y5793000D01*
X9812638D01*
X9837054Y5799542D01*
X9858945Y5812181D01*
X9876819Y5830055D01*
X9889457Y5851945D01*
X9889840Y5853373D01*
X9900000Y5852035D01*
Y5671965D01*
X9889840Y5670627D01*
X9889457Y5672054D01*
X9876819Y5693945D01*
X9858945Y5711819D01*
X9837054Y5724457D01*
X9812638Y5731000D01*
X9787361D01*
X9762945Y5724457D01*
X9741055Y5711819D01*
X9723181Y5693945D01*
X9710542Y5672054D01*
X9704000Y5647638D01*
Y5622361D01*
X9710542Y5597945D01*
X9723181Y5576055D01*
X9741055Y5558181D01*
X9762945Y5545542D01*
X9787361Y5539000D01*
X9812638D01*
X9837054Y5545542D01*
X9858945Y5558181D01*
X9876819Y5576055D01*
X9889457Y5597945D01*
X9889840Y5599373D01*
X9900000Y5598035D01*
Y5417965D01*
X9889840Y5416627D01*
X9889457Y5418054D01*
X9876819Y5439945D01*
X9858945Y5457819D01*
X9837054Y5470457D01*
X9812638Y5477000D01*
X9787361D01*
X9762945Y5470457D01*
X9741055Y5457819D01*
X9723181Y5439945D01*
X9710542Y5418054D01*
X9704000Y5393638D01*
Y5368361D01*
X9710542Y5343945D01*
X9723181Y5322055D01*
X9741055Y5304181D01*
X9762945Y5291542D01*
X9787361Y5285000D01*
X9812638D01*
X9837054Y5291542D01*
X9858945Y5304181D01*
X9876819Y5322055D01*
X9889457Y5343945D01*
X9889840Y5345373D01*
X9900000Y5344035D01*
Y5163965D01*
X9889840Y5162627D01*
X9889457Y5164054D01*
X9876819Y5185945D01*
X9858945Y5203819D01*
X9837054Y5216457D01*
X9812638Y5223000D01*
X9787361D01*
X9762945Y5216457D01*
X9741055Y5203819D01*
X9723181Y5185945D01*
X9710542Y5164054D01*
X9704000Y5139638D01*
Y5114361D01*
X9710542Y5089945D01*
X9723181Y5068055D01*
X9741055Y5050181D01*
X9762945Y5037542D01*
X9787361Y5031000D01*
X9812638D01*
X9837054Y5037542D01*
X9858945Y5050181D01*
X9876819Y5068055D01*
X9889457Y5089945D01*
X9889840Y5091373D01*
X9900000Y5090035D01*
Y4909965D01*
X9889840Y4908627D01*
X9889457Y4910054D01*
X9876819Y4931945D01*
X9858945Y4949819D01*
X9837054Y4962457D01*
X9812638Y4969000D01*
X9787361D01*
X9762945Y4962457D01*
X9761718Y4961749D01*
X9452233Y5271234D01*
X9440656Y5278970D01*
X9426999Y5281686D01*
X8745522D01*
X8730342Y5296866D01*
X8708289Y5306000D01*
X8684420D01*
X8662367Y5296866D01*
X8645489Y5279988D01*
X8636355Y5257935D01*
Y5234066D01*
X8645489Y5212013D01*
X8662367Y5195135D01*
X8679595Y5187999D01*
Y5177002D01*
X8662367Y5169866D01*
X8645489Y5152988D01*
X8636355Y5130935D01*
Y5107066D01*
X8645489Y5085013D01*
X8662367Y5068135D01*
X8679595Y5060999D01*
Y5050002D01*
X8662367Y5042866D01*
X8645489Y5025988D01*
X8636355Y5003935D01*
Y4980066D01*
X8645489Y4958013D01*
X8662367Y4941135D01*
X8679595Y4933999D01*
Y4923002D01*
X8662367Y4915866D01*
X8645489Y4898988D01*
X8636355Y4876935D01*
Y4853066D01*
X8645489Y4831013D01*
X8662367Y4814135D01*
X8679595Y4806999D01*
Y4796002D01*
X8662367Y4788866D01*
X8645489Y4771988D01*
X8636355Y4749935D01*
Y4726066D01*
X8645489Y4704013D01*
X8662367Y4687135D01*
X8679595Y4679999D01*
Y4669002D01*
X8662367Y4661866D01*
X8645489Y4644988D01*
X8636355Y4622935D01*
Y4599066D01*
X8645489Y4577013D01*
X8662367Y4560135D01*
X8679595Y4552999D01*
Y4542002D01*
X8662367Y4534866D01*
X8645489Y4517988D01*
X8636355Y4495935D01*
Y4472066D01*
X8645489Y4450013D01*
X8662367Y4433135D01*
X8679595Y4425999D01*
Y4415002D01*
X8662367Y4407866D01*
X8645489Y4390988D01*
X8636355Y4368935D01*
Y4345066D01*
X8645489Y4323013D01*
X8662367Y4306135D01*
X8679595Y4298999D01*
Y4288002D01*
X8662367Y4280866D01*
X8645489Y4263988D01*
X8636355Y4241935D01*
Y4218066D01*
X8645489Y4196013D01*
X8662367Y4179135D01*
X8679595Y4171999D01*
Y4161002D01*
X8662367Y4153866D01*
X8645489Y4136988D01*
X8636355Y4114935D01*
Y4091066D01*
X8645489Y4069013D01*
X8662367Y4052135D01*
X8679595Y4044999D01*
Y4034002D01*
X8662367Y4026866D01*
X8645489Y4009988D01*
X8636355Y3987935D01*
Y3964066D01*
X8645489Y3942013D01*
X8662367Y3925135D01*
X8679595Y3917999D01*
Y3907002D01*
X8662367Y3899866D01*
X8645489Y3882988D01*
X8636355Y3860935D01*
Y3837066D01*
X8645489Y3815013D01*
X8662367Y3798135D01*
X8684420Y3789001D01*
X8708289D01*
X8730342Y3798135D01*
X8747220Y3815013D01*
X8756355Y3837066D01*
Y3860935D01*
X8747220Y3882988D01*
X8730342Y3899866D01*
X8713114Y3907002D01*
Y3917999D01*
X8730342Y3925135D01*
X8747220Y3942013D01*
X8756355Y3964066D01*
Y3987935D01*
X8747220Y4009988D01*
X8730342Y4026866D01*
X8713114Y4034002D01*
Y4044999D01*
X8730342Y4052135D01*
X8747220Y4069013D01*
X8756355Y4091066D01*
Y4114935D01*
X8747220Y4136988D01*
X8730342Y4153866D01*
X8713114Y4161002D01*
Y4171999D01*
X8730342Y4179135D01*
X8747220Y4196013D01*
X8756355Y4218066D01*
Y4241935D01*
X8747220Y4263988D01*
X8730342Y4280866D01*
X8713114Y4288002D01*
Y4298999D01*
X8730342Y4306135D01*
X8745522Y4321315D01*
X9360496D01*
X9366835Y4306012D01*
X9383713Y4289134D01*
X9405766Y4279999D01*
X9429635D01*
X9451688Y4289134D01*
X9468566Y4306012D01*
X9477700Y4328064D01*
Y4351934D01*
X9468566Y4373986D01*
X9451688Y4390865D01*
X9429635Y4399999D01*
X9405766D01*
X9387805Y4392560D01*
X9387169Y4392686D01*
X9370827D01*
X9368806Y4402846D01*
X9383988Y4409134D01*
X9400866Y4426013D01*
X9410000Y4448065D01*
Y4471935D01*
X9400866Y4493987D01*
X9383988Y4510866D01*
X9361935Y4520000D01*
X9338066D01*
X9327895Y4515787D01*
X9326126Y4516970D01*
X9316021Y4518980D01*
X9314546Y4526344D01*
X9314495Y4529642D01*
X9330866Y4546013D01*
X9340000Y4568065D01*
Y4591935D01*
X9330866Y4613987D01*
X9313987Y4630866D01*
X9291935Y4640000D01*
X9268065D01*
X9246013Y4630866D01*
X9230833Y4615686D01*
X8756355D01*
Y4622935D01*
X8747220Y4644988D01*
X8730342Y4661866D01*
X8713114Y4669002D01*
Y4679999D01*
X8730342Y4687135D01*
X8741522Y4698314D01*
X9150481D01*
X9151434Y4696013D01*
X9168313Y4679134D01*
X9190365Y4670000D01*
X9214235D01*
X9236287Y4679134D01*
X9253165Y4696013D01*
X9262300Y4718065D01*
Y4741935D01*
X9253165Y4763987D01*
X9236287Y4780865D01*
X9214235Y4790000D01*
X9190365D01*
X9168313Y4780865D01*
X9157133Y4769686D01*
X8748174D01*
X8747220Y4771988D01*
X8730342Y4788866D01*
X8713114Y4796002D01*
Y4806999D01*
X8730342Y4814135D01*
X8738021Y4821814D01*
X9079031D01*
X9081434Y4816012D01*
X9098313Y4799134D01*
X9120365Y4789999D01*
X9144235D01*
X9166287Y4799134D01*
X9183166Y4816012D01*
X9192300Y4838064D01*
Y4861934D01*
X9183166Y4883986D01*
X9166287Y4900865D01*
X9144235Y4909999D01*
X9120365D01*
X9098313Y4900865D01*
X9090634Y4893186D01*
X8749624D01*
X8747220Y4898988D01*
X8730342Y4915866D01*
X8713114Y4923002D01*
Y4933999D01*
X8730342Y4941135D01*
X8739522Y4950314D01*
X9007353D01*
X9009135Y4946013D01*
X9026013Y4929134D01*
X9048065Y4920000D01*
X9071935D01*
X9093987Y4929134D01*
X9109167Y4944314D01*
X9170218D01*
X9711251Y4403282D01*
X9710542Y4402054D01*
X9704000Y4377638D01*
Y4352361D01*
X9710542Y4327945D01*
X9723181Y4306055D01*
X9741055Y4288181D01*
X9762945Y4275542D01*
X9787361Y4269000D01*
X9812638D01*
X9837054Y4275542D01*
X9858945Y4288181D01*
X9876819Y4306055D01*
X9889457Y4327945D01*
X9889840Y4329373D01*
X9900000Y4328035D01*
Y4147965D01*
X9889840Y4146627D01*
X9889457Y4148054D01*
X9876819Y4169945D01*
X9858945Y4187819D01*
X9837054Y4200457D01*
X9812638Y4207000D01*
X9787361D01*
X9762945Y4200457D01*
X9741055Y4187819D01*
X9723181Y4169945D01*
X9710542Y4148054D01*
X9710042Y4146186D01*
X9178667D01*
X9163987Y4160865D01*
X9141935Y4170000D01*
X9118065D01*
X9096013Y4160865D01*
X9079134Y4143987D01*
X9070000Y4121935D01*
Y4098065D01*
X9079134Y4076013D01*
X9096013Y4059134D01*
X9118065Y4050000D01*
X9141935D01*
X9163987Y4059134D01*
X9179667Y4074814D01*
X9710310D01*
X9710542Y4073945D01*
X9723181Y4052055D01*
X9741055Y4034181D01*
X9762945Y4021542D01*
X9787361Y4015000D01*
X9812638D01*
X9837054Y4021542D01*
X9858945Y4034181D01*
X9876819Y4052055D01*
X9889457Y4073945D01*
X9889840Y4075373D01*
X9900000Y4074035D01*
Y3893965D01*
X9889840Y3892627D01*
X9889457Y3894054D01*
X9876819Y3915945D01*
X9858945Y3933819D01*
X9837054Y3946457D01*
X9812638Y3953000D01*
X9787361D01*
X9762945Y3946457D01*
X9741055Y3933819D01*
X9723181Y3915945D01*
X9710542Y3894054D01*
X9709238Y3889186D01*
X9255667D01*
X9243987Y3900865D01*
X9221935Y3910000D01*
X9198065D01*
X9176013Y3900865D01*
X9159135Y3883987D01*
X9150000Y3861935D01*
Y3838065D01*
X9159135Y3816013D01*
X9176013Y3799134D01*
X9198065Y3790000D01*
X9221935D01*
X9243987Y3799134D01*
X9260866Y3816013D01*
X9261612Y3817814D01*
X9711773D01*
X9723181Y3798055D01*
X9741055Y3780181D01*
X9762945Y3767542D01*
X9787361Y3761000D01*
X9812638D01*
X9837054Y3767542D01*
X9858945Y3780181D01*
X9876819Y3798055D01*
X9889457Y3819945D01*
X9889840Y3821373D01*
X9900000Y3820035D01*
Y3639965D01*
X9889840Y3638627D01*
X9889457Y3640054D01*
X9876819Y3661945D01*
X9858945Y3679819D01*
X9837054Y3692457D01*
X9812638Y3699000D01*
X9787361D01*
X9762945Y3692457D01*
X9741055Y3679819D01*
X9723181Y3661945D01*
X9711773Y3642186D01*
X9331612D01*
X9330866Y3643987D01*
X9313987Y3660865D01*
X9291935Y3670000D01*
X9268065D01*
X9246013Y3660865D01*
X9229134Y3643987D01*
X9220000Y3621935D01*
Y3598065D01*
X9229134Y3576013D01*
X9246013Y3559134D01*
X9268065Y3550000D01*
X9291935D01*
X9313987Y3559134D01*
X9325667Y3570814D01*
X9709238D01*
X9710542Y3565945D01*
X9723181Y3544055D01*
X9741055Y3526181D01*
X9762945Y3513542D01*
X9787361Y3507000D01*
X9812638D01*
X9837054Y3513542D01*
X9858945Y3526181D01*
X9876819Y3544055D01*
X9889457Y3565945D01*
X9889840Y3567373D01*
X9900000Y3566035D01*
Y3385965D01*
X9889840Y3384627D01*
X9889457Y3386054D01*
X9876819Y3407945D01*
X9858945Y3425819D01*
X9837054Y3438457D01*
X9812638Y3445000D01*
X9787361D01*
X9762945Y3438457D01*
X9741055Y3425819D01*
X9723181Y3407945D01*
X9710542Y3386054D01*
X9710176Y3384686D01*
X9419312D01*
X9410000Y3393998D01*
Y3401935D01*
X9400866Y3423987D01*
X9383987Y3440866D01*
X9361935Y3450000D01*
X9338065D01*
X9316013Y3440866D01*
X9299135Y3423987D01*
X9290000Y3401935D01*
Y3378065D01*
X9299135Y3356013D01*
X9316013Y3339135D01*
X9338065Y3330000D01*
X9361935D01*
X9369803Y3333260D01*
X9379297Y3323766D01*
X9390874Y3316031D01*
X9404530Y3313314D01*
X9710176D01*
X9710542Y3311945D01*
X9723181Y3290055D01*
X9741055Y3272181D01*
X9762945Y3259542D01*
X9787361Y3253000D01*
X9812638D01*
X9837054Y3259542D01*
X9858945Y3272181D01*
X9876819Y3290055D01*
X9889457Y3311945D01*
X9889840Y3313373D01*
X9900000Y3312035D01*
Y3162895D01*
X9889840Y3159813D01*
X9879816Y3174816D01*
X9860630Y3187635D01*
X9838000Y3192136D01*
X9762000D01*
X9739370Y3187635D01*
X9720184Y3174816D01*
X9707365Y3155630D01*
X9702864Y3133000D01*
Y3057000D01*
X9707365Y3034370D01*
X9720184Y3015184D01*
X9739370Y3002365D01*
X9762000Y2997864D01*
X9838000D01*
X9860630Y3002365D01*
X9879816Y3015184D01*
X9889840Y3030187D01*
X9900000Y3027105D01*
Y532504D01*
X9889840Y531704D01*
X9880397Y591325D01*
X9861427Y649708D01*
X9833558Y704404D01*
X9797475Y754068D01*
X9754068Y797475D01*
X9704405Y833558D01*
X9649708Y861427D01*
X9591325Y880397D01*
X9530694Y890000D01*
X9469306D01*
X9408675Y880397D01*
X9350292Y861427D01*
X9295596Y833558D01*
X9245932Y797475D01*
X9202525Y754068D01*
X9166442Y704404D01*
X9138573Y649708D01*
X9119603Y591325D01*
X9110000Y530694D01*
Y469306D01*
X9119603Y408675D01*
X9138573Y350292D01*
X9166442Y295596D01*
X9202525Y245932D01*
X9245932Y202525D01*
X9295596Y166442D01*
X9350292Y138573D01*
X9408675Y119603D01*
X9469306Y110000D01*
X9530694D01*
X9591325Y119603D01*
X9649708Y138573D01*
X9704405Y166442D01*
X9754068Y202525D01*
X9797475Y245932D01*
X9833558Y295596D01*
X9861427Y350292D01*
X9880397Y408675D01*
X9889840Y468296D01*
X9900000Y467496D01*
Y140151D01*
X9896157Y120831D01*
X9888619Y102632D01*
X9877675Y86254D01*
X9863746Y72325D01*
X9847368Y61381D01*
X9829169Y53843D01*
X9809849Y50000D01*
X5447500D01*
Y285000D01*
X5252500D01*
Y236755D01*
X5242340Y232546D01*
X5206028Y268858D01*
Y322500D01*
X5201954Y342984D01*
X5190350Y360350D01*
X5172984Y371953D01*
X5152500Y376028D01*
X5087500D01*
X5067016Y371953D01*
X5049650Y360350D01*
X5038046Y342984D01*
X5036634Y335881D01*
X4419005D01*
X4403443Y351443D01*
X4395000Y357085D01*
Y466000D01*
X4365882D01*
Y516852D01*
X4362389Y534410D01*
X4358328Y540488D01*
X4369009Y558989D01*
X4376250Y586012D01*
Y613988D01*
X4369009Y641011D01*
X4355021Y665239D01*
X4335239Y685021D01*
X4311011Y699009D01*
X4283988Y706250D01*
X4256012D01*
X4228989Y699009D01*
X4204761Y685021D01*
X4184979Y665239D01*
X4170991Y641011D01*
X4163750Y613988D01*
Y586012D01*
X4170991Y558989D01*
X4184979Y534761D01*
X4204761Y514979D01*
X4228989Y500991D01*
X4256012Y493750D01*
X4274118D01*
Y466000D01*
X4245000D01*
Y274000D01*
X4345567D01*
X4350000Y273118D01*
X4351995D01*
X4367557Y257557D01*
X4382442Y247611D01*
X4400000Y244118D01*
X5036634D01*
X5038046Y237015D01*
X5049650Y219650D01*
X5067016Y208046D01*
X5087500Y203971D01*
X5141142D01*
X5194346Y150767D01*
X5209231Y140821D01*
X5226790Y137329D01*
X5252500D01*
Y50000D01*
X3731136D01*
X3713748Y53458D01*
X3697369Y60243D01*
X3682628Y70092D01*
X3670092Y82628D01*
X3660243Y97369D01*
X3653459Y113748D01*
X3650000Y131136D01*
Y274000D01*
X3795000D01*
Y466000D01*
X3765881D01*
Y493750D01*
X3775988D01*
X3803011Y500991D01*
X3827239Y514979D01*
X3847021Y534761D01*
X3861009Y558989D01*
X3868250Y586012D01*
Y613988D01*
X3862465Y635579D01*
X4421005Y1194119D01*
X5038340D01*
X5041983Y1187809D01*
X5057809Y1171983D01*
X5077191Y1160793D01*
X5098809Y1155000D01*
X5121190D01*
X5142809Y1160793D01*
X5162191Y1171983D01*
X5178017Y1187809D01*
X5181660Y1194119D01*
X5257500D01*
X5275058Y1197611D01*
X5289943Y1207557D01*
X5297386Y1215000D01*
X5362614D01*
X5434118Y1143495D01*
Y880000D01*
X5437611Y862442D01*
X5447557Y847557D01*
X5577557Y717557D01*
X5592442Y707611D01*
X5610000Y704118D01*
X6147925D01*
X6165483Y707611D01*
X6180368Y717557D01*
X6235930Y773118D01*
X6240000D01*
X6244433Y774000D01*
X6345000D01*
Y966000D01*
X6195000D01*
Y858471D01*
X6184482Y851443D01*
X6128920Y795882D01*
X5629005D01*
X5570273Y854613D01*
X5574161Y864000D01*
X5705000D01*
Y1055999D01*
X5635686D01*
Y1649235D01*
X5632969Y1662892D01*
X5625234Y1674469D01*
X5505686Y1794017D01*
Y2341833D01*
X5520866Y2357013D01*
X5530000Y2379066D01*
Y2402935D01*
X5520866Y2424988D01*
X5503987Y2441866D01*
X5481935Y2451000D01*
X5458065D01*
X5436013Y2441866D01*
X5419134Y2424988D01*
X5410000Y2402935D01*
Y2379066D01*
X5419134Y2357013D01*
X5434314Y2341833D01*
Y1779235D01*
X5437031Y1765579D01*
X5444766Y1754002D01*
X5564314Y1634454D01*
Y1055999D01*
X5555000D01*
Y883161D01*
X5545613Y879273D01*
X5525882Y899005D01*
Y1162500D01*
X5522389Y1180058D01*
X5512443Y1194943D01*
X5427500Y1279886D01*
Y1475000D01*
X5232500D01*
Y1285882D01*
X5181660D01*
X5178017Y1292191D01*
X5162191Y1308017D01*
X5142809Y1319207D01*
X5121190Y1325000D01*
X5098809D01*
X5077191Y1319207D01*
X5057809Y1308017D01*
X5041983Y1292191D01*
X5038340Y1285882D01*
X4402000D01*
X4384442Y1282389D01*
X4369557Y1272443D01*
X3797579Y700465D01*
X3775988Y706250D01*
X3748012D01*
X3720989Y699009D01*
X3696761Y685021D01*
X3676979Y665239D01*
X3662991Y641011D01*
X3660160Y630447D01*
X3650000Y631784D01*
Y9750000D01*
Y9764774D01*
X3655764Y9793753D01*
X3667072Y9821051D01*
X3683487Y9845619D01*
X3704380Y9866512D01*
X3728948Y9882928D01*
X3756246Y9894235D01*
X3785226Y9900000D01*
X9467496D01*
X9468296Y9889840D01*
D02*
G37*
G36*
X8661226Y7154928D02*
X8331984Y6825686D01*
X8099167D01*
X8083987Y6840865D01*
X8061935Y6850000D01*
X8038065D01*
X8016013Y6840865D01*
X8000833Y6825686D01*
X7799167D01*
X7783987Y6840865D01*
X7770209Y6846572D01*
Y6857569D01*
X7773987Y6859134D01*
X7790866Y6876013D01*
X7792233Y6879314D01*
X7935833D01*
X7946013Y6869134D01*
X7968065Y6860000D01*
X7991935D01*
X8013987Y6869134D01*
X8030866Y6886013D01*
X8040000Y6908065D01*
Y6929532D01*
X8274782Y7164314D01*
X8657338D01*
X8661226Y7154928D01*
D02*
G37*
G36*
X9711251Y6689282D02*
X9710542Y6688054D01*
X9704000Y6663638D01*
Y6638361D01*
X9710542Y6613945D01*
X9723181Y6592055D01*
X9741055Y6574181D01*
X9762945Y6561542D01*
X9787361Y6555000D01*
X9812638D01*
X9837054Y6561542D01*
X9858945Y6574181D01*
X9876819Y6592055D01*
X9889457Y6613945D01*
X9889840Y6615373D01*
X9900000Y6614035D01*
Y6433965D01*
X9889840Y6432627D01*
X9889457Y6434054D01*
X9876819Y6455945D01*
X9858945Y6473819D01*
X9837054Y6486457D01*
X9812638Y6493000D01*
X9787361D01*
X9762945Y6486457D01*
X9761718Y6485749D01*
X9092540Y7154928D01*
X9096428Y7164314D01*
X9236218D01*
X9711251Y6689282D01*
D02*
G37*
G36*
X9290000Y6368065D02*
X9299135Y6346013D01*
X9316013Y6329134D01*
X9331194Y6322846D01*
X9329173Y6312686D01*
X8745521D01*
X8730342Y6327866D01*
X8713114Y6335002D01*
Y6345999D01*
X8730342Y6353135D01*
X8745521Y6368315D01*
X9290000D01*
Y6368065D01*
D02*
G37*
G36*
X9711251Y4911282D02*
X9710542Y4910054D01*
X9704000Y4885638D01*
Y4860361D01*
X9710542Y4835945D01*
X9723181Y4814055D01*
X9741055Y4796181D01*
X9762945Y4783542D01*
X9787361Y4777000D01*
X9812638D01*
X9837054Y4783542D01*
X9858945Y4796181D01*
X9876819Y4814055D01*
X9889457Y4835945D01*
X9889840Y4837373D01*
X9900000Y4836035D01*
Y4655965D01*
X9889840Y4654627D01*
X9889457Y4656054D01*
X9876819Y4677945D01*
X9858945Y4695819D01*
X9837054Y4708457D01*
X9812638Y4715000D01*
X9787361D01*
X9762945Y4708457D01*
X9761718Y4707749D01*
X9334234Y5135233D01*
X9322657Y5142968D01*
X9309001Y5145685D01*
X9042812D01*
X9027633Y5160865D01*
X9005580Y5169999D01*
X8981711D01*
X8959658Y5160865D01*
X8948979Y5150186D01*
X8748381D01*
X8747220Y5152988D01*
X8730342Y5169866D01*
X8713114Y5177002D01*
Y5187999D01*
X8730342Y5195135D01*
X8745522Y5210315D01*
X9412218D01*
X9711251Y4911282D01*
D02*
G37*
G36*
X8942780Y5076012D02*
X8959658Y5059134D01*
X8981711Y5049999D01*
X9005580D01*
X9027633Y5059134D01*
X9042812Y5074313D01*
X9294219D01*
X9711251Y4657282D01*
X9710542Y4656054D01*
X9704000Y4631638D01*
Y4606361D01*
X9710542Y4581945D01*
X9723181Y4560055D01*
X9741055Y4542181D01*
X9762945Y4529542D01*
X9787361Y4523000D01*
X9812638D01*
X9837054Y4529542D01*
X9858945Y4542181D01*
X9876819Y4560055D01*
X9889457Y4581945D01*
X9889840Y4583373D01*
X9900000Y4582035D01*
Y4401965D01*
X9889840Y4400627D01*
X9889457Y4402054D01*
X9876819Y4423945D01*
X9858945Y4441819D01*
X9837054Y4454457D01*
X9812638Y4461000D01*
X9787361D01*
X9762945Y4454457D01*
X9761718Y4453749D01*
X9210234Y5005234D01*
X9198656Y5012969D01*
X9185000Y5015686D01*
X9109167D01*
X9093987Y5030865D01*
X9071935Y5040000D01*
X9048065D01*
X9026013Y5030865D01*
X9016833Y5021686D01*
X8749002D01*
X8747220Y5025988D01*
X8730342Y5042866D01*
X8713114Y5050002D01*
Y5060999D01*
X8730342Y5068135D01*
X8741021Y5078814D01*
X8941619D01*
X8942780Y5076012D01*
D02*
G37*
G36*
X9290000Y4448065D02*
X9299135Y4426013D01*
X9316013Y4409134D01*
X9331194Y4402846D01*
X9329173Y4392686D01*
X8745522D01*
X8730342Y4407866D01*
X8713114Y4415002D01*
Y4425999D01*
X8730342Y4433135D01*
X8745522Y4448315D01*
X9290000D01*
Y4448065D01*
D02*
G37*
G36*
X2319557Y4315557D02*
X2333797Y4306041D01*
X2333903Y4305298D01*
X2328283Y4295881D01*
X2040001D01*
X2037371Y4305695D01*
X2039945Y4307181D01*
X2057819Y4325055D01*
X2070458Y4346946D01*
X2077000Y4371362D01*
Y4396639D01*
X2070458Y4421055D01*
X2057819Y4442946D01*
X2046806Y4453959D01*
X2051015Y4464119D01*
X2170995D01*
X2319557Y4315557D01*
D02*
G37*
G36*
X2939134Y4187013D02*
X2956013Y4170134D01*
X2973240Y4162999D01*
Y4152001D01*
X2956013Y4144865D01*
X2939134Y4127987D01*
X2930000Y4105935D01*
Y4098886D01*
X2876995Y4045881D01*
X2046850D01*
X2042805Y4056041D01*
X2057819Y4071055D01*
X2070458Y4092946D01*
X2077000Y4117362D01*
Y4142639D01*
X2070458Y4167055D01*
X2057819Y4188946D01*
X2052033Y4194732D01*
X2055921Y4204118D01*
X2932049D01*
X2939134Y4187013D01*
D02*
G37*
G36*
X2903331Y3945217D02*
X2713995Y3755881D01*
X1999005D01*
X1984272Y3770614D01*
X1988160Y3780001D01*
X1993639D01*
X2018055Y3786543D01*
X2039945Y3799181D01*
X2057819Y3817055D01*
X2070458Y3838946D01*
X2077000Y3863362D01*
Y3888639D01*
X2070458Y3913055D01*
X2057819Y3934946D01*
X2048806Y3943958D01*
X2053015Y3954118D01*
X2896000D01*
X2898326Y3954581D01*
X2903331Y3945217D01*
D02*
G37*
%LPC*%
G36*
X1725000Y9836000D02*
X1575000D01*
Y9644000D01*
X1725000D01*
Y9836000D01*
D02*
G37*
G36*
X1525000D02*
X1375000D01*
Y9644000D01*
X1525000D01*
Y9836000D01*
D02*
G37*
G36*
X2955000Y9706000D02*
X2805000D01*
Y9516160D01*
X2805000Y9514000D01*
Y9506000D01*
X2805000Y9503840D01*
Y9314000D01*
X2955000D01*
Y9503840D01*
X2955000Y9506000D01*
Y9514000D01*
X2955000Y9516160D01*
Y9706000D01*
D02*
G37*
G36*
X2755000D02*
X2605000D01*
Y9655881D01*
X2383500D01*
X2365942Y9652389D01*
X2351057Y9642443D01*
X1991613Y9283000D01*
X1984565D01*
X1962513Y9273866D01*
X1945634Y9256987D01*
X1936500Y9234935D01*
Y9211065D01*
X1945634Y9189013D01*
X1962513Y9172135D01*
X1984565Y9163000D01*
X2008435D01*
X2030487Y9172135D01*
X2047365Y9189013D01*
X2054501Y9206241D01*
X2065499D01*
X2072634Y9189013D01*
X2089513Y9172135D01*
X2111565Y9163000D01*
X2135435D01*
X2157487Y9172135D01*
X2174365Y9189013D01*
X2183500Y9211065D01*
Y9218114D01*
X2329504Y9364118D01*
X2605000D01*
Y9314000D01*
X2755000D01*
Y9505999D01*
X2755000D01*
Y9514001D01*
X2755000D01*
Y9706000D01*
D02*
G37*
G36*
X530694Y9890000D02*
X469306D01*
X408675Y9880397D01*
X350292Y9861427D01*
X295596Y9833558D01*
X245932Y9797475D01*
X202525Y9754068D01*
X166442Y9704405D01*
X138573Y9649708D01*
X119603Y9591325D01*
X110000Y9530694D01*
Y9469306D01*
X119603Y9408675D01*
X138573Y9350292D01*
X166442Y9295596D01*
X202525Y9245932D01*
X245932Y9202525D01*
X295596Y9166442D01*
X350292Y9138573D01*
X408675Y9119603D01*
X469306Y9110000D01*
X530694D01*
X591325Y9119603D01*
X649708Y9138573D01*
X704404Y9166442D01*
X754068Y9202525D01*
X797475Y9245932D01*
X833558Y9295596D01*
X861427Y9350292D01*
X880397Y9408675D01*
X890000Y9469306D01*
Y9530694D01*
X880397Y9591325D01*
X861427Y9649708D01*
X833558Y9704405D01*
X797475Y9754068D01*
X754068Y9797475D01*
X704404Y9833558D01*
X649708Y9861427D01*
X591325Y9880397D01*
X530694Y9890000D01*
D02*
G37*
G36*
X1715000Y9286000D02*
X1565000D01*
Y9094000D01*
X1715000D01*
Y9286000D01*
D02*
G37*
G36*
X462639Y7793000D02*
X437362D01*
X412946Y7786458D01*
X391055Y7773819D01*
X373181Y7755945D01*
X360543Y7734055D01*
X354000Y7709639D01*
Y7684362D01*
X360543Y7659946D01*
X373181Y7638055D01*
X391055Y7620181D01*
X412946Y7607543D01*
X437362Y7601000D01*
X462639D01*
X487055Y7607543D01*
X508945Y7620181D01*
X526819Y7638055D01*
X539458Y7659946D01*
X546000Y7684362D01*
Y7709639D01*
X539458Y7734055D01*
X526819Y7755945D01*
X508945Y7773819D01*
X487055Y7786458D01*
X462639Y7793000D01*
D02*
G37*
G36*
Y7539000D02*
X437362D01*
X412946Y7532458D01*
X391055Y7519819D01*
X373181Y7501945D01*
X360543Y7480055D01*
X354000Y7455639D01*
Y7430362D01*
X360543Y7405946D01*
X373181Y7384055D01*
X391055Y7366181D01*
X412946Y7353543D01*
X437362Y7347000D01*
X462639D01*
X487055Y7353543D01*
X508945Y7366181D01*
X526819Y7384055D01*
X539458Y7405946D01*
X546000Y7430362D01*
Y7455639D01*
X539458Y7480055D01*
X526819Y7501945D01*
X508945Y7519819D01*
X487055Y7532458D01*
X462639Y7539000D01*
D02*
G37*
G36*
X1993639Y7782000D02*
X1968362D01*
X1943946Y7775458D01*
X1922055Y7762819D01*
X1904181Y7744946D01*
X1891543Y7723055D01*
X1885000Y7698639D01*
Y7673362D01*
X1891543Y7648946D01*
X1904181Y7627055D01*
X1915195Y7616042D01*
X1910986Y7605882D01*
X1220000D01*
X1202442Y7602389D01*
X1187557Y7592443D01*
X895114Y7300000D01*
X888065D01*
X866013Y7290866D01*
X849134Y7273987D01*
X840000Y7251935D01*
Y7228065D01*
X849134Y7206013D01*
X866013Y7189134D01*
X873480Y7186042D01*
X871459Y7175882D01*
X628971D01*
X623987Y7180865D01*
X601935Y7190000D01*
X578065D01*
X556013Y7180865D01*
X546000Y7185221D01*
Y7201639D01*
X539458Y7226055D01*
X526819Y7247945D01*
X508945Y7265819D01*
X487055Y7278458D01*
X462639Y7285000D01*
X437362D01*
X412946Y7278458D01*
X391055Y7265819D01*
X373181Y7247945D01*
X360543Y7226055D01*
X354000Y7201639D01*
Y7176362D01*
X360543Y7151946D01*
X373181Y7130055D01*
X391055Y7112181D01*
X412946Y7099543D01*
X437362Y7093000D01*
X462639D01*
X487055Y7099543D01*
X508945Y7112181D01*
X519840Y7123076D01*
X530000Y7118867D01*
Y7118065D01*
X539135Y7096013D01*
X556013Y7079134D01*
X578065Y7070000D01*
X601935D01*
X623987Y7079134D01*
X628971Y7084118D01*
X714075D01*
X717963Y7074732D01*
X673232Y7030000D01*
X658065D01*
X636013Y7020866D01*
X619134Y7003987D01*
X610000Y6981935D01*
Y6958065D01*
X619134Y6936013D01*
X636013Y6919134D01*
X658065Y6910000D01*
X681935D01*
X703987Y6919134D01*
X720865Y6936013D01*
X729243Y6956239D01*
X787123Y7014119D01*
X1924770D01*
X1927492Y7003959D01*
X1922055Y7000819D01*
X1904181Y6982946D01*
X1891543Y6961055D01*
X1885000Y6936639D01*
Y6911362D01*
X1891543Y6886946D01*
X1904181Y6865055D01*
X1922055Y6847181D01*
X1924629Y6845695D01*
X1921999Y6835881D01*
X1859005D01*
X1822443Y6872443D01*
X1807558Y6882389D01*
X1790000Y6885882D01*
X788971D01*
X783987Y6890866D01*
X761935Y6900000D01*
X738065D01*
X716013Y6890866D01*
X699134Y6873987D01*
X690000Y6851935D01*
Y6828065D01*
X699134Y6806013D01*
X716013Y6789135D01*
X738065Y6780000D01*
X761935D01*
X767428Y6782276D01*
X775205Y6774500D01*
X770000Y6761935D01*
Y6738065D01*
X779135Y6716013D01*
X796013Y6699134D01*
X818065Y6690000D01*
X841935D01*
X863987Y6699134D01*
X868971Y6704118D01*
X1660995D01*
X1838717Y6526397D01*
X1853602Y6516451D01*
X1871160Y6512959D01*
X1936617D01*
X1939340Y6502799D01*
X1922055Y6492819D01*
X1904181Y6474946D01*
X1891543Y6453055D01*
X1885000Y6428639D01*
Y6403362D01*
X1891543Y6378946D01*
X1904181Y6357055D01*
X1922055Y6339181D01*
X1943946Y6326543D01*
X1968362Y6320001D01*
X1993639D01*
X2018055Y6326543D01*
X2039945Y6339181D01*
X2057819Y6357055D01*
X2070458Y6378946D01*
X2077000Y6403362D01*
Y6428639D01*
X2070458Y6453055D01*
X2057819Y6474946D01*
X2039945Y6492819D01*
X2022661Y6502799D01*
X2025383Y6512959D01*
X2548840D01*
X2566398Y6516451D01*
X2581283Y6526397D01*
X2743005Y6688118D01*
X2951029D01*
X2956013Y6683134D01*
X2978065Y6674000D01*
X3001935D01*
X3023987Y6683134D01*
X3040866Y6700013D01*
X3050000Y6722065D01*
Y6745935D01*
X3040866Y6767987D01*
X3023987Y6784866D01*
X3006760Y6792001D01*
Y6802999D01*
X3023987Y6810134D01*
X3040866Y6827013D01*
X3050000Y6849065D01*
Y6872935D01*
X3040866Y6894987D01*
X3023987Y6911866D01*
X3006760Y6919001D01*
Y6929999D01*
X3023987Y6937134D01*
X3040866Y6954013D01*
X3050000Y6976065D01*
Y6999935D01*
X3040866Y7021987D01*
X3023987Y7038866D01*
X3006760Y7046001D01*
Y7056999D01*
X3023987Y7064134D01*
X3040866Y7081013D01*
X3050000Y7103065D01*
Y7126935D01*
X3040866Y7148987D01*
X3023987Y7165866D01*
X3006760Y7173001D01*
Y7183999D01*
X3023987Y7191134D01*
X3040866Y7208013D01*
X3050000Y7230065D01*
Y7253935D01*
X3040866Y7275987D01*
X3023987Y7292866D01*
X3001935Y7302000D01*
X2978065D01*
X2956013Y7292866D01*
X2951029Y7287882D01*
X2507005D01*
X2202443Y7592443D01*
X2187558Y7602389D01*
X2170000Y7605882D01*
X2051014D01*
X2046806Y7616042D01*
X2057819Y7627055D01*
X2070458Y7648946D01*
X2077000Y7673362D01*
Y7698639D01*
X2070458Y7723055D01*
X2057819Y7744946D01*
X2039945Y7762819D01*
X2018055Y7775458D01*
X1993639Y7782000D01*
D02*
G37*
G36*
X462639Y7031000D02*
X437362D01*
X412946Y7024458D01*
X391055Y7011819D01*
X373181Y6993945D01*
X360543Y6972055D01*
X354000Y6947639D01*
Y6922362D01*
X360543Y6897946D01*
X373181Y6876055D01*
X391055Y6858181D01*
X412946Y6845543D01*
X437362Y6839000D01*
X462639D01*
X487055Y6845543D01*
X508945Y6858181D01*
X526819Y6876055D01*
X539458Y6897946D01*
X546000Y6922362D01*
Y6947639D01*
X539458Y6972055D01*
X526819Y6993945D01*
X508945Y7011819D01*
X487055Y7024458D01*
X462639Y7031000D01*
D02*
G37*
G36*
Y6777000D02*
X437362D01*
X412946Y6770458D01*
X391055Y6757819D01*
X373181Y6739945D01*
X360543Y6718055D01*
X354000Y6693639D01*
Y6668362D01*
X360543Y6643946D01*
X373181Y6622055D01*
X391055Y6604181D01*
X412946Y6591543D01*
X437362Y6585000D01*
X462639D01*
X487055Y6591543D01*
X508945Y6604181D01*
X526819Y6622055D01*
X539458Y6643946D01*
X546000Y6668362D01*
Y6693639D01*
X539458Y6718055D01*
X526819Y6739945D01*
X508945Y6757819D01*
X487055Y6770458D01*
X462639Y6777000D01*
D02*
G37*
G36*
Y6523000D02*
X437362D01*
X412946Y6516458D01*
X391055Y6503819D01*
X373181Y6485945D01*
X360543Y6464055D01*
X354000Y6439639D01*
Y6414362D01*
X360543Y6389946D01*
X373181Y6368055D01*
X391055Y6350181D01*
X412946Y6337543D01*
X437362Y6331000D01*
X462639D01*
X487055Y6337543D01*
X508945Y6350181D01*
X526819Y6368055D01*
X539458Y6389946D01*
X546000Y6414362D01*
Y6439639D01*
X539458Y6464055D01*
X526819Y6485945D01*
X508945Y6503819D01*
X487055Y6516458D01*
X462639Y6523000D01*
D02*
G37*
G36*
X1993639Y6258000D02*
X1968362D01*
X1943946Y6251458D01*
X1922055Y6238819D01*
X1904181Y6220946D01*
X1891543Y6199055D01*
X1885000Y6174639D01*
Y6149362D01*
X1891543Y6124946D01*
X1904181Y6103055D01*
X1911968Y6095268D01*
X1908080Y6085882D01*
X1590000D01*
X1572442Y6082389D01*
X1557557Y6072443D01*
X1255114Y5770000D01*
X1248065D01*
X1226013Y5760866D01*
X1209134Y5743987D01*
X1200000Y5721935D01*
Y5698065D01*
X1209134Y5676013D01*
X1214283Y5670865D01*
X1210693Y5660086D01*
X1205510Y5659342D01*
X1203987Y5660865D01*
X1181935Y5670000D01*
X1158065D01*
X1136013Y5660865D01*
X1119134Y5643987D01*
X1110000Y5621935D01*
Y5598065D01*
X1117275Y5580501D01*
X1109499Y5572724D01*
X1091935Y5580000D01*
X1068065D01*
X1046013Y5570865D01*
X1029135Y5553987D01*
X1020000Y5531935D01*
Y5508065D01*
X1029135Y5486013D01*
X1046013Y5469134D01*
X1068065Y5460000D01*
X1091935D01*
X1113987Y5469134D01*
X1118971Y5474118D01*
X1292597D01*
X1296805Y5463958D01*
X1286834Y5453987D01*
X1277700Y5431935D01*
Y5408065D01*
X1286834Y5386013D01*
X1303713Y5369135D01*
X1325765Y5360000D01*
X1349635D01*
X1369862Y5368378D01*
X1890087D01*
X1891543Y5362946D01*
X1904181Y5341055D01*
X1909968Y5335268D01*
X1906080Y5325882D01*
X1069005D01*
X1060000Y5334886D01*
Y5341935D01*
X1050866Y5363987D01*
X1033987Y5380866D01*
X1011935Y5390000D01*
X988065D01*
X966013Y5380866D01*
X949134Y5363987D01*
X940000Y5341935D01*
Y5318065D01*
X949134Y5296013D01*
X966013Y5279134D01*
X988065Y5270000D01*
X995114D01*
X1017557Y5247557D01*
X1032442Y5237611D01*
X1050000Y5234119D01*
X1921998D01*
X1924627Y5224305D01*
X1922055Y5222819D01*
X1904181Y5204946D01*
X1891543Y5183055D01*
X1885000Y5158639D01*
Y5133362D01*
X1891543Y5108946D01*
X1904181Y5087055D01*
X1922055Y5069181D01*
X1943946Y5056543D01*
X1968362Y5050001D01*
X1993639D01*
X2018055Y5056543D01*
X2039945Y5069181D01*
X2057819Y5087055D01*
X2070458Y5108946D01*
X2077000Y5133362D01*
Y5158639D01*
X2070458Y5183055D01*
X2057819Y5204946D01*
X2039945Y5222819D01*
X2037373Y5224305D01*
X2040002Y5234119D01*
X2927382D01*
X2944940Y5237611D01*
X2959825Y5247557D01*
X2991768Y5279500D01*
X3006935D01*
X3028987Y5288635D01*
X3045865Y5305513D01*
X3055000Y5327565D01*
Y5351435D01*
X3045865Y5373487D01*
X3028987Y5390366D01*
X3011759Y5397502D01*
Y5408499D01*
X3028987Y5415635D01*
X3045865Y5432513D01*
X3055000Y5454565D01*
Y5478435D01*
X3045865Y5500487D01*
X3028987Y5517366D01*
X3011759Y5524502D01*
Y5535499D01*
X3028987Y5542635D01*
X3045865Y5559513D01*
X3055000Y5581565D01*
Y5605435D01*
X3045865Y5627487D01*
X3028987Y5644366D01*
X3011759Y5651502D01*
Y5662499D01*
X3028987Y5669635D01*
X3045865Y5686513D01*
X3055000Y5708565D01*
Y5732435D01*
X3045865Y5754487D01*
X3028987Y5771366D01*
X3006935Y5780500D01*
X2983065D01*
X2961013Y5771366D01*
X2956029Y5766382D01*
X2598505D01*
X2292443Y6072443D01*
X2277558Y6082389D01*
X2260000Y6085882D01*
X2053920D01*
X2050032Y6095268D01*
X2057819Y6103055D01*
X2067671Y6120119D01*
X2465029D01*
X2466013Y6119135D01*
X2488065Y6110000D01*
X2511935D01*
X2533987Y6119135D01*
X2550866Y6136013D01*
X2560000Y6158065D01*
Y6181935D01*
X2550866Y6203987D01*
X2533987Y6220866D01*
X2511935Y6230000D01*
X2488065D01*
X2466013Y6220866D01*
X2457029Y6211882D01*
X2063052D01*
X2057819Y6220946D01*
X2039945Y6238819D01*
X2018055Y6251458D01*
X1993639Y6258000D01*
D02*
G37*
G36*
X462639Y6269000D02*
X437362D01*
X412946Y6262458D01*
X391055Y6249819D01*
X373181Y6231945D01*
X360543Y6210055D01*
X354000Y6185639D01*
Y6160362D01*
X360543Y6135946D01*
X373181Y6114055D01*
X391055Y6096181D01*
X412946Y6083543D01*
X437362Y6077000D01*
X462639D01*
X487055Y6083543D01*
X508945Y6096181D01*
X526819Y6114055D01*
X539458Y6135946D01*
X546000Y6160362D01*
Y6185639D01*
X539458Y6210055D01*
X526819Y6231945D01*
X508945Y6249819D01*
X487055Y6262458D01*
X462639Y6269000D01*
D02*
G37*
G36*
Y6015000D02*
X437362D01*
X412946Y6008458D01*
X391055Y5995819D01*
X373181Y5977945D01*
X360543Y5956055D01*
X354000Y5931639D01*
Y5906362D01*
X360543Y5881946D01*
X373181Y5860055D01*
X391055Y5842181D01*
X412946Y5829543D01*
X437362Y5823000D01*
X462639D01*
X487055Y5829543D01*
X508945Y5842181D01*
X526819Y5860055D01*
X539458Y5881946D01*
X546000Y5906362D01*
Y5931639D01*
X539458Y5956055D01*
X526819Y5977945D01*
X508945Y5995819D01*
X487055Y6008458D01*
X462639Y6015000D01*
D02*
G37*
G36*
Y5761000D02*
X437362D01*
X412946Y5754458D01*
X391055Y5741819D01*
X373181Y5723945D01*
X360543Y5702055D01*
X354000Y5677639D01*
Y5652362D01*
X360543Y5627946D01*
X373181Y5606055D01*
X391055Y5588181D01*
X412946Y5575543D01*
X437362Y5569000D01*
X462639D01*
X487055Y5575543D01*
X508945Y5588181D01*
X526819Y5606055D01*
X539458Y5627946D01*
X546000Y5652362D01*
Y5677639D01*
X539458Y5702055D01*
X526819Y5723945D01*
X508945Y5741819D01*
X487055Y5754458D01*
X462639Y5761000D01*
D02*
G37*
G36*
Y5507000D02*
X437362D01*
X412946Y5500458D01*
X391055Y5487819D01*
X373181Y5469945D01*
X360543Y5448055D01*
X354000Y5423639D01*
Y5398362D01*
X360543Y5373946D01*
X373181Y5352055D01*
X391055Y5334181D01*
X412946Y5321543D01*
X437362Y5315000D01*
X462639D01*
X487055Y5321543D01*
X508945Y5334181D01*
X526819Y5352055D01*
X539458Y5373946D01*
X546000Y5398362D01*
Y5423639D01*
X539458Y5448055D01*
X526819Y5469945D01*
X508945Y5487819D01*
X487055Y5500458D01*
X462639Y5507000D01*
D02*
G37*
G36*
Y5253000D02*
X437362D01*
X412946Y5246458D01*
X391055Y5233819D01*
X373181Y5215945D01*
X360543Y5194055D01*
X354000Y5169639D01*
Y5144362D01*
X360543Y5119946D01*
X373181Y5098055D01*
X391055Y5080181D01*
X412946Y5067543D01*
X437362Y5061000D01*
X462639D01*
X487055Y5067543D01*
X508945Y5080181D01*
X526819Y5098055D01*
X539458Y5119946D01*
X546000Y5144362D01*
Y5169639D01*
X539458Y5194055D01*
X526819Y5215945D01*
X508945Y5233819D01*
X487055Y5246458D01*
X462639Y5253000D01*
D02*
G37*
G36*
Y4999000D02*
X437362D01*
X412946Y4992458D01*
X391055Y4979819D01*
X373181Y4961945D01*
X360543Y4940055D01*
X354000Y4915639D01*
Y4890362D01*
X360543Y4865946D01*
X373181Y4844055D01*
X391055Y4826181D01*
X412946Y4813543D01*
X437362Y4807000D01*
X462639D01*
X487055Y4813543D01*
X508945Y4826181D01*
X526819Y4844055D01*
X539458Y4865946D01*
X546000Y4890362D01*
Y4915639D01*
X539458Y4940055D01*
X526819Y4961945D01*
X508945Y4979819D01*
X487055Y4992458D01*
X462639Y4999000D01*
D02*
G37*
G36*
Y4491000D02*
X437362D01*
X412946Y4484458D01*
X391055Y4471819D01*
X373181Y4453945D01*
X360543Y4432055D01*
X354000Y4407639D01*
Y4382362D01*
X360543Y4357946D01*
X373181Y4336055D01*
X391055Y4318181D01*
X412946Y4305543D01*
X437362Y4299000D01*
X462639D01*
X487055Y4305543D01*
X508945Y4318181D01*
X526819Y4336055D01*
X539458Y4357946D01*
X546000Y4382362D01*
Y4407639D01*
X539458Y4432055D01*
X526819Y4453945D01*
X508945Y4471819D01*
X487055Y4484458D01*
X462639Y4491000D01*
D02*
G37*
G36*
Y3983000D02*
X437362D01*
X412946Y3976458D01*
X391055Y3963819D01*
X373181Y3945945D01*
X360543Y3924055D01*
X354000Y3899639D01*
Y3874362D01*
X360543Y3849946D01*
X373181Y3828055D01*
X391055Y3810181D01*
X412946Y3797543D01*
X437362Y3791000D01*
X462639D01*
X487055Y3797543D01*
X508945Y3810181D01*
X526819Y3828055D01*
X539458Y3849946D01*
X546000Y3874362D01*
Y3899639D01*
X539458Y3924055D01*
X526819Y3945945D01*
X508945Y3963819D01*
X487055Y3976458D01*
X462639Y3983000D01*
D02*
G37*
G36*
X795000Y3506000D02*
X645000D01*
Y3314000D01*
X795000D01*
Y3506000D01*
D02*
G37*
G36*
X585000Y3506000D02*
X435000D01*
Y3314000D01*
X585000D01*
Y3506000D01*
D02*
G37*
G36*
X851935Y2832500D02*
X828065D01*
X809959Y2825000D01*
X744000D01*
Y2675000D01*
X936000D01*
Y2825000D01*
X870041D01*
X851935Y2832500D01*
D02*
G37*
G36*
X1265000Y2356000D02*
X1115000D01*
Y2164000D01*
X1265000D01*
Y2356000D01*
D02*
G37*
G36*
X1786000Y2145000D02*
X1594000D01*
Y1995000D01*
X1786000D01*
Y2145000D01*
D02*
G37*
G36*
X2222500Y2156029D02*
X2157500D01*
X2137016Y2151954D01*
X2119650Y2140351D01*
X2108046Y2122985D01*
X2103972Y2102500D01*
Y2037500D01*
X2108046Y2017016D01*
X2119650Y1999650D01*
X2137016Y1988047D01*
X2157500Y1983972D01*
X2222500D01*
X2242984Y1988047D01*
X2260350Y1999650D01*
X2271954Y2017016D01*
X2276028Y2037500D01*
Y2102500D01*
X2271954Y2122985D01*
X2260350Y2140351D01*
X2242984Y2151954D01*
X2222500Y2156029D01*
D02*
G37*
G36*
X1265000Y1876000D02*
X1115000D01*
Y1684000D01*
X1265000D01*
Y1876000D01*
D02*
G37*
G36*
X420000Y1500000D02*
X300000D01*
Y1431935D01*
Y1340000D01*
X420000D01*
Y1500000D01*
D02*
G37*
G36*
X1420644Y1330850D02*
X1399356D01*
X1378793Y1325340D01*
X1360357Y1314696D01*
X1345304Y1299643D01*
X1334660Y1281207D01*
X1329150Y1260644D01*
Y1239356D01*
X1334660Y1218793D01*
X1345304Y1200357D01*
X1360357Y1185304D01*
X1378793Y1174660D01*
X1399356Y1169150D01*
X1420644D01*
X1441207Y1174660D01*
X1459643Y1185304D01*
X1474696Y1200357D01*
X1485340Y1218793D01*
X1490850Y1239356D01*
Y1260644D01*
X1485340Y1281207D01*
X1474696Y1299643D01*
X1459643Y1314696D01*
X1441207Y1325340D01*
X1420644Y1330850D01*
D02*
G37*
G36*
X910644D02*
X889356D01*
X868793Y1325340D01*
X850357Y1314696D01*
X835304Y1299643D01*
X824660Y1281207D01*
X819150Y1260644D01*
Y1239356D01*
X824660Y1218793D01*
X835304Y1200357D01*
X850357Y1185304D01*
X868793Y1174660D01*
X889356Y1169150D01*
X910644D01*
X931207Y1174660D01*
X949643Y1185304D01*
X964696Y1200357D01*
X975340Y1218793D01*
X980850Y1239356D01*
Y1260644D01*
X975340Y1281207D01*
X964696Y1299643D01*
X949643Y1314696D01*
X931207Y1325340D01*
X910644Y1330850D01*
D02*
G37*
G36*
X420000Y1160000D02*
X300000D01*
Y1091935D01*
Y1000000D01*
X420000D01*
Y1160000D01*
D02*
G37*
G36*
X3238580Y1588580D02*
X3061420D01*
Y1411420D01*
X3104119D01*
Y1386000D01*
X3075000D01*
Y1194000D01*
X3104118D01*
Y1166000D01*
X3075000D01*
Y974000D01*
X3225000D01*
Y1166000D01*
X3195881D01*
Y1194000D01*
X3225000D01*
Y1386000D01*
X3195882D01*
Y1411420D01*
X3238580D01*
Y1588580D01*
D02*
G37*
G36*
X1525000Y930906D02*
X1275000D01*
X1247590Y927297D01*
X1222047Y916717D01*
X1200113Y899887D01*
X1183283Y877953D01*
X1172703Y852411D01*
X1169094Y825000D01*
X1172703Y797590D01*
X1183283Y772047D01*
X1200113Y750113D01*
X1222047Y733283D01*
X1247590Y722703D01*
X1275000Y719094D01*
X1525000D01*
X1552410Y722703D01*
X1577953Y733283D01*
X1599887Y750113D01*
X1616717Y772047D01*
X1627297Y797590D01*
X1630906Y825000D01*
X1627297Y852411D01*
X1616717Y877953D01*
X1599887Y899887D01*
X1577953Y916717D01*
X1552410Y927297D01*
X1525000Y930906D01*
D02*
G37*
G36*
X3013988Y706250D02*
X2986012D01*
X2958989Y699009D01*
X2934761Y685021D01*
X2914979Y665239D01*
X2900991Y641011D01*
X2893750Y613988D01*
Y586012D01*
X2900991Y558989D01*
X2914979Y534761D01*
X2934761Y514979D01*
X2958989Y500991D01*
X2974119Y496937D01*
Y456000D01*
X2965000D01*
Y264000D01*
X3115000D01*
Y456000D01*
X3065882D01*
Y515621D01*
X3085021Y534761D01*
X3099009Y558989D01*
X3106250Y586012D01*
Y613988D01*
X3099009Y641011D01*
X3085021Y665239D01*
X3065239Y685021D01*
X3041011Y699009D01*
X3013988Y706250D01*
D02*
G37*
G36*
X530694Y890000D02*
X469306D01*
X408675Y880397D01*
X350292Y861427D01*
X295596Y833558D01*
X245932Y797475D01*
X202525Y754068D01*
X166442Y704404D01*
X138573Y649708D01*
X119603Y591325D01*
X110000Y530694D01*
Y469306D01*
X119603Y408675D01*
X138573Y350292D01*
X166442Y295596D01*
X202525Y245932D01*
X245932Y202525D01*
X295596Y166442D01*
X350292Y138573D01*
X408675Y119603D01*
X469306Y110000D01*
X530694D01*
X591325Y119603D01*
X649708Y138573D01*
X704404Y166442D01*
X754068Y202525D01*
X797475Y245932D01*
X833558Y295596D01*
X861427Y350292D01*
X880397Y408675D01*
X890000Y469306D01*
Y530694D01*
X880397Y591325D01*
X861427Y649708D01*
X833558Y704404D01*
X797475Y754068D01*
X754068Y797475D01*
X704404Y833558D01*
X649708Y861427D01*
X591325Y880397D01*
X530694Y890000D01*
D02*
G37*
%LPD*%
G36*
X2605000Y9514001D02*
X2605000D01*
Y9505999D01*
X2605000D01*
Y9455881D01*
X2310500D01*
X2308173Y9455418D01*
X2303168Y9464782D01*
X2402504Y9564118D01*
X2605000D01*
Y9514001D01*
D02*
G37*
G36*
X1917194Y7503959D02*
X1904181Y7490946D01*
X1891543Y7469055D01*
X1885000Y7444639D01*
Y7419362D01*
X1891543Y7394946D01*
X1904181Y7373055D01*
X1911968Y7365268D01*
X1908080Y7355882D01*
X1810000D01*
X1792442Y7352389D01*
X1777557Y7342443D01*
X1610995Y7175882D01*
X928541D01*
X926520Y7186042D01*
X933987Y7189134D01*
X950866Y7206013D01*
X960000Y7228065D01*
Y7235114D01*
X1239005Y7514119D01*
X1912986D01*
X1917194Y7503959D01*
D02*
G37*
G36*
X2455557Y7209557D02*
X2470442Y7199611D01*
X2488000Y7196118D01*
X2951029D01*
X2956013Y7191134D01*
X2973241Y7183999D01*
Y7173001D01*
X2956013Y7165866D01*
X2951029Y7160882D01*
X2364005D01*
X2182443Y7342443D01*
X2167558Y7352389D01*
X2150000Y7355882D01*
X2053920D01*
X2050032Y7365268D01*
X2057819Y7373055D01*
X2070458Y7394946D01*
X2077000Y7419362D01*
Y7444639D01*
X2070458Y7469055D01*
X2057819Y7490946D01*
X2044806Y7503959D01*
X2049015Y7514119D01*
X2150995D01*
X2455557Y7209557D01*
D02*
G37*
G36*
X1920311Y7261327D02*
X1921194Y7253959D01*
X1904181Y7236946D01*
X1891543Y7215055D01*
X1885000Y7190639D01*
Y7165362D01*
X1891543Y7140946D01*
X1904181Y7119055D01*
X1907968Y7115268D01*
X1904080Y7105882D01*
X1684043D01*
X1680155Y7115268D01*
X1829005Y7264119D01*
X1919563D01*
X1920311Y7261327D01*
D02*
G37*
G36*
X2312557Y7082557D02*
X2327442Y7072611D01*
X2345000Y7069118D01*
X2951029D01*
X2956013Y7064134D01*
X2973241Y7056999D01*
Y7046001D01*
X2956013Y7038866D01*
X2951029Y7033882D01*
X2161005D01*
X2102443Y7092443D01*
X2087558Y7102389D01*
X2070000Y7105882D01*
X2057920D01*
X2054032Y7115268D01*
X2057819Y7119055D01*
X2070458Y7140946D01*
X2077000Y7165362D01*
Y7190639D01*
X2070458Y7215055D01*
X2057819Y7236946D01*
X2040806Y7253959D01*
X2041689Y7261327D01*
X2042437Y7264119D01*
X2130995D01*
X2312557Y7082557D01*
D02*
G37*
G36*
X2109557Y6955557D02*
X2124442Y6945611D01*
X2142000Y6942118D01*
X2951029D01*
X2956013Y6937134D01*
X2973241Y6929999D01*
Y6919001D01*
X2956013Y6911866D01*
X2951029Y6906882D01*
X2161000D01*
X2143442Y6903389D01*
X2128557Y6893443D01*
X2070995Y6835881D01*
X2040001D01*
X2037371Y6845695D01*
X2039945Y6847181D01*
X2057819Y6865055D01*
X2070458Y6886946D01*
X2077000Y6911362D01*
Y6936639D01*
X2070458Y6961055D01*
X2057819Y6982946D01*
X2039945Y7000819D01*
X2034508Y7003959D01*
X2037231Y7014119D01*
X2050995D01*
X2109557Y6955557D01*
D02*
G37*
G36*
X2956013Y6810134D02*
X2973241Y6802999D01*
Y6792001D01*
X2956013Y6784866D01*
X2951029Y6779882D01*
X2724000D01*
X2706442Y6776389D01*
X2691557Y6766443D01*
X2529835Y6604722D01*
X2064985D01*
X2060029Y6614882D01*
X2070458Y6632946D01*
X2077000Y6657362D01*
Y6682639D01*
X2070458Y6707055D01*
X2057819Y6728946D01*
X2052033Y6734732D01*
X2055921Y6744118D01*
X2090000D01*
X2107558Y6747611D01*
X2122443Y6757557D01*
X2180005Y6815118D01*
X2951029D01*
X2956013Y6810134D01*
D02*
G37*
G36*
X1920311Y5991327D02*
X1921194Y5983959D01*
X1904181Y5966946D01*
X1891543Y5945055D01*
X1885000Y5920639D01*
Y5895362D01*
X1891543Y5870946D01*
X1904181Y5849055D01*
X1922055Y5831181D01*
X1939340Y5821202D01*
X1936617Y5811042D01*
X1715161D01*
X1697603Y5807549D01*
X1682718Y5797604D01*
X1540996Y5655882D01*
X1305103D01*
X1300894Y5666042D01*
X1310866Y5676013D01*
X1320000Y5698065D01*
Y5705114D01*
X1609005Y5994119D01*
X1919563D01*
X1920311Y5991327D01*
D02*
G37*
G36*
X2547057Y5688057D02*
X2561942Y5678111D01*
X2579500Y5674619D01*
X2956029D01*
X2961013Y5669635D01*
X2978240Y5662499D01*
Y5651502D01*
X2961013Y5644366D01*
X2956029Y5639382D01*
X2485505D01*
X2327283Y5797604D01*
X2312398Y5807549D01*
X2294840Y5811042D01*
X2025383D01*
X2022661Y5821202D01*
X2039945Y5831181D01*
X2057819Y5849055D01*
X2070458Y5870946D01*
X2077000Y5895362D01*
Y5920639D01*
X2070458Y5945055D01*
X2057819Y5966946D01*
X2040806Y5983959D01*
X2041689Y5991327D01*
X2042437Y5994119D01*
X2240995D01*
X2547057Y5688057D01*
D02*
G37*
G36*
X2418845Y5576269D02*
X2414957Y5566882D01*
X2041734D01*
X2039104Y5576696D01*
X2039945Y5577181D01*
X2057819Y5595055D01*
X2070458Y5616946D01*
X2077000Y5641362D01*
Y5666639D01*
X2070458Y5691055D01*
X2060029Y5709119D01*
X2064985Y5719279D01*
X2275835D01*
X2418845Y5576269D01*
D02*
G37*
G36*
X1901972Y5709119D02*
X1891543Y5691055D01*
X1885000Y5666639D01*
Y5641362D01*
X1891543Y5616946D01*
X1904181Y5595055D01*
X1922055Y5577181D01*
X1924029Y5576041D01*
X1921307Y5565881D01*
X1593258D01*
X1590176Y5576041D01*
X1592444Y5577557D01*
X1734166Y5719279D01*
X1897016D01*
X1901972Y5709119D01*
D02*
G37*
G36*
X2935756Y5452739D02*
X2944134Y5432513D01*
X2961013Y5415635D01*
X2978240Y5408499D01*
Y5397502D01*
X2961013Y5390366D01*
X2944134Y5373487D01*
X2935756Y5353261D01*
X2908377Y5325882D01*
X2055920D01*
X2052032Y5335268D01*
X2057819Y5341055D01*
X2070458Y5362946D01*
X2077000Y5387362D01*
Y5412639D01*
X2070458Y5437055D01*
X2057819Y5458946D01*
X2051033Y5465732D01*
X2054921Y5475119D01*
X2913377D01*
X2935756Y5452739D01*
D02*
G37*
%LPC*%
G36*
X8698289Y9401001D02*
X8674420D01*
X8652368Y9391866D01*
X8635489Y9374988D01*
X8626355Y9352936D01*
Y9329066D01*
X8635489Y9307014D01*
X8652368Y9290135D01*
X8674420Y9281001D01*
X8698289D01*
X8720342Y9290135D01*
X8737220Y9307014D01*
X8746355Y9329066D01*
Y9352936D01*
X8737220Y9374988D01*
X8720342Y9391866D01*
X8698289Y9401001D01*
D02*
G37*
G36*
X7795000Y9436000D02*
X7645000D01*
Y9244000D01*
X7795000D01*
Y9308195D01*
X7803645Y9329066D01*
Y9352936D01*
X7795000Y9373806D01*
Y9436000D01*
D02*
G37*
G36*
X8605000Y9306000D02*
X8455000D01*
Y9114001D01*
X8605000D01*
Y9306000D01*
D02*
G37*
G36*
X9011935Y9030000D02*
X8988065D01*
X8966013Y9020866D01*
X8949135Y9003987D01*
X8947767Y9000686D01*
X8730522D01*
X8720342Y9010866D01*
X8698289Y9020001D01*
X8674420D01*
X8652368Y9010866D01*
X8635489Y8993988D01*
X8626355Y8971936D01*
Y8948066D01*
X8635489Y8926014D01*
X8652368Y8909135D01*
X8669595Y8901999D01*
Y8891002D01*
X8652368Y8883866D01*
X8635489Y8866988D01*
X8626355Y8844936D01*
Y8821066D01*
X8635489Y8799014D01*
X8652368Y8782135D01*
X8669595Y8774999D01*
Y8764002D01*
X8652368Y8756866D01*
X8635489Y8739988D01*
X8626355Y8717936D01*
Y8694066D01*
X8635489Y8672014D01*
X8652368Y8655135D01*
X8669595Y8647999D01*
Y8637002D01*
X8652368Y8629866D01*
X8635489Y8612988D01*
X8626355Y8590936D01*
Y8567066D01*
X8635489Y8545014D01*
X8652368Y8528135D01*
X8669595Y8520999D01*
Y8510002D01*
X8652368Y8502866D01*
X8635489Y8485988D01*
X8626355Y8463936D01*
Y8440066D01*
X8635489Y8418014D01*
X8652368Y8401135D01*
X8669595Y8393999D01*
Y8383002D01*
X8652368Y8375866D01*
X8635489Y8358988D01*
X8626355Y8336936D01*
Y8313066D01*
X8635489Y8291014D01*
X8652368Y8274135D01*
X8669595Y8266999D01*
Y8256002D01*
X8652368Y8248866D01*
X8635489Y8231988D01*
X8626355Y8209936D01*
Y8186066D01*
X8635489Y8164014D01*
X8652368Y8147135D01*
X8669595Y8139999D01*
Y8129002D01*
X8652368Y8121866D01*
X8635489Y8104988D01*
X8626355Y8082936D01*
Y8059066D01*
X8635489Y8037014D01*
X8652368Y8020135D01*
X8669595Y8012999D01*
Y8002002D01*
X8652368Y7994866D01*
X8635489Y7977988D01*
X8626355Y7955936D01*
Y7932066D01*
X8635489Y7910014D01*
X8652368Y7893135D01*
X8669595Y7885999D01*
Y7875002D01*
X8652368Y7867866D01*
X8635489Y7850988D01*
X8626355Y7828936D01*
Y7805066D01*
X8635489Y7783014D01*
X8652368Y7766135D01*
X8669595Y7758999D01*
Y7748002D01*
X8652368Y7740866D01*
X8635489Y7723988D01*
X8626355Y7701936D01*
Y7678066D01*
X8635489Y7656014D01*
X8652368Y7639135D01*
X8674420Y7630001D01*
X8698289D01*
X8720342Y7639135D01*
X8737220Y7656014D01*
X8746355Y7678066D01*
Y7701936D01*
X8737220Y7723988D01*
X8720342Y7740866D01*
X8703114Y7748002D01*
Y7758999D01*
X8720342Y7766135D01*
X8737220Y7783014D01*
X8746355Y7805066D01*
Y7828936D01*
X8737220Y7850988D01*
X8720342Y7867866D01*
X8703114Y7875002D01*
Y7885999D01*
X8720342Y7893135D01*
X8737220Y7910014D01*
X8746355Y7932066D01*
Y7955936D01*
X8737220Y7977988D01*
X8720342Y7994866D01*
X8703114Y8002002D01*
Y8012999D01*
X8720342Y8020135D01*
X8737220Y8037014D01*
X8746355Y8059066D01*
Y8082936D01*
X8737220Y8104988D01*
X8720342Y8121866D01*
X8703114Y8129002D01*
Y8139999D01*
X8720342Y8147135D01*
X8736521Y8163315D01*
X9371833D01*
X9386013Y8149135D01*
X9408065Y8140000D01*
X9431935D01*
X9453987Y8149135D01*
X9470865Y8166013D01*
X9480000Y8188065D01*
Y8211935D01*
X9470865Y8233987D01*
X9453987Y8250866D01*
X9431935Y8260000D01*
X9408065D01*
X9386013Y8250866D01*
X9369833Y8234686D01*
X8734522D01*
X8720342Y8248866D01*
X8703114Y8256002D01*
Y8266999D01*
X8720342Y8274135D01*
X8733021Y8286815D01*
X9288802D01*
X9289135Y8286013D01*
X9306013Y8269135D01*
X9328065Y8260000D01*
X9351935D01*
X9373987Y8269135D01*
X9390866Y8286013D01*
X9400000Y8308065D01*
Y8331935D01*
X9390866Y8353987D01*
X9373987Y8370866D01*
X9351935Y8380000D01*
X9328065D01*
X9306013Y8370866D01*
X9293333Y8358186D01*
X8737553D01*
X8737220Y8358988D01*
X8720342Y8375866D01*
X8703114Y8383002D01*
Y8393999D01*
X8720342Y8401135D01*
X8734521Y8415315D01*
X9219833D01*
X9236013Y8399135D01*
X9258065Y8390000D01*
X9281935D01*
X9303987Y8399135D01*
X9320866Y8416013D01*
X9330000Y8438065D01*
Y8461935D01*
X9320866Y8483987D01*
X9303987Y8500866D01*
X9281935Y8510000D01*
X9258065D01*
X9236013Y8500866D01*
X9221833Y8486686D01*
X8736522D01*
X8720342Y8502866D01*
X8703114Y8510002D01*
Y8520999D01*
X8720342Y8528135D01*
X8737220Y8545014D01*
X8738795Y8548815D01*
X9156332D01*
X9166013Y8539135D01*
X9188065Y8530000D01*
X9211935D01*
X9233987Y8539135D01*
X9250865Y8556013D01*
X9260000Y8578065D01*
Y8601935D01*
X9250865Y8623987D01*
X9233987Y8640866D01*
X9211935Y8650000D01*
X9188065D01*
X9166013Y8640866D01*
X9149134Y8623987D01*
X9147560Y8620186D01*
X8730022D01*
X8720342Y8629866D01*
X8703114Y8637002D01*
Y8647999D01*
X8720342Y8655135D01*
X8737220Y8672014D01*
X8737345Y8672315D01*
X9092833D01*
X9106013Y8659135D01*
X9128065Y8650000D01*
X9151935D01*
X9173987Y8659135D01*
X9190866Y8676013D01*
X9200000Y8698065D01*
Y8721935D01*
X9190866Y8743987D01*
X9173987Y8760866D01*
X9151935Y8770000D01*
X9128065D01*
X9106013Y8760866D01*
X9089134Y8743987D01*
X9089010Y8743686D01*
X8733522D01*
X8720342Y8756866D01*
X8703114Y8764002D01*
Y8774999D01*
X8720342Y8782135D01*
X8737220Y8799014D01*
X8737966Y8800815D01*
X9024332D01*
X9036013Y8789135D01*
X9058065Y8780000D01*
X9081935D01*
X9103987Y8789135D01*
X9120865Y8806013D01*
X9130000Y8828065D01*
Y8851935D01*
X9120865Y8873987D01*
X9103987Y8890866D01*
X9081935Y8900000D01*
X9058065D01*
X9036013Y8890866D01*
X9019134Y8873987D01*
X9018388Y8872186D01*
X8732022D01*
X8720342Y8883866D01*
X8703114Y8891002D01*
Y8901999D01*
X8720342Y8909135D01*
X8737220Y8926014D01*
X8738588Y8929315D01*
X8955833D01*
X8966013Y8919135D01*
X8988065Y8910000D01*
X9011935D01*
X9033987Y8919135D01*
X9050866Y8936013D01*
X9060000Y8958065D01*
Y8981935D01*
X9050866Y9003987D01*
X9033987Y9020866D01*
X9011935Y9030000D01*
D02*
G37*
G36*
X7991935Y8900000D02*
X7968065D01*
X7946013Y8890866D01*
X7929135Y8873987D01*
X7927767Y8870686D01*
X7784167D01*
X7773987Y8880866D01*
X7751935Y8890000D01*
X7728065D01*
X7706013Y8880866D01*
X7689134Y8863987D01*
X7680000Y8841935D01*
Y8818065D01*
X7689134Y8796013D01*
X7706013Y8779135D01*
X7719791Y8773428D01*
Y8762431D01*
X7716013Y8760866D01*
X7699134Y8743987D01*
X7690000Y8721935D01*
Y8698065D01*
X7699134Y8676013D01*
X7716013Y8659135D01*
X7738065Y8650000D01*
X7761935D01*
X7783987Y8659135D01*
X7799167Y8674314D01*
X8000833D01*
X8016013Y8659135D01*
X8038065Y8650000D01*
X8061935D01*
X8083987Y8659135D01*
X8100865Y8676013D01*
X8110000Y8698065D01*
Y8721935D01*
X8100865Y8743987D01*
X8083987Y8760866D01*
X8061935Y8770000D01*
X8038065D01*
X8016013Y8760866D01*
X8000833Y8745686D01*
X7799167D01*
X7783987Y8760866D01*
X7770209Y8766573D01*
Y8777570D01*
X7773987Y8779135D01*
X7790866Y8796013D01*
X7792233Y8799314D01*
X7935833D01*
X7946013Y8789135D01*
X7968065Y8780000D01*
X7991935D01*
X8013987Y8789135D01*
X8030866Y8806013D01*
X8040000Y8828065D01*
Y8851935D01*
X8030866Y8873987D01*
X8013987Y8890866D01*
X7991935Y8900000D01*
D02*
G37*
G36*
X8131935Y8630000D02*
X8108065D01*
X8086013Y8620865D01*
X8070833Y8605686D01*
X7789167D01*
X7773987Y8620865D01*
X7751935Y8630000D01*
X7728065D01*
X7706013Y8620865D01*
X7689134Y8603987D01*
X7680000Y8581935D01*
Y8558065D01*
X7689134Y8536013D01*
X7706013Y8519134D01*
X7715801Y8515080D01*
Y8504920D01*
X7706013Y8500866D01*
X7689134Y8483987D01*
X7680000Y8461935D01*
Y8438065D01*
X7689134Y8416013D01*
X7706013Y8399135D01*
X7719791Y8393428D01*
Y8382431D01*
X7716013Y8380866D01*
X7699134Y8363987D01*
X7690000Y8341935D01*
Y8318065D01*
X7699134Y8296013D01*
X7716013Y8279135D01*
X7724791Y8275499D01*
Y8264501D01*
X7716013Y8260866D01*
X7699134Y8243987D01*
X7690000Y8221935D01*
Y8198065D01*
X7699134Y8176013D01*
X7716013Y8159135D01*
X7738065Y8150000D01*
X7761935D01*
X7783987Y8159135D01*
X7794167Y8169314D01*
X8287767D01*
X8289135Y8166013D01*
X8306013Y8149135D01*
X8328065Y8140000D01*
X8351935D01*
X8373987Y8149135D01*
X8390866Y8166013D01*
X8400000Y8188065D01*
Y8211935D01*
X8390866Y8233987D01*
X8373987Y8250866D01*
X8351935Y8260000D01*
X8328065D01*
X8306013Y8250866D01*
X8295833Y8240686D01*
X7802233D01*
X7800866Y8243987D01*
X7783987Y8260866D01*
X7775209Y8264501D01*
Y8275499D01*
X7783987Y8279135D01*
X7794167Y8289314D01*
X8207767D01*
X8209134Y8286013D01*
X8226013Y8269135D01*
X8248065Y8260000D01*
X8271935D01*
X8293987Y8269135D01*
X8310866Y8286013D01*
X8320000Y8308065D01*
Y8331935D01*
X8310866Y8353987D01*
X8293987Y8370866D01*
X8271935Y8380000D01*
X8248065D01*
X8226013Y8370866D01*
X8215833Y8360686D01*
X7802233D01*
X7800866Y8363987D01*
X7783987Y8380866D01*
X7770209Y8386573D01*
Y8397570D01*
X7773987Y8399135D01*
X7789167Y8414314D01*
X8140833D01*
X8156013Y8399135D01*
X8178065Y8390000D01*
X8201935D01*
X8223987Y8399135D01*
X8240865Y8416013D01*
X8250000Y8438065D01*
Y8461935D01*
X8240865Y8483987D01*
X8223987Y8500866D01*
X8201935Y8510000D01*
X8178065D01*
X8156013Y8500866D01*
X8140833Y8485686D01*
X7789167D01*
X7773987Y8500866D01*
X7764199Y8504920D01*
Y8515080D01*
X7773987Y8519134D01*
X7789167Y8534314D01*
X8070833D01*
X8086013Y8519134D01*
X8108065Y8510000D01*
X8131935D01*
X8153987Y8519134D01*
X8170866Y8536013D01*
X8180000Y8558065D01*
Y8581935D01*
X8170866Y8603987D01*
X8153987Y8620865D01*
X8131935Y8630000D01*
D02*
G37*
G36*
X6936000Y8395000D02*
X6744000D01*
Y8365881D01*
X6389831D01*
X6384847Y8370865D01*
X6362794Y8380000D01*
X6338925D01*
X6316873Y8370865D01*
X6309875Y8363868D01*
X6302442Y8362389D01*
X6287557Y8352443D01*
X6277611Y8337558D01*
X6274119Y8320000D01*
X6277611Y8302442D01*
X6287557Y8287557D01*
X6302442Y8277611D01*
X6309874Y8276133D01*
X6316873Y8269134D01*
X6338925Y8260000D01*
X6362794D01*
X6384847Y8269134D01*
X6389831Y8274118D01*
X6744000D01*
Y8245000D01*
X6936000D01*
Y8395000D01*
D02*
G37*
G36*
X6035000Y8556000D02*
X5885000D01*
Y8364000D01*
X6035000D01*
Y8556000D01*
D02*
G37*
G36*
X5115435Y8266500D02*
X5091565D01*
X5069513Y8257366D01*
X5052635Y8240487D01*
X5043500Y8218435D01*
Y8194565D01*
X5052635Y8172513D01*
X5069513Y8155634D01*
X5091565Y8146500D01*
X5115435D01*
X5137487Y8155634D01*
X5154366Y8172513D01*
X5163500Y8194565D01*
Y8218435D01*
X5154366Y8240487D01*
X5137487Y8257366D01*
X5115435Y8266500D01*
D02*
G37*
G36*
X8421935Y8120000D02*
X8398065D01*
X8376013Y8110865D01*
X8360833Y8095686D01*
X7799167D01*
X7783987Y8110865D01*
X7761935Y8120000D01*
X7738065D01*
X7716013Y8110865D01*
X7699134Y8093987D01*
X7690000Y8071935D01*
Y8048065D01*
X7699134Y8026013D01*
X7716013Y8009134D01*
X7738065Y8000000D01*
X7761935D01*
X7783987Y8009134D01*
X7799167Y8024314D01*
X8360833D01*
X8376013Y8009134D01*
X8398065Y8000000D01*
X8421935D01*
X8443987Y8009134D01*
X8460865Y8026013D01*
X8470000Y8048065D01*
Y8071935D01*
X8460865Y8093987D01*
X8443987Y8110865D01*
X8421935Y8120000D01*
D02*
G37*
G36*
X3961935Y8693000D02*
X3938066D01*
X3916013Y8683866D01*
X3899135Y8666987D01*
X3890000Y8644935D01*
Y8621065D01*
X3899135Y8599013D01*
X3916013Y8582134D01*
X3933241Y8574999D01*
Y8564001D01*
X3916013Y8556866D01*
X3899135Y8539987D01*
X3890000Y8517935D01*
Y8494065D01*
X3899135Y8472013D01*
X3916013Y8455134D01*
X3933241Y8447999D01*
Y8437001D01*
X3916013Y8429866D01*
X3899135Y8412987D01*
X3890000Y8390935D01*
Y8367065D01*
X3899135Y8345013D01*
X3916013Y8328134D01*
X3933241Y8320999D01*
Y8310001D01*
X3916013Y8302866D01*
X3899135Y8285987D01*
X3890000Y8263935D01*
Y8240065D01*
X3899135Y8218013D01*
X3916013Y8201134D01*
X3933241Y8193999D01*
Y8183001D01*
X3916013Y8175866D01*
X3899135Y8158987D01*
X3890000Y8136935D01*
Y8113065D01*
X3899135Y8091013D01*
X3916013Y8074134D01*
X3938066Y8065000D01*
X3961935D01*
X3983987Y8074134D01*
X4000866Y8091013D01*
X4010000Y8113065D01*
Y8136935D01*
X4000866Y8158987D01*
X3983987Y8175866D01*
X3966760Y8183001D01*
Y8193999D01*
X3983987Y8201134D01*
X4000866Y8218013D01*
X4010000Y8240065D01*
Y8263935D01*
X4000866Y8285987D01*
X3983987Y8302866D01*
X3966760Y8310001D01*
Y8320999D01*
X3983987Y8328134D01*
X4000866Y8345013D01*
X4010000Y8367065D01*
Y8390935D01*
X4000866Y8412987D01*
X3983987Y8429866D01*
X3966760Y8437001D01*
Y8447999D01*
X3983987Y8455134D01*
X4000866Y8472013D01*
X4010000Y8494065D01*
Y8517935D01*
X4000866Y8539987D01*
X3983987Y8556866D01*
X3966760Y8564001D01*
Y8574999D01*
X3983987Y8582134D01*
X4000866Y8599013D01*
X4010000Y8621065D01*
Y8644935D01*
X4000866Y8666987D01*
X3983987Y8683866D01*
X3961935Y8693000D01*
D02*
G37*
G36*
X5475000Y8156000D02*
X5325000D01*
Y7964001D01*
X5475000D01*
Y8156000D01*
D02*
G37*
G36*
X6956040Y7780040D02*
X6783960D01*
Y7607960D01*
X6956040D01*
Y7780040D01*
D02*
G37*
G36*
X5399799Y7570500D02*
X5375930D01*
X5353878Y7561366D01*
X5336999Y7544487D01*
X5327865Y7522435D01*
Y7498565D01*
X5336999Y7476513D01*
X5353878Y7459635D01*
X5375930Y7450500D01*
X5399799D01*
X5421852Y7459635D01*
X5438730Y7476513D01*
X5447865Y7498565D01*
Y7522435D01*
X5438730Y7544487D01*
X5421852Y7561366D01*
X5399799Y7570500D01*
D02*
G37*
G36*
X7341935Y7510000D02*
X7318065D01*
X7296013Y7500866D01*
X7279135Y7483987D01*
X7270000Y7461935D01*
Y7438065D01*
X7279135Y7416013D01*
X7296013Y7399135D01*
X7318065Y7390000D01*
X7341935D01*
X7363987Y7399135D01*
X7380866Y7416013D01*
X7390000Y7438065D01*
Y7461935D01*
X7380866Y7483987D01*
X7363987Y7500866D01*
X7341935Y7510000D01*
D02*
G37*
G36*
X6881327Y7526040D02*
X6858672D01*
X6836789Y7520176D01*
X6817170Y7508849D01*
X6801151Y7492830D01*
X6789823Y7473210D01*
X6783960Y7451327D01*
Y7428672D01*
X6789823Y7406790D01*
X6801151Y7387170D01*
X6817170Y7371151D01*
X6836789Y7359823D01*
X6858672Y7353960D01*
X6881327D01*
X6903210Y7359823D01*
X6922829Y7371151D01*
X6938849Y7387170D01*
X6950176Y7406790D01*
X6956040Y7428672D01*
Y7451327D01*
X6950176Y7473210D01*
X6938849Y7492830D01*
X6922829Y7508849D01*
X6903210Y7520176D01*
X6881327Y7526040D01*
D02*
G37*
G36*
X6403165Y7547000D02*
X6376834D01*
X6351401Y7540185D01*
X6328598Y7527019D01*
X6309980Y7508401D01*
X6296815Y7485598D01*
X6290000Y7460165D01*
Y7433835D01*
X6296815Y7408401D01*
X6309980Y7385599D01*
X6328598Y7366980D01*
X6351401Y7353815D01*
X6376834Y7347000D01*
X6403165D01*
X6428598Y7353815D01*
X6451401Y7366980D01*
X6470019Y7385599D01*
X6483185Y7408401D01*
X6489999Y7433835D01*
Y7460165D01*
X6483185Y7485598D01*
X6470019Y7508401D01*
X6451401Y7527019D01*
X6428598Y7540185D01*
X6403165Y7547000D01*
D02*
G37*
G36*
X6725999Y7495000D02*
X6534000D01*
Y7345000D01*
X6725999D01*
Y7495000D01*
D02*
G37*
G36*
X7825000Y7515999D02*
X7675000D01*
Y7324000D01*
X7825000D01*
Y7515999D01*
D02*
G37*
G36*
X4601935Y7300000D02*
X4578065D01*
X4556013Y7290866D01*
X4539134Y7273987D01*
X4530000Y7251935D01*
Y7228065D01*
X4539134Y7206013D01*
X4556013Y7189134D01*
X4578065Y7180000D01*
X4601935D01*
X4623987Y7189134D01*
X4640865Y7206013D01*
X4650000Y7228065D01*
Y7251935D01*
X4640865Y7273987D01*
X4623987Y7290866D01*
X4601935Y7300000D01*
D02*
G37*
G36*
X5464999Y7356000D02*
X5315000D01*
Y7164000D01*
X5464999D01*
Y7356000D01*
D02*
G37*
G36*
X5264999D02*
X5115000D01*
Y7314588D01*
X5106013Y7310865D01*
X5089134Y7293987D01*
X5080000Y7271935D01*
Y7248065D01*
X5089134Y7226013D01*
X5106013Y7209134D01*
X5115000Y7205412D01*
Y7164000D01*
X5264999D01*
Y7356000D01*
D02*
G37*
G36*
X6725999Y7295000D02*
X6534000D01*
Y7145000D01*
X6725999D01*
Y7295000D01*
D02*
G37*
G36*
X6881327Y7272040D02*
X6858672D01*
X6836789Y7266176D01*
X6817170Y7254849D01*
X6801151Y7238830D01*
X6789823Y7219210D01*
X6783960Y7197327D01*
Y7174672D01*
X6789823Y7152790D01*
X6801151Y7133170D01*
X6817170Y7117151D01*
X6836789Y7105823D01*
X6858672Y7099960D01*
X6881327D01*
X6903210Y7105823D01*
X6922829Y7117151D01*
X6938849Y7133170D01*
X6950176Y7152790D01*
X6956040Y7174672D01*
Y7197327D01*
X6950176Y7219210D01*
X6938849Y7238830D01*
X6922829Y7254849D01*
X6903210Y7266176D01*
X6881327Y7272040D01*
D02*
G37*
G36*
X6430000Y7294175D02*
X6350000D01*
X6326589Y7289519D01*
X6306742Y7276257D01*
X6293481Y7256411D01*
X6288824Y7233000D01*
Y7153000D01*
X6293481Y7129589D01*
X6306742Y7109742D01*
X6326589Y7096481D01*
X6350000Y7091825D01*
X6430000D01*
X6453411Y7096481D01*
X6473257Y7109742D01*
X6486518Y7129589D01*
X6491175Y7153000D01*
Y7233000D01*
X6486518Y7256411D01*
X6473257Y7276257D01*
X6453411Y7289519D01*
X6430000Y7294175D01*
D02*
G37*
G36*
X3971935Y7302000D02*
X3948066D01*
X3926013Y7292866D01*
X3909135Y7275987D01*
X3900000Y7253935D01*
Y7230065D01*
X3909135Y7208013D01*
X3926013Y7191134D01*
X3943241Y7183999D01*
Y7173001D01*
X3926013Y7165866D01*
X3909135Y7148987D01*
X3900000Y7126935D01*
Y7103065D01*
X3909135Y7081013D01*
X3926013Y7064134D01*
X3943241Y7056999D01*
Y7046001D01*
X3926013Y7038866D01*
X3909135Y7021987D01*
X3900000Y6999935D01*
Y6976065D01*
X3909135Y6954013D01*
X3926013Y6937134D01*
X3943241Y6929999D01*
Y6919001D01*
X3926013Y6911866D01*
X3909135Y6894987D01*
X3900000Y6872935D01*
Y6849065D01*
X3909135Y6827013D01*
X3926013Y6810134D01*
X3948066Y6801000D01*
X3971935D01*
X3993987Y6810134D01*
X4010866Y6827013D01*
X4020000Y6849065D01*
Y6872935D01*
X4010866Y6894987D01*
X3993987Y6911866D01*
X3976760Y6919001D01*
Y6929999D01*
X3993987Y6937134D01*
X4010866Y6954013D01*
X4020000Y6976065D01*
Y6999935D01*
X4010866Y7021987D01*
X3993987Y7038866D01*
X3976760Y7046001D01*
Y7056999D01*
X3993987Y7064134D01*
X4010866Y7081013D01*
X4020000Y7103065D01*
Y7126935D01*
X4010866Y7148987D01*
X3993987Y7165866D01*
X3976760Y7173001D01*
Y7183999D01*
X3993987Y7191134D01*
X4010866Y7208013D01*
X4020000Y7230065D01*
Y7253935D01*
X4010866Y7275987D01*
X3993987Y7292866D01*
X3971935Y7302000D01*
D02*
G37*
G36*
X6781935Y6860000D02*
X6758065D01*
X6736013Y6850866D01*
X6719134Y6833987D01*
X6710000Y6811935D01*
Y6788065D01*
X6719134Y6766013D01*
X6736013Y6749135D01*
X6758065Y6740000D01*
X6781935D01*
X6803987Y6749135D01*
X6820865Y6766013D01*
X6830000Y6788065D01*
Y6811935D01*
X6820865Y6833987D01*
X6803987Y6850866D01*
X6781935Y6860000D01*
D02*
G37*
G36*
X8131935Y6710000D02*
X8108065D01*
X8086013Y6700865D01*
X8070833Y6685685D01*
X7789167D01*
X7773987Y6700865D01*
X7751935Y6710000D01*
X7728065D01*
X7706013Y6700865D01*
X7689134Y6683987D01*
X7680000Y6661934D01*
Y6638065D01*
X7689134Y6616012D01*
X7706013Y6599134D01*
X7715801Y6595080D01*
Y6584920D01*
X7706013Y6580865D01*
X7689134Y6563987D01*
X7680000Y6541935D01*
Y6518065D01*
X7689134Y6496013D01*
X7706013Y6479134D01*
X7719791Y6473427D01*
Y6462430D01*
X7716013Y6460865D01*
X7699134Y6443987D01*
X7690000Y6421935D01*
Y6398065D01*
X7699134Y6376013D01*
X7716013Y6359134D01*
X7724791Y6355499D01*
Y6344501D01*
X7716013Y6340865D01*
X7699134Y6323987D01*
X7690000Y6301935D01*
Y6278065D01*
X7699134Y6256013D01*
X7716013Y6239134D01*
X7738065Y6230000D01*
X7761935D01*
X7783987Y6239134D01*
X7794167Y6249314D01*
X8285467D01*
X8286835Y6246013D01*
X8303713Y6229134D01*
X8325765Y6220000D01*
X8349635D01*
X8371687Y6229134D01*
X8388566Y6246013D01*
X8397700Y6268065D01*
Y6291935D01*
X8388566Y6313987D01*
X8371687Y6330865D01*
X8349635Y6340000D01*
X8325765D01*
X8303713Y6330865D01*
X8293533Y6320686D01*
X7802233D01*
X7800866Y6323987D01*
X7783987Y6340865D01*
X7775209Y6344501D01*
Y6355499D01*
X7783987Y6359134D01*
X7794167Y6369314D01*
X8217767D01*
X8219134Y6366013D01*
X8236013Y6349134D01*
X8258065Y6340000D01*
X8281935D01*
X8303987Y6349134D01*
X8320866Y6366013D01*
X8330000Y6388065D01*
Y6411935D01*
X8320866Y6433987D01*
X8303987Y6450865D01*
X8281935Y6460000D01*
X8258065D01*
X8236013Y6450865D01*
X8225833Y6440686D01*
X7802233D01*
X7800866Y6443987D01*
X7783987Y6460865D01*
X7770209Y6466572D01*
Y6477569D01*
X7773987Y6479134D01*
X7789167Y6494314D01*
X8140833D01*
X8156013Y6479134D01*
X8178065Y6470000D01*
X8201935D01*
X8223987Y6479134D01*
X8240865Y6496013D01*
X8250000Y6518065D01*
Y6541935D01*
X8240865Y6563987D01*
X8223987Y6580865D01*
X8201935Y6590000D01*
X8178065D01*
X8156013Y6580865D01*
X8140833Y6565686D01*
X7789167D01*
X7773987Y6580865D01*
X7764199Y6584920D01*
Y6595080D01*
X7773987Y6599134D01*
X7789167Y6614314D01*
X8070833D01*
X8086013Y6599134D01*
X8108065Y6590000D01*
X8131935D01*
X8153987Y6599134D01*
X8170866Y6616012D01*
X8180000Y6638065D01*
Y6661934D01*
X8170866Y6683987D01*
X8153987Y6700865D01*
X8131935Y6710000D01*
D02*
G37*
G36*
X5401935Y6690000D02*
X5378065D01*
X5356013Y6680865D01*
X5339134Y6663987D01*
X5330000Y6641935D01*
Y6618065D01*
X5339134Y6596013D01*
X5356013Y6579134D01*
X5378065Y6570000D01*
X5401935D01*
X5423987Y6579134D01*
X5440865Y6596013D01*
X5450000Y6618065D01*
Y6641935D01*
X5440865Y6663987D01*
X5423987Y6680865D01*
X5401935Y6690000D01*
D02*
G37*
G36*
X8421935Y6200000D02*
X8398065D01*
X8376013Y6190865D01*
X8360833Y6175685D01*
X7799167D01*
X7783987Y6190865D01*
X7761935Y6200000D01*
X7738065D01*
X7716013Y6190865D01*
X7699134Y6173987D01*
X7690000Y6151934D01*
Y6128065D01*
X7699134Y6106012D01*
X7716013Y6089134D01*
X7738065Y6080000D01*
X7761935D01*
X7783987Y6089134D01*
X7799167Y6104314D01*
X8360833D01*
X8376013Y6089134D01*
X8398065Y6080000D01*
X8421935D01*
X8443987Y6089134D01*
X8460865Y6106012D01*
X8470000Y6128065D01*
Y6151934D01*
X8460865Y6173987D01*
X8443987Y6190865D01*
X8421935Y6200000D01*
D02*
G37*
G36*
X3976935Y5907500D02*
X3953065D01*
X3931013Y5898366D01*
X3914134Y5881487D01*
X3905000Y5859435D01*
Y5835565D01*
X3914134Y5813513D01*
X3931013Y5796635D01*
X3948241Y5789499D01*
Y5778502D01*
X3931013Y5771366D01*
X3914134Y5754487D01*
X3905000Y5732435D01*
Y5708565D01*
X3914134Y5686513D01*
X3931013Y5669635D01*
X3948241Y5662499D01*
Y5651502D01*
X3931013Y5644366D01*
X3914134Y5627487D01*
X3905000Y5605435D01*
Y5581565D01*
X3914134Y5559513D01*
X3931013Y5542635D01*
X3948241Y5535499D01*
Y5524502D01*
X3931013Y5517366D01*
X3914134Y5500487D01*
X3905000Y5478435D01*
Y5454565D01*
X3914134Y5432513D01*
X3931013Y5415635D01*
X3953065Y5406500D01*
X3976935D01*
X3998987Y5415635D01*
X4015865Y5432513D01*
X4025000Y5454565D01*
Y5478435D01*
X4015865Y5500487D01*
X3998987Y5517366D01*
X3981759Y5524502D01*
Y5535499D01*
X3998987Y5542635D01*
X4015865Y5559513D01*
X4025000Y5581565D01*
Y5605435D01*
X4015865Y5627487D01*
X3998987Y5644366D01*
X3981759Y5651502D01*
Y5662499D01*
X3998987Y5669635D01*
X4015865Y5686513D01*
X4025000Y5708565D01*
Y5732435D01*
X4015865Y5754487D01*
X3998987Y5771366D01*
X3981759Y5778502D01*
Y5789499D01*
X3998987Y5796635D01*
X4015865Y5813513D01*
X4025000Y5835565D01*
Y5859435D01*
X4015865Y5881487D01*
X3998987Y5898366D01*
X3976935Y5907500D01*
D02*
G37*
G36*
X7835000Y5595999D02*
X7685000D01*
Y5404000D01*
X7835000D01*
Y5595999D01*
D02*
G37*
G36*
X8121935Y5750000D02*
X8098065D01*
X8076013Y5740866D01*
X8059135Y5723987D01*
X8050000Y5701935D01*
Y5678065D01*
X8059135Y5656013D01*
X8076013Y5639135D01*
X8098065Y5630000D01*
X8121935D01*
X8123439Y5630623D01*
X8130623Y5623439D01*
X8130000Y5621935D01*
Y5598065D01*
X8139134Y5576013D01*
X8156013Y5559134D01*
X8178065Y5550000D01*
X8201935D01*
X8203439Y5550623D01*
X8210623Y5543439D01*
X8210000Y5541935D01*
Y5518065D01*
X8219134Y5496013D01*
X8236013Y5479135D01*
X8258065Y5470000D01*
X8280000D01*
Y5448065D01*
X8289135Y5426013D01*
X8306013Y5409134D01*
X8328065Y5400000D01*
X8342344D01*
X8350000Y5391934D01*
Y5368065D01*
X8359134Y5346013D01*
X8376013Y5329134D01*
X8398065Y5320000D01*
X8421935D01*
X8443987Y5329134D01*
X8445613Y5330760D01*
X8455000Y5326873D01*
Y5294000D01*
X8458825D01*
Y5230000D01*
X8460000Y5224090D01*
Y5218065D01*
X8462306Y5212499D01*
X8463481Y5206589D01*
X8466829Y5201579D01*
X8469134Y5196013D01*
X8473395Y5191752D01*
X8476743Y5186742D01*
X8481752Y5183395D01*
X8486013Y5179134D01*
X8491579Y5176829D01*
X8496589Y5173481D01*
X8502499Y5172306D01*
X8508065Y5170000D01*
X8514090D01*
X8520000Y5168825D01*
X8525910Y5170000D01*
X8531935D01*
X8537501Y5172306D01*
X8543411Y5173481D01*
X8548421Y5176829D01*
X8553987Y5179134D01*
X8558248Y5183395D01*
X8563257Y5186742D01*
X8566605Y5191752D01*
X8570866Y5196013D01*
X8573171Y5201579D01*
X8576519Y5206589D01*
X8577694Y5212499D01*
X8580000Y5218065D01*
Y5224090D01*
X8581175Y5230000D01*
Y5294000D01*
X8605000D01*
Y5486000D01*
X8455000D01*
Y5433127D01*
X8445613Y5429239D01*
X8443987Y5430865D01*
X8421935Y5440000D01*
X8407656D01*
X8400000Y5448066D01*
Y5471935D01*
X8390866Y5493987D01*
X8373987Y5510866D01*
X8351935Y5520000D01*
X8330000D01*
Y5541935D01*
X8320866Y5563987D01*
X8303987Y5580866D01*
X8281935Y5590000D01*
X8258065D01*
X8256561Y5589377D01*
X8249377Y5596561D01*
X8250000Y5598065D01*
Y5621935D01*
X8240865Y5643987D01*
X8223987Y5660865D01*
X8201935Y5670000D01*
X8178065D01*
X8176561Y5669377D01*
X8169377Y5676561D01*
X8170000Y5678065D01*
Y5701935D01*
X8160866Y5723987D01*
X8143987Y5740866D01*
X8121935Y5750000D01*
D02*
G37*
G36*
X7991935Y5060000D02*
X7968065D01*
X7946013Y5050865D01*
X7929135Y5033987D01*
X7927767Y5030686D01*
X7784167D01*
X7773987Y5040865D01*
X7751935Y5050000D01*
X7728065D01*
X7706013Y5040865D01*
X7689134Y5023987D01*
X7680000Y5001935D01*
Y4978065D01*
X7689134Y4956013D01*
X7706013Y4939134D01*
X7719791Y4933428D01*
Y4922430D01*
X7716013Y4920865D01*
X7699134Y4903987D01*
X7690000Y4881935D01*
Y4858065D01*
X7699134Y4836013D01*
X7716013Y4819134D01*
X7738065Y4810000D01*
X7761935D01*
X7783987Y4819134D01*
X7799167Y4834314D01*
X8000833D01*
X8016013Y4819134D01*
X8038065Y4810000D01*
X8061935D01*
X8083987Y4819134D01*
X8100865Y4836013D01*
X8110000Y4858065D01*
Y4881935D01*
X8100865Y4903987D01*
X8083987Y4920865D01*
X8061935Y4930000D01*
X8038065D01*
X8016013Y4920865D01*
X8000833Y4905686D01*
X7799167D01*
X7783987Y4920865D01*
X7770209Y4926572D01*
Y4937569D01*
X7773987Y4939134D01*
X7790866Y4956013D01*
X7792233Y4959314D01*
X7935833D01*
X7946013Y4949134D01*
X7968065Y4940000D01*
X7991935D01*
X8013987Y4949134D01*
X8030866Y4966013D01*
X8040000Y4988065D01*
Y5011935D01*
X8030866Y5033987D01*
X8013987Y5050865D01*
X7991935Y5060000D01*
D02*
G37*
G36*
X8131935Y4790000D02*
X8108065D01*
X8086013Y4780865D01*
X8070833Y4765685D01*
X7789167D01*
X7773987Y4780865D01*
X7751935Y4790000D01*
X7728065D01*
X7706013Y4780865D01*
X7689134Y4763987D01*
X7680000Y4741934D01*
Y4718065D01*
X7689134Y4696012D01*
X7706013Y4679134D01*
X7715801Y4675080D01*
Y4664920D01*
X7706013Y4660865D01*
X7689134Y4643987D01*
X7680000Y4621935D01*
Y4598065D01*
X7689134Y4576013D01*
X7706013Y4559134D01*
X7719791Y4553428D01*
Y4542430D01*
X7716013Y4540865D01*
X7699134Y4523987D01*
X7690000Y4501935D01*
Y4478065D01*
X7699134Y4456013D01*
X7716013Y4439134D01*
X7724791Y4435499D01*
Y4424501D01*
X7716013Y4420865D01*
X7699134Y4403987D01*
X7690000Y4381935D01*
Y4358065D01*
X7699134Y4336013D01*
X7716013Y4319134D01*
X7738065Y4310000D01*
X7761935D01*
X7783987Y4319134D01*
X7794167Y4329314D01*
X8287767D01*
X8289135Y4326013D01*
X8306013Y4309134D01*
X8328065Y4300000D01*
X8351935D01*
X8373987Y4309134D01*
X8390866Y4326013D01*
X8400000Y4348065D01*
Y4371935D01*
X8390866Y4393987D01*
X8373987Y4410865D01*
X8351935Y4420000D01*
X8328065D01*
X8306013Y4410865D01*
X8295833Y4400686D01*
X7802233D01*
X7800866Y4403987D01*
X7783987Y4420865D01*
X7775209Y4424501D01*
Y4435499D01*
X7783987Y4439134D01*
X7794167Y4449314D01*
X8207767D01*
X8209134Y4446013D01*
X8226013Y4429134D01*
X8248065Y4420000D01*
X8271935D01*
X8293987Y4429134D01*
X8310866Y4446013D01*
X8320000Y4468065D01*
Y4491935D01*
X8310866Y4513987D01*
X8293987Y4530865D01*
X8271935Y4540000D01*
X8248065D01*
X8226013Y4530865D01*
X8215833Y4520686D01*
X7802233D01*
X7800866Y4523987D01*
X7783987Y4540865D01*
X7770209Y4546572D01*
Y4557569D01*
X7773987Y4559134D01*
X7789167Y4574314D01*
X8140833D01*
X8156013Y4559134D01*
X8178065Y4550000D01*
X8201935D01*
X8223987Y4559134D01*
X8240865Y4576013D01*
X8250000Y4598065D01*
Y4621935D01*
X8240865Y4643987D01*
X8223987Y4660865D01*
X8201935Y4670000D01*
X8178065D01*
X8156013Y4660865D01*
X8140833Y4645686D01*
X7789167D01*
X7773987Y4660865D01*
X7764199Y4664920D01*
Y4675080D01*
X7773987Y4679134D01*
X7789167Y4694314D01*
X8070833D01*
X8086013Y4679134D01*
X8108065Y4670000D01*
X8131935D01*
X8153987Y4679134D01*
X8170866Y4696012D01*
X8180000Y4718065D01*
Y4741934D01*
X8170866Y4763987D01*
X8153987Y4780865D01*
X8131935Y4790000D01*
D02*
G37*
G36*
X8421935Y4280000D02*
X8398065D01*
X8376013Y4270865D01*
X8360833Y4255685D01*
X7799167D01*
X7783987Y4270865D01*
X7761935Y4280000D01*
X7738065D01*
X7716013Y4270865D01*
X7699134Y4253987D01*
X7690000Y4231934D01*
Y4208065D01*
X7699134Y4186012D01*
X7716013Y4169134D01*
X7738065Y4160000D01*
X7761935D01*
X7783987Y4169134D01*
X7799167Y4184314D01*
X8360833D01*
X8376013Y4169134D01*
X8398065Y4160000D01*
X8421935D01*
X8443987Y4169134D01*
X8460865Y4186012D01*
X8470000Y4208065D01*
Y4231934D01*
X8460865Y4253987D01*
X8443987Y4270865D01*
X8421935Y4280000D01*
D02*
G37*
G36*
X3971935Y4535000D02*
X3948065D01*
X3926013Y4525865D01*
X3909134Y4508987D01*
X3900000Y4486935D01*
Y4463065D01*
X3909134Y4441013D01*
X3926013Y4424134D01*
X3943241Y4416999D01*
Y4406001D01*
X3926013Y4398865D01*
X3909134Y4381987D01*
X3900000Y4359935D01*
Y4336065D01*
X3909134Y4314013D01*
X3926013Y4297134D01*
X3943241Y4289999D01*
Y4279001D01*
X3926013Y4271865D01*
X3909134Y4254987D01*
X3900000Y4232935D01*
Y4209065D01*
X3909134Y4187013D01*
X3926013Y4170134D01*
X3943241Y4162999D01*
Y4152001D01*
X3926013Y4144865D01*
X3909134Y4127987D01*
X3900000Y4105935D01*
Y4082065D01*
X3909134Y4060013D01*
X3926013Y4043134D01*
X3948065Y4034000D01*
X3971935D01*
X3993987Y4043134D01*
X4010865Y4060013D01*
X4020000Y4082065D01*
Y4105935D01*
X4010865Y4127987D01*
X3993987Y4144865D01*
X3976759Y4152001D01*
Y4162999D01*
X3993987Y4170134D01*
X4010865Y4187013D01*
X4020000Y4209065D01*
Y4232935D01*
X4010865Y4254987D01*
X3993987Y4271865D01*
X3976759Y4279001D01*
Y4289999D01*
X3993987Y4297134D01*
X4010865Y4314013D01*
X4020000Y4336065D01*
Y4359935D01*
X4010865Y4381987D01*
X3993987Y4398865D01*
X3976759Y4406001D01*
Y4416999D01*
X3993987Y4424134D01*
X4010865Y4441013D01*
X4020000Y4463065D01*
Y4486935D01*
X4010865Y4508987D01*
X3993987Y4525865D01*
X3971935Y4535000D01*
D02*
G37*
G36*
X8721935Y3740000D02*
X8698065D01*
X8676013Y3730866D01*
X8671029Y3725882D01*
X8330000D01*
X8312442Y3722389D01*
X8297557Y3712443D01*
X8127557Y3542443D01*
X8117611Y3527558D01*
X8114118Y3510000D01*
Y2599005D01*
X7095114Y1580000D01*
X7088065D01*
X7066013Y1570866D01*
X7049134Y1553987D01*
X7040000Y1531935D01*
Y1508066D01*
X7049134Y1486013D01*
X7066013Y1469135D01*
X7088065Y1460000D01*
X7111935D01*
X7133987Y1469135D01*
X7150866Y1486013D01*
X7160000Y1508066D01*
Y1515114D01*
X8192443Y2547557D01*
X8202389Y2562442D01*
X8205881Y2580000D01*
Y3490995D01*
X8349005Y3634118D01*
X8671029D01*
X8676013Y3629134D01*
X8698065Y3620000D01*
X8721935D01*
X8743987Y3629134D01*
X8760866Y3646013D01*
X8770000Y3668065D01*
Y3691935D01*
X8760866Y3713987D01*
X8743987Y3730866D01*
X8721935Y3740000D01*
D02*
G37*
G36*
X7740000Y3655882D02*
X7722442Y3652389D01*
X7712879Y3646000D01*
X7695000D01*
Y3614434D01*
X7694118Y3610000D01*
Y3580649D01*
X7688645Y3567435D01*
Y3543566D01*
X7695000Y3528223D01*
Y3454000D01*
X7772880D01*
X7782442Y3447611D01*
X7800000Y3444118D01*
X7817558Y3447611D01*
X7827120Y3454000D01*
X7845000D01*
Y3485566D01*
X7845882Y3490000D01*
Y3499000D01*
X7845000Y3503433D01*
Y3646000D01*
X7767121D01*
X7757558Y3652389D01*
X7740000Y3655882D01*
D02*
G37*
G36*
X8595000Y3526000D02*
X8445000D01*
Y3334000D01*
X8595000D01*
Y3526000D01*
D02*
G37*
G36*
X6125000Y3387000D02*
X5975000D01*
Y3195001D01*
X6125000D01*
Y3387000D01*
D02*
G37*
G36*
X5491935Y3210000D02*
X5468065D01*
X5446013Y3200866D01*
X5429134Y3183987D01*
X5420000Y3161935D01*
Y3138065D01*
X5429134Y3116013D01*
X5446013Y3099135D01*
X5468065Y3090000D01*
X5491935D01*
X5513987Y3099135D01*
X5529167Y3114314D01*
X5815218D01*
X6204000Y2725533D01*
Y2626000D01*
X6395999D01*
Y2626000D01*
X6404000D01*
Y2626000D01*
X6596000D01*
Y2776000D01*
X6404000D01*
Y2776001D01*
X6395999D01*
Y2776000D01*
X6254467D01*
X5855234Y3175234D01*
X5843656Y3182969D01*
X5830000Y3185686D01*
X5529167D01*
X5513987Y3200866D01*
X5491935Y3210000D01*
D02*
G37*
G36*
X8701935Y2350000D02*
X8678065D01*
X8656013Y2340866D01*
X8639134Y2323987D01*
X8630000Y2301935D01*
Y2278065D01*
X8639134Y2256013D01*
X8656013Y2239134D01*
X8678065Y2230000D01*
X8701935D01*
X8723987Y2239134D01*
X8740865Y2256013D01*
X8750000Y2278065D01*
Y2301935D01*
X8740865Y2323987D01*
X8723987Y2340866D01*
X8701935Y2350000D01*
D02*
G37*
G36*
X4736000Y1985000D02*
X4544000D01*
Y1950882D01*
X4486000D01*
Y1975000D01*
X4294000D01*
Y1825000D01*
X4486000D01*
Y1859118D01*
X4544000D01*
Y1835000D01*
X4736000D01*
Y1985000D01*
D02*
G37*
G36*
X8703289Y2218501D02*
X8679420D01*
X8657367Y2209366D01*
X8640489Y2192488D01*
X8631355Y2170435D01*
Y2146566D01*
X8640489Y2124513D01*
X8657367Y2107635D01*
X8674595Y2100499D01*
Y2089502D01*
X8657367Y2082366D01*
X8640489Y2065488D01*
X8631355Y2043435D01*
Y2019566D01*
X8640489Y1997513D01*
X8657367Y1980635D01*
X8674595Y1973499D01*
Y1962502D01*
X8657367Y1955366D01*
X8640489Y1938488D01*
X8631355Y1916435D01*
Y1892566D01*
X8640489Y1870513D01*
X8657367Y1853635D01*
X8679420Y1844501D01*
X8703289D01*
X8725342Y1853635D01*
X8742220Y1870513D01*
X8751355Y1892566D01*
Y1916435D01*
X8742220Y1938488D01*
X8725342Y1955366D01*
X8708114Y1962502D01*
Y1973499D01*
X8725342Y1980635D01*
X8742220Y1997513D01*
X8751355Y2019566D01*
Y2043435D01*
X8742220Y2065488D01*
X8725342Y2082366D01*
X8708114Y2089502D01*
Y2100499D01*
X8725342Y2107635D01*
X8742220Y2124513D01*
X8751355Y2146566D01*
Y2170435D01*
X8742220Y2192488D01*
X8725342Y2209366D01*
X8703289Y2218501D01*
D02*
G37*
G36*
X7760580Y1964501D02*
X7736710D01*
X7714658Y1955366D01*
X7697779Y1938488D01*
X7688645Y1916435D01*
Y1892566D01*
X7697779Y1870513D01*
X7714658Y1853635D01*
X7736710Y1844501D01*
X7760580D01*
X7782632Y1853635D01*
X7799510Y1870513D01*
X7808645Y1892566D01*
Y1916435D01*
X7799510Y1938488D01*
X7782632Y1955366D01*
X7760580Y1964501D01*
D02*
G37*
G36*
X6225000Y1626000D02*
X6075000D01*
Y1434000D01*
X6225000D01*
Y1626000D01*
D02*
G37*
G36*
X7785000Y1616000D02*
X7635000D01*
Y1424000D01*
X7785000D01*
Y1616000D01*
D02*
G37*
G36*
X7585000D02*
X7435000D01*
Y1424000D01*
X7585000D01*
Y1616000D01*
D02*
G37*
G36*
X5701935Y2111000D02*
X5678065D01*
X5656013Y2101866D01*
X5639135Y2084988D01*
X5630000Y2062935D01*
Y2039066D01*
X5639135Y2017013D01*
X5654314Y2001833D01*
Y1510000D01*
X5657031Y1496343D01*
X5664766Y1484766D01*
X5733314Y1416219D01*
Y1410000D01*
X5734000Y1406551D01*
Y1295000D01*
X5926000D01*
Y1434000D01*
X6025000D01*
Y1626000D01*
X5875000D01*
Y1445000D01*
X5801739D01*
X5794233Y1456234D01*
X5725686Y1524781D01*
Y2001833D01*
X5740866Y2017013D01*
X5750000Y2039066D01*
Y2062935D01*
X5740866Y2084988D01*
X5723987Y2101866D01*
X5701935Y2111000D01*
D02*
G37*
G36*
X6905000Y1355999D02*
X6755000D01*
Y1164000D01*
X6905000D01*
Y1355999D01*
D02*
G37*
G36*
X7945000Y1336000D02*
X7795000D01*
Y1144000D01*
X7945000D01*
Y1336000D01*
D02*
G37*
G36*
X6041935Y1250000D02*
X6018065D01*
X5996013Y1240865D01*
X5979135Y1223987D01*
X5970000Y1201935D01*
Y1178065D01*
X5979135Y1156013D01*
X5996013Y1139134D01*
X6018065Y1130000D01*
X6041935D01*
X6063987Y1139134D01*
X6080866Y1156013D01*
X6090000Y1178065D01*
Y1201935D01*
X6080866Y1223987D01*
X6063987Y1240865D01*
X6041935Y1250000D01*
D02*
G37*
G36*
X5926000Y1245000D02*
X5734000D01*
Y1095000D01*
X5926000D01*
Y1245000D01*
D02*
G37*
G36*
X7365000Y1266000D02*
X7215000D01*
Y1074000D01*
X7365000D01*
Y1202066D01*
X7365882Y1206500D01*
X7365000Y1210934D01*
Y1266000D01*
D02*
G37*
G36*
X6931935Y1590000D02*
X6908065D01*
X6886013Y1580866D01*
X6869134Y1563987D01*
X6860000Y1541935D01*
Y1518065D01*
X6869134Y1496013D01*
X6886013Y1479134D01*
X6908065Y1470000D01*
X6915113D01*
X7044119Y1340995D01*
Y1266000D01*
X7015000D01*
Y1074000D01*
X7165000D01*
Y1266000D01*
X7135882D01*
Y1360000D01*
X7132389Y1377558D01*
X7122443Y1392443D01*
X6980000Y1534886D01*
Y1541935D01*
X6970865Y1563987D01*
X6953987Y1580866D01*
X6931935Y1590000D01*
D02*
G37*
G36*
X8531935Y1090000D02*
X8508066D01*
X8486013Y1080866D01*
X8469135Y1063987D01*
X8460000Y1041935D01*
Y1018066D01*
X8469135Y996013D01*
X8486013Y979135D01*
X8508066Y970000D01*
X8531935D01*
X8553987Y979135D01*
X8570866Y996013D01*
X8580000Y1018066D01*
Y1041935D01*
X8570866Y1063987D01*
X8553987Y1080866D01*
X8531935Y1090000D01*
D02*
G37*
G36*
X3923662Y1588580D02*
X3900338D01*
X3877809Y1582543D01*
X3857611Y1570882D01*
X3841119Y1554389D01*
X3829457Y1534191D01*
X3823420Y1511662D01*
Y1488338D01*
X3829457Y1465809D01*
X3841119Y1445611D01*
X3857611Y1429119D01*
X3870118Y1421897D01*
Y1366000D01*
X3845000D01*
Y1174000D01*
X3874118D01*
Y1155999D01*
X3845000D01*
Y964000D01*
X3995000D01*
Y1155999D01*
X3965882D01*
Y1174000D01*
X3995000D01*
Y1366000D01*
X3961882D01*
Y1426516D01*
X3966389Y1429119D01*
X3982882Y1445611D01*
X3994543Y1465809D01*
X4000580Y1488338D01*
Y1511662D01*
X3994543Y1534191D01*
X3982882Y1554389D01*
X3966389Y1570882D01*
X3946191Y1582543D01*
X3923662Y1588580D01*
D02*
G37*
G36*
X5905000Y1055999D02*
X5755000D01*
Y864000D01*
X5905000D01*
Y1055999D01*
D02*
G37*
G36*
X7165000Y1025999D02*
X7015000D01*
Y834000D01*
X7165000D01*
Y1025999D01*
D02*
G37*
G36*
X7555000Y956000D02*
X7405000D01*
Y764001D01*
X7555000D01*
Y956000D01*
D02*
G37*
G36*
X6015000Y686000D02*
X5865000D01*
Y494000D01*
X6015000D01*
Y686000D01*
D02*
G37*
G36*
X7884040Y526040D02*
X7711960D01*
Y353960D01*
X7884040D01*
Y526040D01*
D02*
G37*
G36*
X7365000Y1025999D02*
X7215000D01*
Y834000D01*
X7244119D01*
Y512861D01*
X7237170Y508849D01*
X7221151Y492830D01*
X7209824Y473210D01*
X7203960Y451327D01*
Y428672D01*
X7209824Y406790D01*
X7221151Y387170D01*
X7237170Y371151D01*
X7256790Y359824D01*
X7278673Y353960D01*
X7301328D01*
X7323210Y359824D01*
X7342830Y371151D01*
X7358849Y387170D01*
X7370177Y406790D01*
X7376040Y428672D01*
Y451327D01*
X7370177Y473210D01*
X7358849Y492830D01*
X7342830Y508849D01*
X7335882Y512861D01*
Y834000D01*
X7365000D01*
Y1025999D01*
D02*
G37*
G36*
X7625000Y725999D02*
X7475000D01*
Y534000D01*
X7504119D01*
Y516325D01*
X7491170Y508849D01*
X7475151Y492830D01*
X7463824Y473210D01*
X7457960Y451327D01*
Y428672D01*
X7463824Y406790D01*
X7475151Y387170D01*
X7491170Y371151D01*
X7504119Y363675D01*
Y346000D01*
X7475000D01*
Y154000D01*
X7625000D01*
Y346000D01*
X7595882D01*
Y370604D01*
X7596830Y371151D01*
X7612849Y387170D01*
X7624177Y406790D01*
X7630040Y428672D01*
Y451327D01*
X7624177Y473210D01*
X7612849Y492830D01*
X7596830Y508849D01*
X7595882Y509396D01*
Y534000D01*
X7625000D01*
Y725999D01*
D02*
G37*
%LPD*%
D10*
X9175000Y7530000D02*
X9800000Y6905000D01*
X8150000Y7530000D02*
X9175000D01*
X7570000Y6950000D02*
X8150000Y7530000D01*
X9251000Y7200000D02*
X9800000Y6651000D01*
X7980000Y6920000D02*
X8260000Y7200000D01*
X9251000D01*
X9047000Y7150000D02*
X9800000Y6397000D01*
X8706765Y7150000D02*
X9047000D01*
X8346765Y6790000D02*
X8706765Y7150000D01*
X8050000Y6790000D02*
X8346765D01*
X8700355Y4734000D02*
X9198300D01*
X9202300Y4730000D01*
X9426999Y5246000D02*
X9800000Y4873000D01*
X8696355Y5246000D02*
X9426999D01*
X8993645Y5109999D02*
X9309001D01*
X9800000Y4619000D01*
X9060000Y4980000D02*
X9185000D01*
X9800000Y4365000D01*
X9130500Y4110500D02*
X9799500D01*
X9130000Y4110000D02*
X9130500Y4110500D01*
X9799500D02*
X9800000Y4111000D01*
X9796500Y3853500D02*
X9800000Y3857000D01*
X9213500Y3853500D02*
X9796500D01*
X9210000Y3850000D02*
X9213500Y3853500D01*
X9283500Y3606500D02*
X9796500D01*
X9800000Y3603000D01*
X9280000Y3610000D02*
X9283500Y3606500D01*
X9363530Y3390000D02*
X9404530Y3349000D01*
X9800000D01*
X9350000Y3390000D02*
X9363530D01*
X9387169Y4357000D02*
X9404170Y4339999D01*
X9417700D01*
X8696355Y4357000D02*
X9387169D01*
X9312470Y4484000D02*
X9336470Y4460000D01*
X9350000D01*
X8696355Y4484000D02*
X9312470D01*
X8740885Y4580000D02*
X9280000D01*
X8709885Y4611000D02*
X8740885Y4580000D01*
X8696355Y4611000D02*
X8709885D01*
X8696355Y4738000D02*
X8700355Y4734000D01*
X8703855Y4857500D02*
X9124799D01*
X9132300Y4849999D01*
X8696355Y4865000D02*
X8703855Y4857500D01*
X8702355Y4986000D02*
X9054000D01*
X8696355Y4992000D02*
X8702355Y4986000D01*
X9054000D02*
X9060000Y4980000D01*
X8696355Y5119000D02*
X8700855Y5114500D01*
X8989145D02*
X8993645Y5109999D01*
X8700855Y5114500D02*
X8989145D01*
X9404170Y6259999D02*
X9417700D01*
X8696354Y6277000D02*
X9387169D01*
X9404170Y6259999D01*
X9336470Y6380000D02*
X9350000D01*
X8696354Y6404000D02*
X9312470D01*
X9336470Y6380000D01*
X8709885Y6531000D02*
X8740885Y6500000D01*
X8696354Y6531000D02*
X8709885D01*
X8740885Y6500000D02*
X9270000D01*
X8700355Y6654000D02*
X9196000D01*
X9200000Y6650000D01*
X8696354Y6658000D02*
X8700355Y6654000D01*
X8703855Y6777500D02*
X9124799D01*
X9132300Y6769999D01*
X8696354Y6785000D02*
X8703855Y6777500D01*
X9054000Y6906000D02*
X9060000Y6900000D01*
X8696354Y6912000D02*
X8702355Y6906000D01*
X9054000D01*
X8696354Y7039000D02*
X8700855Y7034500D01*
X8989145D02*
X8993645Y7029999D01*
X8700855Y7034500D02*
X8989145D01*
X8687354Y8199000D02*
X9419000D01*
X8686355Y8198001D02*
X8687354Y8199000D01*
X9419000D02*
X9420000Y8200000D01*
X8686355Y8325001D02*
X8688855Y8322500D01*
X9337500D01*
X9340000Y8320000D01*
X8687355Y8451000D02*
X9269000D01*
X9270000Y8450000D01*
X8686355Y8452001D02*
X8687355Y8451000D01*
X9194500Y8584500D02*
X9200000Y8590000D01*
X8686355Y8579001D02*
X8691854Y8584500D01*
X9194500D01*
X8686355Y8706001D02*
X8688354Y8708000D01*
X9138000D02*
X9140000Y8710000D01*
X8688354Y8708000D02*
X9138000D01*
X8689854Y8836500D02*
X9066500D01*
X9070000Y8840000D01*
X8686355Y8833001D02*
X8689854Y8836500D01*
X8995000Y8965000D02*
X9000000Y8970000D01*
X8686355Y8960001D02*
X8691354Y8965000D01*
X8995000D01*
X7975000Y8835000D02*
X7980000Y8840000D01*
X7745000Y8835000D02*
X7975000D01*
X7740000Y8830000D02*
X7745000Y8835000D01*
X7750000Y8710000D02*
X8050000D01*
X7740000Y8570000D02*
X8120000D01*
X7750000Y8060000D02*
X8410000D01*
X7755000Y8205000D02*
X8335000D01*
X7750000Y8210000D02*
X7755000Y8205000D01*
X7750000Y6140000D02*
X8410000D01*
X7740000Y8450000D02*
X8190000D01*
X7755000Y8325000D02*
X8255000D01*
X7750000Y8330000D02*
X7755000Y8325000D01*
X7740000Y6910000D02*
X7745000Y6915000D01*
X7975000D01*
X7980000Y6920000D01*
X7750000Y6790000D02*
X8050000D01*
X7740000Y6650000D02*
X8120000D01*
X7740000Y6530000D02*
X8190000D01*
X7750000Y6410000D02*
X7755000Y6405000D01*
X8265000D01*
X8270000Y6400000D01*
X8332700Y6285000D02*
X8337700Y6280000D01*
X7755000Y6285000D02*
X8332700D01*
X7750000Y6290000D02*
X7755000Y6285000D01*
X7750000Y4220000D02*
X8410000D01*
X7750000Y4370000D02*
X7755000Y4365000D01*
X8335000D01*
X8340000Y4360000D01*
X8255000Y4485000D02*
X8260000Y4480000D01*
X7755000Y4485000D02*
X8255000D01*
X7750000Y4490000D02*
X7755000Y4485000D01*
X7740000Y4610000D02*
X8190000D01*
X7740000Y4730000D02*
X8120000D01*
X7750000Y4870000D02*
X8050000D01*
X7975000Y4995000D02*
X7980000Y5000000D01*
X7745000Y4995000D02*
X7975000D01*
X7740000Y4990000D02*
X7745000Y4995000D01*
X8335000Y8205000D02*
X8340000Y8200000D01*
X8255000Y8325000D02*
X8260000Y8320000D01*
X5480000Y3150000D02*
X5830000D01*
X6279000Y2701000D01*
X6300000D01*
X5470000Y1779235D02*
Y2391000D01*
X6300000Y2701000D02*
X6307499Y2693501D01*
X6507499D01*
X5809000Y1370000D02*
X5830000D01*
X5769000Y1410000D02*
X5809000Y1370000D01*
X5769000Y1410000D02*
Y1431000D01*
X5690000Y1510000D02*
X5769000Y1431000D01*
X5690000Y1510000D02*
Y2051000D01*
X5470000Y1779235D02*
X5600000Y1649235D01*
Y990000D02*
X5630000Y960000D01*
X5600000Y990000D02*
Y1649235D01*
X5930000Y1510000D02*
X5950000Y1530000D01*
D14*
X310000Y3410000D02*
D03*
X510000D02*
D03*
X920000Y3410000D02*
D03*
X720000D02*
D03*
X1440000Y9190000D02*
D03*
X1640000D02*
D03*
X1450000Y9740000D02*
D03*
X1650000D02*
D03*
X6140000Y590000D02*
D03*
X5940000D02*
D03*
X5630000Y960000D02*
D03*
X5830000D02*
D03*
X5950000Y1530000D02*
D03*
X6150000D02*
D03*
X6630000Y1260000D02*
D03*
X6830000D02*
D03*
X6470000Y870000D02*
D03*
X6270000D02*
D03*
X8730000Y7310000D02*
D03*
X8530000D02*
D03*
Y9210000D02*
D03*
X8730000D02*
D03*
X7750000Y250000D02*
D03*
X7550000D02*
D03*
X7670000Y1240000D02*
D03*
X7870000D02*
D03*
X7710000Y1520000D02*
D03*
X7510000D02*
D03*
X7680000Y860000D02*
D03*
X7480000D02*
D03*
X7090000Y930000D02*
D03*
X7290000D02*
D03*
X7090000Y1170000D02*
D03*
X7290000D02*
D03*
X4120000Y370000D02*
D03*
X4320000D02*
D03*
X990000Y2260000D02*
D03*
X1190000D02*
D03*
Y1780000D02*
D03*
X990000D02*
D03*
X7550000Y7420000D02*
D03*
X7750000D02*
D03*
X7720000Y9340000D02*
D03*
X7520000D02*
D03*
X7770000Y3550000D02*
D03*
X7570000D02*
D03*
X3720000Y1060000D02*
D03*
X3920000D02*
D03*
X3720000Y1270000D02*
D03*
X3920000D02*
D03*
X3350000Y1070000D02*
D03*
X3150000D02*
D03*
X3350000Y1290000D02*
D03*
X3150000D02*
D03*
X3720000Y370000D02*
D03*
X3920000D02*
D03*
X3040000Y360000D02*
D03*
X3240000D02*
D03*
X7560000Y5500000D02*
D03*
X7760000D02*
D03*
X8730000Y5390000D02*
D03*
X8530000D02*
D03*
X5850000Y3291001D02*
D03*
X6050000D02*
D03*
X7550000Y630000D02*
D03*
X7750000D02*
D03*
X2880000Y9610000D02*
D03*
X2680000D02*
D03*
X2880000Y9410000D02*
D03*
X2680000D02*
D03*
X5190000Y7260000D02*
D03*
X5390000D02*
D03*
X5960000Y8460000D02*
D03*
X5760000D02*
D03*
X5600000Y8060000D02*
D03*
X5400000D02*
D03*
X8720000Y3430000D02*
D03*
X8520000D02*
D03*
D21*
X1690000Y2070000D02*
D03*
Y1870000D02*
D03*
X5830000Y1370000D02*
D03*
Y1170000D02*
D03*
X840000Y2550000D02*
D03*
Y2750000D02*
D03*
X6300000Y2701000D02*
D03*
Y2901000D02*
D03*
X6500000Y2701000D02*
D03*
Y2901000D02*
D03*
X4640000Y2110000D02*
D03*
Y1910000D02*
D03*
X4390000Y2100000D02*
D03*
Y1900000D02*
D03*
X6629999Y7220000D02*
D03*
Y7420000D02*
D03*
X6840000Y8120000D02*
D03*
Y8320000D02*
D03*
D32*
X200000Y8080000D02*
X1923881D01*
X2038120D02*
X2120000D01*
X100000Y7980000D02*
X200000Y8080000D01*
X2120000D02*
X2170000Y8130000D01*
X1923881Y8080000D02*
X1930880Y8073000D01*
X2031120D01*
X2038120Y8080000D01*
X316000Y8326000D02*
X2084000D01*
X190000Y8200000D02*
X316000Y8326000D01*
X2084000D02*
X2150000Y8260000D01*
X1930880Y5521000D02*
X2932381D01*
X1080000Y5520000D02*
X1929880D01*
X1930880Y5521000D01*
X2932381D02*
X2986882Y5466500D01*
X1590000Y6040000D02*
X2260000D01*
X1260000Y5710000D02*
X1590000Y6040000D01*
X2260000D02*
X2579500Y5720500D01*
X6320000Y8320000D02*
X6840000D01*
X6320000Y8320000D02*
X6320000Y8320000D01*
X8330000Y3680000D02*
X8710000D01*
X8160000Y3510000D02*
X8330000Y3680000D01*
X8160000Y2580000D02*
Y3510000D01*
X7100000Y1520000D02*
X8160000Y2580000D01*
X7750000Y5469000D02*
Y5520000D01*
X7740000Y3580000D02*
X7770000Y3550000D01*
X7749000Y3550000D02*
X7800000Y3499000D01*
X7750000Y7420000D02*
Y7441000D01*
X7740000Y3580000D02*
Y3610000D01*
X7800000Y3490000D02*
Y3499000D01*
X8520000Y3430000D02*
Y3430000D01*
X8525000Y9205000D02*
X8530000Y9210000D01*
X8520000Y1030000D02*
X8520000Y1030000D01*
X5480000Y880000D02*
Y1162500D01*
X5330000Y1312500D02*
X5480000Y1162500D01*
X5330000Y1312500D02*
Y1345000D01*
X5110000Y1240000D02*
X5257500D01*
X5330000Y1312500D01*
X4402000Y1240000D02*
X5110000D01*
X6277425Y856425D02*
Y879500D01*
X6216925Y819000D02*
X6240000D01*
X6277425Y856425D01*
X5610000Y750000D02*
X6147925D01*
X5480000Y880000D02*
X5610000Y750000D01*
X6147925D02*
X6216925Y819000D01*
X3762000Y600000D02*
X4402000Y1240000D01*
X3762000Y566852D02*
Y600000D01*
X3720000Y370000D02*
Y524851D01*
X3762000Y566852D01*
X4635000Y1905000D02*
X4640000Y1910000D01*
X4407500Y1905000D02*
X4635000D01*
X6920000Y1530000D02*
X7090000Y1360000D01*
Y1170000D02*
Y1360000D01*
X7290000Y440000D02*
Y930000D01*
X7550000Y250000D02*
Y630000D01*
X4320000Y370000D02*
Y516852D01*
Y349000D02*
Y370000D01*
X4270000Y566852D02*
Y600000D01*
Y566852D02*
X4320000Y516852D01*
X5120000Y290000D02*
X5226790Y183210D01*
X5321790D01*
X5350000Y155000D01*
X4350000Y319000D02*
X4371000D01*
X4400000Y290000D01*
X4320000Y349000D02*
X4350000Y319000D01*
X5120000Y290000D02*
X5120000D01*
X4400000D02*
X5120000D01*
X7290000Y1176500D02*
X7320000Y1206500D01*
X7290000Y1170000D02*
Y1176500D01*
X1050000Y5280000D02*
X2927382D01*
X1000000Y5330000D02*
X1050000Y5280000D01*
X2927382D02*
X2986882Y5339500D01*
X2995000D01*
X2385260Y8384740D02*
X2974740D01*
X2199840Y8570160D02*
X2385260Y8384740D01*
X360160Y8570160D02*
X2199840D01*
X270000Y8480000D02*
X360160Y8570160D01*
X590000Y7130000D02*
X1630000D01*
X1810000Y7310000D01*
X2345000Y7115000D02*
X2990000D01*
X2150000Y7310000D02*
X2345000Y7115000D01*
X1810000Y7310000D02*
X2150000D01*
X1690000Y4700000D02*
X1880000Y4510000D01*
X2190000D01*
X2352000Y4348000D01*
X2990000D01*
X900000Y7240000D02*
X1220000Y7560000D01*
X2170000D01*
X2488000Y7242000D02*
X2990000D01*
X2170000Y7560000D02*
X2488000Y7242000D01*
X830000Y6750000D02*
X1680000D01*
X1871160Y6558840D01*
X2548840D01*
X2724000Y6734000D02*
X2990000D01*
X2548840Y6558840D02*
X2724000Y6734000D01*
X2733000Y3710000D02*
X2990000Y3967000D01*
X1980000Y3710000D02*
X2733000D01*
X1460000Y4230000D02*
X1980000Y3710000D01*
X1170000Y5610000D02*
X1560001D01*
X2466500Y5593500D02*
X2995000D01*
X2294840Y5765160D02*
X2466500Y5593500D01*
X1715161Y5765160D02*
X2294840D01*
X1560001Y5610000D02*
X1715161Y5765160D01*
X2538000Y4638000D02*
X2540000Y4640000D01*
X1981000Y4638000D02*
X2538000D01*
X678118Y6970000D02*
X768118Y7060000D01*
X2070000D01*
X670000Y6970000D02*
X678118D01*
X2070000Y7060000D02*
X2142000Y6988000D01*
X2990000D01*
X2150000Y8260000D02*
X2980000D01*
X2952882Y4250000D02*
X2981882Y4221000D01*
X2990000D01*
X1870000Y4250000D02*
X2952882D01*
X1600000Y4520000D02*
X1870000Y4250000D01*
X1981000Y6162000D02*
X1985000Y6166000D01*
X2496000D01*
X2500000Y6170000D01*
X110000Y3930000D02*
Y4310000D01*
Y3930000D02*
X460000Y3580000D01*
X2960000D01*
X3140000Y3760000D01*
Y4325000D01*
X2990000Y4475000D02*
X3140000Y4325000D01*
X2986882Y5466500D02*
X2995000D01*
X2170000Y8130000D02*
X2990000D01*
X750000Y6840000D02*
X1790000D01*
X1840000Y6790000D01*
X2161000Y6861000D02*
X2990000D01*
X1840000Y6790000D02*
X2090000D01*
X2161000Y6861000D01*
X3150000Y1290000D02*
Y1500000D01*
X3150000Y1290000D02*
X3150000Y1290000D01*
X3150000Y1070000D02*
Y1290000D01*
X1966741Y5414260D02*
X1981000Y5400000D01*
X1343440Y5414260D02*
X1966741D01*
X1337700Y5420000D02*
X1343440Y5414260D01*
X2896000Y4000000D02*
X2990000Y4094000D01*
X1920000Y4000000D02*
X2896000D01*
X1510000Y4410000D02*
X1920000Y4000000D01*
X1510000Y4780000D02*
X2410000D01*
X450000Y4649000D02*
X1379000D01*
X1510000Y4780000D01*
X2579500Y5720500D02*
X2995000D01*
X2123500Y9223000D02*
X2310500Y9410000D01*
X2680000D01*
X1996500Y9223000D02*
X2383500Y9610000D01*
X2680000D01*
X3000000Y600000D02*
X3020000Y580000D01*
Y380000D02*
Y580000D01*
Y380000D02*
X3040000Y360000D01*
X3916000Y1274000D02*
X3920000Y1270000D01*
Y1060000D02*
Y1270000D01*
X3916000Y1274000D02*
Y1496000D01*
X3912000Y1500000D02*
X3916000Y1496000D01*
D34*
X1400000Y825000D02*
D03*
D35*
X1880000Y530000D02*
D03*
D36*
X1400000Y245000D02*
D03*
D37*
X6390000Y7193000D02*
D03*
D38*
Y7447000D02*
D03*
D39*
X5120000Y290000D02*
D03*
X5110000Y1040000D02*
D03*
X2190000Y2070000D02*
D03*
D40*
X5120000Y490000D02*
D03*
X5110000Y1240000D02*
D03*
X2190000Y1870000D02*
D03*
D41*
X1410000Y1250000D02*
D03*
X900000D02*
D03*
D42*
X9800000Y5889000D02*
D03*
Y5381000D02*
D03*
Y4619000D02*
D03*
Y3603000D02*
D03*
Y3349000D02*
D03*
Y3857000D02*
D03*
Y4111000D02*
D03*
Y4365000D02*
D03*
Y4873000D02*
D03*
Y5127000D02*
D03*
Y5635000D02*
D03*
Y6143000D02*
D03*
Y6397000D02*
D03*
Y6651000D02*
D03*
Y6905000D02*
D03*
X1981000Y8448000D02*
D03*
X450000Y4141000D02*
D03*
X1981000Y4384000D02*
D03*
Y3876000D02*
D03*
Y4892000D02*
D03*
Y5908000D02*
D03*
Y6670000D02*
D03*
Y5654000D02*
D03*
X450000Y6935000D02*
D03*
Y6681000D02*
D03*
Y5157000D02*
D03*
Y4649000D02*
D03*
X1981000Y7686000D02*
D03*
Y5400000D02*
D03*
X450000Y4395000D02*
D03*
Y5665000D02*
D03*
Y7189000D02*
D03*
Y8205000D02*
D03*
Y6427000D02*
D03*
X1981000Y6162000D02*
D03*
Y7432000D02*
D03*
Y6924000D02*
D03*
X450000Y7443000D02*
D03*
Y5919000D02*
D03*
X1981000Y4638000D02*
D03*
Y6416000D02*
D03*
Y5146000D02*
D03*
X450000Y8459000D02*
D03*
X1981000Y7940000D02*
D03*
X450000Y3887000D02*
D03*
X1981000Y8194000D02*
D03*
X450000Y5411000D02*
D03*
Y4903000D02*
D03*
X1981000Y7178000D02*
D03*
X450000Y6173000D02*
D03*
Y7697000D02*
D03*
Y7951000D02*
D03*
X1981000Y4130000D02*
D03*
D43*
X9800000Y3095000D02*
D03*
X450000Y8713000D02*
D03*
X1981000Y8702000D02*
D03*
D44*
X4270000Y600000D02*
D03*
X4016000D02*
D03*
X3762000D02*
D03*
X3000000D02*
D03*
X3254000D02*
D03*
D45*
X7798000Y440000D02*
D03*
D46*
X7544000D02*
D03*
X7290000D02*
D03*
X6870000Y7440000D02*
D03*
Y7186000D02*
D03*
D47*
Y7694000D02*
D03*
D48*
X3658000Y1500000D02*
D03*
X3912000D02*
D03*
X3404000D02*
D03*
D49*
X3150000D02*
D03*
D50*
X5619997Y7219996D02*
D03*
X8499995Y6259996D02*
D03*
X4819997Y4979997D02*
D03*
X4179997Y2099998D02*
D03*
X9299995Y2419998D02*
D03*
X4899997Y4819997D02*
D03*
X5299997Y4979997D02*
D03*
X5219997Y1619998D02*
D03*
X6579996Y2419998D02*
D03*
X7059996Y9779995D02*
D03*
X5779997Y3699997D02*
D03*
X8099995Y8979995D02*
D03*
X4739997Y659999D02*
D03*
X9459995Y8499995D02*
D03*
X8099995Y2259998D02*
D03*
X8819995Y819999D02*
D03*
Y9459995D02*
D03*
X5299997Y1779998D02*
D03*
X6099996Y2099998D02*
D03*
X5219997Y9619995D02*
D03*
Y9299995D02*
D03*
X8979995Y179999D02*
D03*
X4419997Y3859997D02*
D03*
X4499997Y6259996D02*
D03*
X8259995Y9299995D02*
D03*
X5379997Y9619995D02*
D03*
X4739997Y6099996D02*
D03*
X7219996Y6899996D02*
D03*
X7459996Y4499997D02*
D03*
X8979995Y2419998D02*
D03*
X6019996Y2259998D02*
D03*
X8419995Y8339996D02*
D03*
X4899997Y6739996D02*
D03*
X5139997Y8819995D02*
D03*
X9859995Y2259998D02*
D03*
X9779995Y1779998D02*
D03*
X8259995Y1619998D02*
D03*
X3699997Y9779995D02*
D03*
X4659997Y1459998D02*
D03*
X6419996Y1779998D02*
D03*
X4419997Y8339996D02*
D03*
X8499995Y2739998D02*
D03*
X7059996Y6259996D02*
D03*
X5059997Y9299995D02*
D03*
X6259996Y2099998D02*
D03*
X9779995Y1459998D02*
D03*
X9379995Y1939998D02*
D03*
X6739996Y5619997D02*
D03*
X4979997Y9779995D02*
D03*
X5299997Y4659997D02*
D03*
X5059997Y5139997D02*
D03*
X9539995Y6099996D02*
D03*
X7379996Y9139995D02*
D03*
X8659995Y9459995D02*
D03*
X7539996Y8179996D02*
D03*
X6339996Y7699996D02*
D03*
X9139995Y9139995D02*
D03*
X9699995Y2259998D02*
D03*
X9619995Y7219996D02*
D03*
X9779995Y1139998D02*
D03*
X9859995Y7059996D02*
D03*
X4579997Y6419996D02*
D03*
X8499995Y179999D02*
D03*
X6579996Y8819995D02*
D03*
X4579997Y659999D02*
D03*
X7219996Y179999D02*
D03*
X9619995Y4659997D02*
D03*
X6259996Y5939997D02*
D03*
X9539995Y8659995D02*
D03*
X3859997Y179999D02*
D03*
X7939996Y9299995D02*
D03*
X8339996Y9779995D02*
D03*
X6739996Y5299997D02*
D03*
X6579996Y9459995D02*
D03*
X8899995Y659999D02*
D03*
X8579995Y1619998D02*
D03*
X8019996Y179999D02*
D03*
X7379996Y7539996D02*
D03*
X5619997D02*
D03*
X9699995Y8019996D02*
D03*
X4659997Y1779998D02*
D03*
X9859995Y1939998D02*
D03*
X5619997Y5939997D02*
D03*
X9539995Y8979995D02*
D03*
X4579997Y1619998D02*
D03*
X4739997D02*
D03*
X9059995Y2259998D02*
D03*
X4739997Y979999D02*
D03*
X4499997Y5939997D02*
D03*
X6899996Y6899996D02*
D03*
X6419996Y9139995D02*
D03*
X6019996Y3859997D02*
D03*
Y6419996D02*
D03*
X9699995Y8659995D02*
D03*
X4739997Y2579998D02*
D03*
X8819995Y179999D02*
D03*
X4259997Y2579998D02*
D03*
X8419995Y8659995D02*
D03*
X5859996Y9299995D02*
D03*
X7459996Y8659995D02*
D03*
X9459995Y1779998D02*
D03*
X4659997Y499999D02*
D03*
X5219997Y1939998D02*
D03*
X4659997Y819999D02*
D03*
X7859996Y179999D02*
D03*
X6259996Y9459995D02*
D03*
X9859995Y8659995D02*
D03*
X6259996Y499999D02*
D03*
X4819997Y7539996D02*
D03*
X6099996Y4979997D02*
D03*
X6899996Y3059998D02*
D03*
X7379996Y8499995D02*
D03*
X8099995Y339999D02*
D03*
X4339997Y6579996D02*
D03*
X4819997Y8179996D02*
D03*
X6659996Y7059996D02*
D03*
X6099996Y2419998D02*
D03*
X3699997Y9459995D02*
D03*
X4579997Y2259998D02*
D03*
X6339996Y2579998D02*
D03*
X5459997Y4979997D02*
D03*
X5059997Y2579998D02*
D03*
X3779997Y9619995D02*
D03*
X6259996Y8179996D02*
D03*
X7219996Y7219996D02*
D03*
X6979996Y1619998D02*
D03*
X4339997Y1779998D02*
D03*
X5379997Y4819997D02*
D03*
X4659997Y4659997D02*
D03*
X8019996Y499999D02*
D03*
X9379995Y8979995D02*
D03*
X4339997Y2419998D02*
D03*
X7459996Y6739996D02*
D03*
X6339996Y4819997D02*
D03*
X6259996Y2419998D02*
D03*
X6739996Y1779998D02*
D03*
X8579995Y659999D02*
D03*
X9539995Y7699996D02*
D03*
X5459997Y3699997D02*
D03*
X4579997Y9299995D02*
D03*
X4499997Y819999D02*
D03*
X4979997D02*
D03*
X6899996Y9459995D02*
D03*
X4659997Y9779995D02*
D03*
X4739997Y4819997D02*
D03*
X6499996Y3539997D02*
D03*
X8739995Y659999D02*
D03*
X9539995Y4499997D02*
D03*
X5059997Y6419996D02*
D03*
X8979995Y1459998D02*
D03*
X9779995Y8819995D02*
D03*
X5299997Y3379998D02*
D03*
X7459996Y8339996D02*
D03*
X4179997Y3059998D02*
D03*
X4419997Y2259998D02*
D03*
X4659997Y3379998D02*
D03*
X5619997Y9779995D02*
D03*
X7859996D02*
D03*
X7539996Y6579996D02*
D03*
X9379995Y2259998D02*
D03*
X5779997Y6259996D02*
D03*
X6659996Y3539997D02*
D03*
X3859997Y819999D02*
D03*
X6179996Y3539997D02*
D03*
X5619997Y4979997D02*
D03*
X5219997Y2259998D02*
D03*
X6339996Y6099996D02*
D03*
X4819997Y1459998D02*
D03*
X9139995Y1779998D02*
D03*
X8659995Y9779995D02*
D03*
X6899996Y499999D02*
D03*
X5539997Y3859997D02*
D03*
X9779995Y8179996D02*
D03*
X6499996Y2259998D02*
D03*
X4979997Y1459998D02*
D03*
X6499996Y7699996D02*
D03*
X7859996Y9459995D02*
D03*
X5939997Y5939997D02*
D03*
X9619995Y4019997D02*
D03*
X4339997Y9459995D02*
D03*
X6899996Y5299997D02*
D03*
X9059995Y979999D02*
D03*
X9459995Y2419998D02*
D03*
X6339996Y339999D02*
D03*
X7939996D02*
D03*
X6499996Y8659995D02*
D03*
X5619997Y3379998D02*
D03*
X9219995Y1939998D02*
D03*
X4019997Y6259996D02*
D03*
X4579997Y4819997D02*
D03*
X4659997Y8179996D02*
D03*
X6099996Y179999D02*
D03*
X6899996Y8819995D02*
D03*
X7459996Y5139997D02*
D03*
X6899996Y3379998D02*
D03*
X9059995Y1619998D02*
D03*
X5539997Y2579998D02*
D03*
X9219995Y979999D02*
D03*
X8419995Y9619995D02*
D03*
X4899997Y659999D02*
D03*
X7299996Y7059996D02*
D03*
X4499997Y2419998D02*
D03*
X9139995Y1139998D02*
D03*
X9859995Y8979995D02*
D03*
X4099997Y7699996D02*
D03*
X7379996Y179999D02*
D03*
X6419996Y499999D02*
D03*
X5059997Y8339996D02*
D03*
X6419996Y5939997D02*
D03*
X4099997Y3539997D02*
D03*
X4979997Y7539996D02*
D03*
X8899995Y9619995D02*
D03*
X6819996Y5459997D02*
D03*
X6979996Y7059996D02*
D03*
X7379996Y4979997D02*
D03*
X5219997Y4819997D02*
D03*
X4819997Y9139995D02*
D03*
X4499997Y1779998D02*
D03*
X4339997Y819999D02*
D03*
X4659997Y179999D02*
D03*
X4979997Y9139995D02*
D03*
X6979996Y5459997D02*
D03*
X9299995Y1779998D02*
D03*
X8019996Y9459995D02*
D03*
X6259996Y3699997D02*
D03*
X5939997Y6579996D02*
D03*
X5539997Y7699996D02*
D03*
X5699996Y4819997D02*
D03*
X4419997Y9299995D02*
D03*
X5699996Y659999D02*
D03*
X6979996Y8659995D02*
D03*
X5859996Y1939998D02*
D03*
X8179996Y1779998D02*
D03*
X5779997Y8179996D02*
D03*
X8419995Y8979995D02*
D03*
X9219995Y2259998D02*
D03*
X3939997D02*
D03*
X6579996Y3699997D02*
D03*
X5699996Y6739996D02*
D03*
X8339996Y499999D02*
D03*
X9539995Y7379996D02*
D03*
X6739996Y9779995D02*
D03*
X4739997Y9619995D02*
D03*
X5139997Y6259996D02*
D03*
X3859997Y4979997D02*
D03*
X4099997Y4819997D02*
D03*
X5779997Y9139995D02*
D03*
X8019996Y1459998D02*
D03*
X4099997Y1299998D02*
D03*
X4499997Y4979997D02*
D03*
X5619997Y6259996D02*
D03*
X4419997Y659999D02*
D03*
X5779997Y7539996D02*
D03*
X5619997Y4659997D02*
D03*
X7139996Y339999D02*
D03*
X3779997Y1939998D02*
D03*
X3939997Y6099996D02*
D03*
X4179997Y179999D02*
D03*
X4259997Y1299998D02*
D03*
X6419996Y9459995D02*
D03*
X5059997Y1619998D02*
D03*
X6339996Y2259998D02*
D03*
X6739996Y9139995D02*
D03*
X5059997Y9619995D02*
D03*
X5779997Y1779998D02*
D03*
X7059996Y9459995D02*
D03*
X7219996Y1779998D02*
D03*
X9699995Y3219998D02*
D03*
Y1939998D02*
D03*
X4179997Y2419998D02*
D03*
X5539997Y6419996D02*
D03*
X5459997Y3379998D02*
D03*
X7699996Y1779998D02*
D03*
X6819996Y9299995D02*
D03*
X6659996Y339999D02*
D03*
X9299995Y8819995D02*
D03*
X3859997Y1779998D02*
D03*
X7539996Y8819995D02*
D03*
X4259997Y3859997D02*
D03*
X9139995Y819999D02*
D03*
X8179996D02*
D03*
X9459995Y8819995D02*
D03*
X9859995Y979999D02*
D03*
X4659997Y5939997D02*
D03*
X8339996Y8819995D02*
D03*
X4179997Y1459998D02*
D03*
X4019997Y1779998D02*
D03*
X9219995Y2579998D02*
D03*
X8179996Y9779995D02*
D03*
X7539996Y1779998D02*
D03*
X4979997Y8819995D02*
D03*
X4739997Y9299995D02*
D03*
X6819996Y7059996D02*
D03*
X4099997Y6099996D02*
D03*
X7379996Y8819995D02*
D03*
X9459995Y1139998D02*
D03*
X5779997Y4659997D02*
D03*
X6499996Y3859997D02*
D03*
X9059995Y9619995D02*
D03*
X9539995Y1299998D02*
D03*
X4819997Y3379998D02*
D03*
X8499995Y4659997D02*
D03*
X5059997Y6739996D02*
D03*
X9459995Y2099998D02*
D03*
X9699995Y7699996D02*
D03*
X6659996Y4499997D02*
D03*
X4739997Y5139997D02*
D03*
X5939997Y1779998D02*
D03*
X6899996Y9779995D02*
D03*
X9619995Y7539996D02*
D03*
X6019996Y1939998D02*
D03*
X8659995Y1779998D02*
D03*
X9219995Y1299998D02*
D03*
X4499997Y1139998D02*
D03*
X4899997Y1619998D02*
D03*
X4979997Y9459995D02*
D03*
X6499996Y1939998D02*
D03*
X9859995Y8019996D02*
D03*
X8179996Y499999D02*
D03*
X9699995Y2579998D02*
D03*
X5299997Y3059998D02*
D03*
X9619995Y6259996D02*
D03*
X7059996Y7219996D02*
D03*
X9619995Y2419998D02*
D03*
X9379995Y2899998D02*
D03*
X4179997Y6579996D02*
D03*
X6179996Y3859997D02*
D03*
X7299996Y4819997D02*
D03*
X7539996Y4659997D02*
D03*
X4979997D02*
D03*
X7059996Y8179996D02*
D03*
X9779995Y2099998D02*
D03*
X7139996Y6419996D02*
D03*
X6259996Y3379998D02*
D03*
X6419996Y3699997D02*
D03*
X6579996Y5939997D02*
D03*
X8339996Y9139995D02*
D03*
X7299996Y5139997D02*
D03*
X5379997Y2579998D02*
D03*
X4179997Y7219996D02*
D03*
X4739997Y3859997D02*
D03*
X7059996Y6579996D02*
D03*
X4179997Y9779995D02*
D03*
X4499997Y4659997D02*
D03*
X6259996Y6259996D02*
D03*
X6499996Y5459997D02*
D03*
X4659997Y2419998D02*
D03*
X8659995Y499999D02*
D03*
X5139997Y819999D02*
D03*
X5219997Y8659995D02*
D03*
X7059996Y8499995D02*
D03*
X5859996Y4819997D02*
D03*
X9059995Y2579998D02*
D03*
X4819997Y499999D02*
D03*
X8339996Y1779998D02*
D03*
X6179996Y3219998D02*
D03*
X4499997Y9459995D02*
D03*
X5539997Y4819997D02*
D03*
X6419996Y4659997D02*
D03*
X3859997Y7539996D02*
D03*
X5619997Y9139995D02*
D03*
X7219996Y5619997D02*
D03*
X8419995Y659999D02*
D03*
X4979997Y5939997D02*
D03*
X4819997Y3699997D02*
D03*
X4019997Y179999D02*
D03*
X6579996D02*
D03*
X5939997Y3699997D02*
D03*
X6579996Y9779995D02*
D03*
X6259996D02*
D03*
X7379996Y5619997D02*
D03*
X4819997Y2419998D02*
D03*
X7459996Y4819997D02*
D03*
X5139997Y6579996D02*
D03*
X6979996Y5139997D02*
D03*
X4819997Y9779995D02*
D03*
X6819996Y339999D02*
D03*
X4579997Y979999D02*
D03*
X8739995Y339999D02*
D03*
X5939997Y2099998D02*
D03*
X8259995Y1299998D02*
D03*
X3699997Y819999D02*
D03*
X6099996Y5939997D02*
D03*
X8499995Y1779998D02*
D03*
X4579997Y6099996D02*
D03*
X9139995Y2419998D02*
D03*
X5939997Y9779995D02*
D03*
X3699997Y179999D02*
D03*
X7379996Y5299997D02*
D03*
X8979995Y2099998D02*
D03*
X6019996Y3539997D02*
D03*
X5219997Y3859997D02*
D03*
X6419996Y9779995D02*
D03*
X4499997D02*
D03*
X6339996Y3219998D02*
D03*
X5299997Y9459995D02*
D03*
X7059996Y6899996D02*
D03*
X4259997Y9619995D02*
D03*
X5139997Y4659997D02*
D03*
X8019996Y1779998D02*
D03*
X8259995Y979999D02*
D03*
X9059995Y1299998D02*
D03*
X6659996Y8659995D02*
D03*
X5219997Y5139997D02*
D03*
X5779997Y6579996D02*
D03*
X9139995Y179999D02*
D03*
X6739996Y3699997D02*
D03*
X7299996Y8339996D02*
D03*
X8819995Y1139998D02*
D03*
X9619995D02*
D03*
X4899997Y8339996D02*
D03*
X8659995Y819999D02*
D03*
X9699995Y8339996D02*
D03*
X7699996Y9779995D02*
D03*
X5539997Y6099996D02*
D03*
X6499996Y9299995D02*
D03*
X4819997Y2099998D02*
D03*
X6659996Y1939998D02*
D03*
X6819996Y8659995D02*
D03*
X9299995Y2739998D02*
D03*
X9059995Y1939998D02*
D03*
X9859995Y1619998D02*
D03*
X7539996Y6259996D02*
D03*
X6899996Y1779998D02*
D03*
X6419996Y3379998D02*
D03*
Y8819995D02*
D03*
X6579996Y5619997D02*
D03*
X6979996Y4179997D02*
D03*
X5859996Y7699996D02*
D03*
X4899997Y2579998D02*
D03*
X7219996Y9459995D02*
D03*
X9219995Y8979995D02*
D03*
X9379995Y1619998D02*
D03*
X7139996Y7379996D02*
D03*
X4499997Y8819995D02*
D03*
X8339996Y1139998D02*
D03*
X5379997Y5139997D02*
D03*
X4339997Y4979997D02*
D03*
X6179996Y6099996D02*
D03*
X6579996Y1779998D02*
D03*
X6659996Y5459997D02*
D03*
X9619995Y2739998D02*
D03*
X9539995Y3219998D02*
D03*
X8419995Y1619998D02*
D03*
X9779995Y7539996D02*
D03*
X4419997Y5139997D02*
D03*
X4979997Y1139998D02*
D03*
X6179996Y2259998D02*
D03*
X8499995Y6579996D02*
D03*
X9699995Y979999D02*
D03*
X9779995Y7859996D02*
D03*
X9619995Y4339997D02*
D03*
X4099997Y2259998D02*
D03*
X6099996Y4659997D02*
D03*
X4179997Y4979997D02*
D03*
X5619997Y8819995D02*
D03*
X6419996Y8179996D02*
D03*
X4339997Y3059998D02*
D03*
X4819997Y179999D02*
D03*
X6099996Y3699997D02*
D03*
X8499995Y9779995D02*
D03*
X9459995Y1459998D02*
D03*
X5939997Y6259996D02*
D03*
X6419996Y5619997D02*
D03*
X9539995Y1939998D02*
D03*
X5859996Y6099996D02*
D03*
X8019996Y2099998D02*
D03*
X5539997Y8659995D02*
D03*
X7059996Y9139995D02*
D03*
X8739995Y979999D02*
D03*
X9699995Y2899998D02*
D03*
X6099996Y6259996D02*
D03*
X6019996Y9299995D02*
D03*
X8339996Y2099998D02*
D03*
X6499996Y7059996D02*
D03*
X5059997Y3859997D02*
D03*
X9539995Y2899998D02*
D03*
X5779997Y9459995D02*
D03*
X9539995Y1619998D02*
D03*
X7219996Y8179996D02*
D03*
X9859995Y7379996D02*
D03*
X7139996Y8339996D02*
D03*
X9619995Y7859996D02*
D03*
X8979995Y819999D02*
D03*
X9779995Y9139995D02*
D03*
X7379996Y8179996D02*
D03*
X6819996Y5139997D02*
D03*
X8099995Y979999D02*
D03*
X4179997Y1139998D02*
D03*
X6739996Y9459995D02*
D03*
X9379995Y1299998D02*
D03*
X4179997Y9139995D02*
D03*
X4419997Y4819997D02*
D03*
X8979995Y499999D02*
D03*
X4899997Y3859997D02*
D03*
X8739995Y1619998D02*
D03*
X5539997Y5139997D02*
D03*
X6739996Y8499995D02*
D03*
X4979997Y6579996D02*
D03*
X6739996Y3379998D02*
D03*
X7539996Y8499995D02*
D03*
X7379996Y6259996D02*
D03*
X5859996Y6419996D02*
D03*
X5779997Y5299997D02*
D03*
X6739996Y179999D02*
D03*
X4019997Y7539996D02*
D03*
X9059995Y339999D02*
D03*
X4899997Y9619995D02*
D03*
X8019996Y9779995D02*
D03*
X4579997Y8659995D02*
D03*
X6099996Y9139995D02*
D03*
X5139997Y4979997D02*
D03*
X7139996Y7059996D02*
D03*
X6099996Y8819995D02*
D03*
X5779997Y3059998D02*
D03*
X7379996Y9779995D02*
D03*
X5939997Y179999D02*
D03*
X6499996Y1299998D02*
D03*
X3939997Y7699996D02*
D03*
X4899997D02*
D03*
X5539997Y659999D02*
D03*
X7059996Y8819995D02*
D03*
X4819997Y8499995D02*
D03*
X4659997Y3699997D02*
D03*
X4579997Y8339996D02*
D03*
X4899997Y5139997D02*
D03*
X9299995Y1139998D02*
D03*
X4659997D02*
D03*
X4259997Y2259998D02*
D03*
X4739997D02*
D03*
X5059997Y4819997D02*
D03*
X4579997Y3539997D02*
D03*
X7219996Y5299997D02*
D03*
X5139997Y9779995D02*
D03*
X6179996Y7699996D02*
D03*
X5379997Y1939998D02*
D03*
X7059996Y5299997D02*
D03*
X9299995Y2099998D02*
D03*
X7219996Y8819995D02*
D03*
X4979997Y4979997D02*
D03*
X4019997Y3379998D02*
D03*
X7539996Y5299997D02*
D03*
X4819997Y1779998D02*
D03*
X6979996Y2259998D02*
D03*
X7219996Y8499995D02*
D03*
X7139996Y4819997D02*
D03*
X4339997Y3699997D02*
D03*
X4019997Y9139995D02*
D03*
X8499995Y9459995D02*
D03*
X8819995Y9779995D02*
D03*
X5459997D02*
D03*
X4339997D02*
D03*
X5779997Y5939997D02*
D03*
X5299997Y2419998D02*
D03*
X5699996Y9299995D02*
D03*
X6739996Y499999D02*
D03*
X5779997Y9779995D02*
D03*
X7379996Y7219996D02*
D03*
X8099995Y9299995D02*
D03*
X9539995Y979999D02*
D03*
X5699996Y6099996D02*
D03*
X8899995Y9299995D02*
D03*
X5379997Y3859997D02*
D03*
X6259996Y3059998D02*
D03*
Y9139995D02*
D03*
X9139995Y1459998D02*
D03*
X9539995Y8019996D02*
D03*
X8419995Y339999D02*
D03*
X4659997Y6259996D02*
D03*
X6739996Y6579996D02*
D03*
X8899995Y339999D02*
D03*
X6899996Y5619997D02*
D03*
X4819997Y1139998D02*
D03*
X5539997Y9299995D02*
D03*
X9859995Y2579998D02*
D03*
X3859997Y3379998D02*
D03*
X5139997Y1459998D02*
D03*
X7299996Y5459997D02*
D03*
X8499995Y3059998D02*
D03*
X5779997Y4979997D02*
D03*
X5939997Y9459995D02*
D03*
X8979995Y9779995D02*
D03*
X6179996Y339999D02*
D03*
X9619995Y8179996D02*
D03*
X3939997Y3539997D02*
D03*
X8099995Y1619998D02*
D03*
X8579995Y9619995D02*
D03*
X4979997Y3699997D02*
D03*
X9619995Y8819995D02*
D03*
X7459996Y6419996D02*
D03*
X9299995Y1459998D02*
D03*
X4899997Y6099996D02*
D03*
X9379995Y8659995D02*
D03*
X5139997Y3699997D02*
D03*
X7299996Y8659995D02*
D03*
X6259996Y179999D02*
D03*
X5779997Y8819995D02*
D03*
X7219996Y4979997D02*
D03*
X9539995Y2259998D02*
D03*
X5059997Y659999D02*
D03*
X8419995Y1299998D02*
D03*
X8899995Y979999D02*
D03*
X9699995Y1619998D02*
D03*
X6979996Y6419996D02*
D03*
X7139996Y7699996D02*
D03*
X4419997Y9619995D02*
D03*
X5699996Y7699996D02*
D03*
X6979996Y8339996D02*
D03*
X5299997Y3699997D02*
D03*
X4659997Y9139995D02*
D03*
X7219996D02*
D03*
X8259995Y339999D02*
D03*
X4179997Y3699997D02*
D03*
X5779997Y7219996D02*
D03*
X6099996Y9459995D02*
D03*
X6419996Y2419998D02*
D03*
X4179997Y7859996D02*
D03*
X9779995Y2739998D02*
D03*
X4499997Y499999D02*
D03*
X6899996Y9139995D02*
D03*
X9539995Y6419996D02*
D03*
X7539996Y4979997D02*
D03*
X9699995Y1299998D02*
D03*
X4979997Y179999D02*
D03*
X5219997Y6739996D02*
D03*
X8099995Y1939998D02*
D03*
X5139997Y9459995D02*
D03*
X8499995Y1459998D02*
D03*
X4739997Y7699996D02*
D03*
X6259996Y1779998D02*
D03*
X6899996Y179999D02*
D03*
X8179996D02*
D03*
X6739996Y8819995D02*
D03*
X8659995Y179999D02*
D03*
X9219995Y1619998D02*
D03*
X9859995Y2899998D02*
D03*
X4339997Y179999D02*
D03*
X9059995Y659999D02*
D03*
X5379997Y339999D02*
D03*
X9619995Y1459998D02*
D03*
X6659996Y7699996D02*
D03*
X6419996Y2099998D02*
D03*
X9139995Y9779995D02*
D03*
X4579997Y9619995D02*
D03*
X9779995Y2419998D02*
D03*
X6979996Y9299995D02*
D03*
X8579995Y339999D02*
D03*
X8979995Y1139998D02*
D03*
X8339996Y1459998D02*
D03*
X5699996Y339999D02*
D03*
X7539996Y9779995D02*
D03*
Y9139995D02*
D03*
X4179997Y819999D02*
D03*
X4499997Y8499995D02*
D03*
X7059996Y5619997D02*
D03*
X4659997Y4979997D02*
D03*
X4819997Y9459995D02*
D03*
X9619995Y8499995D02*
D03*
X4979997Y3379998D02*
D03*
X8979995Y9139995D02*
D03*
X4499997Y3059998D02*
D03*
X6099996Y1779998D02*
D03*
X8019996Y1139998D02*
D03*
X9379995Y979999D02*
D03*
X5619997Y9459995D02*
D03*
X6499996Y339999D02*
D03*
X6979996D02*
D03*
X5139997Y3059998D02*
D03*
X7059996Y3379998D02*
D03*
X9859995Y1299998D02*
D03*
X5939997Y9139995D02*
D03*
X6019996Y5139997D02*
D03*
X5219997Y2579998D02*
D03*
X4419997Y8659995D02*
D03*
X4579997Y2579998D02*
D03*
X5939997Y8819995D02*
D03*
X9699995Y8979995D02*
D03*
X4419997Y979999D02*
D03*
X9619995Y1779998D02*
D03*
X4899997Y2259998D02*
D03*
X6339996Y3539997D02*
D03*
X4499997Y3699997D02*
D03*
X5699996Y6419996D02*
D03*
X4979997Y2419998D02*
D03*
X9059995Y9299995D02*
D03*
X9859995Y8339996D02*
D03*
X7059996Y4979997D02*
D03*
X4659997Y9459995D02*
D03*
X6019996Y6099996D02*
D03*
X7299996Y6419996D02*
D03*
X8499995Y819999D02*
D03*
X6259996Y8819995D02*
D03*
X4579997Y5139997D02*
D03*
X4419997Y6419996D02*
D03*
X5219997D02*
D03*
X4899997Y979999D02*
D03*
X8419995Y1939998D02*
D03*
X7139996Y8659995D02*
D03*
X4659997Y8499995D02*
D03*
X6899996D02*
D03*
X8179996Y1139998D02*
D03*
X4499997Y8179996D02*
D03*
X4019997Y2099998D02*
D03*
X8099995Y1299998D02*
D03*
X8179996Y1459998D02*
D03*
X4179997Y8499995D02*
D03*
X4979997Y499999D02*
D03*
X4419997Y2579998D02*
D03*
X7139996Y5139997D02*
D03*
X8499995Y8819995D02*
D03*
X8019996Y9139995D02*
D03*
X4339997Y8499995D02*
D03*
X6579996Y819999D02*
D03*
X7219996Y6579996D02*
D03*
X4739997Y8339996D02*
D03*
X8499995Y4339997D02*
D03*
X5859996Y3859997D02*
D03*
X5139997Y9139995D02*
D03*
X6579996D02*
D03*
X7299996Y9299995D02*
D03*
X6179996D02*
D03*
X8019996Y819999D02*
D03*
X4819997D02*
D03*
X8499995Y4979997D02*
D03*
X9699995Y7379996D02*
D03*
X4499997Y179999D02*
D03*
X6339996Y3859997D02*
D03*
X7059996Y499999D02*
D03*
X8259995Y8979995D02*
D03*
X5779997Y2419998D02*
D03*
X8339996Y179999D02*
D03*
X9619995Y3699997D02*
D03*
X4259997Y8339996D02*
D03*
X8979995Y9459995D02*
D03*
X7379996Y6579996D02*
D03*
X5779997Y499999D02*
D03*
X6419996Y179999D02*
D03*
X6739996Y6899996D02*
D03*
X6659996Y2259998D02*
D03*
X5619997Y3699997D02*
D03*
X4419997Y6099996D02*
D03*
X7139996Y5459997D02*
D03*
X8819995Y499999D02*
D03*
X4579997Y3859997D02*
D03*
X9859995Y7699996D02*
D03*
X5299997Y9779995D02*
D03*
X6819996Y3539997D02*
D03*
X5299997Y2099998D02*
D03*
X5139997Y2419998D02*
D03*
X5539997Y339999D02*
D03*
X6339996Y1939998D02*
D03*
X5059997Y7699996D02*
D03*
X6579996Y2099998D02*
D03*
Y499999D02*
D03*
X7379996Y4659997D02*
D03*
X8979995Y1779998D02*
D03*
X4019997Y4979997D02*
D03*
X4819997Y4659997D02*
D03*
X4419997Y3539997D02*
D03*
X4499997Y3379998D02*
D03*
X7219996Y6259996D02*
D03*
X9379995Y2579998D02*
D03*
X5379997Y1619998D02*
D03*
X5059997Y8659995D02*
D03*
Y2259998D02*
D03*
X9619995Y2099998D02*
D03*
X4739997Y6739996D02*
D03*
X3939997Y4819997D02*
D03*
X6659996Y9299995D02*
D03*
X9139995Y2099998D02*
D03*
X6899996Y6579996D02*
D03*
X6099996Y9779995D02*
D03*
X5139997Y3379998D02*
D03*
X4259997Y6419996D02*
D03*
X4979997Y3059998D02*
D03*
X4179997Y1779998D02*
D03*
X5619997Y499999D02*
D03*
X9459995Y2739998D02*
D03*
X6819996Y1939998D02*
D03*
X4739997Y8659995D02*
D03*
X5459997Y4659997D02*
D03*
X9779995Y7219996D02*
D03*
X8259995Y1939998D02*
D03*
X9539995Y8339996D02*
D03*
X8659995Y1459998D02*
D03*
X7059996Y179999D02*
D03*
X6579996Y6899996D02*
D03*
X6819996Y1619998D02*
D03*
X8579995Y1299998D02*
D03*
X8739995Y9619995D02*
D03*
X5619997Y6579996D02*
D03*
X7219996Y9779995D02*
D03*
X3859997Y6259996D02*
D03*
X4819997Y6579996D02*
D03*
Y5939997D02*
D03*
X4259997Y5139997D02*
D03*
X4899997Y9299995D02*
D03*
X5299997Y1139998D02*
D03*
X7139996Y9299995D02*
D03*
X7379996Y9459995D02*
D03*
X8179996Y2099998D02*
D03*
X8499995Y499999D02*
D03*
X6339996Y9299995D02*
D03*
X4099997Y8979995D02*
D03*
X6179996Y1939998D02*
D03*
X6579996Y3379998D02*
D03*
X9779995Y8499995D02*
D03*
X9539995Y2579998D02*
D03*
X8179996Y9139995D02*
D03*
X5939997Y4659997D02*
D03*
X5699996Y3859997D02*
D03*
X3219998Y9779995D02*
D03*
X3299997Y9619995D02*
D03*
X3219998Y9459995D02*
D03*
X3299997Y9299995D02*
D03*
Y8979995D02*
D03*
X3219998Y8819995D02*
D03*
X3299997Y8659995D02*
D03*
Y8339996D02*
D03*
Y8019996D02*
D03*
Y7699996D02*
D03*
Y7379996D02*
D03*
Y7059996D02*
D03*
Y6739996D02*
D03*
Y6419996D02*
D03*
Y6099996D02*
D03*
Y5779997D02*
D03*
Y5459997D02*
D03*
Y5139997D02*
D03*
Y4819997D02*
D03*
Y4499997D02*
D03*
Y4179997D02*
D03*
Y3859997D02*
D03*
Y3539997D02*
D03*
Y3219998D02*
D03*
Y2899998D02*
D03*
Y2579998D02*
D03*
X3219998Y2419998D02*
D03*
X3299997Y2259998D02*
D03*
X3219998Y2099998D02*
D03*
X3299997Y1939998D02*
D03*
X3219998Y1779998D02*
D03*
X3299997Y1619998D02*
D03*
X3219998Y819999D02*
D03*
Y179999D02*
D03*
X3059998Y9779995D02*
D03*
X3139998Y9619995D02*
D03*
X3059998Y9459995D02*
D03*
X3139998Y9299995D02*
D03*
X3059998Y7539996D02*
D03*
Y6259996D02*
D03*
Y4979997D02*
D03*
Y3379998D02*
D03*
X3139998Y2259998D02*
D03*
X3059998Y2099998D02*
D03*
X3139998Y1939998D02*
D03*
X3059998Y1779998D02*
D03*
Y819999D02*
D03*
Y179999D02*
D03*
X2979998Y7699996D02*
D03*
X2899998Y7539996D02*
D03*
Y6259996D02*
D03*
X2979998Y6099996D02*
D03*
X2899998Y4979997D02*
D03*
X2979998Y4819997D02*
D03*
X2899998Y3379998D02*
D03*
X2979998Y2259998D02*
D03*
X2899998Y2099998D02*
D03*
X2979998Y1939998D02*
D03*
X2899998Y1459998D02*
D03*
X2979998Y1299998D02*
D03*
X2899998Y1139998D02*
D03*
X2979998Y979999D02*
D03*
X2899998Y819999D02*
D03*
Y179999D02*
D03*
X2739998Y9779995D02*
D03*
Y9139995D02*
D03*
Y7859996D02*
D03*
X2819998Y7699996D02*
D03*
X2739998Y6579996D02*
D03*
X2819998Y6419996D02*
D03*
Y5139997D02*
D03*
X2739998Y4979997D02*
D03*
X2819998Y4499997D02*
D03*
X2739998Y2419998D02*
D03*
X2819998Y2259998D02*
D03*
X2739998Y2099998D02*
D03*
Y1779998D02*
D03*
X2819998Y1619998D02*
D03*
X2739998Y1459998D02*
D03*
X2819998Y1299998D02*
D03*
X2739998Y1139998D02*
D03*
X2819998Y979999D02*
D03*
X2739998Y819999D02*
D03*
Y499999D02*
D03*
X2819998Y339999D02*
D03*
X2739998Y179999D02*
D03*
X2579998Y9779995D02*
D03*
Y9139995D02*
D03*
X2659998Y8019996D02*
D03*
Y7699996D02*
D03*
Y6419996D02*
D03*
Y5139997D02*
D03*
Y3859997D02*
D03*
X2579998Y3379998D02*
D03*
Y2419998D02*
D03*
X2659998Y2259998D02*
D03*
X2579998Y1779998D02*
D03*
X2659998Y1619998D02*
D03*
X2579998Y1459998D02*
D03*
X2659998Y1299998D02*
D03*
X2579998Y1139998D02*
D03*
X2659998Y979999D02*
D03*
Y339999D02*
D03*
X2579998Y179999D02*
D03*
X2419998Y9779995D02*
D03*
X2499998Y8979995D02*
D03*
X2419998Y8819995D02*
D03*
X2499998Y4499997D02*
D03*
Y3859997D02*
D03*
Y2899998D02*
D03*
X2419998Y2419998D02*
D03*
Y2099998D02*
D03*
X2499998Y1939998D02*
D03*
Y1619998D02*
D03*
Y979999D02*
D03*
X2419998Y179999D02*
D03*
X2339998Y9299995D02*
D03*
X2259998Y8819995D02*
D03*
X2339998Y8659995D02*
D03*
X2259998Y7859996D02*
D03*
X2339998Y979999D02*
D03*
X2259998Y179999D02*
D03*
X2179998Y8659995D02*
D03*
X2099998Y7859996D02*
D03*
X2179998Y7699996D02*
D03*
Y6419996D02*
D03*
Y3219998D02*
D03*
X2099998Y2739998D02*
D03*
X2179998Y2259998D02*
D03*
X2099998Y1779998D02*
D03*
X2179998Y1619998D02*
D03*
X2099998Y1459998D02*
D03*
Y1139998D02*
D03*
Y819999D02*
D03*
Y499999D02*
D03*
Y179999D02*
D03*
X2019998Y2899998D02*
D03*
X1939998Y2739998D02*
D03*
X2019998Y2259998D02*
D03*
Y1939998D02*
D03*
X1939998Y1779998D02*
D03*
X2019998Y1619998D02*
D03*
X1939998Y1459998D02*
D03*
X2019998Y1299998D02*
D03*
X1939998Y1139998D02*
D03*
X2019998Y979999D02*
D03*
X1939998Y819999D02*
D03*
X2019998Y659999D02*
D03*
Y339999D02*
D03*
X1939998Y179999D02*
D03*
X1779998Y8819995D02*
D03*
Y8179996D02*
D03*
Y6259996D02*
D03*
Y5939997D02*
D03*
Y5619997D02*
D03*
Y3059998D02*
D03*
X1859998Y2899998D02*
D03*
Y2259998D02*
D03*
Y1939998D02*
D03*
Y1619998D02*
D03*
X1779998Y1459998D02*
D03*
X1859998Y1299998D02*
D03*
X1779998Y1139998D02*
D03*
X1859998Y979999D02*
D03*
X1779998Y819999D02*
D03*
Y179999D02*
D03*
X1699998Y8979995D02*
D03*
X1619998Y8819995D02*
D03*
X1699998Y8659995D02*
D03*
X1619998Y8179996D02*
D03*
Y7859996D02*
D03*
X1699998Y3859997D02*
D03*
X1619998Y3699997D02*
D03*
Y3379998D02*
D03*
X1699998Y3219998D02*
D03*
X1619998Y3059998D02*
D03*
X1699998Y2899998D02*
D03*
Y2579998D02*
D03*
X1619998Y1459998D02*
D03*
X1699998Y1299998D02*
D03*
X1619998Y1139998D02*
D03*
X1699998Y979999D02*
D03*
Y659999D02*
D03*
X1619998Y499999D02*
D03*
X1699998Y339999D02*
D03*
X1539998Y8979995D02*
D03*
X1459998Y8819995D02*
D03*
X1539998Y8659995D02*
D03*
X1459998Y8179996D02*
D03*
Y7859996D02*
D03*
X1539998Y7699996D02*
D03*
X1459998Y4019997D02*
D03*
X1539998Y3859997D02*
D03*
X1459998Y3699997D02*
D03*
Y3379998D02*
D03*
X1539998Y3219998D02*
D03*
X1459998Y2739998D02*
D03*
X1539998Y2579998D02*
D03*
Y2259998D02*
D03*
Y1939998D02*
D03*
X1459998Y1779998D02*
D03*
X1539998Y1619998D02*
D03*
X1459998Y1459998D02*
D03*
X1539998Y1299998D02*
D03*
Y979999D02*
D03*
Y659999D02*
D03*
X1459998Y499999D02*
D03*
X1299998Y4979997D02*
D03*
Y4339997D02*
D03*
Y4019997D02*
D03*
X1379998Y3859997D02*
D03*
X1299998Y3699997D02*
D03*
Y3379998D02*
D03*
X1379998Y3219998D02*
D03*
Y2899998D02*
D03*
X1299998Y2739998D02*
D03*
Y2419998D02*
D03*
Y2099998D02*
D03*
X1379998Y1619998D02*
D03*
X1299998Y1459998D02*
D03*
X1379998Y659999D02*
D03*
X1299998Y499999D02*
D03*
X1139998Y9779995D02*
D03*
X1219998Y9619995D02*
D03*
X1139998Y9459995D02*
D03*
X1219998Y9299995D02*
D03*
X1139998Y9139995D02*
D03*
X1219998Y8979995D02*
D03*
X1139998Y8819995D02*
D03*
X1219998Y8659995D02*
D03*
X1139998Y8179996D02*
D03*
X1219998Y5139997D02*
D03*
X1139998Y4979997D02*
D03*
X1219998Y4819997D02*
D03*
Y4499997D02*
D03*
X1139998Y4339997D02*
D03*
X1219998Y4179997D02*
D03*
X1139998Y4019997D02*
D03*
X1219998Y3859997D02*
D03*
X1139998Y3699997D02*
D03*
Y3379998D02*
D03*
X1219998Y3219998D02*
D03*
Y2899998D02*
D03*
X1139998Y2739998D02*
D03*
Y2099998D02*
D03*
X1219998Y1939998D02*
D03*
Y1619998D02*
D03*
X1139998Y1459998D02*
D03*
X1219998Y1299998D02*
D03*
X1139998Y1139998D02*
D03*
X1219998Y979999D02*
D03*
Y659999D02*
D03*
X1139998Y499999D02*
D03*
Y179999D02*
D03*
X979999Y9779995D02*
D03*
X1059998Y9619995D02*
D03*
X979999Y9459995D02*
D03*
X1059998Y9299995D02*
D03*
X979999Y9139995D02*
D03*
X1059998Y8979995D02*
D03*
X979999Y8819995D02*
D03*
X1059998Y8659995D02*
D03*
Y5139997D02*
D03*
X979999Y4979997D02*
D03*
X1059998Y4819997D02*
D03*
Y4499997D02*
D03*
Y4179997D02*
D03*
X979999Y4019997D02*
D03*
X1059998Y3859997D02*
D03*
Y3219998D02*
D03*
Y2899998D02*
D03*
X979999Y2739998D02*
D03*
X1059998Y2579998D02*
D03*
X979999Y2099998D02*
D03*
X1059998Y1939998D02*
D03*
X979999Y1459998D02*
D03*
X1059998Y1299998D02*
D03*
X979999Y1139998D02*
D03*
X1059998Y979999D02*
D03*
X979999Y819999D02*
D03*
X1059998Y659999D02*
D03*
X979999Y499999D02*
D03*
X1059998Y339999D02*
D03*
X979999Y179999D02*
D03*
X899998Y9299995D02*
D03*
X819999Y9139995D02*
D03*
X899998Y8979995D02*
D03*
X819999Y8819995D02*
D03*
X899998Y8659995D02*
D03*
X819999Y5619997D02*
D03*
X899998Y5139997D02*
D03*
X819999Y4979997D02*
D03*
X899998Y4819997D02*
D03*
X819999Y4019997D02*
D03*
Y3059998D02*
D03*
Y2419998D02*
D03*
Y1459998D02*
D03*
X899998Y979999D02*
D03*
X819999Y819999D02*
D03*
Y179999D02*
D03*
X739999Y8979995D02*
D03*
X659999Y8819995D02*
D03*
X739999Y8659995D02*
D03*
X659999Y7539996D02*
D03*
X739999Y7379996D02*
D03*
X659999Y7219996D02*
D03*
X739999Y5459997D02*
D03*
X659999Y5299997D02*
D03*
Y4979997D02*
D03*
X739999Y4819997D02*
D03*
X659999Y4019997D02*
D03*
Y2419998D02*
D03*
X739999Y1299998D02*
D03*
Y979999D02*
D03*
X579999Y8979995D02*
D03*
Y7379996D02*
D03*
Y4819997D02*
D03*
X499999Y4019997D02*
D03*
Y3699997D02*
D03*
Y3059998D02*
D03*
Y2739998D02*
D03*
Y2419998D02*
D03*
X579999Y1299998D02*
D03*
Y979999D02*
D03*
X419999Y8979995D02*
D03*
X339999Y8819995D02*
D03*
Y6579996D02*
D03*
Y5299997D02*
D03*
Y4019997D02*
D03*
X419999Y3219998D02*
D03*
X339999Y3059998D02*
D03*
Y2419998D02*
D03*
X179999Y9139995D02*
D03*
X259999Y8979995D02*
D03*
X179999Y8819995D02*
D03*
X259999Y8659995D02*
D03*
X179999Y7219996D02*
D03*
X259999Y7059996D02*
D03*
X179999Y6899996D02*
D03*
X259999Y6739996D02*
D03*
X179999Y6579996D02*
D03*
X259999Y6419996D02*
D03*
Y6099996D02*
D03*
Y5779997D02*
D03*
Y5459997D02*
D03*
Y5139997D02*
D03*
Y4819997D02*
D03*
Y4499997D02*
D03*
Y3539997D02*
D03*
Y3219998D02*
D03*
Y2899998D02*
D03*
X179999Y2419998D02*
D03*
X259999Y979999D02*
D03*
X179999Y819999D02*
D03*
Y179999D02*
D03*
X7570000Y6950000D02*
D03*
X8520000Y5230000D02*
D03*
X8410000Y5380000D02*
D03*
X8340000Y5460000D02*
D03*
X8270000Y5530000D02*
D03*
X8190000Y5610000D02*
D03*
X8110000Y5690000D02*
D03*
X9202300Y4730000D02*
D03*
X8696355Y5246000D02*
D03*
X9130000Y4110000D02*
D03*
X9210000Y3850000D02*
D03*
X9280000Y3610000D02*
D03*
X9350000Y3390000D02*
D03*
X8696355Y4357000D02*
D03*
X8696354Y6277000D02*
D03*
X9280000Y4580000D02*
D03*
X8993645Y5109999D02*
D03*
X9417700Y4339999D02*
D03*
X9350000Y4460000D02*
D03*
X9132300Y4849999D02*
D03*
X9060000Y4980000D02*
D03*
X9060000Y6900000D02*
D03*
X9200000Y6650000D02*
D03*
X9132300Y6769999D02*
D03*
X9270000Y6500000D02*
D03*
X9350000Y6380000D02*
D03*
X9417700Y6259999D02*
D03*
X8993645Y7029999D02*
D03*
X9420000Y8200000D02*
D03*
X9340000Y8320000D02*
D03*
X9270000Y8450000D02*
D03*
X9200000Y8590000D02*
D03*
X9140000Y8710000D02*
D03*
X9070000Y8840000D02*
D03*
X9000000Y8970000D02*
D03*
X8690000Y7450000D02*
D03*
X8696355Y5119000D02*
D03*
Y4992000D02*
D03*
Y4865000D02*
D03*
Y4738000D02*
D03*
Y4611000D02*
D03*
Y4484000D02*
D03*
X8696354Y7039000D02*
D03*
Y6912000D02*
D03*
Y6785000D02*
D03*
Y6658000D02*
D03*
Y6531000D02*
D03*
Y6404000D02*
D03*
X8686355Y8198001D02*
D03*
Y8325001D02*
D03*
X7980000Y8840000D02*
D03*
X8050000Y8710000D02*
D03*
X8120000Y8570000D02*
D03*
X8686355Y8452001D02*
D03*
Y8579001D02*
D03*
Y8706001D02*
D03*
Y8833001D02*
D03*
Y8960001D02*
D03*
X510000Y3410000D02*
D03*
X720000Y3410000D02*
D03*
X6350860Y8320000D02*
D03*
X6840000D02*
D03*
X8710000Y3680000D02*
D03*
X5140000Y7260000D02*
D03*
X7330000Y7450000D02*
D03*
X6770000Y6800000D02*
D03*
X8686355Y9341001D02*
D03*
X5103500Y8206500D02*
D03*
X4590000Y7240000D02*
D03*
X5962575Y8460500D02*
D03*
X5397425Y8079500D02*
D03*
X5390000Y6630000D02*
D03*
X8410000Y8060000D02*
D03*
X7750000D02*
D03*
Y8210000D02*
D03*
X5387865Y7510500D02*
D03*
Y7256500D02*
D03*
X7750000Y6140000D02*
D03*
X8410000D02*
D03*
X3950000Y8252000D02*
D03*
Y8125000D02*
D03*
Y8379000D02*
D03*
Y8506000D02*
D03*
Y8633000D02*
D03*
X3960000Y6861000D02*
D03*
Y6988000D02*
D03*
Y7115000D02*
D03*
Y7242000D02*
D03*
X8686355Y7690001D02*
D03*
Y7817001D02*
D03*
Y7944001D02*
D03*
Y8071001D02*
D03*
X8696354Y6150000D02*
D03*
Y6023000D02*
D03*
Y5896000D02*
D03*
Y5769000D02*
D03*
X3965000Y5466500D02*
D03*
Y5593500D02*
D03*
Y5720500D02*
D03*
Y5847500D02*
D03*
X8696355Y3849000D02*
D03*
Y3976000D02*
D03*
Y4103000D02*
D03*
Y4230000D02*
D03*
X3960000Y4094000D02*
D03*
Y4221000D02*
D03*
Y4348000D02*
D03*
Y4475000D02*
D03*
X7743645Y9341001D02*
D03*
X7748645Y3555501D02*
D03*
X7753645Y7420000D02*
D03*
X7740000Y8570000D02*
D03*
Y8450000D02*
D03*
X7750000Y8330000D02*
D03*
Y5520000D02*
D03*
Y8710000D02*
D03*
X7740000Y8830000D02*
D03*
X7872575Y1240500D02*
D03*
X8520000Y3430000D02*
D03*
X7740000Y4990000D02*
D03*
X7750000Y4870000D02*
D03*
X7740000Y4730000D02*
D03*
Y4610000D02*
D03*
X7750000Y4370000D02*
D03*
Y4220000D02*
D03*
X8190000Y4610000D02*
D03*
X8120000Y4730000D02*
D03*
X8050000Y4870000D02*
D03*
X7980000Y5000000D02*
D03*
X7750000Y4490000D02*
D03*
X8260000Y4480000D02*
D03*
X8340000Y4360000D02*
D03*
X8410000Y4220000D02*
D03*
X8270000Y6400000D02*
D03*
X8337700Y6280000D02*
D03*
X7740000Y6910000D02*
D03*
X7750000Y6790000D02*
D03*
X7740000Y6650000D02*
D03*
Y6530000D02*
D03*
X7750000Y6290000D02*
D03*
X8190000Y6530000D02*
D03*
X8120000Y6650000D02*
D03*
X8050000Y6790000D02*
D03*
X7980000Y6920000D02*
D03*
X7750000Y6410000D02*
D03*
X8340000Y8200000D02*
D03*
X8260000Y8320000D02*
D03*
X8190000Y8450000D02*
D03*
X8530000Y7310000D02*
D03*
Y9210000D02*
D03*
X8520000Y1030000D02*
D03*
X7480000Y860000D02*
D03*
X5330000Y1345000D02*
D03*
X6277425Y879500D02*
D03*
X5480000Y3150000D02*
D03*
X5470000Y2391000D02*
D03*
X5690000Y2051000D02*
D03*
X6300000Y2701000D02*
D03*
X6507499Y2693501D02*
D03*
X4392500Y1890000D02*
D03*
X7748645Y1904501D02*
D03*
X8691355D02*
D03*
Y2031501D02*
D03*
Y2158501D02*
D03*
X8690000Y2290000D02*
D03*
X6920000Y1530000D02*
D03*
X5350000Y155000D02*
D03*
X5937500Y592500D02*
D03*
X5830000Y960000D02*
D03*
X5830000Y1170000D02*
D03*
X6030000Y1190000D02*
D03*
X7090000Y930000D02*
D03*
X7510000Y1520000D02*
D03*
X7100000D02*
D03*
X1260000Y5710000D02*
D03*
X1000000Y5330000D02*
D03*
X2995000Y5339500D02*
D03*
X2980000Y8379000D02*
D03*
X270000Y8480000D02*
D03*
X590000Y7130000D02*
D03*
X2990000Y7115000D02*
D03*
X1690000Y4700000D02*
D03*
X2990000Y4348000D02*
D03*
X900000Y7240000D02*
D03*
X2990000Y7242000D02*
D03*
X830000Y6750000D02*
D03*
X2990000Y6734000D02*
D03*
X1460000Y4230000D02*
D03*
X2990000Y3967000D02*
D03*
X1170000Y5610000D02*
D03*
X2995000Y5593500D02*
D03*
X2540000Y4640000D02*
D03*
X670000Y6970000D02*
D03*
X2990000Y6988000D02*
D03*
X2980000Y8260000D02*
D03*
X190000Y8200000D02*
D03*
X1600000Y4520000D02*
D03*
X2990000Y4221000D02*
D03*
X2500000Y6170000D02*
D03*
X110000Y4310000D02*
D03*
X2990000Y4475000D02*
D03*
X1080000Y5520000D02*
D03*
X2995000Y5466500D02*
D03*
X2990000Y8130000D02*
D03*
X100000Y7980000D02*
D03*
X750000Y6840000D02*
D03*
X2990000Y6861000D02*
D03*
X840000Y2772500D02*
D03*
X1190000Y2260000D02*
D03*
X1650000Y9740000D02*
D03*
X1337700Y5420000D02*
D03*
X1510000Y4410000D02*
D03*
X2990000Y4094000D02*
D03*
X2410000Y4780000D02*
D03*
X2995000Y5720500D02*
D03*
X1996500Y9223000D02*
D03*
X2123500D02*
D03*
X2875000Y9446500D02*
D03*
Y9573500D02*
D03*
X1640000Y9190000D02*
D03*
X1450000Y9740000D02*
D03*
X360000Y1080000D02*
D03*
Y1420000D02*
D03*
X1690000Y2070000D02*
D03*
X1190000Y1780000D02*
D03*
D51*
X8520000Y5380000D02*
X8530000Y5390000D01*
X8520000Y5230000D02*
Y5380000D01*
D53*
X5350000Y155000D02*
D03*
Y565000D02*
D03*
X5330000Y935000D02*
D03*
Y1345000D02*
D03*
D54*
X360000Y1080000D02*
D03*
Y1420000D02*
D03*
D55*
X9500000Y500000D02*
D03*
Y9500000D02*
D03*
X500000D02*
D03*
Y500000D02*
D03*
%TF.MD5,38b7e63876eb3fd172376b0d74abd6d1*%
M02*
