G04*
G04 #@! TF.GenerationSoftware,Altium Limited,Altium Designer,25.8.1 (18)*
G04*
G04 Layer_Color=128*
%FSLAX44Y44*%
%MOMM*%
G71*
G04*
G04 #@! TF.SameCoordinates,346E8232-17C7-4013-95A1-2B3E51FE4BFF*
G04*
G04*
G04 #@! TF.FilePolarity,Positive*
G04*
G01*
G75*
%ADD15C,0.1270*%
D15*
X136500Y82500D02*
X143500D01*
X140000Y79000D02*
Y86000D01*
X184500Y53000D02*
X191500D01*
X188000Y49500D02*
Y56500D01*
X136500Y24500D02*
X143500D01*
X140000Y21000D02*
Y28000D01*
X633500Y719300D02*
X644500D01*
X639000Y713800D02*
Y724800D01*
X633500Y744700D02*
X644500D01*
X639000Y739200D02*
Y750200D01*
X508000Y29000D02*
X516000D01*
X512000Y25000D02*
Y33000D01*
X508000Y49000D02*
X516000D01*
X512000Y45000D02*
Y53000D01*
X137450Y125000D02*
X144550D01*
X141000Y121450D02*
Y128550D01*
X86450Y125000D02*
X93550D01*
X90000Y121450D02*
Y128550D01*
X507000Y104000D02*
X515000D01*
X511000Y100000D02*
Y108000D01*
X507000Y124000D02*
X515000D01*
X511000Y120000D02*
Y128000D01*
X215000Y207000D02*
X223000D01*
X219000Y203000D02*
Y211000D01*
X215000Y187000D02*
X223000D01*
X219000Y183000D02*
Y191000D01*
X928000Y50000D02*
X972000D01*
X950000Y28000D02*
Y72000D01*
X928000Y950000D02*
X972000D01*
X950000Y928000D02*
Y972000D01*
X28000Y950000D02*
X72000D01*
X50000Y928000D02*
Y972000D01*
X28000Y50000D02*
X72000D01*
X50000Y28000D02*
Y72000D01*
X974900Y588900D02*
X985100D01*
X980000Y583800D02*
Y594000D01*
X974900Y538100D02*
X985100D01*
X980000Y533000D02*
Y543200D01*
X974900Y461900D02*
X985100D01*
X980000Y456800D02*
Y467000D01*
X974900Y360300D02*
X985100D01*
X980000Y355200D02*
Y365400D01*
X974900Y309500D02*
X985100D01*
X980000Y304400D02*
Y314600D01*
X974900Y334900D02*
X985100D01*
X980000Y329800D02*
Y340000D01*
X974900Y385700D02*
X985100D01*
X980000Y380600D02*
Y390800D01*
X974900Y411100D02*
X985100D01*
X980000Y406000D02*
Y416200D01*
X974900Y436500D02*
X985100D01*
X980000Y431400D02*
Y441600D01*
X974900Y487300D02*
X985100D01*
X980000Y482200D02*
Y492400D01*
X974900Y512700D02*
X985100D01*
X980000Y507600D02*
Y517800D01*
X974900Y563500D02*
X985100D01*
X980000Y558400D02*
Y568600D01*
X974900Y614300D02*
X985100D01*
X980000Y609200D02*
Y619400D01*
X974900Y639700D02*
X985100D01*
X980000Y634600D02*
Y644800D01*
X974900Y665100D02*
X985100D01*
X980000Y660000D02*
Y670200D01*
X974900Y690500D02*
X985100D01*
X980000Y685400D02*
Y695600D01*
X421250Y60000D02*
X432750D01*
X427000Y54250D02*
Y65750D01*
X395850Y60000D02*
X407350D01*
X401600Y54250D02*
Y65750D01*
X370450Y60000D02*
X381950D01*
X376200Y54250D02*
Y65750D01*
X294250Y60000D02*
X305750D01*
X300000Y54250D02*
Y65750D01*
X319650Y60000D02*
X331150D01*
X325400Y54250D02*
Y65750D01*
X775736Y44000D02*
X783864D01*
X779800Y39936D02*
Y48064D01*
X750336Y44000D02*
X758464D01*
X754400Y39936D02*
Y48064D01*
X724936Y44000D02*
X733064D01*
X729000Y39936D02*
Y48064D01*
X682936Y769400D02*
X691064D01*
X687000Y765336D02*
Y773464D01*
X682936Y744000D02*
X691064D01*
X687000Y739936D02*
Y748064D01*
X682936Y718600D02*
X691064D01*
X687000Y714536D02*
Y722664D01*
X193000Y844800D02*
X203200D01*
X198100Y839700D02*
Y849900D01*
X39900Y414100D02*
X50100D01*
X45000Y409000D02*
Y419200D01*
X193000Y438400D02*
X203200D01*
X198100Y433300D02*
Y443500D01*
X193000Y387600D02*
X203200D01*
X198100Y382500D02*
Y392700D01*
X193000Y489200D02*
X203200D01*
X198100Y484100D02*
Y494300D01*
X193000Y590800D02*
X203200D01*
X198100Y585700D02*
Y595900D01*
X193000Y667000D02*
X203200D01*
X198100Y661900D02*
Y672100D01*
X193000Y565400D02*
X203200D01*
X198100Y560300D02*
Y570500D01*
X39900Y693500D02*
X50100D01*
X45000Y688400D02*
Y698600D01*
X39900Y668100D02*
X50100D01*
X45000Y663000D02*
Y673200D01*
X39900Y515700D02*
X50100D01*
X45000Y510600D02*
Y520800D01*
X39900Y871300D02*
X50100D01*
X45000Y866200D02*
Y876400D01*
X39900Y464900D02*
X50100D01*
X45000Y459800D02*
Y470000D01*
X193000Y768600D02*
X203200D01*
X198100Y763500D02*
Y773700D01*
X193000Y540000D02*
X203200D01*
X198100Y534900D02*
Y545100D01*
X39900Y439500D02*
X50100D01*
X45000Y434400D02*
Y444600D01*
X193000Y870200D02*
X203200D01*
X198100Y865100D02*
Y875300D01*
X39900Y566500D02*
X50100D01*
X45000Y561400D02*
Y571600D01*
X39900Y718900D02*
X50100D01*
X45000Y713800D02*
Y724000D01*
X39900Y820500D02*
X50100D01*
X45000Y815400D02*
Y825600D01*
X39900Y642700D02*
X50100D01*
X45000Y637600D02*
Y647800D01*
X193000Y616200D02*
X203200D01*
X198100Y611100D02*
Y621300D01*
X193000Y743200D02*
X203200D01*
X198100Y738100D02*
Y748300D01*
X193000Y692400D02*
X203200D01*
X198100Y687300D02*
Y697500D01*
X39900Y744300D02*
X50100D01*
X45000Y739200D02*
Y749400D01*
X39900Y591900D02*
X50100D01*
X45000Y586800D02*
Y597000D01*
X193000Y463800D02*
X203200D01*
X198100Y458700D02*
Y468900D01*
X193000Y641600D02*
X203200D01*
X198100Y636500D02*
Y646700D01*
X193000Y514600D02*
X203200D01*
X198100Y509500D02*
Y519700D01*
X39900Y845900D02*
X50100D01*
X45000Y840800D02*
Y851000D01*
X193000Y794000D02*
X203200D01*
X198100Y788900D02*
Y799100D01*
X39900Y388700D02*
X50100D01*
X45000Y383600D02*
Y393800D01*
X193000Y819400D02*
X203200D01*
X198100Y814300D02*
Y824500D01*
X39900Y541100D02*
X50100D01*
X45000Y536000D02*
Y546200D01*
X39900Y490300D02*
X50100D01*
X45000Y485200D02*
Y495400D01*
X193000Y717800D02*
X203200D01*
X198100Y712700D02*
Y722900D01*
X39900Y617300D02*
X50100D01*
X45000Y612200D02*
Y622400D01*
X39900Y769700D02*
X50100D01*
X45000Y764600D02*
Y774800D01*
X39900Y795100D02*
X50100D01*
X45000Y790000D02*
Y800200D01*
X193000Y413000D02*
X203200D01*
X198100Y407900D02*
Y418100D01*
X361482Y150000D02*
X370118D01*
X365800Y145682D02*
Y154318D01*
X386882Y150000D02*
X395518D01*
X391200Y145682D02*
Y154318D01*
X336082Y150000D02*
X344718D01*
X340400Y145682D02*
Y154318D01*
X310682Y150000D02*
X319318D01*
X315000Y145682D02*
Y154318D01*
X560000Y722000D02*
X564000D01*
X562000Y720000D02*
Y724000D01*
X847999Y626000D02*
X852000D01*
X849999Y624000D02*
Y628000D01*
X480000Y498000D02*
X484000D01*
X482000Y496000D02*
Y500000D01*
X416000Y210000D02*
X420000D01*
X418000Y208000D02*
Y212000D01*
X927999Y242000D02*
X932000D01*
X929999Y240000D02*
Y244000D01*
X488000Y482000D02*
X492000D01*
X490000Y480000D02*
Y484000D01*
X528000Y498000D02*
X532000D01*
X530000Y496000D02*
Y500000D01*
X520000Y162000D02*
X524000D01*
X522000Y160000D02*
Y164000D01*
X656000Y242000D02*
X660000D01*
X658000Y240000D02*
Y244000D01*
X704000Y977999D02*
X708000D01*
X706000Y976000D02*
Y979999D01*
X576000Y370000D02*
X580000D01*
X578000Y368000D02*
Y372000D01*
X808000Y897999D02*
X812000D01*
X809999Y896000D02*
Y899999D01*
X472000Y66000D02*
X476000D01*
X474000Y64000D02*
Y68000D01*
X943999Y849999D02*
X947999D01*
X946000Y847999D02*
Y852000D01*
X808000Y226000D02*
X812000D01*
X809999Y224000D02*
Y228000D01*
X879999Y82000D02*
X883999D01*
X882000Y80000D02*
Y84000D01*
X879999Y946000D02*
X883999D01*
X882000Y943999D02*
Y947999D01*
X528000Y178000D02*
X532000D01*
X530000Y176000D02*
Y180000D01*
X608000Y210000D02*
X612000D01*
X610000Y208000D02*
Y212000D01*
X520000Y962000D02*
X524000D01*
X522000Y959999D02*
Y963999D01*
X520000Y929999D02*
X524000D01*
X522000Y927999D02*
Y932000D01*
X896000Y18000D02*
X899999D01*
X897999Y16000D02*
Y20000D01*
X440000Y386000D02*
X444000D01*
X442000Y384000D02*
Y388000D01*
X448000Y626000D02*
X452000D01*
X450000Y624000D02*
Y628000D01*
X823999Y929999D02*
X827999D01*
X826000Y927999D02*
Y932000D01*
X536000Y962000D02*
X540000D01*
X538000Y959999D02*
Y963999D01*
X472000Y610000D02*
X476000D01*
X474000Y608000D02*
Y612000D01*
X720000Y690000D02*
X724000D01*
X722000Y688000D02*
Y692000D01*
X744000Y450000D02*
X748000D01*
X746000Y448000D02*
Y452000D01*
X896000Y242000D02*
X899999D01*
X897999Y240000D02*
Y244000D01*
X600000Y226000D02*
X604000D01*
X602000Y224000D02*
Y228000D01*
X839999Y834000D02*
X843999D01*
X842000Y832000D02*
Y836000D01*
X488000Y674000D02*
X492000D01*
X490000Y672000D02*
Y676000D01*
X512000Y882000D02*
X516000D01*
X514000Y879999D02*
Y883999D01*
X983999Y226000D02*
X987999D01*
X986000Y224000D02*
Y228000D01*
X976000Y178000D02*
X979999D01*
X977999Y176000D02*
Y180000D01*
X823999Y162000D02*
X827999D01*
X826000Y160000D02*
Y164000D01*
X368000Y977999D02*
X372000D01*
X370000Y976000D02*
Y979999D01*
X464000Y146000D02*
X468000D01*
X466000Y144000D02*
Y148000D01*
X640000Y178000D02*
X644000D01*
X642000Y176000D02*
Y180000D01*
X440000Y834000D02*
X444000D01*
X442000Y832000D02*
Y836000D01*
X847999Y274000D02*
X852000D01*
X849999Y272000D02*
Y276000D01*
X704000Y626000D02*
X708000D01*
X706000Y624000D02*
Y628000D01*
X504000Y929999D02*
X508000D01*
X506000Y927999D02*
Y932000D01*
X624000Y210000D02*
X628000D01*
X626000Y208000D02*
Y212000D01*
X976000Y146000D02*
X979999D01*
X977999Y144000D02*
Y148000D01*
X936000Y194000D02*
X939999D01*
X937999Y192000D02*
Y196000D01*
X672000Y562000D02*
X676000D01*
X674000Y560000D02*
Y564000D01*
X496000Y977999D02*
X500000D01*
X498000Y976000D02*
Y979999D01*
X528000Y466000D02*
X532000D01*
X530000Y464000D02*
Y468000D01*
X504000Y514000D02*
X508000D01*
X506000Y512000D02*
Y516000D01*
X952000Y610000D02*
X956000D01*
X953999Y608000D02*
Y612000D01*
X736000Y913999D02*
X740000D01*
X738000Y912000D02*
Y916000D01*
X863999Y946000D02*
X867999D01*
X866000Y943999D02*
Y947999D01*
X752000Y818000D02*
X756000D01*
X754000Y816000D02*
Y820000D01*
X632000Y770000D02*
X636000D01*
X634000Y768000D02*
Y772000D01*
X912000Y913999D02*
X916000D01*
X913999Y912000D02*
Y916000D01*
X967999Y226000D02*
X972000D01*
X969999Y224000D02*
Y228000D01*
X959999Y722000D02*
X963999D01*
X962000Y720000D02*
Y724000D01*
X976000Y114000D02*
X979999D01*
X977999Y112000D02*
Y116000D01*
X983999Y706000D02*
X987999D01*
X986000Y704000D02*
Y708000D01*
X456000Y642000D02*
X460000D01*
X458000Y640000D02*
Y644000D01*
X847999Y18000D02*
X852000D01*
X849999Y16000D02*
Y20000D01*
X656000Y882000D02*
X660000D01*
X658000Y879999D02*
Y883999D01*
X456000Y66000D02*
X460000D01*
X458000Y64000D02*
Y68000D01*
X720000Y18000D02*
X724000D01*
X722000Y16000D02*
Y20000D01*
X959999Y466000D02*
X963999D01*
X962000Y464000D02*
Y468000D01*
X624000Y594000D02*
X628000D01*
X626000Y592000D02*
Y596000D01*
X952000Y866000D02*
X956000D01*
X953999Y863999D02*
Y867999D01*
X384000Y18000D02*
X388000D01*
X386000Y16000D02*
Y20000D01*
X792000Y929999D02*
X796000D01*
X794000Y927999D02*
Y932000D01*
X832000Y977999D02*
X836000D01*
X834000Y976000D02*
Y979999D01*
X672000Y530000D02*
X676000D01*
X674000Y528000D02*
Y532000D01*
X656000Y946000D02*
X660000D01*
X658000Y943999D02*
Y947999D01*
X887999Y66000D02*
X892000D01*
X889999Y64000D02*
Y68000D01*
X856000Y162000D02*
X859999D01*
X857999Y160000D02*
Y164000D01*
X800000Y18000D02*
X804000D01*
X802000Y16000D02*
Y20000D01*
X736000Y754000D02*
X740000D01*
X738000Y752000D02*
Y756000D01*
X560000Y754000D02*
X564000D01*
X562000Y752000D02*
Y756000D01*
X967999Y802000D02*
X972000D01*
X969999Y800000D02*
Y804000D01*
X464000Y178000D02*
X468000D01*
X466000Y176000D02*
Y180000D01*
X983999Y194000D02*
X987999D01*
X986000Y192000D02*
Y196000D01*
X560000Y594000D02*
X564000D01*
X562000Y592000D02*
Y596000D01*
X952000Y897999D02*
X956000D01*
X953999Y896000D02*
Y899999D01*
X456000Y162000D02*
X460000D01*
X458000Y160000D02*
Y164000D01*
X472000Y162000D02*
X476000D01*
X474000Y160000D02*
Y164000D01*
X903999Y226000D02*
X907999D01*
X906000Y224000D02*
Y228000D01*
X472000Y98000D02*
X476000D01*
X474000Y96000D02*
Y100000D01*
X448000Y594000D02*
X452000D01*
X450000Y592000D02*
Y596000D01*
X688000Y690000D02*
X692000D01*
X690000Y688000D02*
Y692000D01*
X640000Y913999D02*
X644000D01*
X642000Y912000D02*
Y916000D01*
X600000Y386000D02*
X604000D01*
X602000Y384000D02*
Y388000D01*
X600000Y642000D02*
X604000D01*
X602000Y640000D02*
Y644000D01*
X967999Y866000D02*
X972000D01*
X969999Y863999D02*
Y867999D01*
X472000Y258000D02*
X476000D01*
X474000Y256000D02*
Y260000D01*
X879999Y18000D02*
X883999D01*
X882000Y16000D02*
Y20000D01*
X424000Y258000D02*
X428000D01*
X426000Y256000D02*
Y260000D01*
X839999Y866000D02*
X843999D01*
X842000Y863999D02*
Y867999D01*
X584000Y929999D02*
X588000D01*
X586000Y927999D02*
Y932000D01*
X744000Y866000D02*
X748000D01*
X746000Y863999D02*
Y867999D01*
X943999Y178000D02*
X947999D01*
X946000Y176000D02*
Y180000D01*
X464000Y50000D02*
X468000D01*
X466000Y48000D02*
Y52000D01*
X520000Y194000D02*
X524000D01*
X522000Y192000D02*
Y196000D01*
X464000Y82000D02*
X468000D01*
X466000Y80000D02*
Y84000D01*
X784000Y18000D02*
X788000D01*
X786000Y16000D02*
Y20000D01*
X624000Y946000D02*
X628000D01*
X626000Y943999D02*
Y947999D01*
X983999Y866000D02*
X987999D01*
X986000Y863999D02*
Y867999D01*
X624000Y50000D02*
X628000D01*
X626000Y48000D02*
Y52000D01*
X480000Y754000D02*
X484000D01*
X482000Y752000D02*
Y756000D01*
X608000Y498000D02*
X612000D01*
X610000Y496000D02*
Y500000D01*
X688000Y306000D02*
X692000D01*
X690000Y304000D02*
Y308000D01*
X736000Y849999D02*
X740000D01*
X738000Y847999D02*
Y852000D01*
X808000Y34000D02*
X812000D01*
X809999Y32000D02*
Y36000D01*
X432000Y658000D02*
X436000D01*
X434000Y656000D02*
Y660000D01*
X480000Y818000D02*
X484000D01*
X482000Y816000D02*
Y820000D01*
X664000Y706000D02*
X668000D01*
X666000Y704000D02*
Y708000D01*
X608000Y242000D02*
X612000D01*
X610000Y240000D02*
Y244000D01*
X368000Y946000D02*
X372000D01*
X370000Y943999D02*
Y947999D01*
X456000Y226000D02*
X460000D01*
X458000Y224000D02*
Y228000D01*
X632000Y258000D02*
X636000D01*
X634000Y256000D02*
Y260000D01*
X544000Y498000D02*
X548000D01*
X546000Y496000D02*
Y500000D01*
X504000Y258000D02*
X508000D01*
X506000Y256000D02*
Y260000D01*
X376000Y962000D02*
X380000D01*
X378000Y959999D02*
Y963999D01*
X624000Y818000D02*
X628000D01*
X626000Y816000D02*
Y820000D01*
X720000Y722000D02*
X724000D01*
X722000Y720000D02*
Y724000D01*
X696000Y162000D02*
X700000D01*
X698000Y160000D02*
Y164000D01*
X432000Y178000D02*
X436000D01*
X434000Y176000D02*
Y180000D01*
X536000Y482000D02*
X540000D01*
X538000Y480000D02*
Y484000D01*
X464000Y466000D02*
X468000D01*
X466000Y464000D02*
Y468000D01*
X800000Y50000D02*
X804000D01*
X802000Y48000D02*
Y52000D01*
X936000Y897999D02*
X939999D01*
X937999Y896000D02*
Y899999D01*
X432000Y242000D02*
X436000D01*
X434000Y240000D02*
Y244000D01*
X744000Y674000D02*
X748000D01*
X746000Y672000D02*
Y676000D01*
X632000Y482000D02*
X636000D01*
X634000Y480000D02*
Y484000D01*
X624000Y242000D02*
X628000D01*
X626000Y240000D02*
Y244000D01*
X672000Y178000D02*
X676000D01*
X674000Y176000D02*
Y180000D01*
X856000Y66000D02*
X859999D01*
X857999Y64000D02*
Y68000D01*
X952000Y770000D02*
X956000D01*
X953999Y768000D02*
Y772000D01*
X544000Y370000D02*
X548000D01*
X546000Y368000D02*
Y372000D01*
X456000Y929999D02*
X460000D01*
X458000Y927999D02*
Y932000D01*
X448000Y82000D02*
X452000D01*
X450000Y80000D02*
Y84000D01*
X496000Y82000D02*
X500000D01*
X498000Y80000D02*
Y84000D01*
X688000Y946000D02*
X692000D01*
X690000Y943999D02*
Y947999D01*
X464000Y977999D02*
X468000D01*
X466000Y976000D02*
Y979999D01*
X472000Y482000D02*
X476000D01*
X474000Y480000D02*
Y484000D01*
X648000Y354000D02*
X652000D01*
X650000Y352000D02*
Y356000D01*
X872000Y66000D02*
X876000D01*
X873999Y64000D02*
Y68000D01*
X952000Y450000D02*
X956000D01*
X953999Y448000D02*
Y452000D01*
X504000Y642000D02*
X508000D01*
X506000Y640000D02*
Y644000D01*
X896000Y146000D02*
X899999D01*
X897999Y144000D02*
Y148000D01*
X976000Y882000D02*
X979999D01*
X977999Y879999D02*
Y883999D01*
X528000Y338000D02*
X532000D01*
X530000Y336000D02*
Y340000D01*
X744000Y834000D02*
X748000D01*
X746000Y832000D02*
Y836000D01*
X416000Y306000D02*
X420000D01*
X418000Y304000D02*
Y308000D01*
X440000Y226000D02*
X444000D01*
X442000Y224000D02*
Y228000D01*
X464000Y338000D02*
X468000D01*
X466000Y336000D02*
Y340000D01*
X560000Y977999D02*
X564000D01*
X562000Y976000D02*
Y979999D01*
X784000Y977999D02*
X788000D01*
X786000Y976000D02*
Y979999D01*
X752000Y658000D02*
X756000D01*
X754000Y656000D02*
Y660000D01*
X936000Y226000D02*
X939999D01*
X937999Y224000D02*
Y228000D01*
X576000Y626000D02*
X580000D01*
X578000Y624000D02*
Y628000D01*
X664000Y354000D02*
X668000D01*
X666000Y352000D02*
Y356000D01*
X384000Y82000D02*
X388000D01*
X386000Y80000D02*
Y84000D01*
X616000Y354000D02*
X620000D01*
X618000Y352000D02*
Y356000D01*
X560000Y498000D02*
X564000D01*
X562000Y496000D02*
Y500000D01*
X520000Y226000D02*
X524000D01*
X522000Y224000D02*
Y228000D01*
X632000Y610000D02*
X636000D01*
X634000Y608000D02*
Y612000D01*
X480000Y146000D02*
X484000D01*
X482000Y144000D02*
Y148000D01*
X912000Y178000D02*
X916000D01*
X913999Y176000D02*
Y180000D01*
X863999Y977999D02*
X867999D01*
X866000Y976000D02*
Y979999D01*
X688000Y50000D02*
X692000D01*
X690000Y48000D02*
Y52000D01*
X552000Y386000D02*
X556000D01*
X554000Y384000D02*
Y388000D01*
X976000Y818000D02*
X979999D01*
X977999Y816000D02*
Y820000D01*
X648000Y226000D02*
X652000D01*
X650000Y224000D02*
Y228000D01*
X496000Y146000D02*
X500000D01*
X498000Y144000D02*
Y148000D01*
X648000Y770000D02*
X652000D01*
X650000Y768000D02*
Y772000D01*
X784000Y946000D02*
X788000D01*
X786000Y943999D02*
Y947999D01*
X592000Y594000D02*
X596000D01*
X594000Y592000D02*
Y596000D01*
X959999Y402000D02*
X963999D01*
X962000Y400000D02*
Y404000D01*
X432000Y946000D02*
X436000D01*
X434000Y943999D02*
Y947999D01*
X688000Y530000D02*
X692000D01*
X690000Y528000D02*
Y532000D01*
X903999Y98000D02*
X907999D01*
X906000Y96000D02*
Y100000D01*
X943999Y242000D02*
X947999D01*
X946000Y240000D02*
Y244000D01*
X632000Y34000D02*
X636000D01*
X634000Y32000D02*
Y36000D01*
X792000Y34000D02*
X796000D01*
X794000Y32000D02*
Y36000D01*
X648000Y866000D02*
X652000D01*
X650000Y863999D02*
Y867999D01*
X560000Y338000D02*
X564000D01*
X562000Y336000D02*
Y340000D01*
X919999Y194000D02*
X923999D01*
X922000Y192000D02*
Y196000D01*
X400000Y626000D02*
X404000D01*
X402000Y624000D02*
Y628000D01*
X456000Y482000D02*
X460000D01*
X458000Y480000D02*
Y484000D01*
X464000Y818000D02*
X468000D01*
X466000Y816000D02*
Y820000D01*
X608000Y18000D02*
X612000D01*
X610000Y16000D02*
Y20000D01*
X688000Y882000D02*
X692000D01*
X690000Y879999D02*
Y883999D01*
X744000Y514000D02*
X748000D01*
X746000Y512000D02*
Y516000D01*
X688000Y338000D02*
X692000D01*
X690000Y336000D02*
Y340000D01*
X903999Y162000D02*
X907999D01*
X906000Y160000D02*
Y164000D01*
X552000Y258000D02*
X556000D01*
X554000Y256000D02*
Y260000D01*
X919999Y98000D02*
X923999D01*
X922000Y96000D02*
Y100000D01*
X839999Y962000D02*
X843999D01*
X842000Y959999D02*
Y963999D01*
X488000Y66000D02*
X492000D01*
X490000Y64000D02*
Y68000D01*
X728000Y706000D02*
X732000D01*
X730000Y704000D02*
Y708000D01*
X448000Y242000D02*
X452000D01*
X450000Y240000D02*
Y244000D01*
X912000Y114000D02*
X916000D01*
X913999Y112000D02*
Y116000D01*
X983999Y897999D02*
X987999D01*
X986000Y896000D02*
Y899999D01*
X408000Y770000D02*
X412000D01*
X410000Y768000D02*
Y772000D01*
X736000Y18000D02*
X740000D01*
X738000Y16000D02*
Y20000D01*
X640000Y50000D02*
X644000D01*
X642000Y48000D02*
Y52000D01*
X504000Y834000D02*
X508000D01*
X506000Y832000D02*
Y836000D01*
X640000Y594000D02*
X644000D01*
X642000Y592000D02*
Y596000D01*
X408000Y354000D02*
X412000D01*
X410000Y352000D02*
Y356000D01*
X496000Y754000D02*
X500000D01*
X498000Y752000D02*
Y756000D01*
X887999Y962000D02*
X892000D01*
X889999Y959999D02*
Y963999D01*
X680000Y546000D02*
X684000D01*
X682000Y544000D02*
Y548000D01*
X696000Y706000D02*
X700000D01*
X698000Y704000D02*
Y708000D01*
X736000Y498000D02*
X740000D01*
X738000Y496000D02*
Y500000D01*
X520000Y482000D02*
X524000D01*
X522000Y480000D02*
Y484000D01*
X480000Y913999D02*
X484000D01*
X482000Y912000D02*
Y916000D01*
X448000Y178000D02*
X452000D01*
X450000Y176000D02*
Y180000D01*
X432000Y82000D02*
X436000D01*
X434000Y80000D02*
Y84000D01*
X464000Y18000D02*
X468000D01*
X466000Y16000D02*
Y20000D01*
X496000Y913999D02*
X500000D01*
X498000Y912000D02*
Y916000D01*
X696000Y546000D02*
X700000D01*
X698000Y544000D02*
Y548000D01*
X927999Y178000D02*
X932000D01*
X929999Y176000D02*
Y180000D01*
X800000Y946000D02*
X804000D01*
X802000Y943999D02*
Y947999D01*
X624000Y370000D02*
X628000D01*
X626000Y368000D02*
Y372000D01*
X592000Y658000D02*
X596000D01*
X594000Y656000D02*
Y660000D01*
X552000Y770000D02*
X556000D01*
X554000Y768000D02*
Y772000D01*
X568000Y482000D02*
X572000D01*
X570000Y480000D02*
Y484000D01*
X440000Y929999D02*
X444000D01*
X442000Y927999D02*
Y932000D01*
X568000Y66000D02*
X572000D01*
X570000Y64000D02*
Y68000D01*
X696000Y866000D02*
X700000D01*
X698000Y863999D02*
Y867999D01*
X584000Y194000D02*
X588000D01*
X586000Y192000D02*
Y196000D01*
X816000Y178000D02*
X820000D01*
X818000Y176000D02*
Y180000D01*
X576000Y818000D02*
X580000D01*
X578000Y816000D02*
Y820000D01*
X839999Y897999D02*
X843999D01*
X842000Y896000D02*
Y899999D01*
X919999Y226000D02*
X923999D01*
X922000Y224000D02*
Y228000D01*
X392000Y226000D02*
X396000D01*
X394000Y224000D02*
Y228000D01*
X656000Y370000D02*
X660000D01*
X658000Y368000D02*
Y372000D01*
X568000Y674000D02*
X572000D01*
X570000Y672000D02*
Y676000D01*
X832000Y50000D02*
X836000D01*
X834000Y48000D02*
Y52000D01*
X952000Y738000D02*
X956000D01*
X953999Y736000D02*
Y740000D01*
X672000Y977999D02*
X676000D01*
X674000Y976000D02*
Y979999D01*
X472000Y962000D02*
X476000D01*
X474000Y959999D02*
Y963999D01*
X512000Y626000D02*
X516000D01*
X514000Y624000D02*
Y628000D01*
X384000Y498000D02*
X388000D01*
X386000Y496000D02*
Y500000D01*
X408000Y482000D02*
X412000D01*
X410000Y480000D02*
Y484000D01*
X576000Y913999D02*
X580000D01*
X578000Y912000D02*
Y916000D01*
X800000Y146000D02*
X804000D01*
X802000Y144000D02*
Y148000D01*
X408000Y130000D02*
X412000D01*
X410000Y128000D02*
Y132000D01*
X448000Y498000D02*
X452000D01*
X450000Y496000D02*
Y500000D01*
X560000Y626000D02*
X564000D01*
X562000Y624000D02*
Y628000D01*
X440000Y66000D02*
X444000D01*
X442000Y64000D02*
Y68000D01*
X576000Y754000D02*
X580000D01*
X578000Y752000D02*
Y756000D01*
X560000Y466000D02*
X564000D01*
X562000Y464000D02*
Y468000D01*
X712000Y34000D02*
X716000D01*
X714000Y32000D02*
Y36000D01*
X376000Y194000D02*
X380000D01*
X378000Y192000D02*
Y196000D01*
X392000Y610000D02*
X396000D01*
X394000Y608000D02*
Y612000D01*
X416000Y18000D02*
X420000D01*
X418000Y16000D02*
Y20000D01*
X424000Y130000D02*
X428000D01*
X426000Y128000D02*
Y132000D01*
X640000Y946000D02*
X644000D01*
X642000Y943999D02*
Y947999D01*
X504000Y162000D02*
X508000D01*
X506000Y160000D02*
Y164000D01*
X632000Y226000D02*
X636000D01*
X634000Y224000D02*
Y228000D01*
X672000Y913999D02*
X676000D01*
X674000Y912000D02*
Y916000D01*
X504000Y962000D02*
X508000D01*
X506000Y959999D02*
Y963999D01*
X576000Y178000D02*
X580000D01*
X578000Y176000D02*
Y180000D01*
X704000Y946000D02*
X708000D01*
X706000Y943999D02*
Y947999D01*
X720000Y178000D02*
X724000D01*
X722000Y176000D02*
Y180000D01*
X967999Y322000D02*
X972000D01*
X969999Y320000D02*
Y324000D01*
X967999Y194000D02*
X972000D01*
X969999Y192000D02*
Y196000D01*
X416000Y242000D02*
X420000D01*
X418000Y240000D02*
Y244000D01*
X552000Y642000D02*
X556000D01*
X554000Y640000D02*
Y644000D01*
X544000Y338000D02*
X548000D01*
X546000Y336000D02*
Y340000D01*
X768000Y178000D02*
X772000D01*
X770000Y176000D02*
Y180000D01*
X680000Y929999D02*
X684000D01*
X682000Y927999D02*
Y932000D01*
X664000Y34000D02*
X668000D01*
X666000Y32000D02*
Y36000D01*
X927999Y882000D02*
X932000D01*
X929999Y879999D02*
Y883999D01*
X384000Y178000D02*
X388000D01*
X386000Y176000D02*
Y180000D01*
X752000Y882000D02*
X756000D01*
X754000Y879999D02*
Y883999D01*
X424000Y386000D02*
X428000D01*
X426000Y384000D02*
Y388000D01*
X912000Y82000D02*
X916000D01*
X913999Y80000D02*
Y84000D01*
X816000Y82000D02*
X820000D01*
X818000Y80000D02*
Y84000D01*
X943999Y882000D02*
X947999D01*
X946000Y879999D02*
Y883999D01*
X983999Y98000D02*
X987999D01*
X986000Y96000D02*
Y100000D01*
X464000Y594000D02*
X468000D01*
X466000Y592000D02*
Y596000D01*
X832000Y882000D02*
X836000D01*
X834000Y879999D02*
Y883999D01*
X416000Y146000D02*
X420000D01*
X418000Y144000D02*
Y148000D01*
X400000Y178000D02*
X404000D01*
X402000Y176000D02*
Y180000D01*
X919999Y258000D02*
X923999D01*
X922000Y256000D02*
Y260000D01*
X816000Y977999D02*
X820000D01*
X818000Y976000D02*
Y979999D01*
X752000Y178000D02*
X756000D01*
X754000Y176000D02*
Y180000D01*
X496000Y882000D02*
X500000D01*
X498000Y879999D02*
Y883999D01*
X472000Y929999D02*
X476000D01*
X474000Y927999D02*
Y932000D01*
X680000Y706000D02*
X684000D01*
X682000Y704000D02*
Y708000D01*
X408000Y610000D02*
X412000D01*
X410000Y608000D02*
Y612000D01*
X736000Y882000D02*
X740000D01*
X738000Y879999D02*
Y883999D01*
X943999Y114000D02*
X947999D01*
X946000Y112000D02*
Y116000D01*
X576000Y466000D02*
X580000D01*
X578000Y464000D02*
Y468000D01*
X648000Y386000D02*
X652000D01*
X650000Y384000D02*
Y388000D01*
X903999Y962000D02*
X907999D01*
X906000Y959999D02*
Y963999D01*
X952000Y130000D02*
X956000D01*
X953999Y128000D02*
Y132000D01*
X480000Y338000D02*
X484000D01*
X482000Y336000D02*
Y340000D01*
X847999Y466000D02*
X852000D01*
X849999Y464000D02*
Y468000D01*
X504000Y674000D02*
X508000D01*
X506000Y672000D02*
Y676000D01*
X943999Y210000D02*
X947999D01*
X946000Y208000D02*
Y212000D01*
X967999Y770000D02*
X972000D01*
X969999Y768000D02*
Y772000D01*
X664000Y450000D02*
X668000D01*
X666000Y448000D02*
Y452000D01*
X472000Y514000D02*
X476000D01*
X474000Y512000D02*
Y516000D01*
X592000Y178000D02*
X596000D01*
X594000Y176000D02*
Y180000D01*
X688000Y977999D02*
X692000D01*
X690000Y976000D02*
Y979999D01*
X959999Y754000D02*
X963999D01*
X962000Y752000D02*
Y756000D01*
X600000Y194000D02*
X604000D01*
X602000Y192000D02*
Y196000D01*
X863999Y178000D02*
X867999D01*
X866000Y176000D02*
Y180000D01*
X919999Y130000D02*
X923999D01*
X922000Y128000D02*
Y132000D01*
X448000Y114000D02*
X452000D01*
X450000Y112000D02*
Y116000D01*
X488000Y162000D02*
X492000D01*
X490000Y160000D02*
Y164000D01*
X496000Y946000D02*
X500000D01*
X498000Y943999D02*
Y947999D01*
X648000Y194000D02*
X652000D01*
X650000Y192000D02*
Y196000D01*
X983999Y802000D02*
X987999D01*
X986000Y800000D02*
Y804000D01*
X816000Y50000D02*
X820000D01*
X818000Y48000D02*
Y52000D01*
X967999Y258000D02*
X972000D01*
X969999Y256000D02*
Y260000D01*
X528000Y306000D02*
X532000D01*
X530000Y304000D02*
Y308000D01*
X959999Y626000D02*
X963999D01*
X962000Y624000D02*
Y628000D01*
X704000Y722000D02*
X708000D01*
X706000Y720000D02*
Y724000D01*
X959999Y242000D02*
X963999D01*
X962000Y240000D02*
Y244000D01*
X936000Y290000D02*
X939999D01*
X937999Y288000D02*
Y292000D01*
X416000Y658000D02*
X420000D01*
X418000Y656000D02*
Y660000D01*
X616000Y386000D02*
X620000D01*
X618000Y384000D02*
Y388000D01*
X728000Y482000D02*
X732000D01*
X730000Y480000D02*
Y484000D01*
X752000Y466000D02*
X756000D01*
X754000Y464000D02*
Y468000D01*
X496000Y466000D02*
X500000D01*
X498000Y464000D02*
Y468000D01*
X704000Y818000D02*
X708000D01*
X706000Y816000D02*
Y820000D01*
X976000Y210000D02*
X979999D01*
X977999Y208000D02*
Y212000D01*
X712000Y642000D02*
X716000D01*
X714000Y640000D02*
Y644000D01*
X624000Y338000D02*
X628000D01*
X626000Y336000D02*
Y340000D01*
X640000Y370000D02*
X644000D01*
X642000Y368000D02*
Y372000D01*
X656000Y594000D02*
X660000D01*
X658000Y592000D02*
Y596000D01*
X832000Y913999D02*
X836000D01*
X834000Y912000D02*
Y916000D01*
X728000Y514000D02*
X732000D01*
X730000Y512000D02*
Y516000D01*
X536000Y258000D02*
X540000D01*
X538000Y256000D02*
Y260000D01*
X416000Y722000D02*
X420000D01*
X418000Y720000D02*
Y724000D01*
X472000Y386000D02*
X476000D01*
X474000Y384000D02*
Y388000D01*
X704000Y658000D02*
X708000D01*
X706000Y656000D02*
Y660000D01*
X416000Y977999D02*
X420000D01*
X418000Y976000D02*
Y979999D01*
X448000Y466000D02*
X452000D01*
X450000Y464000D02*
Y468000D01*
X624000Y626000D02*
X628000D01*
X626000Y624000D02*
Y628000D01*
X648000Y546000D02*
X652000D01*
X650000Y544000D02*
Y548000D01*
X464000Y242000D02*
X468000D01*
X466000Y240000D02*
Y244000D01*
X863999Y50000D02*
X867999D01*
X866000Y48000D02*
Y52000D01*
X512000Y82000D02*
X516000D01*
X514000Y80000D02*
Y84000D01*
X520000Y866000D02*
X524000D01*
X522000Y863999D02*
Y867999D01*
X704000Y849999D02*
X708000D01*
X706000Y847999D02*
Y852000D01*
X584000Y482000D02*
X588000D01*
X586000Y480000D02*
Y484000D01*
X903999Y258000D02*
X907999D01*
X906000Y256000D02*
Y260000D01*
X480000Y50000D02*
X484000D01*
X482000Y48000D02*
Y52000D01*
X832000Y178000D02*
X836000D01*
X834000Y176000D02*
Y180000D01*
X616000Y322000D02*
X620000D01*
X618000Y320000D02*
Y324000D01*
X448000Y946000D02*
X452000D01*
X450000Y943999D02*
Y947999D01*
X552000Y482000D02*
X556000D01*
X554000Y480000D02*
Y484000D01*
X640000Y466000D02*
X644000D01*
X642000Y464000D02*
Y468000D01*
X384000Y754000D02*
X388000D01*
X386000Y752000D02*
Y756000D01*
X560000Y913999D02*
X564000D01*
X562000Y912000D02*
Y916000D01*
X720000Y562000D02*
X724000D01*
X722000Y560000D02*
Y564000D01*
X839999Y66000D02*
X843999D01*
X842000Y64000D02*
Y68000D01*
X496000Y594000D02*
X500000D01*
X498000Y592000D02*
Y596000D01*
X480000Y370000D02*
X484000D01*
X482000Y368000D02*
Y372000D01*
X400000Y18000D02*
X404000D01*
X402000Y16000D02*
Y20000D01*
X656000Y18000D02*
X660000D01*
X658000Y16000D02*
Y20000D01*
X592000Y370000D02*
X596000D01*
X594000Y368000D02*
Y372000D01*
X656000Y977999D02*
X660000D01*
X658000Y976000D02*
Y979999D01*
X624000Y977999D02*
X628000D01*
X626000Y976000D02*
Y979999D01*
X736000Y562000D02*
X740000D01*
X738000Y560000D02*
Y564000D01*
X480000Y242000D02*
X484000D01*
X482000Y240000D02*
Y244000D01*
X744000Y482000D02*
X748000D01*
X746000Y480000D02*
Y484000D01*
X512000Y658000D02*
X516000D01*
X514000Y656000D02*
Y660000D01*
X696000Y514000D02*
X700000D01*
X698000Y512000D02*
Y516000D01*
X480000Y977999D02*
X484000D01*
X482000Y976000D02*
Y979999D01*
X680000Y34000D02*
X684000D01*
X682000Y32000D02*
Y36000D01*
X456000Y98000D02*
X460000D01*
X458000Y96000D02*
Y100000D01*
X872000Y34000D02*
X876000D01*
X873999Y32000D02*
Y36000D01*
X592000Y210000D02*
X596000D01*
X594000Y208000D02*
Y212000D01*
X823999Y130000D02*
X827999D01*
X826000Y128000D02*
Y132000D01*
X368000Y82000D02*
X372000D01*
X370000Y80000D02*
Y84000D01*
X608000Y594000D02*
X612000D01*
X610000Y592000D02*
Y596000D01*
X847999Y178000D02*
X852000D01*
X849999Y176000D02*
Y180000D01*
X456000Y610000D02*
X460000D01*
X458000Y608000D02*
Y612000D01*
X912000Y242000D02*
X916000D01*
X913999Y240000D02*
Y244000D01*
X592000Y977999D02*
X596000D01*
X594000Y976000D02*
Y979999D01*
X368000Y18000D02*
X372000D01*
X370000Y16000D02*
Y20000D01*
X736000Y530000D02*
X740000D01*
X738000Y528000D02*
Y532000D01*
X896000Y210000D02*
X899999D01*
X897999Y208000D02*
Y212000D01*
X600000Y354000D02*
X604000D01*
X602000Y352000D02*
Y356000D01*
X520000Y386000D02*
X524000D01*
X522000Y384000D02*
Y388000D01*
X640000Y977999D02*
X644000D01*
X642000Y976000D02*
Y979999D01*
X448000Y977999D02*
X452000D01*
X450000Y976000D02*
Y979999D01*
X632000Y322000D02*
X636000D01*
X634000Y320000D02*
Y324000D01*
X528000Y946000D02*
X532000D01*
X530000Y943999D02*
Y947999D01*
X704000Y690000D02*
X708000D01*
X706000Y688000D02*
Y692000D01*
X424000Y962000D02*
X428000D01*
X426000Y959999D02*
Y963999D01*
X512000Y466000D02*
X516000D01*
X514000Y464000D02*
Y468000D01*
X800000Y178000D02*
X804000D01*
X802000Y176000D02*
Y180000D01*
X823999Y98000D02*
X827999D01*
X826000Y96000D02*
Y100000D01*
X903999Y130000D02*
X907999D01*
X906000Y128000D02*
Y132000D01*
X664000Y866000D02*
X668000D01*
X666000Y863999D02*
Y867999D01*
X520000Y514000D02*
X524000D01*
X522000Y512000D02*
Y516000D01*
X576000Y658000D02*
X580000D01*
X578000Y656000D02*
Y660000D01*
X912000Y18000D02*
X916000D01*
X913999Y16000D02*
Y20000D01*
X672000Y370000D02*
X676000D01*
X674000Y368000D02*
Y372000D01*
X728000Y834000D02*
X732000D01*
X730000Y832000D02*
Y836000D01*
X879999Y114000D02*
X883999D01*
X882000Y112000D02*
Y116000D01*
X959999Y114000D02*
X963999D01*
X962000Y112000D02*
Y116000D01*
X488000Y834000D02*
X492000D01*
X490000Y832000D02*
Y836000D01*
X863999Y82000D02*
X867999D01*
X866000Y80000D02*
Y84000D01*
X967999Y834000D02*
X972000D01*
X969999Y832000D02*
Y836000D01*
X768000Y977999D02*
X772000D01*
X770000Y976000D02*
Y979999D01*
X552000Y610000D02*
X556000D01*
X554000Y608000D02*
Y612000D01*
X648000Y929999D02*
X652000D01*
X650000Y927999D02*
Y932000D01*
X480000Y210000D02*
X484000D01*
X482000Y208000D02*
Y212000D01*
X664000Y194000D02*
X668000D01*
X666000Y192000D02*
Y196000D01*
X680000Y866000D02*
X684000D01*
X682000Y863999D02*
Y867999D01*
X927999Y274000D02*
X932000D01*
X929999Y272000D02*
Y276000D01*
X903999Y194000D02*
X907999D01*
X906000Y192000D02*
Y196000D01*
X983999Y162000D02*
X987999D01*
X986000Y160000D02*
Y164000D01*
X752000Y626000D02*
X756000D01*
X754000Y624000D02*
Y628000D01*
X688000Y178000D02*
X692000D01*
X690000Y176000D02*
Y180000D01*
X640000Y338000D02*
X644000D01*
X642000Y336000D02*
Y340000D01*
X640000Y882000D02*
X644000D01*
X642000Y879999D02*
Y883999D01*
X656000Y562000D02*
X660000D01*
X658000Y560000D02*
Y564000D01*
X696000Y418000D02*
X700000D01*
X698000Y416000D02*
Y420000D01*
X584000Y770000D02*
X588000D01*
X586000Y768000D02*
Y772000D01*
X488000Y258000D02*
X492000D01*
X490000Y256000D02*
Y260000D01*
X720000Y946000D02*
X724000D01*
X722000Y943999D02*
Y947999D01*
X919999Y897999D02*
X923999D01*
X922000Y896000D02*
Y899999D01*
X936000Y162000D02*
X939999D01*
X937999Y160000D02*
Y164000D01*
X712000Y738000D02*
X716000D01*
X714000Y736000D02*
Y740000D01*
X448000Y882000D02*
X452000D01*
X450000Y879999D02*
Y883999D01*
X832000Y114000D02*
X836000D01*
X834000Y112000D02*
Y116000D01*
X536000Y514000D02*
X540000D01*
X538000Y512000D02*
Y516000D01*
X432000Y498000D02*
X436000D01*
X434000Y496000D02*
Y500000D01*
X616000Y610000D02*
X620000D01*
X618000Y608000D02*
Y612000D01*
X656000Y178000D02*
X660000D01*
X658000Y176000D02*
Y180000D01*
X664000Y546000D02*
X668000D01*
X666000Y544000D02*
Y548000D01*
X959999Y274000D02*
X963999D01*
X962000Y272000D02*
Y276000D01*
X952000Y322000D02*
X956000D01*
X953999Y320000D02*
Y324000D01*
X839999Y162000D02*
X843999D01*
X842000Y160000D02*
Y164000D01*
X976000Y754000D02*
X979999D01*
X977999Y752000D02*
Y756000D01*
X440000Y514000D02*
X444000D01*
X442000Y512000D02*
Y516000D01*
X496000Y114000D02*
X500000D01*
X498000Y112000D02*
Y116000D01*
X616000Y226000D02*
X620000D01*
X618000Y224000D02*
Y228000D01*
X847999Y658000D02*
X852000D01*
X849999Y656000D02*
Y660000D01*
X967999Y98000D02*
X972000D01*
X969999Y96000D02*
Y100000D01*
X976000Y786000D02*
X979999D01*
X977999Y784000D02*
Y788000D01*
X959999Y434000D02*
X963999D01*
X962000Y432000D02*
Y436000D01*
X408000Y226000D02*
X412000D01*
X410000Y224000D02*
Y228000D01*
X608000Y466000D02*
X612000D01*
X610000Y464000D02*
Y468000D01*
X416000Y498000D02*
X420000D01*
X418000Y496000D02*
Y500000D01*
X560000Y882000D02*
X564000D01*
X562000Y879999D02*
Y883999D01*
X640000Y818000D02*
X644000D01*
X642000Y816000D02*
Y820000D01*
X432000Y306000D02*
X436000D01*
X434000Y304000D02*
Y308000D01*
X480000Y18000D02*
X484000D01*
X482000Y16000D02*
Y20000D01*
X608000Y370000D02*
X612000D01*
X610000Y368000D02*
Y372000D01*
X847999Y977999D02*
X852000D01*
X849999Y976000D02*
Y979999D01*
X943999Y146000D02*
X947999D01*
X946000Y144000D02*
Y148000D01*
X592000Y626000D02*
X596000D01*
X594000Y624000D02*
Y628000D01*
X640000Y562000D02*
X644000D01*
X642000Y560000D02*
Y564000D01*
X952000Y194000D02*
X956000D01*
X953999Y192000D02*
Y196000D01*
X584000Y610000D02*
X588000D01*
X586000Y608000D02*
Y612000D01*
X800000Y210000D02*
X804000D01*
X802000Y208000D02*
Y212000D01*
X552000Y866000D02*
X556000D01*
X554000Y863999D02*
Y867999D01*
X704000Y913999D02*
X708000D01*
X706000Y912000D02*
Y916000D01*
X872000Y98000D02*
X876000D01*
X873999Y96000D02*
Y100000D01*
X967999Y290000D02*
X972000D01*
X969999Y288000D02*
Y292000D01*
X608000Y626000D02*
X612000D01*
X610000Y624000D02*
Y628000D01*
X600000Y929999D02*
X604000D01*
X602000Y927999D02*
Y932000D01*
X832000Y210000D02*
X836000D01*
X834000Y208000D02*
Y212000D01*
X648000Y706000D02*
X652000D01*
X650000Y704000D02*
Y708000D01*
X504000Y386000D02*
X508000D01*
X506000Y384000D02*
Y388000D01*
X952000Y290000D02*
X956000D01*
X953999Y288000D02*
Y292000D01*
X576000Y946000D02*
X580000D01*
X578000Y943999D02*
Y947999D01*
X952000Y162000D02*
X956000D01*
X953999Y160000D02*
Y164000D01*
X720000Y818000D02*
X724000D01*
X722000Y816000D02*
Y820000D01*
X983999Y738000D02*
X987999D01*
X986000Y736000D02*
Y740000D01*
X712000Y834000D02*
X716000D01*
X714000Y832000D02*
Y836000D01*
X959999Y786000D02*
X963999D01*
X962000Y784000D02*
Y788000D01*
X896000Y82000D02*
X899999D01*
X897999Y80000D02*
Y84000D01*
X976000Y913999D02*
X979999D01*
X977999Y912000D02*
Y916000D01*
X736000Y818000D02*
X740000D01*
X738000Y816000D02*
Y820000D01*
X680000Y514000D02*
X684000D01*
X682000Y512000D02*
Y516000D01*
X808000Y98000D02*
X812000D01*
X809999Y96000D02*
Y100000D01*
X416000Y114000D02*
X420000D01*
X418000Y112000D02*
Y116000D01*
X672000Y946000D02*
X676000D01*
X674000Y943999D02*
Y947999D01*
X936000Y130000D02*
X939999D01*
X937999Y128000D02*
Y132000D01*
X416000Y913999D02*
X420000D01*
X418000Y912000D02*
Y916000D01*
X440000Y482000D02*
X444000D01*
X442000Y480000D02*
Y484000D01*
X896000Y50000D02*
X899999D01*
X897999Y48000D02*
Y52000D01*
X488000Y386000D02*
X492000D01*
X490000Y384000D02*
Y388000D01*
X872000Y162000D02*
X876000D01*
X873999Y160000D02*
Y164000D01*
X552000Y514000D02*
X556000D01*
X554000Y512000D02*
Y516000D01*
X672000Y849999D02*
X676000D01*
X674000Y847999D02*
Y852000D01*
X496000Y658000D02*
X500000D01*
X498000Y656000D02*
Y660000D01*
X672000Y338000D02*
X676000D01*
X674000Y336000D02*
Y340000D01*
X752000Y849999D02*
X756000D01*
X754000Y847999D02*
Y852000D01*
X736000Y626000D02*
X740000D01*
X738000Y624000D02*
Y628000D01*
X584000Y642000D02*
X588000D01*
X586000Y640000D02*
Y644000D01*
X576000Y530000D02*
X580000D01*
X578000Y528000D02*
Y532000D01*
X672000Y18000D02*
X676000D01*
X674000Y16000D02*
Y20000D01*
X400000Y754000D02*
X404000D01*
X402000Y752000D02*
Y756000D01*
X903999Y34000D02*
X907999D01*
X906000Y32000D02*
Y36000D01*
X488000Y962000D02*
X492000D01*
X490000Y959999D02*
Y963999D01*
X800000Y977999D02*
X804000D01*
X802000Y976000D02*
Y979999D01*
X456000Y866000D02*
X460000D01*
X458000Y863999D02*
Y867999D01*
X608000Y913999D02*
X612000D01*
X610000Y912000D02*
Y916000D01*
X512000Y498000D02*
X516000D01*
X514000Y496000D02*
Y500000D01*
X712000Y706000D02*
X716000D01*
X714000Y704000D02*
Y708000D01*
X608000Y882000D02*
X612000D01*
X610000Y879999D02*
Y883999D01*
X576000Y306000D02*
X580000D01*
X578000Y304000D02*
Y308000D01*
X736000Y977999D02*
X740000D01*
X738000Y976000D02*
Y979999D01*
X592000Y18000D02*
X596000D01*
X594000Y16000D02*
Y20000D01*
X648000Y130000D02*
X652000D01*
X650000Y128000D02*
Y132000D01*
X392000Y770000D02*
X396000D01*
X394000Y768000D02*
Y772000D01*
X488000Y770000D02*
X492000D01*
X490000Y768000D02*
Y772000D01*
X552000Y66000D02*
X556000D01*
X554000Y64000D02*
Y68000D01*
X704000Y882000D02*
X708000D01*
X706000Y879999D02*
Y883999D01*
X480000Y849999D02*
X484000D01*
X482000Y847999D02*
Y852000D01*
X464000Y370000D02*
X468000D01*
X466000Y368000D02*
Y372000D01*
X456000Y834000D02*
X460000D01*
X458000Y832000D02*
Y836000D01*
X488000Y514000D02*
X492000D01*
X490000Y512000D02*
Y516000D01*
X927999Y114000D02*
X932000D01*
X929999Y112000D02*
Y116000D01*
X464000Y114000D02*
X468000D01*
X466000Y112000D02*
Y116000D01*
X424000Y226000D02*
X428000D01*
X426000Y224000D02*
Y228000D01*
X472000Y226000D02*
X476000D01*
X474000Y224000D02*
Y228000D01*
X504000Y482000D02*
X508000D01*
X506000Y480000D02*
Y484000D01*
X456000Y354000D02*
X460000D01*
X458000Y352000D02*
Y356000D01*
X720000Y530000D02*
X724000D01*
X722000Y528000D02*
Y532000D01*
X512000Y977999D02*
X516000D01*
X514000Y976000D02*
Y979999D01*
X616000Y770000D02*
X620000D01*
X618000Y768000D02*
Y772000D01*
X536000Y194000D02*
X540000D01*
X538000Y192000D02*
Y196000D01*
X704000Y530000D02*
X708000D01*
X706000Y528000D02*
Y532000D01*
X927999Y210000D02*
X932000D01*
X929999Y208000D02*
Y212000D01*
X720000Y882000D02*
X724000D01*
X722000Y879999D02*
Y883999D01*
X496000Y498000D02*
X500000D01*
X498000Y496000D02*
Y500000D01*
X400000Y338000D02*
X404000D01*
X402000Y336000D02*
Y340000D01*
X752000Y530000D02*
X756000D01*
X754000Y528000D02*
Y532000D01*
X480000Y178000D02*
X484000D01*
X482000Y176000D02*
Y180000D01*
X696000Y226000D02*
X700000D01*
X698000Y224000D02*
Y228000D01*
X720000Y849999D02*
X724000D01*
X722000Y847999D02*
Y852000D01*
X712000Y482000D02*
X716000D01*
X714000Y480000D02*
Y484000D01*
X432000Y370000D02*
X436000D01*
X434000Y368000D02*
Y372000D01*
X400000Y913999D02*
X404000D01*
X402000Y912000D02*
Y916000D01*
X847999Y946000D02*
X852000D01*
X849999Y943999D02*
Y947999D01*
X879999Y977999D02*
X883999D01*
X882000Y976000D02*
Y979999D01*
X544000Y977999D02*
X548000D01*
X546000Y976000D02*
Y979999D01*
X432000Y977999D02*
X436000D01*
X434000Y976000D02*
Y979999D01*
X576000Y594000D02*
X580000D01*
X578000Y592000D02*
Y596000D01*
X528000Y242000D02*
X532000D01*
X530000Y240000D02*
Y244000D01*
X568000Y929999D02*
X572000D01*
X570000Y927999D02*
Y932000D01*
X672000Y50000D02*
X676000D01*
X674000Y48000D02*
Y52000D01*
X576000Y977999D02*
X580000D01*
X578000Y976000D02*
Y979999D01*
X736000Y722000D02*
X740000D01*
X738000Y720000D02*
Y724000D01*
X808000Y929999D02*
X812000D01*
X809999Y927999D02*
Y932000D01*
X952000Y98000D02*
X956000D01*
X953999Y96000D02*
Y100000D01*
X568000Y610000D02*
X572000D01*
X570000Y608000D02*
Y612000D01*
X887999Y929999D02*
X892000D01*
X889999Y927999D02*
Y932000D01*
X536000Y386000D02*
X540000D01*
X538000Y384000D02*
Y388000D01*
X624000Y306000D02*
X628000D01*
X626000Y304000D02*
Y308000D01*
X624000Y913999D02*
X628000D01*
X626000Y912000D02*
Y916000D01*
X912000Y146000D02*
X916000D01*
X913999Y144000D02*
Y148000D01*
X952000Y802000D02*
X956000D01*
X953999Y800000D02*
Y804000D01*
X839999Y34000D02*
X843999D01*
X842000Y32000D02*
Y36000D01*
X464000Y626000D02*
X468000D01*
X466000Y624000D02*
Y628000D01*
X672000Y658000D02*
X676000D01*
X674000Y656000D02*
Y660000D01*
X887999Y34000D02*
X892000D01*
X889999Y32000D02*
Y36000D01*
X688000Y562000D02*
X692000D01*
X690000Y560000D02*
Y564000D01*
X480000Y114000D02*
X484000D01*
X482000Y112000D02*
Y116000D01*
X552000Y929999D02*
X556000D01*
X554000Y927999D02*
Y932000D01*
X983999Y258000D02*
X987999D01*
X986000Y256000D02*
Y260000D01*
X384000Y338000D02*
X388000D01*
X386000Y336000D02*
Y340000D01*
X512000Y146000D02*
X516000D01*
X514000Y144000D02*
Y148000D01*
X728000Y546000D02*
X732000D01*
X730000Y544000D02*
Y548000D01*
X847999Y306000D02*
X852000D01*
X849999Y304000D02*
Y308000D01*
X576000Y498000D02*
X580000D01*
X578000Y496000D02*
Y500000D01*
X592000Y946000D02*
X596000D01*
X594000Y943999D02*
Y947999D01*
X896000Y977999D02*
X899999D01*
X897999Y976000D02*
Y979999D01*
X616000Y34000D02*
X620000D01*
X618000Y32000D02*
Y36000D01*
X959999Y818000D02*
X963999D01*
X962000Y816000D02*
Y820000D01*
X392000Y354000D02*
X396000D01*
X394000Y352000D02*
Y356000D01*
X808000Y162000D02*
X812000D01*
X809999Y160000D02*
Y164000D01*
X856000Y962000D02*
X859999D01*
X857999Y959999D02*
Y963999D01*
X496000Y370000D02*
X500000D01*
X498000Y368000D02*
Y372000D01*
X959999Y882000D02*
X963999D01*
X962000Y879999D02*
Y883999D01*
X744000Y642000D02*
X748000D01*
X746000Y640000D02*
Y644000D01*
X927999Y146000D02*
X932000D01*
X929999Y144000D02*
Y148000D01*
X488000Y610000D02*
X492000D01*
X490000Y608000D02*
Y612000D01*
X936000Y866000D02*
X939999D01*
X937999Y863999D02*
Y867999D01*
X512000Y370000D02*
X516000D01*
X514000Y368000D02*
Y372000D01*
X728000Y866000D02*
X732000D01*
X730000Y863999D02*
Y867999D01*
X624000Y18000D02*
X628000D01*
X626000Y16000D02*
Y20000D01*
X576000Y882000D02*
X580000D01*
X578000Y879999D02*
Y883999D01*
X720000Y498000D02*
X724000D01*
X722000Y496000D02*
Y500000D01*
X952000Y226000D02*
X956000D01*
X953999Y224000D02*
Y228000D01*
X504000Y66000D02*
X508000D01*
X506000Y64000D02*
Y68000D01*
X839999Y130000D02*
X843999D01*
X842000Y128000D02*
Y132000D01*
X887999Y98000D02*
X892000D01*
X889999Y96000D02*
Y100000D01*
X967999Y162000D02*
X972000D01*
X969999Y160000D02*
Y164000D01*
X696000Y642000D02*
X700000D01*
X698000Y640000D02*
Y644000D01*
X712000Y770000D02*
X716000D01*
X714000Y768000D02*
Y772000D01*
X440000Y962000D02*
X444000D01*
X442000Y959999D02*
Y963999D01*
X568000Y770000D02*
X572000D01*
X570000Y768000D02*
Y772000D01*
X696000Y834000D02*
X700000D01*
X698000Y832000D02*
Y836000D01*
X528000Y370000D02*
X532000D01*
X530000Y368000D02*
Y372000D01*
X464000Y913999D02*
X468000D01*
X466000Y912000D02*
Y916000D01*
X720000Y913999D02*
X724000D01*
X722000Y912000D02*
Y916000D01*
X823999Y34000D02*
X827999D01*
X826000Y32000D02*
Y36000D01*
X416000Y370000D02*
X420000D01*
X418000Y368000D02*
Y372000D01*
X576000Y722000D02*
X580000D01*
X578000Y720000D02*
Y724000D01*
X608000Y946000D02*
X612000D01*
X610000Y943999D02*
Y947999D01*
X640000Y242000D02*
X644000D01*
X642000Y240000D02*
Y244000D01*
X416000Y786000D02*
X420000D01*
X418000Y784000D02*
Y788000D01*
X976000Y274000D02*
X979999D01*
X977999Y272000D02*
Y276000D01*
X448000Y50000D02*
X452000D01*
X450000Y48000D02*
Y52000D01*
X688000Y913999D02*
X692000D01*
X690000Y912000D02*
Y916000D01*
X952000Y642000D02*
X956000D01*
X953999Y640000D02*
Y644000D01*
X752000Y498000D02*
X756000D01*
X754000Y496000D02*
Y500000D01*
X967999Y130000D02*
X972000D01*
X969999Y128000D02*
Y132000D01*
X496000Y18000D02*
X500000D01*
X498000Y16000D02*
Y20000D01*
X520000Y674000D02*
X524000D01*
X522000Y672000D02*
Y676000D01*
X808000Y194000D02*
X812000D01*
X809999Y192000D02*
Y196000D01*
X512000Y946000D02*
X516000D01*
X514000Y943999D02*
Y947999D01*
X847999Y146000D02*
X852000D01*
X849999Y144000D02*
Y148000D01*
X472000Y770000D02*
X476000D01*
X474000Y768000D02*
Y772000D01*
X624000Y178000D02*
X628000D01*
X626000Y176000D02*
Y180000D01*
X688000Y18000D02*
X692000D01*
X690000Y16000D02*
Y20000D01*
X816000Y18000D02*
X820000D01*
X818000Y16000D02*
Y20000D01*
X672000Y882000D02*
X676000D01*
X674000Y879999D02*
Y883999D01*
X863999Y18000D02*
X867999D01*
X866000Y16000D02*
Y20000D01*
X919999Y162000D02*
X923999D01*
X922000Y160000D02*
Y164000D01*
X983999Y290000D02*
X987999D01*
X986000Y288000D02*
Y292000D01*
X432000Y18000D02*
X436000D01*
X434000Y16000D02*
Y20000D01*
X903999Y66000D02*
X907999D01*
X906000Y64000D02*
Y68000D01*
X536000Y34000D02*
X540000D01*
X538000Y32000D02*
Y36000D01*
X959999Y146000D02*
X963999D01*
X962000Y144000D02*
Y148000D01*
X664000Y770000D02*
X668000D01*
X666000Y768000D02*
Y772000D01*
X640000Y210000D02*
X644000D01*
X642000Y208000D02*
Y212000D01*
X912000Y977999D02*
X916000D01*
X913999Y976000D02*
Y979999D01*
X456000Y962000D02*
X460000D01*
X458000Y959999D02*
Y963999D01*
X976000Y242000D02*
X979999D01*
X977999Y240000D02*
Y244000D01*
X696000Y929999D02*
X700000D01*
X698000Y927999D02*
Y932000D01*
X856000Y34000D02*
X859999D01*
X857999Y32000D02*
Y36000D01*
X896000Y114000D02*
X899999D01*
X897999Y112000D02*
Y116000D01*
X832000Y146000D02*
X836000D01*
X834000Y144000D02*
Y148000D01*
X568000Y34000D02*
X572000D01*
X570000Y32000D02*
Y36000D01*
X752000Y977999D02*
X756000D01*
X754000Y976000D02*
Y979999D01*
X752000Y913999D02*
X756000D01*
X754000Y912000D02*
Y916000D01*
X416000Y82000D02*
X420000D01*
X418000Y80000D02*
Y84000D01*
X448000Y849999D02*
X452000D01*
X450000Y847999D02*
Y852000D01*
X704000Y562000D02*
X708000D01*
X706000Y560000D02*
Y564000D01*
X464000Y498000D02*
X468000D01*
X466000Y496000D02*
Y500000D01*
X480000Y946000D02*
X484000D01*
X482000Y943999D02*
Y947999D01*
X959999Y849999D02*
X963999D01*
X962000Y847999D02*
Y852000D01*
X496000Y338000D02*
X500000D01*
X498000Y336000D02*
Y340000D01*
X896000Y913999D02*
X899999D01*
X897999Y912000D02*
Y916000D01*
X448000Y306000D02*
X452000D01*
X450000Y304000D02*
Y308000D01*
X608000Y178000D02*
X612000D01*
X610000Y176000D02*
Y180000D01*
X800000Y114000D02*
X804000D01*
X802000Y112000D02*
Y116000D01*
X936000Y98000D02*
X939999D01*
X937999Y96000D02*
Y100000D01*
X560000Y946000D02*
X564000D01*
X562000Y943999D02*
Y947999D01*
X648000Y34000D02*
X652000D01*
X650000Y32000D02*
Y36000D01*
X696000Y34000D02*
X700000D01*
X698000Y32000D02*
Y36000D01*
X512000Y306000D02*
X516000D01*
X514000Y304000D02*
Y308000D01*
X704000Y338000D02*
X708000D01*
X706000Y336000D02*
Y340000D01*
X983999Y130000D02*
X987999D01*
X986000Y128000D02*
Y132000D01*
X592000Y913999D02*
X596000D01*
X594000Y912000D02*
Y916000D01*
X600000Y514000D02*
X604000D01*
X602000Y512000D02*
Y516000D01*
X520000Y258000D02*
X524000D01*
X522000Y256000D02*
Y260000D01*
X440000Y866000D02*
X444000D01*
X442000Y863999D02*
Y867999D01*
X456000Y258000D02*
X460000D01*
X458000Y256000D02*
Y260000D01*
X592000Y882000D02*
X596000D01*
X594000Y879999D02*
Y883999D01*
X967999Y897999D02*
X972000D01*
X969999Y896000D02*
Y899999D01*
X440000Y98000D02*
X444000D01*
X442000Y96000D02*
Y100000D01*
X959999Y178000D02*
X963999D01*
X962000Y176000D02*
Y180000D01*
X488000Y226000D02*
X492000D01*
X490000Y224000D02*
Y228000D01*
X632000Y354000D02*
X636000D01*
X634000Y352000D02*
Y356000D01*
X448000Y370000D02*
X452000D01*
X450000Y368000D02*
Y372000D01*
X568000Y642000D02*
X572000D01*
X570000Y640000D02*
Y644000D01*
X496000Y242000D02*
X500000D01*
X498000Y240000D02*
Y244000D01*
X903999Y929999D02*
X907999D01*
X906000Y927999D02*
Y932000D01*
X983999Y834000D02*
X987999D01*
X986000Y832000D02*
Y836000D01*
X704000Y498000D02*
X708000D01*
X706000Y496000D02*
Y500000D01*
X464000Y946000D02*
X468000D01*
X466000Y943999D02*
Y947999D01*
X600000Y610000D02*
X604000D01*
X602000Y608000D02*
Y612000D01*
X728000Y642000D02*
X732000D01*
X730000Y640000D02*
Y644000D01*
X847999Y82000D02*
X852000D01*
X849999Y80000D02*
Y84000D01*
X624000Y882000D02*
X628000D01*
X626000Y879999D02*
Y883999D01*
X456000Y514000D02*
X460000D01*
X458000Y512000D02*
Y516000D01*
X440000Y642000D02*
X444000D01*
X442000Y640000D02*
Y644000D01*
X520000Y642000D02*
X524000D01*
X522000Y640000D02*
Y644000D01*
X488000Y98000D02*
X492000D01*
X490000Y96000D02*
Y100000D01*
X839999Y194000D02*
X843999D01*
X842000Y192000D02*
Y196000D01*
X712000Y866000D02*
X716000D01*
X714000Y863999D02*
Y867999D01*
X464000Y849999D02*
X468000D01*
X466000Y847999D02*
Y852000D01*
X688000Y849999D02*
X692000D01*
X690000Y847999D02*
Y852000D01*
X816000Y114000D02*
X820000D01*
X818000Y112000D02*
Y116000D01*
X448000Y818000D02*
X452000D01*
X450000Y816000D02*
Y820000D01*
X400000Y210000D02*
X404000D01*
X402000Y208000D02*
Y212000D01*
X808000Y130000D02*
X812000D01*
X809999Y128000D02*
Y132000D01*
X816000Y146000D02*
X820000D01*
X818000Y144000D02*
Y148000D01*
X416000Y849999D02*
X420000D01*
X418000Y847999D02*
Y852000D01*
X496000Y50000D02*
X500000D01*
X498000Y48000D02*
Y52000D01*
X440000Y258000D02*
X444000D01*
X442000Y256000D02*
Y260000D01*
X712000Y514000D02*
X716000D01*
X714000Y512000D02*
Y516000D01*
X847999Y882000D02*
X852000D01*
X849999Y879999D02*
Y883999D01*
X800000Y913999D02*
X804000D01*
X802000Y912000D02*
Y916000D01*
X432000Y849999D02*
X436000D01*
X434000Y847999D02*
Y852000D01*
X656000Y82000D02*
X660000D01*
X658000Y80000D02*
Y84000D01*
X720000Y658000D02*
X724000D01*
X722000Y656000D02*
Y660000D01*
X472000Y834000D02*
X476000D01*
X474000Y832000D02*
Y836000D01*
X847999Y434000D02*
X852000D01*
X849999Y432000D02*
Y436000D01*
X584000Y386000D02*
X588000D01*
X586000Y384000D02*
Y388000D01*
X512000Y913999D02*
X516000D01*
X514000Y912000D02*
Y916000D01*
X656000Y913999D02*
X660000D01*
X658000Y912000D02*
Y916000D01*
X728000Y929999D02*
X732000D01*
X730000Y927999D02*
Y932000D01*
X616000Y929999D02*
X620000D01*
X618000Y927999D02*
Y932000D01*
X800000Y82000D02*
X804000D01*
X802000Y80000D02*
Y84000D01*
X480000Y82000D02*
X484000D01*
X482000Y80000D02*
Y84000D01*
X847999Y498000D02*
X852000D01*
X849999Y496000D02*
Y500000D01*
X967999Y738000D02*
X972000D01*
X969999Y736000D02*
Y740000D01*
X448000Y18000D02*
X452000D01*
X450000Y16000D02*
Y20000D01*
X632000Y386000D02*
X636000D01*
X634000Y384000D02*
Y388000D01*
X704000Y50000D02*
X708000D01*
X706000Y48000D02*
Y52000D01*
X823999Y897999D02*
X827999D01*
X826000Y896000D02*
Y899999D01*
X576000Y242000D02*
X580000D01*
X578000Y240000D02*
Y244000D01*
X832000Y18000D02*
X836000D01*
X834000Y16000D02*
Y20000D01*
X959999Y370000D02*
X963999D01*
X962000Y368000D02*
Y372000D01*
X424000Y834000D02*
X428000D01*
X426000Y832000D02*
Y836000D01*
X896000Y946000D02*
X899999D01*
X897999Y943999D02*
Y947999D01*
X736000Y658000D02*
X740000D01*
X738000Y656000D02*
Y660000D01*
X576000Y50000D02*
X580000D01*
X578000Y48000D02*
Y52000D01*
X640000Y18000D02*
X644000D01*
X642000Y16000D02*
Y20000D01*
X672000Y690000D02*
X676000D01*
X674000Y688000D02*
Y692000D01*
X664000Y226000D02*
X668000D01*
X666000Y224000D02*
Y228000D01*
X560000Y370000D02*
X564000D01*
X562000Y368000D02*
Y372000D01*
X440000Y610000D02*
X444000D01*
X442000Y608000D02*
Y612000D01*
X712000Y546000D02*
X716000D01*
X714000Y544000D02*
Y548000D01*
X879999Y50000D02*
X883999D01*
X882000Y48000D02*
Y52000D01*
X456000Y386000D02*
X460000D01*
X458000Y384000D02*
Y388000D01*
X983999Y770000D02*
X987999D01*
X986000Y768000D02*
Y772000D01*
X528000Y977999D02*
X532000D01*
X530000Y976000D02*
Y979999D01*
X680000Y354000D02*
X684000D01*
X682000Y352000D02*
Y356000D01*
X528000Y210000D02*
X532000D01*
X530000Y208000D02*
Y212000D01*
X512000Y242000D02*
X516000D01*
X514000Y240000D02*
Y244000D01*
X552000Y34000D02*
X556000D01*
X554000Y32000D02*
Y36000D01*
X632000Y194000D02*
X636000D01*
X634000Y192000D02*
Y196000D01*
X504000Y770000D02*
X508000D01*
X506000Y768000D02*
Y772000D01*
X656000Y210000D02*
X660000D01*
X658000Y208000D02*
Y212000D01*
X656000Y50000D02*
X660000D01*
X658000Y48000D02*
Y52000D01*
X736000Y466000D02*
X740000D01*
X738000Y464000D02*
Y468000D01*
X896000Y178000D02*
X899999D01*
X897999Y176000D02*
Y180000D01*
X400000Y498000D02*
X404000D01*
X402000Y496000D02*
Y500000D01*
X480000Y466000D02*
X484000D01*
X482000Y464000D02*
Y468000D01*
X440000Y354000D02*
X444000D01*
X442000Y352000D02*
Y356000D01*
X448000Y338000D02*
X452000D01*
X450000Y336000D02*
Y340000D01*
X720000Y626000D02*
X724000D01*
X722000Y624000D02*
Y628000D01*
X936000Y258000D02*
X939999D01*
X937999Y256000D02*
Y260000D01*
X536000Y162000D02*
X540000D01*
X538000Y160000D02*
Y164000D01*
X504000Y866000D02*
X508000D01*
X506000Y863999D02*
Y867999D01*
X504000Y226000D02*
X508000D01*
X506000Y224000D02*
Y228000D01*
X959999Y210000D02*
X963999D01*
X962000Y208000D02*
Y212000D01*
X472000Y674000D02*
X476000D01*
X474000Y672000D02*
Y676000D01*
X392000Y482000D02*
X396000D01*
X394000Y480000D02*
Y484000D01*
X664000Y929999D02*
X668000D01*
X666000Y927999D02*
Y932000D01*
X912000Y210000D02*
X916000D01*
X913999Y208000D02*
Y212000D01*
X688000Y658000D02*
X692000D01*
X690000Y656000D02*
Y660000D01*
X608000Y977999D02*
X612000D01*
X610000Y976000D02*
Y979999D01*
X512000Y338000D02*
X516000D01*
X514000Y336000D02*
Y340000D01*
X424000Y642000D02*
X428000D01*
X426000Y640000D02*
Y644000D01*
X496000Y306000D02*
X500000D01*
X498000Y304000D02*
Y308000D01*
X416000Y178000D02*
X420000D01*
X418000Y176000D02*
Y180000D01*
X560000Y50000D02*
X564000D01*
X562000Y48000D02*
Y52000D01*
X943999Y274000D02*
X947999D01*
X946000Y272000D02*
Y276000D01*
X680000Y194000D02*
X684000D01*
X682000Y192000D02*
Y196000D01*
X472000Y866000D02*
X476000D01*
X474000Y863999D02*
Y867999D01*
X544000Y466000D02*
X548000D01*
X546000Y464000D02*
Y468000D01*
X976000Y722000D02*
X979999D01*
X977999Y720000D02*
Y724000D01*
X823999Y194000D02*
X827999D01*
X826000Y192000D02*
Y196000D01*
X952000Y834000D02*
X956000D01*
X953999Y832000D02*
Y836000D01*
X863999Y146000D02*
X867999D01*
X866000Y144000D02*
Y148000D01*
X704000Y18000D02*
X708000D01*
X706000Y16000D02*
Y20000D01*
X656000Y690000D02*
X660000D01*
X658000Y688000D02*
Y692000D01*
X680000Y162000D02*
X684000D01*
X682000Y160000D02*
Y164000D01*
X856000Y130000D02*
X859999D01*
X857999Y128000D02*
Y132000D01*
X872000Y962000D02*
X876000D01*
X873999Y959999D02*
Y963999D01*
X560000Y658000D02*
X564000D01*
X562000Y656000D02*
Y660000D01*
X720000Y977999D02*
X724000D01*
X722000Y976000D02*
Y979999D01*
X384000Y626000D02*
X388000D01*
X386000Y624000D02*
Y628000D01*
X480000Y658000D02*
X484000D01*
X482000Y656000D02*
Y660000D01*
X480000Y594000D02*
X484000D01*
X482000Y592000D02*
Y596000D01*
X424000Y514000D02*
X428000D01*
X426000Y512000D02*
Y516000D01*
X488000Y929999D02*
X492000D01*
X490000Y927999D02*
Y932000D01*
X528000Y114000D02*
X532000D01*
X530000Y112000D02*
Y116000D01*
X712000Y929999D02*
X716000D01*
X714000Y927999D02*
Y932000D01*
X736000Y946000D02*
X740000D01*
X738000Y943999D02*
Y947999D01*
X816000Y210000D02*
X820000D01*
X818000Y208000D02*
Y212000D01*
X847999Y50000D02*
X852000D01*
X849999Y48000D02*
Y52000D01*
X632000Y929999D02*
X636000D01*
X634000Y927999D02*
Y932000D01*
X408000Y897999D02*
X412000D01*
X410000Y896000D02*
Y899999D01*
X616000Y194000D02*
X620000D01*
X618000Y192000D02*
Y196000D01*
X656000Y338000D02*
X660000D01*
X658000Y336000D02*
Y340000D01*
X976000Y849999D02*
X979999D01*
X977999Y847999D02*
Y852000D01*
X952000Y258000D02*
X956000D01*
X953999Y256000D02*
Y260000D01*
X816000Y913999D02*
X820000D01*
X818000Y912000D02*
Y916000D01*
X592000Y466000D02*
X596000D01*
X594000Y464000D02*
Y468000D01*
X568000Y386000D02*
X572000D01*
X570000Y384000D02*
Y388000D01*
X320000Y977999D02*
X324000D01*
X322000Y976000D02*
Y979999D01*
X328000Y962000D02*
X332000D01*
X330000Y959999D02*
Y963999D01*
X320000Y946000D02*
X324000D01*
X322000Y943999D02*
Y947999D01*
X328000Y929999D02*
X332000D01*
X330000Y927999D02*
Y932000D01*
X328000Y897999D02*
X332000D01*
X330000Y896000D02*
Y899999D01*
X320000Y882000D02*
X324000D01*
X322000Y879999D02*
Y883999D01*
X328000Y866000D02*
X332000D01*
X330000Y863999D02*
Y867999D01*
X328000Y834000D02*
X332000D01*
X330000Y832000D02*
Y836000D01*
X328000Y802000D02*
X332000D01*
X330000Y800000D02*
Y804000D01*
X328000Y770000D02*
X332000D01*
X330000Y768000D02*
Y772000D01*
X328000Y738000D02*
X332000D01*
X330000Y736000D02*
Y740000D01*
X328000Y706000D02*
X332000D01*
X330000Y704000D02*
Y708000D01*
X328000Y674000D02*
X332000D01*
X330000Y672000D02*
Y676000D01*
X328000Y642000D02*
X332000D01*
X330000Y640000D02*
Y644000D01*
X328000Y610000D02*
X332000D01*
X330000Y608000D02*
Y612000D01*
X328000Y578000D02*
X332000D01*
X330000Y576000D02*
Y580000D01*
X328000Y546000D02*
X332000D01*
X330000Y544000D02*
Y548000D01*
X328000Y514000D02*
X332000D01*
X330000Y512000D02*
Y516000D01*
X328000Y482000D02*
X332000D01*
X330000Y480000D02*
Y484000D01*
X328000Y450000D02*
X332000D01*
X330000Y448000D02*
Y452000D01*
X328000Y418000D02*
X332000D01*
X330000Y416000D02*
Y420000D01*
X328000Y386000D02*
X332000D01*
X330000Y384000D02*
Y388000D01*
X328000Y354000D02*
X332000D01*
X330000Y352000D02*
Y356000D01*
X328000Y322000D02*
X332000D01*
X330000Y320000D02*
Y324000D01*
X328000Y290000D02*
X332000D01*
X330000Y288000D02*
Y292000D01*
X328000Y258000D02*
X332000D01*
X330000Y256000D02*
Y260000D01*
X320000Y242000D02*
X324000D01*
X322000Y240000D02*
Y244000D01*
X328000Y226000D02*
X332000D01*
X330000Y224000D02*
Y228000D01*
X320000Y210000D02*
X324000D01*
X322000Y208000D02*
Y212000D01*
X328000Y194000D02*
X332000D01*
X330000Y192000D02*
Y196000D01*
X320000Y178000D02*
X324000D01*
X322000Y176000D02*
Y180000D01*
X328000Y162000D02*
X332000D01*
X330000Y160000D02*
Y164000D01*
X320000Y82000D02*
X324000D01*
X322000Y80000D02*
Y84000D01*
X320000Y18000D02*
X324000D01*
X322000Y16000D02*
Y20000D01*
X304000Y977999D02*
X308000D01*
X306000Y976000D02*
Y979999D01*
X312000Y962000D02*
X316000D01*
X314000Y959999D02*
Y963999D01*
X304000Y946000D02*
X308000D01*
X306000Y943999D02*
Y947999D01*
X312000Y929999D02*
X316000D01*
X314000Y927999D02*
Y932000D01*
X304000Y754000D02*
X308000D01*
X306000Y752000D02*
Y756000D01*
X304000Y626000D02*
X308000D01*
X306000Y624000D02*
Y628000D01*
X304000Y498000D02*
X308000D01*
X306000Y496000D02*
Y500000D01*
X304000Y338000D02*
X308000D01*
X306000Y336000D02*
Y340000D01*
X312000Y226000D02*
X316000D01*
X314000Y224000D02*
Y228000D01*
X304000Y210000D02*
X308000D01*
X306000Y208000D02*
Y212000D01*
X312000Y194000D02*
X316000D01*
X314000Y192000D02*
Y196000D01*
X304000Y178000D02*
X308000D01*
X306000Y176000D02*
Y180000D01*
X304000Y82000D02*
X308000D01*
X306000Y80000D02*
Y84000D01*
X304000Y18000D02*
X308000D01*
X306000Y16000D02*
Y20000D01*
X296000Y770000D02*
X300000D01*
X298000Y768000D02*
Y772000D01*
X288000Y754000D02*
X292000D01*
X290000Y752000D02*
Y756000D01*
X288000Y626000D02*
X292000D01*
X290000Y624000D02*
Y628000D01*
X296000Y610000D02*
X300000D01*
X298000Y608000D02*
Y612000D01*
X288000Y498000D02*
X292000D01*
X290000Y496000D02*
Y500000D01*
X296000Y482000D02*
X300000D01*
X298000Y480000D02*
Y484000D01*
X288000Y338000D02*
X292000D01*
X290000Y336000D02*
Y340000D01*
X296000Y226000D02*
X300000D01*
X298000Y224000D02*
Y228000D01*
X288000Y210000D02*
X292000D01*
X290000Y208000D02*
Y212000D01*
X296000Y194000D02*
X300000D01*
X298000Y192000D02*
Y196000D01*
X288000Y146000D02*
X292000D01*
X290000Y144000D02*
Y148000D01*
X296000Y130000D02*
X300000D01*
X298000Y128000D02*
Y132000D01*
X288000Y114000D02*
X292000D01*
X290000Y112000D02*
Y116000D01*
X296000Y98000D02*
X300000D01*
X298000Y96000D02*
Y100000D01*
X288000Y82000D02*
X292000D01*
X290000Y80000D02*
Y84000D01*
X288000Y18000D02*
X292000D01*
X290000Y16000D02*
Y20000D01*
X272000Y977999D02*
X276000D01*
X274000Y976000D02*
Y979999D01*
X272000Y913999D02*
X276000D01*
X274000Y912000D02*
Y916000D01*
X272000Y786000D02*
X276000D01*
X274000Y784000D02*
Y788000D01*
X280000Y770000D02*
X284000D01*
X282000Y768000D02*
Y772000D01*
X272000Y658000D02*
X276000D01*
X274000Y656000D02*
Y660000D01*
X280000Y642000D02*
X284000D01*
X282000Y640000D02*
Y644000D01*
X280000Y514000D02*
X284000D01*
X282000Y512000D02*
Y516000D01*
X272000Y498000D02*
X276000D01*
X274000Y496000D02*
Y500000D01*
X280000Y450000D02*
X284000D01*
X282000Y448000D02*
Y452000D01*
X272000Y242000D02*
X276000D01*
X274000Y240000D02*
Y244000D01*
X280000Y226000D02*
X284000D01*
X282000Y224000D02*
Y228000D01*
X272000Y210000D02*
X276000D01*
X274000Y208000D02*
Y212000D01*
X272000Y178000D02*
X276000D01*
X274000Y176000D02*
Y180000D01*
X280000Y162000D02*
X284000D01*
X282000Y160000D02*
Y164000D01*
X272000Y146000D02*
X276000D01*
X274000Y144000D02*
Y148000D01*
X280000Y130000D02*
X284000D01*
X282000Y128000D02*
Y132000D01*
X272000Y114000D02*
X276000D01*
X274000Y112000D02*
Y116000D01*
X280000Y98000D02*
X284000D01*
X282000Y96000D02*
Y100000D01*
X272000Y82000D02*
X276000D01*
X274000Y80000D02*
Y84000D01*
X272000Y50000D02*
X276000D01*
X274000Y48000D02*
Y52000D01*
X280000Y34000D02*
X284000D01*
X282000Y32000D02*
Y36000D01*
X272000Y18000D02*
X276000D01*
X274000Y16000D02*
Y20000D01*
X256000Y977999D02*
X260000D01*
X258000Y976000D02*
Y979999D01*
X256000Y913999D02*
X260000D01*
X258000Y912000D02*
Y916000D01*
X264000Y802000D02*
X268000D01*
X266000Y800000D02*
Y804000D01*
X264000Y770000D02*
X268000D01*
X266000Y768000D02*
Y772000D01*
X264000Y642000D02*
X268000D01*
X266000Y640000D02*
Y644000D01*
X264000Y514000D02*
X268000D01*
X266000Y512000D02*
Y516000D01*
X264000Y386000D02*
X268000D01*
X266000Y384000D02*
Y388000D01*
X256000Y338000D02*
X260000D01*
X258000Y336000D02*
Y340000D01*
X256000Y242000D02*
X260000D01*
X258000Y240000D02*
Y244000D01*
X264000Y226000D02*
X268000D01*
X266000Y224000D02*
Y228000D01*
X256000Y178000D02*
X260000D01*
X258000Y176000D02*
Y180000D01*
X264000Y162000D02*
X268000D01*
X266000Y160000D02*
Y164000D01*
X256000Y146000D02*
X260000D01*
X258000Y144000D02*
Y148000D01*
X264000Y130000D02*
X268000D01*
X266000Y128000D02*
Y132000D01*
X256000Y114000D02*
X260000D01*
X258000Y112000D02*
Y116000D01*
X264000Y98000D02*
X268000D01*
X266000Y96000D02*
Y100000D01*
X264000Y34000D02*
X268000D01*
X266000Y32000D02*
Y36000D01*
X256000Y18000D02*
X260000D01*
X258000Y16000D02*
Y20000D01*
X240000Y977999D02*
X244000D01*
X242000Y976000D02*
Y979999D01*
X248000Y897999D02*
X252000D01*
X250000Y896000D02*
Y899999D01*
X240000Y882000D02*
X244000D01*
X242000Y879999D02*
Y883999D01*
X248000Y450000D02*
X252000D01*
X250000Y448000D02*
Y452000D01*
X248000Y386000D02*
X252000D01*
X250000Y384000D02*
Y388000D01*
X248000Y290000D02*
X252000D01*
X250000Y288000D02*
Y292000D01*
X240000Y242000D02*
X244000D01*
X242000Y240000D02*
Y244000D01*
X240000Y210000D02*
X244000D01*
X242000Y208000D02*
Y212000D01*
X248000Y194000D02*
X252000D01*
X250000Y192000D02*
Y196000D01*
X248000Y162000D02*
X252000D01*
X250000Y160000D02*
Y164000D01*
X248000Y98000D02*
X252000D01*
X250000Y96000D02*
Y100000D01*
X240000Y18000D02*
X244000D01*
X242000Y16000D02*
Y20000D01*
X232000Y929999D02*
X236000D01*
X234000Y927999D02*
Y932000D01*
X224000Y882000D02*
X228000D01*
X226000Y879999D02*
Y883999D01*
X232000Y866000D02*
X236000D01*
X234000Y863999D02*
Y867999D01*
X224000Y786000D02*
X228000D01*
X226000Y784000D02*
Y788000D01*
X232000Y98000D02*
X236000D01*
X234000Y96000D02*
Y100000D01*
X224000Y18000D02*
X228000D01*
X226000Y16000D02*
Y20000D01*
X216000Y866000D02*
X220000D01*
X218000Y863999D02*
Y867999D01*
X208000Y786000D02*
X212000D01*
X210000Y784000D02*
Y788000D01*
X216000Y770000D02*
X220000D01*
X218000Y768000D02*
Y772000D01*
X216000Y642000D02*
X220000D01*
X218000Y640000D02*
Y644000D01*
X216000Y322000D02*
X220000D01*
X218000Y320000D02*
Y324000D01*
X208000Y274000D02*
X212000D01*
X210000Y272000D02*
Y276000D01*
X216000Y226000D02*
X220000D01*
X218000Y224000D02*
Y228000D01*
X208000Y178000D02*
X212000D01*
X210000Y176000D02*
Y180000D01*
X216000Y162000D02*
X220000D01*
X218000Y160000D02*
Y164000D01*
X208000Y146000D02*
X212000D01*
X210000Y144000D02*
Y148000D01*
X208000Y114000D02*
X212000D01*
X210000Y112000D02*
Y116000D01*
X208000Y82000D02*
X212000D01*
X210000Y80000D02*
Y84000D01*
X208000Y50000D02*
X212000D01*
X210000Y48000D02*
Y52000D01*
X208000Y18000D02*
X212000D01*
X210000Y16000D02*
Y20000D01*
X200000Y290000D02*
X204000D01*
X202000Y288000D02*
Y292000D01*
X192000Y274000D02*
X196000D01*
X194000Y272000D02*
Y276000D01*
X200000Y226000D02*
X204000D01*
X202000Y224000D02*
Y228000D01*
X200000Y194000D02*
X204000D01*
X202000Y192000D02*
Y196000D01*
X192000Y178000D02*
X196000D01*
X194000Y176000D02*
Y180000D01*
X200000Y162000D02*
X204000D01*
X202000Y160000D02*
Y164000D01*
X192000Y146000D02*
X196000D01*
X194000Y144000D02*
Y148000D01*
X200000Y130000D02*
X204000D01*
X202000Y128000D02*
Y132000D01*
X192000Y114000D02*
X196000D01*
X194000Y112000D02*
Y116000D01*
X200000Y98000D02*
X204000D01*
X202000Y96000D02*
Y100000D01*
X192000Y82000D02*
X196000D01*
X194000Y80000D02*
Y84000D01*
X200000Y66000D02*
X204000D01*
X202000Y64000D02*
Y68000D01*
X200000Y34000D02*
X204000D01*
X202000Y32000D02*
Y36000D01*
X192000Y18000D02*
X196000D01*
X194000Y16000D02*
Y20000D01*
X176000Y882000D02*
X180000D01*
X178000Y879999D02*
Y883999D01*
X176000Y818000D02*
X180000D01*
X178000Y816000D02*
Y820000D01*
X176000Y626000D02*
X180000D01*
X178000Y624000D02*
Y628000D01*
X176000Y594000D02*
X180000D01*
X178000Y592000D02*
Y596000D01*
X176000Y562000D02*
X180000D01*
X178000Y560000D02*
Y564000D01*
X176000Y306000D02*
X180000D01*
X178000Y304000D02*
Y308000D01*
X184000Y290000D02*
X188000D01*
X186000Y288000D02*
Y292000D01*
X184000Y226000D02*
X188000D01*
X186000Y224000D02*
Y228000D01*
X184000Y194000D02*
X188000D01*
X186000Y192000D02*
Y196000D01*
X184000Y162000D02*
X188000D01*
X186000Y160000D02*
Y164000D01*
X176000Y146000D02*
X180000D01*
X178000Y144000D02*
Y148000D01*
X184000Y130000D02*
X188000D01*
X186000Y128000D02*
Y132000D01*
X176000Y114000D02*
X180000D01*
X178000Y112000D02*
Y116000D01*
X184000Y98000D02*
X188000D01*
X186000Y96000D02*
Y100000D01*
X176000Y82000D02*
X180000D01*
X178000Y80000D02*
Y84000D01*
X176000Y18000D02*
X180000D01*
X178000Y16000D02*
Y20000D01*
X168000Y897999D02*
X172000D01*
X170000Y896000D02*
Y899999D01*
X160000Y882000D02*
X164000D01*
X162000Y879999D02*
Y883999D01*
X168000Y866000D02*
X172000D01*
X170000Y863999D02*
Y867999D01*
X160000Y818000D02*
X164000D01*
X162000Y816000D02*
Y820000D01*
X160000Y786000D02*
X164000D01*
X162000Y784000D02*
Y788000D01*
X168000Y386000D02*
X172000D01*
X170000Y384000D02*
Y388000D01*
X160000Y370000D02*
X164000D01*
X162000Y368000D02*
Y372000D01*
X160000Y338000D02*
X164000D01*
X162000Y336000D02*
Y340000D01*
X168000Y322000D02*
X172000D01*
X170000Y320000D02*
Y324000D01*
X160000Y306000D02*
X164000D01*
X162000Y304000D02*
Y308000D01*
X168000Y290000D02*
X172000D01*
X170000Y288000D02*
Y292000D01*
X168000Y258000D02*
X172000D01*
X170000Y256000D02*
Y260000D01*
X160000Y146000D02*
X164000D01*
X162000Y144000D02*
Y148000D01*
X168000Y130000D02*
X172000D01*
X170000Y128000D02*
Y132000D01*
X160000Y114000D02*
X164000D01*
X162000Y112000D02*
Y116000D01*
X168000Y98000D02*
X172000D01*
X170000Y96000D02*
Y100000D01*
X168000Y66000D02*
X172000D01*
X170000Y64000D02*
Y68000D01*
X160000Y50000D02*
X164000D01*
X162000Y48000D02*
Y52000D01*
X168000Y34000D02*
X172000D01*
X170000Y32000D02*
Y36000D01*
X152000Y897999D02*
X156000D01*
X154000Y896000D02*
Y899999D01*
X144000Y882000D02*
X148000D01*
X146000Y879999D02*
Y883999D01*
X152000Y866000D02*
X156000D01*
X154000Y863999D02*
Y867999D01*
X144000Y818000D02*
X148000D01*
X146000Y816000D02*
Y820000D01*
X144000Y786000D02*
X148000D01*
X146000Y784000D02*
Y788000D01*
X152000Y770000D02*
X156000D01*
X154000Y768000D02*
Y772000D01*
X144000Y402000D02*
X148000D01*
X146000Y400000D02*
Y404000D01*
X152000Y386000D02*
X156000D01*
X154000Y384000D02*
Y388000D01*
X144000Y370000D02*
X148000D01*
X146000Y368000D02*
Y372000D01*
X144000Y338000D02*
X148000D01*
X146000Y336000D02*
Y340000D01*
X152000Y322000D02*
X156000D01*
X154000Y320000D02*
Y324000D01*
X144000Y274000D02*
X148000D01*
X146000Y272000D02*
Y276000D01*
X152000Y258000D02*
X156000D01*
X154000Y256000D02*
Y260000D01*
X152000Y226000D02*
X156000D01*
X154000Y224000D02*
Y228000D01*
X152000Y194000D02*
X156000D01*
X154000Y192000D02*
Y196000D01*
X144000Y178000D02*
X148000D01*
X146000Y176000D02*
Y180000D01*
X152000Y162000D02*
X156000D01*
X154000Y160000D02*
Y164000D01*
X144000Y146000D02*
X148000D01*
X146000Y144000D02*
Y148000D01*
X152000Y130000D02*
X156000D01*
X154000Y128000D02*
Y132000D01*
X152000Y98000D02*
X156000D01*
X154000Y96000D02*
Y100000D01*
X152000Y66000D02*
X156000D01*
X154000Y64000D02*
Y68000D01*
X144000Y50000D02*
X148000D01*
X146000Y48000D02*
Y52000D01*
X128000Y498000D02*
X132000D01*
X130000Y496000D02*
Y500000D01*
X128000Y434000D02*
X132000D01*
X130000Y432000D02*
Y436000D01*
X128000Y402000D02*
X132000D01*
X130000Y400000D02*
Y404000D01*
X136000Y386000D02*
X140000D01*
X138000Y384000D02*
Y388000D01*
X128000Y370000D02*
X132000D01*
X130000Y368000D02*
Y372000D01*
X128000Y338000D02*
X132000D01*
X130000Y336000D02*
Y340000D01*
X136000Y322000D02*
X140000D01*
X138000Y320000D02*
Y324000D01*
X136000Y290000D02*
X140000D01*
X138000Y288000D02*
Y292000D01*
X128000Y274000D02*
X132000D01*
X130000Y272000D02*
Y276000D01*
X128000Y242000D02*
X132000D01*
X130000Y240000D02*
Y244000D01*
X128000Y210000D02*
X132000D01*
X130000Y208000D02*
Y212000D01*
X136000Y162000D02*
X140000D01*
X138000Y160000D02*
Y164000D01*
X128000Y146000D02*
X132000D01*
X130000Y144000D02*
Y148000D01*
X136000Y66000D02*
X140000D01*
X138000Y64000D02*
Y68000D01*
X128000Y50000D02*
X132000D01*
X130000Y48000D02*
Y52000D01*
X112000Y977999D02*
X116000D01*
X114000Y976000D02*
Y979999D01*
X120000Y962000D02*
X124000D01*
X122000Y959999D02*
Y963999D01*
X112000Y946000D02*
X116000D01*
X114000Y943999D02*
Y947999D01*
X120000Y929999D02*
X124000D01*
X122000Y927999D02*
Y932000D01*
X112000Y913999D02*
X116000D01*
X114000Y912000D02*
Y916000D01*
X120000Y897999D02*
X124000D01*
X122000Y896000D02*
Y899999D01*
X112000Y882000D02*
X116000D01*
X114000Y879999D02*
Y883999D01*
X120000Y866000D02*
X124000D01*
X122000Y863999D02*
Y867999D01*
X112000Y818000D02*
X116000D01*
X114000Y816000D02*
Y820000D01*
X120000Y514000D02*
X124000D01*
X122000Y512000D02*
Y516000D01*
X112000Y498000D02*
X116000D01*
X114000Y496000D02*
Y500000D01*
X120000Y482000D02*
X124000D01*
X122000Y480000D02*
Y484000D01*
X120000Y450000D02*
X124000D01*
X122000Y448000D02*
Y452000D01*
X112000Y434000D02*
X116000D01*
X114000Y432000D02*
Y436000D01*
X120000Y418000D02*
X124000D01*
X122000Y416000D02*
Y420000D01*
X112000Y402000D02*
X116000D01*
X114000Y400000D02*
Y404000D01*
X120000Y386000D02*
X124000D01*
X122000Y384000D02*
Y388000D01*
X112000Y370000D02*
X116000D01*
X114000Y368000D02*
Y372000D01*
X112000Y338000D02*
X116000D01*
X114000Y336000D02*
Y340000D01*
X120000Y322000D02*
X124000D01*
X122000Y320000D02*
Y324000D01*
X120000Y290000D02*
X124000D01*
X122000Y288000D02*
Y292000D01*
X112000Y274000D02*
X116000D01*
X114000Y272000D02*
Y276000D01*
X112000Y210000D02*
X116000D01*
X114000Y208000D02*
Y212000D01*
X120000Y194000D02*
X124000D01*
X122000Y192000D02*
Y196000D01*
X120000Y162000D02*
X124000D01*
X122000Y160000D02*
Y164000D01*
X112000Y146000D02*
X116000D01*
X114000Y144000D02*
Y148000D01*
X120000Y130000D02*
X124000D01*
X122000Y128000D02*
Y132000D01*
X112000Y114000D02*
X116000D01*
X114000Y112000D02*
Y116000D01*
X120000Y98000D02*
X124000D01*
X122000Y96000D02*
Y100000D01*
X120000Y66000D02*
X124000D01*
X122000Y64000D02*
Y68000D01*
X112000Y50000D02*
X116000D01*
X114000Y48000D02*
Y52000D01*
X112000Y18000D02*
X116000D01*
X114000Y16000D02*
Y20000D01*
X96000Y977999D02*
X100000D01*
X98000Y976000D02*
Y979999D01*
X104000Y962000D02*
X108000D01*
X106000Y959999D02*
Y963999D01*
X96000Y946000D02*
X100000D01*
X98000Y943999D02*
Y947999D01*
X104000Y929999D02*
X108000D01*
X106000Y927999D02*
Y932000D01*
X96000Y913999D02*
X100000D01*
X98000Y912000D02*
Y916000D01*
X104000Y897999D02*
X108000D01*
X106000Y896000D02*
Y899999D01*
X96000Y882000D02*
X100000D01*
X98000Y879999D02*
Y883999D01*
X104000Y866000D02*
X108000D01*
X106000Y863999D02*
Y867999D01*
X104000Y514000D02*
X108000D01*
X106000Y512000D02*
Y516000D01*
X96000Y498000D02*
X100000D01*
X98000Y496000D02*
Y500000D01*
X104000Y482000D02*
X108000D01*
X106000Y480000D02*
Y484000D01*
X104000Y450000D02*
X108000D01*
X106000Y448000D02*
Y452000D01*
X104000Y418000D02*
X108000D01*
X106000Y416000D02*
Y420000D01*
X96000Y402000D02*
X100000D01*
X98000Y400000D02*
Y404000D01*
X104000Y386000D02*
X108000D01*
X106000Y384000D02*
Y388000D01*
X104000Y322000D02*
X108000D01*
X106000Y320000D02*
Y324000D01*
X104000Y290000D02*
X108000D01*
X106000Y288000D02*
Y292000D01*
X96000Y274000D02*
X100000D01*
X98000Y272000D02*
Y276000D01*
X104000Y258000D02*
X108000D01*
X106000Y256000D02*
Y260000D01*
X96000Y210000D02*
X100000D01*
X98000Y208000D02*
Y212000D01*
X104000Y194000D02*
X108000D01*
X106000Y192000D02*
Y196000D01*
X96000Y146000D02*
X100000D01*
X98000Y144000D02*
Y148000D01*
X104000Y130000D02*
X108000D01*
X106000Y128000D02*
Y132000D01*
X96000Y114000D02*
X100000D01*
X98000Y112000D02*
Y116000D01*
X104000Y98000D02*
X108000D01*
X106000Y96000D02*
Y100000D01*
X96000Y82000D02*
X100000D01*
X98000Y80000D02*
Y84000D01*
X104000Y66000D02*
X108000D01*
X106000Y64000D02*
Y68000D01*
X96000Y50000D02*
X100000D01*
X98000Y48000D02*
Y52000D01*
X104000Y34000D02*
X108000D01*
X106000Y32000D02*
Y36000D01*
X96000Y18000D02*
X100000D01*
X98000Y16000D02*
Y20000D01*
X88000Y929999D02*
X92000D01*
X90000Y927999D02*
Y932000D01*
X80000Y913999D02*
X84000D01*
X82000Y912000D02*
Y916000D01*
X88000Y897999D02*
X92000D01*
X90000Y896000D02*
Y899999D01*
X80000Y882000D02*
X84000D01*
X82000Y879999D02*
Y883999D01*
X88000Y866000D02*
X92000D01*
X90000Y863999D02*
Y867999D01*
X80000Y562000D02*
X84000D01*
X82000Y560000D02*
Y564000D01*
X88000Y514000D02*
X92000D01*
X90000Y512000D02*
Y516000D01*
X80000Y498000D02*
X84000D01*
X82000Y496000D02*
Y500000D01*
X88000Y482000D02*
X92000D01*
X90000Y480000D02*
Y484000D01*
X80000Y402000D02*
X84000D01*
X82000Y400000D02*
Y404000D01*
X80000Y306000D02*
X84000D01*
X82000Y304000D02*
Y308000D01*
X80000Y242000D02*
X84000D01*
X82000Y240000D02*
Y244000D01*
X80000Y146000D02*
X84000D01*
X82000Y144000D02*
Y148000D01*
X88000Y98000D02*
X92000D01*
X90000Y96000D02*
Y100000D01*
X80000Y82000D02*
X84000D01*
X82000Y80000D02*
Y84000D01*
X80000Y18000D02*
X84000D01*
X82000Y16000D02*
Y20000D01*
X72000Y897999D02*
X76000D01*
X74000Y896000D02*
Y899999D01*
X64000Y882000D02*
X68000D01*
X66000Y879999D02*
Y883999D01*
X72000Y866000D02*
X76000D01*
X74000Y863999D02*
Y867999D01*
X64000Y754000D02*
X68000D01*
X66000Y752000D02*
Y756000D01*
X72000Y738000D02*
X76000D01*
X74000Y736000D02*
Y740000D01*
X64000Y722000D02*
X68000D01*
X66000Y720000D02*
Y724000D01*
X72000Y546000D02*
X76000D01*
X74000Y544000D02*
Y548000D01*
X64000Y530000D02*
X68000D01*
X66000Y528000D02*
Y532000D01*
X64000Y498000D02*
X68000D01*
X66000Y496000D02*
Y500000D01*
X72000Y482000D02*
X76000D01*
X74000Y480000D02*
Y484000D01*
X64000Y402000D02*
X68000D01*
X66000Y400000D02*
Y404000D01*
X64000Y242000D02*
X68000D01*
X66000Y240000D02*
Y244000D01*
X72000Y130000D02*
X76000D01*
X74000Y128000D02*
Y132000D01*
X72000Y98000D02*
X76000D01*
X74000Y96000D02*
Y100000D01*
X56000Y897999D02*
X60000D01*
X58000Y896000D02*
Y899999D01*
X56000Y738000D02*
X60000D01*
X58000Y736000D02*
Y740000D01*
X56000Y482000D02*
X60000D01*
X58000Y480000D02*
Y484000D01*
X48000Y402000D02*
X52000D01*
X50000Y400000D02*
Y404000D01*
X48000Y370000D02*
X52000D01*
X50000Y368000D02*
Y372000D01*
X48000Y306000D02*
X52000D01*
X50000Y304000D02*
Y308000D01*
X48000Y274000D02*
X52000D01*
X50000Y272000D02*
Y276000D01*
X48000Y242000D02*
X52000D01*
X50000Y240000D02*
Y244000D01*
X56000Y130000D02*
X60000D01*
X58000Y128000D02*
Y132000D01*
X56000Y98000D02*
X60000D01*
X58000Y96000D02*
Y100000D01*
X40000Y897999D02*
X44000D01*
X42000Y896000D02*
Y899999D01*
X32000Y882000D02*
X36000D01*
X34000Y879999D02*
Y883999D01*
X32000Y658000D02*
X36000D01*
X34000Y656000D02*
Y660000D01*
X32000Y530000D02*
X36000D01*
X34000Y528000D02*
Y532000D01*
X32000Y402000D02*
X36000D01*
X34000Y400000D02*
Y404000D01*
X40000Y322000D02*
X44000D01*
X42000Y320000D02*
Y324000D01*
X32000Y306000D02*
X36000D01*
X34000Y304000D02*
Y308000D01*
X32000Y242000D02*
X36000D01*
X34000Y240000D02*
Y244000D01*
X16000Y913999D02*
X20000D01*
X18000Y912000D02*
Y916000D01*
X24000Y897999D02*
X28000D01*
X26000Y896000D02*
Y899999D01*
X16000Y882000D02*
X20000D01*
X18000Y879999D02*
Y883999D01*
X24000Y866000D02*
X28000D01*
X26000Y863999D02*
Y867999D01*
X16000Y722000D02*
X20000D01*
X18000Y720000D02*
Y724000D01*
X24000Y706000D02*
X28000D01*
X26000Y704000D02*
Y708000D01*
X16000Y690000D02*
X20000D01*
X18000Y688000D02*
Y692000D01*
X24000Y674000D02*
X28000D01*
X26000Y672000D02*
Y676000D01*
X16000Y658000D02*
X20000D01*
X18000Y656000D02*
Y660000D01*
X24000Y642000D02*
X28000D01*
X26000Y640000D02*
Y644000D01*
X24000Y610000D02*
X28000D01*
X26000Y608000D02*
Y612000D01*
X24000Y578000D02*
X28000D01*
X26000Y576000D02*
Y580000D01*
X24000Y546000D02*
X28000D01*
X26000Y544000D02*
Y548000D01*
X24000Y514000D02*
X28000D01*
X26000Y512000D02*
Y516000D01*
X24000Y482000D02*
X28000D01*
X26000Y480000D02*
Y484000D01*
X24000Y450000D02*
X28000D01*
X26000Y448000D02*
Y452000D01*
X24000Y354000D02*
X28000D01*
X26000Y352000D02*
Y356000D01*
X24000Y322000D02*
X28000D01*
X26000Y320000D02*
Y324000D01*
X24000Y290000D02*
X28000D01*
X26000Y288000D02*
Y292000D01*
X16000Y242000D02*
X20000D01*
X18000Y240000D02*
Y244000D01*
X24000Y98000D02*
X28000D01*
X26000Y96000D02*
Y100000D01*
X16000Y82000D02*
X20000D01*
X18000Y80000D02*
Y84000D01*
X16000Y18000D02*
X20000D01*
X18000Y16000D02*
Y20000D01*
X755000Y695000D02*
X759000D01*
X757000Y693000D02*
Y697000D01*
X850000Y523000D02*
X854000D01*
X852000Y521000D02*
Y525000D01*
X839000Y538000D02*
X843000D01*
X841000Y536000D02*
Y540000D01*
X832000Y546000D02*
X836000D01*
X834000Y544000D02*
Y548000D01*
X825000Y553000D02*
X829000D01*
X827000Y551000D02*
Y555000D01*
X817000Y561000D02*
X821000D01*
X819000Y559000D02*
Y563000D01*
X809000Y569000D02*
X813000D01*
X811000Y567000D02*
Y571000D01*
X918230Y473000D02*
X922230D01*
X920230Y471000D02*
Y475000D01*
X867635Y524600D02*
X871636D01*
X869635Y522600D02*
Y526600D01*
X911000Y411000D02*
X915000D01*
X913000Y409000D02*
Y413000D01*
X919000Y385000D02*
X923000D01*
X921000Y383000D02*
Y387000D01*
X926000Y361000D02*
X930000D01*
X928000Y359000D02*
Y363000D01*
X933000Y339000D02*
X937000D01*
X935000Y337000D02*
Y341000D01*
X867635Y435700D02*
X871636D01*
X869635Y433700D02*
Y437700D01*
X867635Y627700D02*
X871635D01*
X869635Y625700D02*
Y629700D01*
X926000Y458000D02*
X930000D01*
X928000Y456000D02*
Y460000D01*
X897365Y511000D02*
X901365D01*
X899364Y509000D02*
Y513000D01*
X939770Y434000D02*
X943770D01*
X941770Y432000D02*
Y436000D01*
X933000Y446000D02*
X937000D01*
X935000Y444000D02*
Y448000D01*
X911230Y485000D02*
X915230D01*
X913230Y483000D02*
Y487000D01*
X904000Y498000D02*
X908000D01*
X906000Y496000D02*
Y500000D01*
X904000Y690000D02*
X908000D01*
X906000Y688000D02*
Y692000D01*
X918000Y665000D02*
X922000D01*
X920000Y663000D02*
Y667000D01*
X911230Y677000D02*
X915230D01*
X913230Y675000D02*
Y679000D01*
X925000Y650000D02*
X929000D01*
X927000Y648000D02*
Y652000D01*
X933000Y638000D02*
X937000D01*
X935000Y636000D02*
Y640000D01*
X939770Y626000D02*
X943770D01*
X941770Y624000D02*
Y628000D01*
X897365Y703000D02*
X901365D01*
X899364Y701000D02*
Y705000D01*
X940000Y820000D02*
X944000D01*
X942000Y818000D02*
Y822000D01*
X932000Y832000D02*
X936000D01*
X934000Y830000D02*
Y834000D01*
X925000Y845000D02*
X929000D01*
X927000Y843000D02*
Y847000D01*
X918000Y859000D02*
X922000D01*
X920000Y857000D02*
Y861000D01*
X912000Y871000D02*
X916000D01*
X914000Y869000D02*
Y873000D01*
X905000Y884000D02*
X909000D01*
X907000Y882000D02*
Y886000D01*
X898000Y897000D02*
X902000D01*
X900000Y895000D02*
Y899000D01*
X867000Y745000D02*
X871000D01*
X869000Y743000D02*
Y747000D01*
X867635Y511900D02*
X871636D01*
X869635Y509900D02*
Y513900D01*
X867635Y499200D02*
X871636D01*
X869635Y497200D02*
Y501200D01*
X867635Y486500D02*
X871636D01*
X869635Y484500D02*
Y488500D01*
X867635Y473800D02*
X871636D01*
X869635Y471800D02*
Y475800D01*
X867635Y461100D02*
X871636D01*
X869635Y459100D02*
Y463100D01*
X867635Y448400D02*
X871636D01*
X869635Y446400D02*
Y450400D01*
X867635Y703900D02*
X871635D01*
X869635Y701900D02*
Y705900D01*
X867635Y691200D02*
X871635D01*
X869635Y689200D02*
Y693200D01*
X867635Y678500D02*
X871635D01*
X869635Y676500D02*
Y680500D01*
X867635Y665800D02*
X871635D01*
X869635Y663800D02*
Y667800D01*
X867635Y653100D02*
X871635D01*
X869635Y651100D02*
Y655100D01*
X867635Y640400D02*
X871635D01*
X869635Y638400D02*
Y642400D01*
X866636Y819800D02*
X870636D01*
X868635Y817800D02*
Y821800D01*
X866636Y832500D02*
X870636D01*
X868635Y830500D02*
Y834500D01*
X796000Y884000D02*
X800000D01*
X798000Y882000D02*
Y886000D01*
X803000Y871000D02*
X807000D01*
X805000Y869000D02*
Y873000D01*
X810000Y857000D02*
X814000D01*
X812000Y855000D02*
Y859000D01*
X866636Y845200D02*
X870636D01*
X868635Y843200D02*
Y847200D01*
X866636Y857900D02*
X870636D01*
X868635Y855900D02*
Y859900D01*
X866636Y870600D02*
X870636D01*
X868635Y868600D02*
Y872600D01*
X866636Y883300D02*
X870636D01*
X868635Y881300D02*
Y885300D01*
X866636Y896000D02*
X870636D01*
X868635Y894000D02*
Y898000D01*
X49000Y341000D02*
X53000D01*
X51000Y339000D02*
Y343000D01*
X70000Y341000D02*
X74000D01*
X72000Y339000D02*
Y343000D01*
X633086Y832000D02*
X637086D01*
X635086Y830000D02*
Y834000D01*
X682000Y832000D02*
X686000D01*
X684000Y830000D02*
Y834000D01*
X869000Y368000D02*
X873000D01*
X871000Y366000D02*
Y370000D01*
X512000Y726000D02*
X516000D01*
X514000Y724000D02*
Y728000D01*
X731000Y745000D02*
X735000D01*
X733000Y743000D02*
Y747000D01*
X675000Y680000D02*
X679000D01*
X677000Y678000D02*
Y682000D01*
X866636Y934100D02*
X870636D01*
X868635Y932100D02*
Y936100D01*
X508350Y820650D02*
X512350D01*
X510350Y818650D02*
Y822650D01*
X457000Y724000D02*
X461000D01*
X459000Y722000D02*
Y726000D01*
X594258Y846050D02*
X598257D01*
X596258Y844050D02*
Y848050D01*
X537743Y807950D02*
X541743D01*
X539743Y805950D02*
Y809950D01*
X537000Y663000D02*
X541000D01*
X539000Y661000D02*
Y665000D01*
X839000Y806000D02*
X843000D01*
X841000Y804000D02*
Y808000D01*
X773000Y806000D02*
X777000D01*
X775000Y804000D02*
Y808000D01*
X773000Y821000D02*
X777000D01*
X775000Y819000D02*
Y823000D01*
X536786Y751050D02*
X540787D01*
X538787Y749050D02*
Y753050D01*
X536786Y725650D02*
X540787D01*
X538787Y723650D02*
Y727650D01*
X773000Y614000D02*
X777000D01*
X775000Y612000D02*
Y616000D01*
X839000Y614000D02*
X843000D01*
X841000Y612000D02*
Y616000D01*
X393000Y825200D02*
X397000D01*
X395000Y823200D02*
Y827200D01*
X393000Y812500D02*
X397000D01*
X395000Y810500D02*
Y814500D01*
X393000Y837900D02*
X397000D01*
X395000Y835900D02*
Y839900D01*
X393000Y850600D02*
X397000D01*
X395000Y848600D02*
Y852600D01*
X393000Y863300D02*
X397000D01*
X395000Y861300D02*
Y865300D01*
X394000Y686100D02*
X398000D01*
X396000Y684100D02*
Y688100D01*
X394000Y698800D02*
X398000D01*
X396000Y696800D02*
Y700800D01*
X394000Y711500D02*
X398000D01*
X396000Y709500D02*
Y713500D01*
X394000Y724200D02*
X398000D01*
X396000Y722200D02*
Y726200D01*
X866636Y769000D02*
X870636D01*
X868635Y767000D02*
Y771000D01*
X866636Y781700D02*
X870636D01*
X868635Y779700D02*
Y783700D01*
X866636Y794400D02*
X870636D01*
X868635Y792400D02*
Y796400D01*
X866636Y807100D02*
X870636D01*
X868635Y805100D02*
Y809100D01*
X867635Y615000D02*
X871635D01*
X869635Y613000D02*
Y617000D01*
X867635Y602300D02*
X871635D01*
X869635Y600300D02*
Y604300D01*
X867635Y589600D02*
X871635D01*
X869635Y587600D02*
Y591600D01*
X867635Y576900D02*
X871635D01*
X869635Y574900D02*
Y578900D01*
X394500Y546650D02*
X398500D01*
X396500Y544650D02*
Y548650D01*
X394500Y559350D02*
X398500D01*
X396500Y557350D02*
Y561350D01*
X394500Y572050D02*
X398500D01*
X396500Y570050D02*
Y574050D01*
X394500Y584750D02*
X398500D01*
X396500Y582750D02*
Y586750D01*
X867635Y384900D02*
X871636D01*
X869635Y382900D02*
Y386900D01*
X867635Y397600D02*
X871636D01*
X869635Y395600D02*
Y399600D01*
X867635Y410300D02*
X871636D01*
X869635Y408300D02*
Y412300D01*
X867635Y423000D02*
X871636D01*
X869635Y421000D02*
Y425000D01*
X394000Y409400D02*
X398000D01*
X396000Y407400D02*
Y411400D01*
X394000Y422100D02*
X398000D01*
X396000Y420100D02*
Y424100D01*
X394000Y434800D02*
X398000D01*
X396000Y432800D02*
Y436800D01*
X394000Y447500D02*
X398000D01*
X396000Y445500D02*
Y449500D01*
X772365Y934100D02*
X776365D01*
X774364Y932100D02*
Y936100D01*
X772865Y355550D02*
X776864D01*
X774865Y353550D02*
Y357550D01*
X773364Y742000D02*
X777365D01*
X775365Y740000D02*
Y744000D01*
X772000Y857000D02*
X776000D01*
X774000Y855000D02*
Y859000D01*
X772000Y845000D02*
X776000D01*
X774000Y843000D02*
Y847000D01*
X773000Y833000D02*
X777000D01*
X775000Y831000D02*
Y835000D01*
X773000Y552000D02*
X777000D01*
X775000Y550000D02*
Y554000D01*
X773000Y871000D02*
X777000D01*
X775000Y869000D02*
Y873000D01*
X772000Y883000D02*
X776000D01*
X774000Y881000D02*
Y885000D01*
X785257Y124050D02*
X789258D01*
X787258Y122050D02*
Y126050D01*
X850000Y343000D02*
X854000D01*
X852000Y341000D02*
Y345000D01*
X772000Y499000D02*
X776000D01*
X774000Y497000D02*
Y501000D01*
X773000Y487000D02*
X777000D01*
X775000Y485000D02*
Y489000D01*
X772000Y473000D02*
X776000D01*
X774000Y471000D02*
Y475000D01*
X772000Y461000D02*
X776000D01*
X774000Y459000D02*
Y463000D01*
X773000Y437000D02*
X777000D01*
X775000Y435000D02*
Y439000D01*
X773000Y422000D02*
X777000D01*
X775000Y420000D02*
Y424000D01*
X817000Y461000D02*
X821000D01*
X819000Y459000D02*
Y463000D01*
X810000Y473000D02*
X814000D01*
X812000Y471000D02*
Y475000D01*
X803000Y487000D02*
X807000D01*
X805000Y485000D02*
Y489000D01*
X796000Y500000D02*
X800000D01*
X798000Y498000D02*
Y502000D01*
X773000Y449000D02*
X777000D01*
X775000Y447000D02*
Y451000D01*
X824000Y448000D02*
X828000D01*
X826000Y446000D02*
Y450000D01*
X832000Y436000D02*
X836000D01*
X834000Y434000D02*
Y438000D01*
X839000Y422000D02*
X843000D01*
X841000Y420000D02*
Y424000D01*
X825000Y640000D02*
X829000D01*
X827000Y638000D02*
Y642000D01*
X831770Y628000D02*
X835770D01*
X833770Y626000D02*
Y630000D01*
X772000Y691000D02*
X776000D01*
X774000Y689000D02*
Y693000D01*
X773000Y679000D02*
X777000D01*
X775000Y677000D02*
Y681000D01*
X772000Y665000D02*
X776000D01*
X774000Y663000D02*
Y667000D01*
X772000Y653000D02*
X776000D01*
X774000Y651000D02*
Y655000D01*
X773000Y629000D02*
X777000D01*
X775000Y627000D02*
Y631000D01*
X817000Y653000D02*
X821000D01*
X819000Y651000D02*
Y655000D01*
X810000Y665000D02*
X814000D01*
X812000Y663000D02*
Y667000D01*
X803000Y679000D02*
X807000D01*
X805000Y677000D02*
Y681000D01*
X796000Y692000D02*
X800000D01*
X798000Y690000D02*
Y694000D01*
X773000Y641000D02*
X777000D01*
X775000Y639000D02*
Y643000D01*
X832000Y820000D02*
X836000D01*
X834000Y818000D02*
Y822000D01*
X824000Y832000D02*
X828000D01*
X826000Y830000D02*
Y834000D01*
X817000Y845000D02*
X821000D01*
X819000Y843000D02*
Y847000D01*
X851000Y731000D02*
X855000D01*
X853000Y729000D02*
Y733000D01*
X851000Y921000D02*
X855000D01*
X853000Y919000D02*
Y923000D01*
X850000Y103000D02*
X854000D01*
X852000Y101000D02*
Y105000D01*
X746000Y86000D02*
X750000D01*
X748000Y84000D02*
Y88000D01*
X531000Y134500D02*
X535000D01*
X533000Y132500D02*
Y136500D01*
X625742Y87950D02*
X629743D01*
X627743Y85950D02*
Y89950D01*
X546000Y315000D02*
X550000D01*
X548000Y313000D02*
Y317000D01*
X545000Y239100D02*
X549000D01*
X547000Y237100D02*
Y241100D01*
X567000Y205100D02*
X571000D01*
X569000Y203100D02*
Y207100D01*
X628000Y270100D02*
X632000D01*
X630000Y268100D02*
Y272100D01*
X648750Y269350D02*
X652750D01*
X650750Y267350D02*
Y271350D01*
X437250Y189000D02*
X441250D01*
X439250Y187000D02*
Y191000D01*
X772865Y190450D02*
X776864D01*
X774865Y188450D02*
Y192450D01*
X867135Y190450D02*
X871135D01*
X869136Y188450D02*
Y192450D01*
X867135Y203150D02*
X871135D01*
X869136Y201150D02*
Y205150D01*
X867135Y215850D02*
X871135D01*
X869136Y213850D02*
Y217850D01*
X867000Y229000D02*
X871000D01*
X869000Y227000D02*
Y231000D01*
X690000Y153000D02*
X694000D01*
X692000Y151000D02*
Y155000D01*
X533000Y15500D02*
X537000D01*
X535000Y13500D02*
Y17500D01*
X591750Y59250D02*
X595750D01*
X593750Y57250D02*
Y61250D01*
X581000Y96000D02*
X585000D01*
X583000Y94000D02*
Y98000D01*
X581000Y117000D02*
X585000D01*
X583000Y115000D02*
Y119000D01*
X601000D02*
X605000D01*
X603000Y117000D02*
Y121000D01*
X707000Y93000D02*
X711000D01*
X709000Y91000D02*
Y95000D01*
X749000Y152000D02*
X753000D01*
X751000Y150000D02*
Y154000D01*
X708000Y152000D02*
X712000D01*
X710000Y150000D02*
Y154000D01*
X124000Y571000D02*
X128000D01*
X126000Y569000D02*
Y573000D01*
X98000Y533000D02*
X102000D01*
X100000Y531000D02*
Y535000D01*
X297500Y533950D02*
X301500D01*
X299500Y531950D02*
Y535950D01*
X296000Y837900D02*
X300000D01*
X298000Y835900D02*
Y839900D01*
X25000Y848000D02*
X29000D01*
X27000Y846000D02*
Y850000D01*
X57000Y713000D02*
X61000D01*
X59000Y711000D02*
Y715000D01*
X297000Y711500D02*
X301000D01*
X299000Y709500D02*
Y713500D01*
X167000Y470000D02*
X171000D01*
X169000Y468000D02*
Y472000D01*
X297000Y434800D02*
X301000D01*
X299000Y432800D02*
Y436800D01*
X88000Y724000D02*
X92000D01*
X90000Y722000D02*
Y726000D01*
X297000Y724200D02*
X301000D01*
X299000Y722200D02*
Y726200D01*
X81000Y675000D02*
X85000D01*
X83000Y673000D02*
Y677000D01*
X297000Y673400D02*
X301000D01*
X299000Y671400D02*
Y675400D01*
X144000Y423000D02*
X148000D01*
X146000Y421000D02*
Y425000D01*
X297000Y396700D02*
X301000D01*
X299000Y394700D02*
Y398700D01*
X115000Y561000D02*
X119000D01*
X117000Y559000D02*
Y563000D01*
X297500Y559350D02*
X301500D01*
X299500Y557350D02*
Y561350D01*
X252000Y464000D02*
X256000D01*
X254000Y462000D02*
Y466000D01*
X65000Y697000D02*
X69000D01*
X67000Y695000D02*
Y699000D01*
X297000Y698800D02*
X301000D01*
X299000Y696800D02*
Y700800D01*
X296000Y826000D02*
X300000D01*
X298000Y824000D02*
Y828000D01*
X17000Y820000D02*
X21000D01*
X19000Y818000D02*
Y822000D01*
X158000Y452000D02*
X162000D01*
X160000Y450000D02*
Y454000D01*
X297000Y422100D02*
X301000D01*
X299000Y420100D02*
Y424100D01*
X248000Y617000D02*
X252000D01*
X250000Y615000D02*
Y619000D01*
X9000Y431000D02*
X13000D01*
X11000Y429000D02*
Y433000D01*
X297000Y447500D02*
X301000D01*
X299000Y445500D02*
Y449500D01*
X106000Y552000D02*
X110000D01*
X108000Y550000D02*
Y554000D01*
X297500Y546650D02*
X301500D01*
X299500Y544650D02*
Y548650D01*
X297000Y813000D02*
X301000D01*
X299000Y811000D02*
Y815000D01*
X8000Y798000D02*
X12000D01*
X10000Y796000D02*
Y800000D01*
X73000Y684000D02*
X77000D01*
X75000Y682000D02*
Y686000D01*
X297000Y686100D02*
X301000D01*
X299000Y684100D02*
Y688100D01*
X82000Y277250D02*
X86000D01*
X84000Y275250D02*
Y279250D01*
X117000Y226000D02*
X121000D01*
X119000Y224000D02*
Y228000D01*
X163000Y974000D02*
X167000D01*
X165000Y972000D02*
Y976000D01*
X131770Y542000D02*
X135770D01*
X133770Y540000D02*
Y544000D01*
X149000Y441000D02*
X153000D01*
X151000Y439000D02*
Y443000D01*
X297000Y409400D02*
X301000D01*
X299000Y407400D02*
Y411400D01*
X239000Y478000D02*
X243000D01*
X241000Y476000D02*
Y480000D01*
X297500Y572050D02*
X301500D01*
X299500Y570050D02*
Y574050D01*
X197650Y922300D02*
X201650D01*
X199650Y920300D02*
Y924300D01*
X210350Y922300D02*
X214350D01*
X212350Y920300D02*
Y924300D01*
X285500Y944650D02*
X289500D01*
X287500Y942650D02*
Y946650D01*
X285500Y957350D02*
X289500D01*
X287500Y955350D02*
Y959350D01*
X162000Y919000D02*
X166000D01*
X164000Y917000D02*
Y921000D01*
X143000Y974000D02*
X147000D01*
X145000Y972000D02*
Y976000D01*
X34000Y108000D02*
X38000D01*
X36000Y106000D02*
Y110000D01*
X34000Y142000D02*
X38000D01*
X36000Y140000D02*
Y144000D01*
X167000Y207000D02*
X171000D01*
X169000Y205000D02*
Y209000D01*
X117000Y178000D02*
X121000D01*
X119000Y176000D02*
Y180000D01*
M02*
