M48
;Layer_Color=9474304
;FILE_FORMAT=4:4
METRIC,LZ
;TYPE=PLATED
T01F00S00C0.4000
T03F00S00C0.7100
T04F00S00C0.8000
T05F00S00C0.8128
T06F00S00C0.8636
T07F00S00C1.0200
T08F00S00C1.1000
T09F00S00C1.1500
;TYPE=NON_PLATED
T10F00S00C4.4000
%
T01
X00018Y00018
X00082
X00098
X00114
X00106Y00034
X00098Y0005
X00114
X0013
X00138Y00066
X00122
X00106
X00098Y00082
X00082
X0009Y00098
X00106
X00122
X00114Y00114
X00098
X00106Y0013
X00122
X00074
X00058
Y00098
X00074
X00026
X00036Y00108
Y00142
X00018Y00082
X00154Y00098
X0017
X00186
X00202
X00194Y00114
X0021
X00202Y0013
X00186
X0017
X00154
X00162Y00114
X00178
Y00082
X00194
X0021
X00202Y00066
X0021Y0005
X00202Y00034
X00194Y00018
X0021
X00226
X00242
X00258
X00274
X0029
X00306
X00322
X0037
X00386
X00402
X00418
X00434
X0045
X00466
X00482
X00498
Y0005
X00482
X00466
X0045
X00458Y00066
X00474
X0049
X00506
X00498Y00082
X00514
X00482
X00466
X0045
X00434
X00418
X00386
X0037
X00322
X00306
X0029
X00274
X00282Y00098
X00298
X0029Y00114
X00274
X00258
X00266Y0013
X00282
X00298
X00266Y00098
X0025
X00234
X00274Y0005
X00282Y00034
X00266
X0017
X00162Y0005
X00146
X00154Y00066
X0017
X00178Y00018
X00442Y00066
Y00098
X00458
X00474
X0049
X00482Y00114
X00498
X00466
X0045
X00418
X00426Y0013
X0041
X00533Y001345
X0053Y00114
X00538Y00034
X00535Y000155
X00554Y00034
X0057
X00562Y0005
X00578
X0057Y00066
X00554
X0059375Y0005925
X00626Y0005
X00642
X00658
X00674
X0069
X00706
X00714Y00034
X00698
X00682
X00666
X0065
X00634
X00618
X0061Y00018
X00594
X00626
X00642
X00658
X00674
X0069
X00706
X00722
X00738
X00786
X00802
X00818
X00834
X00849999
X00866
X00882
X00897999
X00913999
X00906Y00034
X00889999
X00873999
X00857999
X00842
X00826
X00809999
X00794
X00802Y0005
X00818
X00834
X00849999
X00866
X00882
X00897999
X00906Y00066
X00889999
X00873999
X00857999
X00842
X00849999Y00082
X00866
X00882
X00897999
X00913999
X00922Y00098
X00906
X00889999
X00873999
X00882Y00114
X00897999
X00913999
X00929999
X00922Y0013
X00906
X00857999
X00842
X00826
X00809999
X00802Y00114
X00818
X00834
X00826Y00098
X00809999
X00802Y00082
X00818
X00852Y00103
X00787258Y0012405
X00748Y00086
X00709Y00093
X00658Y00082
X00627743Y0008795
X00583Y00096
X00583Y00117
X00603Y00119
X0065Y0013
X00937999
X00953999
X00969999
X00986
X00977999Y00114
X00962
X00946
X00953999Y00098
X00969999
X00986
X00937999
X00946Y00146
X00962
X00977999
X00986Y00162
X00969999
X00953999
X00937999
X00946Y00178
X00962
X00977999
X00986Y00194
X00969999
X00953999
X00937999
X00946Y0021
X00962
X00977999
X00986Y00226
X00969999
X00953999
X00937999
X00946Y00242
X00962
X00977999
X00986Y00258
X00969999
X00953999
X00937999
X00946Y00274
X00962
X00977999
X00986Y0029
X00969999
X00953999
X00937999
X00953999Y00322
X00969999
X00962Y0037
Y00402
Y00434
X0094177Y00434
X00953999Y0045
X00962Y00466
X00928Y00458
X00935Y00446
X0092023Y00473
X0091323Y00485
X00906Y00498
X00899364Y00511
X00869635Y005119
Y005246
X00852Y00523
X00841Y00538
X00849999Y00498
X00869635Y004992
Y004865
Y004738
Y004611
Y004484
Y004357
Y00423
Y004103
Y003976
Y003849
X00871Y00368
X00852Y00343
X00849999Y00306
Y00274
X00869Y00229
X00869136Y0021585
Y0020315
Y0019045
X00866Y00178
X00849999
X00834
X00818
X00802
X00809999Y00162
X00826
X00842
X00857999
X00873999
X00866Y00146
X00849999
X00834
X00818
X00802
X00809999Y00194
X00826
X00842
X00834Y0021
X00818
X00802
X00809999Y00226
X00774865Y0019045
X0077Y00178
X00754
X00751Y00152
X0071
X00692Y00153
X00698Y00162
X00682
X00674Y00178
X0069
X00682Y00194
X00666
X0065
X00634
X00618
X00602
X00586
X00578Y00178
X00594
X0061
X00626
X00642
X00658
Y0021
X00642
X00626
X0061
X00594
X00602Y00226
X00618
X00634
X0065
X00666
X00658Y00242
X00642
X00626
X0061
X00578
X00547Y002391
X00554Y00258
X00548Y00315
X00546Y00338
X00562
Y0037
X00578
X00594
X0061
X00626
X00642
X00658
X00674
X00682Y00354
X00666
X0065
X00634
X00618
X00602
Y00386
X00618
X00634
X0065
X00642Y00338
X00626
X00634Y00322
X00618
X00626Y00306
X0063Y002701
X00634Y00258
X0065075Y0026935
X0069Y00306
Y00338
X00674
X00658
X00706
X00774865Y0035555
X00775Y00422
Y00437
Y00449
X00774Y00461
Y00473
X00775Y00487
X00774Y00499
X00754Y00498
X00738
X00722
X00706
X00714Y00482
X0073
X00746
X00738Y00466
X00754
X00746Y0045
Y00514
X0073
X00714
X00698
X00682
X00674Y0053
X0069
X00706
X00722
X00738
X00754
X00798Y005
X00805Y00487
X00812Y00473
X00819Y00461
X00826Y00448
X00834Y00436
X00849999Y00434
X00841Y00422
X00849999Y00466
X00913Y00411
X00921Y00385
X00928Y00361
X00935Y00339
X00929999Y00274
X00922Y00258
X00906
X00897999Y00242
X00913999
X00929999
X00922Y00226
X00906
X00897999Y0021
X00913999
X00929999
X00922Y00194
X00906
X00897999Y00178
X00913999
X00929999
X00922Y00162
X00906
X00897999Y00146
X00913999
X00929999
X00722Y00178
X00698Y00226
X00569Y002051
X00578Y00306
X00586Y00386
X0057
X00554
X00546Y0037
Y00466
X00562
X00578
X00594
X0061
Y00498
X00602Y00514
X00578Y0053
Y00498
X00562
X00546
X00554Y00482
X0057
X00586
X00634
X00642Y00466
X00666Y0045
X00698Y00418
X00554Y00514
X00538
X00522
X00506
X0049
X00474
X00458
X00442
X00426
X00418Y00498
X00434
X0045
X00466
X00482
X00498
X00514
X0053
X00538Y00482
X00522
X00506
X0049
X00474
X00458
X00442
X0045Y00466
X00466
X00482
X00498
X00514
X0053
X00538Y00386
X00522
X00506
X0049
X00474
X00458
X00442
X00426
X00418Y0037
X00434
X0045
X00466
X00482
X00498
X00514
X0053
Y00338
X00514
X00498
X00482
X00466
X0045
X00458Y00354
X00442
X0041
X00394
X00386Y00338
X00402
X00418Y00306
X00434
X0045
X00498
X00514
X0053
X00538Y00258
X00522
X00506
X0049
X00474
X00458
X00442
X00426
X00418Y00242
X00434
X0045
X00466
X00482
X00498
X00514
X0053
X00522Y00226
X00506
X0049
X00474
X00458
X00442
X00426
X0041
X00394
X00402Y0021
X00418
Y00178
X00434
X0045
X00466
X00482
X0049Y00162
X00474
X00458
X00466Y00146
X00482
X00498
X00514
X00522Y00162
X00506
X00538
X0053Y00178
X00538Y00194
X00522
X0053Y0021
X00482
X0043925Y00189
X00402Y00178
X00386
X00378Y00194
X0033
X00314
X00298
X0029Y0021
X00306
X00322
X0033Y00226
X00314
X00298
X00282
X00266
X00258Y00242
X00274
Y0021
Y00178
X00258
X00266Y00162
X00282
X00274Y00146
X0029
X00258
X0025Y00162
Y00194
X00242Y0021
Y00242
X00218Y00226
X00202
X00186
Y00194
X00202
X00194Y00178
X0021
X00218Y00162
X00202
X00186
X00178Y00146
X00194
X0021
X00162
X00146
X00154Y00162
X00146Y00178
X00154Y00194
X00169Y00207
X00154Y00226
Y00258
X0017
Y0029
X00186
X00202
X00194Y00274
X0021
X0025Y0029
X00258Y00338
X0029
X00306
X0033Y00354
Y00386
Y00418
Y0045
Y00482
Y00514
X00306Y00498
X0029
X00274
X00282Y00514
X00266
X002995Y0053395
X00298Y00482
X00299Y004475
Y004348
Y004221
Y004094
Y003967
X00266Y00386
X0025
Y0045
X00254Y00464
X00241Y00478
X00282Y0045
X00396Y004475
Y004348
Y004221
Y004094
X00394Y00482
X0041
X00402Y00498
X00386
X0033Y00322
Y0029
Y00258
X00322Y00242
Y00178
X00306
X0033Y00162
X00418Y00146
X00218Y00322
X0017
X00154
X00146Y00338
X00162
Y0037
X00146
X00154Y00386
X0017
X00146Y00402
X00146Y00423
X00151Y00441
X0016Y00452
X00169Y0047
X00162Y00306
X00178
X00146Y00274
X0013
X00114
X00098
X00084Y0027725
X00082Y00306
X0005
X00034
X00042Y00322
X00026
Y00354
X00051Y00341
X00072Y00341
X00114Y00338
X0013
X00138Y00322
X00122
X00106
Y0029
X00122
X00138
X0013Y00242
X00119Y00226
X00114Y0021
X0013
X00122Y00194
X00106
X00098Y0021
X00082Y00242
X00066
X0005
X00034
X00018
X00026Y0029
X0005Y00274
X00106Y00258
X00119Y00178
X00122Y00162
X00138
X0013Y00146
X00114
X00098
X00082
X00114Y0037
X0013
X00138Y00386
X00122
X00106
X00098Y00402
X00114
X0013
X00122Y00418
X00106
X00114Y00434
X0013
X00122Y0045
X00106
Y00482
X00122
X00114Y00498
X0013
X00122Y00514
X00106
X0009
X00082Y00498
X00098
X0009Y00482
X00074
X00058
X00066Y00498
Y0053
X00034
X00026Y00514
Y00482
Y0045
X00011Y00431
X00034Y00402
X0005
X00066
X00082
X0005Y0037
X001Y00533
X00108Y00552
X00117Y00561
X00126Y00571
X0013377Y00542
X00074Y00546
X00082Y00562
X00026Y00578
Y0061
Y00642
X00018Y00658
X00034
X00026Y00674
X00018Y0069
X00026Y00706
X00018Y00722
X00066
X00059Y00713
X00067Y00697
X00075Y00684
X00083Y00675
X0009Y00724
X00074Y00738
X00058
X00066Y00754
X0001Y00798
X00019Y0082
X00027Y00848
X00026Y00866
X00018Y00882
X00034
X00042Y00897999
X00058
X00074
X0009
X00106
X00122
X00114Y00913999
X00098
X00082
X0009Y00929999
X00106
X00122
X00114Y00882
X00098
X00082
X00066
X00074Y00866
X0009
X00106
X00122
X00114Y00818
X00026Y00897999
X00018Y00913999
X00026Y00546
X00178Y00562
Y00594
Y00626
X00218Y00642
X00266
X00282
X00274Y00658
X00299Y006734
Y006861
Y006988
Y007115
Y007242
X00306Y00754
X0029
X00298Y0077
X00282
X00266
X00274Y00786
X00266Y00802
X00299Y00813
X00298Y00826
X00298Y008379
X0033Y00834
Y00866
X00322Y00882
X0033Y00897999
Y00929999
X00314
X00274Y00913999
X00258
X0025Y00897999
X00242Y00882
X00226
X00234Y00866
X00218
X0017
X00154
X00146Y00882
X00162
X00178
X0017Y00897999
X00154
X00164Y00919
X0019965Y009223
X0021235
X00234Y00929999
X00226Y00786
X0021
X00218Y0077
X00154
X00146Y00786
X00162
Y00818
X00178
X00146
X0033Y00802
Y0077
Y00738
Y00706
Y00674
Y00642
Y0061
Y00578
Y00546
X002995Y0054665
Y0055935
Y0057205
X00298Y0061
X0029Y00626
X00306
X0025Y00617
X00386Y00626
X00402
X0041Y0061
X00394
X003965Y0058475
Y0057205
Y0055935
Y0054665
X0045Y00594
X00466
X00482
X00498
X0049Y0061
X00474
X00458
X00442
X0045Y00626
X00466
X00458Y00642
X00442
X00426
X00418Y00658
X00434
X00482
X00498
X00514
X00522Y00674
X00506
X0049
X00474
X00506Y00642
X00522
X00514Y00626
X00539Y00663
X00538787Y0072565
X00514Y00726
X00498Y00754
X00482
X0049Y0077
X00474
X00506
X00538787Y0075105
X0051035Y0082065
X00506Y00834
X0049
X00474
X00458
X00442
X00426
X00418Y00849999
X00434
X0045
X00466
X00482
X00474Y00866
X00458
X00442
X0045Y00882
X00498
X00514
X00522Y00866
X00506
X00498Y00913999
X00482
X00466
X00474Y00929999
X00458
X00442
X00418Y00913999
X00402
X0041Y00897999
X00395Y008633
Y008506
Y008379
Y008252
Y008125
X00394Y0077
X0041
X00402Y00754
X00386
X00396Y007242
Y007115
Y006988
Y006861
X00418Y00722
X00459Y00724
X00466Y00818
X00482
X0045
X00418Y00786
X0049Y00929999
X00506
X00522
X00514Y00913999
X00562
X00578
X00594
X0061
X00626
X00642
X00658
X00674
X0069
X00706
X00722
X00738
X00754
Y00882
X00738
X00722
X00706
X0069
X00674
X00658
X00642
X00626
X0061
X00594
X00578
X00562
X00554Y00866
X00596258Y0084605
X00578Y00818
X00626
X00642
X00635086Y00832
X0065Y00866
X00666
X00682
X00698
X00714
X0073
X00746
X00738Y00849999
X00754
X00746Y00834
X0073
X00714
X00698
X00684Y00832
X0069Y00849999
X00706
X00722
Y00818
X00706
X00738
X00754
X00775Y00821
Y00833
X00774Y00845
Y00857
X00775Y00871
X00774Y00883
X00798Y00884
X00805Y00871
X00812Y00857
X00819Y00845
X00826Y00832
X00842Y00834
X00834Y0082
X00841Y00806
X00868635Y008071
Y008198
Y008325
Y008452
Y008579
Y008706
Y008833
Y00896
X00842Y00897999
X00826
X00809999
X00802Y00913999
X00818
X00834
X00826Y00929999
X00809999
X00794
X00774364Y009341
X0073Y00929999
X00714
X00698
X00682
X00666
X0065
X00634
X00618
X00602
X00586
X0057
X00554
X00539743Y0080795
X00554Y0077
X0057
X00586
X00578Y00754
X00562
Y00722
X00578
X0057Y00674
X00562Y00658
X00578
X00594
X00602Y00642
X00586
X0057
X00554
X00562Y00626
X00578
X00594
X0061
X00626
X00634Y0061
X00618
X00602
X00586
X0057
X00554
X00562Y00594
X00578
X00594
X0061
X00626
X00642
X00658
Y00562
X00674
X0069
X00706
X00722
X00738
X0073Y00546
X00714
X00698
X00682
X00666
X0065
X00642Y00562
X00706Y00626
X00722
X00738
X00754
X00746Y00642
X0073
X00714
X00698
X0069Y00658
X00706
X00722
X00738
X00754
X00746Y00674
X00757Y00695
X00774Y00691
X00775Y00679
X00774Y00665
Y00653
X00775Y00641
Y00629
Y00614
Y00552
X00819Y00561
X00827Y00553
X00834Y00546
X00811Y00569
X00869635Y005769
Y005896
Y006023
Y00615
Y006277
Y006404
Y006531
Y006658
Y006785
Y006912
Y007039
X00899364Y00703
X00906Y0069
X0091323Y00677
X0092Y00665
X00927Y0065
X00935Y00638
X00849999Y00626
X0083377Y00628
X00827Y0064
X00819Y00653
X00812Y00665
X00805Y00679
X00798Y00692
X00775365Y00742
X00733Y00745
X00738Y00754
Y00722
X00722
X00706
X00714Y00738
Y00706
X0073
X00722Y0069
X00706
X0069
X00674
X00677Y0068
X00674Y00658
X00658Y0069
X00666Y00706
X00682
X00698
X0065
Y0077
X00634
X00618
X00666
X00714
X00775Y00806
X00868635Y007944
Y007817
Y00769
X00869Y00745
X00853Y00731
X00849999Y00658
X00841Y00614
X00842Y00866
X00834Y00882
X00849999
X00853Y00921
X00868635Y009341
X00889999Y00929999
X00906
X00897999Y00913999
X00913999
X00922Y00897999
X009Y00897
X00907Y00884
X00914Y00871
X0092Y00859
X00927Y00845
X00934Y00832
X00929999Y00882
X00674Y00849999
X00946
X00962
X00977999
X00986Y00866
X00969999
X00953999
X00937999
X00946Y00882
X00962
X00977999
X00986Y00897999
X00969999
X00953999
X00937999
X00977999Y00913999
X00986Y00834
X00969999
X00953999
X00962Y00818
X00977999
X00986Y00802
X00969999
X00953999
X00962Y00786
X00977999
X00986Y0077
X00969999
X00953999
X00962Y00754
X00977999
X00986Y00738
X00969999
X00953999
X00962Y00722
X00977999
X00986Y00706
X00953999Y00642
X00962Y00626
X0094177Y00626
X00953999Y0061
X00942Y0082
X00897999Y00946
X00882
X00866
X00849999
X00857999Y00962
X00842
X00834Y00977999
X00818
X00802
X00786
X0077
X00754
X00738
X00722
X00706
X0069
X00674
X00658
X00642
X00626
X0061
X00594
X00578
X00562
X00546
X00562Y00946
X00578
X00594
X0061
X00626
X00642
X00658
X00674
X0069
X00706
X00722
X00738
X00786
X00802
X00849999Y00977999
X00866
X00882
X00897999
X00913999
X00906Y00962
X00889999
X00873999
X00538
X00522
X00506
X0049
X00474
X00458
X00442
X00426
X00418Y00977999
X00434
X0045
X00466
X00482
X00498
X00514
X0053
Y00946
X00514
X00498
X00482
X00466
X0045
X00434
X0037
X00378Y00962
X0037Y00977999
X00322
X00306
X00314Y00962
X0033
X00322Y00946
X00306
X002875Y0094465
Y0095735
X00274Y00977999
X00258
X00242
X00165Y00974
X00145
X00114Y00977999
X00098
X00106Y00962
X00122
X00114Y00946
X00098
T03
X0009Y00125
X00141
T04
X00512Y00029
Y00049
X00511Y00104
Y00124
X00219Y00187
Y00207
T05
X00729Y00044
X007544
X007798
X00687Y007186
Y00744
Y007694
T06
X00315Y0015
X003404
X003658
X003912
T07
X0098Y003095
Y003349
Y003603
Y003857
Y004111
Y004365
Y004619
Y004873
Y005127
Y005381
X001981Y005146
Y004892
Y004638
Y004384
Y00413
Y003876
X00045Y003887
Y004141
Y004395
Y004649
Y004903
Y005157
Y005411
Y005665
Y005919
Y006173
Y006427
Y006681
Y006935
Y007189
Y007443
Y007697
Y007951
Y008205
Y008459
Y008713
X001981Y008702
Y008448
Y008194
Y00794
Y007686
Y007432
Y007178
Y006924
Y00667
Y006416
Y006162
Y005908
Y005654
Y0054
X0098Y005635
Y005889
Y006143
Y006397
Y006651
Y006905
T08
X00639Y007193
Y007447
T09
X003Y0006
X003254
X003762
X004016
X00427
T10
X0005Y0005
X0095
Y0095
X0005
M30
