%TF.GenerationSoftware,Altium Limited,Altium Designer,25.8.1 (18)*%
G04 Layer_Color=65535*
%FSLAX45Y45*%
%MOMM*%
%TF.SameCoordinates,A2F0C2A1-DF56-410A-A7AA-CA8700650C71*%
%TF.FilePolarity,Positive*%
%TF.FileFunction,Legend,Top*%
%TF.Part,Single*%
G01*
G75*
%TA.AperFunction,NonConductor*%
%ADD56C,0.25000*%
%ADD57C,0.15240*%
%ADD58C,0.20000*%
%ADD59C,0.30000*%
%ADD60C,0.17000*%
%ADD61C,0.12700*%
%ADD62C,0.10000*%
%ADD63C,0.25400*%
G36*
X1582500Y9775000D02*
X1517500D01*
Y9815000D01*
X1582500D01*
Y9775000D01*
D02*
G37*
G36*
Y9665000D02*
X1517500D01*
Y9705000D01*
X1582500D01*
Y9665000D01*
D02*
G37*
G36*
X1572500Y9225000D02*
X1507500D01*
Y9265000D01*
X1572500D01*
Y9225000D01*
D02*
G37*
G36*
Y9115000D02*
X1507500D01*
Y9155000D01*
X1572500D01*
Y9115000D01*
D02*
G37*
G36*
X3842500Y9015000D02*
X3820000D01*
Y9165000D01*
X3842500D01*
Y9015000D01*
D02*
G37*
G36*
X3062500D02*
X3040000D01*
Y9165000D01*
X3062500D01*
Y9015000D01*
D02*
G37*
G36*
X3800000D02*
X3777499Y9015000D01*
X3777500Y9165000D01*
X3800000Y9165000D01*
X3800000Y9015000D01*
D02*
G37*
G36*
X3020000D02*
X2997499Y9015000D01*
X2997500Y9165000D01*
X3020000Y9165000D01*
X3020000Y9015000D01*
D02*
G37*
G36*
X4345000Y8902500D02*
X4345000Y8880000D01*
X4195000Y8880000D01*
X4195000Y8902501D01*
X4345000Y8902500D01*
D02*
G37*
G36*
X2775000Y8880000D02*
X2625000D01*
Y8902500D01*
X2775000D01*
Y8880000D01*
D02*
G37*
G36*
X4345000Y8837500D02*
X4195000D01*
Y8860000D01*
X4345000D01*
Y8837500D01*
D02*
G37*
G36*
X2775000Y8860000D02*
X2775000Y8837499D01*
X2625000Y8837500D01*
X2625000Y8860000D01*
X2775000Y8860000D01*
D02*
G37*
G36*
X8833860Y8305951D02*
X8808460D01*
Y8344051D01*
X8833860D01*
Y8305951D01*
D02*
G37*
G36*
X6915000Y8252500D02*
X6915000Y8230000D01*
X6765000Y8230000D01*
X6764999Y8252500D01*
X6915000Y8252500D01*
D02*
G37*
G36*
X6915000Y8187500D02*
X6765000D01*
Y8210000D01*
X6915000D01*
Y8187500D01*
D02*
G37*
G36*
X7621540Y8178951D02*
X7596140D01*
Y8217051D01*
X7621540D01*
Y8178951D01*
D02*
G37*
G36*
X5362500Y7655000D02*
X5340000Y7655000D01*
X5340000Y7805000D01*
X5362500Y7805000D01*
X5362500Y7655000D01*
D02*
G37*
G36*
X5320000Y7655000D02*
X5297500D01*
Y7805000D01*
X5320000D01*
Y7655000D01*
D02*
G37*
G36*
X4345000Y7512500D02*
X4345000Y7490000D01*
X4195000Y7490000D01*
X4195000Y7512501D01*
X4345000Y7512500D01*
D02*
G37*
G36*
X2775000Y7480000D02*
X2625000D01*
Y7502500D01*
X2775000D01*
Y7480000D01*
D02*
G37*
G36*
X4345000Y7447500D02*
X4195000D01*
Y7470000D01*
X4345000D01*
Y7447500D01*
D02*
G37*
G36*
X2775000Y7460000D02*
X2775000Y7437499D01*
X2625000Y7437500D01*
X2625000Y7460000D01*
X2775000Y7460000D01*
D02*
G37*
G36*
X5215000Y7407500D02*
X5175000D01*
Y7472500D01*
X5215000D01*
Y7407500D01*
D02*
G37*
G36*
X5105000D02*
X5065000D01*
Y7472500D01*
X5105000D01*
Y7407500D01*
D02*
G37*
G36*
X4892500Y7395000D02*
X4827500D01*
Y7435000D01*
X4892500D01*
Y7395000D01*
D02*
G37*
G36*
Y7285000D02*
X4827500D01*
Y7325000D01*
X4892500D01*
Y7285000D01*
D02*
G37*
G36*
Y7195000D02*
X4827500D01*
Y7235000D01*
X4892500D01*
Y7195000D01*
D02*
G37*
G36*
Y7085000D02*
X4827500D01*
Y7125000D01*
X4892500D01*
Y7085000D01*
D02*
G37*
G36*
X5215000Y7047500D02*
X5175000D01*
Y7112500D01*
X5215000D01*
Y7047500D01*
D02*
G37*
G36*
X5105000D02*
X5065000D01*
Y7112500D01*
X5105000D01*
Y7047500D01*
D02*
G37*
G36*
X5522500Y6825000D02*
X5500000Y6825000D01*
X5500000Y6975000D01*
X5522500Y6975000D01*
X5522500Y6825000D01*
D02*
G37*
G36*
X5480000Y6825000D02*
X5457500D01*
Y6975000D01*
X5480000D01*
Y6825000D01*
D02*
G37*
G36*
X8843860Y6384950D02*
X8818460D01*
Y6423050D01*
X8843860D01*
Y6384950D01*
D02*
G37*
G36*
X7631539Y6257950D02*
X7606139D01*
Y6296050D01*
X7631539D01*
Y6257950D01*
D02*
G37*
G36*
X4355000Y6112500D02*
X4355000Y6090000D01*
X4205000Y6090000D01*
X4205000Y6112501D01*
X4355000Y6112500D01*
D02*
G37*
G36*
X2775000Y6080000D02*
X2625000D01*
Y6102500D01*
X2775000D01*
Y6080000D01*
D02*
G37*
G36*
X4355000Y6047500D02*
X4205000D01*
Y6070000D01*
X4355000D01*
Y6047500D01*
D02*
G37*
G36*
X2775000Y6060000D02*
X2775000Y6037499D01*
X2625000Y6037500D01*
X2625000Y6060000D01*
X2775000Y6060000D01*
D02*
G37*
G36*
X4355000Y4742500D02*
X4355000Y4720000D01*
X4205000Y4720000D01*
X4205000Y4742501D01*
X4355000Y4742500D01*
D02*
G37*
G36*
X2775000Y4720000D02*
X2625000D01*
Y4742500D01*
X2775000D01*
Y4720000D01*
D02*
G37*
G36*
X4355000Y4677500D02*
X4205000D01*
Y4700000D01*
X4355000D01*
Y4677500D01*
D02*
G37*
G36*
X2775000Y4700000D02*
X2775000Y4677499D01*
X2625000Y4677500D01*
X2625000Y4700000D01*
X2775000Y4700000D01*
D02*
G37*
G36*
X8843860Y4464950D02*
X8818460D01*
Y4503050D01*
X8843860D01*
Y4464950D01*
D02*
G37*
G36*
X7631540Y4337950D02*
X7606140D01*
Y4376050D01*
X7631540D01*
Y4337950D01*
D02*
G37*
G36*
X812500Y4325000D02*
X790000Y4325000D01*
X790000Y4475000D01*
X812501Y4475000D01*
X812500Y4325000D01*
D02*
G37*
G36*
X770000Y4325000D02*
X747500D01*
Y4475000D01*
X770000D01*
Y4325000D01*
D02*
G37*
G36*
X817499Y4105496D02*
X794999Y4105495D01*
X794999Y4255496D01*
X817500Y4255496D01*
X817499Y4105496D01*
D02*
G37*
G36*
X774999Y4105495D02*
X752499D01*
Y4255496D01*
X774999D01*
Y4105495D01*
D02*
G37*
G36*
X812500Y3795000D02*
X790000Y3795000D01*
X790000Y3945000D01*
X812501Y3945000D01*
X812500Y3795000D01*
D02*
G37*
G36*
X770000Y3795000D02*
X747500D01*
Y3945000D01*
X770000D01*
Y3795000D01*
D02*
G37*
G36*
X812500Y3575000D02*
X790000Y3575000D01*
X790000Y3725000D01*
X812501Y3725000D01*
X812500Y3575000D01*
D02*
G37*
G36*
X770000Y3575000D02*
X747500D01*
Y3725000D01*
X770000D01*
Y3575000D01*
D02*
G37*
G36*
X4345000Y3380000D02*
X4195000D01*
Y3402500D01*
X4345000D01*
Y3380000D01*
D02*
G37*
G36*
X2795000Y3402500D02*
X2795000Y3380000D01*
X2645000Y3380000D01*
X2645000Y3402501D01*
X2795000Y3402500D01*
D02*
G37*
G36*
X2795000Y3337500D02*
X2645000D01*
Y3360000D01*
X2795000D01*
Y3337500D01*
D02*
G37*
G36*
X4345000Y3360000D02*
X4345000Y3337500D01*
X4195000Y3337500D01*
X4195000Y3360000D01*
X4345000Y3360000D01*
D02*
G37*
G36*
X5982500Y3326000D02*
X5917500D01*
Y3366000D01*
X5982500D01*
Y3326000D01*
D02*
G37*
G36*
Y3216000D02*
X5917500D01*
Y3256000D01*
X5982500D01*
Y3216000D01*
D02*
G37*
G36*
X6776725Y3064451D02*
X6751325D01*
Y3102551D01*
X6776725D01*
Y3064451D01*
D02*
G37*
G36*
X7465000Y2913501D02*
X7465000Y2891001D01*
X7315000Y2891001D01*
X7315000Y2913501D01*
X7465000Y2913501D01*
D02*
G37*
G36*
X7465000Y2848501D02*
X7315000D01*
Y2871001D01*
X7465000D01*
Y2848501D01*
D02*
G37*
G36*
X8838860Y2520451D02*
X8813460D01*
Y2558551D01*
X8838860D01*
Y2520451D01*
D02*
G37*
G36*
X1322500Y2515000D02*
X1300000Y2515000D01*
X1300000Y2665000D01*
X1322501Y2665000D01*
X1322500Y2515000D01*
D02*
G37*
G36*
X1280000Y2515000D02*
X1257500D01*
Y2665000D01*
X1280000D01*
Y2515000D01*
D02*
G37*
G36*
X5948685Y2479451D02*
X5923285D01*
Y2517551D01*
X5948685D01*
Y2479451D01*
D02*
G37*
G36*
X7232500Y2456000D02*
X7210000D01*
Y2606000D01*
X7232500D01*
Y2456000D01*
D02*
G37*
G36*
X7190000D02*
X7167500Y2456000D01*
X7167500Y2606000D01*
X7190000Y2606000D01*
X7190000Y2456000D01*
D02*
G37*
G36*
X7626540Y2393451D02*
X7601140D01*
Y2431551D01*
X7626540D01*
Y2393451D01*
D02*
G37*
G36*
X5545000Y2258500D02*
X5505000D01*
Y2323501D01*
X5545000D01*
Y2258500D01*
D02*
G37*
G36*
X5435000D02*
X5395000D01*
Y2323501D01*
X5435000D01*
Y2258500D01*
D02*
G37*
G36*
X7232500Y2246000D02*
X7210000D01*
Y2396000D01*
X7232500D01*
Y2246000D01*
D02*
G37*
G36*
X7190000D02*
X7167500Y2246000D01*
X7167500Y2396000D01*
X7190000Y2396000D01*
X7190000Y2246000D01*
D02*
G37*
G36*
X5765000Y2128500D02*
X5725000D01*
Y2193500D01*
X5765000D01*
Y2128500D01*
D02*
G37*
G36*
X5655000D02*
X5615000D01*
Y2193500D01*
X5655000D01*
Y2128500D01*
D02*
G37*
G36*
X7232500Y2036000D02*
X7210000D01*
Y2186000D01*
X7232500D01*
Y2036000D01*
D02*
G37*
G36*
X7190000D02*
X7167500Y2036000D01*
X7167500Y2186000D01*
X7190000Y2186000D01*
X7190000Y2036000D01*
D02*
G37*
G36*
X7242500Y1936000D02*
X7177500D01*
Y1976000D01*
X7242500D01*
Y1936000D01*
D02*
G37*
G36*
Y1826000D02*
X7177500D01*
Y1866000D01*
X7242500D01*
Y1826000D01*
D02*
G37*
G36*
X6082500Y1565000D02*
X6017500D01*
Y1605000D01*
X6082500D01*
Y1565000D01*
D02*
G37*
G36*
X7642500Y1555000D02*
X7577500D01*
Y1595000D01*
X7642500D01*
Y1555000D01*
D02*
G37*
G36*
X7232500D02*
X7167500D01*
Y1595000D01*
X7232500D01*
Y1555000D01*
D02*
G37*
G36*
X492500Y1485000D02*
X427500D01*
Y1525000D01*
X492500D01*
Y1485000D01*
D02*
G37*
G36*
X6512500Y1455000D02*
X6490000Y1455000D01*
X6490000Y1605000D01*
X6512501Y1605000D01*
X6512500Y1455000D01*
D02*
G37*
G36*
X6470000Y1455000D02*
X6447500D01*
Y1605000D01*
X6470000D01*
Y1455000D01*
D02*
G37*
G36*
X6082500D02*
X6017500D01*
Y1495000D01*
X6082500D01*
Y1455000D01*
D02*
G37*
G36*
X7642500Y1445000D02*
X7577500D01*
Y1485000D01*
X7642500D01*
Y1445000D01*
D02*
G37*
G36*
X7232500D02*
X7167500D01*
Y1485000D01*
X7232500D01*
Y1445000D01*
D02*
G37*
G36*
X492500Y1375000D02*
X427500D01*
Y1415000D01*
X492500D01*
Y1375000D01*
D02*
G37*
G36*
X4475000Y1360000D02*
X4325000D01*
Y1382500D01*
X4475000D01*
Y1360000D01*
D02*
G37*
G36*
Y1340000D02*
X4475000Y1317500D01*
X4325000Y1317500D01*
X4325000Y1340000D01*
X4475000Y1340000D01*
D02*
G37*
G36*
X5962500Y1225000D02*
X5897500D01*
Y1265000D01*
X5962500D01*
Y1225000D01*
D02*
G37*
G36*
Y1115000D02*
X5897500D01*
Y1155000D01*
X5962500D01*
Y1115000D01*
D02*
G37*
G36*
X2352500Y1115000D02*
X2330000Y1115000D01*
X2330000Y1265000D01*
X2352501Y1265000D01*
X2352500Y1115000D01*
D02*
G37*
G36*
X2310000Y1115000D02*
X2287500D01*
Y1265000D01*
X2310000D01*
Y1115000D01*
D02*
G37*
G36*
X5962500Y995000D02*
X5897500D01*
Y1035000D01*
X5962500D01*
Y995000D01*
D02*
G37*
G36*
Y885000D02*
X5897500D01*
Y925000D01*
X5962500D01*
Y885000D01*
D02*
G37*
G36*
X6072500Y625000D02*
X6007500D01*
Y665000D01*
X6072500D01*
Y625000D01*
D02*
G37*
G36*
Y515000D02*
X6007500D01*
Y555000D01*
X6072500D01*
Y515000D01*
D02*
G37*
D56*
X287500Y2795000D02*
G03*
X287500Y2795000I-12500J0D01*
G01*
X6402500Y7006000D02*
G03*
X6402500Y7006000I-12500J0D01*
G01*
X9812500Y2882000D02*
G03*
X9812500Y2882000I-12500J0D01*
G01*
X1993500Y8915000D02*
G03*
X1993500Y8915000I-12500J0D01*
G01*
X462500Y8926000D02*
G03*
X462500Y8926000I-12500J0D01*
G01*
X4427500Y2225000D02*
G03*
X4427500Y2225000I-12500J0D01*
G01*
D57*
X6730900Y8224750D02*
G03*
X6730900Y8224750I-7620J0D01*
G01*
X7273490Y821000D02*
G03*
X7273490Y821000I-12700J0D01*
G01*
X6501700Y7156790D02*
G03*
X6501700Y7156790I-12700J0D01*
G01*
X7381760Y2786001D02*
G03*
X7381760Y2786001I-12700J0D01*
G01*
X5457910Y7582890D02*
X5882090D01*
X5457910Y7057110D02*
X5882090D01*
X5467910Y8007110D02*
X5892090D01*
X5467910Y8532890D02*
X5892090D01*
X7377910Y787110D02*
X7802090D01*
X7377910Y1312890D02*
X7802090D01*
X6542550Y8288424D02*
Y8351576D01*
X6377450Y8485100D02*
X6542550D01*
X6377450Y8383674D02*
Y8485100D01*
Y8154900D02*
X6542550D01*
X6377450D02*
Y8256326D01*
X6347910Y807110D02*
X6772090D01*
X6347910Y1332890D02*
X6772090D01*
X7056320Y706700D02*
X8034220D01*
X7056320Y186000D02*
Y706700D01*
Y186000D02*
X8034220D01*
Y706700D01*
X6603300Y6952320D02*
Y7930220D01*
Y6952320D02*
X7124000D01*
Y7930220D01*
X6603300D02*
X7124000D01*
X6158449Y2448101D02*
X6541560D01*
X6158450Y3133901D02*
X6541561D01*
X8612350Y5559944D02*
Y5582550D01*
X7837650Y3766450D02*
Y3789056D01*
Y5559944D02*
Y5582550D01*
X8612350D01*
Y3766450D02*
Y3789056D01*
X7837650Y3766450D02*
X8612350D01*
X7837650Y5686450D02*
X8612350D01*
Y5709056D01*
X7837650Y7502550D02*
X8612350D01*
X7837650Y7479944D02*
Y7502550D01*
Y5686450D02*
Y5709056D01*
X8612350Y7479944D02*
Y7502550D01*
X7832650Y1821951D02*
X8607350D01*
Y1844557D01*
X7832650Y3638051D02*
X8607350D01*
X7832650Y3615445D02*
Y3638051D01*
Y1821951D02*
Y1844557D01*
X8607350Y3615445D02*
Y3638051D01*
X2946990Y1012580D02*
X4123010D01*
Y1637420D01*
X2946990D02*
X4123010D01*
X2946990Y1012580D02*
Y1637420D01*
X7827650Y7607451D02*
X8602350D01*
Y7630057D01*
X7827650Y9423551D02*
X8602350D01*
X7827650Y9400945D02*
Y9423551D01*
Y7607451D02*
Y7630057D01*
X8602350Y9400945D02*
Y9423551D01*
D58*
X1839500Y9066000D02*
G03*
X1839500Y9066000I-10000J0D01*
G01*
X5395000Y390000D02*
G03*
X5395000Y390000I-275000J0D01*
G01*
X5385000Y1140000D02*
G03*
X5385000Y1140000I-275000J0D01*
G01*
X2465000Y1970000D02*
G03*
X2465000Y1970000I-275000J0D01*
G01*
X1397500Y1780000D02*
G03*
X1397500Y1800000I0J10000D01*
G01*
D02*
G03*
X1397500Y1780000I0J-10000D01*
G01*
X1820200Y1690200D02*
Y2242500D01*
X1559800Y1690200D02*
Y2209800D01*
X945000Y2960000D02*
Y3220000D01*
X275000Y2960000D02*
Y3220000D01*
X945000D01*
X275000Y2960000D02*
X945000D01*
X2895000Y8840500D02*
X3805000D01*
X3125000Y7790500D02*
X3805000D01*
X2365000Y395000D02*
X2415000D01*
X2365000Y805000D02*
X2415000D01*
X1850000Y-525000D02*
Y310000D01*
Y750000D02*
Y925000D01*
X1595000D02*
X1850000D01*
X950000D02*
X1205000D01*
X950000Y-525000D02*
X1850000D01*
X950000D02*
Y925000D01*
X6524500Y7051000D02*
Y7589000D01*
X6255500Y7051000D02*
X6524500D01*
X6255500D02*
Y7589000D01*
X6524500D01*
X9665000Y2930500D02*
X9935000D01*
Y7069500D01*
X9665000D02*
X9935000D01*
X9665000Y2930500D02*
Y7069500D01*
X455000Y1316000D02*
X485000D01*
Y1024000D02*
Y1316000D01*
X455000Y1024000D02*
X485000D01*
X455000D02*
Y1316000D01*
X300000Y1320000D02*
X420000D01*
X3140000Y2305000D02*
X3820000D01*
X2910000Y3355000D02*
X3820000D01*
X3135000Y6399500D02*
X3815000D01*
X2905000Y7449500D02*
X3815000D01*
X3135000Y3632500D02*
X3815000D01*
X2905000Y4682500D02*
X3815000D01*
X1846000Y3711500D02*
X2116000D01*
X1846000Y8866500D02*
X2116000D01*
X1846000Y3711500D02*
Y8866500D01*
X2116000Y3711500D02*
Y8866500D01*
X315000Y8877500D02*
X585000D01*
X315000Y3722500D02*
Y8877500D01*
Y3722500D02*
X585000D01*
Y8877500D01*
X4580000Y1555000D02*
X4840000D01*
X4580000Y2225000D02*
X4840000D01*
Y1555000D02*
Y2225000D01*
X4580000Y1555000D02*
Y2225000D01*
X2910000Y6055000D02*
X3820000D01*
X3140000Y5005000D02*
X3820000D01*
D59*
X2922500Y777000D02*
X2912500D01*
X2922500D01*
D60*
X3122500Y9805000D02*
X3717500D01*
X3122500Y9215000D02*
X3800000D01*
Y9260000D02*
X4045000D01*
X3800000Y9215000D02*
Y9260000D01*
D61*
X2312500Y9275000D02*
Y9665000D01*
X1807500Y9275000D02*
Y9665000D01*
X5450000Y3030000D02*
Y3050000D01*
X4810000Y3030000D02*
Y3050000D01*
X5450000Y3650000D02*
Y3670000D01*
X4810000Y3650000D02*
Y3670000D01*
X5450000Y3250000D02*
Y3450000D01*
X4810000Y3250000D02*
Y3450000D01*
Y3030000D02*
X5450000D01*
X4810000Y3670000D02*
X5450000D01*
D62*
X785000Y1095000D02*
X1525000D01*
X785000D02*
Y1405000D01*
X1525000D01*
Y1095000D02*
Y1405000D01*
X2800000Y27000D02*
Y727000D01*
X4765000D01*
Y27000D02*
Y727000D01*
X2800000Y27000D02*
X4765000D01*
D63*
X9375400Y6824858D02*
X9429383D01*
X9402391D01*
Y6986805D01*
X9375400Y6959814D01*
X9618321Y6986805D02*
X9564339Y6959814D01*
X9510356Y6905831D01*
Y6851849D01*
X9537348Y6824858D01*
X9591330D01*
X9618321Y6851849D01*
Y6878840D01*
X9591330Y6905831D01*
X9510356D01*
X9375400Y6569560D02*
X9429383D01*
X9402391D01*
Y6731508D01*
X9375400Y6704517D01*
X9618321Y6731508D02*
X9510356D01*
Y6650534D01*
X9564339Y6677525D01*
X9591330D01*
X9618321Y6650534D01*
Y6596552D01*
X9591330Y6569560D01*
X9537348D01*
X9510356Y6596552D01*
X9375400Y6314263D02*
X9429383D01*
X9402391D01*
Y6476211D01*
X9375400Y6449220D01*
X9591330Y6314263D02*
Y6476211D01*
X9510356Y6395237D01*
X9618321D01*
X9375400Y6058966D02*
X9429383D01*
X9402391D01*
Y6220914D01*
X9375400Y6193922D01*
X9510356D02*
X9537348Y6220914D01*
X9591330D01*
X9618321Y6193922D01*
Y6166931D01*
X9591330Y6139940D01*
X9564339D01*
X9591330D01*
X9618321Y6112949D01*
Y6085957D01*
X9591330Y6058966D01*
X9537348D01*
X9510356Y6085957D01*
X9375400Y5803669D02*
X9429383D01*
X9402391D01*
Y5965616D01*
X9375400Y5938625D01*
X9618321Y5803669D02*
X9510356D01*
X9618321Y5911634D01*
Y5938625D01*
X9591330Y5965616D01*
X9537348D01*
X9510356Y5938625D01*
X9375400Y5548372D02*
X9429383D01*
X9402391D01*
Y5710319D01*
X9375400Y5683328D01*
X9510356Y5548372D02*
X9564339D01*
X9537348D01*
Y5710319D01*
X9510356Y5683328D01*
X9375400Y5293075D02*
X9429383D01*
X9402391D01*
Y5455022D01*
X9375400Y5428031D01*
X9510356D02*
X9537348Y5455022D01*
X9591330D01*
X9618321Y5428031D01*
Y5320066D01*
X9591330Y5293075D01*
X9537348D01*
X9510356Y5320066D01*
Y5428031D01*
X9375400Y5064769D02*
X9402391Y5037777D01*
X9456374D01*
X9483365Y5064769D01*
Y5172734D01*
X9456374Y5199725D01*
X9402391D01*
X9375400Y5172734D01*
Y5145742D01*
X9402391Y5118751D01*
X9483365D01*
X9375400Y4917436D02*
X9402391Y4944428D01*
X9456374D01*
X9483365Y4917436D01*
Y4890445D01*
X9456374Y4863454D01*
X9483365Y4836463D01*
Y4809471D01*
X9456374Y4782480D01*
X9402391D01*
X9375400Y4809471D01*
Y4836463D01*
X9402391Y4863454D01*
X9375400Y4890445D01*
Y4917436D01*
X9402391Y4863454D02*
X9456374D01*
X9375400Y4689131D02*
X9483365D01*
Y4662139D01*
X9375400Y4554174D01*
Y4527183D01*
X9483365Y4433833D02*
X9429383Y4406842D01*
X9375400Y4352859D01*
Y4298877D01*
X9402391Y4271886D01*
X9456374D01*
X9483365Y4298877D01*
Y4325868D01*
X9456374Y4352859D01*
X9375400D01*
X9483365Y4178536D02*
X9375400D01*
Y4097562D01*
X9429383Y4124554D01*
X9456374D01*
X9483365Y4097562D01*
Y4043580D01*
X9456374Y4016589D01*
X9402391D01*
X9375400Y4043580D01*
X9456374Y3761291D02*
Y3923239D01*
X9375400Y3842265D01*
X9483365D01*
X9375400Y3640951D02*
X9402391Y3667942D01*
X9456374D01*
X9483365Y3640951D01*
Y3613959D01*
X9456374Y3586968D01*
X9429383D01*
X9456374D01*
X9483365Y3559977D01*
Y3532986D01*
X9456374Y3505994D01*
X9402391D01*
X9375400Y3532986D01*
X9483365Y3250697D02*
X9375400D01*
X9483365Y3358662D01*
Y3385653D01*
X9456374Y3412645D01*
X9402391D01*
X9375400Y3385653D01*
Y2995400D02*
X9429383D01*
X9402391D01*
Y3157348D01*
X9375400Y3130356D01*
X8265400Y1300287D02*
X8325381D01*
X8345374Y1320281D01*
X8325381Y1340274D01*
X8285394D01*
X8265400Y1360268D01*
X8285394Y1380262D01*
X8345374D01*
X8385361D02*
Y1320281D01*
X8405355Y1300287D01*
X8465335D01*
Y1380262D01*
X8505322Y1420249D02*
Y1300287D01*
X8565303D01*
X8585297Y1320281D01*
Y1340274D01*
X8565303Y1360268D01*
X8505322D01*
X8565303D01*
X8585297Y1380262D01*
Y1400255D01*
X8565303Y1420249D01*
X8505322D01*
X8645277Y1380262D02*
X8685264D01*
X8705258Y1360268D01*
Y1300287D01*
X8645277D01*
X8625283Y1320281D01*
X8645277Y1340274D01*
X8705258D01*
X8745245Y1380262D02*
Y1300287D01*
Y1340274D01*
X8765238Y1360268D01*
X8785232Y1380262D01*
X8805225D01*
X8945180Y1420249D02*
Y1300287D01*
X8885199D01*
X8865206Y1320281D01*
Y1360268D01*
X8885199Y1380262D01*
X8945180D01*
X9005161D02*
X9045148D01*
X9065141Y1360268D01*
Y1300287D01*
X9005161D01*
X8985167Y1320281D01*
X9005161Y1340274D01*
X9065141D01*
X9145115Y1260301D02*
X9165109D01*
X9185102Y1280294D01*
Y1380262D01*
X9125122D01*
X9105128Y1360268D01*
Y1320281D01*
X9125122Y1300287D01*
X9185102D01*
X9225089D02*
X9265076D01*
X9245083D01*
Y1380262D01*
X9225089D01*
X8345374Y1175348D02*
X8265400D01*
Y1055387D01*
X8345374D01*
X8265400Y1115368D02*
X8305387D01*
X8385361Y1135361D02*
Y1055387D01*
Y1095374D01*
X8405355Y1115368D01*
X8425348Y1135361D01*
X8445342D01*
X8565303Y1055387D02*
X8525316D01*
X8505322Y1075381D01*
Y1115368D01*
X8525316Y1135361D01*
X8565303D01*
X8585297Y1115368D01*
Y1095374D01*
X8505322D01*
X8625283Y1055387D02*
Y1135361D01*
X8685264D01*
X8705258Y1115368D01*
Y1055387D01*
X8945180Y1175348D02*
X8865206D01*
Y1055387D01*
X8945180D01*
X8865206Y1115368D02*
X8905193D01*
X9025154Y1015400D02*
X9045148D01*
X9065141Y1035393D01*
Y1135361D01*
X9005161D01*
X8985167Y1115368D01*
Y1075381D01*
X9005161Y1055387D01*
X9065141D01*
X9185102Y1175348D02*
Y1055387D01*
X9125122D01*
X9105128Y1075381D01*
Y1115368D01*
X9125122Y1135361D01*
X9185102D01*
X9285070Y1055387D02*
X9245083D01*
X9225089Y1075381D01*
Y1115368D01*
X9245083Y1135361D01*
X9285070D01*
X9305063Y1115368D01*
Y1095374D01*
X9225089D01*
X9345050Y1055387D02*
Y1135361D01*
X9365044D01*
X9385037Y1115368D01*
Y1055387D01*
Y1115368D01*
X9405031Y1135361D01*
X9425025Y1115368D01*
Y1055387D01*
X9465012D02*
X9504999D01*
X9485005D01*
Y1135361D01*
X9465012D01*
X9564979D02*
Y1055387D01*
Y1095374D01*
X9584973Y1115368D01*
X9604966Y1135361D01*
X9624960D01*
X9764638Y7285374D02*
Y7205400D01*
X9884599D01*
Y7285374D01*
X9824619Y7205400D02*
Y7245387D01*
X9884599Y7325361D02*
Y7365348D01*
Y7345355D01*
X9764638D01*
Y7325361D01*
X9884599Y7485309D02*
Y7445322D01*
X9864606Y7425329D01*
X9824619D01*
X9804625Y7445322D01*
Y7485309D01*
X9824619Y7505303D01*
X9844613D01*
Y7425329D01*
X9804625Y7625264D02*
Y7565284D01*
X9824619Y7545290D01*
X9864606D01*
X9884599Y7565284D01*
Y7625264D01*
X9784632Y7685245D02*
X9804625D01*
Y7665251D01*
Y7705238D01*
Y7685245D01*
X9864606D01*
X9884599Y7705238D01*
X9804625Y7765219D02*
X9884599D01*
X9844613D01*
X9824619Y7785213D01*
X9804625Y7805206D01*
Y7825199D01*
X9884599Y7905174D02*
Y7945161D01*
X9864606Y7965154D01*
X9824619D01*
X9804625Y7945161D01*
Y7905174D01*
X9824619Y7885180D01*
X9864606D01*
X9884599Y7905174D01*
X9764638Y8085115D02*
X9884599D01*
Y8025135D01*
X9864606Y8005141D01*
X9824619D01*
X9804625Y8025135D01*
Y8085115D01*
X9884599Y8185083D02*
Y8145096D01*
X9864606Y8125102D01*
X9824619D01*
X9804625Y8145096D01*
Y8185083D01*
X9824619Y8205077D01*
X9844613D01*
Y8125102D01*
X9884599Y8245064D02*
Y8305044D01*
X9864606Y8325038D01*
X9844613Y8305044D01*
Y8265057D01*
X9824619Y8245064D01*
X9804625Y8265057D01*
Y8325038D01*
X5005374Y4485355D02*
X4925400D01*
Y4365394D01*
X5005374D01*
X4925400Y4425374D02*
X4965387D01*
X5045361Y4485355D02*
X5085348D01*
X5065355D01*
Y4365394D01*
X5045361D01*
X5085348D01*
X5145329Y4485355D02*
X5225303D01*
X5185316D01*
Y4365394D01*
X5265290Y4345400D02*
X5345264D01*
X5385251Y4365394D02*
Y4485355D01*
X5445232D01*
X5465226Y4465361D01*
Y4425374D01*
X5445232Y4405381D01*
X5385251D01*
X5505213Y4485355D02*
Y4365394D01*
Y4425374D01*
X5525206Y4445368D01*
X5565193D01*
X5585187Y4425374D01*
Y4365394D01*
X5645167Y4445368D02*
X5685154D01*
X5705148Y4425374D01*
Y4365394D01*
X5645167D01*
X5625174Y4385387D01*
X5645167Y4405381D01*
X5705148D01*
X5745135Y4365394D02*
X5805115D01*
X5825109Y4385387D01*
X5805115Y4405381D01*
X5765128D01*
X5745135Y4425374D01*
X5765128Y4445368D01*
X5825109D01*
X5925077Y4365394D02*
X5885090D01*
X5865096Y4385387D01*
Y4425374D01*
X5885090Y4445368D01*
X5925077D01*
X5945070Y4425374D01*
Y4405381D01*
X5865096D01*
X5985057Y4345400D02*
X6065031D01*
X6105018Y4365394D02*
X6145005D01*
X6125012D01*
Y4485355D01*
X6105018Y4465361D01*
X6204986Y4345400D02*
X6284960D01*
X6324947Y4445368D02*
X6364934Y4365394D01*
X6404921Y4445368D01*
X6444908Y4365394D02*
X6484895D01*
X6464902D01*
Y4485355D01*
X6444908Y4465361D01*
X6544876Y4365394D02*
Y4385387D01*
X6564870D01*
Y4365394D01*
X6544876D01*
X6644844Y4465361D02*
X6664838Y4485355D01*
X6704825D01*
X6724818Y4465361D01*
Y4385387D01*
X6704825Y4365394D01*
X6664838D01*
X6644844Y4385387D01*
Y4465361D01*
%TF.MD5,bf96871dbe3c72e3a22acee35197dc62*%
M02*
