%TF.GenerationSoftware,Altium Limited,Altium Designer,25.8.1 (18)*%
G04 Layer_Color=128*
%FSLAX45Y45*%
%MOMM*%
%TF.SameCoordinates,A2F0C2A1-DF56-410A-A7AA-CA8700650C71*%
%TF.FilePolarity,Positive*%
%TF.FileFunction,Paste,Bot*%
%TF.Part,Single*%
G01*
G75*
%TA.AperFunction,SMDPad,CuDef*%
%ADD14R,1.10000X1.52000*%
%ADD21R,1.52000X1.10000*%
%ADD53R,1.55000X2.20000*%
%ADD54R,0.80000X1.20000*%
G36*
X138711Y460000D02*
X279613D01*
X279601Y459998D01*
X283259Y443437D01*
X294275Y411382D01*
X310001Y381355D01*
X330078Y354046D01*
X354046Y330078D01*
X381355Y310001D01*
X411382Y294275D01*
X443437Y283259D01*
X459998Y279601D01*
D01*
X460000D01*
Y138708D01*
X459998Y138708D01*
X439651Y140960D01*
X399721Y150007D01*
X361059Y163478D01*
X324154Y181206D01*
X289472Y202966D01*
X257453Y228481D01*
X228501Y257431D01*
X202983Y289447D01*
X181221Y324127D01*
X163490Y361031D01*
X150015Y399692D01*
X140965Y439621D01*
X138711Y459968D01*
X138711Y460000D01*
D02*
G37*
G36*
X460000Y861289D02*
Y720387D01*
X459998Y720399D01*
X443437Y716741D01*
X411382Y705725D01*
X381355Y689999D01*
X354046Y669922D01*
X330078Y645954D01*
X310001Y618644D01*
X294275Y588618D01*
X283259Y556563D01*
X279601Y540002D01*
Y540002D01*
Y540000D01*
X138708D01*
X138708Y540002D01*
X140960Y560348D01*
X150007Y600279D01*
X163478Y638941D01*
X181206Y675846D01*
X202966Y710527D01*
X228481Y742547D01*
X257431Y771498D01*
X289447Y797017D01*
X324127Y818779D01*
X361031Y836510D01*
X399692Y849985D01*
X439621Y859034D01*
X459968Y861289D01*
X460000D01*
D02*
G37*
G36*
X540000Y138711D02*
Y279613D01*
X540002Y279601D01*
X556563Y283259D01*
X588618Y294275D01*
X618644Y310001D01*
X645954Y330078D01*
X669922Y354046D01*
X689999Y381355D01*
X705725Y411382D01*
X716741Y443437D01*
X720399Y459998D01*
X720399D01*
Y460000D01*
X861292D01*
Y459998D01*
X859039Y439651D01*
X849993Y399721D01*
X836521Y361059D01*
X818793Y324154D01*
X797034Y289472D01*
X771519Y257453D01*
X742569Y228501D01*
X710552Y202983D01*
X675873Y181221D01*
X638969Y163490D01*
X600308Y150015D01*
X560378Y140965D01*
X540032Y138711D01*
X540000Y138711D01*
D02*
G37*
G36*
X861289Y540000D02*
X720387D01*
X720399Y540002D01*
X716741Y556563D01*
X705725Y588618D01*
X689999Y618644D01*
X669922Y645954D01*
X645954Y669922D01*
X618644Y689999D01*
X588618Y705725D01*
X556563Y716741D01*
X540002Y720399D01*
X540002Y720399D01*
X540000D01*
Y861292D01*
X540002D01*
X560348Y859039D01*
X600279Y849993D01*
X638941Y836521D01*
X675846Y818793D01*
X710527Y797034D01*
X742547Y771519D01*
X771498Y742569D01*
X797017Y710552D01*
X818779Y675873D01*
X836510Y638969D01*
X849985Y600308D01*
X859034Y560378D01*
X861289Y540032D01*
Y540000D01*
D02*
G37*
G36*
X138711Y9460000D02*
X279613D01*
X279601Y9459998D01*
X283259Y9443437D01*
X294275Y9411382D01*
X310001Y9381355D01*
X330078Y9354046D01*
X354046Y9330078D01*
X381355Y9310001D01*
X411382Y9294275D01*
X443437Y9283259D01*
X459998Y9279601D01*
D01*
X460000D01*
Y9138708D01*
X459998Y9138708D01*
X439651Y9140960D01*
X399721Y9150007D01*
X361059Y9163478D01*
X324154Y9181206D01*
X289472Y9202966D01*
X257453Y9228481D01*
X228501Y9257431D01*
X202983Y9289448D01*
X181221Y9324127D01*
X163490Y9361031D01*
X150015Y9399692D01*
X140965Y9439621D01*
X138711Y9459968D01*
X138711Y9460000D01*
D02*
G37*
G36*
X460000Y9861289D02*
Y9720387D01*
X459998Y9720399D01*
X443437Y9716741D01*
X411382Y9705725D01*
X381355Y9689999D01*
X354046Y9669922D01*
X330078Y9645954D01*
X310001Y9618644D01*
X294275Y9588618D01*
X283259Y9556563D01*
X279601Y9540002D01*
Y9540002D01*
Y9540000D01*
X138708D01*
X138708Y9540002D01*
X140960Y9560348D01*
X150007Y9600279D01*
X163478Y9638941D01*
X181206Y9675846D01*
X202966Y9710527D01*
X228481Y9742547D01*
X257431Y9771498D01*
X289447Y9797017D01*
X324127Y9818779D01*
X361031Y9836510D01*
X399692Y9849985D01*
X439621Y9859034D01*
X459968Y9861289D01*
X460000D01*
D02*
G37*
G36*
X540000Y9138711D02*
Y9279613D01*
X540002Y9279601D01*
X556563Y9283259D01*
X588618Y9294275D01*
X618644Y9310001D01*
X645954Y9330078D01*
X669922Y9354046D01*
X689999Y9381355D01*
X705725Y9411382D01*
X716741Y9443437D01*
X720399Y9459998D01*
X720399D01*
Y9460000D01*
X861292D01*
Y9459998D01*
X859039Y9439651D01*
X849993Y9399721D01*
X836521Y9361059D01*
X818793Y9324154D01*
X797034Y9289472D01*
X771519Y9257453D01*
X742569Y9228501D01*
X710552Y9202983D01*
X675873Y9181221D01*
X638969Y9163490D01*
X600308Y9150015D01*
X560378Y9140965D01*
X540032Y9138711D01*
X540000Y9138711D01*
D02*
G37*
G36*
X861289Y9540000D02*
X720387D01*
X720399Y9540002D01*
X716741Y9556563D01*
X705725Y9588618D01*
X689999Y9618644D01*
X669922Y9645954D01*
X645954Y9669922D01*
X618644Y9689999D01*
X588618Y9705725D01*
X556563Y9716741D01*
X540002Y9720399D01*
X540002Y9720399D01*
X540000D01*
Y9861292D01*
X540002D01*
X560348Y9859039D01*
X600279Y9849993D01*
X638941Y9836521D01*
X675846Y9818793D01*
X710527Y9797034D01*
X742547Y9771519D01*
X771498Y9742569D01*
X797017Y9710552D01*
X818779Y9675873D01*
X836510Y9638969D01*
X849985Y9600308D01*
X859034Y9560378D01*
X861289Y9540032D01*
Y9540000D01*
D02*
G37*
G36*
X9138711Y460000D02*
X9279613D01*
X9279601Y459998D01*
X9283259Y443437D01*
X9294275Y411382D01*
X9310001Y381355D01*
X9330078Y354046D01*
X9354046Y330078D01*
X9381355Y310001D01*
X9411382Y294275D01*
X9443437Y283259D01*
X9459998Y279601D01*
D01*
X9460000D01*
Y138708D01*
X9459998Y138708D01*
X9439651Y140960D01*
X9399721Y150007D01*
X9361059Y163478D01*
X9324154Y181206D01*
X9289472Y202966D01*
X9257453Y228481D01*
X9228501Y257431D01*
X9202983Y289447D01*
X9181221Y324127D01*
X9163490Y361031D01*
X9150015Y399692D01*
X9140965Y439621D01*
X9138711Y459968D01*
X9138711Y460000D01*
D02*
G37*
G36*
X9460000Y861289D02*
Y720387D01*
X9459998Y720399D01*
X9443437Y716741D01*
X9411382Y705725D01*
X9381355Y689999D01*
X9354046Y669922D01*
X9330078Y645954D01*
X9310001Y618644D01*
X9294275Y588618D01*
X9283259Y556563D01*
X9279601Y540002D01*
Y540002D01*
Y540000D01*
X9138708D01*
X9138708Y540002D01*
X9140960Y560348D01*
X9150007Y600279D01*
X9163478Y638941D01*
X9181206Y675846D01*
X9202966Y710527D01*
X9228481Y742547D01*
X9257431Y771498D01*
X9289448Y797017D01*
X9324127Y818779D01*
X9361031Y836510D01*
X9399692Y849985D01*
X9439621Y859034D01*
X9459968Y861289D01*
X9460000D01*
D02*
G37*
G36*
X9540000Y138711D02*
Y279613D01*
X9540002Y279601D01*
X9556563Y283259D01*
X9588618Y294275D01*
X9618644Y310001D01*
X9645954Y330078D01*
X9669922Y354046D01*
X9689999Y381355D01*
X9705725Y411382D01*
X9716741Y443437D01*
X9720399Y459998D01*
X9720399D01*
Y460000D01*
X9861292D01*
Y459998D01*
X9859039Y439651D01*
X9849993Y399721D01*
X9836521Y361059D01*
X9818793Y324154D01*
X9797034Y289472D01*
X9771519Y257453D01*
X9742569Y228501D01*
X9710552Y202983D01*
X9675873Y181221D01*
X9638969Y163490D01*
X9600308Y150015D01*
X9560378Y140965D01*
X9540032Y138711D01*
X9540000Y138711D01*
D02*
G37*
G36*
X9861289Y540000D02*
X9720387D01*
X9720399Y540002D01*
X9716741Y556563D01*
X9705725Y588618D01*
X9689999Y618644D01*
X9669922Y645954D01*
X9645954Y669922D01*
X9618644Y689999D01*
X9588618Y705725D01*
X9556563Y716741D01*
X9540002Y720399D01*
X9540002Y720399D01*
X9540000D01*
Y861292D01*
X9540002D01*
X9560348Y859039D01*
X9600279Y849993D01*
X9638941Y836521D01*
X9675846Y818793D01*
X9710527Y797034D01*
X9742547Y771519D01*
X9771498Y742569D01*
X9797017Y710552D01*
X9818779Y675873D01*
X9836510Y638969D01*
X9849985Y600308D01*
X9859034Y560378D01*
X9861289Y540032D01*
Y540000D01*
D02*
G37*
G36*
X9138711Y9460000D02*
X9279613D01*
X9279601Y9459998D01*
X9283259Y9443437D01*
X9294275Y9411382D01*
X9310001Y9381355D01*
X9330078Y9354046D01*
X9354046Y9330078D01*
X9381355Y9310001D01*
X9411382Y9294275D01*
X9443437Y9283259D01*
X9459998Y9279601D01*
D01*
X9460000D01*
Y9138708D01*
X9459998Y9138708D01*
X9439651Y9140960D01*
X9399721Y9150007D01*
X9361059Y9163478D01*
X9324154Y9181206D01*
X9289472Y9202966D01*
X9257453Y9228481D01*
X9228501Y9257431D01*
X9202983Y9289448D01*
X9181221Y9324127D01*
X9163490Y9361031D01*
X9150015Y9399692D01*
X9140965Y9439621D01*
X9138711Y9459968D01*
X9138711Y9460000D01*
D02*
G37*
G36*
X9460000Y9861289D02*
Y9720387D01*
X9459998Y9720399D01*
X9443437Y9716741D01*
X9411382Y9705725D01*
X9381355Y9689999D01*
X9354046Y9669922D01*
X9330078Y9645954D01*
X9310001Y9618644D01*
X9294275Y9588618D01*
X9283259Y9556563D01*
X9279601Y9540002D01*
Y9540002D01*
Y9540000D01*
X9138708D01*
X9138708Y9540002D01*
X9140960Y9560348D01*
X9150007Y9600279D01*
X9163478Y9638941D01*
X9181206Y9675846D01*
X9202966Y9710527D01*
X9228481Y9742547D01*
X9257431Y9771498D01*
X9289448Y9797017D01*
X9324127Y9818779D01*
X9361031Y9836510D01*
X9399692Y9849985D01*
X9439621Y9859034D01*
X9459968Y9861289D01*
X9460000D01*
D02*
G37*
G36*
X9540000Y9138711D02*
Y9279613D01*
X9540002Y9279601D01*
X9556563Y9283259D01*
X9588618Y9294275D01*
X9618644Y9310001D01*
X9645954Y9330078D01*
X9669922Y9354046D01*
X9689999Y9381355D01*
X9705725Y9411382D01*
X9716741Y9443437D01*
X9720399Y9459998D01*
X9720399D01*
Y9460000D01*
X9861292D01*
Y9459998D01*
X9859039Y9439651D01*
X9849993Y9399721D01*
X9836521Y9361059D01*
X9818793Y9324154D01*
X9797034Y9289472D01*
X9771519Y9257453D01*
X9742569Y9228501D01*
X9710552Y9202983D01*
X9675873Y9181221D01*
X9638969Y9163490D01*
X9600308Y9150015D01*
X9560378Y9140965D01*
X9540032Y9138711D01*
X9540000Y9138711D01*
D02*
G37*
G36*
X9861289Y9540000D02*
X9720387D01*
X9720399Y9540002D01*
X9716741Y9556563D01*
X9705725Y9588618D01*
X9689999Y9618644D01*
X9669922Y9645954D01*
X9645954Y9669922D01*
X9618644Y9689999D01*
X9588618Y9705725D01*
X9556563Y9716741D01*
X9540002Y9720399D01*
X9540002Y9720399D01*
X9540000D01*
Y9861292D01*
X9540002D01*
X9560348Y9859039D01*
X9600279Y9849993D01*
X9638941Y9836521D01*
X9675846Y9818793D01*
X9710527Y9797034D01*
X9742547Y9771519D01*
X9771498Y9742569D01*
X9797017Y9710552D01*
X9818779Y9675873D01*
X9836510Y9638969D01*
X9849985Y9600308D01*
X9859034Y9560378D01*
X9861289Y9540032D01*
Y9540000D01*
D02*
G37*
D14*
X310000Y3410000D02*
D03*
X510000D02*
D03*
X920000Y3410000D02*
D03*
X720000D02*
D03*
X1440000Y9190000D02*
D03*
X1640000D02*
D03*
X1450000Y9740000D02*
D03*
X1650000D02*
D03*
X6140000Y590000D02*
D03*
X5940000D02*
D03*
X5630000Y960000D02*
D03*
X5830000D02*
D03*
X5950000Y1530000D02*
D03*
X6150000D02*
D03*
X6630000Y1260000D02*
D03*
X6830000D02*
D03*
X6470000Y870000D02*
D03*
X6270000D02*
D03*
X8730000Y7310000D02*
D03*
X8530000D02*
D03*
Y9210000D02*
D03*
X8730000D02*
D03*
X7750000Y250000D02*
D03*
X7550000D02*
D03*
X7670000Y1240000D02*
D03*
X7870000D02*
D03*
X7710000Y1520000D02*
D03*
X7510000D02*
D03*
X7680000Y860000D02*
D03*
X7480000D02*
D03*
X7090000Y930000D02*
D03*
X7290000D02*
D03*
X7090000Y1170000D02*
D03*
X7290000D02*
D03*
X4120000Y370000D02*
D03*
X4320000D02*
D03*
X990000Y2260000D02*
D03*
X1190000D02*
D03*
Y1780000D02*
D03*
X990000D02*
D03*
X7550000Y7420000D02*
D03*
X7750000D02*
D03*
X7720000Y9340000D02*
D03*
X7520000D02*
D03*
X7770000Y3550000D02*
D03*
X7570000D02*
D03*
X3720000Y1060000D02*
D03*
X3920000D02*
D03*
X3720000Y1270000D02*
D03*
X3920000D02*
D03*
X3350000Y1070000D02*
D03*
X3150000D02*
D03*
X3350000Y1290000D02*
D03*
X3150000D02*
D03*
X3720000Y370000D02*
D03*
X3920000D02*
D03*
X3040000Y360000D02*
D03*
X3240000D02*
D03*
X7560000Y5500000D02*
D03*
X7760000D02*
D03*
X8730000Y5390000D02*
D03*
X8530000D02*
D03*
X5850000Y3291001D02*
D03*
X6050000D02*
D03*
X7550000Y630000D02*
D03*
X7750000D02*
D03*
X2880000Y9610000D02*
D03*
X2680000D02*
D03*
X2880000Y9410000D02*
D03*
X2680000D02*
D03*
X5190000Y7260000D02*
D03*
X5390000D02*
D03*
X5960000Y8460000D02*
D03*
X5760000D02*
D03*
X5600000Y8060000D02*
D03*
X5400000D02*
D03*
X8720000Y3430000D02*
D03*
X8520000D02*
D03*
D21*
X1690000Y2070000D02*
D03*
Y1870000D02*
D03*
X5830000Y1370000D02*
D03*
Y1170000D02*
D03*
X840000Y2550000D02*
D03*
Y2750000D02*
D03*
X6300000Y2701000D02*
D03*
Y2901000D02*
D03*
X6500000Y2701000D02*
D03*
Y2901000D02*
D03*
X4640000Y2110000D02*
D03*
Y1910000D02*
D03*
X4390000Y2100000D02*
D03*
Y1900000D02*
D03*
X6629999Y7220000D02*
D03*
Y7420000D02*
D03*
X6840000Y8120000D02*
D03*
Y8320000D02*
D03*
D53*
X5350000Y155000D02*
D03*
Y565000D02*
D03*
X5330000Y935000D02*
D03*
Y1345000D02*
D03*
D54*
X360000Y1080000D02*
D03*
Y1420000D02*
D03*
%TF.MD5,69b54a624e860460dfa5eb7a0778ab5a*%
M02*
