%TF.GenerationSoftware,Altium Limited,Altium Designer,25.8.1 (18)*%
G04 Layer_Color=8421504*
%FSLAX45Y45*%
%MOMM*%
%TF.SameCoordinates,A2F0C2A1-DF56-410A-A7AA-CA8700650C71*%
%TF.FilePolarity,Positive*%
%TF.FileFunction,Paste,Top*%
%TF.Part,Single*%
G01*
G75*
%TA.AperFunction,SMDPad,CuDef*%
%ADD11R,1.55000X2.35000*%
%ADD12R,1.00000X2.05000*%
%ADD13R,3.25000X2.05000*%
%ADD14R,1.10000X1.52000*%
%ADD15R,1.65490X0.55800*%
%ADD16R,1.66370X0.55880*%
%ADD17R,1.55880X0.60800*%
%ADD18R,2.10000X0.65000*%
%ADD19R,1.80000X0.60000*%
G04:AMPARAMS|DCode=20|XSize=1.97mm|YSize=0.6mm|CornerRadius=0.075mm|HoleSize=0mm|Usage=FLASHONLY|Rotation=90.000|XOffset=0mm|YOffset=0mm|HoleType=Round|Shape=RoundedRectangle|*
%AMROUNDEDRECTD20*
21,1,1.97000,0.45000,0,0,90.0*
21,1,1.82000,0.60000,0,0,90.0*
1,1,0.15000,0.22500,0.91000*
1,1,0.15000,0.22500,-0.91000*
1,1,0.15000,-0.22500,-0.91000*
1,1,0.15000,-0.22500,0.91000*
%
%ADD20ROUNDEDRECTD20*%
%ADD21R,1.52000X1.10000*%
%ADD23R,3.00000X1.60000*%
%ADD24R,6.70000X6.70000*%
%ADD25R,1.20000X0.60000*%
%ADD26R,1.77800X0.35560*%
%ADD27R,0.88900X1.09220*%
%ADD28R,2.00000X1.40000*%
%ADD29R,1.93410X0.53340*%
%ADD30R,2.05000X1.00000*%
%ADD31R,2.05000X3.25000*%
G36*
X2335000Y717805D02*
X2335026D01*
X2324155Y712091D01*
X2304268Y697724D01*
X2287434Y679876D01*
X2274253Y659183D01*
X2265195Y636382D01*
X2260582Y612285D01*
X2260578Y587751D01*
X2265184Y563653D01*
X2274236Y540849D01*
X2287411Y520152D01*
X2304241Y502300D01*
X2324124Y487927D01*
X2334994Y482211D01*
X2334994Y482211D01*
X2335000Y482224D01*
Y385000D01*
X2175000D01*
Y815000D01*
X2335000D01*
Y717805D01*
D02*
G37*
G36*
X2605000Y385000D02*
X2445000D01*
Y482196D01*
X2444974Y482195D01*
X2455844Y487909D01*
X2475732Y502276D01*
X2492566Y520124D01*
X2505747Y540817D01*
X2514805Y563618D01*
X2519418Y587715D01*
X2519421Y612249D01*
X2514815Y636347D01*
X2505763Y659151D01*
X2492588Y679848D01*
X2475759Y697700D01*
X2455876Y712073D01*
X2445006Y717789D01*
X2445000Y717776D01*
Y815000D01*
X2605000D01*
Y385000D01*
D02*
G37*
D11*
X1690000Y2165000D02*
D03*
Y1735000D02*
D03*
D12*
X380000Y2772500D02*
D03*
X840000D02*
D03*
X610000D02*
D03*
D13*
Y3407500D02*
D03*
D14*
X880000Y3650000D02*
D03*
X680000D02*
D03*
X880000Y3870000D02*
D03*
X680000D02*
D03*
X884999Y4180495D02*
D03*
X684999D02*
D03*
X880000Y4400000D02*
D03*
X680000D02*
D03*
X5230000Y7730000D02*
D03*
X5430000D02*
D03*
X6580000Y1530000D02*
D03*
X6380000D02*
D03*
X2220000Y1190000D02*
D03*
X2420000D02*
D03*
X2930000Y9090000D02*
D03*
X3130000D02*
D03*
X5590000Y6900000D02*
D03*
X5390000D02*
D03*
X3710000Y9090000D02*
D03*
X3910000D02*
D03*
X6150000Y1530000D02*
D03*
X5950000D02*
D03*
X360000Y1450000D02*
D03*
X560000D02*
D03*
X4960000Y7160000D02*
D03*
X4760000D02*
D03*
X7510000Y1520000D02*
D03*
X7710000D02*
D03*
X7100000D02*
D03*
X7300000D02*
D03*
X1450000Y9740000D02*
D03*
X1650000D02*
D03*
X4960000Y7360000D02*
D03*
X4760000D02*
D03*
X6030000Y1190000D02*
D03*
X5830000D02*
D03*
X6030000Y960000D02*
D03*
X5830000D02*
D03*
X5940000Y590000D02*
D03*
X6140000D02*
D03*
X1640000Y9190000D02*
D03*
X1440000D02*
D03*
X7300000Y2321000D02*
D03*
X7100000D02*
D03*
X5850000Y3291001D02*
D03*
X6050000D02*
D03*
X7300000Y2531001D02*
D03*
X7100000D02*
D03*
X7300000Y2111001D02*
D03*
X7100000D02*
D03*
X7310000Y1901000D02*
D03*
X7110000D02*
D03*
X1390000Y2590000D02*
D03*
X1190000D02*
D03*
D15*
X5952135Y7256500D02*
D03*
Y7383500D02*
D03*
Y7510500D02*
D03*
X5387865D02*
D03*
Y7256500D02*
D03*
Y7129500D02*
D03*
X5952135D02*
D03*
X5387865Y7383500D02*
D03*
D16*
X5397425Y8460500D02*
D03*
Y8333500D02*
D03*
Y8206500D02*
D03*
Y8079500D02*
D03*
X5962575Y8206500D02*
D03*
Y8333500D02*
D03*
Y8460500D02*
D03*
Y8079500D02*
D03*
X7307425Y1240500D02*
D03*
Y1113500D02*
D03*
Y986500D02*
D03*
Y859500D02*
D03*
X7872575D02*
D03*
Y986500D02*
D03*
Y1113500D02*
D03*
Y1240500D02*
D03*
X6277425Y1260500D02*
D03*
Y1133500D02*
D03*
Y1006500D02*
D03*
Y879500D02*
D03*
X6842575D02*
D03*
Y1006500D02*
D03*
Y1133500D02*
D03*
Y1260500D02*
D03*
D17*
X6569140Y8224750D02*
D03*
Y8415250D02*
D03*
X6350860Y8320000D02*
D03*
D18*
X3950000Y8760000D02*
D03*
Y8633000D02*
D03*
Y8506000D02*
D03*
Y8379000D02*
D03*
Y8252000D02*
D03*
Y8125000D02*
D03*
Y7998000D02*
D03*
Y7871000D02*
D03*
X2980000Y7998000D02*
D03*
Y7871000D02*
D03*
Y8633000D02*
D03*
Y8125000D02*
D03*
Y8506000D02*
D03*
Y8252000D02*
D03*
Y8760000D02*
D03*
Y8379000D02*
D03*
X3965000Y3147500D02*
D03*
Y2385500D02*
D03*
Y2639500D02*
D03*
Y2766500D02*
D03*
Y2893500D02*
D03*
Y3020500D02*
D03*
Y2512500D02*
D03*
Y3274500D02*
D03*
X2995000Y2385500D02*
D03*
Y3147500D02*
D03*
Y3020500D02*
D03*
Y2893500D02*
D03*
Y2639500D02*
D03*
Y2512500D02*
D03*
Y3274500D02*
D03*
Y2766500D02*
D03*
X2990000Y6607000D02*
D03*
X3960000Y6480000D02*
D03*
Y6607000D02*
D03*
Y6734000D02*
D03*
Y6861000D02*
D03*
Y6988000D02*
D03*
Y7115000D02*
D03*
Y7242000D02*
D03*
Y7369000D02*
D03*
X2990000Y6480000D02*
D03*
Y6861000D02*
D03*
Y6988000D02*
D03*
Y7369000D02*
D03*
Y6734000D02*
D03*
Y7242000D02*
D03*
Y7115000D02*
D03*
X2990000Y4602000D02*
D03*
Y3840000D02*
D03*
X3960000Y3713000D02*
D03*
Y3840000D02*
D03*
Y3967000D02*
D03*
Y4094000D02*
D03*
Y4221000D02*
D03*
Y4348000D02*
D03*
Y4475000D02*
D03*
Y4602000D02*
D03*
X2990000Y3713000D02*
D03*
Y4094000D02*
D03*
Y4475000D02*
D03*
Y4221000D02*
D03*
Y3967000D02*
D03*
Y4348000D02*
D03*
X3965000Y5974500D02*
D03*
Y5212500D02*
D03*
Y5085500D02*
D03*
X2995000Y5212500D02*
D03*
X3965000Y5339500D02*
D03*
Y5720500D02*
D03*
Y5466500D02*
D03*
Y5847500D02*
D03*
Y5593500D02*
D03*
X2995000Y5085500D02*
D03*
Y5720500D02*
D03*
Y5466500D02*
D03*
Y5847500D02*
D03*
Y5593500D02*
D03*
Y5974500D02*
D03*
Y5339500D02*
D03*
D19*
X2875000Y9446500D02*
D03*
Y9573500D02*
D03*
X3965000Y9700500D02*
D03*
Y9573500D02*
D03*
Y9446500D02*
D03*
Y9319500D02*
D03*
X2875000Y9700500D02*
D03*
Y9319500D02*
D03*
D20*
X1869500Y9717000D02*
D03*
X2250500D02*
D03*
X2123500Y9223000D02*
D03*
X1996500D02*
D03*
X1869500D02*
D03*
X2250500D02*
D03*
X2123500Y9717000D02*
D03*
X1996500D02*
D03*
D21*
X4270000Y7580000D02*
D03*
Y7380000D02*
D03*
Y8970000D02*
D03*
Y8770000D02*
D03*
X4270000Y3470000D02*
D03*
Y3270000D02*
D03*
X2700000Y8970000D02*
D03*
Y8770000D02*
D03*
Y6170000D02*
D03*
Y5970000D02*
D03*
Y7570000D02*
D03*
Y7370000D02*
D03*
X6840000Y8320000D02*
D03*
Y8120000D02*
D03*
X4280000Y6180000D02*
D03*
Y5980000D02*
D03*
X4400000Y1250000D02*
D03*
Y1450000D02*
D03*
X5140000Y7180000D02*
D03*
Y6980000D02*
D03*
Y7340000D02*
D03*
Y7540000D02*
D03*
X5690000Y2061000D02*
D03*
Y2261000D02*
D03*
X5470000Y2391001D02*
D03*
Y2191000D02*
D03*
X4280000Y4610000D02*
D03*
Y4810000D02*
D03*
X7390000Y2781001D02*
D03*
Y2981001D02*
D03*
X2720000Y3470000D02*
D03*
Y3270000D02*
D03*
X2700000Y4610000D02*
D03*
Y4810000D02*
D03*
D23*
X1197500Y1790000D02*
D03*
Y2250000D02*
D03*
D24*
X532500Y2020000D02*
D03*
D25*
X360000Y1265000D02*
D03*
Y1075000D02*
D03*
X580000Y1170000D02*
D03*
D26*
X6062985Y2498501D02*
D03*
Y2563501D02*
D03*
X6637025Y2693501D02*
D03*
Y2758501D02*
D03*
X6062985Y2693501D02*
D03*
Y2628501D02*
D03*
Y3018501D02*
D03*
X6637025Y3018501D02*
D03*
Y2888501D02*
D03*
Y3083501D02*
D03*
X6062985Y2758501D02*
D03*
Y2823501D02*
D03*
Y2888501D02*
D03*
Y2953501D02*
D03*
Y3083501D02*
D03*
X6637025Y2953501D02*
D03*
Y2823501D02*
D03*
Y2628501D02*
D03*
Y2563501D02*
D03*
Y2498501D02*
D03*
D27*
X7055000Y2786001D02*
D03*
X7185000D02*
D03*
Y2956001D02*
D03*
X7055000D02*
D03*
D28*
X5480000Y3150000D02*
D03*
X4780000D02*
D03*
X5480000Y3550000D02*
D03*
X4780000D02*
D03*
D29*
X8696355Y5500000D02*
D03*
X7753645Y4103000D02*
D03*
Y4865000D02*
D03*
X8696355D02*
D03*
X7753645Y4611000D02*
D03*
X8696355Y4357000D02*
D03*
X7753645D02*
D03*
Y4230000D02*
D03*
X8696355Y4611000D02*
D03*
X7753645Y4484000D02*
D03*
Y4992000D02*
D03*
Y4738000D02*
D03*
X8696355Y4992000D02*
D03*
Y4738000D02*
D03*
Y5246000D02*
D03*
X7753645Y5119000D02*
D03*
X8696355Y4484000D02*
D03*
Y5119000D02*
D03*
Y5373000D02*
D03*
Y4230000D02*
D03*
Y4103000D02*
D03*
Y3976000D02*
D03*
Y3849000D02*
D03*
X7753645D02*
D03*
Y3976000D02*
D03*
Y5246000D02*
D03*
Y5373000D02*
D03*
Y5500000D02*
D03*
X7753645Y7420000D02*
D03*
Y7293000D02*
D03*
Y7166000D02*
D03*
Y6023000D02*
D03*
Y5896000D02*
D03*
X8696354Y7293000D02*
D03*
Y7420000D02*
D03*
Y6404000D02*
D03*
X7753645Y6531000D02*
D03*
Y6912000D02*
D03*
X8696354Y6785000D02*
D03*
Y7166000D02*
D03*
Y6277000D02*
D03*
Y6658000D02*
D03*
X7753645Y6404000D02*
D03*
Y6785000D02*
D03*
X8696354Y7039000D02*
D03*
X7753645Y6277000D02*
D03*
X8696354Y6912000D02*
D03*
X7753645Y6658000D02*
D03*
X8696354Y6531000D02*
D03*
X7753645Y7039000D02*
D03*
Y6150000D02*
D03*
X8696354Y5896000D02*
D03*
X7753645Y5769000D02*
D03*
X8696354Y6023000D02*
D03*
Y6150000D02*
D03*
Y5769000D02*
D03*
X7748645Y3555501D02*
D03*
Y3428501D02*
D03*
Y3301501D02*
D03*
Y2031501D02*
D03*
Y1904501D02*
D03*
X8691355D02*
D03*
Y2031501D02*
D03*
Y2158501D02*
D03*
Y2285501D02*
D03*
Y3428501D02*
D03*
X7748645Y2158501D02*
D03*
X8691355Y3555501D02*
D03*
Y2539501D02*
D03*
X7748645Y2666501D02*
D03*
Y3047501D02*
D03*
X8691355Y2920501D02*
D03*
Y3301501D02*
D03*
Y2412501D02*
D03*
Y2793501D02*
D03*
X7748645Y2539501D02*
D03*
Y2920501D02*
D03*
X8691355Y3174501D02*
D03*
X7748645Y2412501D02*
D03*
X8691355Y3047501D02*
D03*
X7748645Y2793501D02*
D03*
X8691355Y2666501D02*
D03*
X7748645Y3174501D02*
D03*
Y2285501D02*
D03*
X7743645Y9341001D02*
D03*
Y9214001D02*
D03*
Y9087001D02*
D03*
Y7817001D02*
D03*
X8686355Y9214001D02*
D03*
Y9341001D02*
D03*
X7743645Y7690001D02*
D03*
X8686355D02*
D03*
Y7817001D02*
D03*
Y8071001D02*
D03*
Y7944001D02*
D03*
X7743645D02*
D03*
X8686355Y8325001D02*
D03*
X7743645Y8452001D02*
D03*
Y8833001D02*
D03*
X8686355Y8706001D02*
D03*
Y9087001D02*
D03*
Y8198001D02*
D03*
Y8579001D02*
D03*
X7743645Y8325001D02*
D03*
Y8706001D02*
D03*
X8686355Y8960001D02*
D03*
X7743645Y8198001D02*
D03*
X8686355Y8833001D02*
D03*
X7743645Y8579001D02*
D03*
X8686355Y8452001D02*
D03*
X7743645Y8960001D02*
D03*
Y8071001D02*
D03*
D30*
X4392500Y2120000D02*
D03*
Y1660000D02*
D03*
Y1890000D02*
D03*
D31*
X5027500D02*
D03*
%TF.MD5,2c22790c8067b8f1f7cb382cb34b866c*%
M02*
