G04*
G04 #@! TF.GenerationSoftware,Altium Limited,Altium Designer,25.8.1 (18)*
G04*
G04 Layer_Color=65535*
%FSLAX44Y44*%
%MOMM*%
G71*
G04*
G04 #@! TF.SameCoordinates,346E8232-17C7-4013-95A1-2B3E51FE4BFF*
G04*
G04*
G04 #@! TF.FilePolarity,Positive*
G04*
G01*
G75*
%ADD10C,0.2500*%
%ADD11C,0.1524*%
%ADD12C,0.2000*%
%ADD13C,0.3000*%
%ADD14C,0.1700*%
%ADD15C,0.1270*%
%ADD16C,0.1000*%
%ADD17C,0.2540*%
G36*
X158250Y977500D02*
X151750D01*
Y981500D01*
X158250D01*
Y977500D01*
D02*
G37*
G36*
Y966500D02*
X151750D01*
Y970500D01*
X158250D01*
Y966500D01*
D02*
G37*
G36*
X157250Y922500D02*
X150750D01*
Y926500D01*
X157250D01*
Y922500D01*
D02*
G37*
G36*
Y911500D02*
X150750D01*
Y915500D01*
X157250D01*
Y911500D01*
D02*
G37*
G36*
X384250Y901500D02*
X382000D01*
Y916500D01*
X384250D01*
Y901500D01*
D02*
G37*
G36*
X306250D02*
X304000D01*
Y916500D01*
X306250D01*
Y901500D01*
D02*
G37*
G36*
X380000D02*
X377750Y901500D01*
X377750Y916500D01*
X380000Y916500D01*
X380000Y901500D01*
D02*
G37*
G36*
X302000D02*
X299750Y901500D01*
X299750Y916500D01*
X302000Y916500D01*
X302000Y901500D01*
D02*
G37*
G36*
X434500Y890250D02*
X434500Y888000D01*
X419500Y888000D01*
X419500Y890250D01*
X434500Y890250D01*
D02*
G37*
G36*
X277500Y888000D02*
X262500D01*
Y890250D01*
X277500D01*
Y888000D01*
D02*
G37*
G36*
X434500Y883750D02*
X419500D01*
Y886000D01*
X434500D01*
Y883750D01*
D02*
G37*
G36*
X277500Y886000D02*
X277500Y883750D01*
X262500Y883750D01*
X262500Y886000D01*
X277500Y886000D01*
D02*
G37*
G36*
X883386Y830595D02*
X880846D01*
Y834405D01*
X883386D01*
Y830595D01*
D02*
G37*
G36*
X691500Y825250D02*
X691500Y823000D01*
X676500Y823000D01*
X676500Y825250D01*
X691500Y825250D01*
D02*
G37*
G36*
X691500Y818750D02*
X676500D01*
Y821000D01*
X691500D01*
Y818750D01*
D02*
G37*
G36*
X762154Y817895D02*
X759614D01*
Y821705D01*
X762154D01*
Y817895D01*
D02*
G37*
G36*
X536250Y765500D02*
X534000Y765500D01*
X534000Y780500D01*
X536250Y780500D01*
X536250Y765500D01*
D02*
G37*
G36*
X532000Y765500D02*
X529750D01*
Y780500D01*
X532000D01*
Y765500D01*
D02*
G37*
G36*
X434500Y751250D02*
X434500Y749000D01*
X419500Y749000D01*
X419500Y751250D01*
X434500Y751250D01*
D02*
G37*
G36*
X277500Y748000D02*
X262500D01*
Y750250D01*
X277500D01*
Y748000D01*
D02*
G37*
G36*
X434500Y744750D02*
X419500D01*
Y747000D01*
X434500D01*
Y744750D01*
D02*
G37*
G36*
X277500Y746000D02*
X277500Y743750D01*
X262500Y743750D01*
X262500Y746000D01*
X277500Y746000D01*
D02*
G37*
G36*
X521500Y740750D02*
X517500D01*
Y747250D01*
X521500D01*
Y740750D01*
D02*
G37*
G36*
X510500D02*
X506500D01*
Y747250D01*
X510500D01*
Y740750D01*
D02*
G37*
G36*
X489250Y739500D02*
X482750D01*
Y743500D01*
X489250D01*
Y739500D01*
D02*
G37*
G36*
Y728500D02*
X482750D01*
Y732500D01*
X489250D01*
Y728500D01*
D02*
G37*
G36*
Y719500D02*
X482750D01*
Y723500D01*
X489250D01*
Y719500D01*
D02*
G37*
G36*
Y708500D02*
X482750D01*
Y712500D01*
X489250D01*
Y708500D01*
D02*
G37*
G36*
X521500Y704750D02*
X517500D01*
Y711250D01*
X521500D01*
Y704750D01*
D02*
G37*
G36*
X510500D02*
X506500D01*
Y711250D01*
X510500D01*
Y704750D01*
D02*
G37*
G36*
X552250Y682500D02*
X550000Y682500D01*
X550000Y697500D01*
X552250Y697500D01*
X552250Y682500D01*
D02*
G37*
G36*
X548000Y682500D02*
X545750D01*
Y697500D01*
X548000D01*
Y682500D01*
D02*
G37*
G36*
X884386Y638495D02*
X881846D01*
Y642305D01*
X884386D01*
Y638495D01*
D02*
G37*
G36*
X763154Y625795D02*
X760614D01*
Y629605D01*
X763154D01*
Y625795D01*
D02*
G37*
G36*
X435500Y611250D02*
X435500Y609000D01*
X420500Y609000D01*
X420500Y611250D01*
X435500Y611250D01*
D02*
G37*
G36*
X277500Y608000D02*
X262500D01*
Y610250D01*
X277500D01*
Y608000D01*
D02*
G37*
G36*
X435500Y604750D02*
X420500D01*
Y607000D01*
X435500D01*
Y604750D01*
D02*
G37*
G36*
X277500Y606000D02*
X277500Y603750D01*
X262500Y603750D01*
X262500Y606000D01*
X277500Y606000D01*
D02*
G37*
G36*
X435500Y474250D02*
X435500Y472000D01*
X420500Y472000D01*
X420500Y474250D01*
X435500Y474250D01*
D02*
G37*
G36*
X277500Y472000D02*
X262500D01*
Y474250D01*
X277500D01*
Y472000D01*
D02*
G37*
G36*
X435500Y467750D02*
X420500D01*
Y470000D01*
X435500D01*
Y467750D01*
D02*
G37*
G36*
X277500Y470000D02*
X277500Y467750D01*
X262500Y467750D01*
X262500Y470000D01*
X277500Y470000D01*
D02*
G37*
G36*
X884386Y446495D02*
X881846D01*
Y450305D01*
X884386D01*
Y446495D01*
D02*
G37*
G36*
X763154Y433795D02*
X760614D01*
Y437605D01*
X763154D01*
Y433795D01*
D02*
G37*
G36*
X81250Y432500D02*
X79000Y432500D01*
X79000Y447500D01*
X81250Y447500D01*
X81250Y432500D01*
D02*
G37*
G36*
X77000Y432500D02*
X74750D01*
Y447500D01*
X77000D01*
Y432500D01*
D02*
G37*
G36*
X81750Y410550D02*
X79500Y410550D01*
X79500Y425550D01*
X81750Y425550D01*
X81750Y410550D01*
D02*
G37*
G36*
X77500Y410550D02*
X75250D01*
Y425550D01*
X77500D01*
Y410550D01*
D02*
G37*
G36*
X81250Y379500D02*
X79000Y379500D01*
X79000Y394500D01*
X81250Y394500D01*
X81250Y379500D01*
D02*
G37*
G36*
X77000Y379500D02*
X74750D01*
Y394500D01*
X77000D01*
Y379500D01*
D02*
G37*
G36*
X81250Y357500D02*
X79000Y357500D01*
X79000Y372500D01*
X81250Y372500D01*
X81250Y357500D01*
D02*
G37*
G36*
X77000Y357500D02*
X74750D01*
Y372500D01*
X77000D01*
Y357500D01*
D02*
G37*
G36*
X434500Y338000D02*
X419500D01*
Y340250D01*
X434500D01*
Y338000D01*
D02*
G37*
G36*
X279500Y340250D02*
X279500Y338000D01*
X264500Y338000D01*
X264500Y340250D01*
X279500Y340250D01*
D02*
G37*
G36*
X279500Y333750D02*
X264500D01*
Y336000D01*
X279500D01*
Y333750D01*
D02*
G37*
G36*
X434500Y336000D02*
X434500Y333750D01*
X419500Y333750D01*
X419500Y336000D01*
X434500Y336000D01*
D02*
G37*
G36*
X598250Y332600D02*
X591750D01*
Y336600D01*
X598250D01*
Y332600D01*
D02*
G37*
G36*
Y321600D02*
X591750D01*
Y325600D01*
X598250D01*
Y321600D01*
D02*
G37*
G36*
X677673Y306445D02*
X675133D01*
Y310255D01*
X677673D01*
Y306445D01*
D02*
G37*
G36*
X746500Y291350D02*
X746500Y289100D01*
X731500Y289100D01*
X731500Y291350D01*
X746500Y291350D01*
D02*
G37*
G36*
X746500Y284850D02*
X731500D01*
Y287100D01*
X746500D01*
Y284850D01*
D02*
G37*
G36*
X883886Y252045D02*
X881346D01*
Y255855D01*
X883886D01*
Y252045D01*
D02*
G37*
G36*
X132250Y251500D02*
X130000Y251500D01*
X130000Y266500D01*
X132250Y266500D01*
X132250Y251500D01*
D02*
G37*
G36*
X128000Y251500D02*
X125750D01*
Y266500D01*
X128000D01*
Y251500D01*
D02*
G37*
G36*
X594869Y247945D02*
X592328D01*
Y251755D01*
X594869D01*
Y247945D01*
D02*
G37*
G36*
X723250Y245600D02*
X721000D01*
Y260600D01*
X723250D01*
Y245600D01*
D02*
G37*
G36*
X719000D02*
X716750Y245600D01*
X716750Y260600D01*
X719000Y260600D01*
X719000Y245600D01*
D02*
G37*
G36*
X762654Y239345D02*
X760114D01*
Y243155D01*
X762654D01*
Y239345D01*
D02*
G37*
G36*
X554500Y225850D02*
X550500D01*
Y232350D01*
X554500D01*
Y225850D01*
D02*
G37*
G36*
X543500D02*
X539500D01*
Y232350D01*
X543500D01*
Y225850D01*
D02*
G37*
G36*
X723250Y224600D02*
X721000D01*
Y239600D01*
X723250D01*
Y224600D01*
D02*
G37*
G36*
X719000D02*
X716750Y224600D01*
X716750Y239600D01*
X719000Y239600D01*
X719000Y224600D01*
D02*
G37*
G36*
X576500Y212850D02*
X572500D01*
Y219350D01*
X576500D01*
Y212850D01*
D02*
G37*
G36*
X565500D02*
X561500D01*
Y219350D01*
X565500D01*
Y212850D01*
D02*
G37*
G36*
X723250Y203600D02*
X721000D01*
Y218600D01*
X723250D01*
Y203600D01*
D02*
G37*
G36*
X719000D02*
X716750Y203600D01*
X716750Y218600D01*
X719000Y218600D01*
X719000Y203600D01*
D02*
G37*
G36*
X724250Y193600D02*
X717750D01*
Y197600D01*
X724250D01*
Y193600D01*
D02*
G37*
G36*
Y182600D02*
X717750D01*
Y186600D01*
X724250D01*
Y182600D01*
D02*
G37*
G36*
X608250Y156500D02*
X601750D01*
Y160500D01*
X608250D01*
Y156500D01*
D02*
G37*
G36*
X764250Y155500D02*
X757750D01*
Y159500D01*
X764250D01*
Y155500D01*
D02*
G37*
G36*
X723250D02*
X716750D01*
Y159500D01*
X723250D01*
Y155500D01*
D02*
G37*
G36*
X49250Y148500D02*
X42750D01*
Y152500D01*
X49250D01*
Y148500D01*
D02*
G37*
G36*
X651250Y145500D02*
X649000Y145500D01*
X649000Y160500D01*
X651250Y160500D01*
X651250Y145500D01*
D02*
G37*
G36*
X647000Y145500D02*
X644750D01*
Y160500D01*
X647000D01*
Y145500D01*
D02*
G37*
G36*
X608250D02*
X601750D01*
Y149500D01*
X608250D01*
Y145500D01*
D02*
G37*
G36*
X764250Y144500D02*
X757750D01*
Y148500D01*
X764250D01*
Y144500D01*
D02*
G37*
G36*
X723250D02*
X716750D01*
Y148500D01*
X723250D01*
Y144500D01*
D02*
G37*
G36*
X49250Y137500D02*
X42750D01*
Y141500D01*
X49250D01*
Y137500D01*
D02*
G37*
G36*
X447500Y136000D02*
X432500D01*
Y138250D01*
X447500D01*
Y136000D01*
D02*
G37*
G36*
Y134000D02*
X447500Y131750D01*
X432500Y131750D01*
X432500Y134000D01*
X447500Y134000D01*
D02*
G37*
G36*
X596250Y122500D02*
X589750D01*
Y126500D01*
X596250D01*
Y122500D01*
D02*
G37*
G36*
Y111500D02*
X589750D01*
Y115500D01*
X596250D01*
Y111500D01*
D02*
G37*
G36*
X235250Y111500D02*
X233000Y111500D01*
X233000Y126500D01*
X235250Y126500D01*
X235250Y111500D01*
D02*
G37*
G36*
X231000Y111500D02*
X228750D01*
Y126500D01*
X231000D01*
Y111500D01*
D02*
G37*
G36*
X596250Y99500D02*
X589750D01*
Y103500D01*
X596250D01*
Y99500D01*
D02*
G37*
G36*
Y88500D02*
X589750D01*
Y92500D01*
X596250D01*
Y88500D01*
D02*
G37*
G36*
X607250Y62500D02*
X600750D01*
Y66500D01*
X607250D01*
Y62500D01*
D02*
G37*
G36*
Y51500D02*
X600750D01*
Y55500D01*
X607250D01*
Y51500D01*
D02*
G37*
D10*
X28750Y279500D02*
G03*
X28750Y279500I-1250J0D01*
G01*
X640250Y700600D02*
G03*
X640250Y700600I-1250J0D01*
G01*
X981250Y288200D02*
G03*
X981250Y288200I-1250J0D01*
G01*
X199350Y891500D02*
G03*
X199350Y891500I-1250J0D01*
G01*
X46250Y892600D02*
G03*
X46250Y892600I-1250J0D01*
G01*
X442750Y222500D02*
G03*
X442750Y222500I-1250J0D01*
G01*
D11*
X673090Y822475D02*
G03*
X673090Y822475I-762J0D01*
G01*
X727349Y82100D02*
G03*
X727349Y82100I-1270J0D01*
G01*
X650170Y715679D02*
G03*
X650170Y715679I-1270J0D01*
G01*
X738176Y278600D02*
G03*
X738176Y278600I-1270J0D01*
G01*
X545791Y758289D02*
X588209D01*
X545791Y705711D02*
X588209D01*
X546791Y800711D02*
X589209D01*
X546791Y853289D02*
X589209D01*
X737791Y78711D02*
X780209D01*
X737791Y131289D02*
X780209D01*
X654255Y828842D02*
Y835158D01*
X637745Y848510D02*
X654255D01*
X637745Y838367D02*
Y848510D01*
Y815490D02*
X654255D01*
X637745D02*
Y825633D01*
X634791Y80711D02*
X677209D01*
X634791Y133289D02*
X677209D01*
X705632Y70670D02*
X803422D01*
X705632Y18600D02*
Y70670D01*
Y18600D02*
X803422D01*
Y70670D01*
X660330Y695232D02*
Y793022D01*
Y695232D02*
X712400D01*
Y793022D01*
X660330D02*
X712400D01*
X615845Y244810D02*
X654156D01*
X615845Y313390D02*
X654156D01*
X861235Y555994D02*
Y558255D01*
X783765Y376645D02*
Y378906D01*
Y555994D02*
Y558255D01*
X861235D01*
Y376645D02*
Y378906D01*
X783765Y376645D02*
X861235D01*
X783765Y568645D02*
X861235D01*
Y570906D01*
X783765Y750255D02*
X861235D01*
X783765Y747994D02*
Y750255D01*
Y568645D02*
Y570906D01*
X861235Y747994D02*
Y750255D01*
X783265Y182195D02*
X860735D01*
Y184456D01*
X783265Y363805D02*
X860735D01*
X783265Y361544D02*
Y363805D01*
Y182195D02*
Y184456D01*
X860735Y361544D02*
Y363805D01*
X294699Y101258D02*
X412301D01*
Y163742D01*
X294699D02*
X412301D01*
X294699Y101258D02*
Y163742D01*
X782765Y760745D02*
X860235D01*
Y763006D01*
X782765Y942355D02*
X860235D01*
X782765Y940095D02*
Y942355D01*
Y760745D02*
Y763006D01*
X860235Y940095D02*
Y942355D01*
D12*
X183950Y906600D02*
G03*
X183950Y906600I-1000J0D01*
G01*
X539500Y39000D02*
G03*
X539500Y39000I-27500J0D01*
G01*
X538500Y114000D02*
G03*
X538500Y114000I-27500J0D01*
G01*
X246500Y197000D02*
G03*
X246500Y197000I-27500J0D01*
G01*
X139750Y178000D02*
G03*
X139750Y180000I0J1000D01*
G01*
D02*
G03*
X139750Y178000I0J-1000D01*
G01*
X182020Y169020D02*
Y224250D01*
X155980Y169020D02*
Y220980D01*
X94500Y296000D02*
Y322000D01*
X27500Y296000D02*
Y322000D01*
X94500D01*
X27500Y296000D02*
X94500D01*
X289500Y884050D02*
X380500D01*
X312500Y779050D02*
X380500D01*
X236500Y39500D02*
X241500D01*
X236500Y80500D02*
X241500D01*
X185000Y-52500D02*
Y31000D01*
Y75000D02*
Y92500D01*
X159500D02*
X185000D01*
X95000D02*
X120500D01*
X95000Y-52500D02*
X185000D01*
X95000D02*
Y92500D01*
X652450Y705100D02*
Y758900D01*
X625550Y705100D02*
X652450D01*
X625550D02*
Y758900D01*
X652450D01*
X966500Y293050D02*
X993500D01*
Y706950D01*
X966500D02*
X993500D01*
X966500Y293050D02*
Y706950D01*
X45500Y131600D02*
X48500D01*
Y102400D02*
Y131600D01*
X45500Y102400D02*
X48500D01*
X45500D02*
Y131600D01*
X30000Y132000D02*
X42000D01*
X314000Y230500D02*
X382000D01*
X291000Y335500D02*
X382000D01*
X313500Y639950D02*
X381500D01*
X290500Y744950D02*
X381500D01*
X313500Y363250D02*
X381500D01*
X290500Y468250D02*
X381500D01*
X184600Y371150D02*
X211600D01*
X184600Y886650D02*
X211600D01*
X184600Y371150D02*
Y886650D01*
X211600Y371150D02*
Y886650D01*
X31500Y887750D02*
X58500D01*
X31500Y372250D02*
Y887750D01*
Y372250D02*
X58500D01*
Y887750D01*
X458000Y155500D02*
X484000D01*
X458000Y222500D02*
X484000D01*
Y155500D02*
Y222500D01*
X458000Y155500D02*
Y222500D01*
X291000Y605500D02*
X382000D01*
X314000Y500500D02*
X382000D01*
D13*
X292250Y77700D02*
X291250D01*
X292250D01*
D14*
X312250Y980500D02*
X371750D01*
X312250Y921500D02*
X380000D01*
Y926000D02*
X404500D01*
X380000Y921500D02*
Y926000D01*
D15*
X231250Y927500D02*
Y966500D01*
X180750Y927500D02*
Y966500D01*
X545000Y303000D02*
Y305000D01*
X481000Y303000D02*
Y305000D01*
X545000Y365000D02*
Y367000D01*
X481000Y365000D02*
Y367000D01*
X545000Y325000D02*
Y345000D01*
X481000Y325000D02*
Y345000D01*
Y303000D02*
X545000D01*
X481000Y367000D02*
X545000D01*
D16*
X78500Y109500D02*
X152500D01*
X78500D02*
Y140500D01*
X152500D01*
Y109500D02*
Y140500D01*
X280000Y2700D02*
Y72700D01*
X476500D01*
Y2700D02*
Y72700D01*
X280000Y2700D02*
X476500D01*
D17*
X826540Y130029D02*
X832538D01*
X834537Y132028D01*
X832538Y134027D01*
X828539D01*
X826540Y136027D01*
X828539Y138026D01*
X834537D01*
X838536D02*
Y132028D01*
X840536Y130029D01*
X846534D01*
Y138026D01*
X850532Y142025D02*
Y130029D01*
X856530D01*
X858530Y132028D01*
Y134027D01*
X856530Y136027D01*
X850532D01*
X856530D01*
X858530Y138026D01*
Y140026D01*
X856530Y142025D01*
X850532D01*
X864528Y138026D02*
X868526D01*
X870526Y136027D01*
Y130029D01*
X864528D01*
X862528Y132028D01*
X864528Y134027D01*
X870526D01*
X874525Y138026D02*
Y130029D01*
Y134027D01*
X876524Y136027D01*
X878523Y138026D01*
X880523D01*
X894518Y142025D02*
Y130029D01*
X888520D01*
X886521Y132028D01*
Y136027D01*
X888520Y138026D01*
X894518D01*
X900516D02*
X904515D01*
X906514Y136027D01*
Y130029D01*
X900516D01*
X898517Y132028D01*
X900516Y134027D01*
X906514D01*
X914511Y126030D02*
X916511D01*
X918510Y128029D01*
Y138026D01*
X912512D01*
X910513Y136027D01*
Y132028D01*
X912512Y130029D01*
X918510D01*
X922509D02*
X926508D01*
X924508D01*
Y138026D01*
X922509D01*
X834537Y117535D02*
X826540D01*
Y105539D01*
X834537D01*
X826540Y111537D02*
X830539D01*
X838536Y113536D02*
Y105539D01*
Y109537D01*
X840536Y111537D01*
X842535Y113536D01*
X844534D01*
X856530Y105539D02*
X852532D01*
X850532Y107538D01*
Y111537D01*
X852532Y113536D01*
X856530D01*
X858530Y111537D01*
Y109537D01*
X850532D01*
X862528Y105539D02*
Y113536D01*
X868526D01*
X870526Y111537D01*
Y105539D01*
X894518Y117535D02*
X886521D01*
Y105539D01*
X894518D01*
X886521Y111537D02*
X890519D01*
X902515Y101540D02*
X904515D01*
X906514Y103539D01*
Y113536D01*
X900516D01*
X898517Y111537D01*
Y107538D01*
X900516Y105539D01*
X906514D01*
X918510Y117535D02*
Y105539D01*
X912512D01*
X910513Y107538D01*
Y111537D01*
X912512Y113536D01*
X918510D01*
X928507Y105539D02*
X924508D01*
X922509Y107538D01*
Y111537D01*
X924508Y113536D01*
X928507D01*
X930506Y111537D01*
Y109537D01*
X922509D01*
X934505Y105539D02*
Y113536D01*
X936504D01*
X938504Y111537D01*
Y105539D01*
Y111537D01*
X940503Y113536D01*
X942503Y111537D01*
Y105539D01*
X946501D02*
X950500D01*
X948501D01*
Y113536D01*
X946501D01*
X956498D02*
Y105539D01*
Y109537D01*
X958497Y111537D01*
X960497Y113536D01*
X962496D01*
X937540Y682486D02*
X942938D01*
X940239D01*
Y698680D01*
X937540Y695981D01*
X961832Y698680D02*
X956434Y695981D01*
X951036Y690583D01*
Y685185D01*
X953735Y682486D01*
X959133D01*
X961832Y685185D01*
Y687884D01*
X959133Y690583D01*
X951036D01*
X937540Y656956D02*
X942938D01*
X940239D01*
Y673151D01*
X937540Y670452D01*
X961832Y673151D02*
X951036D01*
Y665053D01*
X956434Y667753D01*
X959133D01*
X961832Y665053D01*
Y659655D01*
X959133Y656956D01*
X953735D01*
X951036Y659655D01*
X937540Y631426D02*
X942938D01*
X940239D01*
Y647621D01*
X937540Y644922D01*
X959133Y631426D02*
Y647621D01*
X951036Y639524D01*
X961832D01*
X937540Y605897D02*
X942938D01*
X940239D01*
Y622091D01*
X937540Y619392D01*
X951036D02*
X953735Y622091D01*
X959133D01*
X961832Y619392D01*
Y616693D01*
X959133Y613994D01*
X956434D01*
X959133D01*
X961832Y611295D01*
Y608596D01*
X959133Y605897D01*
X953735D01*
X951036Y608596D01*
X937540Y580367D02*
X942938D01*
X940239D01*
Y596562D01*
X937540Y593862D01*
X961832Y580367D02*
X951036D01*
X961832Y591163D01*
Y593862D01*
X959133Y596562D01*
X953735D01*
X951036Y593862D01*
X937540Y554837D02*
X942938D01*
X940239D01*
Y571032D01*
X937540Y568333D01*
X951036Y554837D02*
X956434D01*
X953735D01*
Y571032D01*
X951036Y568333D01*
X937540Y529308D02*
X942938D01*
X940239D01*
Y545502D01*
X937540Y542803D01*
X951036D02*
X953735Y545502D01*
X959133D01*
X961832Y542803D01*
Y532007D01*
X959133Y529308D01*
X953735D01*
X951036Y532007D01*
Y542803D01*
X937540Y506477D02*
X940239Y503778D01*
X945637D01*
X948336Y506477D01*
Y517273D01*
X945637Y519972D01*
X940239D01*
X937540Y517273D01*
Y514574D01*
X940239Y511875D01*
X948336D01*
X937540Y491744D02*
X940239Y494443D01*
X945637D01*
X948336Y491744D01*
Y489044D01*
X945637Y486345D01*
X948336Y483646D01*
Y480947D01*
X945637Y478248D01*
X940239D01*
X937540Y480947D01*
Y483646D01*
X940239Y486345D01*
X937540Y489044D01*
Y491744D01*
X940239Y486345D02*
X945637D01*
X937540Y468913D02*
X948336D01*
Y466214D01*
X937540Y455417D01*
Y452718D01*
X948336Y443383D02*
X942938Y440684D01*
X937540Y435286D01*
Y429888D01*
X940239Y427189D01*
X945637D01*
X948336Y429888D01*
Y432587D01*
X945637Y435286D01*
X937540D01*
X948336Y417854D02*
X937540D01*
Y409756D01*
X942938Y412455D01*
X945637D01*
X948336Y409756D01*
Y404358D01*
X945637Y401659D01*
X940239D01*
X937540Y404358D01*
X945637Y376129D02*
Y392324D01*
X937540Y384226D01*
X948336D01*
X937540Y364095D02*
X940239Y366794D01*
X945637D01*
X948336Y364095D01*
Y361396D01*
X945637Y358697D01*
X942938D01*
X945637D01*
X948336Y355998D01*
Y353299D01*
X945637Y350599D01*
X940239D01*
X937540Y353299D01*
X948336Y325070D02*
X937540D01*
X948336Y335866D01*
Y338565D01*
X945637Y341264D01*
X940239D01*
X937540Y338565D01*
Y299540D02*
X942938D01*
X940239D01*
Y315735D01*
X937540Y313036D01*
X976464Y728537D02*
Y720540D01*
X988460D01*
Y728537D01*
X982462Y720540D02*
Y724539D01*
X988460Y732536D02*
Y736535D01*
Y734536D01*
X976464D01*
Y732536D01*
X988460Y748531D02*
Y744532D01*
X986461Y742533D01*
X982462D01*
X980462Y744532D01*
Y748531D01*
X982462Y750530D01*
X984461D01*
Y742533D01*
X980462Y762526D02*
Y756528D01*
X982462Y754529D01*
X986461D01*
X988460Y756528D01*
Y762526D01*
X978463Y768524D02*
X980462D01*
Y766525D01*
Y770524D01*
Y768524D01*
X986461D01*
X988460Y770524D01*
X980462Y776522D02*
X988460D01*
X984461D01*
X982462Y778521D01*
X980462Y780521D01*
Y782520D01*
X988460Y790517D02*
Y794516D01*
X986461Y796515D01*
X982462D01*
X980462Y794516D01*
Y790517D01*
X982462Y788518D01*
X986461D01*
X988460Y790517D01*
X976464Y808512D02*
X988460D01*
Y802514D01*
X986461Y800514D01*
X982462D01*
X980462Y802514D01*
Y808512D01*
X988460Y818508D02*
Y814510D01*
X986461Y812510D01*
X982462D01*
X980462Y814510D01*
Y818508D01*
X982462Y820508D01*
X984461D01*
Y812510D01*
X988460Y824506D02*
Y830504D01*
X986461Y832504D01*
X984461Y830504D01*
Y826506D01*
X982462Y824506D01*
X980462Y826506D01*
Y832504D01*
X500537Y448535D02*
X492540D01*
Y436539D01*
X500537D01*
X492540Y442537D02*
X496539D01*
X504536Y448535D02*
X508535D01*
X506535D01*
Y436539D01*
X504536D01*
X508535D01*
X514533Y448535D02*
X522530D01*
X518532D01*
Y436539D01*
X526529Y434540D02*
X534526D01*
X538525Y436539D02*
Y448535D01*
X544523D01*
X546523Y446536D01*
Y442537D01*
X544523Y440538D01*
X538525D01*
X550521Y448535D02*
Y436539D01*
Y442537D01*
X552521Y444537D01*
X556519D01*
X558519Y442537D01*
Y436539D01*
X564517Y444537D02*
X568515D01*
X570515Y442537D01*
Y436539D01*
X564517D01*
X562517Y438539D01*
X564517Y440538D01*
X570515D01*
X574514Y436539D02*
X580512D01*
X582511Y438539D01*
X580512Y440538D01*
X576513D01*
X574514Y442537D01*
X576513Y444537D01*
X582511D01*
X592508Y436539D02*
X588509D01*
X586510Y438539D01*
Y442537D01*
X588509Y444537D01*
X592508D01*
X594507Y442537D01*
Y440538D01*
X586510D01*
X598506Y434540D02*
X606503D01*
X610502Y436539D02*
X614501D01*
X612501D01*
Y448535D01*
X610502Y446536D01*
X620499Y434540D02*
X628496D01*
X632495Y444537D02*
X636493Y436539D01*
X640492Y444537D01*
X644491Y436539D02*
X648490D01*
X646490D01*
Y448535D01*
X644491Y446536D01*
X654488Y436539D02*
Y438539D01*
X656487D01*
Y436539D01*
X654488D01*
X664484Y446536D02*
X666484Y448535D01*
X670482D01*
X672482Y446536D01*
Y438539D01*
X670482Y436539D01*
X666484D01*
X664484Y438539D01*
Y446536D01*
M02*
