%TF.GenerationSoftware,Altium Limited,Altium Designer,25.8.1 (18)*%
G04 Layer_Physical_Order=1*
G04 Layer_Color=255*
%FSLAX45Y45*%
%MOMM*%
%TF.SameCoordinates,A2F0C2A1-DF56-410A-A7AA-CA8700650C71*%
%TF.FilePolarity,Positive*%
%TF.FileFunction,Copper,L1,Top,Signal*%
%TF.Part,Single*%
G01*
G75*
%TA.AperFunction,Conductor*%
%ADD10C,0.30000*%
%TA.AperFunction,SMDPad,CuDef*%
%ADD11R,1.55000X2.35000*%
%ADD12R,1.00000X2.05000*%
%ADD13R,3.25000X2.05000*%
%ADD14R,1.10000X1.52000*%
%ADD15R,1.65490X0.55800*%
%ADD16R,1.66370X0.55880*%
%ADD17R,1.55880X0.60800*%
%ADD18R,2.10000X0.65000*%
%ADD19R,1.80000X0.60000*%
G04:AMPARAMS|DCode=20|XSize=1.97mm|YSize=0.6mm|CornerRadius=0.075mm|HoleSize=0mm|Usage=FLASHONLY|Rotation=90.000|XOffset=0mm|YOffset=0mm|HoleType=Round|Shape=RoundedRectangle|*
%AMROUNDEDRECTD20*
21,1,1.97000,0.45000,0,0,90.0*
21,1,1.82000,0.60000,0,0,90.0*
1,1,0.15000,0.22500,0.91000*
1,1,0.15000,0.22500,-0.91000*
1,1,0.15000,-0.22500,-0.91000*
1,1,0.15000,-0.22500,0.91000*
%
%ADD20ROUNDEDRECTD20*%
%ADD21R,1.52000X1.10000*%
%TA.AperFunction,SMDPad,SMDef*%
%ADD22R,0.80000X4.30000*%
%TA.AperFunction,SMDPad,CuDef*%
%ADD23R,3.00000X1.60000*%
%ADD24R,6.70000X6.70000*%
%ADD25R,1.20000X0.60000*%
%ADD26R,1.77800X0.35560*%
%ADD27R,0.88900X1.09220*%
%ADD28R,2.00000X1.40000*%
%ADD29R,1.93410X0.53340*%
%ADD30R,2.05000X1.00000*%
%ADD31R,2.05000X3.25000*%
%TA.AperFunction,Conductor*%
%ADD32C,0.50000*%
%ADD33C,1.00000*%
%TA.AperFunction,ComponentPad*%
%ADD34O,4.20000X1.70000*%
%ADD35O,1.70000X3.80000*%
%ADD36O,3.80000X1.70000*%
G04:AMPARAMS|DCode=37|XSize=1.6mm|YSize=1.6mm|CornerRadius=0.4mm|HoleSize=0mm|Usage=FLASHONLY|Rotation=90.000|XOffset=0mm|YOffset=0mm|HoleType=Round|Shape=RoundedRectangle|*
%AMROUNDEDRECTD37*
21,1,1.60000,0.80000,0,0,90.0*
21,1,0.80000,1.60000,0,0,90.0*
1,1,0.80000,0.40000,0.40000*
1,1,0.80000,0.40000,-0.40000*
1,1,0.80000,-0.40000,-0.40000*
1,1,0.80000,-0.40000,0.40000*
%
%ADD37ROUNDEDRECTD37*%
%ADD38C,1.60000*%
G04:AMPARAMS|DCode=39|XSize=1.3mm|YSize=1.3mm|CornerRadius=0.325mm|HoleSize=0mm|Usage=FLASHONLY|Rotation=270.000|XOffset=0mm|YOffset=0mm|HoleType=Round|Shape=RoundedRectangle|*
%AMROUNDEDRECTD39*
21,1,1.30000,0.65000,0,0,270.0*
21,1,0.65000,1.30000,0,0,270.0*
1,1,0.65000,-0.32500,-0.32500*
1,1,0.65000,-0.32500,0.32500*
1,1,0.65000,0.32500,0.32500*
1,1,0.65000,0.32500,-0.32500*
%
%ADD39ROUNDEDRECTD39*%
%ADD40C,1.30000*%
%ADD41C,1.21700*%
%ADD42C,1.52000*%
G04:AMPARAMS|DCode=43|XSize=1.52mm|YSize=1.52mm|CornerRadius=0.38mm|HoleSize=0mm|Usage=FLASHONLY|Rotation=90.000|XOffset=0mm|YOffset=0mm|HoleType=Round|Shape=RoundedRectangle|*
%AMROUNDEDRECTD43*
21,1,1.52000,0.76000,0,0,90.0*
21,1,0.76000,1.52000,0,0,90.0*
1,1,0.76000,0.38000,0.38000*
1,1,0.76000,0.38000,-0.38000*
1,1,0.76000,-0.38000,-0.38000*
1,1,0.76000,-0.38000,0.38000*
%
%ADD43ROUNDEDRECTD43*%
%ADD44C,1.72500*%
%ADD45R,1.32080X1.32080*%
%ADD46C,1.32080*%
%ADD47R,1.32080X1.32080*%
%ADD48C,1.37160*%
%ADD49R,1.37160X1.37160*%
%TA.AperFunction,ViaPad*%
%ADD50C,0.80000*%
G36*
X3379169Y9946157D02*
X3397368Y9938619D01*
X3413746Y9927675D01*
X3427675Y9913746D01*
X3438619Y9897368D01*
X3446157Y9879169D01*
X3450000Y9859849D01*
Y9850000D01*
Y150000D01*
Y140151D01*
X3446157Y120831D01*
X3438619Y102632D01*
X3427675Y86254D01*
X3413746Y72325D01*
X3397368Y61381D01*
X3379169Y53843D01*
X3359849Y50000D01*
X140151D01*
X120831Y53843D01*
X102632Y61381D01*
X86254Y72325D01*
X72325Y86254D01*
X61381Y102632D01*
X53843Y120831D01*
X50000Y140151D01*
Y150000D01*
Y4271873D01*
X55361Y4274302D01*
X60160Y4274987D01*
X76013Y4259134D01*
X98065Y4250000D01*
X121935D01*
X143987Y4259134D01*
X160866Y4276013D01*
X170000Y4298065D01*
Y4321935D01*
X160866Y4343987D01*
X155882Y4348971D01*
Y6067995D01*
X422791Y6334905D01*
X437362Y6331000D01*
X462639D01*
X487055Y6337543D01*
X508945Y6350181D01*
X526819Y6368055D01*
X533959Y6380421D01*
X544119Y6377698D01*
Y6332005D01*
X477209Y6265096D01*
X462639Y6269000D01*
X437362D01*
X412946Y6262458D01*
X391055Y6249819D01*
X373181Y6231945D01*
X360543Y6210055D01*
X354000Y6185639D01*
Y6160362D01*
X360543Y6135946D01*
X373181Y6114055D01*
X391055Y6096181D01*
X412946Y6083543D01*
X437362Y6077000D01*
X462639D01*
X487055Y6083543D01*
X508945Y6096181D01*
X526819Y6114055D01*
X539458Y6135946D01*
X546000Y6160362D01*
Y6185639D01*
X542096Y6200209D01*
X613958Y6272072D01*
X624118Y6267864D01*
Y6158005D01*
X477209Y6011096D01*
X462639Y6015000D01*
X437362D01*
X412946Y6008458D01*
X391055Y5995819D01*
X373181Y5977945D01*
X360543Y5956055D01*
X354000Y5931639D01*
Y5906362D01*
X360543Y5881946D01*
X373181Y5860055D01*
X391055Y5842181D01*
X412946Y5829543D01*
X437362Y5823000D01*
X462639D01*
X487055Y5829543D01*
X508945Y5842181D01*
X526819Y5860055D01*
X539458Y5881946D01*
X546000Y5906362D01*
Y5931639D01*
X542096Y5946209D01*
X693958Y6098072D01*
X704118Y6093864D01*
Y5984005D01*
X477209Y5757096D01*
X462639Y5761000D01*
X437362D01*
X412946Y5754458D01*
X391055Y5741819D01*
X373181Y5723945D01*
X360543Y5702055D01*
X354000Y5677639D01*
Y5652362D01*
X360543Y5627946D01*
X373181Y5606055D01*
X391055Y5588181D01*
X412946Y5575543D01*
X437362Y5569000D01*
X462639D01*
X487055Y5575543D01*
X508945Y5588181D01*
X526819Y5606055D01*
X539458Y5627946D01*
X546000Y5652362D01*
Y5677639D01*
X542096Y5692209D01*
X773959Y5924072D01*
X784119Y5919864D01*
Y5810005D01*
X477209Y5503096D01*
X462639Y5507000D01*
X437362D01*
X412946Y5500458D01*
X391055Y5487819D01*
X373181Y5469945D01*
X360543Y5448055D01*
X354000Y5423639D01*
Y5398362D01*
X360543Y5373946D01*
X373181Y5352055D01*
X391055Y5334181D01*
X412946Y5321543D01*
X437362Y5315000D01*
X462639D01*
X487055Y5321543D01*
X508945Y5334181D01*
X526819Y5352055D01*
X539458Y5373946D01*
X546000Y5398362D01*
Y5423639D01*
X542096Y5438209D01*
X862443Y5758557D01*
X863958Y5760824D01*
X874118Y5757742D01*
Y5392005D01*
X477209Y4995096D01*
X462639Y4999000D01*
X437362D01*
X412946Y4992458D01*
X391055Y4979819D01*
X373181Y4961945D01*
X360543Y4940055D01*
X354000Y4915639D01*
Y4890362D01*
X360543Y4865946D01*
X373181Y4844055D01*
X391055Y4826181D01*
X412946Y4813543D01*
X437362Y4807000D01*
X462639D01*
X487055Y4813543D01*
X508945Y4826181D01*
X526819Y4844055D01*
X539458Y4865946D01*
X546000Y4890362D01*
Y4915639D01*
X542096Y4930209D01*
X930613Y5318727D01*
X941266Y5315010D01*
X949134Y5296013D01*
X966013Y5279134D01*
X988065Y5270000D01*
X1011935D01*
X1033987Y5279134D01*
X1050866Y5296013D01*
X1060000Y5318065D01*
Y5341935D01*
X1050866Y5363987D01*
X1045882Y5368971D01*
Y5458192D01*
X1056042Y5464980D01*
X1068065Y5460000D01*
X1091935D01*
X1113987Y5469134D01*
X1130866Y5486013D01*
X1140000Y5508065D01*
Y5531935D01*
X1132725Y5549499D01*
X1140501Y5557275D01*
X1158065Y5550000D01*
X1181935D01*
X1203987Y5559134D01*
X1220865Y5576013D01*
X1230000Y5598065D01*
Y5621935D01*
X1220865Y5643987D01*
X1218249Y5646604D01*
X1218937Y5651905D01*
X1220515Y5653518D01*
X1229342Y5657756D01*
X1248065Y5650000D01*
X1271935D01*
X1283371Y5654737D01*
X1291818Y5649092D01*
Y5458971D01*
X1286834Y5453987D01*
X1277700Y5431935D01*
Y5408065D01*
X1286834Y5386013D01*
X1303713Y5369135D01*
X1325765Y5360000D01*
X1349635D01*
X1371687Y5369135D01*
X1375531Y5372979D01*
X1384918Y5369091D01*
Y4267318D01*
X1388410Y4249760D01*
X1398356Y4234875D01*
X1400000Y4233232D01*
Y4218065D01*
X1409134Y4196013D01*
X1426013Y4179134D01*
X1448065Y4170000D01*
X1471935D01*
X1493987Y4179134D01*
X1510865Y4196013D01*
X1520000Y4218065D01*
Y4241935D01*
X1510865Y4263987D01*
X1493987Y4280865D01*
X1476681Y4288034D01*
Y4349714D01*
X1485129Y4355359D01*
X1498065Y4350000D01*
X1521935D01*
X1543987Y4359135D01*
X1560866Y4376013D01*
X1570000Y4398065D01*
Y4421935D01*
X1560866Y4443987D01*
X1555882Y4448971D01*
Y4465991D01*
X1565268Y4469879D01*
X1566013Y4469135D01*
X1588065Y4460000D01*
X1611935D01*
X1633987Y4469135D01*
X1650866Y4486013D01*
X1660000Y4508065D01*
Y4531935D01*
X1650866Y4553987D01*
X1645882Y4558971D01*
Y4645991D01*
X1655268Y4649879D01*
X1656013Y4649134D01*
X1678065Y4640000D01*
X1701935D01*
X1723987Y4649134D01*
X1733958Y4659106D01*
X1744118Y4654897D01*
Y3260000D01*
X1747611Y3242442D01*
X1757557Y3227557D01*
X2378057Y2607057D01*
X2392942Y2597111D01*
X2410500Y2593618D01*
X2870000D01*
Y2587000D01*
X3098839D01*
X3102727Y2577613D01*
X3090995Y2565882D01*
X3002500D01*
X2998068Y2565000D01*
X2870000D01*
Y2558381D01*
X1956505D01*
X1462443Y3052443D01*
X1447558Y3062389D01*
X1430000Y3065882D01*
X1076505D01*
X792500Y3349886D01*
Y3530000D01*
X725881D01*
Y3554000D01*
X755000D01*
Y3746000D01*
X725881D01*
Y3774000D01*
X755000D01*
Y3965999D01*
X605000D01*
Y3932882D01*
X534361D01*
X526819Y3945945D01*
X508945Y3963819D01*
X487055Y3976458D01*
X462639Y3983000D01*
X437362D01*
X412946Y3976458D01*
X391055Y3963819D01*
X373181Y3945945D01*
X360543Y3924055D01*
X354000Y3899639D01*
Y3874362D01*
X360543Y3849946D01*
X373181Y3828055D01*
X391055Y3810181D01*
X412946Y3797543D01*
X437362Y3791000D01*
X462639D01*
X487055Y3797543D01*
X508945Y3810181D01*
X526819Y3828055D01*
X534361Y3841119D01*
X605000D01*
Y3774000D01*
X634118D01*
Y3746000D01*
X605000D01*
Y3554000D01*
X634118D01*
Y3530000D01*
X427500D01*
Y3285000D01*
X564119D01*
Y2895000D01*
X540000D01*
Y2650000D01*
X680000D01*
Y2895000D01*
X655882D01*
Y3285000D01*
X727613D01*
X1025057Y2987557D01*
X1039942Y2977611D01*
X1057500Y2974119D01*
X1410995D01*
X1905057Y2480057D01*
X1919942Y2470111D01*
X1937500Y2466618D01*
X2870000D01*
Y2460000D01*
X3120000D01*
Y2476108D01*
X3127558Y2477611D01*
X3142443Y2487557D01*
X3232443Y2577557D01*
X3242389Y2592442D01*
X3245881Y2610000D01*
Y3150000D01*
Y4464500D01*
Y5842000D01*
Y7231500D01*
Y8612500D01*
X3242389Y8630058D01*
X3232443Y8644943D01*
X3105000Y8772386D01*
Y8812500D01*
X2914500D01*
X2897500Y8815882D01*
X2795999D01*
Y8845000D01*
X2604000D01*
Y8695000D01*
X2795999D01*
Y8724118D01*
X2855000D01*
Y8707500D01*
X3040114D01*
X3052727Y8694887D01*
X3048839Y8685500D01*
X2855000D01*
Y8678882D01*
X2573000D01*
X2555442Y8675389D01*
X2540557Y8665443D01*
X2377557Y8502443D01*
X2367611Y8487558D01*
X2364118Y8470000D01*
Y4818971D01*
X2359134Y4813987D01*
X2350000Y4791935D01*
Y4768065D01*
X2359134Y4746013D01*
X2376013Y4729135D01*
X2398065Y4720000D01*
X2421935D01*
X2443987Y4729135D01*
X2460866Y4746013D01*
X2470000Y4768065D01*
Y4791935D01*
X2460866Y4813987D01*
X2455882Y4818971D01*
Y6115991D01*
X2465268Y6119879D01*
X2466013Y6119135D01*
X2488065Y6110000D01*
X2511935D01*
X2533987Y6119135D01*
X2550866Y6136013D01*
X2560000Y6158065D01*
Y6181935D01*
X2550866Y6203987D01*
X2545882Y6208971D01*
Y8410995D01*
X2595005Y8460118D01*
X2855000D01*
Y8453500D01*
X3105000D01*
Y8558500D01*
X2855000D01*
Y8551882D01*
X2576000D01*
X2569929Y8550674D01*
X2564924Y8560037D01*
X2592005Y8587118D01*
X2855000D01*
Y8580500D01*
X3105000D01*
Y8629339D01*
X3114387Y8633227D01*
X3154118Y8593495D01*
Y7355543D01*
X3144732Y7351655D01*
X3115000Y7381386D01*
Y7421500D01*
X2865000D01*
Y7415381D01*
X2795999D01*
Y7445000D01*
X2604000D01*
Y7295000D01*
X2795999D01*
Y7323618D01*
X2865000D01*
Y7316500D01*
X3050114D01*
X3062727Y7303887D01*
X3058839Y7294500D01*
X3020041D01*
X3001935Y7302000D01*
X2978065D01*
X2959959Y7294500D01*
X2865000D01*
Y7189500D01*
X2959959D01*
X2973241Y7183999D01*
Y7173001D01*
X2959959Y7167500D01*
X2865000D01*
Y7062500D01*
X2959959D01*
X2973241Y7056999D01*
Y7046001D01*
X2959959Y7040500D01*
X2865000D01*
Y6935500D01*
X2959959D01*
X2973241Y6929999D01*
Y6919001D01*
X2959959Y6913500D01*
X2865000D01*
Y6808500D01*
X2959959D01*
X2973241Y6802999D01*
Y6792001D01*
X2959959Y6786500D01*
X2865000D01*
Y6681500D01*
X2959959D01*
X2978065Y6674000D01*
X3001935D01*
X3020041Y6681500D01*
X3115000D01*
Y6786500D01*
X3020041D01*
X3006760Y6792001D01*
Y6802999D01*
X3020041Y6808500D01*
X3115000D01*
Y6913500D01*
X3020041D01*
X3006760Y6919001D01*
Y6929999D01*
X3020041Y6935500D01*
X3115000D01*
Y7040500D01*
X3020041D01*
X3006760Y7046001D01*
Y7056999D01*
X3020041Y7062500D01*
X3115000D01*
Y7167500D01*
X3020041D01*
X3006760Y7173001D01*
Y7183999D01*
X3020041Y7189500D01*
X3115000D01*
Y7238339D01*
X3124387Y7242227D01*
X3154118Y7212495D01*
Y5966043D01*
X3144732Y5962155D01*
X3120000Y5986886D01*
Y6027000D01*
X2870000D01*
Y6018131D01*
X2795999D01*
Y6045000D01*
X2604000D01*
Y5895000D01*
X2659304D01*
X2662386Y5884840D01*
X2655057Y5879943D01*
X2507557Y5732443D01*
X2497611Y5717558D01*
X2494118Y5700000D01*
Y4678971D01*
X2489134Y4673987D01*
X2480000Y4651935D01*
Y4628065D01*
X2489134Y4606013D01*
X2506013Y4589135D01*
X2528065Y4580000D01*
X2551935D01*
X2573987Y4589135D01*
X2590866Y4606013D01*
X2593840Y4613193D01*
X2604000Y4611173D01*
Y4535000D01*
X2665569D01*
X2670000Y4534119D01*
X2674431Y4535000D01*
X2795999D01*
Y4564118D01*
X2848986D01*
X2851500Y4563619D01*
X2865000D01*
Y4549500D01*
X3050114D01*
X3062727Y4536887D01*
X3058839Y4527500D01*
X3020041D01*
X3001935Y4535000D01*
X2978065D01*
X2959959Y4527500D01*
X2865000D01*
Y4422500D01*
X2959959D01*
X2973240Y4416999D01*
Y4406001D01*
X2959959Y4400500D01*
X2865000D01*
Y4295500D01*
X2959959D01*
X2973240Y4289999D01*
Y4279001D01*
X2959959Y4273500D01*
X2865000D01*
Y4168500D01*
X2959959D01*
X2973240Y4162999D01*
Y4152001D01*
X2959959Y4146500D01*
X2865000D01*
Y4041500D01*
X2959959D01*
X2973240Y4035999D01*
Y4025001D01*
X2959959Y4019500D01*
X2865000D01*
Y3914500D01*
X2959959D01*
X2978065Y3907000D01*
X3001935D01*
X3020041Y3914500D01*
X3115000D01*
Y4019500D01*
X3020041D01*
X3006759Y4025001D01*
Y4035999D01*
X3020041Y4041500D01*
X3115000D01*
Y4146500D01*
X3020041D01*
X3006759Y4152001D01*
Y4162999D01*
X3020041Y4168500D01*
X3115000D01*
Y4273500D01*
X3020041D01*
X3006759Y4279001D01*
Y4289999D01*
X3020041Y4295500D01*
X3115000D01*
Y4400500D01*
X3020041D01*
X3006759Y4406001D01*
Y4416999D01*
X3020041Y4422500D01*
X3115000D01*
Y4471339D01*
X3124387Y4475227D01*
X3154118Y4445495D01*
Y3274043D01*
X3144732Y3270155D01*
X3120000Y3294887D01*
Y3327000D01*
X2870000D01*
Y3318132D01*
X2816000D01*
Y3345000D01*
X2624000D01*
Y3214161D01*
X2614614Y3210273D01*
X2335882Y3489005D01*
Y6615000D01*
X2332389Y6632558D01*
X2322443Y6647444D01*
X2073096Y6896791D01*
X2077000Y6911362D01*
Y6936639D01*
X2070458Y6961055D01*
X2057819Y6982946D01*
X2039945Y7000819D01*
X2018055Y7013458D01*
X1993639Y7020000D01*
X1968362D01*
X1943946Y7013458D01*
X1922055Y7000819D01*
X1904181Y6982946D01*
X1891543Y6961055D01*
X1885000Y6936639D01*
Y6911362D01*
X1891543Y6886946D01*
X1904181Y6865055D01*
X1922055Y6847181D01*
X1943946Y6834543D01*
X1968362Y6828001D01*
X1993639D01*
X2008209Y6831905D01*
X2244118Y6595996D01*
Y3470000D01*
X2247611Y3452442D01*
X2257557Y3437557D01*
X2707057Y2988057D01*
X2721942Y2978111D01*
X2739500Y2974618D01*
X2870000D01*
Y2968000D01*
X3120000D01*
Y3073000D01*
X2870000D01*
Y3066381D01*
X2758505D01*
X2639273Y3185613D01*
X2643161Y3195000D01*
X2816000D01*
Y3226368D01*
X2870000D01*
Y3222000D01*
X2998068D01*
X3002500Y3221118D01*
X3063996D01*
X3154118Y3130996D01*
Y2629005D01*
X3129387Y2604273D01*
X3120000Y2608161D01*
Y2692000D01*
X2870000D01*
Y2685381D01*
X2429505D01*
X1835882Y3279005D01*
Y3315957D01*
X1845268Y3319845D01*
X2431057Y2734057D01*
X2445942Y2724111D01*
X2463500Y2720618D01*
X2870000D01*
Y2714000D01*
X3120000D01*
Y2819000D01*
X2870000D01*
Y2812381D01*
X2482505D01*
X1905882Y3389005D01*
Y3802080D01*
X1915268Y3805968D01*
X1922055Y3799181D01*
X1943946Y3786543D01*
X1968362Y3780001D01*
X1993639D01*
X2018055Y3786543D01*
X2039945Y3799181D01*
X2057819Y3817055D01*
X2070458Y3838946D01*
X2077000Y3863362D01*
Y3888639D01*
X2070458Y3913055D01*
X2057819Y3934946D01*
X2039945Y3952819D01*
X2018055Y3965458D01*
X1993639Y3972000D01*
X1968362D01*
X1943946Y3965458D01*
X1922055Y3952819D01*
X1915268Y3946033D01*
X1905882Y3949921D01*
Y3989996D01*
X1953791Y4037905D01*
X1968362Y4034001D01*
X1993639D01*
X2018055Y4040543D01*
X2039945Y4053181D01*
X2057819Y4071055D01*
X2070458Y4092946D01*
X2077000Y4117362D01*
Y4142639D01*
X2070458Y4167055D01*
X2057819Y4188946D01*
X2039945Y4206819D01*
X2018055Y4219458D01*
X1993639Y4226000D01*
X1968362D01*
X1943946Y4219458D01*
X1922055Y4206819D01*
X1904181Y4188946D01*
X1891543Y4167055D01*
X1885000Y4142639D01*
Y4117362D01*
X1888905Y4102791D01*
X1845268Y4059155D01*
X1835882Y4063043D01*
Y4935995D01*
X1953791Y5053905D01*
X1968362Y5050001D01*
X1993639D01*
X2018055Y5056543D01*
X2039945Y5069181D01*
X2057819Y5087055D01*
X2070458Y5108946D01*
X2077000Y5133362D01*
Y5158639D01*
X2070458Y5183055D01*
X2057819Y5204946D01*
X2039945Y5222819D01*
X2018055Y5235458D01*
X1993639Y5242000D01*
X1968362D01*
X1943946Y5235458D01*
X1922055Y5222819D01*
X1904181Y5204946D01*
X1891543Y5183055D01*
X1885000Y5158639D01*
Y5133362D01*
X1888905Y5118791D01*
X1757557Y4987443D01*
X1747611Y4972559D01*
X1746041Y4964668D01*
X1735881Y4965669D01*
Y6867995D01*
X1953791Y7085905D01*
X1968362Y7082001D01*
X1993639D01*
X2018055Y7088543D01*
X2039945Y7101181D01*
X2057819Y7119055D01*
X2070458Y7140946D01*
X2077000Y7165362D01*
Y7190639D01*
X2070458Y7215055D01*
X2057819Y7236946D01*
X2039945Y7254819D01*
X2018055Y7267458D01*
X1993639Y7274000D01*
X1968362D01*
X1943946Y7267458D01*
X1922055Y7254819D01*
X1904181Y7236946D01*
X1891543Y7215055D01*
X1885000Y7190639D01*
Y7165362D01*
X1888905Y7150791D01*
X1657557Y6919443D01*
X1656042Y6917176D01*
X1645882Y6920258D01*
Y7031996D01*
X1953791Y7339905D01*
X1968362Y7336001D01*
X1993639D01*
X2018055Y7342543D01*
X2039945Y7355181D01*
X2057819Y7373055D01*
X2070458Y7394946D01*
X2077000Y7419362D01*
Y7444639D01*
X2070458Y7469055D01*
X2057819Y7490946D01*
X2039945Y7508819D01*
X2018055Y7521458D01*
X1993639Y7528000D01*
X1968362D01*
X1943946Y7521458D01*
X1922055Y7508819D01*
X1904181Y7490946D01*
X1891543Y7469055D01*
X1885000Y7444639D01*
Y7419362D01*
X1888905Y7404791D01*
X1567557Y7083444D01*
X1566042Y7081176D01*
X1555882Y7084258D01*
Y7195996D01*
X1953791Y7593905D01*
X1968362Y7590001D01*
X1993639D01*
X2018055Y7596543D01*
X2039945Y7609181D01*
X2057819Y7627055D01*
X2070458Y7648946D01*
X2077000Y7673362D01*
Y7698639D01*
X2070458Y7723055D01*
X2057819Y7744946D01*
X2039945Y7762819D01*
X2018055Y7775458D01*
X1993639Y7782000D01*
X1968362D01*
X1943946Y7775458D01*
X1922055Y7762819D01*
X1904181Y7744946D01*
X1891543Y7723055D01*
X1885000Y7698639D01*
Y7673362D01*
X1888905Y7658791D01*
X1486841Y7256728D01*
X1476681Y7260936D01*
Y7370795D01*
X1953791Y7847905D01*
X1968362Y7844001D01*
X1993639D01*
X2018055Y7850543D01*
X2039945Y7863181D01*
X2057819Y7881055D01*
X2070458Y7902946D01*
X2077000Y7927362D01*
Y7952639D01*
X2070458Y7977055D01*
X2057819Y7998946D01*
X2039945Y8016819D01*
X2018055Y8029458D01*
X1993639Y8036000D01*
X1968362D01*
X1943946Y8029458D01*
X1922055Y8016819D01*
X1904181Y7998946D01*
X1891543Y7977055D01*
X1885000Y7952639D01*
Y7927362D01*
X1888905Y7912791D01*
X1398356Y7422243D01*
X1393742Y7415337D01*
X1383581Y7418419D01*
X1383582Y9644000D01*
X1404118D01*
Y9560000D01*
X1407611Y9542442D01*
X1417557Y9527557D01*
X1547557Y9397557D01*
X1562442Y9387611D01*
X1580000Y9384118D01*
X1838996D01*
X1871688Y9351426D01*
X1867800Y9342039D01*
X1847000D01*
X1836270Y9339904D01*
X1827174Y9333826D01*
X1821096Y9324730D01*
X1818961Y9314000D01*
Y9132000D01*
X1821096Y9121270D01*
X1827174Y9112174D01*
X1836270Y9106096D01*
X1847000Y9103961D01*
X1892000D01*
X1902730Y9106096D01*
X1911826Y9112174D01*
X1917904Y9121270D01*
X1920039Y9132000D01*
Y9289801D01*
X1929425Y9293689D01*
X1945961Y9277153D01*
Y9257314D01*
X1945634Y9256987D01*
X1936500Y9234935D01*
Y9211065D01*
X1945634Y9189013D01*
X1945961Y9188686D01*
Y9132000D01*
X1948096Y9121270D01*
X1954174Y9112174D01*
X1963270Y9106096D01*
X1974000Y9103961D01*
X1994800D01*
X1998688Y9094575D01*
X1969995Y9065882D01*
X1808005D01*
X1715000Y9158887D01*
Y9286000D01*
X1565000D01*
Y9094000D01*
X1650114D01*
X1756557Y8987557D01*
X1771442Y8977611D01*
X1789000Y8974118D01*
X1989000D01*
X2006558Y8977611D01*
X2021443Y8987557D01*
X2137848Y9103961D01*
X2146000D01*
X2156730Y9106096D01*
X2165826Y9112174D01*
X2171904Y9121270D01*
X2174039Y9132000D01*
Y9188686D01*
X2174365Y9189013D01*
X2183500Y9211065D01*
Y9234935D01*
X2174365Y9256987D01*
X2174039Y9257314D01*
Y9314000D01*
X2171904Y9324730D01*
X2165826Y9333826D01*
X2156730Y9339904D01*
X2146000Y9342039D01*
X2101000D01*
X2090270Y9339904D01*
X2081174Y9333826D01*
X2075096Y9324730D01*
X2072961Y9314000D01*
Y9257314D01*
X2072634Y9256987D01*
X2065499Y9239760D01*
X2054501D01*
X2047365Y9256987D01*
X2047039Y9257314D01*
Y9314000D01*
X2044904Y9324730D01*
X2038826Y9333826D01*
X2029730Y9339904D01*
X2019000Y9342039D01*
X2010848D01*
X1890444Y9462443D01*
X1875559Y9472389D01*
X1858000Y9475881D01*
X1599005D01*
X1495881Y9579005D01*
Y9644000D01*
X1525000D01*
Y9836000D01*
X1414161D01*
X1410273Y9845386D01*
X1449005Y9884118D01*
X1694957D01*
X1698845Y9874732D01*
X1660114Y9836000D01*
X1575000D01*
Y9644000D01*
X1725000D01*
Y9771113D01*
X1838005Y9884118D01*
X1959996D01*
X1998688Y9845426D01*
X1994800Y9836039D01*
X1974000D01*
X1963270Y9833904D01*
X1954174Y9827826D01*
X1948096Y9818730D01*
X1945961Y9808000D01*
Y9626000D01*
X1948096Y9615270D01*
X1954174Y9606174D01*
X1963270Y9600096D01*
X1966831Y9599387D01*
X1969057Y9596057D01*
X2077557Y9487557D01*
X2092442Y9477611D01*
X2110000Y9474118D01*
X2378995D01*
X2533613Y9319500D01*
X2013250Y8799137D01*
X1943000D01*
X1920370Y8794635D01*
X1901184Y8781816D01*
X1888365Y8762631D01*
X1883864Y8740000D01*
Y8664000D01*
X1888365Y8641370D01*
X1901184Y8622185D01*
X1920370Y8609366D01*
X1943000Y8604864D01*
X2019000D01*
X2041630Y8609366D01*
X2060816Y8622185D01*
X2073635Y8641370D01*
X2078136Y8664000D01*
Y8734250D01*
X2617505Y9273618D01*
X2765000D01*
Y9269500D01*
X2906927D01*
X2907557Y9268557D01*
X3055000Y9121114D01*
Y8994001D01*
X3205000D01*
Y9186000D01*
X3119887D01*
X2985000Y9320887D01*
Y9369500D01*
X2765000D01*
Y9365382D01*
X2617504D01*
X2430443Y9552443D01*
X2415558Y9562389D01*
X2398000Y9565882D01*
X2129005D01*
X2107085Y9587801D01*
X2111293Y9597961D01*
X2146000D01*
X2156730Y9600096D01*
X2165826Y9606174D01*
X2171904Y9615270D01*
X2174039Y9626000D01*
Y9808000D01*
X2171904Y9818730D01*
X2165826Y9827826D01*
X2156730Y9833904D01*
X2146000Y9836039D01*
X2137848D01*
X2033274Y9940613D01*
X2037162Y9950000D01*
X3359849D01*
X3379169Y9946157D01*
D02*
G37*
G36*
X1375727Y9940613D02*
X1305257Y9870143D01*
X1295311Y9855258D01*
X1291819Y9837700D01*
Y7949343D01*
X1282432Y7945455D01*
X547136Y8680750D01*
Y8751000D01*
X542635Y8773630D01*
X529816Y8792816D01*
X510630Y8805635D01*
X488000Y8810136D01*
X412000D01*
X389370Y8805635D01*
X370184Y8792816D01*
X357365Y8773630D01*
X352864Y8751000D01*
Y8675000D01*
X357365Y8652370D01*
X370184Y8633184D01*
X389370Y8620365D01*
X412000Y8615864D01*
X482250D01*
X1214118Y7883995D01*
Y7772258D01*
X1203958Y7769176D01*
X1202443Y7771443D01*
X542096Y8431791D01*
X546000Y8446362D01*
Y8471639D01*
X539458Y8496055D01*
X526819Y8517945D01*
X508945Y8535819D01*
X487055Y8548458D01*
X462639Y8555000D01*
X437362D01*
X412946Y8548458D01*
X391055Y8535819D01*
X373181Y8517945D01*
X360543Y8496055D01*
X354000Y8471639D01*
Y8446362D01*
X360543Y8421946D01*
X373181Y8400055D01*
X391055Y8382181D01*
X412946Y8369543D01*
X437362Y8363000D01*
X462639D01*
X477209Y8366905D01*
X1124118Y7719995D01*
Y7608258D01*
X1113958Y7605176D01*
X1112443Y7607443D01*
X542096Y8177791D01*
X546000Y8192362D01*
Y8217639D01*
X539458Y8242055D01*
X526819Y8263945D01*
X508945Y8281819D01*
X487055Y8294458D01*
X462639Y8301000D01*
X437362D01*
X412946Y8294458D01*
X391055Y8281819D01*
X373181Y8263945D01*
X360543Y8242055D01*
X354000Y8217639D01*
Y8192362D01*
X360543Y8167946D01*
X373181Y8146055D01*
X391055Y8128181D01*
X412946Y8115543D01*
X437362Y8109000D01*
X462639D01*
X477209Y8112905D01*
X1034119Y7555995D01*
Y7446136D01*
X1023959Y7441928D01*
X542096Y7923791D01*
X546000Y7938362D01*
Y7963639D01*
X539458Y7988055D01*
X526819Y8009945D01*
X508945Y8027819D01*
X487055Y8040458D01*
X462639Y8047000D01*
X437362D01*
X412946Y8040458D01*
X391055Y8027819D01*
X373181Y8009945D01*
X360543Y7988055D01*
X354000Y7963639D01*
Y7938362D01*
X360543Y7913946D01*
X373181Y7892055D01*
X391055Y7874181D01*
X412946Y7861543D01*
X437362Y7855000D01*
X462639D01*
X477209Y7858905D01*
X954118Y7381995D01*
Y7285103D01*
X943958Y7280894D01*
X933987Y7290866D01*
X911935Y7300000D01*
X888065D01*
X866013Y7290866D01*
X849134Y7273987D01*
X840000Y7251935D01*
Y7228065D01*
X849134Y7206013D01*
X866013Y7189134D01*
X874118Y7185777D01*
Y6804009D01*
X864732Y6800121D01*
X863987Y6800865D01*
X841935Y6810000D01*
X818065D01*
X812572Y6807724D01*
X804795Y6815500D01*
X810000Y6828065D01*
Y6851935D01*
X800866Y6873987D01*
X783987Y6890866D01*
X761935Y6900000D01*
X738065D01*
X726042Y6895019D01*
X715881Y6901808D01*
Y6931029D01*
X720865Y6936013D01*
X730000Y6958065D01*
Y6981935D01*
X720865Y7003987D01*
X703987Y7020866D01*
X681935Y7030000D01*
X658065D01*
X646042Y7025020D01*
X635882Y7031808D01*
Y7091029D01*
X640866Y7096013D01*
X650000Y7118065D01*
Y7141935D01*
X640866Y7163987D01*
X623987Y7180865D01*
X601935Y7190000D01*
X578065D01*
X556013Y7180865D01*
X546000Y7185221D01*
Y7201639D01*
X539458Y7226055D01*
X526819Y7247945D01*
X508945Y7265819D01*
X487055Y7278458D01*
X462639Y7285000D01*
X437362D01*
X422791Y7281096D01*
X145882Y7558005D01*
Y7669743D01*
X156042Y7672825D01*
X157557Y7670557D01*
X357905Y7470209D01*
X354000Y7455639D01*
Y7430362D01*
X360543Y7405946D01*
X373181Y7384055D01*
X391055Y7366181D01*
X412946Y7353543D01*
X437362Y7347000D01*
X462639D01*
X487055Y7353543D01*
X508945Y7366181D01*
X526819Y7384055D01*
X539458Y7405946D01*
X546000Y7430362D01*
Y7455639D01*
X539458Y7480055D01*
X526819Y7501945D01*
X508945Y7519819D01*
X487055Y7532458D01*
X462639Y7539000D01*
X437362D01*
X422791Y7535096D01*
X235881Y7722005D01*
Y7831864D01*
X246041Y7836072D01*
X357905Y7724209D01*
X354000Y7709639D01*
Y7684362D01*
X360543Y7659946D01*
X373181Y7638055D01*
X391055Y7620181D01*
X412946Y7607543D01*
X437362Y7601000D01*
X462639D01*
X487055Y7607543D01*
X508945Y7620181D01*
X526819Y7638055D01*
X539458Y7659946D01*
X546000Y7684362D01*
Y7709639D01*
X539458Y7734055D01*
X526819Y7755945D01*
X508945Y7773819D01*
X487055Y7786458D01*
X462639Y7793000D01*
X437362D01*
X422791Y7789096D01*
X315882Y7896005D01*
Y8441029D01*
X320865Y8446013D01*
X330000Y8468065D01*
Y8491935D01*
X320865Y8513987D01*
X303987Y8530866D01*
X281935Y8540000D01*
X258065D01*
X236013Y8530866D01*
X219134Y8513987D01*
X210000Y8491935D01*
Y8468065D01*
X219134Y8446013D01*
X224118Y8441029D01*
Y8261808D01*
X213958Y8255020D01*
X201935Y8260000D01*
X178065D01*
X156013Y8250866D01*
X139134Y8233987D01*
X130000Y8211935D01*
Y8188065D01*
X139134Y8166013D01*
X144118Y8161029D01*
Y8034009D01*
X134732Y8030121D01*
X133987Y8030866D01*
X111935Y8040000D01*
X88065D01*
X66013Y8030866D01*
X59387Y8024239D01*
X50000Y8028127D01*
Y9800000D01*
Y9814774D01*
X55764Y9843753D01*
X67071Y9871051D01*
X83487Y9895619D01*
X104380Y9916512D01*
X128948Y9932928D01*
X156246Y9944235D01*
X185226Y9950000D01*
X1371839D01*
X1375727Y9940613D01*
D02*
G37*
G36*
X8961137Y8921318D02*
Y7083490D01*
X8955485Y7079296D01*
X8945686Y7083761D01*
Y8921151D01*
X8955632Y8925610D01*
X8961137Y8921318D01*
D02*
G37*
G36*
X67557Y7506557D02*
X357905Y7216209D01*
X354000Y7201639D01*
Y7176362D01*
X360543Y7151946D01*
X373181Y7130055D01*
X391055Y7112181D01*
X412946Y7099543D01*
X437362Y7093000D01*
X462639D01*
X487055Y7099543D01*
X508945Y7112181D01*
X519840Y7123076D01*
X530000Y7118867D01*
Y7118065D01*
X539135Y7096013D01*
X544119Y7091029D01*
Y6984302D01*
X533959Y6981580D01*
X526819Y6993945D01*
X508945Y7011819D01*
X487055Y7024458D01*
X462639Y7031000D01*
X437362D01*
X412946Y7024458D01*
X391055Y7011819D01*
X373181Y6993945D01*
X360543Y6972055D01*
X354000Y6947639D01*
Y6922362D01*
X360543Y6897946D01*
X373181Y6876055D01*
X391055Y6858181D01*
X412946Y6845543D01*
X437362Y6839000D01*
X462639D01*
X487055Y6845543D01*
X508945Y6858181D01*
X526819Y6876055D01*
X533959Y6888421D01*
X544119Y6885698D01*
Y6730302D01*
X533959Y6727580D01*
X526819Y6739945D01*
X508945Y6757819D01*
X487055Y6770458D01*
X462639Y6777000D01*
X437362D01*
X412946Y6770458D01*
X391055Y6757819D01*
X373181Y6739945D01*
X360543Y6718055D01*
X354000Y6693639D01*
Y6668362D01*
X360543Y6643946D01*
X373181Y6622055D01*
X391055Y6604181D01*
X412946Y6591543D01*
X437362Y6585000D01*
X462639D01*
X487055Y6591543D01*
X508945Y6604181D01*
X526819Y6622055D01*
X533959Y6634421D01*
X544119Y6631698D01*
Y6476302D01*
X533959Y6473580D01*
X526819Y6485945D01*
X508945Y6503819D01*
X487055Y6516458D01*
X462639Y6523000D01*
X437362D01*
X412946Y6516458D01*
X391055Y6503819D01*
X373181Y6485945D01*
X360543Y6464055D01*
X354000Y6439639D01*
Y6414362D01*
X357905Y6399791D01*
X77557Y6119443D01*
X67611Y6104558D01*
X64118Y6087000D01*
Y4353578D01*
X60160Y4350016D01*
X50000Y4354542D01*
Y7514545D01*
X60160Y7517627D01*
X67557Y7506557D01*
D02*
G37*
G36*
X9800836Y9894620D02*
X9826315Y9884066D01*
X9849245Y9868745D01*
X9868745Y9849245D01*
X9884066Y9826315D01*
X9894620Y9800836D01*
X9900000Y9773789D01*
Y9760000D01*
Y6941965D01*
X9889840Y6940627D01*
X9889457Y6942054D01*
X9876819Y6963945D01*
X9858945Y6981819D01*
X9837054Y6994457D01*
X9812638Y7001000D01*
X9787361D01*
X9762945Y6994457D01*
X9741055Y6981819D01*
X9723181Y6963945D01*
X9710542Y6942054D01*
X9704000Y6917638D01*
Y6892361D01*
X9710542Y6867945D01*
X9723181Y6846055D01*
X9741055Y6828181D01*
X9762945Y6815542D01*
X9787361Y6809000D01*
X9812638D01*
X9837054Y6815542D01*
X9858945Y6828181D01*
X9876819Y6846055D01*
X9889457Y6867945D01*
X9889840Y6869373D01*
X9900000Y6868035D01*
Y6687965D01*
X9889840Y6686627D01*
X9889457Y6688054D01*
X9876819Y6709945D01*
X9858945Y6727819D01*
X9837054Y6740457D01*
X9812638Y6747000D01*
X9787361D01*
X9762945Y6740457D01*
X9741055Y6727819D01*
X9723181Y6709945D01*
X9710542Y6688054D01*
X9704000Y6663638D01*
Y6638361D01*
X9710542Y6613945D01*
X9723181Y6592055D01*
X9741055Y6574181D01*
X9762945Y6561542D01*
X9787361Y6555000D01*
X9812638D01*
X9837054Y6561542D01*
X9858945Y6574181D01*
X9876819Y6592055D01*
X9889457Y6613945D01*
X9889840Y6615373D01*
X9900000Y6614035D01*
Y6433965D01*
X9889840Y6432627D01*
X9889457Y6434054D01*
X9876819Y6455945D01*
X9858945Y6473819D01*
X9837054Y6486457D01*
X9812638Y6493000D01*
X9787361D01*
X9762945Y6486457D01*
X9741055Y6473819D01*
X9723181Y6455945D01*
X9710542Y6434054D01*
X9704000Y6409638D01*
Y6384361D01*
X9710542Y6359945D01*
X9723181Y6338055D01*
X9741055Y6320181D01*
X9762945Y6307542D01*
X9787361Y6301000D01*
X9812638D01*
X9837054Y6307542D01*
X9858945Y6320181D01*
X9876819Y6338055D01*
X9889457Y6359945D01*
X9889840Y6361373D01*
X9900000Y6360035D01*
Y6179965D01*
X9889840Y6178627D01*
X9889457Y6180054D01*
X9876819Y6201945D01*
X9858945Y6219819D01*
X9837054Y6232457D01*
X9812638Y6239000D01*
X9787361D01*
X9762945Y6232457D01*
X9741055Y6219819D01*
X9723181Y6201945D01*
X9710542Y6180054D01*
X9704000Y6155638D01*
Y6130361D01*
X9710542Y6105945D01*
X9723181Y6084055D01*
X9741055Y6066181D01*
X9762945Y6053542D01*
X9787361Y6047000D01*
X9812638D01*
X9837054Y6053542D01*
X9858945Y6066181D01*
X9876819Y6084055D01*
X9889457Y6105945D01*
X9889840Y6107373D01*
X9900000Y6106035D01*
Y5925965D01*
X9889840Y5924627D01*
X9889457Y5926054D01*
X9876819Y5947945D01*
X9858945Y5965819D01*
X9837054Y5978457D01*
X9812638Y5985000D01*
X9787361D01*
X9762945Y5978457D01*
X9741055Y5965819D01*
X9723181Y5947945D01*
X9710542Y5926054D01*
X9704000Y5901638D01*
Y5876361D01*
X9710542Y5851945D01*
X9723181Y5830055D01*
X9741055Y5812181D01*
X9762945Y5799542D01*
X9787361Y5793000D01*
X9812638D01*
X9837054Y5799542D01*
X9858945Y5812181D01*
X9876819Y5830055D01*
X9889457Y5851945D01*
X9889840Y5853373D01*
X9900000Y5852035D01*
Y5671965D01*
X9889840Y5670627D01*
X9889457Y5672054D01*
X9876819Y5693945D01*
X9858945Y5711819D01*
X9837054Y5724457D01*
X9812638Y5731000D01*
X9787361D01*
X9762945Y5724457D01*
X9741055Y5711819D01*
X9723181Y5693945D01*
X9710542Y5672054D01*
X9704000Y5647638D01*
Y5622361D01*
X9710542Y5597945D01*
X9723181Y5576055D01*
X9741055Y5558181D01*
X9762945Y5545542D01*
X9787361Y5539000D01*
X9812638D01*
X9837054Y5545542D01*
X9858945Y5558181D01*
X9876819Y5576055D01*
X9889457Y5597945D01*
X9889840Y5599373D01*
X9900000Y5598035D01*
Y5417965D01*
X9889840Y5416627D01*
X9889457Y5418054D01*
X9876819Y5439945D01*
X9858945Y5457819D01*
X9837054Y5470457D01*
X9812638Y5477000D01*
X9787361D01*
X9762945Y5470457D01*
X9741055Y5457819D01*
X9723181Y5439945D01*
X9710542Y5418054D01*
X9704000Y5393638D01*
Y5368361D01*
X9710542Y5343945D01*
X9723181Y5322055D01*
X9741055Y5304181D01*
X9762945Y5291542D01*
X9787361Y5285000D01*
X9812638D01*
X9837054Y5291542D01*
X9858945Y5304181D01*
X9876819Y5322055D01*
X9889457Y5343945D01*
X9889840Y5345373D01*
X9900000Y5344035D01*
Y5163965D01*
X9889840Y5162627D01*
X9889457Y5164054D01*
X9876819Y5185945D01*
X9858945Y5203819D01*
X9837054Y5216457D01*
X9812638Y5223000D01*
X9787361D01*
X9762945Y5216457D01*
X9741055Y5203819D01*
X9723181Y5185945D01*
X9710542Y5164054D01*
X9704000Y5139638D01*
Y5114361D01*
X9710542Y5089945D01*
X9723181Y5068055D01*
X9741055Y5050181D01*
X9762945Y5037542D01*
X9787361Y5031000D01*
X9812638D01*
X9837054Y5037542D01*
X9858945Y5050181D01*
X9876819Y5068055D01*
X9889457Y5089945D01*
X9889840Y5091373D01*
X9900000Y5090035D01*
Y4909965D01*
X9889840Y4908627D01*
X9889457Y4910054D01*
X9876819Y4931945D01*
X9858945Y4949819D01*
X9837054Y4962457D01*
X9812638Y4969000D01*
X9787361D01*
X9762945Y4962457D01*
X9741055Y4949819D01*
X9723181Y4931945D01*
X9710542Y4910054D01*
X9704000Y4885638D01*
Y4860361D01*
X9710542Y4835945D01*
X9723181Y4814055D01*
X9741055Y4796181D01*
X9762945Y4783542D01*
X9787361Y4777000D01*
X9812638D01*
X9837054Y4783542D01*
X9858945Y4796181D01*
X9876819Y4814055D01*
X9889457Y4835945D01*
X9889840Y4837373D01*
X9900000Y4836035D01*
Y4655965D01*
X9889840Y4654627D01*
X9889457Y4656054D01*
X9876819Y4677945D01*
X9858945Y4695819D01*
X9837054Y4708457D01*
X9812638Y4715000D01*
X9787361D01*
X9762945Y4708457D01*
X9741055Y4695819D01*
X9723181Y4677945D01*
X9710542Y4656054D01*
X9704000Y4631638D01*
Y4606361D01*
X9710542Y4581945D01*
X9723181Y4560055D01*
X9741055Y4542181D01*
X9762945Y4529542D01*
X9787361Y4523000D01*
X9812638D01*
X9837054Y4529542D01*
X9858945Y4542181D01*
X9876819Y4560055D01*
X9889457Y4581945D01*
X9889840Y4583373D01*
X9900000Y4582035D01*
Y4401965D01*
X9889840Y4400627D01*
X9889457Y4402054D01*
X9876819Y4423945D01*
X9858945Y4441819D01*
X9837054Y4454457D01*
X9812638Y4461000D01*
X9787361D01*
X9762945Y4454457D01*
X9741055Y4441819D01*
X9723181Y4423945D01*
X9710542Y4402054D01*
X9704000Y4377638D01*
Y4352361D01*
X9710542Y4327945D01*
X9723181Y4306055D01*
X9741055Y4288181D01*
X9762945Y4275542D01*
X9787361Y4269000D01*
X9812638D01*
X9837054Y4275542D01*
X9858945Y4288181D01*
X9876819Y4306055D01*
X9889457Y4327945D01*
X9889840Y4329373D01*
X9900000Y4328035D01*
Y4147965D01*
X9889840Y4146627D01*
X9889457Y4148054D01*
X9876819Y4169945D01*
X9858945Y4187819D01*
X9837054Y4200457D01*
X9812638Y4207000D01*
X9787361D01*
X9762945Y4200457D01*
X9741055Y4187819D01*
X9723181Y4169945D01*
X9710542Y4148054D01*
X9704000Y4123638D01*
Y4098361D01*
X9710542Y4073945D01*
X9723181Y4052055D01*
X9741055Y4034181D01*
X9762945Y4021542D01*
X9787361Y4015000D01*
X9812638D01*
X9837054Y4021542D01*
X9858945Y4034181D01*
X9876819Y4052055D01*
X9889457Y4073945D01*
X9889840Y4075373D01*
X9900000Y4074035D01*
Y3893965D01*
X9889840Y3892627D01*
X9889457Y3894054D01*
X9876819Y3915945D01*
X9858945Y3933819D01*
X9837054Y3946457D01*
X9812638Y3953000D01*
X9787361D01*
X9762945Y3946457D01*
X9741055Y3933819D01*
X9723181Y3915945D01*
X9710542Y3894054D01*
X9704000Y3869638D01*
Y3844361D01*
X9710542Y3819945D01*
X9723181Y3798055D01*
X9741055Y3780181D01*
X9762945Y3767542D01*
X9787361Y3761000D01*
X9812638D01*
X9837054Y3767542D01*
X9858945Y3780181D01*
X9876819Y3798055D01*
X9889457Y3819945D01*
X9889840Y3821373D01*
X9900000Y3820035D01*
Y3639965D01*
X9889840Y3638627D01*
X9889457Y3640054D01*
X9876819Y3661945D01*
X9858945Y3679819D01*
X9837054Y3692457D01*
X9812638Y3699000D01*
X9787361D01*
X9762945Y3692457D01*
X9741055Y3679819D01*
X9723181Y3661945D01*
X9710542Y3640054D01*
X9704000Y3615638D01*
Y3590361D01*
X9710542Y3565945D01*
X9723181Y3544055D01*
X9741055Y3526181D01*
X9762945Y3513542D01*
X9787361Y3507000D01*
X9812638D01*
X9837054Y3513542D01*
X9858945Y3526181D01*
X9876819Y3544055D01*
X9889457Y3565945D01*
X9889840Y3567373D01*
X9900000Y3566035D01*
Y3385965D01*
X9889840Y3384627D01*
X9889457Y3386054D01*
X9876819Y3407945D01*
X9858945Y3425819D01*
X9837054Y3438457D01*
X9812638Y3445000D01*
X9787361D01*
X9762945Y3438457D01*
X9741055Y3425819D01*
X9723181Y3407945D01*
X9710542Y3386054D01*
X9704000Y3361638D01*
Y3336361D01*
X9710542Y3311945D01*
X9723181Y3290055D01*
X9741055Y3272181D01*
X9762945Y3259542D01*
X9787361Y3253000D01*
X9812638D01*
X9837054Y3259542D01*
X9858945Y3272181D01*
X9876819Y3290055D01*
X9889457Y3311945D01*
X9889840Y3313373D01*
X9900000Y3312035D01*
Y3162895D01*
X9889840Y3159813D01*
X9879816Y3174816D01*
X9860630Y3187635D01*
X9838000Y3192136D01*
X9762000D01*
X9739370Y3187635D01*
X9720184Y3174816D01*
X9707365Y3155630D01*
X9702864Y3133000D01*
Y3106796D01*
X9455686D01*
Y4293132D01*
X9468566Y4306012D01*
X9477700Y4328064D01*
Y4351934D01*
X9468566Y4373986D01*
X9455686Y4386867D01*
Y6213132D01*
X9468566Y6226012D01*
X9477700Y6248064D01*
Y6271934D01*
X9468566Y6293986D01*
X9454536Y6308016D01*
Y8149683D01*
X9470865Y8166013D01*
X9480000Y8188065D01*
Y8211935D01*
X9470865Y8233987D01*
X9453987Y8250866D01*
X9431935Y8260000D01*
X9408065D01*
X9390846Y8252868D01*
X9380686Y8258814D01*
Y8275833D01*
X9390866Y8286013D01*
X9400000Y8308065D01*
Y8331935D01*
X9390866Y8353987D01*
X9373987Y8370866D01*
X9351935Y8380000D01*
X9328065D01*
X9315846Y8374939D01*
X9305686Y8381727D01*
Y8400833D01*
X9320866Y8416013D01*
X9330000Y8438065D01*
Y8461935D01*
X9320866Y8483987D01*
X9303987Y8500866D01*
X9281935Y8510000D01*
X9258065D01*
X9245846Y8504939D01*
X9235686Y8511727D01*
Y8540833D01*
X9250865Y8556013D01*
X9260000Y8578065D01*
Y8601935D01*
X9250865Y8623987D01*
X9233987Y8640866D01*
X9211935Y8650000D01*
X9188065D01*
X9183003Y8647903D01*
X9173489Y8654959D01*
X9173896Y8659097D01*
X9173987Y8659135D01*
X9190866Y8676013D01*
X9200000Y8698065D01*
Y8721935D01*
X9190866Y8743987D01*
X9173987Y8760866D01*
X9151935Y8770000D01*
X9128065D01*
X9110846Y8762867D01*
X9100686Y8768813D01*
Y8787767D01*
X9103987Y8789135D01*
X9120865Y8806013D01*
X9130000Y8828065D01*
Y8851935D01*
X9120865Y8873987D01*
X9103987Y8890866D01*
X9081935Y8900000D01*
X9058065D01*
X9042668Y8893623D01*
X9032508Y8900411D01*
Y8918522D01*
X9033987Y8919135D01*
X9050866Y8936013D01*
X9060000Y8958065D01*
Y8981935D01*
X9050866Y9003987D01*
X9033987Y9020866D01*
X9011935Y9030000D01*
X8988065D01*
X8966013Y9020866D01*
X8949135Y9003987D01*
X8940000Y8981935D01*
Y8974836D01*
X8929840Y8970627D01*
X8803060Y9097408D01*
Y9133671D01*
X8569650D01*
Y9040331D01*
X8694577D01*
X8698025Y9039645D01*
X8759888D01*
X8783475Y9016058D01*
X8779587Y9006671D01*
X8724538D01*
X8720342Y9010866D01*
X8698289Y9020001D01*
X8674420D01*
X8652368Y9010866D01*
X8648172Y9006671D01*
X8569650D01*
Y8913331D01*
X8648172D01*
X8652368Y8909135D01*
X8669595Y8901999D01*
Y8891002D01*
X8652368Y8883866D01*
X8648172Y8879671D01*
X8569650D01*
Y8786331D01*
X8648172D01*
X8652368Y8782135D01*
X8669595Y8774999D01*
Y8764002D01*
X8652368Y8756866D01*
X8648172Y8752671D01*
X8569650D01*
Y8659331D01*
X8648172D01*
X8652368Y8655135D01*
X8669595Y8647999D01*
Y8637002D01*
X8652368Y8629866D01*
X8648172Y8625671D01*
X8569650D01*
Y8532331D01*
X8648172D01*
X8652368Y8528135D01*
X8669595Y8520999D01*
Y8510002D01*
X8652368Y8502866D01*
X8648172Y8498671D01*
X8569650D01*
Y8405331D01*
X8648172D01*
X8652368Y8401135D01*
X8669595Y8393999D01*
Y8383002D01*
X8652368Y8375866D01*
X8648172Y8371671D01*
X8569650D01*
Y8278331D01*
X8648172D01*
X8652368Y8274135D01*
X8669595Y8266999D01*
Y8256002D01*
X8652368Y8248866D01*
X8648172Y8244671D01*
X8569650D01*
Y8151331D01*
X8648172D01*
X8652368Y8147135D01*
X8669595Y8139999D01*
Y8129002D01*
X8652368Y8121866D01*
X8648172Y8117671D01*
X8569650D01*
Y8024331D01*
X8648172D01*
X8652368Y8020135D01*
X8669595Y8012999D01*
Y8002002D01*
X8652368Y7994866D01*
X8648172Y7990671D01*
X8569650D01*
Y7897331D01*
X8648172D01*
X8652368Y7893135D01*
X8669595Y7885999D01*
Y7875002D01*
X8652368Y7867866D01*
X8648172Y7863671D01*
X8569650D01*
Y7770331D01*
X8648172D01*
X8652368Y7766135D01*
X8669595Y7758999D01*
Y7748002D01*
X8652368Y7740866D01*
X8648172Y7736671D01*
X8569650D01*
Y7643331D01*
X8648172D01*
X8652368Y7639135D01*
X8674420Y7630001D01*
X8698289D01*
X8720342Y7639135D01*
X8724538Y7643331D01*
X8803060D01*
Y7736671D01*
X8724538D01*
X8720342Y7740866D01*
X8703114Y7748002D01*
Y7758999D01*
X8720342Y7766135D01*
X8724538Y7770331D01*
X8803060D01*
Y7863671D01*
X8724538D01*
X8720342Y7867866D01*
X8703114Y7875002D01*
Y7885999D01*
X8720342Y7893135D01*
X8724538Y7897331D01*
X8803060D01*
Y7990671D01*
X8724538D01*
X8720342Y7994866D01*
X8703114Y8002002D01*
Y8012999D01*
X8720342Y8020135D01*
X8724538Y8024331D01*
X8803060D01*
Y8117671D01*
X8724538D01*
X8720342Y8121866D01*
X8703114Y8129002D01*
Y8139999D01*
X8720342Y8147135D01*
X8724538Y8151331D01*
X8803060D01*
Y8244671D01*
X8724538D01*
X8720342Y8248866D01*
X8703114Y8256002D01*
Y8266999D01*
X8720342Y8274135D01*
X8724538Y8278331D01*
X8803060D01*
Y8371671D01*
X8724538D01*
X8720342Y8375866D01*
X8703114Y8383002D01*
Y8393999D01*
X8720342Y8401135D01*
X8724538Y8405331D01*
X8803060D01*
Y8498671D01*
X8724538D01*
X8720342Y8502866D01*
X8703114Y8510002D01*
Y8520999D01*
X8720342Y8528135D01*
X8724538Y8532331D01*
X8803060D01*
Y8625671D01*
X8724538D01*
X8720342Y8629866D01*
X8703114Y8637002D01*
Y8647999D01*
X8720342Y8655135D01*
X8724538Y8659331D01*
X8803060D01*
Y8752671D01*
X8724538D01*
X8720342Y8756866D01*
X8703114Y8764002D01*
Y8774999D01*
X8720342Y8782135D01*
X8724538Y8786331D01*
X8803060D01*
Y8879671D01*
X8724538D01*
X8720342Y8883866D01*
X8703114Y8891002D01*
Y8901999D01*
X8720342Y8909135D01*
X8724538Y8913331D01*
X8803060D01*
Y8983199D01*
X8812446Y8987087D01*
X8874314Y8925219D01*
Y7121818D01*
X8864927Y7117930D01*
X8813059Y7169798D01*
Y7212670D01*
X8579650D01*
Y7119330D01*
X8762592D01*
X8786866Y7095057D01*
X8782978Y7085670D01*
X8734537D01*
X8730342Y7089866D01*
X8708289Y7099000D01*
X8684420D01*
X8662367Y7089866D01*
X8658172Y7085670D01*
X8579650D01*
Y6992330D01*
X8658172D01*
X8662367Y6988135D01*
X8679595Y6980999D01*
Y6970002D01*
X8662367Y6962866D01*
X8658172Y6958670D01*
X8579650D01*
Y6865330D01*
X8658172D01*
X8662367Y6861135D01*
X8679595Y6853999D01*
Y6843002D01*
X8662367Y6835866D01*
X8658172Y6831670D01*
X8579650D01*
Y6738330D01*
X8658172D01*
X8662367Y6734135D01*
X8679595Y6726999D01*
Y6716002D01*
X8662367Y6708866D01*
X8658172Y6704670D01*
X8579650D01*
Y6611330D01*
X8658172D01*
X8662367Y6607135D01*
X8679595Y6599999D01*
Y6589002D01*
X8662367Y6581866D01*
X8658172Y6577670D01*
X8579650D01*
Y6484330D01*
X8658172D01*
X8662367Y6480135D01*
X8679595Y6472999D01*
Y6462002D01*
X8662367Y6454866D01*
X8658172Y6450670D01*
X8579650D01*
Y6357330D01*
X8658172D01*
X8662367Y6353135D01*
X8679595Y6345999D01*
Y6335002D01*
X8662367Y6327866D01*
X8658172Y6323670D01*
X8579650D01*
Y6230330D01*
X8658172D01*
X8662367Y6226135D01*
X8679595Y6218999D01*
Y6208002D01*
X8662367Y6200866D01*
X8658172Y6196670D01*
X8579650D01*
Y6103330D01*
X8658172D01*
X8662367Y6099135D01*
X8679595Y6091999D01*
Y6081002D01*
X8662367Y6073866D01*
X8658172Y6069670D01*
X8579650D01*
Y5976330D01*
X8658172D01*
X8662367Y5972135D01*
X8679595Y5964999D01*
Y5954002D01*
X8662367Y5946866D01*
X8658172Y5942670D01*
X8579650D01*
Y5849330D01*
X8658172D01*
X8662367Y5845135D01*
X8679595Y5837999D01*
Y5827002D01*
X8662367Y5819866D01*
X8658172Y5815670D01*
X8579650D01*
Y5722330D01*
X8658172D01*
X8662367Y5718135D01*
X8684420Y5709001D01*
X8708289D01*
X8730342Y5718135D01*
X8734537Y5722330D01*
X8813059D01*
Y5815670D01*
X8734537D01*
X8730342Y5819866D01*
X8713114Y5827002D01*
Y5837999D01*
X8730342Y5845135D01*
X8734537Y5849330D01*
X8813059D01*
Y5942670D01*
X8734537D01*
X8730342Y5946866D01*
X8713114Y5954002D01*
Y5964999D01*
X8730342Y5972135D01*
X8734537Y5976330D01*
X8813059D01*
Y6069670D01*
X8734537D01*
X8730342Y6073866D01*
X8713114Y6081002D01*
Y6091999D01*
X8730342Y6099135D01*
X8734537Y6103330D01*
X8813059D01*
Y6196670D01*
X8734537D01*
X8730342Y6200866D01*
X8713114Y6208002D01*
Y6218999D01*
X8730342Y6226135D01*
X8734537Y6230330D01*
X8813059D01*
Y6323670D01*
X8734537D01*
X8730342Y6327866D01*
X8713114Y6335002D01*
Y6345999D01*
X8730342Y6353135D01*
X8734537Y6357330D01*
X8813059D01*
Y6450670D01*
X8734537D01*
X8730342Y6454866D01*
X8713114Y6462002D01*
Y6472999D01*
X8730342Y6480135D01*
X8734537Y6484330D01*
X8813059D01*
Y6577670D01*
X8734537D01*
X8730342Y6581866D01*
X8713114Y6589002D01*
Y6599999D01*
X8730342Y6607135D01*
X8734537Y6611330D01*
X8813059D01*
Y6704670D01*
X8734537D01*
X8730342Y6708866D01*
X8713114Y6716002D01*
Y6726999D01*
X8730342Y6734135D01*
X8734537Y6738330D01*
X8813059D01*
Y6831670D01*
X8734537D01*
X8730342Y6835866D01*
X8713114Y6843002D01*
Y6853999D01*
X8730342Y6861135D01*
X8734537Y6865330D01*
X8813059D01*
Y6958670D01*
X8734537D01*
X8730342Y6962866D01*
X8713114Y6970002D01*
Y6980999D01*
X8730342Y6988135D01*
X8734537Y6992330D01*
X8813059D01*
Y7055589D01*
X8822446Y7059477D01*
X8874314Y7007609D01*
Y5201818D01*
X8864927Y5197930D01*
X8813060Y5249798D01*
Y5292670D01*
X8734538D01*
X8730342Y5296866D01*
X8708289Y5306000D01*
X8684420D01*
X8662367Y5296866D01*
X8658172Y5292670D01*
X8624151D01*
X8620263Y5302057D01*
X8644536Y5326330D01*
X8813060D01*
Y5419670D01*
X8579650D01*
Y5391217D01*
X8493297Y5304864D01*
X8483351Y5289979D01*
X8480427Y5275280D01*
X8469134Y5263987D01*
X8460000Y5241935D01*
Y5218065D01*
X8469134Y5196013D01*
X8486013Y5179134D01*
X8508065Y5170000D01*
X8531935D01*
X8553987Y5179134D01*
X8570864Y5196012D01*
X8579650Y5199330D01*
X8579650Y5199330D01*
Y5199330D01*
X8579650Y5199330D01*
X8658172D01*
X8662367Y5195135D01*
X8679595Y5187999D01*
Y5177002D01*
X8662367Y5169866D01*
X8658172Y5165670D01*
X8579650D01*
Y5072330D01*
X8658172D01*
X8662367Y5068135D01*
X8679595Y5060999D01*
Y5050002D01*
X8662367Y5042866D01*
X8658172Y5038670D01*
X8579650D01*
Y4945330D01*
X8658172D01*
X8662367Y4941135D01*
X8679595Y4933999D01*
Y4923002D01*
X8662367Y4915866D01*
X8658172Y4911670D01*
X8579650D01*
Y4818330D01*
X8658172D01*
X8662367Y4814135D01*
X8679595Y4806999D01*
Y4796002D01*
X8662367Y4788866D01*
X8658172Y4784670D01*
X8579650D01*
Y4691330D01*
X8658172D01*
X8662367Y4687135D01*
X8679595Y4679999D01*
Y4669002D01*
X8662367Y4661866D01*
X8658172Y4657670D01*
X8579650D01*
Y4564330D01*
X8658172D01*
X8662367Y4560135D01*
X8679595Y4552999D01*
Y4542002D01*
X8662367Y4534866D01*
X8658172Y4530670D01*
X8579650D01*
Y4437330D01*
X8658172D01*
X8662367Y4433135D01*
X8679595Y4425999D01*
Y4415002D01*
X8662367Y4407866D01*
X8658172Y4403670D01*
X8579650D01*
Y4310330D01*
X8658172D01*
X8662367Y4306135D01*
X8679595Y4298999D01*
Y4288002D01*
X8662367Y4280866D01*
X8658172Y4276670D01*
X8579650D01*
Y4183330D01*
X8658172D01*
X8662367Y4179135D01*
X8679595Y4171999D01*
Y4161002D01*
X8662367Y4153866D01*
X8658172Y4149670D01*
X8579650D01*
Y4056330D01*
X8658172D01*
X8662367Y4052135D01*
X8679595Y4044999D01*
Y4034002D01*
X8662367Y4026866D01*
X8658172Y4022670D01*
X8579650D01*
Y3929330D01*
X8658172D01*
X8662367Y3925135D01*
X8679595Y3917999D01*
Y3907002D01*
X8662367Y3899866D01*
X8658172Y3895670D01*
X8579650D01*
Y3802330D01*
X8658172D01*
X8662367Y3798135D01*
X8684420Y3789001D01*
X8708289D01*
X8730342Y3798135D01*
X8734538Y3802330D01*
X8813060D01*
Y3895670D01*
X8734538D01*
X8730342Y3899866D01*
X8713114Y3907002D01*
Y3917999D01*
X8730342Y3925135D01*
X8734538Y3929330D01*
X8813060D01*
Y4022670D01*
X8734538D01*
X8730342Y4026866D01*
X8713114Y4034002D01*
Y4044999D01*
X8730342Y4052135D01*
X8734538Y4056330D01*
X8813060D01*
Y4149670D01*
X8734538D01*
X8730342Y4153866D01*
X8713114Y4161002D01*
Y4171999D01*
X8730342Y4179135D01*
X8734538Y4183330D01*
X8813060D01*
Y4276670D01*
X8734538D01*
X8730342Y4280866D01*
X8713114Y4288002D01*
Y4298999D01*
X8730342Y4306135D01*
X8734538Y4310330D01*
X8813060D01*
Y4403670D01*
X8734538D01*
X8730342Y4407866D01*
X8713114Y4415002D01*
Y4425999D01*
X8730342Y4433135D01*
X8734538Y4437330D01*
X8813060D01*
Y4530670D01*
X8734538D01*
X8730342Y4534866D01*
X8713114Y4542002D01*
Y4552999D01*
X8730342Y4560135D01*
X8734538Y4564330D01*
X8813060D01*
Y4657670D01*
X8734538D01*
X8730342Y4661866D01*
X8713114Y4669002D01*
Y4679999D01*
X8730342Y4687135D01*
X8734538Y4691330D01*
X8813060D01*
Y4784670D01*
X8734538D01*
X8730342Y4788866D01*
X8713114Y4796002D01*
Y4806999D01*
X8730342Y4814135D01*
X8734538Y4818330D01*
X8813060D01*
Y4911670D01*
X8734538D01*
X8730342Y4915866D01*
X8713114Y4923002D01*
Y4933999D01*
X8730342Y4941135D01*
X8734538Y4945330D01*
X8813060D01*
Y5038670D01*
X8734538D01*
X8730342Y5042866D01*
X8713114Y5050002D01*
Y5060999D01*
X8730342Y5068135D01*
X8734538Y5072330D01*
X8813060D01*
Y5135589D01*
X8822446Y5139477D01*
X8874314Y5087609D01*
Y3464892D01*
X8817446Y3408024D01*
X8808060Y3411912D01*
Y3475171D01*
X8574650D01*
Y3475132D01*
X8559721D01*
X8553987Y3480866D01*
X8531935Y3490000D01*
X8508065D01*
X8486013Y3480866D01*
X8469134Y3463987D01*
X8460000Y3441935D01*
Y3418065D01*
X8469134Y3396013D01*
X8486013Y3379134D01*
X8508065Y3370000D01*
X8531935D01*
X8553987Y3379134D01*
X8558222Y3383369D01*
X8574650D01*
Y3381831D01*
X8777978D01*
X8781866Y3372444D01*
X8757593Y3348171D01*
X8574650D01*
Y3254831D01*
X8777978D01*
X8781866Y3245444D01*
X8757593Y3221171D01*
X8574650D01*
Y3127831D01*
X8777978D01*
X8781866Y3118444D01*
X8757593Y3094171D01*
X8574650D01*
Y3000831D01*
X8777978D01*
X8781866Y2991444D01*
X8757593Y2967171D01*
X8574650D01*
Y2873831D01*
X8777978D01*
X8781866Y2864444D01*
X8757593Y2840171D01*
X8574650D01*
Y2746831D01*
X8777978D01*
X8781866Y2737444D01*
X8757593Y2713171D01*
X8574650D01*
Y2619831D01*
X8777978D01*
X8781866Y2610444D01*
X8757593Y2586171D01*
X8574650D01*
Y2492831D01*
X8777978D01*
X8781866Y2483444D01*
X8757593Y2459171D01*
X8574650D01*
Y2365831D01*
X8808060D01*
Y2408703D01*
X9434781Y3035425D01*
X9707155D01*
X9707365Y3034370D01*
X9720184Y3015184D01*
X9739370Y3002365D01*
X9762000Y2997864D01*
X9838000D01*
X9860630Y3002365D01*
X9879816Y3015184D01*
X9889840Y3030187D01*
X9900000Y3027105D01*
Y150000D01*
Y140151D01*
X9896157Y120831D01*
X9888619Y102632D01*
X9877675Y86254D01*
X9863746Y72325D01*
X9847368Y61381D01*
X9829169Y53843D01*
X9809849Y50000D01*
X3731136D01*
X3713748Y53458D01*
X3697369Y60243D01*
X3682628Y70092D01*
X3670092Y82628D01*
X3660243Y97369D01*
X3653459Y113748D01*
X3650000Y131136D01*
Y568216D01*
X3660160Y569554D01*
X3662991Y558989D01*
X3676979Y534761D01*
X3696761Y514979D01*
X3720989Y500991D01*
X3748012Y493750D01*
X3775988D01*
X3803011Y500991D01*
X3827239Y514979D01*
X3847021Y534761D01*
X3861009Y558989D01*
X3868250Y586012D01*
Y613988D01*
X3861009Y641011D01*
X3847021Y665239D01*
X3827239Y685021D01*
X3803011Y699009D01*
X3775988Y706250D01*
X3748012D01*
X3720989Y699009D01*
X3696761Y685021D01*
X3676979Y665239D01*
X3662991Y641011D01*
X3660160Y630447D01*
X3650000Y631784D01*
Y1683272D01*
X3660160Y1686954D01*
X3825963Y1521151D01*
X3823420Y1511662D01*
Y1488338D01*
X3829457Y1465809D01*
X3841119Y1445611D01*
X3857611Y1429119D01*
X3877809Y1417457D01*
X3900338Y1411420D01*
X3923662D01*
X3946191Y1417457D01*
X3966389Y1429119D01*
X3982882Y1445611D01*
X3994543Y1465809D01*
X4000580Y1488338D01*
Y1511662D01*
X3998037Y1521151D01*
X4091005Y1614118D01*
X4270000D01*
Y1590000D01*
X4354118D01*
Y1525000D01*
X4304000D01*
Y1375000D01*
X4496000D01*
Y1525000D01*
X4445881D01*
Y1590000D01*
X4515000D01*
Y1730000D01*
X4270000D01*
Y1705882D01*
X4072000D01*
X4054442Y1702389D01*
X4039557Y1692443D01*
X3933151Y1586037D01*
X3923662Y1588580D01*
X3900338D01*
X3890849Y1586037D01*
X3735882Y1741005D01*
Y2094863D01*
X3746042Y2099072D01*
X3987557Y1857557D01*
X4002442Y1847611D01*
X4020000Y1844118D01*
X4270000D01*
Y1820000D01*
X4515000D01*
Y1844118D01*
X4905000D01*
Y1707500D01*
X5150000D01*
Y2072500D01*
X4905000D01*
Y1935882D01*
X4515000D01*
Y1960000D01*
X4270000D01*
Y1935882D01*
X4039005D01*
X3815882Y2159005D01*
Y2370995D01*
X3904886Y2460000D01*
X4090000D01*
Y2565000D01*
X3840000D01*
Y2524886D01*
X3825268Y2510155D01*
X3815882Y2514043D01*
Y3132995D01*
X3904886Y3222000D01*
X4090000D01*
Y3226368D01*
X4174000D01*
Y3195000D01*
X4366000D01*
Y3224119D01*
X4610995D01*
X4660000Y3175114D01*
Y3060000D01*
X4900000D01*
Y3104118D01*
X5360000D01*
Y3060000D01*
X5600000D01*
Y3240000D01*
X5360000D01*
Y3195881D01*
X4900000D01*
Y3240000D01*
X4724887D01*
X4662443Y3302443D01*
X4647558Y3312389D01*
X4630000Y3315882D01*
X4366000D01*
Y3345000D01*
X4174000D01*
Y3318132D01*
X4090000D01*
Y3327000D01*
X3840000D01*
Y3286886D01*
X3825268Y3272155D01*
X3815882Y3276043D01*
Y4465495D01*
X3825613Y4475227D01*
X3835000Y4471339D01*
Y4422500D01*
X3929959D01*
X3943241Y4416999D01*
Y4406001D01*
X3929959Y4400500D01*
X3835000D01*
Y4295500D01*
X3929959D01*
X3943241Y4289999D01*
Y4279001D01*
X3929959Y4273500D01*
X3835000D01*
Y4168500D01*
X3929959D01*
X3943241Y4162999D01*
Y4152001D01*
X3929959Y4146500D01*
X3835000D01*
Y4041500D01*
X3929959D01*
X3948065Y4034000D01*
X3971935D01*
X3990041Y4041500D01*
X4085000D01*
Y4146500D01*
X3990041D01*
X3976759Y4152001D01*
Y4162999D01*
X3990041Y4168500D01*
X4085000D01*
Y4273500D01*
X3990041D01*
X3976759Y4279001D01*
Y4289999D01*
X3990041Y4295500D01*
X4085000D01*
Y4400500D01*
X3990041D01*
X3976759Y4406001D01*
Y4416999D01*
X3990041Y4422500D01*
X4085000D01*
Y4527500D01*
X3990041D01*
X3971935Y4535000D01*
X3948065D01*
X3929959Y4527500D01*
X3891161D01*
X3887273Y4536887D01*
X3899886Y4549500D01*
X4085000D01*
Y4560118D01*
X4184001D01*
Y4535000D01*
X4376000D01*
Y4685000D01*
X4184001D01*
Y4651881D01*
X4085000D01*
Y4654500D01*
X3835000D01*
Y4614386D01*
X3825268Y4604655D01*
X3815882Y4608543D01*
Y5832995D01*
X3830613Y5847727D01*
X3840000Y5843839D01*
Y5795000D01*
X3934959D01*
X3948241Y5789499D01*
Y5778502D01*
X3934959Y5773000D01*
X3840000D01*
Y5668000D01*
X3934959D01*
X3948241Y5662499D01*
Y5651502D01*
X3934959Y5646000D01*
X3840000D01*
Y5541000D01*
X3934959D01*
X3948241Y5535499D01*
Y5524502D01*
X3934959Y5519000D01*
X3840000D01*
Y5414000D01*
X3934959D01*
X3953065Y5406500D01*
X3976935D01*
X3995041Y5414000D01*
X4090000D01*
Y5519000D01*
X3995041D01*
X3981759Y5524502D01*
Y5535499D01*
X3995041Y5541000D01*
X4090000D01*
Y5646000D01*
X3995041D01*
X3981759Y5651502D01*
Y5662499D01*
X3995041Y5668000D01*
X4090000D01*
Y5773000D01*
X3995041D01*
X3981759Y5778502D01*
Y5789499D01*
X3995041Y5795000D01*
X4090000D01*
Y5900000D01*
X3995041D01*
X3976935Y5907500D01*
X3953065D01*
X3934959Y5900000D01*
X3896161D01*
X3892273Y5909387D01*
X3904886Y5922000D01*
X4090000D01*
Y5931368D01*
X4184001D01*
Y5905000D01*
X4376000D01*
Y6055000D01*
X4184001D01*
Y6023131D01*
X4090000D01*
Y6027000D01*
X3840000D01*
Y5986886D01*
X3825268Y5972155D01*
X3815882Y5976043D01*
Y7232495D01*
X3825613Y7242227D01*
X3835000Y7238339D01*
Y7189500D01*
X3929959D01*
X3943241Y7183999D01*
Y7173001D01*
X3929959Y7167500D01*
X3835000D01*
Y7062500D01*
X3929959D01*
X3943241Y7056999D01*
Y7046001D01*
X3929959Y7040500D01*
X3835000D01*
Y6935500D01*
X3929959D01*
X3943241Y6929999D01*
Y6919001D01*
X3929959Y6913500D01*
X3835000D01*
Y6808500D01*
X3929959D01*
X3948066Y6801000D01*
X3971935D01*
X3990041Y6808500D01*
X4085000D01*
Y6913500D01*
X3990041D01*
X3976760Y6919001D01*
Y6929999D01*
X3990041Y6935500D01*
X4085000D01*
Y7040500D01*
X3990041D01*
X3976760Y7046001D01*
Y7056999D01*
X3990041Y7062500D01*
X4085000D01*
Y7167500D01*
X3990041D01*
X3976760Y7173001D01*
Y7183999D01*
X3990041Y7189500D01*
X4085000D01*
Y7294500D01*
X3990041D01*
X3971935Y7302000D01*
X3948066D01*
X3929959Y7294500D01*
X3891161D01*
X3887273Y7303887D01*
X3899887Y7316500D01*
X4085000D01*
Y7334118D01*
X4174001D01*
Y7305000D01*
X4301114D01*
X4658557Y6947557D01*
X4673442Y6937611D01*
X4691000Y6934118D01*
X5044000D01*
Y6905000D01*
X5236000D01*
Y7055000D01*
X5044000D01*
Y7025882D01*
X4710005D01*
X4679959Y7055928D01*
X4686255Y7064000D01*
X4834999D01*
Y7253840D01*
X4835000Y7255999D01*
Y7264000D01*
X4834999Y7266160D01*
Y7456000D01*
X4734433D01*
X4729999Y7456881D01*
X4728004D01*
X4432442Y7752443D01*
X4417558Y7762389D01*
X4399999Y7765882D01*
X4210000D01*
X4192442Y7762389D01*
X4177557Y7752443D01*
X4167611Y7737558D01*
X4164118Y7720000D01*
X4167611Y7702442D01*
X4177557Y7687557D01*
X4192442Y7677611D01*
X4210000Y7674119D01*
X4380995D01*
X4676556Y7378557D01*
X4685000Y7372915D01*
Y7267042D01*
X4685000Y7264000D01*
X4677788Y7256881D01*
X4647951D01*
X4640865Y7273987D01*
X4623987Y7290866D01*
X4601935Y7300000D01*
X4578065D01*
X4556013Y7290866D01*
X4539134Y7273987D01*
X4530000Y7251935D01*
Y7228065D01*
X4535523Y7214732D01*
X4526909Y7208977D01*
X4366000Y7369886D01*
Y7455000D01*
X4174001D01*
Y7425882D01*
X4043500D01*
X4025942Y7422389D01*
X4024612Y7421500D01*
X3835000D01*
Y7381386D01*
X3825268Y7371655D01*
X3815882Y7375543D01*
Y7942986D01*
X3825000Y7945500D01*
X3826042Y7945500D01*
X4075000D01*
Y8050500D01*
X3826042D01*
X3825000Y8050500D01*
X3815882Y8053014D01*
Y8069986D01*
X3825000Y8072500D01*
X3826042Y8072500D01*
X3919959D01*
X3938066Y8065000D01*
X3961935D01*
X3980041Y8072500D01*
X4075000D01*
Y8079118D01*
X4115995D01*
X4337557Y7857557D01*
X4352442Y7847611D01*
X4370000Y7844118D01*
X7190995D01*
X7377556Y7657558D01*
X7392441Y7647612D01*
X7409999Y7644119D01*
X7626940D01*
Y7643331D01*
X7860350D01*
Y7736671D01*
X7626940D01*
Y7735882D01*
X7429004D01*
X7242443Y7922443D01*
X7227558Y7932389D01*
X7210000Y7935882D01*
X4389005D01*
X4167443Y8157443D01*
X4152558Y8167389D01*
X4135000Y8170882D01*
X4075000D01*
Y8177500D01*
X3980041D01*
X3966760Y8183001D01*
Y8193999D01*
X3980041Y8199500D01*
X4075000D01*
Y8304500D01*
X3980041D01*
X3966760Y8310001D01*
Y8320999D01*
X3980041Y8326500D01*
X4075000D01*
Y8431500D01*
X3980041D01*
X3966760Y8437001D01*
Y8447999D01*
X3980041Y8453500D01*
X4075000D01*
Y8558500D01*
X3980041D01*
X3966760Y8564001D01*
Y8574999D01*
X3980041Y8580500D01*
X4075000D01*
Y8685500D01*
X3980041D01*
X3961935Y8693000D01*
X3938066D01*
X3919959Y8685500D01*
X3881161D01*
X3877273Y8694887D01*
X3889887Y8707500D01*
X4075000D01*
Y8719118D01*
X4174001D01*
Y8695000D01*
X4366000D01*
Y8845000D01*
X4174001D01*
Y8810882D01*
X4075000D01*
Y8812500D01*
X3825000D01*
Y8772386D01*
X3746041Y8693427D01*
X3735881Y8697636D01*
Y8880000D01*
Y8994001D01*
X3785000D01*
Y9121114D01*
X3932443Y9268557D01*
X3933073Y9269500D01*
X4075000D01*
Y9369500D01*
X3855000D01*
Y9320887D01*
X3720113Y9186000D01*
X3650000D01*
Y9750000D01*
Y9764774D01*
X3655764Y9793753D01*
X3667072Y9821051D01*
X3683487Y9845619D01*
X3704380Y9866512D01*
X3728948Y9882928D01*
X3756246Y9894235D01*
X3785226Y9900000D01*
X9773789D01*
X9800836Y9894620D01*
D02*
G37*
G36*
X3154118Y5822995D02*
Y4588543D01*
X3144732Y4584655D01*
X3115000Y4614386D01*
Y4654500D01*
X2986932D01*
X2982500Y4655382D01*
X2853513D01*
X2851000Y4655881D01*
X2795999D01*
Y4685000D01*
X2604000D01*
Y4668828D01*
X2593840Y4666807D01*
X2590866Y4673987D01*
X2585882Y4678971D01*
Y5680995D01*
X2706505Y5801619D01*
X2870000D01*
Y5795000D01*
X3120000D01*
Y5843839D01*
X3129387Y5847727D01*
X3154118Y5822995D01*
D02*
G37*
G36*
X8956614Y6973360D02*
Y5166638D01*
X8955846Y5166124D01*
X8945686Y5171555D01*
Y6968443D01*
X8955846Y6973874D01*
X8956614Y6973360D01*
D02*
G37*
G36*
Y5053361D02*
Y3420192D01*
X8817446Y3281024D01*
X8808060Y3284912D01*
Y3297703D01*
X8935234Y3424877D01*
X8942969Y3436454D01*
X8945686Y3450111D01*
Y5048443D01*
X8955846Y5053874D01*
X8956614Y5053361D01*
D02*
G37*
%LPC*%
G36*
X2273000Y9836039D02*
X2228000D01*
X2217270Y9833904D01*
X2208174Y9827826D01*
X2202096Y9818730D01*
X2199961Y9808000D01*
Y9626000D01*
X2202096Y9615270D01*
X2208174Y9606174D01*
X2217270Y9600096D01*
X2228000Y9597961D01*
X2273000D01*
X2283730Y9600096D01*
X2292826Y9606174D01*
X2298904Y9615270D01*
X2301039Y9626000D01*
Y9808000D01*
X2298904Y9818730D01*
X2292826Y9827826D01*
X2283730Y9833904D01*
X2273000Y9836039D01*
D02*
G37*
G36*
X1892000D02*
X1847000D01*
X1836270Y9833904D01*
X1827174Y9827826D01*
X1821096Y9818730D01*
X1818961Y9808000D01*
Y9626000D01*
X1821096Y9615270D01*
X1827174Y9606174D01*
X1836270Y9600096D01*
X1847000Y9597961D01*
X1892000D01*
X1902730Y9600096D01*
X1911826Y9606174D01*
X1917904Y9615270D01*
X1920039Y9626000D01*
Y9808000D01*
X1917904Y9818730D01*
X1911826Y9827826D01*
X1902730Y9833904D01*
X1892000Y9836039D01*
D02*
G37*
G36*
X2886935Y9633500D02*
X2863065D01*
X2841013Y9624366D01*
X2840147Y9623500D01*
X2765000D01*
Y9523500D01*
X2840147D01*
X2841013Y9522634D01*
X2858241Y9515499D01*
Y9504501D01*
X2841013Y9497366D01*
X2840147Y9496500D01*
X2765000D01*
Y9396500D01*
X2840147D01*
X2841013Y9395634D01*
X2863065Y9386500D01*
X2886935D01*
X2908987Y9395634D01*
X2909853Y9396500D01*
X2985000D01*
Y9496500D01*
X2909853D01*
X2908987Y9497366D01*
X2891760Y9504501D01*
Y9515499D01*
X2908987Y9522634D01*
X2909853Y9523500D01*
X2985000D01*
Y9623500D01*
X2909853D01*
X2908987Y9624366D01*
X2886935Y9633500D01*
D02*
G37*
G36*
X1993639Y8290000D02*
X1968362D01*
X1943946Y8283458D01*
X1922055Y8270819D01*
X1904181Y8252946D01*
X1891543Y8231055D01*
X1885000Y8206639D01*
Y8181362D01*
X1891543Y8156946D01*
X1904181Y8135055D01*
X1922055Y8117181D01*
X1943946Y8104543D01*
X1968362Y8098001D01*
X1993639D01*
X2018055Y8104543D01*
X2039945Y8117181D01*
X2057819Y8135055D01*
X2070458Y8156946D01*
X2077000Y8181362D01*
Y8206639D01*
X2070458Y8231055D01*
X2057819Y8252946D01*
X2039945Y8270819D01*
X2018055Y8283458D01*
X1993639Y8290000D01*
D02*
G37*
G36*
X2991935Y8439000D02*
X2968065D01*
X2949959Y8431500D01*
X2855000D01*
Y8326500D01*
X2949959D01*
X2954594Y8324580D01*
Y8314420D01*
X2946013Y8310866D01*
X2939647Y8304500D01*
X2855000D01*
Y8199500D01*
X2976472D01*
X2978065Y8190000D01*
X2956013Y8180866D01*
X2952647Y8177500D01*
X2855000D01*
Y8072500D01*
X2972030D01*
X2978065Y8070000D01*
X3001935D01*
X3007970Y8072500D01*
X3105000D01*
Y8177500D01*
X3027353D01*
X3023987Y8180866D01*
X3001935Y8190000D01*
X3003528Y8199500D01*
X3105000D01*
Y8304500D01*
X3020353D01*
X3013987Y8310866D01*
X3012896Y8311317D01*
X3010937Y8323126D01*
X3014771Y8326500D01*
X3105000D01*
Y8431500D01*
X3010041D01*
X2991935Y8439000D01*
D02*
G37*
G36*
X3105000Y8050500D02*
X2855000D01*
Y7945500D01*
X3105000D01*
Y8050500D01*
D02*
G37*
G36*
X1993639Y6766000D02*
X1968362D01*
X1943946Y6759458D01*
X1922055Y6746819D01*
X1904181Y6728946D01*
X1891543Y6707055D01*
X1885000Y6682639D01*
Y6657362D01*
X1891543Y6632946D01*
X1904181Y6611055D01*
X1922055Y6593181D01*
X1943946Y6580543D01*
X1968362Y6574001D01*
X1993639D01*
X2018055Y6580543D01*
X2039945Y6593181D01*
X2057819Y6611055D01*
X2070458Y6632946D01*
X2077000Y6657362D01*
Y6682639D01*
X2070458Y6707055D01*
X2057819Y6728946D01*
X2039945Y6746819D01*
X2018055Y6759458D01*
X1993639Y6766000D01*
D02*
G37*
G36*
X3115000Y6659500D02*
X2865000D01*
Y6554500D01*
X3115000D01*
Y6659500D01*
D02*
G37*
G36*
X1993639Y6258000D02*
X1968362D01*
X1943946Y6251458D01*
X1922055Y6238819D01*
X1904181Y6220946D01*
X1891543Y6199055D01*
X1885000Y6174639D01*
Y6149362D01*
X1891543Y6124946D01*
X1904181Y6103055D01*
X1922055Y6085181D01*
X1943946Y6072543D01*
X1968362Y6066001D01*
X1993639D01*
X2018055Y6072543D01*
X2039945Y6085181D01*
X2057819Y6103055D01*
X2070458Y6124946D01*
X2077000Y6149362D01*
Y6174639D01*
X2070458Y6199055D01*
X2057819Y6220946D01*
X2039945Y6238819D01*
X2018055Y6251458D01*
X1993639Y6258000D01*
D02*
G37*
G36*
Y6004000D02*
X1968362D01*
X1943946Y5997458D01*
X1922055Y5984819D01*
X1904181Y5966946D01*
X1891543Y5945055D01*
X1885000Y5920639D01*
Y5895362D01*
X1891543Y5870946D01*
X1904181Y5849055D01*
X1922055Y5831181D01*
X1943946Y5818543D01*
X1968362Y5812001D01*
X1993639D01*
X2018055Y5818543D01*
X2039945Y5831181D01*
X2057819Y5849055D01*
X2070458Y5870946D01*
X2077000Y5895362D01*
Y5920639D01*
X2070458Y5945055D01*
X2057819Y5966946D01*
X2039945Y5984819D01*
X2018055Y5997458D01*
X1993639Y6004000D01*
D02*
G37*
G36*
Y5750000D02*
X1968362D01*
X1943946Y5743458D01*
X1922055Y5730819D01*
X1904181Y5712946D01*
X1891543Y5691055D01*
X1885000Y5666639D01*
Y5641362D01*
X1891543Y5616946D01*
X1904181Y5595055D01*
X1922055Y5577181D01*
X1943946Y5564543D01*
X1968362Y5558001D01*
X1993639D01*
X2018055Y5564543D01*
X2039945Y5577181D01*
X2057819Y5595055D01*
X2070458Y5616946D01*
X2077000Y5641362D01*
Y5666639D01*
X2070458Y5691055D01*
X2057819Y5712946D01*
X2039945Y5730819D01*
X2018055Y5743458D01*
X1993639Y5750000D01*
D02*
G37*
G36*
Y5496000D02*
X1968362D01*
X1943946Y5489458D01*
X1922055Y5476819D01*
X1904181Y5458946D01*
X1891543Y5437055D01*
X1885000Y5412639D01*
Y5387362D01*
X1891543Y5362946D01*
X1904181Y5341055D01*
X1922055Y5323181D01*
X1943946Y5310543D01*
X1968362Y5304001D01*
X1993639D01*
X2018055Y5310543D01*
X2039945Y5323181D01*
X2057819Y5341055D01*
X2070458Y5362946D01*
X2077000Y5387362D01*
Y5412639D01*
X2070458Y5437055D01*
X2057819Y5458946D01*
X2039945Y5476819D01*
X2018055Y5489458D01*
X1993639Y5496000D01*
D02*
G37*
G36*
X462639Y5253000D02*
X437362D01*
X412946Y5246458D01*
X391055Y5233819D01*
X373181Y5215945D01*
X360543Y5194055D01*
X354000Y5169639D01*
Y5144362D01*
X360543Y5119946D01*
X373181Y5098055D01*
X391055Y5080181D01*
X412946Y5067543D01*
X437362Y5061000D01*
X462639D01*
X487055Y5067543D01*
X508945Y5080181D01*
X526819Y5098055D01*
X539458Y5119946D01*
X546000Y5144362D01*
Y5169639D01*
X539458Y5194055D01*
X526819Y5215945D01*
X508945Y5233819D01*
X487055Y5246458D01*
X462639Y5253000D01*
D02*
G37*
G36*
X1993639Y4988000D02*
X1968362D01*
X1943946Y4981458D01*
X1922055Y4968819D01*
X1904181Y4950946D01*
X1891543Y4929055D01*
X1885000Y4904639D01*
Y4879362D01*
X1891543Y4854946D01*
X1904181Y4833055D01*
X1922055Y4815181D01*
X1943946Y4802543D01*
X1968362Y4796001D01*
X1993639D01*
X2018055Y4802543D01*
X2039945Y4815181D01*
X2057819Y4833055D01*
X2070458Y4854946D01*
X2077000Y4879362D01*
Y4904639D01*
X2070458Y4929055D01*
X2057819Y4950946D01*
X2039945Y4968819D01*
X2018055Y4981458D01*
X1993639Y4988000D01*
D02*
G37*
G36*
X462639Y4745000D02*
X437362D01*
X412946Y4738458D01*
X391055Y4725819D01*
X373181Y4707945D01*
X360543Y4686055D01*
X354000Y4661639D01*
Y4636362D01*
X360543Y4611946D01*
X373181Y4590055D01*
X391055Y4572181D01*
X412946Y4559543D01*
X437362Y4553000D01*
X462639D01*
X487055Y4559543D01*
X508945Y4572181D01*
X526819Y4590055D01*
X539458Y4611946D01*
X546000Y4636362D01*
Y4661639D01*
X539458Y4686055D01*
X526819Y4707945D01*
X508945Y4725819D01*
X487055Y4738458D01*
X462639Y4745000D01*
D02*
G37*
G36*
X1993639Y4734000D02*
X1968362D01*
X1943946Y4727458D01*
X1922055Y4714819D01*
X1904181Y4696946D01*
X1891543Y4675055D01*
X1885000Y4650639D01*
Y4625362D01*
X1891543Y4600946D01*
X1904181Y4579055D01*
X1922055Y4561181D01*
X1943946Y4548543D01*
X1968362Y4542001D01*
X1993639D01*
X2018055Y4548543D01*
X2039945Y4561181D01*
X2057819Y4579055D01*
X2070458Y4600946D01*
X2077000Y4625362D01*
Y4650639D01*
X2070458Y4675055D01*
X2057819Y4696946D01*
X2039945Y4714819D01*
X2018055Y4727458D01*
X1993639Y4734000D01*
D02*
G37*
G36*
X755000Y4495999D02*
X605000D01*
Y4440882D01*
X534361D01*
X526819Y4453945D01*
X508945Y4471819D01*
X487055Y4484458D01*
X462639Y4491000D01*
X437362D01*
X412946Y4484458D01*
X391055Y4471819D01*
X373181Y4453945D01*
X360543Y4432055D01*
X354000Y4407639D01*
Y4382362D01*
X357905Y4367791D01*
X77557Y4087443D01*
X67611Y4072558D01*
X64118Y4055000D01*
Y2700000D01*
X67611Y2682442D01*
X77557Y2667557D01*
X237557Y2507557D01*
X252442Y2497611D01*
X270000Y2494118D01*
X818495D01*
X1027500Y2285114D01*
Y2150000D01*
X1367500D01*
Y2259119D01*
X1375000D01*
X1392559Y2262611D01*
X1407443Y2272557D01*
X1489005Y2354118D01*
X2230995D01*
X3061420Y1523694D01*
Y1411420D01*
X3238580D01*
Y1588580D01*
X3126306D01*
X2282443Y2432443D01*
X2267558Y2442389D01*
X2250000Y2445882D01*
X1470000D01*
X1452442Y2442389D01*
X1437557Y2432443D01*
X1355996Y2350882D01*
X1235881D01*
Y2494000D01*
X1265000D01*
Y2685999D01*
X1115000D01*
Y2494000D01*
X1144118D01*
Y2350000D01*
X1092387D01*
X869943Y2572443D01*
X855058Y2582389D01*
X837500Y2585882D01*
X289005D01*
X155882Y2719005D01*
Y4035995D01*
X422791Y4302905D01*
X437362Y4299000D01*
X462639D01*
X487055Y4305543D01*
X508945Y4318181D01*
X526819Y4336055D01*
X534361Y4349119D01*
X605000D01*
Y4304000D01*
X636618D01*
Y4276495D01*
X609999D01*
Y4084496D01*
X759999D01*
Y4276495D01*
X728381D01*
Y4304000D01*
X755000D01*
Y4495999D01*
D02*
G37*
G36*
X1993639Y4480000D02*
X1968362D01*
X1943946Y4473458D01*
X1922055Y4460819D01*
X1904181Y4442946D01*
X1891543Y4421055D01*
X1885000Y4396639D01*
Y4371362D01*
X1891543Y4346946D01*
X1904181Y4325055D01*
X1922055Y4307181D01*
X1943946Y4294543D01*
X1968362Y4288001D01*
X1993639D01*
X2018055Y4294543D01*
X2039945Y4307181D01*
X2057819Y4325055D01*
X2070458Y4346946D01*
X2077000Y4371362D01*
Y4396639D01*
X2070458Y4421055D01*
X2057819Y4442946D01*
X2039945Y4460819D01*
X2018055Y4473458D01*
X1993639Y4480000D01*
D02*
G37*
G36*
X3115000Y3892500D02*
X2865000D01*
Y3787500D01*
X3115000D01*
Y3892500D01*
D02*
G37*
G36*
X1993639Y6512000D02*
X1968362D01*
X1943946Y6505458D01*
X1922055Y6492819D01*
X1904181Y6474946D01*
X1891543Y6453055D01*
X1885000Y6428639D01*
Y6403362D01*
X1891543Y6378946D01*
X1904181Y6357055D01*
X1922055Y6339181D01*
X1943946Y6326543D01*
X1968362Y6320001D01*
X1993639D01*
X2008209Y6323905D01*
X2134118Y6197996D01*
Y3410000D01*
X2137611Y3392442D01*
X2147557Y3377557D01*
X2664057Y2861057D01*
X2678942Y2851111D01*
X2696500Y2847618D01*
X2870000D01*
Y2841000D01*
X3120000D01*
Y2946000D01*
X2870000D01*
Y2939381D01*
X2715505D01*
X2225882Y3429005D01*
Y6217001D01*
X2222389Y6234559D01*
X2212443Y6249444D01*
X2073096Y6388791D01*
X2077000Y6403362D01*
Y6428639D01*
X2070458Y6453055D01*
X2057819Y6474946D01*
X2039945Y6492819D01*
X2018055Y6505458D01*
X1993639Y6512000D01*
D02*
G37*
G36*
X910000Y2895000D02*
X770000D01*
Y2650000D01*
X910000D01*
Y2895000D01*
D02*
G37*
G36*
X435000Y1546000D02*
X285000D01*
Y1354000D01*
X435000D01*
Y1546000D01*
D02*
G37*
G36*
X910644Y1330850D02*
X889356D01*
X868793Y1325340D01*
X850357Y1314696D01*
X835304Y1299643D01*
X824660Y1281207D01*
X819150Y1260644D01*
Y1253438D01*
X781593Y1215881D01*
X660000D01*
Y1220000D01*
X500000D01*
Y1120000D01*
X660000D01*
Y1124118D01*
X800598D01*
X818156Y1127611D01*
X833041Y1137557D01*
X869859Y1174374D01*
X889356Y1169150D01*
X910644D01*
X931207Y1174660D01*
X949643Y1185304D01*
X964696Y1200357D01*
X975340Y1218793D01*
X980850Y1239356D01*
Y1260644D01*
X975340Y1281207D01*
X964696Y1299643D01*
X949643Y1314696D01*
X931207Y1325340D01*
X910644Y1330850D01*
D02*
G37*
G36*
X440000Y1315000D02*
X280000D01*
Y1215000D01*
X440000D01*
Y1315000D01*
D02*
G37*
G36*
X1420644Y1330850D02*
X1399356D01*
X1378793Y1325340D01*
X1360357Y1314696D01*
X1345304Y1299643D01*
X1334660Y1281207D01*
X1329150Y1260644D01*
Y1239356D01*
X1334660Y1218793D01*
X1339396Y1210590D01*
Y930906D01*
X1275000D01*
X1247590Y927297D01*
X1222047Y916717D01*
X1200113Y899887D01*
X1183283Y877953D01*
X1172703Y852411D01*
X1169094Y825000D01*
X1172703Y797590D01*
X1183283Y772047D01*
X1200113Y750113D01*
X1222047Y733283D01*
X1247590Y722703D01*
X1275000Y719094D01*
X1525000D01*
X1552410Y722703D01*
X1577953Y733283D01*
X1599887Y750113D01*
X1616717Y772047D01*
X1627297Y797590D01*
X1630906Y825000D01*
X1627297Y852411D01*
X1616717Y877953D01*
X1599887Y899887D01*
X1577953Y916717D01*
X1552410Y927297D01*
X1525000Y930906D01*
X1480604D01*
Y1210590D01*
X1485340Y1218793D01*
X1490850Y1239356D01*
Y1260644D01*
X1485340Y1281207D01*
X1474696Y1299643D01*
X1459643Y1314696D01*
X1441207Y1325340D01*
X1420644Y1330850D01*
D02*
G37*
G36*
X2605000Y835392D02*
X2445000D01*
X2437196Y833840D01*
X2430581Y829419D01*
X2426160Y822804D01*
X2424608Y815000D01*
Y717776D01*
X2425222Y714689D01*
X2425533Y711739D01*
X2425735Y711366D01*
X2425807Y710886D01*
X2426063Y710459D01*
X2426160Y709972D01*
X2427935Y707316D01*
X2429330Y704747D01*
X2429651Y704487D01*
X2429905Y704066D01*
X2430305Y703770D01*
X2430581Y703356D01*
X2433259Y701567D01*
X2435515Y699741D01*
X2445102Y694699D01*
X2462247Y682306D01*
X2476424Y667266D01*
X2487523Y649831D01*
X2495149Y630620D01*
X2499029Y610320D01*
X2499026Y589650D01*
X2495141Y569350D01*
X2487509Y550141D01*
X2476406Y532710D01*
X2462224Y517674D01*
X2445076Y505286D01*
X2435487Y500246D01*
X2433030Y498258D01*
X2432536Y497921D01*
X2430581Y496615D01*
X2430547Y496565D01*
X2430416Y496476D01*
X2429955Y495771D01*
X2429301Y495242D01*
X2427791Y492463D01*
X2427050Y491331D01*
X2426160Y489999D01*
X2426152Y489959D01*
X2426060Y489817D01*
X2425903Y488991D01*
X2425501Y488251D01*
X2425169Y485104D01*
X2424841Y483367D01*
X2424608Y482196D01*
Y482134D01*
X2424583Y481999D01*
X2424608Y481878D01*
Y385000D01*
X2426160Y377196D01*
X2430581Y370581D01*
X2437196Y366160D01*
X2445000Y364608D01*
X2605000D01*
X2606972Y365000D01*
X2625000D01*
Y383028D01*
X2625392Y385000D01*
Y554119D01*
X2903803D01*
X2914979Y534761D01*
X2934761Y514979D01*
X2958989Y500991D01*
X2986012Y493750D01*
X3013988D01*
X3041011Y500991D01*
X3065239Y514979D01*
X3085021Y534761D01*
X3099009Y558989D01*
X3106250Y586012D01*
Y613988D01*
X3099009Y641011D01*
X3085021Y665239D01*
X3065239Y685021D01*
X3041011Y699009D01*
X3013988Y706250D01*
X2986012D01*
X2958989Y699009D01*
X2934761Y685021D01*
X2914979Y665239D01*
X2903803Y645882D01*
X2625392D01*
Y815000D01*
X2625000Y816972D01*
Y835000D01*
X2606972D01*
X2605000Y835392D01*
D02*
G37*
G36*
X1787500Y2302500D02*
X1592500D01*
Y2118381D01*
X1550000D01*
X1532441Y2114889D01*
X1517557Y2104943D01*
X1302613Y1890000D01*
X1027500D01*
Y1754886D01*
X928495Y1655882D01*
X240000D01*
X222442Y1652389D01*
X207557Y1642443D01*
X97557Y1532443D01*
X87611Y1517558D01*
X84118Y1500000D01*
Y1150000D01*
X87611Y1132442D01*
X97557Y1117557D01*
X172557Y1042557D01*
X187442Y1032611D01*
X205000Y1029118D01*
X280000D01*
Y1025000D01*
X335995D01*
X348065Y1020000D01*
X371935D01*
X384005Y1025000D01*
X440000D01*
Y1125000D01*
X399853D01*
X393987Y1130866D01*
X371935Y1140000D01*
X348065D01*
X326013Y1130866D01*
X320147Y1125000D01*
X280000D01*
Y1120881D01*
X224005D01*
X175882Y1169005D01*
Y1480995D01*
X259005Y1564119D01*
X947500D01*
X965059Y1567611D01*
X979943Y1577557D01*
X1092387Y1690000D01*
X1367500D01*
Y1825114D01*
X1569004Y2026618D01*
X1637500D01*
X1641934Y2027500D01*
X1647647D01*
X1656013Y2019135D01*
X1678065Y2010000D01*
X1701935D01*
X1723987Y2019135D01*
X1731631Y2026778D01*
X1745000Y2024119D01*
X2106634D01*
X2108046Y2017016D01*
X2119650Y1999650D01*
X2137016Y1988047D01*
X2157500Y1983972D01*
X2211142D01*
X2354118Y1840996D01*
Y1559005D01*
X2207557Y1412443D01*
X2197611Y1397558D01*
X2194119Y1380000D01*
Y1285999D01*
X2145000D01*
Y1094000D01*
X2171618D01*
Y835000D01*
X2155000D01*
Y816972D01*
X2154608Y815000D01*
Y385000D01*
X2155000Y383028D01*
Y365000D01*
X2173028D01*
X2175000Y364608D01*
X2335000D01*
X2342804Y366160D01*
X2349419Y370581D01*
X2353840Y377196D01*
X2355392Y385000D01*
Y482224D01*
X2354778Y485314D01*
X2354467Y488261D01*
X2354265Y488634D01*
X2354193Y489114D01*
X2353937Y489541D01*
X2353840Y490028D01*
X2352063Y492687D01*
X2350669Y495253D01*
X2350349Y495512D01*
X2350095Y495934D01*
X2349696Y496230D01*
X2349419Y496644D01*
X2346737Y498436D01*
X2344485Y500259D01*
X2334898Y505301D01*
X2317753Y517694D01*
X2303576Y532734D01*
X2292477Y550169D01*
X2284851Y569380D01*
X2280971Y589680D01*
X2280973Y610350D01*
X2284859Y630650D01*
X2292491Y649858D01*
X2303594Y667290D01*
X2317776Y682326D01*
X2334924Y694714D01*
X2344513Y699754D01*
X2346895Y701681D01*
X2349446Y703385D01*
X2349968Y704167D01*
X2350699Y704758D01*
X2352163Y707452D01*
X2353866Y710001D01*
X2354049Y710922D01*
X2354498Y711749D01*
X2354821Y714799D01*
X2355418Y717805D01*
X2355392Y717936D01*
Y815000D01*
X2353840Y822804D01*
X2349419Y829419D01*
X2342804Y833840D01*
X2335000Y835392D01*
X2263382D01*
Y1094000D01*
X2295000D01*
Y1285999D01*
X2285882D01*
Y1360995D01*
X2432443Y1507557D01*
X2442389Y1522442D01*
X2445882Y1540000D01*
Y1860000D01*
X2442389Y1877559D01*
X2432443Y1892444D01*
X2276028Y2048858D01*
Y2102500D01*
X2271954Y2122985D01*
X2260350Y2140351D01*
X2242984Y2151954D01*
X2222500Y2156029D01*
X2157500D01*
X2137016Y2151954D01*
X2119650Y2140351D01*
X2108046Y2122985D01*
X2106634Y2115882D01*
X1787500D01*
Y2302500D01*
D02*
G37*
G36*
X523638Y740000D02*
X476362D01*
X429995Y730777D01*
X386317Y712685D01*
X347009Y686420D01*
X313580Y652991D01*
X287315Y613683D01*
X269223Y570005D01*
X260000Y523638D01*
Y476362D01*
X269223Y429995D01*
X287315Y386317D01*
X313580Y347009D01*
X347009Y313580D01*
X386317Y287315D01*
X429995Y269223D01*
X476362Y260000D01*
X523638D01*
X570005Y269223D01*
X613683Y287315D01*
X652991Y313580D01*
X686420Y347009D01*
X712685Y386317D01*
X730777Y429995D01*
X740000Y476362D01*
Y523638D01*
X730777Y570005D01*
X712685Y613683D01*
X686420Y652991D01*
X652991Y686420D01*
X613683Y712685D01*
X570005Y730777D01*
X523638Y740000D01*
D02*
G37*
%LPD*%
G36*
X2605000Y385000D02*
X2445000D01*
Y482196D01*
X2444974Y482195D01*
X2455844Y487909D01*
X2475732Y502276D01*
X2492566Y520124D01*
X2505747Y540817D01*
X2514805Y563618D01*
X2519418Y587715D01*
X2519421Y612249D01*
X2514815Y636347D01*
X2505763Y659151D01*
X2492588Y679848D01*
X2475759Y697700D01*
X2455876Y712073D01*
X2445006Y717789D01*
X2445000Y717776D01*
Y815000D01*
X2605000D01*
Y385000D01*
D02*
G37*
G36*
X2335000Y717805D02*
X2335026D01*
X2324155Y712091D01*
X2304268Y697724D01*
X2287434Y679876D01*
X2274253Y659183D01*
X2265195Y636382D01*
X2260582Y612285D01*
X2260578Y587751D01*
X2265184Y563653D01*
X2274236Y540849D01*
X2287411Y520152D01*
X2304241Y502300D01*
X2324124Y487927D01*
X2334994Y482211D01*
X2334994Y482211D01*
X2335000Y482224D01*
Y385000D01*
X2175000D01*
Y815000D01*
X2335000D01*
Y717805D01*
D02*
G37*
%LPC*%
G36*
X523638Y9740000D02*
X476362D01*
X429995Y9730777D01*
X386317Y9712685D01*
X347009Y9686420D01*
X313580Y9652991D01*
X287315Y9613683D01*
X269223Y9570005D01*
X260000Y9523638D01*
Y9476362D01*
X269223Y9429995D01*
X287315Y9386318D01*
X313580Y9347009D01*
X347009Y9313580D01*
X386317Y9287315D01*
X429995Y9269223D01*
X476362Y9260000D01*
X523638D01*
X570005Y9269223D01*
X613683Y9287315D01*
X652991Y9313580D01*
X686420Y9347009D01*
X712685Y9386318D01*
X730777Y9429995D01*
X740000Y9476362D01*
Y9523638D01*
X730777Y9570005D01*
X712685Y9613683D01*
X686420Y9652991D01*
X652991Y9686420D01*
X613683Y9712685D01*
X570005Y9730777D01*
X523638Y9740000D01*
D02*
G37*
G36*
X4075000Y9750500D02*
X3855000D01*
Y9650500D01*
X4075000D01*
Y9750500D01*
D02*
G37*
G36*
Y9623500D02*
X3855000D01*
Y9523500D01*
X4075000D01*
Y9623500D01*
D02*
G37*
G36*
X8698289Y9401001D02*
X8674420D01*
X8652368Y9391866D01*
X8648172Y9387671D01*
X8569650D01*
Y9294331D01*
X8648172D01*
X8652368Y9290135D01*
X8674420Y9281001D01*
X8698289D01*
X8720342Y9290135D01*
X8724538Y9294331D01*
X8803060D01*
Y9387671D01*
X8724538D01*
X8720342Y9391866D01*
X8698289Y9401001D01*
D02*
G37*
G36*
X7755580D02*
X7731710D01*
X7709658Y9391866D01*
X7705462Y9387671D01*
X7626940D01*
Y9294331D01*
X7705462D01*
X7709658Y9290135D01*
X7731710Y9281001D01*
X7755580D01*
X7777632Y9290135D01*
X7781828Y9294331D01*
X7860350D01*
Y9387671D01*
X7781828D01*
X7777632Y9391866D01*
X7755580Y9401001D01*
D02*
G37*
G36*
X9523638Y9740000D02*
X9476362D01*
X9429995Y9730777D01*
X9386318Y9712685D01*
X9347009Y9686420D01*
X9313580Y9652991D01*
X9287315Y9613683D01*
X9269223Y9570005D01*
X9260000Y9523638D01*
Y9476362D01*
X9269223Y9429995D01*
X9287315Y9386318D01*
X9313580Y9347009D01*
X9347009Y9313580D01*
X9386318Y9287315D01*
X9429995Y9269223D01*
X9476362Y9260000D01*
X9523638D01*
X9570005Y9269223D01*
X9613683Y9287315D01*
X9652991Y9313580D01*
X9686420Y9347009D01*
X9712685Y9386318D01*
X9730777Y9429995D01*
X9740000Y9476362D01*
Y9523638D01*
X9730777Y9570005D01*
X9712685Y9613683D01*
X9686420Y9652991D01*
X9652991Y9686420D01*
X9613683Y9712685D01*
X9570005Y9730777D01*
X9523638Y9740000D01*
D02*
G37*
G36*
X7860350Y9260671D02*
X7626940D01*
Y9167331D01*
X7860350D01*
Y9260671D01*
D02*
G37*
G36*
X8541935Y9270000D02*
X8518065D01*
X8496013Y9260866D01*
X8479134Y9243988D01*
X8470000Y9221935D01*
Y9198066D01*
X8479134Y9176013D01*
X8496013Y9159135D01*
X8518065Y9150000D01*
X8541935D01*
X8563987Y9159135D01*
X8572183Y9167331D01*
X8803060D01*
Y9260671D01*
X8569650D01*
X8569650Y9260671D01*
X8560217Y9262427D01*
X8541935Y9270000D01*
D02*
G37*
G36*
X7860350Y9133671D02*
X7626940D01*
Y9040331D01*
X7860350D01*
Y9133671D01*
D02*
G37*
G36*
Y9006671D02*
X7626940D01*
Y8913331D01*
X7806202D01*
X7830475Y8889058D01*
X7826587Y8879671D01*
X7775182D01*
X7773987Y8880866D01*
X7751935Y8890000D01*
X7728065D01*
X7706013Y8880866D01*
X7704818Y8879671D01*
X7626940D01*
Y8786331D01*
X7698816D01*
X7706013Y8779135D01*
X7719791Y8773428D01*
Y8762431D01*
X7716013Y8760866D01*
X7707818Y8752671D01*
X7626940D01*
Y8659331D01*
X7715816D01*
X7716013Y8659135D01*
X7738065Y8650000D01*
X7761935D01*
X7783987Y8659135D01*
X7784184Y8659331D01*
X7860350D01*
Y8752671D01*
X7792182D01*
X7783987Y8760866D01*
X7770209Y8766573D01*
Y8777570D01*
X7773987Y8779135D01*
X7781184Y8786331D01*
X7860350D01*
Y8838945D01*
X7870510Y8843988D01*
X7874314Y8841099D01*
Y7475188D01*
X7870349Y7466671D01*
X7864154Y7466670D01*
X7791827D01*
X7787632Y7470866D01*
X7765579Y7480000D01*
X7741710D01*
X7719657Y7470866D01*
X7715462Y7466670D01*
X7636940D01*
Y7373330D01*
X7715462D01*
X7719657Y7369135D01*
X7741710Y7360001D01*
X7765579D01*
X7787632Y7369135D01*
X7791827Y7373330D01*
X7870349Y7373330D01*
X7874314Y7364813D01*
Y7348188D01*
X7870349Y7339671D01*
X7864154Y7339670D01*
X7636940D01*
Y7246330D01*
X7864154D01*
X7870349Y7246330D01*
X7874314Y7237813D01*
Y7221188D01*
X7870349Y7212671D01*
X7864154Y7212670D01*
X7636940D01*
Y7119330D01*
X7864154D01*
X7870349Y7119330D01*
X7874314Y7110813D01*
Y7094188D01*
X7870349Y7085670D01*
X7636940D01*
Y7060949D01*
X7633674Y7060300D01*
X7622097Y7052564D01*
X7579533Y7010000D01*
X7558065D01*
X7536013Y7000866D01*
X7519135Y6983987D01*
X7510000Y6961935D01*
Y6938065D01*
X7519135Y6916013D01*
X7536013Y6899135D01*
X7558065Y6890000D01*
X7581935D01*
X7603987Y6899135D01*
X7620866Y6916013D01*
X7626780Y6930291D01*
X7636940Y6928270D01*
Y6865330D01*
X7699817D01*
X7706013Y6859134D01*
X7719791Y6853427D01*
Y6842430D01*
X7716013Y6840865D01*
X7706818Y6831670D01*
X7636940D01*
Y6738330D01*
X7717954D01*
X7738065Y6730000D01*
X7761935D01*
X7782046Y6738330D01*
X7870349Y6738330D01*
X7874314Y6729813D01*
Y6713188D01*
X7870349Y6704671D01*
X7864154Y6704670D01*
X7764801D01*
X7751935Y6710000D01*
X7728065D01*
X7715199Y6704670D01*
X7636940D01*
Y6611330D01*
X7693816D01*
X7706013Y6599134D01*
X7715801Y6595080D01*
Y6584920D01*
X7706013Y6580865D01*
X7702818Y6577670D01*
X7636940D01*
Y6484330D01*
X7700817D01*
X7706013Y6479134D01*
X7719791Y6473427D01*
Y6462430D01*
X7716013Y6460865D01*
X7705818Y6450670D01*
X7636940D01*
Y6357330D01*
X7720368D01*
X7724791Y6355499D01*
Y6344501D01*
X7716013Y6340865D01*
X7699134Y6323987D01*
X7699003Y6323670D01*
X7636940D01*
Y6230330D01*
X7737267D01*
X7738065Y6230000D01*
X7761935D01*
X7762733Y6230330D01*
X7870349Y6230330D01*
X7874314Y6221813D01*
Y6205188D01*
X7870349Y6196671D01*
X7864154Y6196670D01*
X7769972D01*
X7761935Y6200000D01*
X7738065D01*
X7730028Y6196670D01*
X7636940D01*
Y6103330D01*
X7701816D01*
X7716013Y6089134D01*
X7738065Y6080000D01*
X7761935D01*
X7783987Y6089134D01*
X7798184Y6103330D01*
X7870349Y6103330D01*
X7874314Y6094813D01*
Y5951188D01*
X7870349Y5942671D01*
X7864154Y5942670D01*
X7636940D01*
Y5849330D01*
X7864154D01*
X7870349Y5849330D01*
X7874314Y5840813D01*
Y5824188D01*
X7870349Y5815671D01*
X7864154Y5815670D01*
X7636940D01*
Y5814882D01*
X5450004D01*
X4498443Y6766443D01*
X4483558Y6776389D01*
X4466000Y6779882D01*
X4085000D01*
Y6786500D01*
X3835000D01*
Y6681500D01*
X4085000D01*
Y6688118D01*
X4446995D01*
X5398556Y5736557D01*
X5413441Y5726611D01*
X5431000Y5723119D01*
X7636940D01*
Y5722330D01*
X7864154D01*
X7870349Y5722330D01*
X7874314Y5713813D01*
Y5555188D01*
X7870350Y5546671D01*
X7864154Y5546670D01*
X7803896D01*
X7800866Y5553987D01*
X7783987Y5570865D01*
X7761935Y5580000D01*
X7738065D01*
X7716013Y5570865D01*
X7699134Y5553987D01*
X7696104Y5546670D01*
X7636940D01*
Y5453330D01*
X7864154D01*
X7870350Y5453330D01*
X7874314Y5444813D01*
Y5428188D01*
X7870350Y5419671D01*
X7864154Y5419670D01*
X7636940D01*
Y5326330D01*
X7864154D01*
X7870350Y5326330D01*
X7874314Y5317813D01*
Y5301188D01*
X7870350Y5292671D01*
X7864154Y5292670D01*
X7636940D01*
Y5199330D01*
X7864154D01*
X7870350Y5199330D01*
X7874314Y5190813D01*
Y5174188D01*
X7870350Y5165670D01*
X7636940D01*
Y5072330D01*
X7870350D01*
X7874314Y5063813D01*
Y5047188D01*
X7870350Y5038671D01*
X7864154Y5038670D01*
X7776182D01*
X7773987Y5040865D01*
X7751935Y5050000D01*
X7728065D01*
X7706013Y5040865D01*
X7703818Y5038670D01*
X7636940D01*
Y4945330D01*
X7699817D01*
X7706013Y4939134D01*
X7719791Y4933428D01*
Y4922430D01*
X7716013Y4920865D01*
X7706818Y4911670D01*
X7636940D01*
Y4818330D01*
X7717954D01*
X7738065Y4810000D01*
X7761935D01*
X7782046Y4818330D01*
X7870350Y4818330D01*
X7874314Y4809813D01*
Y4793188D01*
X7870350Y4784671D01*
X7864154Y4784670D01*
X7764801D01*
X7751935Y4790000D01*
X7728065D01*
X7715199Y4784670D01*
X7636940D01*
Y4691330D01*
X7693816D01*
X7706013Y4679134D01*
X7715801Y4675080D01*
Y4664920D01*
X7706013Y4660865D01*
X7702818Y4657670D01*
X7636940D01*
Y4564330D01*
X7700817D01*
X7706013Y4559134D01*
X7719791Y4553428D01*
Y4542430D01*
X7716013Y4540865D01*
X7705818Y4530670D01*
X7636940D01*
Y4437330D01*
X7720368D01*
X7724791Y4435499D01*
Y4424501D01*
X7716013Y4420865D01*
X7699134Y4403987D01*
X7699003Y4403670D01*
X7636940D01*
Y4310330D01*
X7737267D01*
X7738065Y4310000D01*
X7761935D01*
X7762733Y4310330D01*
X7870350Y4310330D01*
X7874314Y4301813D01*
Y4285188D01*
X7870350Y4276671D01*
X7864154Y4276670D01*
X7769972D01*
X7761935Y4280000D01*
X7738065D01*
X7730028Y4276670D01*
X7636940D01*
Y4183330D01*
X7701816D01*
X7716013Y4169134D01*
X7738065Y4160000D01*
X7761935D01*
X7783987Y4169134D01*
X7798184Y4183330D01*
X7870350Y4183330D01*
X7874314Y4174813D01*
Y4031188D01*
X7870350Y4022671D01*
X7864154Y4022670D01*
X7636940D01*
Y3929330D01*
X7864154D01*
X7870350Y3929330D01*
X7874314Y3920813D01*
Y3904188D01*
X7870350Y3895671D01*
X7864154Y3895670D01*
X7636940D01*
Y3894882D01*
X7070005D01*
X5592943Y5371943D01*
X5578058Y5381889D01*
X5560500Y5385382D01*
X4090000D01*
Y5392000D01*
X3840000D01*
Y5287000D01*
X4090000D01*
Y5293619D01*
X5541495D01*
X7018557Y3816557D01*
X7033442Y3806611D01*
X7051000Y3803119D01*
X7636940D01*
Y3802330D01*
X7864154D01*
X7870350Y3802330D01*
X7874314Y3793813D01*
Y3605057D01*
X7865350Y3602171D01*
X7864154Y3602171D01*
X7786828D01*
X7782632Y3606366D01*
X7760580Y3615501D01*
X7736710D01*
X7714658Y3606366D01*
X7710462Y3602171D01*
X7631940D01*
Y3508831D01*
X7710462D01*
X7714658Y3504635D01*
X7736710Y3495501D01*
X7760580D01*
X7782632Y3504635D01*
X7786828Y3508831D01*
X7864154D01*
X7865350Y3508830D01*
X7874314Y3505944D01*
Y3478057D01*
X7865350Y3475171D01*
X7864154Y3475171D01*
X7631940D01*
Y3381831D01*
X7864154D01*
X7865350Y3381830D01*
X7874314Y3378944D01*
Y3351057D01*
X7865350Y3348171D01*
Y3348171D01*
X7631940D01*
Y3254831D01*
X7841088D01*
X7844976Y3245444D01*
X7821389Y3221856D01*
X7760315D01*
X7756867Y3221171D01*
X7631940D01*
Y3127831D01*
X7835268D01*
X7839156Y3118444D01*
X7814883Y3094171D01*
X7631940D01*
Y3000831D01*
X7835268D01*
X7839156Y2991444D01*
X7814883Y2967171D01*
X7631940D01*
Y2873831D01*
X7835268D01*
X7839156Y2864444D01*
X7814883Y2840171D01*
X7631940D01*
Y2746831D01*
X7835268D01*
X7839156Y2737444D01*
X7814883Y2713171D01*
X7631940D01*
Y2619831D01*
X7835268D01*
X7839156Y2610444D01*
X7814883Y2586171D01*
X7631940D01*
Y2492831D01*
X7835268D01*
X7839156Y2483444D01*
X7814883Y2459171D01*
X7631940D01*
Y2365831D01*
X7835268D01*
X7839156Y2356444D01*
X7814883Y2332171D01*
X7631940D01*
Y2238831D01*
X7865350D01*
Y2281703D01*
X8435234Y2851587D01*
X8442969Y2863164D01*
X8445686Y2876821D01*
Y4170833D01*
X8460865Y4186012D01*
X8470000Y4208065D01*
Y4231934D01*
X8460865Y4253987D01*
X8445686Y4269167D01*
Y5330833D01*
X8460865Y5346013D01*
X8470000Y5368065D01*
Y5391935D01*
X8460865Y5413987D01*
X8445686Y5429167D01*
Y6090833D01*
X8460865Y6106012D01*
X8470000Y6128065D01*
Y6151934D01*
X8460865Y6173987D01*
X8445686Y6189167D01*
Y8010833D01*
X8460865Y8026013D01*
X8470000Y8048065D01*
Y8071935D01*
X8460865Y8093987D01*
X8443987Y8110865D01*
X8421935Y8120000D01*
X8398065D01*
X8384696Y8114462D01*
X8374536Y8121251D01*
Y8149683D01*
X8390866Y8166013D01*
X8400000Y8188065D01*
Y8211935D01*
X8390866Y8233987D01*
X8373987Y8250866D01*
X8351935Y8260000D01*
X8328065D01*
X8310846Y8252867D01*
X8300686Y8258813D01*
Y8275833D01*
X8310866Y8286013D01*
X8320000Y8308065D01*
Y8331935D01*
X8310866Y8353987D01*
X8293987Y8370866D01*
X8271935Y8380000D01*
X8248065D01*
X8235846Y8374939D01*
X8225686Y8381727D01*
Y8400833D01*
X8240865Y8416013D01*
X8250000Y8438065D01*
Y8461935D01*
X8240865Y8483987D01*
X8223987Y8500866D01*
X8201935Y8510000D01*
X8178065D01*
X8165846Y8504939D01*
X8156660Y8511076D01*
X8156074Y8521221D01*
X8170866Y8536013D01*
X8180000Y8558065D01*
Y8581935D01*
X8170866Y8603987D01*
X8153987Y8620865D01*
X8131935Y8630000D01*
X8108065D01*
X8095846Y8624938D01*
X8085686Y8631727D01*
Y8660833D01*
X8100865Y8676013D01*
X8110000Y8698065D01*
Y8721935D01*
X8100865Y8743987D01*
X8083987Y8760866D01*
X8061935Y8770000D01*
X8038065D01*
X8025846Y8764939D01*
X8015686Y8771727D01*
Y8790833D01*
X8030866Y8806013D01*
X8040000Y8828065D01*
Y8851935D01*
X8030866Y8873987D01*
X8013987Y8890866D01*
X7991935Y8900000D01*
X7968065D01*
X7946013Y8890866D01*
X7939920Y8884772D01*
X7935234Y8885234D01*
X7860350Y8960118D01*
Y9006671D01*
D02*
G37*
G36*
X4075000Y9496500D02*
X3855000D01*
Y9396500D01*
X4075000D01*
Y9399014D01*
X4085160Y9399954D01*
X5184057Y8301057D01*
X5198942Y8291111D01*
X5216500Y8287618D01*
X5294240D01*
Y8285560D01*
X5500610D01*
Y8287618D01*
X5533500D01*
X5551058Y8291111D01*
X5565943Y8301057D01*
X5809005Y8544119D01*
X6010995D01*
X6037287Y8517827D01*
X6033399Y8508440D01*
X5999488D01*
X5996562Y8511366D01*
X5974510Y8520500D01*
X5950640D01*
X5928588Y8511366D01*
X5925662Y8508440D01*
X5859390D01*
Y8412560D01*
X5925662D01*
X5928588Y8409634D01*
X5950640Y8400500D01*
X5974510D01*
X5996562Y8409634D01*
X5999488Y8412560D01*
X6065760D01*
Y8476079D01*
X6075147Y8479967D01*
X6252920Y8302194D01*
Y8269600D01*
X6316407D01*
X6316873Y8269134D01*
X6338925Y8260000D01*
X6362794D01*
X6384847Y8269134D01*
X6385313Y8269600D01*
X6448800D01*
Y8366194D01*
X6457095Y8374903D01*
X6459742Y8374376D01*
X6471200D01*
Y8364850D01*
X6523258D01*
Y8275150D01*
X6471200D01*
Y8174350D01*
X6667080D01*
Y8275150D01*
X6615021D01*
Y8364850D01*
X6667080D01*
Y8465650D01*
X6566594D01*
X6564132Y8466140D01*
X6478747D01*
X6232443Y8712443D01*
X6217559Y8722389D01*
X6200000Y8725881D01*
X5750000D01*
X5732442Y8722389D01*
X5717557Y8712443D01*
X5511495Y8506382D01*
X5500610D01*
Y8508440D01*
X5294240D01*
Y8412560D01*
X5500610D01*
Y8414618D01*
X5530500D01*
X5536571Y8415826D01*
X5541576Y8406462D01*
X5514495Y8379382D01*
X5500610D01*
Y8381440D01*
X5294240D01*
Y8379382D01*
X5235505D01*
X4135943Y9478943D01*
X4121058Y9488889D01*
X4103500Y9492382D01*
X4075000D01*
Y9496500D01*
D02*
G37*
G36*
X6936000Y8395000D02*
X6744000D01*
Y8245000D01*
X6936000D01*
Y8395000D01*
D02*
G37*
G36*
X6065760Y8381440D02*
X5859390D01*
Y8285560D01*
X5916693D01*
Y8254440D01*
X5859390D01*
Y8158560D01*
X6065760D01*
Y8254440D01*
X6008456D01*
Y8285560D01*
X6065760D01*
Y8381440D01*
D02*
G37*
G36*
X5115435Y8266500D02*
X5091565D01*
X5069513Y8257366D01*
X5052635Y8240487D01*
X5043500Y8218435D01*
Y8194565D01*
X5052635Y8172513D01*
X5069513Y8155634D01*
X5091565Y8146500D01*
X5115435D01*
X5137487Y8155634D01*
X5142471Y8160618D01*
X5294240D01*
Y8158560D01*
X5500610D01*
Y8254440D01*
X5294240D01*
Y8252382D01*
X5142471D01*
X5137487Y8257366D01*
X5115435Y8266500D01*
D02*
G37*
G36*
X7751935Y8630000D02*
X7728065D01*
X7717614Y8625671D01*
X7626940D01*
Y8532331D01*
X7692816D01*
X7706013Y8519134D01*
X7715801Y8515080D01*
Y8504920D01*
X7706013Y8500866D01*
X7703818Y8498671D01*
X7626940D01*
Y8405331D01*
X7699816D01*
X7706013Y8399135D01*
X7719791Y8393428D01*
Y8382431D01*
X7716013Y8380866D01*
X7706818Y8371671D01*
X7626940D01*
Y8278331D01*
X7717953D01*
X7724791Y8275499D01*
Y8264501D01*
X7716013Y8260866D01*
X7699818Y8244671D01*
X7626940D01*
Y8151331D01*
X7734853D01*
X7738065Y8150000D01*
X7761935D01*
X7765147Y8151331D01*
X7860350D01*
Y8244671D01*
X7800182D01*
X7783987Y8260866D01*
X7779828Y8262589D01*
X7778748Y8273888D01*
X7784196Y8278331D01*
X7860350D01*
Y8371671D01*
X7793182D01*
X7783987Y8380866D01*
X7770209Y8386573D01*
Y8397570D01*
X7773987Y8399135D01*
X7780184Y8405331D01*
X7860350D01*
Y8498671D01*
X7776182D01*
X7773987Y8500866D01*
X7764199Y8504920D01*
Y8515080D01*
X7773987Y8519134D01*
X7787184Y8532331D01*
X7860350D01*
Y8625671D01*
X7762386D01*
X7751935Y8630000D01*
D02*
G37*
G36*
X5409360Y8139500D02*
X5385490D01*
X5363438Y8130366D01*
X5360512Y8127440D01*
X5294240D01*
Y8031560D01*
X5360512D01*
X5363438Y8028634D01*
X5385490Y8019500D01*
X5409360D01*
X5431412Y8028634D01*
X5434338Y8031560D01*
X5500610D01*
Y8127440D01*
X5434338D01*
X5431412Y8130366D01*
X5409360Y8139500D01*
D02*
G37*
G36*
X7761935Y8120000D02*
X7738065D01*
X7732443Y8117671D01*
X7626940D01*
Y8024331D01*
X7700816D01*
X7716013Y8009134D01*
X7738065Y8000000D01*
X7761935D01*
X7783987Y8009134D01*
X7799184Y8024331D01*
X7860350D01*
Y8117671D01*
X7767557D01*
X7761935Y8120000D01*
D02*
G37*
G36*
X7860350Y7863671D02*
X7626940D01*
Y7770331D01*
X7860350D01*
Y7863671D01*
D02*
G37*
G36*
X6956040Y7780040D02*
X6783960D01*
Y7608041D01*
X6249620D01*
X6232062Y7604549D01*
X6217177Y7594603D01*
X6178956Y7556382D01*
X6054880D01*
Y7558400D01*
X5849390D01*
Y7462600D01*
X6054880D01*
Y7464619D01*
X6197960D01*
X6215519Y7468111D01*
X6230404Y7478057D01*
X6268625Y7516278D01*
X6304827D01*
X6308662Y7506118D01*
X6296815Y7485598D01*
X6290000Y7460165D01*
Y7441652D01*
X6277729Y7429382D01*
X6054880D01*
Y7431400D01*
X5849390D01*
Y7335600D01*
X6054880D01*
Y7337619D01*
X6296734D01*
X6314292Y7341111D01*
X6329177Y7351057D01*
X6339060Y7360940D01*
X6351401Y7353815D01*
X6376834Y7347000D01*
X6403165D01*
X6428598Y7353815D01*
X6451401Y7366980D01*
X6470019Y7385599D01*
X6476959Y7397618D01*
X6795118D01*
X6801151Y7387170D01*
X6817170Y7371151D01*
X6836789Y7359823D01*
X6858672Y7353960D01*
X6881327D01*
X6903210Y7359823D01*
X6922829Y7371151D01*
X6938849Y7387170D01*
X6950176Y7406790D01*
X6956040Y7428672D01*
Y7451327D01*
X6950176Y7473210D01*
X6938849Y7492830D01*
X6925560Y7506118D01*
X6929421Y7516278D01*
X7198835D01*
X7270000Y7445114D01*
Y7438065D01*
X7279135Y7416013D01*
X7296013Y7399135D01*
X7318065Y7390000D01*
X7341935D01*
X7363987Y7399135D01*
X7380866Y7416013D01*
X7390000Y7438065D01*
Y7461935D01*
X7380866Y7483987D01*
X7363987Y7500866D01*
X7341935Y7510000D01*
X7334887D01*
X7250283Y7594603D01*
X7235399Y7604549D01*
X7217840Y7608041D01*
X6956040D01*
Y7780040D01*
D02*
G37*
G36*
X5305000Y7826000D02*
X5155000D01*
Y7634000D01*
X5255566D01*
X5260000Y7633118D01*
X5261995D01*
X5284238Y7610875D01*
Y7513400D01*
X5285120Y7508967D01*
Y7462600D01*
X5350912D01*
X5353878Y7459635D01*
X5375930Y7450500D01*
X5399799D01*
X5421852Y7459635D01*
X5424818Y7462600D01*
X5490610D01*
Y7558400D01*
X5424818D01*
X5421852Y7561366D01*
X5399799Y7570500D01*
X5376001D01*
Y7629880D01*
X5372509Y7647438D01*
X5362563Y7662323D01*
X5313443Y7711443D01*
X5305000Y7717085D01*
Y7826000D01*
D02*
G37*
G36*
X8701935Y7510000D02*
X8678065D01*
X8656013Y7500866D01*
X8639134Y7483987D01*
X8631962Y7466670D01*
X8579650D01*
Y7373330D01*
X8813059D01*
Y7466670D01*
X8748038D01*
X8740865Y7483987D01*
X8723987Y7500866D01*
X8701935Y7510000D01*
D02*
G37*
G36*
X8541935Y7370000D02*
X8518065D01*
X8496013Y7360866D01*
X8479134Y7343988D01*
X8470000Y7321935D01*
Y7298066D01*
X8479134Y7276013D01*
X8496013Y7259135D01*
X8499769Y7257579D01*
X8512442Y7249111D01*
X8530000Y7245619D01*
X8694854D01*
X8698432Y7246330D01*
X8813059D01*
Y7339670D01*
X8582654D01*
X8580865Y7343988D01*
X8563987Y7360866D01*
X8541935Y7370000D01*
D02*
G37*
G36*
X5399799Y7316500D02*
X5375930D01*
X5353878Y7307366D01*
X5350912Y7304400D01*
X5285120D01*
Y7208600D01*
X5350912D01*
X5353878Y7205635D01*
X5375930Y7196500D01*
X5399799D01*
X5421852Y7205635D01*
X5424818Y7208600D01*
X5490610D01*
Y7304400D01*
X5424818D01*
X5421852Y7307366D01*
X5399799Y7316500D01*
D02*
G37*
G36*
X6054880Y7304400D02*
X5849390D01*
Y7208600D01*
X6054880D01*
Y7210619D01*
X6288824D01*
Y7153000D01*
X6291789Y7138097D01*
X6282425Y7133093D01*
X6253574Y7161943D01*
X6238689Y7171889D01*
X6221131Y7175382D01*
X6054880D01*
Y7177400D01*
X5849390D01*
Y7081600D01*
X6054880D01*
Y7083619D01*
X6202126D01*
X6518188Y6767557D01*
X6533073Y6757611D01*
X6550631Y6754119D01*
X6731029D01*
X6736013Y6749135D01*
X6758065Y6740000D01*
X6781935D01*
X6803987Y6749135D01*
X6820865Y6766013D01*
X6830000Y6788065D01*
Y6811935D01*
X6820865Y6833987D01*
X6803987Y6850866D01*
X6781935Y6860000D01*
X6758065D01*
X6736013Y6850866D01*
X6731029Y6845882D01*
X6569636D01*
X6330092Y7085425D01*
X6335097Y7094789D01*
X6350000Y7091825D01*
X6430000D01*
X6453411Y7096481D01*
X6473257Y7109742D01*
X6486518Y7129589D01*
X6489309Y7143618D01*
X6795118D01*
X6801151Y7133170D01*
X6817170Y7117151D01*
X6836789Y7105823D01*
X6858672Y7099960D01*
X6881327D01*
X6903210Y7105823D01*
X6922829Y7117151D01*
X6938849Y7133170D01*
X6950176Y7152790D01*
X6956040Y7174672D01*
Y7197327D01*
X6950176Y7219210D01*
X6938849Y7238830D01*
X6922829Y7254849D01*
X6903210Y7266176D01*
X6881327Y7272040D01*
X6858672D01*
X6836789Y7266176D01*
X6817170Y7254849D01*
X6801151Y7238830D01*
X6799160Y7235381D01*
X6490701D01*
X6486518Y7256411D01*
X6473257Y7276257D01*
X6453411Y7289519D01*
X6430000Y7294175D01*
X6350000D01*
X6344602Y7293101D01*
X6335940Y7298889D01*
X6318382Y7302382D01*
X6054880D01*
Y7304400D01*
D02*
G37*
G36*
X5035000Y7456000D02*
X4885000D01*
Y7264000D01*
X4884999D01*
Y7255999D01*
X4885000D01*
Y7064000D01*
X5035000D01*
Y7102201D01*
X5044000Y7105000D01*
Y7105000D01*
X5236000D01*
Y7255000D01*
X5236000D01*
Y7265000D01*
X5236000D01*
Y7415000D01*
X5044000D01*
Y7415000D01*
X5035000Y7417799D01*
Y7456000D01*
D02*
G37*
G36*
X5490610Y7177400D02*
X5285120D01*
Y7081600D01*
X5344118D01*
Y6995999D01*
X5315000D01*
Y6804000D01*
X5344118D01*
Y6668971D01*
X5339134Y6663987D01*
X5330000Y6641935D01*
Y6618065D01*
X5339134Y6596013D01*
X5356013Y6579134D01*
X5378065Y6570000D01*
X5401935D01*
X5423987Y6579134D01*
X5440865Y6596013D01*
X5450000Y6618065D01*
Y6641935D01*
X5440865Y6663987D01*
X5435881Y6668971D01*
Y6804000D01*
X5464999D01*
Y6995999D01*
X5435881D01*
Y7081600D01*
X5490610D01*
Y7177400D01*
D02*
G37*
G36*
X4085000Y6659500D02*
X3835000D01*
Y6554500D01*
X4085000D01*
Y6659500D01*
D02*
G37*
G36*
X4090000Y5265000D02*
X3840000D01*
Y5160000D01*
X4090000D01*
Y5265000D01*
D02*
G37*
G36*
X4085000Y3892500D02*
X3835000D01*
Y3787500D01*
X4085000D01*
Y3892500D01*
D02*
G37*
G36*
X5600000Y3640000D02*
X5360000D01*
Y3585686D01*
X4900000D01*
Y3640000D01*
X4660000D01*
Y3460000D01*
X4900000D01*
Y3514314D01*
X5360000D01*
Y3460000D01*
X5600000D01*
Y3514314D01*
X5797219D01*
X5975000Y3336533D01*
Y3195001D01*
X6027299D01*
Y3121281D01*
X5954085D01*
Y3045721D01*
X6171885D01*
Y3121281D01*
X6098671D01*
Y3195001D01*
X6125000D01*
Y3387000D01*
X6025468D01*
X5837234Y3575234D01*
X5825657Y3582969D01*
X5812001Y3585686D01*
X5600000D01*
Y3640000D01*
D02*
G37*
G36*
X8721935Y3740000D02*
X8698065D01*
X8676013Y3730866D01*
X8659135Y3713987D01*
X8650000Y3691935D01*
Y3668065D01*
X8659135Y3646013D01*
X8664119Y3641029D01*
Y3602171D01*
X8574650D01*
Y3508831D01*
X8808060D01*
Y3602171D01*
X8755882D01*
Y3641029D01*
X8760866Y3646013D01*
X8770000Y3668065D01*
Y3691935D01*
X8760866Y3713987D01*
X8743987Y3730866D01*
X8721935Y3740000D01*
D02*
G37*
G36*
X4366000Y3545000D02*
X4174000D01*
Y3395000D01*
X4366000D01*
Y3545000D01*
D02*
G37*
G36*
X4085000Y4019500D02*
X3835000D01*
Y3914500D01*
X4085000D01*
Y3921118D01*
X6663995D01*
X7494118Y3090995D01*
Y2860930D01*
X7486000Y2856001D01*
X7483958Y2856000D01*
X7344468D01*
X7295686Y2904783D01*
Y3041000D01*
X7292969Y3054657D01*
X7285234Y3066234D01*
X7056234Y3295234D01*
X7044656Y3302969D01*
X7031000Y3305686D01*
X6610000D01*
X6596344Y3302969D01*
X6584766Y3295234D01*
X6414766Y3125234D01*
X6407031Y3113656D01*
X6404314Y3100000D01*
Y2821000D01*
Y2761000D01*
X6407031Y2747344D01*
X6414766Y2735767D01*
X6447499Y2703034D01*
Y2681566D01*
X6456634Y2659514D01*
X6473512Y2642636D01*
X6495565Y2633501D01*
X6519434D01*
X6519677Y2633602D01*
X6528125Y2627957D01*
Y2525721D01*
Y2460721D01*
X6695458D01*
X6754314Y2401864D01*
Y2081000D01*
X6757031Y2067344D01*
X6764767Y2055767D01*
X6944767Y1875766D01*
X6956344Y1868031D01*
X6970001Y1865314D01*
X7035000D01*
Y1805000D01*
X7185000D01*
Y1997000D01*
X7035000D01*
Y1936686D01*
X6984782D01*
X6825686Y2095782D01*
Y2211572D01*
X6835073Y2215460D01*
X6964766Y2085767D01*
X6976343Y2078031D01*
X6990000Y2075315D01*
X7025000D01*
Y2015001D01*
X7175000D01*
Y2207000D01*
X7025000D01*
Y2146686D01*
X7004781D01*
X6885686Y2265782D01*
Y2440000D01*
X6882969Y2453656D01*
X6875234Y2465234D01*
X6789588Y2550879D01*
X6786159Y2556012D01*
X6759515Y2582655D01*
X6763724Y2592815D01*
X6798718D01*
X7025000Y2366533D01*
Y2225001D01*
X7175000D01*
Y2417000D01*
X7075467D01*
X7066854Y2425614D01*
X7070742Y2435001D01*
X7175000D01*
Y2627000D01*
X7075467D01*
X7000464Y2702004D01*
X7004352Y2711391D01*
X7119450D01*
Y2711390D01*
X7120551D01*
Y2711391D01*
X7249450D01*
Y2745315D01*
X7294001D01*
Y2706001D01*
X7483958D01*
X7486000Y2706000D01*
X7494118Y2701071D01*
Y2043110D01*
X7497611Y2025552D01*
X7507557Y2010667D01*
X7631940Y1886284D01*
Y1857831D01*
X7710462D01*
X7714658Y1853635D01*
X7736710Y1844501D01*
X7760580D01*
X7782632Y1853635D01*
X7786828Y1857831D01*
X7865350D01*
Y1951171D01*
X7786828D01*
X7782632Y1955366D01*
X7760580Y1964501D01*
X7736710D01*
X7714658Y1955366D01*
X7710462Y1951171D01*
X7696826D01*
X7672553Y1975444D01*
X7676441Y1984831D01*
X7865350D01*
Y2078171D01*
X7631940D01*
Y2029331D01*
X7622553Y2025443D01*
X7585881Y2062115D01*
Y3110000D01*
X7582389Y3127558D01*
X7572443Y3142443D01*
X6715443Y3999443D01*
X6700558Y4009389D01*
X6683000Y4012881D01*
X4085000D01*
Y4019500D01*
D02*
G37*
G36*
X4090000Y3073000D02*
X3840000D01*
Y2968000D01*
X4039533D01*
X4052146Y2955387D01*
X4048258Y2946000D01*
X3840000D01*
Y2841000D01*
X4048258D01*
X4052146Y2831613D01*
X4039533Y2819000D01*
X3840000D01*
Y2714000D01*
X4048258D01*
X4052146Y2704613D01*
X4039533Y2692000D01*
X3840000D01*
Y2587000D01*
X4090000D01*
Y2641533D01*
X4171283Y2722815D01*
X5954085D01*
Y2720721D01*
X6171885D01*
Y2785721D01*
Y2850721D01*
Y2915721D01*
Y2991281D01*
X5954085D01*
Y2989187D01*
X4119280D01*
X4090000Y3018467D01*
Y3073000D01*
D02*
G37*
G36*
X6311935Y2761000D02*
X6288065D01*
X6266013Y2751866D01*
X6249135Y2734988D01*
X6240000Y2712935D01*
Y2689066D01*
X6249135Y2667013D01*
X6266013Y2650135D01*
X6288065Y2641001D01*
X6311935D01*
X6333987Y2650135D01*
X6350866Y2667013D01*
X6360000Y2689066D01*
Y2712935D01*
X6350866Y2734988D01*
X6333987Y2751866D01*
X6311935Y2761000D01*
D02*
G37*
G36*
X8701935Y2350000D02*
X8678065D01*
X8656013Y2340866D01*
X8647318Y2332171D01*
X8574650D01*
Y2238831D01*
X8656746D01*
X8678065Y2230000D01*
X8701935D01*
X8723254Y2238831D01*
X8808060D01*
Y2332171D01*
X8732682D01*
X8723987Y2340866D01*
X8701935Y2350000D01*
D02*
G37*
G36*
X6171885Y2601281D02*
X5954085D01*
Y2599187D01*
X5663500D01*
X5649844Y2596470D01*
X5638267Y2588735D01*
X5515532Y2466000D01*
X5374000D01*
Y2316001D01*
X5566000D01*
Y2415533D01*
X5678282Y2527815D01*
X5954085D01*
Y2511189D01*
X5844766Y2401870D01*
X5837031Y2390292D01*
X5834314Y2376636D01*
Y2234781D01*
X5735533Y2136000D01*
X5594000D01*
Y1986000D01*
X5786000D01*
Y2085533D01*
X5895234Y2194766D01*
X5902969Y2206344D01*
X5905686Y2220000D01*
Y2361855D01*
X6004552Y2460721D01*
X6171885D01*
Y2525721D01*
Y2601281D01*
D02*
G37*
G36*
X8703289Y2218501D02*
X8679420D01*
X8657367Y2209366D01*
X8653172Y2205171D01*
X8574650D01*
Y2111831D01*
X8653172D01*
X8657367Y2107635D01*
X8674595Y2100499D01*
Y2089502D01*
X8657367Y2082366D01*
X8653172Y2078171D01*
X8574650D01*
Y1984831D01*
X8653172D01*
X8657367Y1980635D01*
X8674595Y1973499D01*
Y1962502D01*
X8657367Y1955366D01*
X8653172Y1951171D01*
X8574650D01*
Y1857831D01*
X8653172D01*
X8657367Y1853635D01*
X8679420Y1844501D01*
X8703289D01*
X8725342Y1853635D01*
X8729538Y1857831D01*
X8808060D01*
Y1951171D01*
X8729538D01*
X8725342Y1955366D01*
X8708114Y1962502D01*
Y1973499D01*
X8725342Y1980635D01*
X8729538Y1984831D01*
X8808060D01*
Y2078171D01*
X8729538D01*
X8725342Y2082366D01*
X8708114Y2089502D01*
Y2100499D01*
X8725342Y2107635D01*
X8729538Y2111831D01*
X8808060D01*
Y2205171D01*
X8729538D01*
X8725342Y2209366D01*
X8703289Y2218501D01*
D02*
G37*
G36*
X6455000Y1626000D02*
X6305000D01*
Y1575881D01*
X6225000D01*
Y1626000D01*
X6075000D01*
Y1460938D01*
X6064840Y1457856D01*
X6062443Y1461443D01*
X6025000Y1498886D01*
Y1626000D01*
X5875000D01*
Y1434000D01*
X5960114D01*
X5984119Y1409995D01*
Y1285999D01*
X5955000D01*
Y1094000D01*
X6043618D01*
X6047942Y1091111D01*
X6065500Y1087618D01*
X6174240D01*
Y1085560D01*
X6380610D01*
Y1181440D01*
X6174240D01*
Y1179381D01*
X6105000D01*
Y1285999D01*
X6075882D01*
Y1423840D01*
X6075882Y1429000D01*
X6085246Y1434000D01*
X6225000D01*
Y1484118D01*
X6305000D01*
Y1434000D01*
X6334118D01*
Y1311734D01*
X6331706Y1309321D01*
X6280365D01*
X6275933Y1308440D01*
X6174240D01*
Y1212560D01*
X6380610D01*
Y1229297D01*
X6383154Y1230997D01*
X6412443Y1260286D01*
X6422389Y1275171D01*
X6425881Y1292729D01*
Y1434000D01*
X6455000D01*
Y1626000D01*
D02*
G37*
G36*
X6655000D02*
X6505000D01*
Y1434000D01*
X6655000D01*
Y1484118D01*
X6881029D01*
X6886013Y1479134D01*
X6908065Y1470000D01*
X6931935D01*
X6953987Y1479134D01*
X6970865Y1496013D01*
X6980000Y1518065D01*
Y1541935D01*
X6970865Y1563987D01*
X6953987Y1580866D01*
X6931935Y1590000D01*
X6908065D01*
X6886013Y1580866D01*
X6881028Y1575881D01*
X6655000D01*
Y1626000D01*
D02*
G37*
G36*
X7785000Y1616000D02*
X7635000D01*
Y1424000D01*
X7785000D01*
Y1616000D01*
D02*
G37*
G36*
X7585000D02*
X7435000D01*
Y1424000D01*
X7585000D01*
Y1616000D01*
D02*
G37*
G36*
X7375000D02*
X7225000D01*
Y1424000D01*
X7375000D01*
Y1616000D01*
D02*
G37*
G36*
X5341935Y1405000D02*
X5318065D01*
X5296013Y1395866D01*
X5279134Y1378987D01*
X5270000Y1356935D01*
Y1333065D01*
X5279134Y1311013D01*
X5296013Y1294135D01*
X5318065Y1285000D01*
X5341935D01*
X5363987Y1294135D01*
X5380866Y1311013D01*
X5390000Y1333065D01*
Y1356935D01*
X5380866Y1378987D01*
X5363987Y1395866D01*
X5341935Y1405000D01*
D02*
G37*
G36*
X6945760Y1308440D02*
X6739390D01*
Y1212560D01*
X6945760D01*
Y1308440D01*
D02*
G37*
G36*
X7410610Y1288440D02*
X7204240D01*
Y1192560D01*
X7410610D01*
Y1288440D01*
D02*
G37*
G36*
X7884510Y1300500D02*
X7860640D01*
X7838588Y1291365D01*
X7835662Y1288440D01*
X7769390D01*
Y1192560D01*
X7835662D01*
X7838588Y1189634D01*
X7860640Y1180500D01*
X7884510D01*
X7906562Y1189634D01*
X7909488Y1192560D01*
X7975760D01*
Y1288440D01*
X7909488D01*
X7906562Y1291365D01*
X7884510Y1300500D01*
D02*
G37*
G36*
X5121190Y1325000D02*
X5098809D01*
X5077191Y1319207D01*
X5057809Y1308017D01*
X5041983Y1292191D01*
X5030793Y1272809D01*
X5025000Y1251191D01*
Y1228810D01*
X5030793Y1207191D01*
X5041983Y1187809D01*
X5057809Y1171983D01*
X5077191Y1160793D01*
X5098809Y1155000D01*
X5121190D01*
X5142809Y1160793D01*
X5162191Y1171983D01*
X5178017Y1187809D01*
X5189207Y1207191D01*
X5195000Y1228810D01*
Y1251191D01*
X5189207Y1272809D01*
X5178017Y1292191D01*
X5162191Y1308017D01*
X5142809Y1319207D01*
X5121190Y1325000D01*
D02*
G37*
G36*
X5905000Y1285999D02*
X5755000D01*
Y1094000D01*
X5905000D01*
Y1285999D01*
D02*
G37*
G36*
X6945760Y1181440D02*
X6739390D01*
Y1085560D01*
X6945760D01*
Y1181440D01*
D02*
G37*
G36*
X7975760Y1161440D02*
X7769390D01*
Y1065560D01*
X7975760D01*
Y1161440D01*
D02*
G37*
G36*
X7410610D02*
X7204240D01*
Y1065560D01*
X7410610D01*
Y1161440D01*
D02*
G37*
G36*
X6945760Y1054440D02*
X6739390D01*
Y958560D01*
X6945760D01*
Y1054440D01*
D02*
G37*
G36*
X6105000Y1055999D02*
X5955000D01*
Y864000D01*
X5984119D01*
Y824005D01*
X5933557Y773443D01*
X5923611Y758558D01*
X5920119Y741000D01*
Y686000D01*
X5865000D01*
Y494000D01*
X6015000D01*
Y686000D01*
X6011882D01*
Y721995D01*
X6062443Y772557D01*
X6072389Y787442D01*
X6075882Y805000D01*
Y864000D01*
X6105000D01*
Y960618D01*
X6174240D01*
Y958560D01*
X6380610D01*
Y1054440D01*
X6174240D01*
Y1052381D01*
X6105000D01*
Y1055999D01*
D02*
G37*
G36*
X7975760Y1034440D02*
X7769390D01*
Y938560D01*
X7975760D01*
Y1034440D01*
D02*
G37*
G36*
X7410610D02*
X7204240D01*
Y938560D01*
X7410610D01*
Y1034440D01*
D02*
G37*
G36*
X7175000Y1616000D02*
X7025000D01*
Y1424000D01*
X7049118D01*
Y973971D01*
X7039135Y963987D01*
X7030000Y941934D01*
Y918065D01*
X7039135Y896012D01*
X7056013Y879134D01*
X7078065Y870000D01*
X7101935D01*
X7123987Y879134D01*
X7140866Y896012D01*
X7150000Y918065D01*
Y941934D01*
X7140882Y963948D01*
Y1424000D01*
X7175000D01*
Y1616000D01*
D02*
G37*
G36*
X5905000Y1055999D02*
X5755000D01*
Y864000D01*
X5905000D01*
Y1055999D01*
D02*
G37*
G36*
X8531935Y1090000D02*
X8508066D01*
X8486013Y1080866D01*
X8469135Y1063987D01*
X8460000Y1041935D01*
Y1034887D01*
X8160995Y735881D01*
X7669005D01*
X7540000Y864887D01*
Y871935D01*
X7530866Y893988D01*
X7513987Y910866D01*
X7491935Y920000D01*
X7468065D01*
X7446013Y910866D01*
X7440779Y905632D01*
X7410610D01*
Y907440D01*
X7204240D01*
Y811560D01*
X7353399D01*
X7357287Y802173D01*
X7310995Y755881D01*
X6521175D01*
X6380610Y896446D01*
Y927440D01*
X6314338D01*
X6311412Y930365D01*
X6289360Y939500D01*
X6265490D01*
X6243438Y930365D01*
X6240512Y927440D01*
X6174240D01*
Y831560D01*
X6240512D01*
X6243438Y828634D01*
X6265490Y819500D01*
X6289360D01*
X6311412Y828634D01*
X6314338Y831560D01*
X6315724D01*
X6469727Y677557D01*
X6484612Y667611D01*
X6502170Y664118D01*
X7330000D01*
X7347558Y667611D01*
X7362443Y677557D01*
X7480000Y795114D01*
X7617557Y657557D01*
X7632442Y647611D01*
X7650000Y644118D01*
X8180000D01*
X8197558Y647611D01*
X8212443Y657557D01*
X8524887Y970000D01*
X8531935D01*
X8553987Y979135D01*
X8570866Y996013D01*
X8580000Y1018066D01*
Y1041935D01*
X8570866Y1063987D01*
X8553987Y1080866D01*
X8531935Y1090000D01*
D02*
G37*
G36*
X4283988Y706250D02*
X4256012D01*
X4228989Y699009D01*
X4204761Y685021D01*
X4184979Y665239D01*
X4170991Y641011D01*
X4163750Y613988D01*
Y586012D01*
X4170991Y558989D01*
X4184979Y534761D01*
X4204761Y514979D01*
X4228989Y500991D01*
X4256012Y493750D01*
X4283988D01*
X4311011Y500991D01*
X4335239Y514979D01*
X4355021Y534761D01*
X4369009Y558989D01*
X4376250Y586012D01*
Y613988D01*
X4369009Y641011D01*
X4355021Y665239D01*
X4335239Y685021D01*
X4311011Y699009D01*
X4283988Y706250D01*
D02*
G37*
G36*
X7884040Y526040D02*
X7711960D01*
Y353960D01*
X7884040D01*
Y526040D01*
D02*
G37*
G36*
X7555328D02*
X7532673D01*
X7510790Y520176D01*
X7491170Y508849D01*
X7475151Y492830D01*
X7463824Y473210D01*
X7457960Y451327D01*
Y428672D01*
X7463824Y406790D01*
X7475151Y387170D01*
X7491170Y371151D01*
X7510790Y359824D01*
X7532673Y353960D01*
X7555328D01*
X7577210Y359824D01*
X7596830Y371151D01*
X7612849Y387170D01*
X7624177Y406790D01*
X7630040Y428672D01*
Y451327D01*
X7624177Y473210D01*
X7612849Y492830D01*
X7596830Y508849D01*
X7577210Y520176D01*
X7555328Y526040D01*
D02*
G37*
G36*
X7301328D02*
X7278673D01*
X7256790Y520176D01*
X7237170Y508849D01*
X7221151Y492830D01*
X7209824Y473210D01*
X7203960Y451327D01*
Y428672D01*
X7209824Y406790D01*
X7221151Y387170D01*
X7237170Y371151D01*
X7256790Y359824D01*
X7278673Y353960D01*
X7301328D01*
X7323210Y359824D01*
X7342830Y371151D01*
X7358849Y387170D01*
X7370177Y406790D01*
X7376040Y428672D01*
Y451327D01*
X7370177Y473210D01*
X7358849Y492830D01*
X7342830Y508849D01*
X7323210Y520176D01*
X7301328Y526040D01*
D02*
G37*
G36*
X9523638Y740000D02*
X9476362D01*
X9429995Y730777D01*
X9386318Y712685D01*
X9347009Y686420D01*
X9313580Y652991D01*
X9287315Y613683D01*
X9269223Y570005D01*
X9260000Y523638D01*
Y476362D01*
X9269223Y429995D01*
X9287315Y386317D01*
X9313580Y347009D01*
X9347009Y313580D01*
X9386318Y287315D01*
X9429995Y269223D01*
X9476362Y260000D01*
X9523638D01*
X9570005Y269223D01*
X9613683Y287315D01*
X9652991Y313580D01*
X9686420Y347009D01*
X9712685Y386317D01*
X9730777Y429995D01*
X9740000Y476362D01*
Y523638D01*
X9730777Y570005D01*
X9712685Y613683D01*
X9686420Y652991D01*
X9652991Y686420D01*
X9613683Y712685D01*
X9570005Y730777D01*
X9523638Y740000D01*
D02*
G37*
G36*
X5152500Y376028D02*
X5087500D01*
X5067016Y371953D01*
X5049650Y360350D01*
X5038046Y342984D01*
X5033972Y322500D01*
Y257500D01*
X5038046Y237015D01*
X5049650Y219650D01*
X5067016Y208046D01*
X5087500Y203971D01*
X5152500D01*
X5172984Y208046D01*
X5190350Y219650D01*
X5201954Y237015D01*
X5206028Y257500D01*
Y322500D01*
X5201954Y342984D01*
X5190350Y360350D01*
X5172984Y371953D01*
X5152500Y376028D01*
D02*
G37*
G36*
X5361935Y215000D02*
X5338065D01*
X5316013Y205865D01*
X5299134Y188987D01*
X5290000Y166935D01*
Y143065D01*
X5299134Y121013D01*
X5316013Y104134D01*
X5338065Y95000D01*
X5361935D01*
X5383987Y104134D01*
X5400865Y121013D01*
X5410000Y143065D01*
Y166935D01*
X5400865Y188987D01*
X5383987Y205865D01*
X5361935Y215000D01*
D02*
G37*
%LPD*%
G36*
X6427299Y8387815D02*
X6438157Y8380560D01*
X6435075Y8370400D01*
X6385313D01*
X6384847Y8370865D01*
X6362794Y8380000D01*
X6338925D01*
X6317877Y8371281D01*
X6313605D01*
X6062443Y8622443D01*
X6060176Y8623958D01*
X6063258Y8634118D01*
X6180996D01*
X6427299Y8387815D01*
D02*
G37*
G36*
X7224314Y3026219D02*
Y2890001D01*
X7227031Y2876345D01*
X7230755Y2870770D01*
X7225324Y2860610D01*
X7120551D01*
Y2860611D01*
X7119450D01*
Y2860610D01*
X6990550D01*
Y2725192D01*
X6981164Y2721304D01*
X6853733Y2848734D01*
X6842156Y2856470D01*
X6828500Y2859187D01*
X6745925D01*
Y2861281D01*
X6528125D01*
Y2794187D01*
X6517281D01*
X6475686Y2835782D01*
Y3085219D01*
X6624782Y3234314D01*
X7016219D01*
X7224314Y3026219D01*
D02*
G37*
G36*
X7025000Y2576533D02*
Y2480742D01*
X7015613Y2476854D01*
X6838733Y2653735D01*
X6827156Y2661470D01*
X6813499Y2664187D01*
X6745925D01*
Y2787815D01*
X6813718D01*
X7025000Y2576533D01*
D02*
G37*
%LPC*%
G36*
X7119450Y3030611D02*
X6990550D01*
Y2989187D01*
X6745925D01*
Y2991281D01*
X6528125D01*
Y2915721D01*
X6745925D01*
Y2917815D01*
X6990550D01*
Y2881391D01*
X7119450D01*
Y3030611D01*
D02*
G37*
G36*
X3006935Y5780500D02*
X2983065D01*
X2964959Y5773000D01*
X2870000D01*
Y5668000D01*
X2964959D01*
X2978240Y5662499D01*
Y5651502D01*
X2964959Y5646000D01*
X2870000D01*
Y5541000D01*
X2964959D01*
X2978240Y5535499D01*
Y5524502D01*
X2964959Y5519000D01*
X2870000D01*
Y5414000D01*
X2964959D01*
X2978240Y5408499D01*
Y5397502D01*
X2964959Y5392000D01*
X2870000D01*
Y5287000D01*
X2964959D01*
X2983065Y5279500D01*
X3006935D01*
X3025041Y5287000D01*
X3120000D01*
Y5392000D01*
X3025041D01*
X3011759Y5397502D01*
Y5408499D01*
X3025041Y5414000D01*
X3120000D01*
Y5519000D01*
X3025041D01*
X3011759Y5524502D01*
Y5535499D01*
X3025041Y5541000D01*
X3120000D01*
Y5646000D01*
X3025041D01*
X3011759Y5651502D01*
Y5662499D01*
X3025041Y5668000D01*
X3120000D01*
Y5773000D01*
X3025041D01*
X3006935Y5780500D01*
D02*
G37*
G36*
X3120000Y5265000D02*
X2870000D01*
Y5160000D01*
X3120000D01*
Y5265000D01*
D02*
G37*
%LPD*%
D10*
X4980000Y7180000D02*
G03*
X4960000Y7160000I0J-20000D01*
G01*
Y7360000D02*
G03*
X4980000Y7340000I20000J0D01*
G01*
X6639805Y2560721D02*
X6730982D01*
X6760925Y2530778D01*
X6850000Y2251000D02*
Y2440000D01*
X6637025Y2628501D02*
X6813499D01*
X6760925Y2529075D02*
X6850000Y2440000D01*
X6760925Y2529075D02*
Y2530778D01*
X7100000Y2323427D02*
Y2342000D01*
X6813499Y2628501D02*
X7100000Y2342000D01*
X7741975Y7027330D02*
X7753645Y7039000D01*
X7570000Y6950000D02*
X7647330Y7027330D01*
X7741975D01*
X7753645Y7039000D02*
X7881000D01*
X8050000Y6790000D02*
Y8710000D01*
Y6165146D02*
Y6790000D01*
X8190000Y6530000D02*
Y8450000D01*
Y5610000D02*
Y6530000D01*
Y4610000D02*
Y5610000D01*
Y3037820D02*
Y4610000D01*
X8340000Y4360000D02*
Y5460000D01*
Y4269999D02*
Y4360000D01*
X8410000Y6140000D02*
Y8060000D01*
Y5380000D02*
Y6140000D01*
Y4220000D02*
Y5380000D01*
Y2876821D02*
Y4220000D01*
X8338850Y5461150D02*
Y6278850D01*
Y5461150D02*
X8340000Y5460000D01*
X8265000Y4485000D02*
Y5525000D01*
Y4485000D02*
X8270000Y4480000D01*
X8337700Y6280000D02*
X8338850Y6278850D01*
X8265000Y5525000D02*
X8270000Y5530000D01*
Y6400000D01*
X8110000Y5690000D02*
X8117700Y5682300D01*
Y4732300D02*
X8120000Y4730000D01*
Y3094821D02*
Y4730000D01*
X8117700Y4732300D02*
Y5682300D01*
X8042300Y5529121D02*
X8050000Y5521421D01*
X8042300Y5529121D02*
Y6157446D01*
X8115000Y6645000D02*
X8120000Y6650000D01*
X8115000Y5695000D02*
Y6645000D01*
X8120000Y6650000D02*
Y8570000D01*
X8110000Y5690000D02*
X8115000Y5695000D01*
X8050000Y3151820D02*
Y5521421D01*
X8042300Y6157446D02*
X8050000Y6165146D01*
X9270000Y4622574D02*
X9270433Y4622141D01*
X9200433Y4731867D02*
Y4772141D01*
X9210000Y3850000D02*
Y4730000D01*
X9200433Y4731867D02*
X9202300Y4730000D01*
X9270433Y4589567D02*
Y4622141D01*
X9270000Y4622574D02*
Y6500000D01*
X9270433Y4589567D02*
X9280000Y4580000D01*
X9206150Y4733850D02*
X9210000Y4730000D01*
X9200000Y4772574D02*
X9200433Y4772141D01*
X9200000Y4772574D02*
Y6650000D01*
X8270000Y2990821D02*
Y4480000D01*
X8330000Y2923821D02*
Y4259999D01*
X8340000Y4269999D01*
X8992300Y3405411D02*
Y7022299D01*
X9061346Y4983254D02*
X9064600Y4980000D01*
X9062300Y4977700D02*
X9064600Y4980000D01*
X9280000Y3610000D02*
Y4580000D01*
Y3185111D02*
Y3610000D01*
X9350000Y3390000D02*
Y6380000D01*
Y3128111D02*
Y3390000D01*
X9420000Y3071111D02*
Y6257699D01*
Y3071111D02*
X9776111D01*
X9800000Y3095000D01*
X9130433Y4849999D02*
X9131150Y4849282D01*
X9130000Y4110000D02*
X9130433Y4109567D01*
X9131150Y4111150D02*
Y4849282D01*
X9130433Y3289544D02*
Y4109567D01*
X9130000Y4110000D02*
X9131150Y4111150D01*
X9210000Y3242111D02*
Y3850000D01*
X9061346Y4983254D02*
Y6898654D01*
X9060000Y6900000D02*
X9061346Y6898654D01*
X8761390Y3047501D02*
X9062300Y3348411D01*
X9130433Y4849999D02*
Y6768133D01*
X9062300Y3348411D02*
Y4977700D01*
X9418850Y6261149D02*
X9420000Y6259999D01*
X9270000Y6500000D02*
Y8450000D01*
X9200000Y6650000D02*
Y8590000D01*
X9130433Y6769999D02*
X9132300Y6771866D01*
X8996822Y7033177D02*
X9000000Y7029999D01*
X8992300Y7022299D02*
X9000000Y7029999D01*
X8910000Y5102390D02*
Y7022390D01*
Y3450111D02*
Y5102390D01*
X8766390Y5246000D02*
X8910000Y5102390D01*
X8696355Y5246000D02*
X8766390D01*
X8910000Y7022390D02*
Y8940000D01*
X8696354Y7166000D02*
X8766390D01*
X8910000Y7022390D01*
X8761390Y2793501D02*
X9210000Y3242111D01*
X8996822Y8966823D02*
X9000000Y8970000D01*
X8761390Y3174501D02*
X8992300Y3405411D01*
X9065000Y8835000D02*
X9070000Y8840000D01*
X9060000Y6900000D02*
X9065000Y6905000D01*
Y8835000D01*
X8996822Y7033177D02*
Y8966823D01*
X9132300Y8702300D02*
X9140000Y8710000D01*
X9130433Y6768133D02*
X9132300Y6769999D01*
Y6771866D02*
Y8702300D01*
X8761390Y2920501D02*
X9130433Y3289544D01*
X9340000Y8320000D02*
X9345000Y8315000D01*
Y6385000D02*
Y8315000D01*
X9418850Y6261149D02*
Y8198850D01*
X9417700Y6259999D02*
X9420000Y6257699D01*
X9418850Y8198850D02*
X9420000Y8200000D01*
X9345000Y6385000D02*
X9350000Y6380000D01*
X8761390Y2539501D02*
X9350000Y3128111D01*
X8761390Y2412501D02*
X9420000Y3071111D01*
X8761390Y2666501D02*
X9280000Y3185111D01*
X8774670Y9075331D02*
X8910000Y8940000D01*
X8761390Y3301501D02*
X8910000Y3450111D01*
X8698025Y9075331D02*
X8774670D01*
X8686355Y9087001D02*
X8698025Y9075331D01*
X8691355Y2412501D02*
X8761390D01*
X8691355Y2539501D02*
X8761390D01*
X8691355Y2666501D02*
X8761390D01*
X8691355Y2793501D02*
X8761390D01*
X8691355Y2920501D02*
X8761390D01*
X8691355Y3047501D02*
X8761390D01*
X8691355Y3174501D02*
X8761390D01*
X7980000Y6920000D02*
Y8840000D01*
X7825350Y8944650D02*
X7910000Y8860000D01*
Y7010000D02*
Y8860000D01*
X7980000Y5000000D02*
Y6920000D01*
X8691355Y3301501D02*
X8761390D01*
X4980000Y7340000D02*
X5140000D01*
X4980000Y7180000D02*
X5140000D01*
Y7340000D01*
X7880999Y5119000D02*
X7910000Y5090000D01*
X7753645Y5119000D02*
X7880999D01*
X7910000Y5090000D02*
Y7010000D01*
X7881000Y7039000D02*
X7910000Y7010000D01*
Y3260000D02*
Y5090000D01*
X7818680Y2666501D02*
X8190000Y3037820D01*
X8265000Y6405000D02*
X8270000Y6400000D01*
X8260000Y8320000D02*
X8265000Y8315000D01*
X8338850Y8198850D02*
X8340000Y8200000D01*
X8265000Y6405000D02*
Y8315000D01*
X7818680Y2539501D02*
X8270000Y2990821D01*
X8338850Y6288850D02*
Y8198850D01*
X7818680Y2412501D02*
X8330000Y2923821D01*
X7818680Y2285501D02*
X8410000Y2876821D01*
X7748645Y2539501D02*
X7818680D01*
X7836171Y3186171D02*
X7910000Y3260000D01*
X7818680Y3047501D02*
X7980000Y3208821D01*
Y5000000D01*
X7818680Y2920501D02*
X8050000Y3151820D01*
X7818680Y2793501D02*
X8120000Y3094821D01*
X7743645Y8960001D02*
X7813680D01*
X7825350Y8948331D01*
Y8944650D02*
Y8948331D01*
X7748645Y2285501D02*
X7818680D01*
X7748645Y2412501D02*
X7818680D01*
X7748645Y2666501D02*
X7818680D01*
X7748645Y2793501D02*
X7818680D01*
X7748645Y2920501D02*
X7818680D01*
X7748645Y3047501D02*
X7818680D01*
X7760315Y3186171D02*
X7836171D01*
X7748645Y3174501D02*
X7760315Y3186171D01*
X8616820Y2290000D02*
X8690000D01*
X7060000Y2781001D02*
X7369001D01*
X6610000Y3270000D02*
X7031000D01*
X6440000Y3100000D02*
X6610000Y3270000D01*
X6440000Y2821000D02*
Y3100000D01*
X7031000Y3270000D02*
X7260000Y3041000D01*
X4780000Y3550000D02*
X5480000D01*
X5812001D01*
X6050000Y3312000D01*
Y3291001D02*
Y3312000D01*
X5870000Y2376636D02*
X5991865Y2498501D01*
X6062985D01*
X6060486Y2891001D02*
X6062985Y2888501D01*
X6050000Y3291001D02*
X6062985Y3278016D01*
Y3083501D02*
Y3278016D01*
X6440000Y2761000D02*
Y2821000D01*
X6502500Y2758501D01*
X6440000Y2761000D02*
X6507499Y2693501D01*
X6708145Y2498501D02*
X6790000Y2416646D01*
X6507499Y2693501D02*
X6637025D01*
X6502500Y2758501D02*
X6637025D01*
Y2498501D02*
X6708145D01*
X6637025Y2563501D02*
X6639805Y2560721D01*
X6637025Y2953501D02*
X7052500D01*
X6637025Y2823501D02*
X6828500D01*
X7100000Y2552000D01*
Y2531001D02*
Y2552000D01*
X7260000Y2890001D02*
X7369001Y2781001D01*
X7260000Y2890001D02*
Y3041000D01*
X7369001Y2781001D02*
X7390000D01*
X7055000Y2786001D02*
X7060000Y2781001D01*
X7052500Y2953501D02*
X7055000Y2956001D01*
X5663500Y2563501D02*
X6062985D01*
X6970001Y1901000D02*
X7110000D01*
X6990000Y2111001D02*
X7100000D01*
X5491000Y2391001D02*
X5663500Y2563501D01*
X5870000Y2220000D02*
Y2376636D01*
X5711000Y2061000D02*
X5870000Y2220000D01*
X6790000Y2081000D02*
Y2416646D01*
Y2081000D02*
X6970001Y1901000D01*
X6850000Y2251000D02*
X6990000Y2111001D01*
X3962500Y3013000D02*
X4045000D01*
X4104499Y2953501D01*
X6062985D01*
X3965000Y2893500D02*
X3967499Y2891001D01*
X6060486D01*
X3965000Y2766500D02*
X4037500D01*
X4094501Y2823501D01*
X6062985D01*
X3965000Y2639500D02*
X4037500D01*
X4156501Y2758501D01*
X6062985D01*
D11*
X1690000Y2165000D02*
D03*
Y1735000D02*
D03*
D12*
X380000Y2772500D02*
D03*
X840000D02*
D03*
X610000D02*
D03*
D13*
Y3407500D02*
D03*
D14*
X880000Y3650000D02*
D03*
X680000D02*
D03*
X880000Y3870000D02*
D03*
X680000D02*
D03*
X884999Y4180495D02*
D03*
X684999D02*
D03*
X880000Y4400000D02*
D03*
X680000D02*
D03*
X5230000Y7730000D02*
D03*
X5430000D02*
D03*
X6580000Y1530000D02*
D03*
X6380000D02*
D03*
X2220000Y1190000D02*
D03*
X2420000D02*
D03*
X2930000Y9090000D02*
D03*
X3130000D02*
D03*
X5590000Y6900000D02*
D03*
X5390000D02*
D03*
X3710000Y9090000D02*
D03*
X3910000D02*
D03*
X6150000Y1530000D02*
D03*
X5950000D02*
D03*
X360000Y1450000D02*
D03*
X560000D02*
D03*
X4960000Y7160000D02*
D03*
X4760000D02*
D03*
X7510000Y1520000D02*
D03*
X7710000D02*
D03*
X7100000D02*
D03*
X7300000D02*
D03*
X1450000Y9740000D02*
D03*
X1650000D02*
D03*
X4960000Y7360000D02*
D03*
X4760000D02*
D03*
X6030000Y1190000D02*
D03*
X5830000D02*
D03*
X6030000Y960000D02*
D03*
X5830000D02*
D03*
X5940000Y590000D02*
D03*
X6140000D02*
D03*
X1640000Y9190000D02*
D03*
X1440000D02*
D03*
X7300000Y2321000D02*
D03*
X7100000D02*
D03*
X5850000Y3291001D02*
D03*
X6050000D02*
D03*
X7300000Y2531001D02*
D03*
X7100000D02*
D03*
X7300000Y2111001D02*
D03*
X7100000D02*
D03*
X7310000Y1901000D02*
D03*
X7110000D02*
D03*
X1390000Y2590000D02*
D03*
X1190000D02*
D03*
D15*
X5952135Y7256500D02*
D03*
Y7383500D02*
D03*
Y7510500D02*
D03*
X5387865D02*
D03*
Y7256500D02*
D03*
Y7129500D02*
D03*
X5952135D02*
D03*
X5387865Y7383500D02*
D03*
D16*
X5397425Y8460500D02*
D03*
Y8333500D02*
D03*
Y8206500D02*
D03*
Y8079500D02*
D03*
X5962575Y8206500D02*
D03*
Y8333500D02*
D03*
Y8460500D02*
D03*
Y8079500D02*
D03*
X7307425Y1240500D02*
D03*
Y1113500D02*
D03*
Y986500D02*
D03*
Y859500D02*
D03*
X7872575D02*
D03*
Y986500D02*
D03*
Y1113500D02*
D03*
Y1240500D02*
D03*
X6277425Y1260500D02*
D03*
Y1133500D02*
D03*
Y1006500D02*
D03*
Y879500D02*
D03*
X6842575D02*
D03*
Y1006500D02*
D03*
Y1133500D02*
D03*
Y1260500D02*
D03*
D17*
X6569140Y8224750D02*
D03*
Y8415250D02*
D03*
X6350860Y8320000D02*
D03*
D18*
X3950000Y8760000D02*
D03*
Y8633000D02*
D03*
Y8506000D02*
D03*
Y8379000D02*
D03*
Y8252000D02*
D03*
Y8125000D02*
D03*
Y7998000D02*
D03*
Y7871000D02*
D03*
X2980000Y7998000D02*
D03*
Y7871000D02*
D03*
Y8633000D02*
D03*
Y8125000D02*
D03*
Y8506000D02*
D03*
Y8252000D02*
D03*
Y8760000D02*
D03*
Y8379000D02*
D03*
X3965000Y3147500D02*
D03*
Y2385500D02*
D03*
Y2639500D02*
D03*
Y2766500D02*
D03*
Y2893500D02*
D03*
Y3020500D02*
D03*
Y2512500D02*
D03*
Y3274500D02*
D03*
X2995000Y2385500D02*
D03*
Y3147500D02*
D03*
Y3020500D02*
D03*
Y2893500D02*
D03*
Y2639500D02*
D03*
Y2512500D02*
D03*
Y3274500D02*
D03*
Y2766500D02*
D03*
X2990000Y6607000D02*
D03*
X3960000Y6480000D02*
D03*
Y6607000D02*
D03*
Y6734000D02*
D03*
Y6861000D02*
D03*
Y6988000D02*
D03*
Y7115000D02*
D03*
Y7242000D02*
D03*
Y7369000D02*
D03*
X2990000Y6480000D02*
D03*
Y6861000D02*
D03*
Y6988000D02*
D03*
Y7369000D02*
D03*
Y6734000D02*
D03*
Y7242000D02*
D03*
Y7115000D02*
D03*
X2990000Y4602000D02*
D03*
Y3840000D02*
D03*
X3960000Y3713000D02*
D03*
Y3840000D02*
D03*
Y3967000D02*
D03*
Y4094000D02*
D03*
Y4221000D02*
D03*
Y4348000D02*
D03*
Y4475000D02*
D03*
Y4602000D02*
D03*
X2990000Y3713000D02*
D03*
Y4094000D02*
D03*
Y4475000D02*
D03*
Y4221000D02*
D03*
Y3967000D02*
D03*
Y4348000D02*
D03*
X3965000Y5974500D02*
D03*
Y5212500D02*
D03*
Y5085500D02*
D03*
X2995000Y5212500D02*
D03*
X3965000Y5339500D02*
D03*
Y5720500D02*
D03*
Y5466500D02*
D03*
Y5847500D02*
D03*
Y5593500D02*
D03*
X2995000Y5085500D02*
D03*
Y5720500D02*
D03*
Y5466500D02*
D03*
Y5847500D02*
D03*
Y5593500D02*
D03*
Y5974500D02*
D03*
Y5339500D02*
D03*
D19*
X2875000Y9446500D02*
D03*
Y9573500D02*
D03*
X3965000Y9700500D02*
D03*
Y9573500D02*
D03*
Y9446500D02*
D03*
Y9319500D02*
D03*
X2875000Y9700500D02*
D03*
Y9319500D02*
D03*
D20*
X1869500Y9717000D02*
D03*
X2250500D02*
D03*
X2123500Y9223000D02*
D03*
X1996500D02*
D03*
X1869500D02*
D03*
X2250500D02*
D03*
X2123500Y9717000D02*
D03*
X1996500D02*
D03*
D21*
X4270000Y7580000D02*
D03*
Y7380000D02*
D03*
Y8970000D02*
D03*
Y8770000D02*
D03*
X4270000Y3470000D02*
D03*
Y3270000D02*
D03*
X2700000Y8970000D02*
D03*
Y8770000D02*
D03*
Y6170000D02*
D03*
Y5970000D02*
D03*
Y7570000D02*
D03*
Y7370000D02*
D03*
X6840000Y8320000D02*
D03*
Y8120000D02*
D03*
X4280000Y6180000D02*
D03*
Y5980000D02*
D03*
X4400000Y1250000D02*
D03*
Y1450000D02*
D03*
X5140000Y7180000D02*
D03*
Y6980000D02*
D03*
Y7340000D02*
D03*
Y7540000D02*
D03*
X5690000Y2061000D02*
D03*
Y2261000D02*
D03*
X5470000Y2391001D02*
D03*
Y2191000D02*
D03*
X4280000Y4610000D02*
D03*
Y4810000D02*
D03*
X7390000Y2781001D02*
D03*
Y2981001D02*
D03*
X2720000Y3470000D02*
D03*
Y3270000D02*
D03*
X2700000Y4610000D02*
D03*
Y4810000D02*
D03*
D22*
X2215000Y600000D02*
D03*
X2565000D02*
D03*
D23*
X1197500Y1790000D02*
D03*
Y2250000D02*
D03*
D24*
X532500Y2020000D02*
D03*
D25*
X360000Y1265000D02*
D03*
Y1075000D02*
D03*
X580000Y1170000D02*
D03*
D26*
X6062985Y2498501D02*
D03*
Y2563501D02*
D03*
X6637025Y2693501D02*
D03*
Y2758501D02*
D03*
X6062985Y2693501D02*
D03*
Y2628501D02*
D03*
Y3018501D02*
D03*
X6637025Y3018501D02*
D03*
Y2888501D02*
D03*
Y3083501D02*
D03*
X6062985Y2758501D02*
D03*
Y2823501D02*
D03*
Y2888501D02*
D03*
Y2953501D02*
D03*
Y3083501D02*
D03*
X6637025Y2953501D02*
D03*
Y2823501D02*
D03*
Y2628501D02*
D03*
Y2563501D02*
D03*
Y2498501D02*
D03*
D27*
X7055000Y2786001D02*
D03*
X7185000D02*
D03*
Y2956001D02*
D03*
X7055000D02*
D03*
D28*
X5480000Y3150000D02*
D03*
X4780000D02*
D03*
X5480000Y3550000D02*
D03*
X4780000D02*
D03*
D29*
X8696355Y5500000D02*
D03*
X7753645Y4103000D02*
D03*
Y4865000D02*
D03*
X8696355D02*
D03*
X7753645Y4611000D02*
D03*
X8696355Y4357000D02*
D03*
X7753645D02*
D03*
Y4230000D02*
D03*
X8696355Y4611000D02*
D03*
X7753645Y4484000D02*
D03*
Y4992000D02*
D03*
Y4738000D02*
D03*
X8696355Y4992000D02*
D03*
Y4738000D02*
D03*
Y5246000D02*
D03*
X7753645Y5119000D02*
D03*
X8696355Y4484000D02*
D03*
Y5119000D02*
D03*
Y5373000D02*
D03*
Y4230000D02*
D03*
Y4103000D02*
D03*
Y3976000D02*
D03*
Y3849000D02*
D03*
X7753645D02*
D03*
Y3976000D02*
D03*
Y5246000D02*
D03*
Y5373000D02*
D03*
Y5500000D02*
D03*
X7753645Y7420000D02*
D03*
Y7293000D02*
D03*
Y7166000D02*
D03*
Y6023000D02*
D03*
Y5896000D02*
D03*
X8696354Y7293000D02*
D03*
Y7420000D02*
D03*
Y6404000D02*
D03*
X7753645Y6531000D02*
D03*
Y6912000D02*
D03*
X8696354Y6785000D02*
D03*
Y7166000D02*
D03*
Y6277000D02*
D03*
Y6658000D02*
D03*
X7753645Y6404000D02*
D03*
Y6785000D02*
D03*
X8696354Y7039000D02*
D03*
X7753645Y6277000D02*
D03*
X8696354Y6912000D02*
D03*
X7753645Y6658000D02*
D03*
X8696354Y6531000D02*
D03*
X7753645Y7039000D02*
D03*
Y6150000D02*
D03*
X8696354Y5896000D02*
D03*
X7753645Y5769000D02*
D03*
X8696354Y6023000D02*
D03*
Y6150000D02*
D03*
Y5769000D02*
D03*
X7748645Y3555501D02*
D03*
Y3428501D02*
D03*
Y3301501D02*
D03*
Y2031501D02*
D03*
Y1904501D02*
D03*
X8691355D02*
D03*
Y2031501D02*
D03*
Y2158501D02*
D03*
Y2285501D02*
D03*
Y3428501D02*
D03*
X7748645Y2158501D02*
D03*
X8691355Y3555501D02*
D03*
Y2539501D02*
D03*
X7748645Y2666501D02*
D03*
Y3047501D02*
D03*
X8691355Y2920501D02*
D03*
Y3301501D02*
D03*
Y2412501D02*
D03*
Y2793501D02*
D03*
X7748645Y2539501D02*
D03*
Y2920501D02*
D03*
X8691355Y3174501D02*
D03*
X7748645Y2412501D02*
D03*
X8691355Y3047501D02*
D03*
X7748645Y2793501D02*
D03*
X8691355Y2666501D02*
D03*
X7748645Y3174501D02*
D03*
Y2285501D02*
D03*
X7743645Y9341001D02*
D03*
Y9214001D02*
D03*
Y9087001D02*
D03*
Y7817001D02*
D03*
X8686355Y9214001D02*
D03*
Y9341001D02*
D03*
X7743645Y7690001D02*
D03*
X8686355D02*
D03*
Y7817001D02*
D03*
Y8071001D02*
D03*
Y7944001D02*
D03*
X7743645D02*
D03*
X8686355Y8325001D02*
D03*
X7743645Y8452001D02*
D03*
Y8833001D02*
D03*
X8686355Y8706001D02*
D03*
Y9087001D02*
D03*
Y8198001D02*
D03*
Y8579001D02*
D03*
X7743645Y8325001D02*
D03*
Y8706001D02*
D03*
X8686355Y8960001D02*
D03*
X7743645Y8198001D02*
D03*
X8686355Y8833001D02*
D03*
X7743645Y8579001D02*
D03*
X8686355Y8452001D02*
D03*
X7743645Y8960001D02*
D03*
Y8071001D02*
D03*
D30*
X4392500Y2120000D02*
D03*
Y1660000D02*
D03*
Y1890000D02*
D03*
D31*
X5027500D02*
D03*
D32*
X3892500Y2512500D02*
X3965000D01*
X3770000Y2390000D02*
Y3152000D01*
Y2390000D02*
X3892500Y2512500D01*
X3770000Y2140000D02*
Y2390000D01*
Y3152000D02*
Y4484500D01*
Y3152000D02*
X3892500Y3274500D01*
X3965000D01*
X8525740Y5235740D02*
Y5272421D01*
X8520000Y5230000D02*
X8525740Y5235740D01*
Y5272421D02*
X8626320Y5373000D01*
X8696355D01*
X8530000Y7291500D02*
X8694854D01*
X610000Y2772500D02*
Y3407500D01*
X1057500Y3020000D02*
X1430000D01*
X1937500Y2512500D02*
X2995000D01*
X1430000Y3020000D02*
X1937500Y2512500D01*
X610000Y3407500D02*
X670000D01*
X1057500Y3020000D01*
X2670000Y4580000D02*
X2700000Y4610000D01*
Y5970000D02*
X2702250Y5972250D01*
X2700000Y7370000D02*
X2700500Y7369500D01*
X2700000Y4610000D02*
X2851000D01*
X2702250Y5972250D02*
X2992750D01*
X2851500Y4609500D02*
X2982500D01*
X2851000Y4610000D02*
X2851500Y4609500D01*
X2700000Y8770000D02*
X2897500D01*
X2700500Y7369500D02*
X2989500D01*
X2995000Y2512500D02*
X3002500Y2520000D01*
X3110000D01*
X3002500Y3267000D02*
X3083000D01*
X3200000Y3150000D02*
Y4464500D01*
X2995000Y3274500D02*
X3002500Y3267000D01*
X3110000Y2520000D02*
X3200000Y2610000D01*
X3083000Y3267000D02*
X3200000Y3150000D01*
Y2610000D02*
Y3150000D01*
X2990000Y4602000D02*
X3062500D01*
X2982500Y4609500D02*
X2990000Y4602000D01*
X2992750Y5972250D02*
X2995000Y5974500D01*
X2990000Y7369000D02*
X3062500D01*
X2897500Y8770000D02*
X2907500Y8760000D01*
X2989500Y7369500D02*
X2990000Y7369000D01*
X2907500Y8760000D02*
X2980000D01*
X3052500D01*
X2995000Y5974500D02*
X3067500D01*
X3062500Y4602000D02*
X3200000Y4464500D01*
X3067500Y5974500D02*
X3200000Y5842000D01*
Y4464500D02*
Y5842000D01*
X3052500Y8760000D02*
X3200000Y8612500D01*
Y5842000D02*
Y7231500D01*
X3062500Y7369000D02*
X3200000Y7231500D01*
Y8612500D01*
X450000Y3887000D02*
X662999D01*
X680000Y3870000D01*
Y3650000D02*
Y3870000D01*
Y3450000D02*
Y3650000D01*
Y3450000D02*
X720000Y3410000D01*
X2720000Y3270000D02*
X2722250Y3272250D01*
X2992750D01*
X2995000Y3274500D01*
X6345460Y8325400D02*
X6350860Y8320000D01*
X6294600Y8325400D02*
X6345460D01*
X5790000Y8590000D02*
X6030000D01*
X4103500Y9446500D02*
X5216500Y8333500D01*
X5397425D01*
X3965000Y9446500D02*
X4103500D01*
X5533500Y8333500D02*
X5790000Y8590000D01*
X6030000D02*
X6294600Y8325400D01*
X5397425Y8333500D02*
X5533500D01*
X8691355Y3555501D02*
X8708330D01*
X8710000Y3557171D01*
Y3680000D01*
X4466000Y6734000D02*
X5431000Y5769000D01*
X3960000Y6734000D02*
X4466000D01*
X5431000Y5769000D02*
X7753645D01*
X4135000Y8125000D02*
X4370000Y7890000D01*
X7210000D01*
X3950000Y8125000D02*
X4135000D01*
X7210000Y7890000D02*
X7409999Y7690001D01*
X7743645D01*
X7217840Y7562160D02*
X7330000Y7450000D01*
X6249620Y7562160D02*
X7217840D01*
X5952135Y7510500D02*
X6197960D01*
X6249620Y7562160D01*
X6770000Y6800000D02*
X6770000Y6800000D01*
X6550631Y6800000D02*
X6770000D01*
X6221131Y7129500D02*
X6550631Y6800000D01*
X5952135Y7129500D02*
X6221131D01*
X5103500Y8206500D02*
X5397425D01*
X4729999Y7211000D02*
X4760000Y7181000D01*
X4619000Y7211000D02*
X4729999D01*
X4760000Y7160000D02*
Y7181000D01*
X4590000Y7240000D02*
X4619000Y7211000D01*
X4708999Y7411000D02*
X4729999D01*
X4399999Y7720000D02*
X4708999Y7411000D01*
X4760000Y7360000D02*
Y7381000D01*
X4729999Y7411000D02*
X4760000Y7381000D01*
X4210000Y7720000D02*
X4399999D01*
X6564132Y8420258D02*
X6569140Y8415250D01*
X5750000Y8680000D02*
X6200000D01*
X6459742Y8420258D01*
X6564132D01*
X5530500Y8460500D02*
X5750000Y8680000D01*
X5397425Y8460500D02*
X5530500D01*
X6569140Y8224750D02*
Y8415250D01*
X5962575Y8206500D02*
Y8333500D01*
X4291000Y7380000D02*
X4691000Y6980000D01*
X4270000Y7380000D02*
X4291000D01*
X4691000Y6980000D02*
X5140000D01*
X6866500Y7189500D02*
X6870000Y7186000D01*
X6393500Y7189500D02*
X6866500D01*
X6390000Y7193000D02*
X6393500Y7189500D01*
Y7443500D02*
X6866500D01*
X6870000Y7440000D01*
X6390000Y7447000D02*
X6393500Y7443500D01*
X6318382Y7256500D02*
X6381882Y7193000D01*
X5952135Y7256500D02*
X6318382D01*
X6381882Y7193000D02*
X6390000D01*
X6360234Y7447000D02*
X6390000D01*
X5952135Y7383500D02*
X6296734D01*
X6360234Y7447000D01*
X5230000Y7709000D02*
Y7730000D01*
Y7709000D02*
X5260000Y7679000D01*
X5330120Y7513400D02*
Y7629880D01*
X5260000Y7679000D02*
X5281000D01*
X5330120Y7629880D01*
Y7513400D02*
X5333020Y7510500D01*
X5387865D01*
X5390000Y6900000D02*
Y7127365D01*
X5387865Y7129500D02*
X5390000Y7127365D01*
Y6630000D02*
Y6900000D01*
Y6630000D02*
X5390000Y6630000D01*
X8530000Y9214001D02*
X8686355D01*
X3965000Y5339500D02*
X5560500D01*
X7051000Y3849000D02*
X7753645D01*
X5560500Y5339500D02*
X7051000Y3849000D01*
X8690604Y3429250D02*
X8690605Y3429251D01*
X8520750Y3429250D02*
X8690604D01*
X8520000Y3430000D02*
X8520750Y3429250D01*
X8694854Y7291500D02*
X8696354Y7293000D01*
X8180000Y690000D02*
X8520000Y1030000D01*
X7479750Y859750D02*
X7480000Y860000D01*
X7650000Y690000D01*
X8180000D01*
X7307675Y859750D02*
X7479750D01*
X7330000Y710000D02*
X7480000Y860000D01*
X6277425Y879500D02*
X6332670D01*
X6502170Y710000D01*
X7307425Y859500D02*
X7307675Y859750D01*
X6502170Y710000D02*
X7330000D01*
X7540000Y2043110D02*
Y3110000D01*
X6683000Y3967000D02*
X7540000Y3110000D01*
X3960000Y3967000D02*
X6683000D01*
X7540000Y2043110D02*
X7678610Y1904501D01*
X4780000Y3150000D02*
X5480000D01*
X4750000D02*
X4780000D01*
X4630000Y3270000D02*
X4750000Y3150000D01*
X4270000Y3270000D02*
X4630000D01*
X4267750Y3272250D02*
X4270000Y3270000D01*
X3967250Y3272250D02*
X4267750D01*
X3965000Y3274500D02*
X3967250Y3272250D01*
X4392500Y1890000D02*
X5027500D01*
X4265000Y8765000D02*
X4270000Y8770000D01*
X4043500Y7380000D02*
X4270000D01*
X3955000Y8765000D02*
X4265000D01*
X4032500Y7369000D02*
X4043500Y7380000D01*
X4277250Y5977250D02*
X4280000Y5980000D01*
X3967750Y5977250D02*
X4277250D01*
X3950000Y8760000D02*
X3955000Y8765000D01*
X3877500Y8760000D02*
X3950000D01*
X3770000Y8652500D02*
X3877500Y8760000D01*
X3770000Y7251500D02*
Y8652500D01*
Y7251500D02*
X3887500Y7369000D01*
X3960000D02*
X4032500D01*
X3892500Y5974500D02*
X3965000D01*
X3967750Y5977250D01*
X3887500Y7369000D02*
X3960000D01*
X3770000Y5852000D02*
Y7251500D01*
X4276000Y4606000D02*
X4280000Y4610000D01*
X3964000Y4606000D02*
X4276000D01*
X4020000Y1890000D02*
X4392500D01*
X3770000Y2140000D02*
X4020000Y1890000D01*
X3960000Y4602000D02*
X3964000Y4606000D01*
X3887500Y4602000D02*
X3960000D01*
X3770000Y5852000D02*
X3892500Y5974500D01*
X3770000Y4484500D02*
Y5852000D01*
Y4484500D02*
X3887500Y4602000D01*
X7678610Y1904501D02*
X7748645D01*
X7095000Y1515000D02*
X7100000Y1520000D01*
X7095000Y935000D02*
Y1515000D01*
X7090000Y930000D02*
X7095000Y935000D01*
X6350710Y1263440D02*
X6380000Y1292729D01*
X6277425Y1260500D02*
X6280365Y1263440D01*
X6350710D01*
X6380000Y1292729D02*
Y1530000D01*
X6150000D02*
X6380000D01*
X5950000Y1509000D02*
Y1530000D01*
Y1509000D02*
X6030000Y1429000D01*
Y1190000D02*
Y1429000D01*
Y1169000D02*
X6065500Y1133500D01*
X6277425D01*
X6030000Y960000D02*
Y976500D01*
X6060000Y1006500D01*
X6277425D01*
X6030000Y805000D02*
Y960000D01*
X5966000Y741000D02*
X6030000Y805000D01*
X5966000Y621000D02*
Y741000D01*
X5937500Y592500D02*
X5966000Y621000D01*
X6580000Y1530000D02*
X6920000D01*
X2180000Y3410000D02*
X2696500Y2893500D01*
X2995000D01*
X2180000Y3410000D02*
Y6217001D01*
X2739500Y3020500D02*
X2995000D01*
X2290000Y3470000D02*
Y6615000D01*
Y3470000D02*
X2739500Y3020500D01*
X1337700Y5420000D02*
X1337700Y9837700D01*
X1430000Y9930000D01*
X450000Y8459000D02*
X1170000Y7739000D01*
X1260000Y5712634D02*
Y7903000D01*
X450000Y8713000D02*
X1260000Y7903000D01*
X1170000Y5610000D02*
Y7739000D01*
X682500Y4182995D02*
X684999Y4180495D01*
X682500Y4182995D02*
Y4397500D01*
X680000Y4400000D02*
X682500Y4397500D01*
X675000Y4395000D02*
X680000Y4400000D01*
X450000Y4395000D02*
X675000D01*
X1860000Y4009000D02*
X1981000Y4130000D01*
X1860000Y3370000D02*
X2463500Y2766500D01*
X1860000Y3370000D02*
Y4009000D01*
X2463500Y2766500D02*
X2995000D01*
X450000Y7951000D02*
X1000000Y7401000D01*
Y5330000D02*
Y7401000D01*
X270000Y7877000D02*
Y8480000D01*
Y7877000D02*
X450000Y7697000D01*
X590000Y6313000D02*
Y7130000D01*
X450000Y6173000D02*
X590000Y6313000D01*
X1690000Y4700000D02*
Y6887000D01*
X1981000Y7178000D01*
X900000Y7231882D02*
X920000Y7211882D01*
X900000Y7231882D02*
Y7240000D01*
X920000Y5373000D02*
Y7211882D01*
X450000Y4903000D02*
X920000Y5373000D01*
X830000Y5791000D02*
Y6750000D01*
X450000Y5411000D02*
X830000Y5791000D01*
X1430800Y4267318D02*
Y7389800D01*
X1981000Y7940000D01*
X1430800Y4267318D02*
X1460000Y4238118D01*
Y4230000D02*
Y4238118D01*
X1790000Y3260000D02*
Y4955000D01*
Y3260000D02*
X2410500Y2639500D01*
X1790000Y4955000D02*
X1981000Y5146000D01*
X2410500Y2639500D02*
X2995000D01*
X1981000Y6416000D02*
X2180000Y6217001D01*
X2540000Y4640000D02*
Y5700000D01*
X2687500Y5847500D01*
X2995000D01*
X450000Y5919000D02*
X670000Y6139000D01*
Y6970000D01*
X190000Y7703000D02*
Y8200000D01*
Y7703000D02*
X450000Y7443000D01*
X1981000Y6924000D02*
X2290000Y6615000D01*
X1600000Y4520000D02*
Y7051000D01*
X1981000Y7432000D01*
X2500000Y6170000D02*
Y8430000D01*
X2576000Y8506000D02*
X2980000D01*
X2500000Y8430000D02*
X2576000Y8506000D01*
X110000Y6087000D02*
X450000Y6427000D01*
X110000Y4310000D02*
Y6087000D01*
X1080000Y5520000D02*
Y7575000D01*
X450000Y8205000D02*
X1080000Y7575000D01*
X100000Y7539000D02*
X450000Y7189000D01*
X100000Y7539000D02*
Y7980000D01*
X450000Y5665000D02*
X750000Y5965000D01*
Y6840000D01*
X2398000Y9520000D02*
X2598500Y9319500D01*
X2110000Y9520000D02*
X2398000D01*
X1981000Y8702000D02*
X2598500Y9319500D01*
X2001500Y9628500D02*
X2110000Y9520000D01*
X2001500Y9628500D02*
Y9712000D01*
X1996500Y9717000D02*
X2001500Y9712000D01*
X2935000Y9319500D02*
X2940000Y9314500D01*
Y9301000D02*
Y9314500D01*
X2875000Y9319500D02*
X2935000D01*
X3130000Y9090000D02*
Y9111000D01*
X2940000Y9301000D02*
X3130000Y9111000D01*
X2598500Y9319500D02*
X2875000D01*
X2250000Y2400000D02*
X3150000Y1500000D01*
X110000Y2700000D02*
Y4055000D01*
X450000Y4395000D01*
X270000Y2540000D02*
X837500D01*
X110000Y2700000D02*
X270000Y2540000D01*
X1470000Y2400000D02*
X2250000D01*
X1375000Y2305000D02*
X1470000Y2400000D01*
X1235001Y2305000D02*
X1375000D01*
X1190000Y2260000D02*
X1235001Y2305000D01*
X1190000Y2257500D02*
Y2590000D01*
X1117500Y2260000D02*
X1190000D01*
X837500Y2540000D02*
X1117500Y2260000D01*
X1979000Y9930000D02*
X2123500Y9785500D01*
X1650000Y9761000D02*
X1819000Y9930000D01*
X1979000D01*
X2123500Y9717000D02*
Y9785500D01*
X1650000Y9740000D02*
Y9761000D01*
X1430000Y9930000D02*
X1819000D01*
X1510000Y4410000D02*
Y7215000D01*
X1981000Y7686000D01*
X2410000Y4780000D02*
Y8470000D01*
X2573000Y8633000D01*
X2980000D01*
X1450000Y9560000D02*
Y9740000D01*
Y9560000D02*
X1580000Y9430000D01*
X1858000D01*
X1996500Y9291500D01*
Y9223000D02*
Y9291500D01*
X1640000Y9169000D02*
Y9190000D01*
Y9169000D02*
X1789000Y9020000D01*
X1989000D01*
X2123500Y9154500D01*
Y9223000D01*
X3905000Y9319500D02*
X3965000D01*
X3900000Y9314500D02*
X3905000Y9319500D01*
X3900000Y9301000D02*
Y9314500D01*
X3710000Y9111000D02*
X3900000Y9301000D01*
X3710000Y9090000D02*
Y9111000D01*
X3690000Y9070000D02*
X3710000Y9090000D01*
X3690000Y8880000D02*
Y9070000D01*
X3690000Y1722000D02*
X3912000Y1500000D01*
X3690000Y8880000D02*
X3690000Y1722000D01*
X17464999Y7474500D02*
X17469501Y7470000D01*
X17305000Y4665500D02*
X17309500Y4661000D01*
X4072000Y1660000D02*
X4392500D01*
X3912000Y1500000D02*
X4072000Y1660000D01*
X4392500D02*
X4400000Y1652500D01*
Y1450000D02*
Y1652500D01*
X2565000Y600000D02*
X3000000D01*
X2217500Y1187500D02*
X2220000Y1190000D01*
X2217500Y602500D02*
Y1187500D01*
X2215000Y600000D02*
X2217500Y602500D01*
X2220000Y1190000D02*
X2240000Y1210000D01*
Y1380000D01*
X2400000Y1540000D01*
Y1860000D01*
X2190000Y2070000D02*
X2400000Y1860000D01*
X1690000Y2125000D02*
X1745000Y2070000D01*
X2190000D01*
X1690000Y2125000D02*
Y2165000D01*
X1637500Y2072500D02*
X1690000Y2125000D01*
X1550000Y2072500D02*
X1637500D01*
X1267500Y1790000D02*
X1550000Y2072500D01*
X1197500Y1790000D02*
X1267500D01*
X580000Y1170000D02*
X800598D01*
X1400000Y825000D02*
X1410000Y835000D01*
X880598Y1250000D02*
X900000D01*
X800598Y1170000D02*
X880598Y1250000D01*
X205000Y1075000D02*
X360000D01*
X130000Y1150000D02*
X205000Y1075000D01*
X130000Y1150000D02*
Y1500000D01*
X240000Y1610000D01*
X947500D01*
X1127500Y1790000D01*
X1197500D01*
D33*
X1410000Y835000D02*
Y1250000D01*
D34*
X1400000Y825000D02*
D03*
D35*
X1880000Y530000D02*
D03*
D36*
X1400000Y245000D02*
D03*
D37*
X6390000Y7193000D02*
D03*
D38*
Y7447000D02*
D03*
D39*
X5120000Y290000D02*
D03*
X5110000Y1040000D02*
D03*
X2190000Y2070000D02*
D03*
D40*
X5120000Y490000D02*
D03*
X5110000Y1240000D02*
D03*
X2190000Y1870000D02*
D03*
D41*
X1410000Y1250000D02*
D03*
X900000D02*
D03*
D42*
X9800000Y5889000D02*
D03*
Y5381000D02*
D03*
Y4619000D02*
D03*
Y3603000D02*
D03*
Y3349000D02*
D03*
Y3857000D02*
D03*
Y4111000D02*
D03*
Y4365000D02*
D03*
Y4873000D02*
D03*
Y5127000D02*
D03*
Y5635000D02*
D03*
Y6143000D02*
D03*
Y6397000D02*
D03*
Y6651000D02*
D03*
Y6905000D02*
D03*
X1981000Y8448000D02*
D03*
X450000Y4141000D02*
D03*
X1981000Y4384000D02*
D03*
Y3876000D02*
D03*
Y4892000D02*
D03*
Y5908000D02*
D03*
Y6670000D02*
D03*
Y5654000D02*
D03*
X450000Y6935000D02*
D03*
Y6681000D02*
D03*
Y5157000D02*
D03*
Y4649000D02*
D03*
X1981000Y7686000D02*
D03*
Y5400000D02*
D03*
X450000Y4395000D02*
D03*
Y5665000D02*
D03*
Y7189000D02*
D03*
Y8205000D02*
D03*
Y6427000D02*
D03*
X1981000Y6162000D02*
D03*
Y7432000D02*
D03*
Y6924000D02*
D03*
X450000Y7443000D02*
D03*
Y5919000D02*
D03*
X1981000Y4638000D02*
D03*
Y6416000D02*
D03*
Y5146000D02*
D03*
X450000Y8459000D02*
D03*
X1981000Y7940000D02*
D03*
X450000Y3887000D02*
D03*
X1981000Y8194000D02*
D03*
X450000Y5411000D02*
D03*
Y4903000D02*
D03*
X1981000Y7178000D02*
D03*
X450000Y6173000D02*
D03*
Y7697000D02*
D03*
Y7951000D02*
D03*
X1981000Y4130000D02*
D03*
D43*
X9800000Y3095000D02*
D03*
X450000Y8713000D02*
D03*
X1981000Y8702000D02*
D03*
D44*
X4270000Y600000D02*
D03*
X4016000D02*
D03*
X3762000D02*
D03*
X3000000D02*
D03*
X3254000D02*
D03*
D45*
X7798000Y440000D02*
D03*
D46*
X7544000D02*
D03*
X7290000D02*
D03*
X6870000Y7440000D02*
D03*
Y7186000D02*
D03*
D47*
Y7694000D02*
D03*
D48*
X3658000Y1500000D02*
D03*
X3912000D02*
D03*
X3404000D02*
D03*
D49*
X3150000D02*
D03*
D50*
X5619997Y7219996D02*
D03*
X8499995Y6259996D02*
D03*
X4819997Y4979997D02*
D03*
X4179997Y2099998D02*
D03*
X9299995Y2419998D02*
D03*
X4899997Y4819997D02*
D03*
X5299997Y4979997D02*
D03*
X5219997Y1619998D02*
D03*
X6579996Y2419998D02*
D03*
X7059996Y9779995D02*
D03*
X5779997Y3699997D02*
D03*
X8099995Y8979995D02*
D03*
X4739997Y659999D02*
D03*
X9459995Y8499995D02*
D03*
X8099995Y2259998D02*
D03*
X8819995Y819999D02*
D03*
Y9459995D02*
D03*
X5299997Y1779998D02*
D03*
X6099996Y2099998D02*
D03*
X5219997Y9619995D02*
D03*
Y9299995D02*
D03*
X8979995Y179999D02*
D03*
X4419997Y3859997D02*
D03*
X4499997Y6259996D02*
D03*
X8259995Y9299995D02*
D03*
X5379997Y9619995D02*
D03*
X4739997Y6099996D02*
D03*
X7219996Y6899996D02*
D03*
X7459996Y4499997D02*
D03*
X8979995Y2419998D02*
D03*
X6019996Y2259998D02*
D03*
X8419995Y8339996D02*
D03*
X4899997Y6739996D02*
D03*
X5139997Y8819995D02*
D03*
X9859995Y2259998D02*
D03*
X9779995Y1779998D02*
D03*
X8259995Y1619998D02*
D03*
X3699997Y9779995D02*
D03*
X4659997Y1459998D02*
D03*
X6419996Y1779998D02*
D03*
X4419997Y8339996D02*
D03*
X8499995Y2739998D02*
D03*
X7059996Y6259996D02*
D03*
X5059997Y9299995D02*
D03*
X6259996Y2099998D02*
D03*
X9779995Y1459998D02*
D03*
X9379995Y1939998D02*
D03*
X6739996Y5619997D02*
D03*
X4979997Y9779995D02*
D03*
X5299997Y4659997D02*
D03*
X5059997Y5139997D02*
D03*
X9539995Y6099996D02*
D03*
X7379996Y9139995D02*
D03*
X8659995Y9459995D02*
D03*
X7539996Y8179996D02*
D03*
X6339996Y7699996D02*
D03*
X9139995Y9139995D02*
D03*
X9699995Y2259998D02*
D03*
X9619995Y7219996D02*
D03*
X9779995Y1139998D02*
D03*
X9859995Y7059996D02*
D03*
X4579997Y6419996D02*
D03*
X8499995Y179999D02*
D03*
X6579996Y8819995D02*
D03*
X4579997Y659999D02*
D03*
X7219996Y179999D02*
D03*
X9619995Y4659997D02*
D03*
X6259996Y5939997D02*
D03*
X9539995Y8659995D02*
D03*
X3859997Y179999D02*
D03*
X7939996Y9299995D02*
D03*
X8339996Y9779995D02*
D03*
X6739996Y5299997D02*
D03*
X6579996Y9459995D02*
D03*
X8899995Y659999D02*
D03*
X8579995Y1619998D02*
D03*
X8019996Y179999D02*
D03*
X7379996Y7539996D02*
D03*
X5619997D02*
D03*
X9699995Y8019996D02*
D03*
X4659997Y1779998D02*
D03*
X9859995Y1939998D02*
D03*
X5619997Y5939997D02*
D03*
X9539995Y8979995D02*
D03*
X4579997Y1619998D02*
D03*
X4739997D02*
D03*
X9059995Y2259998D02*
D03*
X4739997Y979999D02*
D03*
X4499997Y5939997D02*
D03*
X6899996Y6899996D02*
D03*
X6419996Y9139995D02*
D03*
X6019996Y3859997D02*
D03*
Y6419996D02*
D03*
X9699995Y8659995D02*
D03*
X4739997Y2579998D02*
D03*
X8819995Y179999D02*
D03*
X4259997Y2579998D02*
D03*
X8419995Y8659995D02*
D03*
X5859996Y9299995D02*
D03*
X7459996Y8659995D02*
D03*
X9459995Y1779998D02*
D03*
X4659997Y499999D02*
D03*
X5219997Y1939998D02*
D03*
X4659997Y819999D02*
D03*
X7859996Y179999D02*
D03*
X6259996Y9459995D02*
D03*
X9859995Y8659995D02*
D03*
X6259996Y499999D02*
D03*
X4819997Y7539996D02*
D03*
X6099996Y4979997D02*
D03*
X6899996Y3059998D02*
D03*
X7379996Y8499995D02*
D03*
X8099995Y339999D02*
D03*
X4339997Y6579996D02*
D03*
X4819997Y8179996D02*
D03*
X6659996Y7059996D02*
D03*
X6099996Y2419998D02*
D03*
X3699997Y9459995D02*
D03*
X4579997Y2259998D02*
D03*
X6339996Y2579998D02*
D03*
X5459997Y4979997D02*
D03*
X5059997Y2579998D02*
D03*
X3779997Y9619995D02*
D03*
X6259996Y8179996D02*
D03*
X7219996Y7219996D02*
D03*
X6979996Y1619998D02*
D03*
X4339997Y1779998D02*
D03*
X5379997Y4819997D02*
D03*
X4659997Y4659997D02*
D03*
X8019996Y499999D02*
D03*
X9379995Y8979995D02*
D03*
X4339997Y2419998D02*
D03*
X7459996Y6739996D02*
D03*
X6339996Y4819997D02*
D03*
X6259996Y2419998D02*
D03*
X6739996Y1779998D02*
D03*
X8579995Y659999D02*
D03*
X9539995Y7699996D02*
D03*
X5459997Y3699997D02*
D03*
X4579997Y9299995D02*
D03*
X4499997Y819999D02*
D03*
X4979997D02*
D03*
X6899996Y9459995D02*
D03*
X4659997Y9779995D02*
D03*
X4739997Y4819997D02*
D03*
X6499996Y3539997D02*
D03*
X8739995Y659999D02*
D03*
X9539995Y4499997D02*
D03*
X5059997Y6419996D02*
D03*
X8979995Y1459998D02*
D03*
X9779995Y8819995D02*
D03*
X5299997Y3379998D02*
D03*
X7459996Y8339996D02*
D03*
X4179997Y3059998D02*
D03*
X4419997Y2259998D02*
D03*
X4659997Y3379998D02*
D03*
X5619997Y9779995D02*
D03*
X7859996D02*
D03*
X7539996Y6579996D02*
D03*
X9379995Y2259998D02*
D03*
X5779997Y6259996D02*
D03*
X6659996Y3539997D02*
D03*
X3859997Y819999D02*
D03*
X6179996Y3539997D02*
D03*
X5619997Y4979997D02*
D03*
X5219997Y2259998D02*
D03*
X6339996Y6099996D02*
D03*
X4819997Y1459998D02*
D03*
X9139995Y1779998D02*
D03*
X8659995Y9779995D02*
D03*
X6899996Y499999D02*
D03*
X5539997Y3859997D02*
D03*
X9779995Y8179996D02*
D03*
X6499996Y2259998D02*
D03*
X4979997Y1459998D02*
D03*
X6499996Y7699996D02*
D03*
X7859996Y9459995D02*
D03*
X5939997Y5939997D02*
D03*
X9619995Y4019997D02*
D03*
X4339997Y9459995D02*
D03*
X6899996Y5299997D02*
D03*
X9059995Y979999D02*
D03*
X9459995Y2419998D02*
D03*
X6339996Y339999D02*
D03*
X7939996D02*
D03*
X6499996Y8659995D02*
D03*
X5619997Y3379998D02*
D03*
X9219995Y1939998D02*
D03*
X4019997Y6259996D02*
D03*
X4579997Y4819997D02*
D03*
X4659997Y8179996D02*
D03*
X6099996Y179999D02*
D03*
X6899996Y8819995D02*
D03*
X7459996Y5139997D02*
D03*
X6899996Y3379998D02*
D03*
X9059995Y1619998D02*
D03*
X5539997Y2579998D02*
D03*
X9219995Y979999D02*
D03*
X8419995Y9619995D02*
D03*
X4899997Y659999D02*
D03*
X7299996Y7059996D02*
D03*
X4499997Y2419998D02*
D03*
X9139995Y1139998D02*
D03*
X9859995Y8979995D02*
D03*
X4099997Y7699996D02*
D03*
X7379996Y179999D02*
D03*
X6419996Y499999D02*
D03*
X5059997Y8339996D02*
D03*
X6419996Y5939997D02*
D03*
X4099997Y3539997D02*
D03*
X4979997Y7539996D02*
D03*
X8899995Y9619995D02*
D03*
X6819996Y5459997D02*
D03*
X6979996Y7059996D02*
D03*
X7379996Y4979997D02*
D03*
X5219997Y4819997D02*
D03*
X4819997Y9139995D02*
D03*
X4499997Y1779998D02*
D03*
X4339997Y819999D02*
D03*
X4659997Y179999D02*
D03*
X4979997Y9139995D02*
D03*
X6979996Y5459997D02*
D03*
X9299995Y1779998D02*
D03*
X8019996Y9459995D02*
D03*
X6259996Y3699997D02*
D03*
X5939997Y6579996D02*
D03*
X5539997Y7699996D02*
D03*
X5699996Y4819997D02*
D03*
X4419997Y9299995D02*
D03*
X5699996Y659999D02*
D03*
X6979996Y8659995D02*
D03*
X5859996Y1939998D02*
D03*
X8179996Y1779998D02*
D03*
X5779997Y8179996D02*
D03*
X8419995Y8979995D02*
D03*
X9219995Y2259998D02*
D03*
X3939997D02*
D03*
X6579996Y3699997D02*
D03*
X5699996Y6739996D02*
D03*
X8339996Y499999D02*
D03*
X9539995Y7379996D02*
D03*
X6739996Y9779995D02*
D03*
X4739997Y9619995D02*
D03*
X5139997Y6259996D02*
D03*
X3859997Y4979997D02*
D03*
X4099997Y4819997D02*
D03*
X5779997Y9139995D02*
D03*
X8019996Y1459998D02*
D03*
X4099997Y1299998D02*
D03*
X4499997Y4979997D02*
D03*
X5619997Y6259996D02*
D03*
X4419997Y659999D02*
D03*
X5779997Y7539996D02*
D03*
X5619997Y4659997D02*
D03*
X7139996Y339999D02*
D03*
X3779997Y1939998D02*
D03*
X3939997Y6099996D02*
D03*
X4179997Y179999D02*
D03*
X4259997Y1299998D02*
D03*
X6419996Y9459995D02*
D03*
X5059997Y1619998D02*
D03*
X6339996Y2259998D02*
D03*
X6739996Y9139995D02*
D03*
X5059997Y9619995D02*
D03*
X5779997Y1779998D02*
D03*
X7059996Y9459995D02*
D03*
X7219996Y1779998D02*
D03*
X9699995Y3219998D02*
D03*
Y1939998D02*
D03*
X4179997Y2419998D02*
D03*
X5539997Y6419996D02*
D03*
X5459997Y3379998D02*
D03*
X7699996Y1779998D02*
D03*
X6819996Y9299995D02*
D03*
X6659996Y339999D02*
D03*
X9299995Y8819995D02*
D03*
X3859997Y1779998D02*
D03*
X7539996Y8819995D02*
D03*
X4259997Y3859997D02*
D03*
X9139995Y819999D02*
D03*
X8179996D02*
D03*
X9459995Y8819995D02*
D03*
X9859995Y979999D02*
D03*
X4659997Y5939997D02*
D03*
X8339996Y8819995D02*
D03*
X4179997Y1459998D02*
D03*
X4019997Y1779998D02*
D03*
X9219995Y2579998D02*
D03*
X8179996Y9779995D02*
D03*
X7539996Y1779998D02*
D03*
X4979997Y8819995D02*
D03*
X4739997Y9299995D02*
D03*
X6819996Y7059996D02*
D03*
X4099997Y6099996D02*
D03*
X7379996Y8819995D02*
D03*
X9459995Y1139998D02*
D03*
X5779997Y4659997D02*
D03*
X6499996Y3859997D02*
D03*
X9059995Y9619995D02*
D03*
X9539995Y1299998D02*
D03*
X4819997Y3379998D02*
D03*
X8499995Y4659997D02*
D03*
X5059997Y6739996D02*
D03*
X9459995Y2099998D02*
D03*
X9699995Y7699996D02*
D03*
X6659996Y4499997D02*
D03*
X4739997Y5139997D02*
D03*
X5939997Y1779998D02*
D03*
X6899996Y9779995D02*
D03*
X9619995Y7539996D02*
D03*
X6019996Y1939998D02*
D03*
X8659995Y1779998D02*
D03*
X9219995Y1299998D02*
D03*
X4499997Y1139998D02*
D03*
X4899997Y1619998D02*
D03*
X4979997Y9459995D02*
D03*
X6499996Y1939998D02*
D03*
X9859995Y8019996D02*
D03*
X8179996Y499999D02*
D03*
X9699995Y2579998D02*
D03*
X5299997Y3059998D02*
D03*
X9619995Y6259996D02*
D03*
X7059996Y7219996D02*
D03*
X9619995Y2419998D02*
D03*
X9379995Y2899998D02*
D03*
X4179997Y6579996D02*
D03*
X6179996Y3859997D02*
D03*
X7299996Y4819997D02*
D03*
X7539996Y4659997D02*
D03*
X4979997D02*
D03*
X7059996Y8179996D02*
D03*
X9779995Y2099998D02*
D03*
X7139996Y6419996D02*
D03*
X6259996Y3379998D02*
D03*
X6419996Y3699997D02*
D03*
X6579996Y5939997D02*
D03*
X8339996Y9139995D02*
D03*
X7299996Y5139997D02*
D03*
X5379997Y2579998D02*
D03*
X4179997Y7219996D02*
D03*
X4739997Y3859997D02*
D03*
X7059996Y6579996D02*
D03*
X4179997Y9779995D02*
D03*
X4499997Y4659997D02*
D03*
X6259996Y6259996D02*
D03*
X6499996Y5459997D02*
D03*
X4659997Y2419998D02*
D03*
X8659995Y499999D02*
D03*
X5139997Y819999D02*
D03*
X5219997Y8659995D02*
D03*
X7059996Y8499995D02*
D03*
X5859996Y4819997D02*
D03*
X9059995Y2579998D02*
D03*
X4819997Y499999D02*
D03*
X8339996Y1779998D02*
D03*
X6179996Y3219998D02*
D03*
X4499997Y9459995D02*
D03*
X5539997Y4819997D02*
D03*
X6419996Y4659997D02*
D03*
X3859997Y7539996D02*
D03*
X5619997Y9139995D02*
D03*
X7219996Y5619997D02*
D03*
X8419995Y659999D02*
D03*
X4979997Y5939997D02*
D03*
X4819997Y3699997D02*
D03*
X4019997Y179999D02*
D03*
X6579996D02*
D03*
X5939997Y3699997D02*
D03*
X6579996Y9779995D02*
D03*
X6259996D02*
D03*
X7379996Y5619997D02*
D03*
X4819997Y2419998D02*
D03*
X7459996Y4819997D02*
D03*
X5139997Y6579996D02*
D03*
X6979996Y5139997D02*
D03*
X4819997Y9779995D02*
D03*
X6819996Y339999D02*
D03*
X4579997Y979999D02*
D03*
X8739995Y339999D02*
D03*
X5939997Y2099998D02*
D03*
X8259995Y1299998D02*
D03*
X3699997Y819999D02*
D03*
X6099996Y5939997D02*
D03*
X8499995Y1779998D02*
D03*
X4579997Y6099996D02*
D03*
X9139995Y2419998D02*
D03*
X5939997Y9779995D02*
D03*
X3699997Y179999D02*
D03*
X7379996Y5299997D02*
D03*
X8979995Y2099998D02*
D03*
X6019996Y3539997D02*
D03*
X5219997Y3859997D02*
D03*
X6419996Y9779995D02*
D03*
X4499997D02*
D03*
X6339996Y3219998D02*
D03*
X5299997Y9459995D02*
D03*
X7059996Y6899996D02*
D03*
X4259997Y9619995D02*
D03*
X5139997Y4659997D02*
D03*
X8019996Y1779998D02*
D03*
X8259995Y979999D02*
D03*
X9059995Y1299998D02*
D03*
X6659996Y8659995D02*
D03*
X5219997Y5139997D02*
D03*
X5779997Y6579996D02*
D03*
X9139995Y179999D02*
D03*
X6739996Y3699997D02*
D03*
X7299996Y8339996D02*
D03*
X8819995Y1139998D02*
D03*
X9619995D02*
D03*
X4899997Y8339996D02*
D03*
X8659995Y819999D02*
D03*
X9699995Y8339996D02*
D03*
X7699996Y9779995D02*
D03*
X5539997Y6099996D02*
D03*
X6499996Y9299995D02*
D03*
X4819997Y2099998D02*
D03*
X6659996Y1939998D02*
D03*
X6819996Y8659995D02*
D03*
X9299995Y2739998D02*
D03*
X9059995Y1939998D02*
D03*
X9859995Y1619998D02*
D03*
X7539996Y6259996D02*
D03*
X6899996Y1779998D02*
D03*
X6419996Y3379998D02*
D03*
Y8819995D02*
D03*
X6579996Y5619997D02*
D03*
X6979996Y4179997D02*
D03*
X5859996Y7699996D02*
D03*
X4899997Y2579998D02*
D03*
X7219996Y9459995D02*
D03*
X9219995Y8979995D02*
D03*
X9379995Y1619998D02*
D03*
X7139996Y7379996D02*
D03*
X4499997Y8819995D02*
D03*
X8339996Y1139998D02*
D03*
X5379997Y5139997D02*
D03*
X4339997Y4979997D02*
D03*
X6179996Y6099996D02*
D03*
X6579996Y1779998D02*
D03*
X6659996Y5459997D02*
D03*
X9619995Y2739998D02*
D03*
X9539995Y3219998D02*
D03*
X8419995Y1619998D02*
D03*
X9779995Y7539996D02*
D03*
X4419997Y5139997D02*
D03*
X4979997Y1139998D02*
D03*
X6179996Y2259998D02*
D03*
X8499995Y6579996D02*
D03*
X9699995Y979999D02*
D03*
X9779995Y7859996D02*
D03*
X9619995Y4339997D02*
D03*
X4099997Y2259998D02*
D03*
X6099996Y4659997D02*
D03*
X4179997Y4979997D02*
D03*
X5619997Y8819995D02*
D03*
X6419996Y8179996D02*
D03*
X4339997Y3059998D02*
D03*
X4819997Y179999D02*
D03*
X6099996Y3699997D02*
D03*
X8499995Y9779995D02*
D03*
X9459995Y1459998D02*
D03*
X5939997Y6259996D02*
D03*
X6419996Y5619997D02*
D03*
X9539995Y1939998D02*
D03*
X5859996Y6099996D02*
D03*
X8019996Y2099998D02*
D03*
X5539997Y8659995D02*
D03*
X7059996Y9139995D02*
D03*
X8739995Y979999D02*
D03*
X9699995Y2899998D02*
D03*
X6099996Y6259996D02*
D03*
X6019996Y9299995D02*
D03*
X8339996Y2099998D02*
D03*
X6499996Y7059996D02*
D03*
X5059997Y3859997D02*
D03*
X9539995Y2899998D02*
D03*
X5779997Y9459995D02*
D03*
X9539995Y1619998D02*
D03*
X7219996Y8179996D02*
D03*
X9859995Y7379996D02*
D03*
X7139996Y8339996D02*
D03*
X9619995Y7859996D02*
D03*
X8979995Y819999D02*
D03*
X9779995Y9139995D02*
D03*
X7379996Y8179996D02*
D03*
X6819996Y5139997D02*
D03*
X8099995Y979999D02*
D03*
X4179997Y1139998D02*
D03*
X6739996Y9459995D02*
D03*
X9379995Y1299998D02*
D03*
X4179997Y9139995D02*
D03*
X4419997Y4819997D02*
D03*
X8979995Y499999D02*
D03*
X4899997Y3859997D02*
D03*
X8739995Y1619998D02*
D03*
X5539997Y5139997D02*
D03*
X6739996Y8499995D02*
D03*
X4979997Y6579996D02*
D03*
X6739996Y3379998D02*
D03*
X7539996Y8499995D02*
D03*
X7379996Y6259996D02*
D03*
X5859996Y6419996D02*
D03*
X5779997Y5299997D02*
D03*
X6739996Y179999D02*
D03*
X4019997Y7539996D02*
D03*
X9059995Y339999D02*
D03*
X4899997Y9619995D02*
D03*
X8019996Y9779995D02*
D03*
X4579997Y8659995D02*
D03*
X6099996Y9139995D02*
D03*
X5139997Y4979997D02*
D03*
X7139996Y7059996D02*
D03*
X6099996Y8819995D02*
D03*
X5779997Y3059998D02*
D03*
X7379996Y9779995D02*
D03*
X5939997Y179999D02*
D03*
X6499996Y1299998D02*
D03*
X3939997Y7699996D02*
D03*
X4899997D02*
D03*
X5539997Y659999D02*
D03*
X7059996Y8819995D02*
D03*
X4819997Y8499995D02*
D03*
X4659997Y3699997D02*
D03*
X4579997Y8339996D02*
D03*
X4899997Y5139997D02*
D03*
X9299995Y1139998D02*
D03*
X4659997D02*
D03*
X4259997Y2259998D02*
D03*
X4739997D02*
D03*
X5059997Y4819997D02*
D03*
X4579997Y3539997D02*
D03*
X7219996Y5299997D02*
D03*
X5139997Y9779995D02*
D03*
X6179996Y7699996D02*
D03*
X5379997Y1939998D02*
D03*
X7059996Y5299997D02*
D03*
X9299995Y2099998D02*
D03*
X7219996Y8819995D02*
D03*
X4979997Y4979997D02*
D03*
X4019997Y3379998D02*
D03*
X7539996Y5299997D02*
D03*
X4819997Y1779998D02*
D03*
X6979996Y2259998D02*
D03*
X7219996Y8499995D02*
D03*
X7139996Y4819997D02*
D03*
X4339997Y3699997D02*
D03*
X4019997Y9139995D02*
D03*
X8499995Y9459995D02*
D03*
X8819995Y9779995D02*
D03*
X5459997D02*
D03*
X4339997D02*
D03*
X5779997Y5939997D02*
D03*
X5299997Y2419998D02*
D03*
X5699996Y9299995D02*
D03*
X6739996Y499999D02*
D03*
X5779997Y9779995D02*
D03*
X7379996Y7219996D02*
D03*
X8099995Y9299995D02*
D03*
X9539995Y979999D02*
D03*
X5699996Y6099996D02*
D03*
X8899995Y9299995D02*
D03*
X5379997Y3859997D02*
D03*
X6259996Y3059998D02*
D03*
Y9139995D02*
D03*
X9139995Y1459998D02*
D03*
X9539995Y8019996D02*
D03*
X8419995Y339999D02*
D03*
X4659997Y6259996D02*
D03*
X6739996Y6579996D02*
D03*
X8899995Y339999D02*
D03*
X6899996Y5619997D02*
D03*
X4819997Y1139998D02*
D03*
X5539997Y9299995D02*
D03*
X9859995Y2579998D02*
D03*
X3859997Y3379998D02*
D03*
X5139997Y1459998D02*
D03*
X7299996Y5459997D02*
D03*
X8499995Y3059998D02*
D03*
X5779997Y4979997D02*
D03*
X5939997Y9459995D02*
D03*
X8979995Y9779995D02*
D03*
X6179996Y339999D02*
D03*
X9619995Y8179996D02*
D03*
X3939997Y3539997D02*
D03*
X8099995Y1619998D02*
D03*
X8579995Y9619995D02*
D03*
X4979997Y3699997D02*
D03*
X9619995Y8819995D02*
D03*
X7459996Y6419996D02*
D03*
X9299995Y1459998D02*
D03*
X4899997Y6099996D02*
D03*
X9379995Y8659995D02*
D03*
X5139997Y3699997D02*
D03*
X7299996Y8659995D02*
D03*
X6259996Y179999D02*
D03*
X5779997Y8819995D02*
D03*
X7219996Y4979997D02*
D03*
X9539995Y2259998D02*
D03*
X5059997Y659999D02*
D03*
X8419995Y1299998D02*
D03*
X8899995Y979999D02*
D03*
X9699995Y1619998D02*
D03*
X6979996Y6419996D02*
D03*
X7139996Y7699996D02*
D03*
X4419997Y9619995D02*
D03*
X5699996Y7699996D02*
D03*
X6979996Y8339996D02*
D03*
X5299997Y3699997D02*
D03*
X4659997Y9139995D02*
D03*
X7219996D02*
D03*
X8259995Y339999D02*
D03*
X4179997Y3699997D02*
D03*
X5779997Y7219996D02*
D03*
X6099996Y9459995D02*
D03*
X6419996Y2419998D02*
D03*
X4179997Y7859996D02*
D03*
X9779995Y2739998D02*
D03*
X4499997Y499999D02*
D03*
X6899996Y9139995D02*
D03*
X9539995Y6419996D02*
D03*
X7539996Y4979997D02*
D03*
X9699995Y1299998D02*
D03*
X4979997Y179999D02*
D03*
X5219997Y6739996D02*
D03*
X8099995Y1939998D02*
D03*
X5139997Y9459995D02*
D03*
X8499995Y1459998D02*
D03*
X4739997Y7699996D02*
D03*
X6259996Y1779998D02*
D03*
X6899996Y179999D02*
D03*
X8179996D02*
D03*
X6739996Y8819995D02*
D03*
X8659995Y179999D02*
D03*
X9219995Y1619998D02*
D03*
X9859995Y2899998D02*
D03*
X4339997Y179999D02*
D03*
X9059995Y659999D02*
D03*
X5379997Y339999D02*
D03*
X9619995Y1459998D02*
D03*
X6659996Y7699996D02*
D03*
X6419996Y2099998D02*
D03*
X9139995Y9779995D02*
D03*
X4579997Y9619995D02*
D03*
X9779995Y2419998D02*
D03*
X6979996Y9299995D02*
D03*
X8579995Y339999D02*
D03*
X8979995Y1139998D02*
D03*
X8339996Y1459998D02*
D03*
X5699996Y339999D02*
D03*
X7539996Y9779995D02*
D03*
Y9139995D02*
D03*
X4179997Y819999D02*
D03*
X4499997Y8499995D02*
D03*
X7059996Y5619997D02*
D03*
X4659997Y4979997D02*
D03*
X4819997Y9459995D02*
D03*
X9619995Y8499995D02*
D03*
X4979997Y3379998D02*
D03*
X8979995Y9139995D02*
D03*
X4499997Y3059998D02*
D03*
X6099996Y1779998D02*
D03*
X8019996Y1139998D02*
D03*
X9379995Y979999D02*
D03*
X5619997Y9459995D02*
D03*
X6499996Y339999D02*
D03*
X6979996D02*
D03*
X5139997Y3059998D02*
D03*
X7059996Y3379998D02*
D03*
X9859995Y1299998D02*
D03*
X5939997Y9139995D02*
D03*
X6019996Y5139997D02*
D03*
X5219997Y2579998D02*
D03*
X4419997Y8659995D02*
D03*
X4579997Y2579998D02*
D03*
X5939997Y8819995D02*
D03*
X9699995Y8979995D02*
D03*
X4419997Y979999D02*
D03*
X9619995Y1779998D02*
D03*
X4899997Y2259998D02*
D03*
X6339996Y3539997D02*
D03*
X4499997Y3699997D02*
D03*
X5699996Y6419996D02*
D03*
X4979997Y2419998D02*
D03*
X9059995Y9299995D02*
D03*
X9859995Y8339996D02*
D03*
X7059996Y4979997D02*
D03*
X4659997Y9459995D02*
D03*
X6019996Y6099996D02*
D03*
X7299996Y6419996D02*
D03*
X8499995Y819999D02*
D03*
X6259996Y8819995D02*
D03*
X4579997Y5139997D02*
D03*
X4419997Y6419996D02*
D03*
X5219997D02*
D03*
X4899997Y979999D02*
D03*
X8419995Y1939998D02*
D03*
X7139996Y8659995D02*
D03*
X4659997Y8499995D02*
D03*
X6899996D02*
D03*
X8179996Y1139998D02*
D03*
X4499997Y8179996D02*
D03*
X4019997Y2099998D02*
D03*
X8099995Y1299998D02*
D03*
X8179996Y1459998D02*
D03*
X4179997Y8499995D02*
D03*
X4979997Y499999D02*
D03*
X4419997Y2579998D02*
D03*
X7139996Y5139997D02*
D03*
X8499995Y8819995D02*
D03*
X8019996Y9139995D02*
D03*
X4339997Y8499995D02*
D03*
X6579996Y819999D02*
D03*
X7219996Y6579996D02*
D03*
X4739997Y8339996D02*
D03*
X8499995Y4339997D02*
D03*
X5859996Y3859997D02*
D03*
X5139997Y9139995D02*
D03*
X6579996D02*
D03*
X7299996Y9299995D02*
D03*
X6179996D02*
D03*
X8019996Y819999D02*
D03*
X4819997D02*
D03*
X8499995Y4979997D02*
D03*
X9699995Y7379996D02*
D03*
X4499997Y179999D02*
D03*
X6339996Y3859997D02*
D03*
X7059996Y499999D02*
D03*
X8259995Y8979995D02*
D03*
X5779997Y2419998D02*
D03*
X8339996Y179999D02*
D03*
X9619995Y3699997D02*
D03*
X4259997Y8339996D02*
D03*
X8979995Y9459995D02*
D03*
X7379996Y6579996D02*
D03*
X5779997Y499999D02*
D03*
X6419996Y179999D02*
D03*
X6739996Y6899996D02*
D03*
X6659996Y2259998D02*
D03*
X5619997Y3699997D02*
D03*
X4419997Y6099996D02*
D03*
X7139996Y5459997D02*
D03*
X8819995Y499999D02*
D03*
X4579997Y3859997D02*
D03*
X9859995Y7699996D02*
D03*
X5299997Y9779995D02*
D03*
X6819996Y3539997D02*
D03*
X5299997Y2099998D02*
D03*
X5139997Y2419998D02*
D03*
X5539997Y339999D02*
D03*
X6339996Y1939998D02*
D03*
X5059997Y7699996D02*
D03*
X6579996Y2099998D02*
D03*
Y499999D02*
D03*
X7379996Y4659997D02*
D03*
X8979995Y1779998D02*
D03*
X4019997Y4979997D02*
D03*
X4819997Y4659997D02*
D03*
X4419997Y3539997D02*
D03*
X4499997Y3379998D02*
D03*
X7219996Y6259996D02*
D03*
X9379995Y2579998D02*
D03*
X5379997Y1619998D02*
D03*
X5059997Y8659995D02*
D03*
Y2259998D02*
D03*
X9619995Y2099998D02*
D03*
X4739997Y6739996D02*
D03*
X3939997Y4819997D02*
D03*
X6659996Y9299995D02*
D03*
X9139995Y2099998D02*
D03*
X6899996Y6579996D02*
D03*
X6099996Y9779995D02*
D03*
X5139997Y3379998D02*
D03*
X4259997Y6419996D02*
D03*
X4979997Y3059998D02*
D03*
X4179997Y1779998D02*
D03*
X5619997Y499999D02*
D03*
X9459995Y2739998D02*
D03*
X6819996Y1939998D02*
D03*
X4739997Y8659995D02*
D03*
X5459997Y4659997D02*
D03*
X9779995Y7219996D02*
D03*
X8259995Y1939998D02*
D03*
X9539995Y8339996D02*
D03*
X8659995Y1459998D02*
D03*
X7059996Y179999D02*
D03*
X6579996Y6899996D02*
D03*
X6819996Y1619998D02*
D03*
X8579995Y1299998D02*
D03*
X8739995Y9619995D02*
D03*
X5619997Y6579996D02*
D03*
X7219996Y9779995D02*
D03*
X3859997Y6259996D02*
D03*
X4819997Y6579996D02*
D03*
Y5939997D02*
D03*
X4259997Y5139997D02*
D03*
X4899997Y9299995D02*
D03*
X5299997Y1139998D02*
D03*
X7139996Y9299995D02*
D03*
X7379996Y9459995D02*
D03*
X8179996Y2099998D02*
D03*
X8499995Y499999D02*
D03*
X6339996Y9299995D02*
D03*
X4099997Y8979995D02*
D03*
X6179996Y1939998D02*
D03*
X6579996Y3379998D02*
D03*
X9779995Y8499995D02*
D03*
X9539995Y2579998D02*
D03*
X8179996Y9139995D02*
D03*
X5939997Y4659997D02*
D03*
X5699996Y3859997D02*
D03*
X3219998Y9779995D02*
D03*
X3299997Y9619995D02*
D03*
X3219998Y9459995D02*
D03*
X3299997Y9299995D02*
D03*
Y8979995D02*
D03*
X3219998Y8819995D02*
D03*
X3299997Y8659995D02*
D03*
Y8339996D02*
D03*
Y8019996D02*
D03*
Y7699996D02*
D03*
Y7379996D02*
D03*
Y7059996D02*
D03*
Y6739996D02*
D03*
Y6419996D02*
D03*
Y6099996D02*
D03*
Y5779997D02*
D03*
Y5459997D02*
D03*
Y5139997D02*
D03*
Y4819997D02*
D03*
Y4499997D02*
D03*
Y4179997D02*
D03*
Y3859997D02*
D03*
Y3539997D02*
D03*
Y3219998D02*
D03*
Y2899998D02*
D03*
Y2579998D02*
D03*
X3219998Y2419998D02*
D03*
X3299997Y2259998D02*
D03*
X3219998Y2099998D02*
D03*
X3299997Y1939998D02*
D03*
X3219998Y1779998D02*
D03*
X3299997Y1619998D02*
D03*
X3219998Y819999D02*
D03*
Y179999D02*
D03*
X3059998Y9779995D02*
D03*
X3139998Y9619995D02*
D03*
X3059998Y9459995D02*
D03*
X3139998Y9299995D02*
D03*
X3059998Y7539996D02*
D03*
Y6259996D02*
D03*
Y4979997D02*
D03*
Y3379998D02*
D03*
X3139998Y2259998D02*
D03*
X3059998Y2099998D02*
D03*
X3139998Y1939998D02*
D03*
X3059998Y1779998D02*
D03*
Y819999D02*
D03*
Y179999D02*
D03*
X2979998Y7699996D02*
D03*
X2899998Y7539996D02*
D03*
Y6259996D02*
D03*
X2979998Y6099996D02*
D03*
X2899998Y4979997D02*
D03*
X2979998Y4819997D02*
D03*
X2899998Y3379998D02*
D03*
X2979998Y2259998D02*
D03*
X2899998Y2099998D02*
D03*
X2979998Y1939998D02*
D03*
X2899998Y1459998D02*
D03*
X2979998Y1299998D02*
D03*
X2899998Y1139998D02*
D03*
X2979998Y979999D02*
D03*
X2899998Y819999D02*
D03*
Y179999D02*
D03*
X2739998Y9779995D02*
D03*
Y9139995D02*
D03*
Y7859996D02*
D03*
X2819998Y7699996D02*
D03*
X2739998Y6579996D02*
D03*
X2819998Y6419996D02*
D03*
Y5139997D02*
D03*
X2739998Y4979997D02*
D03*
X2819998Y4499997D02*
D03*
X2739998Y2419998D02*
D03*
X2819998Y2259998D02*
D03*
X2739998Y2099998D02*
D03*
Y1779998D02*
D03*
X2819998Y1619998D02*
D03*
X2739998Y1459998D02*
D03*
X2819998Y1299998D02*
D03*
X2739998Y1139998D02*
D03*
X2819998Y979999D02*
D03*
X2739998Y819999D02*
D03*
Y499999D02*
D03*
X2819998Y339999D02*
D03*
X2739998Y179999D02*
D03*
X2579998Y9779995D02*
D03*
Y9139995D02*
D03*
X2659998Y8019996D02*
D03*
Y7699996D02*
D03*
Y6419996D02*
D03*
Y5139997D02*
D03*
Y3859997D02*
D03*
X2579998Y3379998D02*
D03*
Y2419998D02*
D03*
X2659998Y2259998D02*
D03*
X2579998Y1779998D02*
D03*
X2659998Y1619998D02*
D03*
X2579998Y1459998D02*
D03*
X2659998Y1299998D02*
D03*
X2579998Y1139998D02*
D03*
X2659998Y979999D02*
D03*
Y339999D02*
D03*
X2579998Y179999D02*
D03*
X2419998Y9779995D02*
D03*
X2499998Y8979995D02*
D03*
X2419998Y8819995D02*
D03*
X2499998Y4499997D02*
D03*
Y3859997D02*
D03*
Y2899998D02*
D03*
X2419998Y2419998D02*
D03*
Y2099998D02*
D03*
X2499998Y1939998D02*
D03*
Y1619998D02*
D03*
Y979999D02*
D03*
X2419998Y179999D02*
D03*
X2339998Y9299995D02*
D03*
X2259998Y8819995D02*
D03*
X2339998Y8659995D02*
D03*
X2259998Y7859996D02*
D03*
X2339998Y979999D02*
D03*
X2259998Y179999D02*
D03*
X2179998Y8659995D02*
D03*
X2099998Y7859996D02*
D03*
X2179998Y7699996D02*
D03*
Y6419996D02*
D03*
Y3219998D02*
D03*
X2099998Y2739998D02*
D03*
X2179998Y2259998D02*
D03*
X2099998Y1779998D02*
D03*
X2179998Y1619998D02*
D03*
X2099998Y1459998D02*
D03*
Y1139998D02*
D03*
Y819999D02*
D03*
Y499999D02*
D03*
Y179999D02*
D03*
X2019998Y2899998D02*
D03*
X1939998Y2739998D02*
D03*
X2019998Y2259998D02*
D03*
Y1939998D02*
D03*
X1939998Y1779998D02*
D03*
X2019998Y1619998D02*
D03*
X1939998Y1459998D02*
D03*
X2019998Y1299998D02*
D03*
X1939998Y1139998D02*
D03*
X2019998Y979999D02*
D03*
X1939998Y819999D02*
D03*
X2019998Y659999D02*
D03*
Y339999D02*
D03*
X1939998Y179999D02*
D03*
X1779998Y8819995D02*
D03*
Y8179996D02*
D03*
Y6259996D02*
D03*
Y5939997D02*
D03*
Y5619997D02*
D03*
Y3059998D02*
D03*
X1859998Y2899998D02*
D03*
Y2259998D02*
D03*
Y1939998D02*
D03*
Y1619998D02*
D03*
X1779998Y1459998D02*
D03*
X1859998Y1299998D02*
D03*
X1779998Y1139998D02*
D03*
X1859998Y979999D02*
D03*
X1779998Y819999D02*
D03*
Y179999D02*
D03*
X1699998Y8979995D02*
D03*
X1619998Y8819995D02*
D03*
X1699998Y8659995D02*
D03*
X1619998Y8179996D02*
D03*
Y7859996D02*
D03*
X1699998Y3859997D02*
D03*
X1619998Y3699997D02*
D03*
Y3379998D02*
D03*
X1699998Y3219998D02*
D03*
X1619998Y3059998D02*
D03*
X1699998Y2899998D02*
D03*
Y2579998D02*
D03*
X1619998Y1459998D02*
D03*
X1699998Y1299998D02*
D03*
X1619998Y1139998D02*
D03*
X1699998Y979999D02*
D03*
Y659999D02*
D03*
X1619998Y499999D02*
D03*
X1699998Y339999D02*
D03*
X1539998Y8979995D02*
D03*
X1459998Y8819995D02*
D03*
X1539998Y8659995D02*
D03*
X1459998Y8179996D02*
D03*
Y7859996D02*
D03*
X1539998Y7699996D02*
D03*
X1459998Y4019997D02*
D03*
X1539998Y3859997D02*
D03*
X1459998Y3699997D02*
D03*
Y3379998D02*
D03*
X1539998Y3219998D02*
D03*
X1459998Y2739998D02*
D03*
X1539998Y2579998D02*
D03*
Y2259998D02*
D03*
Y1939998D02*
D03*
X1459998Y1779998D02*
D03*
X1539998Y1619998D02*
D03*
X1459998Y1459998D02*
D03*
X1539998Y1299998D02*
D03*
Y979999D02*
D03*
Y659999D02*
D03*
X1459998Y499999D02*
D03*
X1299998Y4979997D02*
D03*
Y4339997D02*
D03*
Y4019997D02*
D03*
X1379998Y3859997D02*
D03*
X1299998Y3699997D02*
D03*
Y3379998D02*
D03*
X1379998Y3219998D02*
D03*
Y2899998D02*
D03*
X1299998Y2739998D02*
D03*
Y2419998D02*
D03*
Y2099998D02*
D03*
X1379998Y1619998D02*
D03*
X1299998Y1459998D02*
D03*
X1379998Y659999D02*
D03*
X1299998Y499999D02*
D03*
X1139998Y9779995D02*
D03*
X1219998Y9619995D02*
D03*
X1139998Y9459995D02*
D03*
X1219998Y9299995D02*
D03*
X1139998Y9139995D02*
D03*
X1219998Y8979995D02*
D03*
X1139998Y8819995D02*
D03*
X1219998Y8659995D02*
D03*
X1139998Y8179996D02*
D03*
X1219998Y5139997D02*
D03*
X1139998Y4979997D02*
D03*
X1219998Y4819997D02*
D03*
Y4499997D02*
D03*
X1139998Y4339997D02*
D03*
X1219998Y4179997D02*
D03*
X1139998Y4019997D02*
D03*
X1219998Y3859997D02*
D03*
X1139998Y3699997D02*
D03*
Y3379998D02*
D03*
X1219998Y3219998D02*
D03*
Y2899998D02*
D03*
X1139998Y2739998D02*
D03*
Y2099998D02*
D03*
X1219998Y1939998D02*
D03*
Y1619998D02*
D03*
X1139998Y1459998D02*
D03*
X1219998Y1299998D02*
D03*
X1139998Y1139998D02*
D03*
X1219998Y979999D02*
D03*
Y659999D02*
D03*
X1139998Y499999D02*
D03*
Y179999D02*
D03*
X979999Y9779995D02*
D03*
X1059998Y9619995D02*
D03*
X979999Y9459995D02*
D03*
X1059998Y9299995D02*
D03*
X979999Y9139995D02*
D03*
X1059998Y8979995D02*
D03*
X979999Y8819995D02*
D03*
X1059998Y8659995D02*
D03*
Y5139997D02*
D03*
X979999Y4979997D02*
D03*
X1059998Y4819997D02*
D03*
Y4499997D02*
D03*
Y4179997D02*
D03*
X979999Y4019997D02*
D03*
X1059998Y3859997D02*
D03*
Y3219998D02*
D03*
Y2899998D02*
D03*
X979999Y2739998D02*
D03*
X1059998Y2579998D02*
D03*
X979999Y2099998D02*
D03*
X1059998Y1939998D02*
D03*
X979999Y1459998D02*
D03*
X1059998Y1299998D02*
D03*
X979999Y1139998D02*
D03*
X1059998Y979999D02*
D03*
X979999Y819999D02*
D03*
X1059998Y659999D02*
D03*
X979999Y499999D02*
D03*
X1059998Y339999D02*
D03*
X979999Y179999D02*
D03*
X899998Y9299995D02*
D03*
X819999Y9139995D02*
D03*
X899998Y8979995D02*
D03*
X819999Y8819995D02*
D03*
X899998Y8659995D02*
D03*
X819999Y5619997D02*
D03*
X899998Y5139997D02*
D03*
X819999Y4979997D02*
D03*
X899998Y4819997D02*
D03*
X819999Y4019997D02*
D03*
Y3059998D02*
D03*
Y2419998D02*
D03*
Y1459998D02*
D03*
X899998Y979999D02*
D03*
X819999Y819999D02*
D03*
Y179999D02*
D03*
X739999Y8979995D02*
D03*
X659999Y8819995D02*
D03*
X739999Y8659995D02*
D03*
X659999Y7539996D02*
D03*
X739999Y7379996D02*
D03*
X659999Y7219996D02*
D03*
X739999Y5459997D02*
D03*
X659999Y5299997D02*
D03*
Y4979997D02*
D03*
X739999Y4819997D02*
D03*
X659999Y4019997D02*
D03*
Y2419998D02*
D03*
X739999Y1299998D02*
D03*
Y979999D02*
D03*
X579999Y8979995D02*
D03*
Y7379996D02*
D03*
Y4819997D02*
D03*
X499999Y4019997D02*
D03*
Y3699997D02*
D03*
Y3059998D02*
D03*
Y2739998D02*
D03*
Y2419998D02*
D03*
X579999Y1299998D02*
D03*
Y979999D02*
D03*
X419999Y8979995D02*
D03*
X339999Y8819995D02*
D03*
Y6579996D02*
D03*
Y5299997D02*
D03*
Y4019997D02*
D03*
X419999Y3219998D02*
D03*
X339999Y3059998D02*
D03*
Y2419998D02*
D03*
X179999Y9139995D02*
D03*
X259999Y8979995D02*
D03*
X179999Y8819995D02*
D03*
X259999Y8659995D02*
D03*
X179999Y7219996D02*
D03*
X259999Y7059996D02*
D03*
X179999Y6899996D02*
D03*
X259999Y6739996D02*
D03*
X179999Y6579996D02*
D03*
X259999Y6419996D02*
D03*
Y6099996D02*
D03*
Y5779997D02*
D03*
Y5459997D02*
D03*
Y5139997D02*
D03*
Y4819997D02*
D03*
Y4499997D02*
D03*
Y3539997D02*
D03*
Y3219998D02*
D03*
Y2899998D02*
D03*
X179999Y2419998D02*
D03*
X259999Y979999D02*
D03*
X179999Y819999D02*
D03*
Y179999D02*
D03*
X7570000Y6950000D02*
D03*
X8520000Y5230000D02*
D03*
X8410000Y5380000D02*
D03*
X8340000Y5460000D02*
D03*
X8270000Y5530000D02*
D03*
X8190000Y5610000D02*
D03*
X8110000Y5690000D02*
D03*
X9202300Y4730000D02*
D03*
X8696355Y5246000D02*
D03*
X9130000Y4110000D02*
D03*
X9210000Y3850000D02*
D03*
X9280000Y3610000D02*
D03*
X9350000Y3390000D02*
D03*
X8696355Y4357000D02*
D03*
X8696354Y6277000D02*
D03*
X9280000Y4580000D02*
D03*
X8993645Y5109999D02*
D03*
X9417700Y4339999D02*
D03*
X9350000Y4460000D02*
D03*
X9132300Y4849999D02*
D03*
X9060000Y4980000D02*
D03*
X9060000Y6900000D02*
D03*
X9200000Y6650000D02*
D03*
X9132300Y6769999D02*
D03*
X9270000Y6500000D02*
D03*
X9350000Y6380000D02*
D03*
X9417700Y6259999D02*
D03*
X8993645Y7029999D02*
D03*
X9420000Y8200000D02*
D03*
X9340000Y8320000D02*
D03*
X9270000Y8450000D02*
D03*
X9200000Y8590000D02*
D03*
X9140000Y8710000D02*
D03*
X9070000Y8840000D02*
D03*
X9000000Y8970000D02*
D03*
X8690000Y7450000D02*
D03*
X8696355Y5119000D02*
D03*
Y4992000D02*
D03*
Y4865000D02*
D03*
Y4738000D02*
D03*
Y4611000D02*
D03*
Y4484000D02*
D03*
X8696354Y7039000D02*
D03*
Y6912000D02*
D03*
Y6785000D02*
D03*
Y6658000D02*
D03*
Y6531000D02*
D03*
Y6404000D02*
D03*
X8686355Y8198001D02*
D03*
Y8325001D02*
D03*
X7980000Y8840000D02*
D03*
X8050000Y8710000D02*
D03*
X8120000Y8570000D02*
D03*
X8686355Y8452001D02*
D03*
Y8579001D02*
D03*
Y8706001D02*
D03*
Y8833001D02*
D03*
Y8960001D02*
D03*
X510000Y3410000D02*
D03*
X720000Y3410000D02*
D03*
X6350860Y8320000D02*
D03*
X6840000D02*
D03*
X8710000Y3680000D02*
D03*
X5140000Y7260000D02*
D03*
X7330000Y7450000D02*
D03*
X6770000Y6800000D02*
D03*
X8686355Y9341001D02*
D03*
X5103500Y8206500D02*
D03*
X4590000Y7240000D02*
D03*
X5962575Y8460500D02*
D03*
X5397425Y8079500D02*
D03*
X5390000Y6630000D02*
D03*
X8410000Y8060000D02*
D03*
X7750000D02*
D03*
Y8210000D02*
D03*
X5387865Y7510500D02*
D03*
Y7256500D02*
D03*
X7750000Y6140000D02*
D03*
X8410000D02*
D03*
X3950000Y8252000D02*
D03*
Y8125000D02*
D03*
Y8379000D02*
D03*
Y8506000D02*
D03*
Y8633000D02*
D03*
X3960000Y6861000D02*
D03*
Y6988000D02*
D03*
Y7115000D02*
D03*
Y7242000D02*
D03*
X8686355Y7690001D02*
D03*
Y7817001D02*
D03*
Y7944001D02*
D03*
Y8071001D02*
D03*
X8696354Y6150000D02*
D03*
Y6023000D02*
D03*
Y5896000D02*
D03*
Y5769000D02*
D03*
X3965000Y5466500D02*
D03*
Y5593500D02*
D03*
Y5720500D02*
D03*
Y5847500D02*
D03*
X8696355Y3849000D02*
D03*
Y3976000D02*
D03*
Y4103000D02*
D03*
Y4230000D02*
D03*
X3960000Y4094000D02*
D03*
Y4221000D02*
D03*
Y4348000D02*
D03*
Y4475000D02*
D03*
X7743645Y9341001D02*
D03*
X7748645Y3555501D02*
D03*
X7753645Y7420000D02*
D03*
X7740000Y8570000D02*
D03*
Y8450000D02*
D03*
X7750000Y8330000D02*
D03*
Y5520000D02*
D03*
Y8710000D02*
D03*
X7740000Y8830000D02*
D03*
X7872575Y1240500D02*
D03*
X8520000Y3430000D02*
D03*
X7740000Y4990000D02*
D03*
X7750000Y4870000D02*
D03*
X7740000Y4730000D02*
D03*
Y4610000D02*
D03*
X7750000Y4370000D02*
D03*
Y4220000D02*
D03*
X8190000Y4610000D02*
D03*
X8120000Y4730000D02*
D03*
X8050000Y4870000D02*
D03*
X7980000Y5000000D02*
D03*
X7750000Y4490000D02*
D03*
X8260000Y4480000D02*
D03*
X8340000Y4360000D02*
D03*
X8410000Y4220000D02*
D03*
X8270000Y6400000D02*
D03*
X8337700Y6280000D02*
D03*
X7740000Y6910000D02*
D03*
X7750000Y6790000D02*
D03*
X7740000Y6650000D02*
D03*
Y6530000D02*
D03*
X7750000Y6290000D02*
D03*
X8190000Y6530000D02*
D03*
X8120000Y6650000D02*
D03*
X8050000Y6790000D02*
D03*
X7980000Y6920000D02*
D03*
X7750000Y6410000D02*
D03*
X8340000Y8200000D02*
D03*
X8260000Y8320000D02*
D03*
X8190000Y8450000D02*
D03*
X8530000Y7310000D02*
D03*
Y9210000D02*
D03*
X8520000Y1030000D02*
D03*
X7480000Y860000D02*
D03*
X5330000Y1345000D02*
D03*
X6277425Y879500D02*
D03*
X5480000Y3150000D02*
D03*
X5470000Y2391000D02*
D03*
X5690000Y2051000D02*
D03*
X6300000Y2701000D02*
D03*
X6507499Y2693501D02*
D03*
X4392500Y1890000D02*
D03*
X7748645Y1904501D02*
D03*
X8691355D02*
D03*
Y2031501D02*
D03*
Y2158501D02*
D03*
X8690000Y2290000D02*
D03*
X6920000Y1530000D02*
D03*
X5350000Y155000D02*
D03*
X5937500Y592500D02*
D03*
X5830000Y960000D02*
D03*
X5830000Y1170000D02*
D03*
X6030000Y1190000D02*
D03*
X7090000Y930000D02*
D03*
X7510000Y1520000D02*
D03*
X7100000D02*
D03*
X1260000Y5710000D02*
D03*
X1000000Y5330000D02*
D03*
X2995000Y5339500D02*
D03*
X2980000Y8379000D02*
D03*
X270000Y8480000D02*
D03*
X590000Y7130000D02*
D03*
X2990000Y7115000D02*
D03*
X1690000Y4700000D02*
D03*
X2990000Y4348000D02*
D03*
X900000Y7240000D02*
D03*
X2990000Y7242000D02*
D03*
X830000Y6750000D02*
D03*
X2990000Y6734000D02*
D03*
X1460000Y4230000D02*
D03*
X2990000Y3967000D02*
D03*
X1170000Y5610000D02*
D03*
X2995000Y5593500D02*
D03*
X2540000Y4640000D02*
D03*
X670000Y6970000D02*
D03*
X2990000Y6988000D02*
D03*
X2980000Y8260000D02*
D03*
X190000Y8200000D02*
D03*
X1600000Y4520000D02*
D03*
X2990000Y4221000D02*
D03*
X2500000Y6170000D02*
D03*
X110000Y4310000D02*
D03*
X2990000Y4475000D02*
D03*
X1080000Y5520000D02*
D03*
X2995000Y5466500D02*
D03*
X2990000Y8130000D02*
D03*
X100000Y7980000D02*
D03*
X750000Y6840000D02*
D03*
X2990000Y6861000D02*
D03*
X840000Y2772500D02*
D03*
X1190000Y2260000D02*
D03*
X1650000Y9740000D02*
D03*
X1337700Y5420000D02*
D03*
X1510000Y4410000D02*
D03*
X2990000Y4094000D02*
D03*
X2410000Y4780000D02*
D03*
X2995000Y5720500D02*
D03*
X1996500Y9223000D02*
D03*
X2123500D02*
D03*
X2875000Y9446500D02*
D03*
Y9573500D02*
D03*
X1640000Y9190000D02*
D03*
X1450000Y9740000D02*
D03*
X360000Y1080000D02*
D03*
Y1420000D02*
D03*
X1690000Y2070000D02*
D03*
X1190000Y1780000D02*
D03*
%TF.MD5,83eac832ebef2f325c27f151aa6d70a0*%
M02*
